<svg id="ic_step04" xmlns="http://www.w3.org/2000/svg" width="80" height="80" viewBox="0 0 80 80">
    <defs>
        <style>
            .cls-1,.cls-3{fill:none}.cls-3{stroke:#fff;stroke-width:2.5px}.cls-5{stroke:none}
        </style>
    </defs>
    <path id="Rectangle_12" data-name="Rectangle 12" class="cls-1" d="M0 0h80v80H0z"/>
    <g id="Group_593" data-name="Group 593" transform="translate(-740.211 -106.29)">
        <g id="Union_1" data-name="Union 1" style="fill:none">
            <path class="cls-5" d="M2 22.432a2 2 0 0 1-2-2v-5.608q0-.075.006-.149a1.949 1.949 0 0 1 1.057-2.137L25.205.188a2 2 0 0 1 1.822 0l24.142 12.349a1.949 1.949 0 0 1 1.057 2.137q.005.074.006.149v5.608a2 2 0 0 1-2 2z" transform="translate(754.025 117.308)"/>
            <path d="M49.732 19.932v-5.09l-.018-.241L26.116 2.53 2.518 14.6l-.018.24v5.09h47.232m.5 2.5H2a2 2 0 0 1-2-2v-5.607c0-.05.002-.1.006-.15-.148-.797.164-1.68 1.057-2.137L25.205.188a2 2 0 0 1 1.822 0l24.142 12.349c.893.457 1.204 1.34 1.057 2.137.004.05.006.1.006.15v5.608a2 2 0 0 1-2 2z" style="fill:#fff;stroke:none" transform="translate(754.025 117.308)"/>
        </g>
        <g id="Rectangle_14" data-name="Rectangle 14" class="cls-3">
            <path class="cls-5" d="M0 0h9.608v28.514H0z" transform="translate(759.241 137.273)"/>
            <path class="cls-1" d="M1.25 1.25h7.108v26.014H1.25z" transform="translate(759.241 137.273)"/>
        </g>
        <g id="Rectangle_15" data-name="Rectangle 15" class="cls-3">
            <path class="cls-5" d="M0 0h9.608v28.514H0z" transform="translate(775.836 137.273)"/>
            <path class="cls-1" d="M1.25 1.25h7.108v26.014H1.25z" transform="translate(775.836 137.273)"/>
        </g>
        <g id="Rectangle_16" data-name="Rectangle 16" class="cls-3">
            <path class="cls-5" d="M0 0h9.608v28.514H0z" transform="translate(792.432 137.273)"/>
            <path class="cls-1" d="M1.25 1.25h7.108v26.014H1.25z" transform="translate(792.432 137.273)"/>
        </g>
        <g id="Rectangle_17" data-name="Rectangle 17" class="cls-3" transform="translate(754 163.323)">
            <rect class="cls-5" width="52.232" height="8.734" rx="2"/>
            <rect class="cls-1" x="1.25" y="1.25" width="49.732" height="6.234" rx=".75"/>
        </g>
        <path id="Path_355" data-name="Path 355" d="M779.489 133.63h7.66" transform="translate(-3.226 -2.074)" style="stroke-linecap:round;stroke:#fff;stroke-width:2.5px;fill:none"/>
    </g>
</svg>
