<?xml version="1.0" encoding="UTF-8"?>
<svg width="64px" height="64px" viewBox="0 0 64 64" version="1.1" xmlns="http://www.w3.org/2000/svg" xmlns:xlink="http://www.w3.org/1999/xlink">
    <title>icon-join02</title>
    <g id="Page-1" stroke="none" stroke-width="1" fill="none" fill-rule="evenodd">
        <g id="Group-16">
            <rect id="Rectangle" x="0" y="0" width="64" height="64"></rect>
            <g id="Group-17" transform="translate(15.500000, 5.000000)">
                <path d="M28.35,-1.03448276 L4.05,-1.03448276 C1.24191771,-1.03448276 -1.03448276,1.24191771 -1.03448276,4.05 L-1.03448276,49.95 C-1.03448276,52.7580823 1.24191771,55.0344828 4.05,55.0344828 L28.35,55.0344828 C31.1580823,55.0344828 33.4344828,52.7580823 33.4344828,49.95 L33.4344828,4.05 C33.4344828,1.24191771 31.1580823,-1.03448276 28.35,-1.03448276 Z M4.05,1.03448276 L28.35,1.03448276 C30.0154242,1.03448276 31.3655172,2.38457581 31.3655172,4.05 L31.3655172,49.95 C31.3655172,51.6154242 30.0154242,52.9655172 28.35,52.9655172 L4.05,52.9655172 C2.38457581,52.9655172 1.03448276,51.6154242 1.03448276,49.95 L1.03448276,4.05 C1.03448276,2.38457581 2.38457581,1.03448276 4.05,1.03448276 Z" id="Rectangle" fill="#222222" fill-rule="nonzero"></path>
                <rect id="Rectangle" fill="#222222" x="12.5" y="5" width="8" height="2" rx="1"></rect>
                <circle id="Oval" fill="#EC455A" cx="16.2" cy="27" r="8.06079376"></circle>
                <path d="M18.6359617,24.172338 C18.9089719,23.8608283 19.3828189,23.8296182 19.6943287,24.1026284 C19.9775193,24.3508195 20.0290574,24.7649914 19.8309709,25.0722861 L19.7640383,25.1609953 L15.6741261,29.827662 C15.3958658,30.1451622 14.91799,30.1661497 14.6129473,29.8951058 L14.5343188,29.8139476 L12.624231,27.52569 C12.3587951,27.2077016 12.4013973,26.7347427 12.7193857,26.4693067 C13.0084661,26.2280013 13.4256213,26.2412729 13.6985045,26.4845896 L13.775769,26.5644614 L15.124,28.18 L18.6359617,24.172338 Z" id="Path" fill="#FFFFFF" fill-rule="nonzero"></path>
            </g>
        </g>
    </g>
</svg>