<?xml version="1.0" encoding="UTF-8"?>
<svg width="84px" height="84px" viewBox="0 0 84 84" version="1.1" xmlns="http://www.w3.org/2000/svg" xmlns:xlink="http://www.w3.org/1999/xlink">
    <title>icon-point1</title>
    <g id="Page-1" stroke="none" stroke-width="1" fill="none" fill-rule="evenodd">
        <g id="Group-13">
            <rect id="Rectangle" x="0" y="0" width="84" height="84"></rect>
            <g id="Group-10" transform="translate(10.000000, 22.000000)">
                <circle id="Oval" stroke="#222222" stroke-width="1.5" fill="#F4F4F4" stroke-linecap="round" cx="41" cy="20" r="20"></circle>
                <path d="M38.6110665,12.6622778 C35.6850396,5.24685583 28.4552542,0 20,0 C8.954305,0 0,8.954305 0,20 C0,31.045695 8.954305,40 20,40 C28.0375159,40 34.9676622,35.2587868 38.1462344,28.4205648" id="Path" stroke="#222222" stroke-width="1.5" fill="#F4F4F4" stroke-linecap="round"></path>
                <path d="M35.1011845,19.25 L43.6011845,19.25 C44.0153981,19.25 44.3511845,19.5857864 44.3511845,20 C44.3511845,20.4142136 44.0153981,20.75 43.6011845,20.75 L35.1011845,20.75 C34.6869709,20.75 34.3511845,20.4142136 34.3511845,20 C34.3511845,19.5857864 34.6869709,19.25 35.1011845,19.25 Z" id="Rectangle" fill="#222222"></path>
                <path d="M40.9372643,16.2720791 L46.1547231,19.7503849 C46.2925817,19.8422906 46.3298338,20.0285515 46.2379281,20.1664101 C46.2159577,20.1993657 46.1876788,20.2276446 46.1547231,20.2496151 L40.9372643,23.7279209 C40.7994057,23.8198266 40.6131449,23.7825745 40.5212392,23.6447159 C40.4883857,23.5954356 40.4708543,23.5375333 40.4708543,23.4783058 L40.4708543,16.5216942 C40.4708543,16.3560088 40.6051689,16.2216942 40.7708543,16.2216942 C40.8300818,16.2216942 40.8879841,16.2392256 40.9372643,16.2720791 Z" id="Rectangle" fill="#222222"></path>
                <path d="M17.7668161,29 L17.7668161,22.657967 L21.0690583,22.657967 C23.2370703,22.657967 24.9342302,22.1490385 26.1605381,21.1311813 C27.386846,20.1133242 28,18.7225275 28,16.9587912 C28,15.7967033 27.7195815,14.7603022 27.1587444,13.8495879 C26.5979073,12.9388736 25.7964126,12.2362637 24.7542601,11.7417582 C23.7121076,11.2472527 22.5046338,11 21.1318386,11 L21.1318386,11 L14,11 L14,29 L17.7668161,29 Z M21.1318386,19.6538462 L17.7668161,19.6538462 L17.7668161,14.0041209 L21.2197309,14.0041209 C22.1488789,14.0206044 22.87713,14.3008242 23.4044843,14.8447802 C23.9318386,15.3887363 24.1955157,16.1016484 24.1955157,16.9835165 C24.1955157,17.8406593 23.9339312,18.5 23.4107623,18.9615385 C22.8875934,19.4230769 22.1279522,19.6538462 21.1318386,19.6538462 L21.1318386,19.6538462 Z" id="P" fill="#111111" fill-rule="nonzero"></path>
            </g>
        </g>
    </g>
</svg>