<?xml version="1.0" encoding="UTF-8"?>
<svg width="213px" height="100px" viewBox="0 0 213 100" version="1.1" xmlns="http://www.w3.org/2000/svg" xmlns:xlink="http://www.w3.org/1999/xlink">
    <!-- Generator: Sketch 61.2 (89653) - https://sketch.com -->
    <title>Artboard</title>
    <desc>Created with Sketch.</desc>
    <defs>
        <polygon id="path-1" points="0 0.0561617172 25.19412 0.0561617172 25.19412 21.8248433 0 21.8248433"></polygon>
        <polygon id="path-3" points="0.131942354 0.10092988 16.9491615 0.10092988 16.9491615 74.2 0.131942354 74.2"></polygon>
        <polygon id="path-5" points="0.0576248396 0.4536 64.80154 0.4536 64.80154 59.832821 0.0576248396 59.832821"></polygon>
        <polygon id="path-7" points="0 84.94808 110.6028 84.94808 110.6028 1.40168 0 1.40168"></polygon>
    </defs>
    <g id="Page-1" stroke="none" stroke-width="1" fill="none" fill-rule="evenodd">
        <g id="Artboard" transform="translate(-398.000000, -287.000000)">
            <g id="img" transform="translate(398.000000, 287.000000)">
                <rect id="영역" x="0" y="0" width="213" height="100"></rect>
                <g id="Galleria-Logo" transform="translate(52.000000, 7.000000)">
                    <g id="Group-3" transform="translate(0.000000, 38.748080)">
                        <mask id="mask-2" fill="white">
                            <use xlink:href="#path-1"></use>
                        </mask>
                        <g id="Clip-2"></g>
                        <path d="M20.75472,9.1875 C21.56112,9.0153 21.67452,11.8587 20.52372,14.0217 C20.52372,14.0217 19.96512,9.3765 20.75472,9.1875 M24.85392,12.5517 C24.63132,12.5517 24.63132,12.9507 24.63132,12.9507 C24.63132,12.9507 24.11892,17.8941 22.24152,19.7757 C22.24152,19.7757 21.43092,20.8467 20.92272,19.7043 C20.41452,18.5703 20.35992,16.8609 20.41452,15.3909 C20.41452,15.3909 22.29612,13.2867 22.35072,10.9515 C22.40532,8.6205 21.20412,7.2135 19.68372,6.4029 C19.68372,6.4029 19.23012,6.1215 19.17132,6.9279 C19.11252,7.7175 18.08352,11.0691 18.70512,17.0331 C18.70512,17.0331 17.57532,19.8681 16.89492,19.9269 C16.20612,20.0067 15.13092,15.0549 17.74332,11.8587 C17.74332,11.8587 18.25152,11.4051 17.85672,10.6743 C17.46192,9.9393 16.27752,7.8351 16.27752,7.8351 C16.27752,7.8351 15.63492,7.2639 15.47112,7.9443 C15.29892,8.6205 12.85452,13.7403 12.17832,15.7353 C12.17832,15.7353 11.72472,8.9061 13.41732,3.9249 C13.41732,3.9249 13.88772,3.2445 13.35852,2.5683 C12.85452,1.8921 11.21652,0.1197 11.21652,0.1197 C11.21652,0.1197 10.51932,-0.1617 10.69152,0.4599 C10.85952,1.0773 11.38872,8.5113 10.35132,14.4753 C10.35132,14.4753 8.88552,19.8891 7.68432,19.8345 C7.68432,19.8345 6.83592,20.3931 7.17192,10.9011 C7.17192,10.9011 7.11312,10.3341 8.07492,10.2207 C9.05352,10.1115 10.06992,10.0527 10.06992,10.0527 L10.12452,9.3765 L7.51212,9.3765 C7.51212,9.3765 7.51212,7.3227 7.62552,6.8187 C7.73892,6.2937 7.51212,6.0627 7.51212,6.0627 L6.10092,4.3701 C6.10092,4.3701 5.12232,3.9249 5.23572,4.6515 C5.35332,5.3865 5.51712,4.9917 5.51712,5.8401 L5.51712,9.3765 L1.15332,9.4353 C1.15332,9.4353 0.75852,9.3765 0.59052,9.8217 C0.40152,10.2753 0.00672,10.9515 0.00672,10.9515 C0.00672,10.9515 -0.10668,11.6865 0.59052,11.2917 C1.26672,10.9011 1.49352,10.6155 2.56452,10.5567 C3.65652,10.5063 5.59692,10.5063 5.59692,10.5063 L5.51712,18.7383 C5.51712,18.7383 5.70612,21.9219 7.17192,21.8043 C7.17192,21.8043 8.13372,22.3923 10.18332,17.2767 C10.18332,17.2767 10.57812,17.0331 10.57812,17.6127 C10.57812,18.1755 10.46472,21.6951 11.38872,21.6405 C11.38872,21.6405 12.51852,20.5653 12.51852,19.5909 C12.51852,18.6291 13.56852,14.6391 14.92092,13.2867 C14.92092,13.2867 14.05572,21.4095 16.27752,21.5271 C16.27752,21.5271 17.12172,21.8043 18.58752,18.8559 C18.58752,18.8559 18.81852,18.4611 19.06212,18.8559 C19.28472,19.2507 19.73832,21.2961 21.20412,21.1869 C22.69092,21.0735 24.91272,17.7261 25.19412,12.8415 C25.19412,12.8415 25.07652,12.5517 24.85392,12.5517" id="Fill-1" fill="#005BAB" mask="url(#mask-2)"></path>
                    </g>
                    <g id="Group-6" transform="translate(26.600000, 10.748080)">
                        <mask id="mask-4" fill="white">
                            <use xlink:href="#path-3"></use>
                        </mask>
                        <g id="Clip-5"></g>
                        <path d="M13.52218,19.6021 C13.27858,19.3207 13.20298,18.5059 13.42978,18.1909 C13.56418,18.1741 13.75318,18.1531 13.88338,18.1741 L13.88338,18.6781 C13.91698,19.0393 14.04718,20.2405 13.52218,19.6021 M0.92218,38.7667 C0.69538,37.9015 1.16578,37.4353 1.16578,37.4353 C1.16578,37.4353 1.24138,37.6201 1.37158,37.9603 C1.51018,38.3173 1.09438,39.4639 0.92218,38.7667 M16.92838,34.2937 C16.77718,33.6301 16.60918,33.5755 16.77718,32.8825 C16.91578,32.3197 16.74358,31.8451 16.81498,31.2445 C16.92838,30.3037 16.70578,29.4007 16.74358,28.4599 C16.76038,27.9139 16.68478,27.4225 16.70578,26.9353 C16.72258,26.2969 16.70578,25.6207 16.64698,24.9991 C15.98758,24.7933 16.84858,23.8147 16.92838,23.5123 C17.02078,23.0797 16.70578,22.5169 16.60918,22.0507 C16.51678,21.5593 16.70578,21.1981 16.72258,20.6731 C16.74358,20.0347 16.46218,19.3207 16.60918,18.7957 C16.68478,18.5059 16.86958,18.4177 16.84858,18.0607 C16.83598,17.8507 16.66378,17.7205 16.66378,17.4979 C16.66378,17.0275 16.79818,16.5907 16.77718,16.0657 C16.76038,15.8011 16.76038,15.5785 16.70578,15.3307 C16.68478,15.1795 16.47478,15.1795 16.49578,14.9905 C16.49578,14.8645 16.62598,14.8645 16.64698,14.7679 C16.70578,14.4865 16.79818,14.3353 16.79818,14.0329 C16.77718,13.7683 16.72258,13.5289 16.72258,13.2811 C16.70578,12.6007 17.28538,10.7989 15.87838,11.2483 L15.40378,11.7565 C14.99218,12.4579 14.63098,13.0207 14.10598,13.6969 C13.76998,14.1295 13.84558,14.2765 13.94218,14.8267 C14.03458,15.4651 13.99678,15.5029 13.48858,15.7255 C13.05598,15.9145 12.54778,16.1791 13.29958,16.3681 C13.58098,16.4269 13.88338,16.2169 14.03458,16.5403 C14.23618,16.9141 13.86238,16.8721 13.65658,16.9309 C13.16938,17.0443 12.86698,16.9855 12.56458,17.4979 C12.26638,18.0229 12.52678,18.2455 12.69478,18.7369 C12.92158,19.3921 12.54778,19.9759 12.62338,20.6731 C12.69478,21.3325 12.82918,21.7987 12.78718,22.4749 C12.73678,24.0583 12.60238,25.7509 12.78718,27.2797 C12.98038,28.7413 12.45538,30.1903 12.45538,31.6603 C12.45538,33.1051 12.00178,34.4953 11.72038,35.8897 C11.56918,36.6625 11.38438,37.3765 11.13658,38.1115 C10.90978,38.7499 10.70818,39.3505 10.46038,40.0267 C10.21678,40.7407 10.19578,41.1943 9.72538,41.7781 C9.25918,42.3577 8.99038,42.8071 8.14198,42.7567 C8.03278,42.5131 7.67578,42.3787 7.41538,42.2653 C6.78958,42.0217 6.83158,42.0595 6.77278,41.4001 C6.73498,40.9339 6.69718,40.2367 6.03778,40.2535 C5.73538,39.7243 6.26038,39.3841 6.15538,38.8381 C6.03778,38.3719 5.57158,38.1493 5.47498,37.6369 C5.42038,37.3891 5.51278,37.1077 5.47498,36.8473 C5.42038,36.5701 5.29018,36.4525 5.19778,36.1711 C4.94998,35.4949 4.96678,34.9489 5.05918,34.2937 C5.08018,34.0459 5.19778,33.6721 5.17678,33.4453 C5.17678,33.1639 5.02558,33.0883 4.90798,32.8237 C4.60978,32.0551 5.23138,31.6015 5.02558,30.9673 C4.94998,30.7741 4.68538,30.5683 4.60978,30.3415 C4.51738,30.0811 4.50058,29.8501 4.55518,29.5897 C4.66438,29.0773 4.94998,28.7035 4.83658,28.1197 C4.72318,27.5023 4.64758,27.3301 4.77778,26.7463 C4.92898,26.1499 4.59298,25.8307 4.60978,25.2637 C4.62658,24.8857 4.89538,24.5287 4.94998,24.1717 C5.08018,23.0083 4.96678,21.8995 5.23138,20.8033 C5.36158,20.2405 5.02558,19.9423 5.05918,19.3795 C5.10118,18.9595 5.36158,18.6067 5.47498,18.2245 C5.68078,17.4181 5.57158,16.5907 5.89078,15.7843 C6.09658,15.2383 6.03778,14.2051 6.43678,13.8103 L6.37798,13.2265 C6.39898,13.2265 6.52918,12.6595 6.55018,12.6595 C6.88198,12.2689 6.75178,11.7229 6.86938,11.2315 C7.03318,10.5721 7.22638,9.8791 7.46578,9.2575 C7.88158,8.2243 8.25958,6.9979 8.87698,6.0781 C9.42298,5.2507 9.72538,4.0453 10.56958,3.4615 C11.17438,3.0499 11.72038,2.7307 12.15298,3.3901 C12.43438,3.8437 12.45538,4.3687 12.00178,4.6501 C12.00178,4.6501 11.66578,5.4397 12.11098,5.2129 C13.22818,4.6711 13.58098,3.3103 13.88338,2.2603 C13.99678,1.7899 14.19838,1.0549 13.97578,0.5677 C13.65658,-0.1253 12.78718,0.0973 12.22438,0.3241 C10.77958,1.1473 9.76318,2.5963 8.93578,4.2889 C8.69218,4.8013 8.10418,5.7379 7.78918,6.1915 C7.39438,6.7375 7.28098,7.2457 6.96178,7.8253 C6.68038,8.3755 6.31918,9.0139 6.15538,9.5935 C5.94538,10.3117 5.51278,10.8577 5.21038,11.8321 C4.87018,12.9997 4.60978,12.7393 4.26958,14.2429 C4.04698,15.2971 3.19858,16.3681 3.16498,17.4559 C3.12298,18.2833 2.53918,18.4345 2.32918,19.6609 C2.22418,20.2783 1.95538,20.9755 1.97638,21.5383 C1.99738,21.6517 2.10658,21.7483 2.06878,21.8995 C2.01418,22.0297 1.82518,21.9583 1.79158,22.0507 C1.65298,22.3279 1.65298,22.3825 1.60258,22.7269 C1.56058,22.9663 1.52698,23.4199 1.32118,23.4031 L1.32118,24.1339 C1.01878,24.9823 1.09438,26.0533 0.83398,26.8807 C0.67858,27.3511 0.64498,27.5947 0.73738,28.0861 C0.84658,28.6321 0.65758,28.6321 0.54418,29.1571 C0.32158,30.1147 0.30058,31.4125 0.30058,32.6011 C0.30058,33.5587 0.43498,34.8943 0.19138,35.8351 C0.09898,36.1879 0.13258,36.3979 0.17038,36.7927 C0.19138,37.1539 0.20818,37.5067 0.24598,37.8805 C0.28378,38.3173 0.24598,38.6743 0.34258,39.0691 C0.41398,39.3505 0.67858,39.7453 0.41398,39.9343 L0.52738,40.7239 C0.81298,42.6391 1.18258,45.4657 2.10658,47.4229 C2.48878,48.2671 2.84158,49.2079 3.70678,49.6951 C4.44178,50.0899 5.64298,49.9723 6.07558,49.1869 C5.73538,49.1869 4.96678,49.3381 4.66438,49.1869 C4.32838,49.0147 3.68578,48.1705 3.47998,47.9059 C2.72818,46.9483 2.23678,46.0075 2.05198,44.8021 C1.90498,43.7521 1.58158,42.6601 1.35898,41.5891 C1.32118,41.3581 1.01878,40.0267 1.60258,40.2535 C1.82518,40.3501 1.91758,41.2657 1.99738,41.5303 C2.63158,43.3741 2.84158,45.5791 4.08058,47.1373 C4.64758,47.8513 5.55058,48.8257 6.44938,48.4519 C7.28098,48.1159 8.03278,47.0617 8.48638,46.3477 C8.97358,45.5371 9.40618,44.5795 10.04458,43.8823 C10.95178,42.9415 11.88838,41.7529 12.50578,40.6315 C12.64438,40.3501 13.24078,39.1825 13.26178,40.2703 C13.26178,40.6105 12.98038,40.6819 12.90478,40.9507 C12.80818,41.2867 13.07698,41.3245 13.16938,41.6269 C13.29958,42.1141 13.13158,42.0007 12.95938,42.4753 C12.86698,42.7567 12.95938,42.6181 13.01818,43.0003 C13.11058,43.6765 12.98038,44.2981 13.08958,44.9743 C13.13158,45.2557 13.11058,45.4657 13.08958,45.7261 C13.05598,46.0285 12.90478,46.1923 12.84598,46.4611 C12.75358,46.9861 13.11058,47.3095 12.90478,47.8891 L12.90478,48.4519 C12.65698,49.0147 13.11058,49.3885 13.08958,49.9723 C13.07698,50.2033 12.88378,50.4469 12.86698,50.6695 C12.82918,50.9719 12.99718,51.1399 13.01818,51.4045 C13.05598,51.9337 12.71578,52.2529 12.80818,52.7611 C12.84598,52.9669 13.01818,53.0635 13.01818,53.3449 C13.01818,53.6095 12.82918,53.8699 12.78718,54.1345 C12.69478,54.7897 12.82918,55.4869 12.98038,56.0707 C13.13158,56.6713 12.77458,56.9737 12.84598,57.6499 C12.88378,57.9103 13.05598,58.1623 13.08958,58.4017 C13.14838,58.7587 12.99718,58.8763 12.95938,59.1913 C12.93838,59.4181 13.07698,59.6449 13.07698,59.8171 C13.07698,60.1153 12.90478,60.3589 12.90478,60.6613 C12.92158,60.9805 13.18198,61.0729 13.13158,61.4089 C13.08958,61.6189 12.73678,61.6945 12.73678,62.0305 C12.73678,62.3161 13.05598,62.5051 13.08958,62.7655 C13.13158,63.1603 12.80818,63.4039 12.75358,63.7987 C12.71578,64.0465 12.82918,64.2901 12.78718,64.5337 C12.75358,64.8361 12.56458,64.9831 12.58558,65.3275 C12.60238,65.9071 13.03918,66.4363 12.98038,67.0327 C12.90478,67.6165 12.30418,68.1079 12.45538,68.7463 C12.49318,68.9353 12.71578,69.1075 12.73678,69.2545 C12.78718,69.5737 12.58558,69.6703 12.50578,69.9307 C12.24538,70.9093 12.34198,72.1315 12.28318,73.1689 C12.28318,73.4083 12.39658,73.9543 12.39658,74.2021 C12.62338,73.9543 12.67798,73.3957 12.90478,72.7741 C13.01818,72.4507 13.24078,72.4129 13.29958,72.0769 C13.46338,71.2117 13.32058,70.2877 13.48858,69.4225 C13.67338,68.4649 13.73218,67.3561 13.76998,66.3565 C13.78678,65.6089 13.78678,64.5337 14.12698,63.8575 C14.55958,64.4203 14.42938,65.7979 14.19838,66.3985 C13.95478,67.0327 14.16478,68.7841 14.34958,69.2167 C14.81998,70.3045 14.84098,67.1293 14.84098,66.7345 C14.84098,66.2851 15.21478,64.0633 15.59698,64.0255 C15.76078,64.9663 15.53818,65.9239 15.59698,66.9025 C16.31098,66.8479 16.49578,63.1813 16.55458,62.5387 C16.77718,60.3001 16.32778,58.2337 16.72258,56.0119 L16.72258,55.1509 C16.76038,55.1509 16.53358,54.1135 16.55458,53.7985 C16.60918,53.2861 16.79818,52.8157 16.77718,52.2529 C16.74358,51.5557 16.26898,51.1819 16.47478,50.4847 C16.68478,49.8043 16.77718,49.5271 16.66378,48.7921 C16.57138,48.1915 16.81498,47.5321 16.66378,46.9693 C16.58818,46.7047 16.38238,46.5703 16.38238,46.2889 C16.36558,45.9907 16.60918,45.8941 16.70578,45.6715 C16.84858,45.2767 16.79818,44.6719 16.77718,44.2393 C16.74358,43.6765 16.46218,43.4875 16.58818,42.9415 C16.70578,42.4753 16.77718,42.1309 16.77718,41.6269 C16.77718,41.3455 16.77718,41.0641 16.74358,40.7785 C16.70578,40.6105 16.53358,40.2703 16.55458,40.1569 C16.55458,39.9133 16.77718,39.8167 16.83598,39.6319 C16.89058,39.3841 16.84858,39.2203 16.83598,38.9515 C16.81498,38.4853 16.77718,38.0695 16.77718,37.5991 L16.76038,37.2967 C16.79818,37.3177 16.70578,36.9649 16.79818,36.8641 C16.77718,36.6415 16.83598,36.6793 16.83598,36.4525 C16.81498,36.1501 16.55458,35.8351 16.55458,35.6041 C16.53358,35.0623 17.05858,34.8775 16.92838,34.2937" id="Fill-4" fill="#005BAB" mask="url(#mask-4)"></path>
                    </g>
                    <path d="M39.8412,25.2518 C39.8412,25.2518 39.732,24.9326 39.5598,24.9914 C39.5598,24.9914 39.3372,25.2518 39.4464,25.3652 C39.5598,25.4576 39.8412,25.2518 39.8412,25.2518" id="Fill-7" fill="#005BAB"></path>
                    <path d="M39.4086,26.26694 C39.5976,26.40134 40.0134,26.11994 40.0134,26.11994 C40.0134,26.11994 39.8286,25.72514 39.5976,25.77554 C39.5976,25.77554 39.2238,26.11994 39.4086,26.26694" id="Fill-9" fill="#005BAB"></path>
                    <g id="Group-13" transform="translate(45.800000, 0.948080)">
                        <mask id="mask-6" fill="white">
                            <use xlink:href="#path-5"></use>
                        </mask>
                        <g id="Clip-12"></g>
                        <path d="M54.47374,55.24176 C53.57494,56.73276 53.34394,55.17036 53.34394,55.17036 C53.21374,48.03876 57.09034,43.59936 57.09034,43.59936 C57.72874,46.77876 55.39354,53.75916 54.47374,55.24176 M3.67054,53.05776 C2.82634,54.32196 2.90194,52.78056 2.90194,52.78056 C2.76754,45.29616 5.58574,42.60396 5.58574,42.60396 C6.15694,48.96276 4.51894,51.78516 3.67054,53.05776 M18.42094,8.18496 C18.42094,8.18496 19.26514,6.09756 19.35754,8.50836 C19.47094,10.91496 17.47594,23.28816 15.59854,27.18156 C15.59854,27.18156 15.16594,20.35656 18.42094,8.18496 M27.44254,8.08836 C27.44254,8.08836 28.08514,6.71916 28.17754,8.18496 C28.29514,9.65496 27.12754,18.79416 24.39754,27.18156 C24.39754,27.18156 23.98174,19.52916 27.44254,8.08836 M31.18894,38.03436 C32.67574,37.89996 31.18894,45.36756 29.85754,46.62756 C29.85754,46.62756 29.70214,38.18136 31.18894,38.03436 M64.80154,44.20416 C64.80154,44.20416 64.54954,43.80516 64.38154,44.48136 C64.21774,45.17856 60.69394,55.41396 59.21134,55.41396 C57.74554,55.41396 58.19914,47.34156 60.13534,43.24656 C62.05054,39.15996 59.43814,36.60636 58.08154,34.62816 C58.08154,34.62816 57.51874,33.93096 57.01054,34.23336 C56.48554,34.51476 56.37634,35.08176 56.48554,35.47236 C56.59894,35.87136 56.59894,36.60636 55.80514,38.48376 C55.01974,40.36956 53.92774,42.84756 52.91134,46.08156 C51.89494,49.31556 52.12594,50.74776 51.54214,52.27236 C50.97514,53.81796 50.07214,56.31696 48.69874,56.20356 C48.69874,56.20356 47.51014,54.60336 48.87094,48.47136 C48.87094,48.47136 49.73614,44.65356 51.14734,42.39816 C51.14734,42.39816 51.95374,41.43636 51.48334,40.02516 C51.02974,38.59716 50.24014,37.18596 48.98014,35.24976 C48.98014,35.24976 48.53074,34.68696 47.90914,34.90956 C47.28754,35.14056 47.28754,36.03936 47.28754,36.03936 C47.28754,36.03936 47.57314,41.26836 46.50214,46.42176 C45.40594,51.59616 44.28034,57.27456 42.51214,57.27456 C40.73974,57.27456 42.05854,47.04336 43.41094,45.74136 C44.78854,44.43096 43.41094,41.15496 43.07494,40.53756 C42.73474,39.91596 42.11734,39.80256 41.77714,40.41996 C41.43694,41.04576 39.89554,44.48136 38.82454,44.20416 C38.82454,44.20416 38.29534,44.09076 38.93794,41.88996 C39.55954,39.69336 40.45834,31.26816 37.90054,31.09176 C35.74174,30.96576 34.66654,39.80256 35.85514,44.43096 C35.85514,44.43096 36.60694,46.14036 36.09454,48.63936 C35.56954,51.14256 33.70894,58.13556 31.77274,57.97176 C29.83654,57.80376 29.60554,50.86536 29.77774,49.48776 C29.77774,49.48776 30.69754,48.98376 32.05414,44.78376 C33.42754,40.59216 34.21294,38.48376 30.45394,33.36816 C30.45394,33.36816 29.94994,32.46936 29.21074,32.75076 C28.48414,33.03216 28.87894,34.11996 28.82014,34.62816 C28.76134,35.14056 25.91794,42.84756 27.16534,52.96536 C27.16534,52.96536 25.41394,56.87976 24.54874,56.82516 C23.70034,56.76636 23.47774,53.81796 23.36854,52.10016 C23.25094,50.41176 22.78474,40.59216 23.64994,33.25476 C23.64994,33.25476 27.77014,25.50576 29.64754,9.35256 C29.64754,9.35256 30.43294,5.45916 28.32874,2.86356 C28.32874,2.86356 27.85834,2.64096 27.46354,1.62036 C27.06874,0.60816 25.98094,0.13776 25.41394,0.98196 C24.86794,1.84716 20.12614,8.18496 20.12614,47.47176 C20.12614,47.47176 18.60574,56.71176 16.21594,56.71176 C13.84714,56.71176 14.67454,38.69376 15.10714,32.80956 C15.10714,32.80956 20.00014,21.33516 20.97454,7.49196 C20.97454,7.49196 21.22234,5.13576 19.81114,3.27936 C19.81114,3.27936 19.28614,2.86356 18.75694,1.75476 C18.23194,0.64176 17.59354,0.51156 17.11474,0.45696 C16.64854,0.39816 16.36714,0.75936 15.31714,3.56076 C14.26294,6.36216 11.17594,22.74636 11.74294,45.80016 C11.74294,45.80016 10.00834,54.39756 8.26114,54.39756 C6.49294,54.39756 7.05574,45.64896 8.76934,41.08356 C8.76934,41.08356 9.48334,39.66816 8.59714,38.71056 C8.59714,38.71056 5.93014,35.75796 4.10314,34.29216 C4.10314,34.29216 2.92294,33.64956 3.08674,35.14056 C3.25894,36.60636 3.36814,40.36956 1.43194,45.01476 C-0.48326,49.65996 -0.36986,59.26536 1.60414,59.49216 C1.60414,59.49216 2.75074,60.28596 5.02714,54.26316 C5.02714,54.26316 6.03934,59.66436 7.52614,59.49216 C8.99194,59.32416 11.47834,52.85616 11.65054,51.82296 C11.65054,51.82296 12.96094,59.832821 15.29614,59.832821 C17.62714,59.832821 20.17234,52.74276 20.17234,52.74276 C20.17234,52.74276 21.37354,59.832821 23.70034,59.832821 C26.03554,59.832821 27.61474,55.12836 27.61474,55.12836 C27.61474,55.12836 28.92934,59.77356 31.54594,59.71896 C34.15834,59.66436 35.96434,55.30056 37.50574,47.73636 C37.50574,47.73636 37.44694,46.81656 39.38734,46.92996 C39.38734,46.92996 37.79134,59.71896 41.89054,59.77356 C41.89054,59.77356 43.07494,60.18936 45.57394,55.24176 C45.57394,55.24176 46.02754,59.71896 47.68234,59.71896 C47.68234,59.71896 48.53074,60.11796 51.08854,55.69536 C51.08854,55.69536 51.42454,59.77356 52.97014,59.832821 C54.51154,59.88696 56.37634,55.07376 56.37634,55.07376 C56.37634,55.07376 56.95594,59.832821 58.48054,59.77356 C60.01774,59.71896 64.21774,51.02916 64.80154,44.20416" id="Fill-11" fill="#005BAB" mask="url(#mask-6)"></path>
                    </g>
                    <path d="M99.2943,25.36604 C97.8831,23.31224 96.8079,22.06064 96.0393,22.39244 C95.2665,22.75364 95.2665,26.13464 97.8117,30.59504 C97.8117,30.59504 99.0717,32.59004 99.4245,31.00664 C99.7815,29.42744 100.7055,27.41984 99.2943,25.36604 Z" id="Fill-14" fill="#005BAB"></path>
                    <path d="M48.66372,68.20982 C48.66372,68.20982 48.72252,68.34002 49.28112,68.96162 C49.86912,69.56642 50.33532,69.13382 50.33532,69.13382 L51.97332,69.13382 C50.26392,74.06042 47.17692,75.33302 47.17692,75.33302 C53.15772,74.06042 54.17412,68.20982 54.17412,68.20982 L48.66372,68.20982 Z" id="Fill-16" fill="#005BAB"></path>
                    <path d="M54.66216,75.43382 L56.39256,73.96802 L56.39256,72.06542 L56.19096,72.06542 L56.19096,70.97762 L56.39256,70.97762 L56.39256,66.38702 L53.78436,66.38702 C53.78436,66.38702 54.66216,66.73982 54.66216,67.68482 L54.66216,75.43382 Z" id="Fill-18" fill="#005BAB"></path>
                    <path d="M57.76722,72.08558 L57.76722,75.33218 L59.48082,73.92938 L59.48082,64.86158 L56.93982,64.86158 C56.93982,64.86158 57.80502,65.34878 57.80502,65.74778 L57.80502,70.97678 L58.01082,70.97678 L58.01082,72.08558 L57.76722,72.08558 Z" id="Fill-20" fill="#005BAB"></path>
                    <mask id="mask-8" fill="white">
                        <use xlink:href="#path-7"></use>
                    </mask>
                    <g id="Clip-23"></g>
                    <polygon id="Fill-22" fill="#005BAB" mask="url(#mask-8)" points="56.3934 71.97008 57.7668 71.97008 57.7668 71.07128 56.3934 71.07128"></polygon>
                    <path d="M59.4384,81.37556 C59.1192,81.37556 57.4098,81.58556 56.637,81.71576 L56.1918,81.71576 C56.1918,81.71576 55.398,81.86696 55.398,81.20756 L55.398,79.94756 C55.398,79.94756 55.3392,79.55276 55.9986,79.55276 C56.679,79.55276 59.2914,79.96436 59.4006,79.38056 C59.4972,78.77996 58.947,78.53636 58.947,78.53636 L59.5308,76.20536 L53.0082,76.20536 C53.0082,76.20536 53.613,77.38556 54.3816,77.35196 C55.1502,77.31416 55.2258,76.99076 55.2258,76.99076 L57.708,76.99076 L57.708,78.92696 L52.9914,78.92696 C52.9914,78.92696 53.781,79.30916 53.781,79.96436 L53.781,81.50576 C53.781,81.50576 53.8146,82.52216 54.9444,82.52216 L59.4972,82.52216 C59.4972,82.52216 59.9508,82.44656 59.9508,82.03076 C59.9508,81.61916 59.7408,81.37556 59.4384,81.37556" id="Fill-24" fill="#005BAB" mask="url(#mask-8)"></path>
                    <path d="M67.54734,76.82486 L67.54734,73.64966 C67.54734,73.64966 67.50954,73.15826 68.24034,73.15826 C68.97534,73.15826 70.80234,73.43966 70.87374,72.98606 C70.93254,72.51986 70.40754,72.46106 70.40754,72.46106 C70.40754,72.46106 70.26894,72.27206 70.47894,71.68826 C70.68894,71.08346 71.49534,68.28206 71.49534,68.28206 L65.30874,68.28206 C65.30874,68.28206 65.92614,69.30266 66.88794,69.30266 C67.82874,69.30266 67.92114,68.95826 67.92114,68.95826 L69.65574,68.95826 L69.26094,72.50306 L64.85514,72.50306 C64.85514,72.50306 65.92614,72.94826 65.92614,73.81346 L65.92614,78.04706 C65.92614,78.04706 65.97234,79.06346 66.88794,79.10126 C67.79094,79.13486 71.29374,77.34986 73.07034,74.86766 C73.07034,74.86766 69.67254,77.23646 67.86654,77.31206 C67.86654,77.31206 67.54734,77.31206 67.54734,76.82486" id="Fill-25" fill="#005BAB" mask="url(#mask-8)"></path>
                    <path d="M73.84944,73.04486 L71.11944,73.04486 C71.11944,73.04486 71.61084,74.20826 72.30384,74.20826 C73.00104,74.20826 73.20684,73.75886 73.20684,73.75886 L73.81164,73.75886 L73.81164,82.63766 L75.52104,81.09626 L75.52104,64.97666 L72.88764,64.97666 C72.88764,64.97666 73.84944,65.43026 73.84944,66.23666 L73.84944,73.04486 Z" id="Fill-26" fill="#005BAB" mask="url(#mask-8)"></path>
                    <path d="M89.40036,66.23666 C89.40036,66.66926 89.40036,71.33546 89.38356,75.56486 C87.95136,76.16966 85.18776,77.27846 83.87316,77.31206 C83.87316,77.31206 83.57076,77.31206 83.57076,76.82486 L83.57076,73.64966 C83.57076,73.64966 83.53716,73.15826 84.26796,73.15826 C84.99876,73.15826 86.82576,73.43966 86.88456,72.98606 C86.95596,72.51986 86.43096,72.46106 86.43096,72.46106 C86.43096,72.46106 86.30076,72.27206 86.50656,71.68826 C86.71236,71.08346 87.36756,68.11826 87.36756,68.11826 L81.18096,68.11826 C81.18096,68.11826 81.82356,69.13046 82.76436,69.13046 C83.70096,69.13046 83.81436,68.79446 83.81436,68.79446 L85.53216,68.79446 L85.28016,72.50306 L80.86176,72.50306 C80.86176,72.50306 81.95376,72.94826 81.95376,73.81346 L81.95376,78.04706 C81.95376,78.04706 81.98736,79.06346 82.89456,79.10126 C83.68836,79.13486 87.25836,78.04706 89.38356,76.16966 C89.38356,79.60526 89.36256,82.63766 89.36256,82.63766 L91.07616,81.09626 L91.07616,64.97666 L88.45956,64.97666 C88.45956,64.97666 89.40036,65.43026 89.40036,66.23666" id="Fill-27" fill="#005BAB" mask="url(#mask-8)"></path>
                    <path d="M100.4031,76.67324 C99.4455,76.67324 98.6727,75.05204 98.6727,73.08224 C98.6727,71.10404 99.4455,69.50804 100.4031,69.50804 C101.3649,69.50804 102.1335,71.10404 102.1335,73.08224 C102.1335,75.05204 101.3649,76.67324 100.4031,76.67324 M101.2683,68.75624 L101.2683,68.11784 C101.2683,68.11784 101.3103,67.79444 100.9869,67.79444 L99.2019,67.79444 C99.2019,67.79444 99.6891,68.02124 99.6891,68.28164 L99.6891,68.56304 L99.6891,68.70164 C98.1267,69.13424 96.9633,70.94024 96.9633,73.08224 C96.9633,75.56444 98.5005,77.55944 100.4031,77.55944 C102.3057,77.55944 103.8471,75.56444 103.8471,73.08224 C103.8471,70.99064 102.7593,69.23924 101.2683,68.75624" id="Fill-28" fill="#005BAB" mask="url(#mask-8)"></path>
                    <path d="M106.92864,73.07846 L106.92864,64.97666 L104.29944,64.97666 C104.29944,64.97666 105.25704,65.43026 105.25704,66.23666 C105.25704,66.66926 105.23604,71.33546 105.23604,75.56486 L105.23604,76.16966 C105.21504,79.60526 105.21504,82.63766 105.21504,82.63766 L106.92864,81.09626 L106.92864,73.66226 L109.15464,73.85546 C109.86444,73.85546 110.09124,73.56986 110.09124,73.27166 C110.09124,72.91466 109.67964,72.72566 109.20504,72.72566 C108.81024,72.72566 107.42004,72.98606 106.92864,73.07846 Z" id="Fill-29" fill="#005BAB" mask="url(#mask-8)"></path>
                </g>
            </g>
        </g>
    </g>
</svg>