<svg xmlns="http://www.w3.org/2000/svg" xmlns:xlink="http://www.w3.org/1999/xlink" width="272" height="128" viewBox="0 0 272 128">
    <defs>
        <path id="7c9xwlp14a" d="M0 0.067L30.233 0.067 30.233 26.19 0 26.19z"/>
        <path id="yg013t7jhc" d="M0.158 0.121L20.339 0.121 20.339 89.04 0.158 89.04z"/>
        <path id="q6oa97lb8e" d="M0.069 0.544L77.762 0.544 77.762 71.799 0.069 71.799z"/>
        <path id="i9nasqjh0g" d="M0 100.938L132.723 100.938 132.723 0.682 0 0.682z"/>
    </defs>
    <g fill="none" fill-rule="evenodd">
        <g>
            <g>
                <g>
                    <g>
                        <g>
                            <g>
                                <path d="M0 0H272V128H0z" transform="translate(-392 -4086) translate(0 1652) translate(0 1680) translate(32 250) translate(336 440) translate(24 64)"/>
                                <g transform="translate(-392 -4086) translate(0 1652) translate(0 1680) translate(32 250) translate(336 440) translate(24 64) translate(70 13)">
                                    <g transform="translate(0 45.498)">
                                        <mask id="20ri1za5lb" fill="#fff">
                                            <use xlink:href="#7c9xwlp14a"/>
                                        </mask>
                                        <path fill="#005BAB" d="M24.906 11.025c.967-.207 1.103 3.205-.278 5.801 0 0-.67-5.574.278-5.801m4.919 4.037c-.267 0-.267.479-.267.479s-.615 5.932-2.868 8.19c0 0-.973 1.285-1.583-.086-.61-1.36-.675-3.412-.61-5.176 0 0 2.258-2.525 2.324-5.327.065-2.797-1.376-4.486-3.2-5.459 0 0-.545-.337-.615.63-.071.948-1.306 4.97-.56 12.127 0 0-1.356 3.402-2.172 3.472-.827.096-2.117-5.846 1.018-9.682 0 0 .61-.544.136-1.42-.474-.883-1.895-3.408-1.895-3.408s-.771-.685-.968.131c-.206.812-3.14 6.955-3.951 9.35 0 0-.544-8.196 1.487-14.173 0 0 .564-.817-.07-1.628C15.424 2.271 13.46.144 13.46.144s-.837-.338-.63.408c.201.74.836 9.662-.408 16.818 0 0-1.76 6.497-3.2 6.431 0 0-1.019.67-.616-10.72 0 0-.07-.68 1.084-.816 1.174-.131 2.394-.202 2.394-.202l.065-.811H9.015s0-2.465.136-3.07c.136-.63-.136-.907-.136-.907L7.32 5.245s-1.174-.535-1.038.337c.141.882.338.408.338 1.426v4.244l-5.237.07s-.474-.07-.675.464c-.227.544-.7 1.356-.7 1.356s-.137.882.7.408c.811-.469 1.083-.811 2.368-.882 1.31-.06 3.64-.06 3.64-.06l-.096 9.878s.226 3.82 1.985 3.68c0 0 1.154.705 3.614-5.434 0 0 .474-.292.474.403 0 .676-.136 4.9.972 4.834 0 0 1.356-1.29 1.356-2.46 0-1.154 1.26-5.942 2.883-7.565 0 0-1.038 9.747 1.628 9.889 0 0 1.013.332 2.772-3.206 0 0 .277-.474.57 0 .267.474.811 2.928 2.57 2.797 1.784-.136 4.45-4.153 4.788-10.014 0 0-.141-.348-.408-.348" mask="url(#20ri1za5lb)"/>
                                    </g>
                                    <g transform="translate(31.92 11.898)">
                                        <mask id="u0sqgy4v8d" fill="#fff">
                                            <use xlink:href="#yg013t7jhc"/>
                                        </mask>
                                        <path fill="#005BAB" d="M16.227 23.523c-.293-.338-.383-1.316-.111-1.694.161-.02.388-.045.544-.02v.605c.04.433.197 1.875-.433 1.109M1.107 46.52c-.273-1.038.292-1.598.292-1.598s.09.222.247.63c.166.429-.333 1.805-.54.968m19.208-5.368c-.181-.796-.383-.861-.181-1.693.166-.675-.04-1.245.045-1.966.136-1.129-.131-2.212-.086-3.341.02-.655-.07-1.245-.045-1.83.02-.766 0-1.577-.07-2.323-.792-.247.241-1.421.337-1.784.11-.52-.267-1.195-.383-1.754-.11-.59.116-1.023.136-1.653.025-.766-.312-1.623-.136-2.253.09-.348.312-.454.287-.882-.015-.252-.221-.408-.221-.676 0-.564.16-1.088.136-1.718-.02-.318-.02-.585-.086-.882-.025-.182-.277-.182-.252-.408 0-.152.156-.152.181-.268.07-.337.182-.519.182-.882-.025-.317-.09-.604-.09-.902-.021-.816.674-2.978-1.014-2.439l-.57.61c-.493.841-.927 1.517-1.557 2.328-.403.52-.312.696-.196 1.356.11.766.065.811-.545 1.079-.519.226-1.129.544-.227.77.338.071.701-.18.882.207.242.449-.206.399-.453.47-.585.135-.948.065-1.31.68-.358.63-.046.897.156 1.486.272.787-.177 1.487-.086 2.324.086.791.247 1.35.197 2.162-.06 1.9-.222 3.931 0 5.766.231 1.754-.399 3.492-.399 5.256 0 1.734-.544 3.402-.882 5.076-.181.927-.403 1.784-.7 2.666-.272.766-.514 1.487-.812 2.298-.292.857-.317 1.401-.882 2.102-.559.695-.882 1.235-1.9 1.174-.13-.292-.56-.454-.872-.59-.75-.292-.7-.247-.77-1.038-.046-.56-.091-1.396-.883-1.376-.363-.635.267-1.043.141-1.698-.14-.56-.7-.827-.816-1.442-.066-.297.045-.635 0-.947-.066-.333-.222-.474-.333-.812-.297-.811-.277-1.466-.166-2.253.025-.297.166-.745.141-1.018 0-.337-.181-.428-.322-.746-.358-.922.388-1.466.14-2.227-.09-.232-.408-.479-.498-.751-.111-.313-.131-.59-.066-.902.131-.615.474-1.064.338-1.764-.136-.741-.227-.948-.07-1.648.18-.716-.222-1.1-.202-1.78.02-.453.342-.882.408-1.31.156-1.396.02-2.727.338-4.042.156-.675-.247-1.033-.207-1.709.05-.504.363-.927.499-1.386.247-.967.116-1.96.499-2.928.247-.655.176-1.895.655-2.369l-.07-.7c.025 0 .181-.68.206-.68.398-.47.242-1.125.383-1.714.197-.791.429-1.623.716-2.369.499-1.24.952-2.712 1.693-3.815.656-.993 1.018-2.44 2.031-3.14.726-.494 1.381-.877 1.9-.086.338.544.363 1.174-.18 1.512 0 0-.404.948.13.675 1.34-.65 1.764-2.283 2.127-3.543.136-.564.378-1.446.11-2.03-.382-.832-1.425-.565-2.1-.293-1.735.988-2.954 2.727-3.947 4.758-.292.615-.998 1.738-1.376 2.283-.474.655-.61 1.265-.993 1.96-.338.66-.771 1.427-.968 2.122-.252.862-.77 1.517-1.134 2.687-.408 1.4-.72 1.088-1.129 2.892-.267 1.266-1.285 2.55-1.325 3.856-.05.993-.751 1.174-1.003 2.646-.126.741-.449 1.578-.423 2.253.025.136.156.252.11.433-.065.157-.292.071-.332.182-.166.332-.166.398-.227.811-.05.288-.09.832-.338.812v.877c-.362 1.018-.272 2.303-.584 3.296-.187.564-.227.857-.116 1.446.13.656-.096.656-.232 1.286-.267 1.149-.292 2.706-.292 4.132 0 1.15.161 2.752-.131 3.881-.111.423-.07.675-.026 1.15.026.433.046.856.091 1.305.046.524 0 .952.116 1.426.086.338.403.811.086 1.038l.136.948c.343 2.298.786 5.69 1.895 8.038.459 1.014.882 2.142 1.92 2.727.882.474 2.324.333 2.843-.61-.409 0-1.33.182-1.694 0-.403-.206-1.174-1.22-1.421-1.537-.902-1.149-1.492-2.278-1.714-3.724-.176-1.26-.564-2.57-.831-3.856-.046-.277-.408-1.875.292-1.603.267.116.378 1.215.474 1.532.76 2.213 1.013 4.859 2.5 6.729.68.857 1.764 2.026 2.842 1.577.998-.403 1.9-1.668 2.445-2.525.584-.972 1.103-2.122 1.87-2.958 1.088-1.13 2.212-2.556 2.953-3.901.166-.338.882-1.739.907-.434 0 .409-.338.494-.428.817-.116.403.206.448.317.811.156.585-.045.449-.252 1.018-.11.338 0 .172.07.63.112.812-.045 1.558.086 2.37.05.337.026.589 0 .901-.04.363-.221.56-.292.882-.11.63.318 1.018.07 1.714v.675c-.297.676.248 1.124.222 1.825-.015.277-.246.57-.267.836-.045.363.157.565.182.882.045.635-.363 1.018-.252 1.628.045.247.252.363.252.7 0 .318-.227.63-.277.948-.111.787.05 1.623.231 2.324.182.72-.247 1.083-.16 1.895.045.312.251.615.291.902.071.428-.11.57-.156.948-.025.272.141.544.141.75 0 .358-.206.65-.206 1.014.02.383.332.493.272.897-.05.252-.474.342-.474.746 0 .342.383.57.423.882.05.473-.337.766-.403 1.24-.045.297.091.59.04.881-.04.363-.267.54-.241.953.02.696.544 1.33.473 2.046-.09.7-.811 1.29-.63 2.057.046.226.313.433.338.61.06.382-.181.498-.277.81-.313 1.175-.197 2.642-.267 3.887 0 .287.136.942.136 1.24.272-.298.338-.968.61-1.714.136-.388.403-.434.473-.837.197-1.038.026-2.147.227-3.185.222-1.15.293-2.48.338-3.68.02-.896.02-2.187.428-2.998.52.675.363 2.328.086 3.05-.292.76-.04 2.862.181 3.381.565 1.305.59-2.505.59-2.979 0-.539.449-3.205.907-3.25.197 1.129-.07 2.278 0 3.452.857-.066 1.079-4.465 1.15-5.237.267-2.686-.273-5.166.201-7.832v-1.033c.045 0-.227-1.245-.202-1.623.066-.615.293-1.18.268-1.855-.04-.836-.61-1.285-.363-2.121.252-.817.363-1.15.227-2.031-.111-.721.181-1.512 0-2.188-.091-.317-.338-.479-.338-.816-.02-.358.272-.474.388-.741.171-.474.11-1.2.086-1.719-.04-.675-.378-.902-.227-1.557.14-.56.227-.973.227-1.578 0-.337 0-.675-.04-1.018-.046-.201-.253-.61-.228-.746 0-.292.268-.408.338-.63.066-.297.015-.494 0-.816-.025-.56-.07-1.059-.07-1.623l-.02-.363c.045.025-.066-.398.045-.52-.025-.266.045-.22.045-.493-.025-.363-.338-.74-.338-1.018-.025-.65.605-.872.45-1.573" mask="url(#u0sqgy4v8d)"/>
                                    </g>
                                    <path fill="#005BAB" d="M47.81 29.302s-.132-.383-.338-.312c0 0-.267.312-.136.448.136.111.473-.136.473-.136M47.29 30.52c.227.162.726-.176.726-.176s-.222-.474-.499-.413c0 0-.448.413-.227.59"/>
                                    <g transform="translate(54.96 .138)">
                                        <mask id="91xk9ep7af" fill="#fff">
                                            <use xlink:href="#q6oa97lb8e"/>
                                        </mask>
                                        <path fill="#005BAB" d="M65.368 66.29c-1.078 1.79-1.355-.086-1.355-.086-.157-8.557 4.495-13.885 4.495-13.885.766 3.816-2.036 12.192-3.14 13.971M4.405 63.67c-1.013 1.516-.923-.333-.923-.333-.161-8.982 3.22-12.212 3.22-12.212.686 7.63-1.28 11.017-2.297 12.544m17.7-53.847s1.013-2.505 1.124.388c.136 2.888-2.258 17.736-4.51 22.408 0 0-.52-8.19 3.386-22.796m10.826-.116s.771-1.643.882.116c.141 1.764-1.26 12.731-4.536 22.796 0 0-.499-9.183 3.654-22.912m4.496 35.935c1.784-.161 0 8.8-1.598 10.312 0 0-.186-10.135 1.598-10.312m40.335 7.404s-.303-.479-.504.333c-.197.836-4.425 13.119-6.204 13.119-1.76 0-1.215-9.687 1.108-14.601 2.299-4.904-.836-7.968-2.464-10.342 0 0-.676-.837-1.285-.474-.63.338-.761 1.018-.63 1.487.136.479.136 1.36-.817 3.614-.942 2.262-2.253 5.236-3.472 9.117-1.22 3.88-.943 5.6-1.643 7.429-.68 1.855-1.764 4.853-3.413 4.717 0 0-1.426-1.92.207-9.278 0 0 1.038-4.582 2.732-7.288 0 0 .967-1.154.403-2.848-.544-1.713-1.492-3.407-3.004-5.73 0 0-.54-.676-1.285-.409-.746.278-.746 1.356-.746 1.356s.343 6.275-.942 12.46c-1.316 6.208-2.667 13.022-4.788 13.022-2.127 0-.545-12.277 1.078-13.84 1.653-1.572 0-5.503-.403-6.244-.408-.746-1.15-.882-1.557-.141-.409.75-2.258 4.874-3.544 4.541 0 0-.635-.136.137-2.777.745-2.636 1.824-12.746-1.245-12.958-2.59-.151-3.881 10.453-2.455 16.007 0 0 .902 2.051.287 5.05-.63 3.004-2.862 11.396-5.186 11.2-2.323-.202-2.6-8.529-2.394-10.182 0 0 1.104-.604 2.732-5.644 1.648-5.03 2.59-7.56-1.92-13.7 0 0-.605-1.078-1.492-.74-.872.338-.398 1.643-.469 2.253-.07.615-3.482 9.863-1.986 22.004 0 0-2.101 4.698-3.14 4.632-1.018-.07-1.285-3.608-1.416-5.67-.14-2.026-.7-13.81.338-22.614 0 0 4.944-9.3 7.197-28.683 0 0 .943-4.672-1.583-7.787 0 0-.564-.267-1.038-1.492-.474-1.214-1.779-1.779-2.46-.766-.654 1.039-6.345 8.644-6.345 55.788 0 0-1.824 11.088-4.692 11.088-2.842 0-1.85-21.621-1.33-28.683 0 0 5.871-13.769 7.04-30.38 0 0 .298-2.828-1.396-5.056 0 0-.63-.499-1.265-1.83C21.878.77 21.112.615 20.538.549c-.56-.07-.897.363-2.157 3.725-1.265 3.362-4.97 23.023-4.29 50.687 0 0-2.081 10.317-4.178 10.317-2.121 0-1.446-10.498.61-15.977 0 0 .857-1.698-.206-2.847 0 0-3.2-3.543-5.393-5.302 0 0-1.416-.772-1.22 1.018.207 1.759.338 6.274-1.986 11.849-2.298 5.574-2.162 17.1.207 17.373 0 0 1.376.952 4.108-6.275 0 0 1.214 6.481 2.998 6.275 1.76-.202 4.743-7.964 4.95-9.203 0 0 1.572 9.611 4.374 9.611 2.798 0 5.852-8.508 5.852-8.508S25.648 71.8 28.44 71.8c2.803 0 4.698-5.645 4.698-5.645s1.577 5.574 4.717 5.509c3.135-.066 5.302-5.302 7.152-14.38 0 0-.07-1.103 2.258-.967 0 0-1.915 15.347 3.004 15.412 0 0 1.42.5 4.42-5.438 0 0 .544 5.373 2.53 5.373 0 0 1.018.479 4.087-4.829 0 0 .403 4.894 2.258 4.965 1.85.065 4.088-5.71 4.088-5.71s.695 5.71 2.525 5.64c1.844-.066 6.884-10.494 7.585-18.684" mask="url(#91xk9ep7af)"/>
                                    </g>
                                    <path fill="#005BAB" d="M119.153 29.44c-1.693-2.465-2.984-3.967-3.906-3.57-.927.434-.927 4.492 2.127 9.844 0 0 1.512 2.394 1.935.494.429-1.895 1.538-4.304-.156-6.769zM58.396 80.852s.071.156.741.902c.706.726 1.265.207 1.265.207h1.966c-2.051 5.912-5.756 7.439-5.756 7.439 7.177-1.527 8.397-8.548 8.397-8.548h-6.613z"/>
                                    <path fill="#005BAB" d="M65.595 89.52l2.076-1.758v-2.283h-.242v-1.306h.242v-5.509h-3.13s1.054.424 1.054 1.558v9.299zM69.32 85.503v3.896l2.057-1.684V76.834h-3.05s1.039.585 1.039 1.063v6.275h.247v1.33h-.292z"/>
                                    <mask id="t0rbrl8uyh" fill="#fff">
                                        <use xlink:href="#i9nasqjh0g"/>
                                    </mask>
                                    <path fill="#005BAB" d="M67.672 85.364L69.32 85.364 69.32 84.286 67.672 84.286zM71.326 96.65c-.383 0-2.434.253-3.362.409h-.534s-.952.181-.952-.61v-1.512s-.071-.474.72-.474c.817 0 3.952.494 4.083-.206.116-.721-.545-1.013-.545-1.013l.701-2.798H63.61s.726 1.417 1.648 1.376c.922-.045 1.013-.433 1.013-.433h2.979v2.323h-5.66s.947.459.947 1.245v1.85s.04 1.22 1.396 1.22h5.464s.544-.091.544-.59c0-.494-.252-.786-.615-.786M81.057 91.19v-3.81s-.046-.59.831-.59c.882 0 3.075.338 3.16-.207.071-.56-.559-.63-.559-.63s-.166-.227.086-.927c.252-.726 1.22-4.088 1.22-4.088H78.37s.741 1.225 1.896 1.225c1.128 0 1.24-.413 1.24-.413h2.08l-.473 4.254h-5.287s1.285.534 1.285 1.572v5.08s.056 1.22 1.155 1.266c1.083.04 5.286-2.102 7.418-5.08 0 0-4.077 2.842-6.244 2.932 0 0-.383 0-.383-.584" mask="url(#t0rbrl8uyh)"/>
                                    <path fill="#005BAB" d="M88.62 86.654h-3.277s.59 1.396 1.422 1.396c.836 0 1.083-.54 1.083-.54h.726v10.655l2.051-1.85V76.973h-3.16s1.154.544 1.154 1.512v8.17zM107.28 78.484c0 .52 0 6.119-.02 11.194-1.718.726-5.035 2.056-6.612 2.096 0 0-.363 0-.363-.584v-3.81s-.04-.59.837-.59 3.069.338 3.14-.207c.085-.56-.545-.63-.545-.63s-.156-.227.09-.927c.248-.726 1.034-4.284 1.034-4.284h-7.424s.771 1.215 1.9 1.215c1.124 0 1.26-.404 1.26-.404h2.062l-.303 4.45h-5.302s1.31.535 1.31 1.573v5.08s.04 1.22 1.13 1.266c.952.04 5.236-1.266 7.786-3.518 0 4.122-.025 7.761-.025 7.761l2.056-1.85V76.973h-3.14s1.13.544 1.13 1.512M120.484 91.008c-1.15 0-2.077-1.946-2.077-4.31 0-2.373.928-4.288 2.077-4.288 1.154 0 2.076 1.915 2.076 4.289 0 2.363-.922 4.309-2.076 4.309m1.038-9.5v-.767s.05-.388-.338-.388h-2.142s.585.272.585.585v.504c-1.875.52-3.271 2.686-3.271 5.257 0 2.978 1.845 5.372 4.128 5.372 2.283 0 4.133-2.394 4.133-5.372 0-2.51-1.306-4.612-3.095-5.192M128.314 86.694v-9.722h-3.155s1.15.544 1.15 1.512c0 .52-.026 6.119-.026 11.194v.726c-.025 4.122-.025 7.761-.025 7.761l2.056-1.85v-8.92l2.672.232c.851 0 1.123-.343 1.123-.701 0-.428-.493-.655-1.063-.655-.474 0-2.142.312-2.732.423z" mask="url(#t0rbrl8uyh)"/>
                                </g>
                            </g>
                        </g>
                    </g>
                </g>
            </g>
        </g>
    </g>
</svg>
