<svg xmlns="http://www.w3.org/2000/svg" xmlns:xlink="http://www.w3.org/1999/xlink" width="272" height="128" viewBox="0 0 272 128">
    <defs>
        <path id="xrepvz5ysa" d="M0.004 0.108L22.301 0.108 22.301 29.36 0.004 29.36z"/>
        <path id="pfvbm88d4c" d="M0 0.112L22.948 0.112 22.948 28.789 0 28.789z"/>
    </defs>
    <g fill="none" fill-rule="evenodd">
        <g>
            <g>
                <g>
                    <g>
                        <g>
                            <g>
                                <path d="M0 0H272V128H0z" transform="translate(-56 -4526) translate(0 1652) translate(0 1680) translate(32 250) translate(0 880) translate(24 64)"/>
                                <g>
                                    <path fill="#1D1D1B" d="M182.464 30.321L183.686 32.472 183.686 58.996 188.793 58.996 188.793 30.321z" transform="translate(-56 -4526) translate(0 1652) translate(0 1680) translate(32 250) translate(0 880) translate(24 64) translate(43 33)"/>
                                    <g>
                                        <path fill="#1D1D1B" d="M114.912 58.829V30.152h-5.25c.216.344 1.194 2.116 1.194 2.435v17.734l-14.238-20.17h-6.286l1.714 2.529v26.149H96.1V38.62l14.263 20.208h4.55z" transform="translate(-56 -4526) translate(0 1652) translate(0 1680) translate(32 250) translate(0 880) translate(24 64) translate(43 33) translate(0 .168)"/>
                                        <g transform="translate(-56 -4526) translate(0 1652) translate(0 1680) translate(32 250) translate(0 880) translate(24 64) translate(43 33) translate(0 .168) translate(60.4 30.04)">
                                            <mask id="37sw5292db" fill="#fff">
                                                <use xlink:href="#xrepvz5ysa"/>
                                            </mask>
                                            <path fill="#1D1D1B" d="M22.3 24.33V.108h-6.36l1.261 2.156v21.75c-1.53.866-2.68 1.344-4.448 1.344-3.592 0-6.414-3.123-6.414-6.803V.108H.004l1.207 2.156v17.808c0 5.358 4.204 9.289 9.272 9.289 3.795 0 6.027-1.286 9.185-3.213.9-.552 1.798-1.129 2.633-1.818" mask="url(#37sw5292db)"/>
                                        </g>
                                        <path fill="#1D1D1B" d="M54.722 30.15L48.064 30.15 48.818 32.307 42.837 42.694 35.676 30.15 29.58 30.15 39.65 47.4 39.65 58.828 44.771 58.828 44.771 47.241z" transform="translate(-56 -4526) translate(0 1652) translate(0 1680) translate(32 250) translate(0 880) translate(24 64) translate(43 33) translate(0 .168)"/>
                                        <g transform="translate(-56 -4526) translate(0 1652) translate(0 1680) translate(32 250) translate(0 880) translate(24 64) translate(43 33) translate(0 .168) translate(0 30.04)">
                                            <mask id="9tviun5nid" fill="#fff">
                                                <use xlink:href="#pfvbm88d4c"/>
                                            </mask>
                                            <path fill="#1D1D1B" d="M22.948 28.789L22.948 0.112 16.626 0.112 17.83 2.263 17.83 11.921 6.324 11.921 6.324 0.112 0 0.112 1.206 2.263 1.206 28.789 6.324 28.789 6.324 15.91 17.83 15.91 17.83 28.789z" mask="url(#9tviun5nid)"/>
                                        </g>
                                        <path fill="#1D1D1B" d="M138.244 54.022c-1.292.816-2.732.907-4.208.907h-5.148V34.056h2.875c5.988 0 10.733 4.914 10.733 11.152 0 3.336-1.406 6.988-4.252 8.814m-3.904-23.874h-11.772l1.198 2.159v26.522h8.272c2.407 0 4.765-.606 6.846-1.869.756-.41 1.504-.89 2.277-1.35 4.049-2.532 6.553-6.868 6.553-11.831 0-7.681-6.06-13.63-13.374-13.63M159.191 47.092l4.13-9.682 4.127 9.682h-8.257zm6.6-16.942h-5.538l.915 2.157-11.297 26.521h6.027l-.796-2.163 2.428-5.735h11.506l3.366 7.898h5.572L165.79 30.15zM74.845.152L74.149 1.975 77.738 1.975 77.738 13.608 80.157 13.608 80.157 1.975 83.061 1.975 83.743.152zM94.672.152L95.245 1.146 95.245 5.684 89.836 5.684 89.836.152 86.888.152 87.43 1.146 87.43 13.608 89.836 13.608 89.836 7.552 95.245 7.552 95.245 13.608 97.641 13.608 97.641.152zM101.157.152L101.715 1.146 101.715 13.608 109.12 13.608 109.803 11.765 104.138 11.765 104.138 7.552 109.12 7.552 109.803 5.721 104.138 5.721 104.138 1.968 109.12 1.968 109.803.152z" transform="translate(-56 -4526) translate(0 1652) translate(0 1680) translate(32 250) translate(0 880) translate(24 64) translate(43 33) translate(0 .168)"/>
                                    </g>
                                </g>
                            </g>
                        </g>
                    </g>
                </g>
            </g>
        </g>
    </g>
</svg>
