<?xml version="1.0" encoding="UTF-8"?>
<svg width="213px" height="100px" viewBox="0 0 213 100" version="1.1" xmlns="http://www.w3.org/2000/svg" xmlns:xlink="http://www.w3.org/1999/xlink">
    <!-- Generator: Sketch 61.2 (89653) - https://sketch.com -->
    <title>Artboard</title>
    <desc>Created with Sketch.</desc>
    <defs>
        <polygon id="path-1" points="0.045306047 0.112981132 6.8358472 0.112981132 6.8358472 11.8428679 0.045306047 11.8428679"></polygon>
        <polygon id="path-3" points="0 0.232268122 11.9606588 0.232268122 11.9606588 6.76419655 0 6.76419655"></polygon>
        <polygon id="path-5" points="0.0635516701 0.0885133333 6.86290606 0.0885133333 6.86290606 11 0.0635516701 11"></polygon>
        <polygon id="path-7" points="0 28 166 28 166 1 0 1"></polygon>
    </defs>
    <g id="Page-1" stroke="none" stroke-width="1" fill="none" fill-rule="evenodd">
        <g id="Artboard" transform="translate(-398.000000, -287.000000)">
            <g id="img" transform="translate(398.000000, 287.000000)">
                <polygon id="영역" points="0 1.16989751e-12 213 1.16989751e-12 213 100 0 100"></polygon>
                <g id="신세계_logo" transform="translate(24.000000, 37.000000)">
                    <g id="Group-3" transform="translate(11.000000, 0.000000)">
                        <mask id="mask-2" fill="white">
                            <use xlink:href="#path-1"></use>
                        </mask>
                        <g id="Clip-2"></g>
                        <path d="M3.92830667,0.172754717 C4.27667333,0.623773585 4.99067333,1.55275472 5.01120667,1.56679245 C5.06627333,1.65713208 5.11574,1.74430189 5.18807333,1.82332075 C5.60317333,2.65086792 6.24437333,3.39441509 6.52600667,4.32090566 L6.69727333,4.84483019 C6.69727333,4.84483019 6.74067333,5.02211321 6.76657333,5.22498113 C6.92360667,5.81615094 6.77264,6.39645283 6.71454,6.9765283 C6.51434,8.00716981 5.89624,8.96173585 5.33880667,9.85698113 C4.82804,10.536 3.69917333,11.8428679 3.69917333,11.8428679 C3.03464,11.0712453 2.32064,10.3274717 1.62717333,9.58437736 C1.23844,8.89154717 0.84084,8.20143396 0.489673333,7.47486792 C0.236973333,6.64709434 0.01624,5.83041509 0.04844,5.00807547 C0.0370066667,4.9994717 0.07434,4.65622642 0.0888066667,4.51245283 C0.17024,4.22241509 0.22834,3.90407547 0.38794,3.65637736 C0.434373333,3.52392453 0.611473333,3.24226415 0.71904,3.12135849 C0.71904,3.12135849 1.04104,2.67622642 1.13390667,2.56641509 C1.91440667,1.62045283 2.93874,0.94754717 3.83824,0.122264151 C3.88210667,0.0885283019 3.90544,0.155773585 3.92830667,0.172754717" id="Fill-1" fill="#E50000" mask="url(#mask-2)"></path>
                    </g>
                    <path d="M4.34659261,5.33854646 C4.58085085,5.43823702 4.82900767,5.47191324 5.06304175,5.55755346 C5.71515393,5.62401383 6.35112583,5.79886259 6.97835509,5.97393438 C7.36617017,6.10395584 8.13014347,6.49535837 8.13014347,6.49535837 C9.12815084,7.03886148 9.80312842,7.87652979 10.5029889,8.66134203 C11.0965926,9.49655711 11.5902162,10.4118369 11.815956,11.4908143 C11.8715503,11.8155334 11.9778071,12.1567562 12,12.47813 C10.9239813,12.791698 9.82240709,12.9636475 8.75176846,13 C7.89028096,12.863957 7.07340341,12.5503889 6.2706486,12.134454 C5.48111986,11.5849293 4.88460197,10.9250091 4.35511109,10.1955061 C3.65256053,9.10247833 3.29276676,7.71818461 3.13360566,6.39276853 C3.1111886,6.20944496 3.09482415,6.043071 3.09482415,6.043071 C3.09482415,6.043071 3.03317724,5.49376934 3,5.219007 C3.00246588,5.07783446 3.01098436,5 3.01098436,5 C3.01098436,5 3.22842981,5.04705751 3.39005679,5.07203591 C3.63574773,5.14987037 4.23226562,5.32159683 4.34659261,5.33854646" id="Fill-4" fill="#E50000"></path>
                    <path d="M23.0284919,6.07540242 C23.068158,6.08141753 24.2407568,6.2537737 24.9165498,6.44394387 C25.0355481,6.46106381 25.0962716,6.49553505 25.2059655,6.51311769 C25.8058542,6.70282515 26.4028047,6.89831638 27,7.10283028 C26.9054869,7.86836931 26.7588203,8.62511701 26.262749,9.2925634 C26.2473233,9.31569845 26.226266,9.34415457 26.1990874,9.38186471 C25.7847969,10.0176161 25.1423038,10.5788725 24.4931998,10.996229 C23.875192,11.3758752 23.2659989,11.7814328 22.5657206,12.0518816 C21.1433723,12.6964243 19.4475237,13.179947 17.8422705,12.9354094 C17.2362604,12.8375481 16.6028269,12.8174206 16,12.6906405 C16,12.6906405 16.2710518,11.6750115 16.3924986,11.1658089 C16.4688926,10.8435376 16.7548804,10.2306899 16.7548804,10.2306899 C17.21202,9.55745979 17.3579521,8.80071209 17.9580857,8.16750559 C18.7741792,7.37628665 19.6054535,6.61653139 20.6925988,6.21953382 C21.4511519,5.97175736 22.2826711,5.94885366 23.0284919,6.07540242" id="Fill-6" fill="#E50000"></path>
                    <g id="Group-10" transform="translate(0.000000, 13.000000)">
                        <mask id="mask-4" fill="white">
                            <use xlink:href="#path-3"></use>
                        </mask>
                        <g id="Clip-9"></g>
                        <path d="M8.17971765,6.09171379 C8.8936,5.82716207 9.39101176,5.22371379 9.91171765,4.68640345 C10.4298353,4.13316207 10.8863059,3.51812759 11.3225412,2.87605862 C11.3340706,2.85433448 11.7321882,2.22723103 11.9164235,1.98126552 C11.9284235,1.96002414 11.9458353,1.94819655 11.9606588,1.92405862 C10.9771294,1.51274828 10.0258353,1.08067931 9.03383529,0.819506897 C8.19712941,0.603231034 7.37454118,0.318162069 6.51148235,0.300058621 C5.78254118,0.278817241 5.07148235,0.134955172 4.31077647,0.344955172 C2.61618824,0.771472414 1.26701176,1.70488621 -4.70588235e-05,2.70516207 L0.0145411765,2.75247241 C0.482776471,3.47371379 0.962541176,4.18771379 1.51289412,4.83871379 C1.51289412,4.84233448 1.72348235,5.11895517 1.85218824,5.22661034 L2.46983529,5.86336897 C2.71571765,5.9925069 3.23948235,6.22954138 3.23948235,6.22954138 C3.86865882,6.59619655 4.56207059,6.70071379 5.23830588,6.76419655 C6.01995294,6.69805862 7.35689412,6.52040345 8.17971765,6.09171379" id="Fill-8" fill="#E50000" mask="url(#mask-4)"></path>
                    </g>
                    <path d="M22.164609,13.0120196 C22.5704014,12.9938197 22.8497915,13.050074 23.1925037,13.0760739 C24.1783448,13.1822006 25.116332,13.502708 26.0361926,13.8938879 C26.1865219,13.976142 26.3368512,14.0699779 26.4719542,14.1642865 C26.4719542,14.1642865 26.7817969,14.420267 26.9562949,14.5521572 C27.226501,14.7963196 27.461179,15.0582092 27.6803891,15.322226 C27.7434694,15.4517526 27.9358522,15.7429511 27.9537371,15.7750964 C28.3208596,16.4577111 28.6575296,17.1625439 28.9458621,17.8858129 C28.9731727,17.9271763 28.9821152,17.9744488 29,18.0207758 C28.837828,18.0975936 28.6512457,18.1332844 28.4738475,18.1855204 C28.4351775,18.2011204 27.9150672,18.3500287 27.7074581,18.441501 C27.1300679,18.5710276 26.5200499,18.6920451 25.933959,18.7854083 C25.8919055,18.7946264 25.0832209,18.9149349 24.7073976,18.9383348 C24.6832289,18.9409348 24.0074722,18.9915163 23.8776863,18.9799346 C23.6976295,19.0177526 23.5168476,18.9889163 23.3276067,18.997189 C22.942841,19.0028617 22.101287,18.9409348 22.0681759,18.9298257 C21.7199049,18.9028804 21.2084953,18.7764265 21.0431814,18.7142632 C20.9892852,18.6974815 20.1235625,18.3564105 20.0904514,18.344356 C19.9280377,18.2769927 19.567199,18.0503211 19.567199,18.0503211 C19.3356629,17.9503398 19.1343377,17.7801589 18.9359127,17.6480323 C18.6084268,17.3861427 18.3019677,17.0980169 18.043121,16.7742004 C17.6341866,16.2516031 17.0091841,15.0697909 17,15.0605728 C17.7905581,14.3904853 18.7527139,13.940924 19.7233288,13.5497442 C20.102294,13.3880723 20.4989023,13.252873 20.8928521,13.12051 C21.3107289,13.0675648 21.7617168,12.9649835 22.164609,13.0120196" id="Fill-11" fill="#E50000"></path>
                    <path d="M20.3557875,20.2627691 C20.9523804,21.1959175 21.5933826,22.0355511 21.7653639,23.3230059 C21.8200376,23.7335712 21.8902126,24.1503876 21.906133,24.5507012 C21.9503328,24.9960221 21.9970463,25.4723479 21.9995601,25.9039165 C22.0050065,26.5972768 21.9580835,27.2998886 21.9580835,28 C21.6765453,27.8942332 21.3927028,27.7539609 21.1164015,27.6304412 C21.0954537,27.6421931 19.1649061,26.80581 19.1649061,26.80581 C18.4642027,26.4455027 17.7450653,25.950674 17.1040631,25.4125884 C17.1040631,25.4125884 16.1949294,24.6132112 15.9083637,24.1131316 C15.7127114,23.7923306 15.5380069,23.4540268 15.3507337,23.1207238 C15.3247584,23.0802173 15.173306,22.7066579 15.1580141,22.5421317 C15.0591406,22.0355511 14.9755589,21.5247198 15.0065616,21.0278908 C14.9965067,20.8163571 15.0015342,20.5610665 15.0252052,20.325029 C15.1161185,19.2863637 15.3325091,18.2787034 15.6008502,17.2677926 L15.6504965,17 C17.2837951,17.6818585 19.1858538,18.6640147 20.3557875,20.2627691" id="Fill-13" fill="#E50000"></path>
                    <g id="Group-17" transform="translate(8.000000, 17.000000)">
                        <mask id="mask-6" fill="white">
                            <use xlink:href="#path-5"></use>
                        </mask>
                        <g id="Clip-16"></g>
                        <path d="M6.09799697,0.0885133333 C4.91584545,0.599157778 3.78672424,1.21320222 2.64954242,1.81551333 C2.46223939,1.94922444 2.25902727,2.11666889 2.06663333,2.24402444 C1.72872424,2.66984667 0.974421212,3.45402444 0.974421212,3.45402444 C0.523239394,3.96442444 0.0773606061,4.72513556 0.0773606061,5.50271333 C0.0323909091,6.26391333 0.103663636,7.02633556 0.198693939,7.79878 C0.325330303,8.60446889 0.557390909,9.40380222 0.779057576,10.20998 C0.829330303,10.4832689 0.90060303,10.7323578 0.947906061,11.0000244 C1.01663333,10.9885356 1.11399697,10.9418467 1.19354242,10.9330467 C1.19354242,10.9330467 3.03751212,10.2185356 3.85269394,9.69273556 C4.51514848,9.25175778 5.15851212,8.77460222 5.62284545,8.06669111 C5.70472424,7.97771333 5.86572424,7.73766889 5.86572424,7.73766889 C6.48575455,6.74986889 6.85781515,5.50931333 6.85484545,4.35089111 C6.85484545,4.35089111 6.84954242,3.98300222 6.86290606,3.80675778 C6.83151212,3.37262444 6.7362697,2.93164667 6.69681515,2.50240222 C6.62299697,2.24720222 6.59096667,1.98858 6.52266364,1.73338 C6.41172424,1.19486889 6.22696667,0.638268889 6.09799697,0.0885133333" id="Fill-15" fill="#E50000" mask="url(#mask-6)"></path>
                    </g>
                    <path d="M41.3315601,7.17712469 C40.4607162,7.95599853 40,9.0524061 40,10.3475912 C40,12.7419672 41.9578179,13.9566671 43.8510451,15.1305445 C45.5195604,16.1691976 47.0952548,17.1447614 47.0952548,18.8463155 C47.0952548,19.9487536 46.1067476,21.1168324 44.2835312,21.1168324 C42.9607789,21.1168324 41.6601591,20.5026401 40.5169506,19.339896 L40.0955309,18.9098686 L40.0955309,21.5004707 L40.1969336,21.5807239 C41.5253319,22.5623184 42.868184,23 44.5450553,23 C47.1261951,23 49,21.1397951 49,18.5749389 C49,17.2656052 48.5505759,16.163167 47.6291436,15.2084783 C46.8368924,14.389014 45.8312213,13.8063662 44.8596522,13.2411144 C43.3399664,12.3611122 41.9045193,11.5305145 41.9045193,10.0302894 C41.9045193,8.76386558 43.0280796,7.8808481 44.6432963,7.8808481 C45.7697925,7.8808481 46.8818348,8.30786023 47.9493865,9.1502872 L48.3509322,9.46503759 L48.3509322,7.12818414 L48.2330431,7.05326566 C47.1600713,6.36345899 45.9859226,6 44.8341321,6 C43.404557,6 42.1935961,6.40706479 41.3315601,7.17712469" id="Fill-18" fill="#4E5455"></path>
                    <path d="M99.3285316,7.17712469 C98.4576003,7.95599853 98,9.0524061 98,10.3475912 C98,12.7391838 99.9550782,13.9566671 101.851206,15.1305445 C103.516952,16.1691976 105.092579,17.1447614 105.092579,18.8463155 C105.092579,19.9487536 104.106909,21.1168324 102.281025,21.1168324 C100.960399,21.1168324 99.6605516,20.5026401 98.5163249,19.339896 L98.0953146,18.9063894 L98.0953146,21.503486 L98.1962758,21.5807239 C99.5225487,22.5623184 100.865084,23 102.547996,23 C105.123522,23 107,21.1397951 107,18.5749389 C107,17.2656052 106.551208,16.163167 105.629684,15.2084783 C104.837805,14.389014 103.831581,13.8063662 102.859688,13.2411144 C101.337365,12.3611122 99.9013226,11.5305145 99.9013226,10.0302894 C99.9013226,8.76386558 101.027932,7.8808481 102.640826,7.8808481 C103.76992,7.8808481 104.882752,8.30786023 105.947022,9.1502872 L106.348157,9.46503759 L106.348157,7.12818414 L106.230482,7.05326566 C105.157402,6.36345899 103.983135,6 102.831907,6 C101.404447,6 100.190654,6.40706479 99.3285316,7.17712469" id="Fill-20" fill="#4E5455"></path>
                    <polygon id="Fill-22" fill="#4E5455" points="63.9322615 7 63.9322615 14.563075 55.0682029 14.563075 55.0682029 7 53 7 53 24 55.0682029 24 55.0682029 16.4371642 63.9322615 16.4371642 63.9322615 24 66 24 66 7"></polygon>
                    <mask id="mask-8" fill="white">
                        <use xlink:href="#path-7"></use>
                    </mask>
                    <g id="Clip-25"></g>
                    <polygon id="Fill-24" fill="#4E5455" mask="url(#mask-8)" points="72 24 74 24 74 7 72 7"></polygon>
                    <polygon id="Fill-26" fill="#4E5455" mask="url(#mask-8)" points="111 7 111 24 120 24 120 22.1268674 113.010291 22.1268674 113.010291 16.4488817 119.542552 16.4488817 119.542552 14.5692924 113.010291 14.5692924 113.010291 8.87361092 119.781417 8.87361092 119.781417 7"></polygon>
                    <polygon id="Fill-27" fill="#4E5455" mask="url(#mask-8)" points="157 7 157 24 166 24 166 22.1268674 159.009591 22.1268674 159.009591 16.4488817 165.542281 16.4488817 165.542281 14.5692924 159.009591 14.5692924 159.009591 8.87361092 165.78455 8.87361092 165.78455 7"></polygon>
                    <path d="M143.729254,17.0485868 L146.299766,10.1772525 L149.085968,17.0485868 L143.729254,17.0485868 Z M147.088244,7 L145.622478,7 L139,23.996198 L141.126907,23.996198 L143.028205,18.9163009 L149.839152,18.9163009 L151.89893,24 L154,23.996198 L147.088244,7 Z" id="Fill-28" fill="#4E5455" mask="url(#mask-8)"></path>
                    <path d="M135.903065,10.3990215 L135.903065,8.22565129 C134.24737,7.50717408 132.498522,7 131.030786,7 C128.23386,7 126.098455,7.68679338 124.446542,9.23137959 C122.79392,10.7843527 122,13.1082211 122,15.481246 C122,20.1031232 124.587216,24 130.309685,24 C132.450291,24 134.538647,23.4699949 135.899282,22.5770237 L136,22.5106275 L136,14.5947979 L130.60971,14.5947979 L130.60971,16.3418344 L133.973588,16.3418344 L133.973588,21.3581286 C132.927637,21.9053734 131.580478,22.1805101 130.245141,22.1110852 C127.157173,21.8643708 124.16354,20.0914747 124.16354,15.5509038 C124.16354,11.4827945 126.598497,8.88052788 130.845664,8.88052788 C130.845664,8.88052788 133.632424,8.89823354 135.903065,10.3990215" id="Fill-29" fill="#4E5455" mask="url(#mask-8)"></path>
                    <polygon id="Fill-30" fill="#4E5455" mask="url(#mask-8)" points="91.0718395 7 91.0664699 20.2179453 80.983024 7 79 7 79 24 80.9311955 24 80.9311955 10.4045426 91.2518385 24 93 24 93 7"></polygon>
                </g>
            </g>
        </g>
    </g>
</svg>