<svg xmlns="http://www.w3.org/2000/svg" xmlns:xlink="http://www.w3.org/1999/xlink" width="213" height="100" viewBox="0 0 213 100">
    <defs>
        <path id="kfodggzmoa" d="M0 22.32L168.369 22.32 168.369 0.196 0 0.196z"/>
    </defs>
    <g fill="none" fill-rule="evenodd">
        <g>
            <g>
                <g>
                    <g>
                        <g>
                            <g>
                                <path d="M0 0H213V100H0z" transform="translate(-1029 -2582) translate(270 879) translate(0 1097) translate(0 100) translate(702 454) translate(57 52)"/>
                                <g>
                                    <path fill="#E50113" d="M78.732.93L78.732 23.039 83.92 19.216 83.92 9.825 86.896 9.825 86.896 6.16 83.92 6.16 83.92.93zM106.49.93L106.49 23.039 111.676 19.216 111.676.93z" transform="translate(-1029 -2582) translate(270 879) translate(0 1097) translate(0 100) translate(702 454) translate(57 52) translate(22 38)"/>
                                    <g transform="translate(-1029 -2582) translate(270 879) translate(0 1097) translate(0 100) translate(702 454) translate(57 52) translate(22 38) translate(0 .733)">
                                        <path fill="#E50113" d="M96.277 12.55c-1.838 0-3.334-1.496-3.334-3.336 0-1.838 1.496-3.335 3.334-3.335 1.84 0 3.336 1.497 3.336 3.335 0 1.84-1.495 3.336-3.336 3.336m0-11.597c-4.562 0-8.261 3.701-8.261 8.261 0 4.563 3.699 8.262 8.261 8.262 4.565 0 8.263-3.7 8.263-8.262 0-4.56-3.698-8.261-8.263-8.261M139.433.197L134.248.197 134.248 22.305 139.433 18.483 139.433 9.092 142.408 9.092 142.408 5.427 139.433 5.427z"/>
                                        <mask id="lid45oascb" fill="#fff">
                                            <use xlink:href="#kfodggzmoa"/>
                                        </mask>
                                        <path fill="#E50113" d="M120.956 13.252h5.697V5.176h-5.697v8.076zm-5.187 3.665h10.683l5.387-3.972V1.51h-16.07v15.406zM165.259 11.135L151.32 11.135 151.32 9.414 165.259 9.414 165.259 5.82 151.32 5.82 151.32 4.099 165.259 4.099 165.259.532 151.52.532 146.133 4.511 146.133 14.774 165.259 14.774zM143.079 20.457L168.369 20.457 168.369 16.807 143.079 16.807zM68.51 14.791c-1.87 0-3.39-1.516-3.39-3.388 0-1.868 1.52-3.387 3.39-3.387s3.387 1.519 3.387 3.387c0 1.872-1.517 3.388-3.388 3.388zM71.102.197h-5.187v1.85h-6.084v3.49h3.077c-1.55 1.479-2.521 3.56-2.521 5.866 0 4.48 3.643 8.122 8.121 8.122 4.476 0 8.12-3.643 8.12-8.122 0-2.306-.97-4.387-2.52-5.866h3.076v-3.49h-6.082V.197zM26.415 19.703c-12.684 2.819-23.684 1.479-24.569-2.994-.884-4.472 8.682-10.382 21.366-13.201C35.895.689 46.896 2.03 47.782 6.502c.885 4.472-8.683 10.382-21.367 13.2m26.698-14.33C52.09.207 39.386-1.341 24.739 1.915 10.091 5.172-.956 11.996.065 17.16c1.022 5.164 13.723 6.71 28.372 3.456 14.648-3.256 25.696-10.08 24.676-15.244" mask="url(#lid45oascb)"/>
                                        <path fill="#E50113" d="M10.014 18.453c4.52 0 8.182-3.662 8.182-8.18s-3.663-8.181-8.182-8.181c-4.517 0-8.18 3.663-8.18 8.18 0 4.519 3.663 8.181 8.18 8.181" mask="url(#lid45oascb)"/>
                                        <path fill="#FEFEFE" d="M15.382 8.996L13.187 8.996 13.187 14.653 15.382 13.929zM13.187 8.258L15.382 8.258 15.382 6.243 13.187 6.243zM9.814 9.206L7.059 9.206 7.059 6.288 4.864 6.288 4.864 14.654 7.059 13.928 7.059 10.965 9.814 10.965 9.814 14.654 12.008 13.928 12.008 6.288 9.814 6.288z" mask="url(#lid45oascb)"/>
                                        <path fill="#E50113" d="M31.46 11.645c-.612 0-1.107-.495-1.107-1.107s.495-1.109 1.106-1.109c.612 0 1.108.497 1.108 1.109s-.496 1.107-1.108 1.107zm1.109-3.805v.32c-.396-.338-.942-.503-1.468-.503-1.591 0-2.687 1.318-2.687 2.867 0 1.55 1.12 2.877 2.709 2.877.532 0 1.086-.172 1.446-.545v.833l2.037-.602V7.84H32.57zM39.1 9.498V7.84c-.76 0-1.306.23-1.705.566V7.84h-2.037v5.85l2.037-.604v-2.462c0-.72.53-1.126 1.45-1.126h.254zM42.465 7.84L42.465 6.897 40.43 6.897 40.43 7.84 39.519 7.84 39.519 9.498 40.43 9.498 40.43 13.69 42.465 13.087 42.465 9.498 43.378 9.498 43.378 7.84zM27.999 9.713c0-1.134-1.026-2.053-2.294-2.053-.627 0-1.194.221-1.61.581-.413-.36-.98-.58-1.607-.58-.534 0-1.026.161-1.418.433V7.84h-2.036v5.85l2.037-.602v-2.82c0-.394.321-.715.714-.715.394 0 .714.32.714.716v3.42l2.038-.601v-2.82c0-.394.319-.715.712-.715.393 0 .712.32.712.716v3.42L28 13.088V9.713z" mask="url(#lid45oascb)"/>
                                    </g>
                                </g>
                            </g>
                        </g>
                    </g>
                </g>
            </g>
        </g>
    </g>
</svg>
