<svg xmlns="http://www.w3.org/2000/svg" xmlns:xlink="http://www.w3.org/1999/xlink" width="656" height="396" viewBox="0 0 656 396">
    <defs>
        <filter id="j62i87mtvc" width="122.3%" height="135.7%" x="-11.2%" y="-11.7%" filterUnits="objectBoundingBox">
            <feOffset dy="20" in="SourceAlpha" result="shadowOffsetOuter1"/>
            <feGaussianBlur in="shadowOffsetOuter1" result="shadowBlurOuter1" stdDeviation="16"/>
            <feColorMatrix in="shadowBlurOuter1" values="0 0 0 0 0.811764706 0 0 0 0 0.376470588 0 0 0 0 0.674509804 0 0 0 0.443072552 0"/>
        </filter>
        <filter id="c5y5gxzq4f" width="1294.2%" height="418.5%" x="-649%" y="-173.1%" filterUnits="objectBoundingBox">
            <feOffset dx="-3" dy="-3" in="SourceAlpha" result="shadowOffsetOuter1"/>
            <feGaussianBlur in="shadowOffsetOuter1" result="shadowBlurOuter1" stdDeviation="11"/>
            <feColorMatrix in="shadowBlurOuter1" values="0 0 0 0 1 0 0 0 0 1 0 0 0 0 1 0 0 0 0.5 0"/>
        </filter>
        <filter id="n5wzr86bzh" width="1294.2%" height="1294.2%" x="-649%" y="-649%" filterUnits="objectBoundingBox">
            <feOffset dx="-3" dy="-3" in="SourceAlpha" result="shadowOffsetOuter1"/>
            <feGaussianBlur in="shadowOffsetOuter1" result="shadowBlurOuter1" stdDeviation="11"/>
            <feColorMatrix in="shadowBlurOuter1" values="0 0 0 0 1 0 0 0 0 1 0 0 0 0 1 0 0 0 0.5 0"/>
        </filter>
        <filter id="gpssldnxij" width="270.6%" height="270.6%" x="-92.7%" y="-92.7%" filterUnits="objectBoundingBox">
            <feOffset dx="-3" dy="-3" in="SourceAlpha" result="shadowOffsetOuter1"/>
            <feGaussianBlur in="shadowOffsetOuter1" result="shadowBlurOuter1" stdDeviation="11"/>
            <feColorMatrix in="shadowBlurOuter1" values="0 0 0 0 1 0 0 0 0 1 0 0 0 0 1 0 0 0 0.5 0"/>
        </filter>
        <path id="1zyt8896kg" d="M20.222 10.111L20.222 31.778 26 31.778 26 29.847 21.87 29.847 21.87 10.111z"/>
        <path id="g81hvowpii" d="M12.997 14.444c1.595 0 2.892-1.294 2.892-2.884 0-1.599-1.297-2.893-2.892-2.893-1.589 0-2.886 1.294-2.886 2.893 0 1.59 1.297 2.884 2.886 2.884"/>
        <path id="e23t9p7lfk" d="M21.18.02c-.242-.011-.723-.02-.96-.02C9.075 0 0 9.071 0 20.226c0 5.4 2.093 10.48 5.91 14.298 3.833 3.82 8.915 5.92 14.31 5.92 5.4 0 10.481-2.1 14.308-5.92 3.818-3.817 5.916-8.898 5.916-14.298v-.922l-.808.006h-13.63v1.879h12.52v.267c-.644 9.541-8.61 17.101-18.305 17.101-4.895 0-9.496-1.907-12.963-5.368-3.466-3.464-5.373-8.064-5.373-12.963 0-4.895 1.907-9.504 5.373-12.965C10.725 3.797 15.326 1.89 20.22 1.89c.222 0 .74.009.96.011V.02z"/>
        <rect id="tnfh2zkz7a" width="520" height="325" x="68" y="14" rx="24.983"/>
        <rect id="xz9usyqgsb" width="520" height="325" x="68" y="14" rx="24.983"/>
        <linearGradient id="o8ka7u5xxd" x1="0%" x2="98.772%" y1="30.469%" y2="69.05%">
            <stop offset="0%" stop-color="#8D71EC"/>
            <stop offset="100%" stop-color="#F75584"/>
        </linearGradient>
    </defs>
    <g fill="none" fill-rule="evenodd">
        <g>
            <g>
                <g transform="translate(-372 -2885) translate(340 2559) translate(32 326)">
                    <path d="M0 0L656 0 656 396 0 396z"/>
                    <mask id="fzuz7vg97e" fill="#fff">
                        <use xlink:href="#xz9usyqgsb"/>
                    </mask>
                    <g>
                        <use fill="#000" filter="url(#j62i87mtvc)" xlink:href="#xz9usyqgsb"/>
                        <use fill="url(#o8ka7u5xxd)" xlink:href="#xz9usyqgsb"/>
                    </g>
                    <g mask="url(#fzuz7vg97e)">
                        <g>
                            <g transform="translate(102.667 48.667)">
                                <use fill="#000" filter="url(#c5y5gxzq4f)" xlink:href="#1zyt8896kg"/>
                                <use fill="#FFF" xlink:href="#1zyt8896kg"/>
                            </g>
                            <g transform="translate(102.667 48.667)">
                                <use fill="#000" filter="url(#n5wzr86bzh)" xlink:href="#g81hvowpii"/>
                                <use fill="#FFF" xlink:href="#g81hvowpii"/>
                            </g>
                            <g transform="translate(102.667 48.667)">
                                <use fill="#000" filter="url(#gpssldnxij)" xlink:href="#e23t9p7lfk"/>
                                <use fill="#FFF" xlink:href="#e23t9p7lfk"/>
                            </g>
                        </g>
                    </g>
                    <path fill="#FFF" fill-rule="nonzero" d="M337.808 294.333v-2.83h-8.985V273.07h-3.35v21.262h12.335zm12.422.376c2.918 0 5.316-1.069 6.731-2.485v-9.215h-7.251v2.744h4.218v4.998c-.751.665-2.051 1.04-3.351 1.04-4.391 0-6.731-3.091-6.731-8.147 0-4.997 2.628-8.06 6.586-8.06 2.051 0 3.351.838 4.391 1.907l1.82-2.138c-1.3-1.357-3.322-2.686-6.326-2.686-5.634 0-9.91 4.16-9.91 11.093 0 6.962 4.132 10.949 9.823 10.949zm21.089-.376v-10.515c0-1.907-.26-4.651-.405-6.587h.116l1.676 4.911 3.726 10.14h2.08l3.698-10.14 1.704-4.91h.116c-.173 1.935-.433 4.68-.433 6.586v10.515h3.12v-21.262h-3.871l-3.843 10.747c-.49 1.415-.895 2.86-1.386 4.304h-.145c-.49-1.444-.924-2.889-1.415-4.304l-3.9-10.747h-3.843v21.262h3.005zm33.858 0v-2.83h-9.534v-6.876h7.8v-2.831h-7.8v-5.923h9.216v-2.802h-12.567v21.262h12.885zm7.453 0v-10.515c0-1.907-.26-4.651-.404-6.587h.115l1.676 4.911 3.726 10.14h2.08l3.698-10.14 1.705-4.91h.115c-.173 1.935-.433 4.68-.433 6.586v10.515h3.12v-21.262h-3.871l-3.843 10.747c-.49 1.415-.895 2.86-1.386 4.304h-.145c-.49-1.444-.924-2.889-1.415-4.304l-3.9-10.747h-3.842v21.262h3.004zm28.08 0c4.709 0 8.147-2.022 8.147-6.24 0-2.889-1.763-4.535-4.19-5.055v-.145c1.907-.635 3.034-2.57 3.034-4.593 0-3.842-3.149-5.229-7.511-5.229h-6.587v21.262h7.107zm-.896-12.393h-2.86v-6.269h2.947c3.005 0 4.507.838 4.507 3.062 0 1.994-1.358 3.207-4.594 3.207zm.52 9.764h-3.38v-7.222h3.38c3.38 0 5.23 1.04 5.23 3.438 0 2.6-1.907 3.784-5.23 3.784zm25.423 2.63v-2.832h-9.534v-6.875h7.8v-2.831h-7.8v-5.923h9.216v-2.802h-12.567v21.262h12.885zm7.8 0v-8.58h3.437l4.825 8.58h3.784l-5.2-9.014c2.687-.838 4.45-2.802 4.45-6.096 0-4.593-3.294-6.153-7.685-6.153h-6.962v21.262h3.35zm3.206-11.267h-3.206v-7.31h3.206c3.091 0 4.767.896 4.767 3.467 0 2.572-1.676 3.843-4.767 3.843zm18.431 11.642c4.652 0 7.483-2.773 7.483-6.182 0-3.12-1.82-4.68-4.334-5.75l-2.917-1.241c-1.734-.694-3.438-1.387-3.438-3.207 0-1.705 1.415-2.745 3.582-2.745 1.878 0 3.351.723 4.68 1.907l1.762-2.138c-1.618-1.646-3.958-2.686-6.442-2.686-4.044 0-6.991 2.513-6.991 5.864 0 3.091 2.282 4.709 4.333 5.576l2.947 1.27c1.964.867 3.409 1.474 3.409 3.41 0 1.79-1.445 3.004-4.016 3.004-2.05 0-4.13-.982-5.662-2.513l-1.964 2.31c1.935 1.965 4.65 3.12 7.568 3.12zm14.85-.376v-9.677h9.1v9.677h3.35v-21.262h-3.35v8.667h-9.1v-8.667h-3.352v21.262h3.351zm21.377 0v-21.262h-3.351v21.262h3.351zm8.927 0v-8.06h3.206c4.623 0 8.003-2.137 8.003-6.789 0-4.795-3.38-6.413-8.118-6.413h-6.442v21.262h3.35zm2.889-10.746h-2.89v-7.83h2.774c3.38 0 5.142.925 5.142 3.727 0 2.803-1.617 4.103-5.026 4.103z" mask="url(#fzuz7vg97e)"/>
                </g>
            </g>
        </g>
    </g>
</svg>
