<svg id="img_vipmembership_logo_013" xmlns="http://www.w3.org/2000/svg" width="213" height="100" viewBox="0 0 213 100">
  <rect id="영역" width="213" height="100" fill="none"/>
  <g id="img-logo-LGE" transform="translate(53.034 32.824)">
    <path id="Fill_1" data-name="Fill 1" d="M49.658,26.53H45.673V0H50.23V7.056h4.726v3.811H50.23v9.307a32.935,32.935,0,0,1-.571,6.355Zm-24.968,0H7.888a2.128,2.128,0,0,1-2.45-2.392V16.663h4.754v5.544c0,.411.127.484.486.484H24.69v3.839ZM28.762,19.2h0L26.91,15.9c4.956-2.172,5.9-5.153,5.9-9.895v-1.8H27.4V.484h15.37V4.207H37.5V5.98c0,4.75,1.865,7.387,6.437,9.1l-2.222,3.863a12.133,12.133,0,0,1-6.263-5.317A12.089,12.089,0,0,1,28.763,19.2Zm-5.128-.039H19.451V9.3H14.979V5.4h4.472V0h4.755V13.962a24.653,24.653,0,0,1-.571,5.2ZM1.6,16.064h0L0,12.484c4.159-1.321,5.78-3.355,5.78-7.255V4.265H.6V.512H15.832V4.265h-5.1V5.2c0,3.418,2.186,5.7,6.322,6.6l-2.024,4.092a10.172,10.172,0,0,1-6.519-4.552C7.429,13.51,4.776,15.32,1.6,16.064Z" transform="translate(49.045 3.91)"/>
    <path id="Fill_3" data-name="Fill 3" d="M7.373,25.267H18.319v-4.92H5.963V0H0V25.267Z" transform="translate(2.932 4.541)"/>
    <path id="Fill_5" data-name="Fill 5" d="M12.392,16.329h4.855v4.5a13.7,13.7,0,0,1-4.3.682c-5.365,0-7.155-2.721-7.155-8.248,0-5.273,1.7-8.373,7.069-8.373,2.982,0,4.684.932,6.09,2.717l3.7-3.4C20.4.982,16.438,0,12.733,0,4.388,0,0,4.547,0,13.221c0,8.635,3.96,13.31,12.691,13.31,4,0,7.919-1.021,10.049-2.508v-12.5H12.392Z" transform="translate(21.883 3.91)"/>
  </g>
</svg>
