<svg xmlns="http://www.w3.org/2000/svg" xmlns:xlink="http://www.w3.org/1999/xlink" width="272" height="128" viewBox="0 0 272 128">
    <defs>
        <path id="r8p4zc79wa" d="M0.31 0.286L96.168 0.286 96.168 36.288 0.31 36.288z"/>
        <path id="v6fka0u1vc" d="M0 0.112L29.643 0.112 29.643 36.609 0 36.609z"/>
    </defs>
    <g fill="none" fill-rule="evenodd">
        <g>
            <g>
                <g>
                    <g>
                        <g>
                            <g>
                                <path d="M0 0H272V128H0z" transform="translate(-56 -4966) translate(0 1652) translate(0 1680) translate(32 250) translate(0 1320) translate(24 64)"/>
                                <g>
                                    <g transform="translate(-56 -4966) translate(0 1652) translate(0 1680) translate(32 250) translate(0 1320) translate(24 64) translate(72 45) translate(31.584 .56)">
                                        <mask id="y9kc9kpw7b" fill="#fff">
                                            <use xlink:href="#r8p4zc79wa"/>
                                        </mask>
                                        <path fill="#4E5059" d="M51.322 30.925c2.735 0 6.08-1.728 6.08-6.12V21.35s-5.384 1.54-6.894 2.001c-2.686.815-3.979 2.184-3.979 3.977 0 1.79 1.48 3.597 4.793 3.597zM52.384 6.11c8.897 0 12.118 4.215 12.118 9.821v9.118c0 6.407-4.108 11.238-12.618 11.238-8.146 0-12.583-3.823-12.583-8.976 0-4.11 2.79-6.817 8.858-8.486.883-.242 3.836-1.124 5.179-1.519 3.062-.895 4.047-1.593 4.047-2.915 0-1.395-1.703-2.922-5.166-2.922-4.14 0-5.444 2.557-5.465 4.402h-6.457c0-5.703 3.4-9.761 12.087-9.761zm-15.03 8.158c0-2.897-1.635-8.141-11.06-8.141-4.832 0-6.77 1.275-7.461 1.743-.716-.405-2.966-1.743-7.465-1.743C2.659 6.128.31 10.464.31 14.058v21.534h7.108V14.527c0-1.218.688-3.061 3.948-3.061 2.536 0 3.912 1.28 3.912 3.06v21.066h7.11V14.527c0-1.774 1.347-3.061 3.906-3.061 2.79 0 3.95 1.426 3.95 3.06v16.239c0 3.183 1.854 4.978 4.795 4.978h2.315V14.27zm40.482-2.8c1.494 0 3.046.45 3.227.5V6.78c-.25-.048-3.143-.673-5.891-.673-4.656 0-7.942 1.92-7.942 6.968v22.518h7.05V14.465c0-1.865 1.185-2.995 3.556-2.995zm18.328 24.082c-.41.127-2.636.737-5.002.737-5.28 0-8.09-2.26-8.09-7.07V.285h2.96c3.085 0 4.09 1.798 4.09 4.298V6.78h6.046v1.7c0 2.418-1.675 3.788-4.169 3.788h-1.876v15.705c0 1.72.58 2.945 3.02 2.945 1.446 0 2.792-.414 3.021-.48-.002.584 0 5.113 0 5.113z" mask="url(#y9kc9kpw7b)"/>
                                    </g>
                                    <g transform="translate(-56 -4966) translate(0 1652) translate(0 1680) translate(32 250) translate(0 1320) translate(24 64) translate(72 45) translate(0 .224)">
                                        <mask id="9ys149xi5d" fill="#fff">
                                            <use xlink:href="#v6fka0u1vc"/>
                                        </mask>
                                        <path fill="#F7B62D" d="M14.976 5.987c-4.339 0-7.178 2.901-7.178 7.845v5.191s5.868-1.714 8.32-2.457c2.052-.624 5.726-1.926 5.726-5.163 0-2.82-2.288-5.416-6.868-5.416m-.88 30.622C4.287 36.61 0 30.598 0 22.997V14.79C0 4.227 7.042.112 15.304.112c9.977 0 14.34 5.43 14.34 10.857 0 7.926-8.106 9.869-11.685 10.905-1.031.299-4.829 1.429-5.685 1.678-3.344.967-4.303 2.05-4.303 3.278 0 2.098 1.833 3.916 6.124 3.916 3.732 0 6.46-1.27 6.917-5.168h7.807c-.804 6.168-4.514 11.031-14.722 11.031" mask="url(#9ys149xi5d)"/>
                                    </g>
                                </g>
                            </g>
                        </g>
                    </g>
                </g>
            </g>
        </g>
    </g>
</svg>
