<svg xmlns="http://www.w3.org/2000/svg" xmlns:xlink="http://www.w3.org/1999/xlink" width="272" height="128" viewBox="0 0 272 128">
    <defs>
        <path id="djoeg8l18a" d="M0 0.388L60.807 0.388 60.807 60.628 0 60.628z"/>
    </defs>
    <g fill="none" fill-rule="evenodd">
        <g>
            <g>
                <g>
                    <g>
                        <g>
                            <g>
                                <path d="M0 0H272V128H0z" transform="translate(-392 -3646) translate(0 1652) translate(0 1680) translate(32 250) translate(336) translate(24 64)"/>
                                <g>
                                    <path fill="#E20714" d="M107.993 40.757c-3.954 0-6.964-4.018-6.964-8.951 0-4.944 3.01-8.95 6.964-8.95 3.96 0 6.965 4.006 6.965 8.95 0 4.933-3.005 8.951-6.965 8.951m0-20.357c-8.252 0-13.193 5.102-13.193 11.406 0 6.3 4.94 11.394 13.193 11.394S121.2 38.106 121.2 31.806c0-6.304-4.954-11.406-13.207-11.406M122.4 22.992L131.181 22.992 131.181 42 137.797 42 137.797 22.992 145.2 22.992 145.2 20.4 122.4 20.4zM148.8 22.992L156.2 22.992 156.2 42 162.813 42 162.813 22.992 171.6 22.992 171.6 20.4 148.8 20.4zM82.095 38.13V20.4H75.6v19.026c0 1.423 1.156 2.574 2.587 2.574H94.8v-2.587H83.396c-.714 0-1.3-.572-1.3-1.283M181.841 22.956H194.4V20.4h-17.799c-1.435 0-2.601 1.144-2.601 2.568v16.46c0 1.423 1.166 2.572 2.601 2.572H194.4v-2.554h-12.559c-.728 0-1.297-.582-1.297-1.283v-6.365h13.652v-2.536h-13.652v-5.028c0-.704.57-1.278 1.297-1.278" transform="translate(-392 -3646) translate(0 1652) translate(0 1680) translate(32 250) translate(336) translate(24 64) translate(39 34)"/>
                                    <g transform="translate(-392 -3646) translate(0 1652) translate(0 1680) translate(32 250) translate(336) translate(24 64) translate(39 34)">
                                        <mask id="f3nnd57pab" fill="#fff">
                                            <use xlink:href="#djoeg8l18a"/>
                                        </mask>
                                        <path fill="#E20714" d="M42.922 55.512c-6.885 6.822-18.152 6.822-25.038 0L5.164 42.91c-6.886-6.82-6.886-17.983 0-24.805l12.72-12.601c6.886-6.82 18.153-6.82 25.038 0l12.72 12.601c6.886 6.822 6.886 17.985 0 24.805l-12.72 12.602z" mask="url(#f3nnd57pab)"/>
                                    </g>
                                    <path fill="#FEFEFE" d="M22.797 49.2c-1.29 0-2.341-.758-2.395-1.724-.026-.481.198-.94.632-1.295.434-.354 1.026-.56 1.667-.579 1.32-.047 2.442.73 2.497 1.724.054.991-.977 1.831-2.298 1.872l-.103.002M29.594 15.29c-1.027 0-1.849.315-2.513.963-1.435 1.399-2.188 4.288-2.12 8.131.08 4.739 1.23 14.036 5.03 18.824.615.774 1.277 1.394 1.968 1.84.668.435 1.419.858 2.59.858.318 0 .66-.031 1.016-.094 2.178-.513 4.906-2.892 6.937-6.058.31-.483.84-.77 1.421-.77.315 0 .623.087.891.252.38.235.644.6.744 1.029.099.429.023.87-.216 1.241-2.566 4.004-5.954 6.816-9.064 7.522-.01.005-.044.012-.077.018-.571.102-1.13.154-1.664.154-2.005 0-3.42-.75-4.428-1.402-.996-.647-1.926-1.51-2.766-2.567-5.348-6.738-5.714-19.373-5.739-20.79-.058-3.363.436-7.918 3.113-10.524C26.023 12.645 27.659 12 29.58 12l.312.001c1.925 0 3.564.644 4.869 1.916 2.677 2.606 3.17 7.161 3.113 10.523-.061 3.504-.716 10.288-4.417 16.372-.302.494-.854.8-1.443.8-.302 0-.599-.08-.858-.23-.792-.465-1.054-1.48-.581-2.26 2.591-4.255 3.844-8.94 3.943-14.738.067-3.845-.687-6.733-2.122-8.13-.664-.65-1.485-.964-2.508-.964h-.295z" transform="translate(-392 -3646) translate(0 1652) translate(0 1680) translate(32 250) translate(336) translate(24 64) translate(39 34)"/>
                                </g>
                            </g>
                        </g>
                    </g>
                </g>
            </g>
        </g>
    </g>
</svg>
