<?xml version="1.0" encoding="UTF-8"?>
<svg width="213px" height="100px" viewBox="0 0 213 100" version="1.1" xmlns="http://www.w3.org/2000/svg" xmlns:xlink="http://www.w3.org/1999/xlink">
    <!-- Generator: Sketch 61.2 (89653) - https://sketch.com -->
    <title>Artboard</title>
    <desc>Created with Sketch.</desc>
    <defs>
        <polygon id="path-1" points="0.258132 0.238588 80.139612 0.238588 80.139612 30.24 0.258132 30.24"></polygon>
        <polygon id="path-3" points="0.00014 0.09324 24.70286 0.09324 24.70286 30.507624 0.00014 30.507624"></polygon>
    </defs>
    <g id="Page-1" stroke="none" stroke-width="1" fill="none" fill-rule="evenodd">
        <g id="Artboard" transform="translate(-398.000000, -287.000000)">
            <g id="img" transform="translate(398.000000, 287.000000)">
                <rect id="영역" x="0" y="0" width="213" height="100"></rect>
                <g id="Group-7" transform="translate(54.000000, 34.000000)">
                    <g id="Group-3" transform="translate(26.320000, 0.466760)">
                        <mask id="mask-2" fill="white">
                            <use xlink:href="#path-1"></use>
                        </mask>
                        <g id="Clip-2"></g>
                        <path d="M42.768292,25.770668 C45.047492,25.770668 47.834332,24.331188 47.834332,20.670188 L47.834332,17.791508 C47.834332,17.791508 43.348452,19.075308 42.090412,19.459188 C39.851252,20.138468 38.774372,21.279188 38.774372,22.773548 C38.774372,24.265388 40.007772,25.770668 42.768292,25.770668 L42.768292,25.770668 Z M43.653652,5.092108 C51.067772,5.092108 53.751292,8.604708 53.751292,13.276788 L53.751292,20.875148 C53.751292,26.214468 50.328292,30.240028 43.237012,30.240028 C36.448412,30.240028 32.750452,27.054468 32.750452,22.759828 C32.750452,19.335428 35.076412,17.079468 40.132652,15.688148 C40.868212,15.486268 43.329132,14.751268 44.448292,14.422548 C46.999652,13.676908 47.820612,13.095068 47.820612,11.993548 C47.820612,10.830428 46.401852,9.558108 43.516172,9.558108 C40.065732,9.558108 38.979332,11.688908 38.961412,13.226668 L33.580652,13.226668 C33.580652,8.474228 36.414252,5.092108 43.653652,5.092108 L43.653652,5.092108 Z M31.128412,11.890508 C31.128412,9.476348 29.765652,5.106668 21.911932,5.106668 C17.885252,5.106668 16.269932,6.169548 15.693972,6.559028 C15.097292,6.221628 13.222132,5.106668 9.473212,5.106668 C2.215892,5.106668 0.258132,8.720348 0.258132,11.715788 L0.258132,29.659588 L6.181812,29.659588 L6.181812,12.105548 C6.181812,11.091108 6.755252,9.554748 9.471532,9.554748 C11.584692,9.554748 12.731292,10.622108 12.731292,12.105548 L12.731292,29.659588 L18.656372,29.659588 L18.656372,12.105548 C18.656372,10.627708 19.779452,9.554748 21.911932,9.554748 C24.236492,9.554748 25.203052,10.743068 25.203052,12.105548 L25.203052,25.637388 C25.203052,28.290388 26.748092,29.786148 29.199492,29.786148 L31.128412,29.786148 L31.128412,11.890508 Z M64.863372,9.558108 C66.108532,9.558108 67.401292,9.932188 67.552492,9.974748 L67.552492,5.649868 C67.343612,5.609268 64.933652,5.088188 62.643252,5.088188 C58.763572,5.088188 56.025172,6.688948 56.025172,10.895108 L56.025172,29.659588 L61.899292,29.659588 L61.899292,12.054028 C61.899292,10.499748 62.887692,9.558108 64.863372,9.558108 L64.863372,9.558108 Z M80.136812,29.625428 C79.795772,29.731268 77.939932,30.240028 75.968452,30.240028 C71.567972,30.240028 69.226612,28.356468 69.226612,24.347708 L69.226612,0.238588 L71.693132,0.238588 C74.263812,0.238588 75.102412,1.736588 75.102412,3.819788 L75.102412,5.649868 L80.139612,5.649868 L80.139612,7.066388 C80.139612,9.081828 78.744092,10.223388 76.665932,10.223388 L75.102412,10.223388 L75.102412,23.311148 C75.102412,24.743628 75.586532,25.765068 77.618492,25.765068 C78.824172,25.765068 79.945852,25.420388 80.136812,25.365228 C80.135412,25.851588 80.136812,29.625428 80.136812,29.625428 L80.136812,29.625428 Z" id="Fill-1" fill="#4E5059" mask="url(#mask-2)"></path>
                    </g>
                    <g id="Group-6" transform="translate(0.000000, 0.186760)">
                        <mask id="mask-4" fill="white">
                            <use xlink:href="#path-3"></use>
                        </mask>
                        <g id="Clip-5"></g>
                        <path d="M12.48002,4.989264 C8.86438,4.989264 6.49866,7.406784 6.49866,11.526984 L6.49866,15.852704 C6.49866,15.852704 11.38858,14.424144 13.43118,13.805064 C15.14142,13.285104 18.20294,12.199824 18.20294,9.502584 C18.20294,7.151984 16.29642,4.989264 12.48002,4.989264 M11.74726,30.507624 C3.57154,30.507624 0.00014,25.498144 0.00014,19.164544 L0.00014,12.324984 C0.00014,3.522344 5.86866,0.093184 12.75358,0.093184 C21.0679,0.093184 24.70286,4.618264 24.70286,9.141104 C24.70286,15.745464 17.9487,17.364984 14.96558,18.228224 C14.10626,18.477144 10.9417,19.418784 10.22826,19.626264 C7.44142,20.432104 6.64286,21.335104 6.64286,22.357944 C6.64286,24.106824 8.16998,25.621624 11.74586,25.621624 C14.85554,25.621624 17.12942,24.563224 17.51022,21.314664 L24.01574,21.314664 C23.34598,26.454904 20.25422,30.507624 11.74726,30.507624" id="Fill-4" fill="#F7B62D" mask="url(#mask-4)"></path>
                    </g>
                </g>
            </g>
        </g>
    </g>
</svg>