<svg xmlns="http://www.w3.org/2000/svg" xmlns:xlink="http://www.w3.org/1999/xlink" width="272" height="128" viewBox="0 0 272 128">
    <defs>
        <path id="nov4k79k4a" d="M0 46.24L208.055 46.24 208.055 0 0 0z"/>
    </defs>
    <g fill="none" fill-rule="evenodd">
        <g>
            <g>
                <g>
                    <g>
                        <g>
                            <g>
                                <path d="M0 0H272V128H0z" transform="translate(-392 -4526) translate(0 1652) translate(0 1680) translate(32 250) translate(336 880) translate(24 64)"/>
                                <g transform="translate(-392 -4526) translate(0 1652) translate(0 1680) translate(32 250) translate(336 880) translate(24 64) translate(33 40)">
                                    <path fill="#E20714" d="M132.357 18.462v9.086c0 1.81-.679 3.354-2.618 3.354-1.938 0-2.616-1.544-2.616-3.354v-9.086h-5.33v9.523c0 3.661 2.565 7.014 7.946 7.014 5.382 0 7.947-3.353 7.947-7.014v-9.523h-5.33zM14.439 34.546L14.439 24.986 5.524 24.986 5.524 34.546 0 34.546 0 11.681 5.524 11.681 5.524 20.336 14.439 20.336 14.439 11.681 19.962 11.681 19.962 34.546zM31.848 22.34c-2.486 0-3.78 2.034-3.78 4.102 0 2.065 1.326 4.166 3.813 4.166s3.811-2.101 3.811-4.166c0-2.068-1.356-4.103-3.844-4.103m0 12.726c-4.845 0-8.913-3.36-8.913-8.623 0-5.266 4.068-8.495 8.913-8.495 4.878 0 8.947 3.229 8.947 8.495 0 5.262-4.07 8.623-8.947 8.623M64.052 34.546v-8.785c0-1.84-.42-3.389-2.294-3.389-1.81 0-2.68 1.679-2.68 3.487v8.687h-5.296v-9.17c0-1.842-.714-3.004-2.295-3.004-1.678 0-2.648 1.518-2.648 3.453v8.721h-5.33V18.462h5.135v2.228h.064c.743-1.355 2.392-2.68 4.814-2.68 2.324 0 3.941 1 4.844 2.748 1.067-1.682 2.747-2.748 5.136-2.748 4.36 0 5.848 3.553 5.848 6.588v9.948h-5.298zM84.147 24.663c0-1.679-1.067-3.066-3.165-3.066-2.036 0-3.522 1.422-3.651 3.066h6.816zm4.18 7.1c-1.528 2.12-4.014 3.302-7.216 3.302-4.844 0-8.852-3.069-8.852-8.494 0-5.266 3.813-8.624 8.69-8.624 4.748 0 8.077 3.262 8.077 8.751 0 .421 0 .874-.033 1.26H77.33c.162 1.776 1.939 3.038 3.845 3.038 1.619 0 2.76-.663 3.478-1.582l3.672 2.349zM150.993 23.211c-.839-.808-2.066-1.452-3.36-1.452-1 0-2.002.354-2.002 1.29 0 .904.872 1.165 2.938 1.614 2.457.551 5.137 1.779 5.137 4.912 0 4.067-3.584 5.49-6.88 5.49-2.617 0-5.329-.873-7.008-2.487l2.97-3.133c.937 1.033 2.392 1.81 3.94 1.81.873 0 1.907-.357 1.907-1.39 0-1.002-1.002-1.324-3.197-1.842-2.232-.517-4.684-1.647-4.684-4.683 0-3.844 3.616-5.394 6.687-5.394 2.389 0 4.876.774 6.458 2.262l-2.906 3.003z"/>
                                    <mask id="rnxr44o5gb" fill="#fff">
                                        <use xlink:href="#nov4k79k4a"/>
                                    </mask>
                                    <path fill="#E20714" d="M112.943 34.546L118.305 34.546 118.305 10.918 112.943 10.918zM101.152 22.34c2.52 0 3.78 2.034 3.78 4.102 0 2.1-1.26 4.166-3.78 4.166-2.39 0-3.876-2.036-3.876-4.134 0-2.035 1.486-4.135 3.876-4.135zm-3.681 18.848V32.77h.063c1.002 1.39 2.91 2.229 4.877 2.229 4.846 0 7.655-4.07 7.655-8.557 0-4.491-2.938-8.432-7.622-8.432-2.357 0-4.166 1.13-5.136 2.423h-.096v-1.97h-5.039v22.725h5.298zM176.559 34.683c0 4.617 3.758 8.376 8.377 8.376 4.62 0 8.376-3.759 8.376-8.376V11.558c0-4.619-3.756-8.376-8.376-8.376-4.619 0-8.377 3.757-8.377 8.376v23.125zm19.935-23.125v23.125c0 6.372-5.185 11.556-11.558 11.556s-11.557-5.184-11.557-11.556V11.558C173.379 5.186 178.563 0 184.936 0s11.558 5.186 11.558 11.558z" mask="url(#rnxr44o5gb)"/>
                                    <path fill="#E20714" d="M173.373 14.743c-4.618 0-8.377 3.758-8.377 8.376 0 4.62 3.759 8.379 8.377 8.379h23.124c4.62 0 8.377-3.76 8.377-8.379 0-4.618-3.756-8.376-8.377-8.376h-23.124zm23.124 19.934h-23.124c-6.372 0-11.557-5.185-11.557-11.558s5.185-11.557 11.557-11.557h23.124c6.372 0 11.559 5.184 11.559 11.557s-5.187 11.558-11.559 11.558z" mask="url(#rnxr44o5gb)"/>
                                </g>
                            </g>
                        </g>
                    </g>
                </g>
            </g>
        </g>
    </g>
</svg>
