<svg xmlns="http://www.w3.org/2000/svg" xmlns:xlink="http://www.w3.org/1999/xlink" width="213" height="100" viewBox="0 0 213 100">
    <defs>
        <path id="7gz80nkmsa" d="M0.61 0.605L116.538 0.605 116.538 22.813 0.61 22.813z"/>
        <path id="890qwbhaxc" d="M0 0.144L49.855 0.144 49.855 50 0 50z"/>
    </defs>
    <g fill="none" fill-rule="evenodd">
        <g>
            <g>
                <g>
                    <g>
                        <g>
                            <g>
                                <path d="M0 0H213V100H0z" transform="translate(-1029 -2128) translate(270 879) translate(0 1097) translate(0 100) translate(702) translate(57 52)"/>
                                <g>
                                    <path fill="#AF9B72" d="M62.453 36.2h.897c1.966 0 3.167 1.082 3.167 2.81 0 1.722-1.2 2.806-3.167 2.806h-.897V36.2zm1.01-.825h-1.948v7.267h1.948c2.381 0 4.03-1.498 4.03-3.632 0-2.137-1.649-3.635-4.03-3.635zM71.145 41.816L71.145 39.384 73.562 39.384 73.562 38.561 71.145 38.561 71.145 36.2 74.088 36.2 74.088 35.375 70.209 35.375 70.209 42.643 74.478 42.643 74.478 41.816zM78.133 36.2h1.012c.786 0 1.33.487 1.33 1.178 0 .807-.677 1.182-1.293 1.182h-1.049V36.2zm1.125-.825h-2.082v7.267h.957v-3.258h1.162c1.028 0 2.134-.678 2.134-2.006 0-1.31-1.106-2.003-2.17-2.003zM85.834 37.812s.692 1.798.784 2.02h-2.192c.113-.222.806-2.02.806-2.02s.189-.53.302-.862c.111.314.3.862.3.862zm-.115-2.588h-.355l-3.015 7.419h.954s.752-1.851.789-1.984h2.865c.037.133.806 1.984.806 1.984h.991l-3.035-7.42zM91.716 36.2h1.051c.783 0 1.327.487 1.327 1.178 0 .807-.675 1.182-1.29 1.182h-1.088V36.2zm2.021 3.034c.79-.3 1.332-.994 1.332-1.856 0-1.31-1.106-2.003-2.193-2.003H90.76v7.267h.957v-3.258h1.067c.058.092 2.36 3.258 2.36 3.258h1.125s-2.399-3.22-2.53-3.408zM96.755 35.375L96.755 36.2 99.173 36.2 99.173 42.643 100.127 42.643 100.127 36.2 102.561 36.2 102.561 35.375zM111.78 35.375h-.638l-1.966 4.01s-.599 1.347-.826 1.833c-.129-.297-.842-1.834-.842-1.834l-1.986-4.009h-.636l-.58 7.268h.877l.302-3.766s.058-1.008.095-1.48c.203.452.71 1.537.71 1.537.02.037 1.855 3.783 1.855 3.783h.358l1.833-3.746.151-.337s.395-.822.581-1.237c.02.452.074 1.48.074 1.48l.318 3.766h.92l-.6-7.268zM116.37 41.816L116.37 39.384 118.785 39.384 118.785 38.561 116.37 38.561 116.37 36.2 119.31 36.2 119.31 35.375 115.415 35.375 115.415 42.643 119.705 42.643 119.705 41.816zM127.59 35.375v3.86s.019 1.273.019 1.63c-.241-.3-1.441-1.705-1.441-1.705l-3.333-3.785h-.66v7.268h.957v-4.009s-.036-1.352-.036-1.723c.28.316 1.57 1.853 1.57 1.853l3.526 4.028h.357v-7.417h-.96zM130.853 35.375L130.853 36.2 133.269 36.2 133.269 42.643 134.224 42.643 134.224 36.2 136.661 36.2 136.661 35.375zM145.296 38.335c-.846-.34-1.235-.712-1.235-1.236 0-.527.428-1.032 1.254-1.032.504 0 1.032.207 1.31.373l.112.097.207-.846-.057-.018c-.28-.203-.861-.43-1.554-.43-1.516 0-2.21.957-2.21 1.89 0 .957.654 1.688 1.947 2.14.956.336 1.349.786 1.349 1.46 0 .695-.561 1.18-1.404 1.18-.731 0-1.387-.243-2.063-.73l-.203-.172.279 1.166.02.037c.506.351 1.236.558 1.948.558 1.442 0 2.379-.84 2.379-2.134 0-1.328-1.05-1.895-2.08-2.303M148.463 35.375L148.463 36.2 150.879 36.2 150.879 42.643 151.815 42.643 151.815 36.2 154.27 36.2 154.27 35.375zM161.746 38.99c0 1.818-1.445 2.922-2.847 2.922-1.39 0-2.85-1.01-2.85-2.922 0-1.891 1.46-2.902 2.85-2.902 1.402 0 2.847 1.082 2.847 2.902m-2.847-3.748c-1.876 0-3.825 1.408-3.825 3.748 0 2.36 1.95 3.783 3.825 3.783 1.87 0 3.801-1.423 3.801-3.783 0-2.34-1.932-3.748-3.8-3.748M165.886 36.2h1.067c.788 0 1.329.487 1.329 1.178 0 .807-.674 1.182-1.271 1.182h-1.125V36.2zm2.02 3.034c.827-.3 1.35-.994 1.35-1.856 0-1.31-1.123-2.003-2.19-2.003h-2.117v7.267h.937v-3.258h1.084c.06.092 2.362 3.258 2.362 3.258h1.124s-2.398-3.22-2.55-3.408zM173.19 41.816L173.19 39.384 175.608 39.384 175.608 38.561 173.19 38.561 173.19 36.2 176.152 36.2 176.152 35.375 172.236 35.375 172.236 42.643 176.525 42.643 176.525 41.816z" transform="translate(-1029 -2128) translate(270 879) translate(0 1097) translate(0 100) translate(702) translate(57 52) translate(18 25)"/>
                                    <g transform="translate(-1029 -2128) translate(270 879) translate(0 1097) translate(0 100) translate(702) translate(57 52) translate(18 25) translate(60 10.856)">
                                        <mask id="n2na72tnqb" fill="#fff">
                                            <use xlink:href="#7gz80nkmsa"/>
                                        </mask>
                                        <path fill="#AF9B72" d="M116.538 13.388V1.278h-3.337v4.944h-3.867V7.73h3.867v5.66h3.337zM105.725 3.49h4.562V1.953H97.601V3.49h4.617c-.095 3.777-2.54 6.838-5.263 7.88l1.06 1.27c1.644-.5 4.271-2.108 5.956-4.543 1.683 2.435 4.316 4.043 5.96 4.543l1.057-1.27c-2.722-1.042-5.17-4.103-5.263-7.88zm-13.75 7.462h3.472V9.408h-3.473v-8.13h-3.333v14.29c-.664.196-1.879.345-3.044.345h-4.033v-2.516c2.525-.606 4.37-2.518 4.37-4.786 0-1.849-1.228-3.46-3.047-4.323h3.642V2.751h-4.965V.605h-3.337v2.146H73.28v1.537h3.552c-1.817.862-3.046 2.474-3.046 4.323 0 2.29 1.881 4.215 4.441 4.801v2.501h-5.226v1.474h12.596c1.234 0 2.065-.106 3.044-.37v5.634h3.333v-11.7zm-12.117 1.21c-1.603 0-2.904-1.588-2.904-3.55 0-1.964 1.301-3.554 2.904-3.554s2.905 1.59 2.905 3.554c0 1.962-1.302 3.55-2.905 3.55zM65.56 22.651h3.067V15.07H51.784v1.537H65.56v6.045zm0-9.263h3.067V1.278H65.56V6.2h-1.625V1.277H60.87v12.111h3.064v-5.68h1.625v5.68zm-14.37-.467h7.7V1.813H55.82v3.985h-3.416V1.813H49.34v9.257c0 1.023.83 1.851 1.85 1.851zm1.216-5.619h3.416v4.1h-2.799c-.339 0-.617-.277-.617-.619v-3.48zM41.738 22.648h3.197V1.276h-3.197v21.372zm-5.116 0h3.193V1.278h-3.193v7.71H32.62v1.906h4.003v4.494c-.78.307-1.482.476-2.519.476H29.56c-.427 0-.77-.347-.77-.77V4.454h5.84v-1.54h-9.15v12.957c0 .85.687 1.533 1.532 1.533h7.092c1.081 0 1.951-.19 2.52-.549v5.793zM.61 14.1H21.5v-1.54h-8.816v-2.105h7.028v-1.53H6.47c-.427 0-.775-.34-.775-.769V6.811h13.733V1.637H2.398v1.534h13.726v2.097H2.398V8.92c0 .851.684 1.535 1.531 1.535h5.442v2.105H.611v1.54zm.905 7.35l.922 1.363c1.804-.217 5.914-1.695 8.488-4.506 2.574 2.811 6.685 4.29 8.488 4.506l.925-1.363c-1.768-.254-6.583-2.304-7.562-6.366H9.073c-.977 4.062-5.792 6.112-7.558 6.366zm115.01-6.38h-16.88V20.8c0 1.021.823 1.848 1.845 1.848h15.035v-7.58zm-3.305 6.108h-9.492c-.42 0-.763-.337-.763-.763v-3.874h10.255v4.637z" mask="url(#n2na72tnqb)"/>
                                    </g>
                                    <g transform="translate(-1029 -2128) translate(270 879) translate(0 1097) translate(0 100) translate(702) translate(57 52) translate(18 25) translate(0 .856)">
                                        <mask id="c20rdnz5ed" fill="#fff">
                                            <use xlink:href="#890qwbhaxc"/>
                                        </mask>
                                        <path fill="#AF9B72" d="M35.19 45.766c-5.643 5.645-14.881 5.645-20.527 0l-10.43-10.43c-5.644-5.644-5.644-14.883 0-20.529l10.43-10.429c5.646-5.646 14.884-5.646 20.528 0l10.43 10.43c5.646 5.645 5.646 14.884 0 20.528l-10.43 10.43z" mask="url(#c20rdnz5ed)"/>
                                    </g>
                                    <path fill="#FEFEFE" d="M18.742 41.248c-.83 0-1.505-.649-1.54-1.478-.016-.412.128-.804.408-1.108.278-.305.658-.48 1.069-.497.849-.04 1.57.626 1.607 1.478.035.848-.628 1.568-1.478 1.603-.022.002-.044.002-.066.002M24.354 12.779c-.848 0-1.523.264-2.072.81-1.183 1.175-1.803 3.6-1.747 6.83.066 3.983 1.014 11.794 4.145 15.816.508.65 1.055 1.17 1.622 1.547.552.365 1.172.722 2.137.722.262 0 .543-.027.837-.08 1.797-.431 4.046-2.43 5.717-5.091.256-.404.694-.647 1.173-.647.26 0 .514.072.734.213.314.198.53.504.613.863.083.362.019.732-.177 1.044-2.117 3.364-4.91 5.728-7.473 6.32-.008.006-.035.009-.063.015-.469.086-.933.129-1.372.129-1.652 0-2.819-.63-3.65-1.18-.82-.541-1.588-1.267-2.28-2.155-4.41-5.661-4.71-16.276-4.73-17.47-.049-2.823.358-6.651 2.564-8.84 1.078-1.067 2.427-1.61 4.011-1.61h.256c1.587 0 2.94.543 4.017 1.61 2.206 2.189 2.611 6.017 2.564 8.84-.05 2.945-.588 8.646-3.64 13.757-.25.416-.706.675-1.19.675-.25 0-.495-.068-.707-.196-.655-.391-.87-1.241-.48-1.9 2.137-3.575 3.17-7.51 3.25-12.382.055-3.23-.567-5.655-1.75-6.83-.547-.546-1.221-.81-2.067-.81h-.242z" transform="translate(-1029 -2128) translate(270 879) translate(0 1097) translate(0 100) translate(702) translate(57 52) translate(18 25)"/>
                                </g>
                            </g>
                        </g>
                    </g>
                </g>
            </g>
        </g>
    </g>
</svg>
