<svg xmlns="http://www.w3.org/2000/svg" xmlns:xlink="http://www.w3.org/1999/xlink" width="272" height="128" viewBox="0 0 272 128">
    <defs>
        <path id="5mzc95450a" d="M0.054 0.136L8.203 0.136 8.203 14.211 0.054 14.211z"/>
        <path id="2eouyjk93c" d="M0 0.279L14.353 0.279 14.353 8.117 0 8.117z"/>
        <path id="q68ungzyte" d="M0.076 0.106L8.235 0.106 8.235 13.2 0.076 13.2z"/>
        <path id="4xzj4s7gwg" d="M0 33.6L199.2 33.6 199.2 1.2 0 1.2z"/>
    </defs>
    <g fill="none" fill-rule="evenodd">
        <g>
            <g>
                <g>
                    <g>
                        <g>
                            <g>
                                <path d="M0 0H272V128H0z" transform="translate(-56 -4086) translate(0 1652) translate(0 1680) translate(32 250) translate(0 440) translate(24 64)"/>
                                <g transform="translate(-56 -4086) translate(0 1652) translate(0 1680) translate(32 250) translate(0 440) translate(24 64) translate(37 47)">
                                    <g transform="translate(13.2)">
                                        <mask id="1paw08kawb" fill="#fff">
                                            <use xlink:href="#5mzc95450a"/>
                                        </mask>
                                        <path fill="#E50000" d="M4.714.207c.418.542 1.275 1.656 1.3 1.673.066.109.125.213.212.308.498.993 1.267 1.885 1.605 2.997l.206.629s.052.213.083.456c.188.71.007 1.406-.063 2.102-.24 1.237-.982 2.382-1.65 3.456-.613.815-1.968 2.383-1.968 2.383-.797-.926-1.654-1.818-2.486-2.71-.467-.831-.944-1.66-1.365-2.531-.304-.993-.569-1.974-.53-2.96-.014-.01.031-.423.049-.595.097-.348.167-.73.359-1.027.055-.16.268-.497.397-.642 0 0 .386-.535.498-.666.936-1.135 2.165-1.943 3.245-2.933.053-.04.08.04.108.06" mask="url(#1paw08kawb)"/>
                                    </g>
                                    <path fill="#E50000" d="M5.216 6.406c.281.12.579.16.86.263.782.08 1.545.29 2.298.5.465.156 1.382.625 1.382.625 1.198.653 2.008 1.658 2.848 2.6.712 1.002 1.304 2.1 1.575 3.395.067.39.194.8.221 1.185-1.291.376-2.613.582-3.898.626-1.034-.163-2.014-.54-2.977-1.039-.948-.66-1.663-1.451-2.299-2.326-.843-1.312-1.275-2.973-1.466-4.564-.027-.22-.046-.42-.046-.42s-.074-.658-.114-.988c.003-.17.013-.263.013-.263s.261.056.455.086c.295.094 1.01.3 1.148.32M27.634 7.29c.048.008 1.455.215 2.266.443.143.02.216.062.347.083.72.227 1.436.462 2.153.707-.113.919-.29 1.827-.885 2.628-.018.028-.043.062-.076.107-.497.763-1.268 1.437-2.047 1.937-.742.456-1.473.943-2.313 1.267-1.707.774-3.742 1.354-5.668 1.06-.727-.117-1.488-.141-2.211-.293 0 0 .325-1.219.471-1.83.092-.387.435-1.122.435-1.122.548-.808.724-1.716 1.444-2.476.979-.95 1.977-1.861 3.281-2.338.91-.297 1.908-.324 2.803-.173"/>
                                    <g transform="translate(0 15.6)">
                                        <mask id="2sr939ymyd" fill="#fff">
                                            <use xlink:href="#2eouyjk93c"/>
                                        </mask>
                                        <path fill="#E50000" d="M9.816 7.31c.856-.317 1.453-1.042 2.078-1.686.622-.664 1.17-1.402 1.693-2.173.014-.026.492-.778.713-1.073.014-.026.035-.04.053-.07-1.18-.493-2.322-1.011-3.512-1.325C9.837.723 8.849.382 7.814.36 6.939.335 6.086.162 5.173.414 3.139.926 1.52 2.046 0 3.246l.017.057c.562.865 1.138 1.722 1.798 2.503 0 .005.253.337.408.466l.74.764c.296.155.924.44.924.44.755.44 1.587.565 2.399.641.938-.08 2.542-.293 3.53-.807" mask="url(#2sr939ymyd)"/>
                                    </g>
                                    <path fill="#E50000" d="M26.598 15.614c.486-.021.822.046 1.233.077 1.183.128 2.309.512 3.412.982.18.098.361.211.523.324 0 0 .372.307.582.466.324.293.605.607.868.924.076.155.307.505.328.543.441.82.845 1.665 1.191 2.533.033.05.044.106.065.162-.195.092-.419.135-.631.198-.047.018-.67.197-.92.307-.693.155-1.425.3-2.128.412-.05.012-1.021.156-1.472.184-.03.003-.84.064-.996.05-.216.045-.433.01-.66.02-.462.007-1.471-.067-1.511-.08-.418-.033-1.032-.184-1.23-.259-.065-.02-1.104-.43-1.143-.444-.195-.08-.628-.353-.628-.353-.278-.12-.52-.324-.758-.482-.393-.315-.76-.66-1.071-1.049-.491-.627-1.241-2.045-1.252-2.056.949-.804 2.103-1.344 3.268-1.813.455-.194.93-.357 1.403-.515.502-.064 1.043-.187 1.527-.13M24.427 24.315c.716 1.12 1.485 2.128 1.691 3.673.066.492.15.992.17 1.473.052.534.108 1.106.111 1.624.007.832-.05 1.675-.05 2.515-.337-.127-.678-.295-1.01-.443-.024.014-2.341-.99-2.341-.99-.841-.432-1.704-1.026-2.473-1.672 0 0-1.091-.96-1.435-1.56-.235-.384-.444-.79-.67-1.19-.03-.049-.212-.497-.23-.694-.119-.608-.22-1.221-.182-1.818-.012-.253-.006-.56.022-.843.11-1.246.369-2.456.691-3.669l.06-.321c1.96.818 4.242 1.997 5.646 3.915"/>
                                    <g transform="translate(9.6 20.4)">
                                        <mask id="ajwv3ud8tf" fill="#fff">
                                            <use xlink:href="#q68ungzyte"/>
                                        </mask>
                                        <path fill="#E50000" d="M7.318.106C5.899.72 4.544 1.456 3.179 2.18c-.224.16-.468.361-.699.514-.406.51-1.31 1.452-1.31 1.452C.627 4.757.092 5.67.092 6.603c-.054.914.031 1.829.145 2.756.152.966.43 1.926.697 2.893.06.328.146.627.202.948.083-.014.2-.07.295-.08 0 0 2.213-.858 3.191-1.489.795-.529 1.567-1.101 2.124-1.951.099-.107.292-.395.292-.395.744-1.185 1.19-2.674 1.187-4.064 0 0-.007-.441.01-.653-.038-.52-.152-1.05-.2-1.565-.088-.306-.127-.617-.209-.923-.133-.646-.355-1.314-.51-1.974" mask="url(#ajwv3ud8tf)"/>
                                    </g>
                                    <path fill="#4E5455" d="M49.598 8.613C48.553 9.547 48 10.863 48 12.417c0 2.873 2.35 4.331 4.621 5.74 2.002 1.246 3.893 2.417 3.893 4.459 0 1.323-1.186 2.724-3.374 2.724-1.587 0-3.148-.737-4.52-2.132l-.505-.516V25.8l.121.096c1.594 1.178 3.206 1.703 5.218 1.703 3.097 0 5.346-2.232 5.346-5.31 0-1.571-.54-2.894-1.645-4.04-.95-.983-2.158-1.682-3.323-2.36-1.824-1.057-3.547-2.053-3.547-3.854 0-1.52 1.349-2.579 3.287-2.579 1.352 0 2.686.512 3.967 1.523l.482.378V8.554l-.141-.09C56.592 7.636 55.183 7.2 53.8 7.2c-1.716 0-3.169.488-4.203 1.413M119.194 8.613c-1.045.934-1.594 2.25-1.594 3.804 0 2.87 2.346 4.331 4.621 5.74 2 1.246 3.89 2.417 3.89 4.459 0 1.323-1.183 2.724-3.374 2.724-1.585 0-3.144-.737-4.517-2.132l-.506-.52v3.116l.122.093c1.591 1.178 3.202 1.703 5.222 1.703 3.09 0 5.342-2.232 5.342-5.31 0-1.571-.539-2.894-1.644-4.04-.95-.983-2.158-1.682-3.324-2.36-1.827-1.057-3.55-2.053-3.55-3.854 0-1.52 1.352-2.579 3.287-2.579 1.355 0 2.69.512 3.967 1.523l.482.378V8.554l-.141-.09c-1.288-.828-2.697-1.264-4.079-1.264-1.713 0-3.17.488-4.204 1.413M76.719 8.4L76.719 17.476 66.082 17.476 66.082 8.4 63.6 8.4 63.6 28.8 66.082 28.8 66.082 19.725 76.719 19.725 76.719 28.8 79.2 28.8 79.2 8.4z"/>
                                    <mask id="fkkfswmjjh" fill="#fff">
                                        <use xlink:href="#4xzj4s7gwg"/>
                                    </mask>
                                    <path fill="#4E5455" d="M86.4 28.8L88.8 28.8 88.8 8.4 86.4 8.4zM133.2 8.4L133.2 28.8 144 28.8 144 26.552 135.612 26.552 135.612 19.739 143.451 19.739 143.451 17.483 135.612 17.483 135.612 10.648 143.738 10.648 143.738 8.4zM188.4 8.4L188.4 28.8 199.2 28.8 199.2 26.552 190.812 26.552 190.812 19.739 198.651 19.739 198.651 17.483 190.812 17.483 190.812 10.648 198.941 10.648 198.941 8.4zM172.475 20.458l3.085-8.245 3.343 8.245h-6.428zm4.03-12.058h-1.758L166.8 28.795h2.552l2.282-6.095h8.173l2.472 6.1 2.521-.005L176.506 8.4zM163.084 12.479V9.87c-1.987-.862-4.086-1.471-5.847-1.471-3.356 0-5.919.824-7.901 2.678-1.983 1.863-2.936 4.652-2.936 7.5 0 5.546 3.105 10.222 9.972 10.222 2.568 0 5.074-.636 6.707-1.708l.121-.08v-9.498h-6.468v2.096h4.036v6.02c-1.255.656-2.871.987-4.474.903-3.705-.296-7.298-2.423-7.298-7.872 0-4.882 2.922-8.004 8.019-8.004 0 0 3.344.02 6.069 1.822M109.286 8.4L109.28 24.262 97.18 8.4 94.8 8.4 94.8 28.8 97.117 28.8 97.117 12.485 109.502 28.8 111.6 28.8 111.6 8.4z" mask="url(#fkkfswmjjh)"/>
                                </g>
                            </g>
                        </g>
                    </g>
                </g>
            </g>
        </g>
    </g>
</svg>
