<svg id="img_WaterPurifier_80" xmlns="http://www.w3.org/2000/svg" width="80" height="80" viewBox="0 0 80 80">
  <rect id="Rectangle" width="80" height="80" fill="none"/>
  <g id="ic" transform="translate(26 2)">
    <g id="body" transform="translate(0 4)">
      <path id="Combined_Shape" data-name="Combined Shape" d="M25,66H3a3,3,0,0,1-3-3V14H1V6H0V3A3,3,0,0,1,3,0h7.89A3.007,3.007,0,0,0,8,3V23a3,3,0,0,0,3,3h6a3,3,0,0,0,3-3V3A3,3,0,0,0,17.11,0L25,0a3,3,0,0,1,3,3V6H27v8h1V63A3,3,0,0,1,25,66Z" transform="translate(0 0)" fill="#eee6da" stroke="#000" stroke-linecap="round" stroke-linejoin="round" stroke-miterlimit="10" stroke-width="3"/>
      <g id="Group_21" data-name="Group 21" transform="translate(2 5)">
        <g id="Group_20" data-name="Group 20">
          <path id="Line" d="M0,1H6" fill="none" stroke="#000" stroke-linecap="round" stroke-linejoin="round" stroke-miterlimit="10" stroke-width="3"/>
          <path id="Line-2" data-name="Line" d="M0,1H6" transform="translate(18)" fill="none" stroke="#000" stroke-linecap="round" stroke-linejoin="round" stroke-miterlimit="10" stroke-width="3"/>
          <path id="Line-3" data-name="Line" d="M0,1H6" transform="translate(0 8)" fill="none" stroke="#000" stroke-linecap="round" stroke-linejoin="round" stroke-miterlimit="10" stroke-width="3"/>
          <path id="Line-4" data-name="Line" d="M0,1H6" transform="translate(18 8)" fill="none" stroke="#000" stroke-linecap="round" stroke-linejoin="round" stroke-miterlimit="10" stroke-width="3"/>
        </g>
      </g>
    </g>
    <rect id="Rectangle-2" data-name="Rectangle" width="12" height="28" rx="3" transform="translate(8 2)" fill="#fdf5e8" stroke="#000" stroke-miterlimit="10" stroke-width="3"/>
    <rect id="Rectangle-3" data-name="Rectangle" width="12" height="4" rx="2" transform="translate(8)"/>
    <path id="Line-5" data-name="Line" d="M1,0V6" transform="translate(13 30)" fill="none" stroke="#000" stroke-linecap="round" stroke-linejoin="round" stroke-miterlimit="10" stroke-width="3"/>
  </g>
</svg>
