<svg xmlns="http://www.w3.org/2000/svg" width="64" height="64" viewBox="0 0 64 64">
    <g fill="none" fill-rule="evenodd">
        <g stroke="#000" stroke-width="1.5">
            <g>
                <g>
                    <g>
                        <g transform="translate(-986 -818) translate(128 414) translate(0 404) translate(858)">
                            <rect width="62.5" height="62.5" x=".75" y=".75" rx="31.25"/>
                        </g>
                        <g>
                            <g transform="translate(-986 -818) translate(128 414) translate(0 404) translate(858) translate(12 12) translate(11.5 4)">
                                <path stroke-linecap="round" stroke-linejoin="round" d="M17.5 3v27m-17 0V3M.5 30c0 1.657 3.806 3 8.5 3s8.5-1.343 8.5-3"/>
                                <ellipse cx="9" cy="3" rx="8.5" ry="3"/>
                                <path d="M.5 9c1.932 1.212 5.069 2 8.61 2 3.41 0 6.445-.73 8.39-1.867"/>
                            </g>
                        </g>
                    </g>
                </g>
            </g>
        </g>
    </g>
</svg>
