<svg xmlns="http://www.w3.org/2000/svg" width="64" height="64" viewBox="0 0 64 64">
    <g fill="none" fill-rule="evenodd">
        <g>
            <g>
                <g>
                    <g>
                        <g stroke="#000" stroke-width="1.5" transform="translate(-405 -2749) translate(128 414) translate(0 2335) translate(277)">
                            <rect width="62.5" height="62.5" x=".75" y=".75" rx="31.25"/>
                        </g>
                        <g>
                            <g>
                                <path stroke="#000" stroke-linecap="round" stroke-linejoin="round" stroke-width="1.5" d="M0 17h18v14c0 1.657-1.343 3-3 3H3c-1.657 0-3-1.343-3-3V17h0zM0 17h18V3c0-1.657-1.343-3-3-3H3C1.343 0 0 1.343 0 3v14h0z" transform="translate(-405 -2749) translate(128 414) translate(0 2335) translate(277) translate(12 12) translate(11 3)"/>
                                <path stroke="#000" stroke-linecap="round" stroke-linejoin="round" stroke-width="1.5" d="M4 6H14V14H4z" transform="translate(-405 -2749) translate(128 414) translate(0 2335) translate(277) translate(12 12) translate(11 3)"/>
                                <path fill="#000" fill-rule="nonzero" d="M9 2c-.552 0-1 .448-1 1s.448 1 1 1 1-.448 1-1-.448-1-1-1z" transform="translate(-405 -2749) translate(128 414) translate(0 2335) translate(277) translate(12 12) translate(11 3)"/>
                                <g fill="#000">
                                    <g>
                                        <g>
                                            <path d="M5.091 0H3.909C3.683 0 3.5.183 3.5.405v1.19c0 .225.183.405.409.405h1.182c.226 0 .409-.183.409-.405V.405C5.5.183 5.317 0 5.091 0zM8.587 0H7.413C7.185 0 7 .184 7 .407v1.186c0 .226.185.407.413.407h1.174C8.815 2 9 1.816 9 1.593V.407C8.997.18 8.815 0 8.587 0zM1.59 0H.413C.185 0 0 .184 0 .407v1.186C0 1.82.185 2 .413 2H1.59c.228 0 .41-.184.41-.407V.407C2.003.18 1.818 0 1.59 0z" transform="translate(-405 -2749) translate(128 414) translate(0 2335) translate(277) translate(12 12) translate(11 3) translate(4 19.5) translate(.5 3.5)"/>
                                        </g>
                                        <g>
                                            <path d="M5.091 0H3.909C3.683 0 3.5.183 3.5.405v1.19c0 .225.183.405.409.405h1.182c.226 0 .409-.183.409-.405V.405C5.5.183 5.317 0 5.091 0zM8.587 0H7.413C7.185 0 7 .184 7 .407v1.186c0 .226.185.407.413.407h1.174C8.815 2 9 1.816 9 1.593V.407C8.997.18 8.815 0 8.587 0zM1.59 0H.413C.185 0 0 .184 0 .407v1.186C0 1.82.185 2 .413 2H1.59c.228 0 .41-.184.41-.407V.407C2.003.18 1.818 0 1.59 0z" transform="translate(-405 -2749) translate(128 414) translate(0 2335) translate(277) translate(12 12) translate(11 3) translate(4 19.5) translate(.5 .5)"/>
                                        </g>
                                        <g>
                                            <path d="M5.091 0H3.909C3.683 0 3.5.183 3.5.405v1.19c0 .225.183.405.409.405h1.182c.226 0 .409-.183.409-.405V.405C5.5.183 5.317 0 5.091 0zM8.587 0H7.413C7.185 0 7 .184 7 .407v1.186c0 .226.185.407.413.407h1.174C8.815 2 9 1.816 9 1.593V.407C8.997.18 8.815 0 8.587 0zM1.59 0H.413C.185 0 0 .184 0 .407v1.186C0 1.82.185 2 .413 2H1.59c.228 0 .41-.184.41-.407V.407C2.003.18 1.818 0 1.59 0z" transform="translate(-405 -2749) translate(128 414) translate(0 2335) translate(277) translate(12 12) translate(11 3) translate(4 19.5) translate(.5 6.5)"/>
                                        </g>
                                    </g>
                                    <g>
                                        <g>
                                            <path d="M5.091 0H3.909C3.683 0 3.5.183 3.5.405v1.19c0 .225.183.405.409.405h1.182c.226 0 .409-.183.409-.405V.405C5.5.183 5.317 0 5.091 0zM8.587 0H7.413C7.185 0 7 .184 7 .407v1.186c0 .226.185.407.413.407h1.174C8.815 2 9 1.816 9 1.593V.407C8.997.18 8.815 0 8.587 0zM1.59 0H.413C.185 0 0 .184 0 .407v1.186C0 1.82.185 2 .413 2H1.59c.228 0 .41-.184.41-.407V.407C2.003.18 1.818 0 1.59 0z" transform="translate(-405 -2749) translate(128 414) translate(0 2335) translate(277) translate(12 12) translate(11 3) translate(4 19.5) translate(0 9.5) translate(.5)"/>
                                        </g>
                                    </g>
                                </g>
                            </g>
                        </g>
                    </g>
                </g>
            </g>
        </g>
    </g>
</svg>
