<?xml version="1.0" encoding="UTF-8"?>
<svg width="32px" height="32px" viewBox="0 0 32 32" version="1.1" xmlns="http://www.w3.org/2000/svg" xmlns:xlink="http://www.w3.org/1999/xlink">
    <title>icon-url</title>
    <g id="Page-1" stroke="none" stroke-width="1" fill="none" fill-rule="evenodd">
        <g id="KRP0019_Social_Share_PC" transform="translate(-1403.000000, -228.000000)">
            <g id="Share_Hover" transform="translate(0.000000, 140.000000)">
                <g id="share" transform="translate(1163.000000, 24.000000)">
                    <g id="share_box" transform="translate(0.000000, 40.000000)">
                        <g id="URL" transform="translate(229.000000, 24.000000)">
                            <g id="btn_sns_linkcopy_32" transform="translate(11.000000, 0.000000)">
                                <rect id="Rectangle" x="0" y="0" width="32" height="32"></rect>
                                <g id="ic" stroke-width="1" fill-rule="evenodd">
                                    <circle id="Oval" fill="#F4F4F4" cx="16" cy="16" r="16"></circle>
                                    <path d="M8.60499186,21 C10.9685296,21 12.1622355,19.6583113 12.1622355,16.6781003 L12.1622355,12 L10.1090613,12 L10.1090613,16.9036939 C10.1090613,18.5778364 9.57189365,19.171504 8.60499186,19.171504 C7.62615301,19.171504 7.12479653,18.5778364 7.12479653,16.9036939 L7.12479653,12 L5,12 L5,16.6781003 C5,19.6583113 6.22951709,21 8.60499186,21 Z M15.695605,20.8337731 L15.695605,17.7229551 L16.7221921,17.7229551 L18.3575692,20.8337731 L20.744981,20.8337731 L18.7634292,17.3311346 C19.6825827,16.9036939 20.2913728,16.0725594 20.2913728,14.7783641 C20.2913728,12.6411609 18.715681,12 16.8176886,12 L13.5588714,12 L13.5588714,20.8337731 L15.695605,20.8337731 Z M16.6505697,16.0488127 L15.695605,16.0488127 L15.695605,13.6741425 L16.6505697,13.6741425 C17.6652198,13.6741425 18.2023874,13.9472296 18.2023874,14.7783641 C18.2023874,15.6094987 17.6652198,16.0488127 16.6505697,16.0488127 Z M27,20.8337731 L27,19.0527704 L23.5501899,19.0527704 L23.5501899,12 L21.4134563,12 L21.4134563,20.8337731 L27,20.8337731 Z" id="URL" fill="#616161" fill-rule="nonzero"></path>
                                </g>
                            </g>
                        </g>
                    </g>
                </g>
            </g>
        </g>
    </g>
</svg>