<?xml version="1.0" encoding="utf-8"?>
<!-- Generator: Adobe Illustrator 25.4.2, SVG Export Plug-In . SVG Version: 6.00 Build 0)  -->
<svg version="1.1" id="ic_x5F_device_x5F_list_x5F_refrigerator"
	 xmlns="http://www.w3.org/2000/svg" xmlns:xlink="http://www.w3.org/1999/xlink" x="0px" y="0px" viewBox="0 0 240 240"
	 style="enable-background:new 0 0 240 240;" xml:space="preserve">
<style type="text/css">
	.st0{fill:#FFFFFF;}
	.st1{fill:url(#SVGID_1_);}
	.st2{fill-rule:evenodd;clip-rule:evenodd;fill:#444444;}
	.st3{fill:url(#SVGID_00000031900296591782347440000011902652981983373237_);}
	.st4{fill:url(#SVGID_00000058580438593754962740000000384180242338334907_);}
	.st5{fill:url(#SVGID_00000034768458432448194760000012830533562983135641_);}
	.st6{fill:url(#SVGID_00000147933887554656378480000013576938456411888533_);}
	.st7{opacity:0.35;fill:url(#SVGID_00000091727020712662526180000007292620768167514298_);enable-background:new    ;}
	.st8{opacity:0.35;fill:url(#SVGID_00000080176724566289950340000002466448220172543666_);enable-background:new    ;}
	.st9{opacity:0.35;fill:url(#SVGID_00000054963427950557073890000017592348935930970006_);enable-background:new    ;}
	.st10{fill:url(#SVGID_00000106838698934185586930000000699865398264449159_);}
	.st11{opacity:0.6;fill:url(#SVGID_00000088113217755515009370000007629090026415671228_);enable-background:new    ;}
	.st12{opacity:0.4;fill:url(#SVGID_00000028318735355912428800000006202860517876094609_);enable-background:new    ;}
	.st13{opacity:0.3;fill:url(#SVGID_00000012432743208581629030000002778977155748250264_);enable-background:new    ;}
	.st14{opacity:0.15;fill:url(#SVGID_00000117675431517795178920000018044857415174806438_);enable-background:new    ;}
	.st15{fill:#444444;}
</style>
<path class="st0" d="M208,240.5H32c-17.6,0-32-14.4-32-32v-176c0-17.6,14.4-32,32-32h176c17.6,0,32,14.4,32,32v176
	C240,226.1,225.6,240.5,208,240.5z"/>
<g id="_x5F_default_29_">
	
		<radialGradient id="SVGID_1_" cx="120" cy="122" r="104" gradientTransform="matrix(1 0 0 -1 0 242)" gradientUnits="userSpaceOnUse">
		<stop  offset="0.342" style="stop-color:#448CF6"/>
		<stop  offset="0.6176" style="stop-color:#53AEF7;stop-opacity:0.5812"/>
		<stop  offset="0.849" style="stop-color:#5CC3F7;stop-opacity:0.2295"/>
		<stop  offset="1" style="stop-color:#5FCBF7;stop-opacity:0"/>
	</radialGradient>
	<path class="st1" d="M120,224c-57.4,0-104-46.6-104-104S62.6,16,120,16s104,46.6,104,104S177.4,224,120,224"/>
	<path id="Rectangle_817_copy_5_" class="st2" d="M69,129h102l2,3H67L69,129z"/>
	
		<linearGradient id="SVGID_00000068660734416320828940000006448512353854762381_" gradientUnits="userSpaceOnUse" x1="120" y1="106" x2="120" y2="110" gradientTransform="matrix(1 0 0 -1 0 242)">
		<stop  offset="0" style="stop-color:#595C5F"/>
		<stop  offset="1" style="stop-color:#7A7D80"/>
	</linearGradient>
	<rect x="67" y="132" style="fill:url(#SVGID_00000068660734416320828940000006448512353854762381_);" width="106" height="4"/>
	
		<linearGradient id="SVGID_00000127029139161789040660000015926579537582310553_" gradientUnits="userSpaceOnUse" x1="147" y1="37.1081" x2="147" y2="217" gradientTransform="matrix(1 0 0 -1 0 242)">
		<stop  offset="0" style="stop-color:#4D4D4D"/>
		<stop  offset="0.6" style="stop-color:#2F2F2F"/>
		<stop  offset="1" style="stop-color:#4C4C4C"/>
	</linearGradient>
	<path style="fill:url(#SVGID_00000127029139161789040660000015926579537582310553_);" d="M173,129V27c0-1.1-0.9-2-2-2h-50v104H173z
		"/>
	
		<linearGradient id="SVGID_00000033358076613734229430000003427739299113884076_" gradientUnits="userSpaceOnUse" x1="93" y1="37.1081" x2="93" y2="217" gradientTransform="matrix(1 0 0 -1 0 242)">
		<stop  offset="0" style="stop-color:#CCCCCC"/>
		<stop  offset="0.6" style="stop-color:#EEEEEE"/>
		<stop  offset="1" style="stop-color:#DDDDDD"/>
	</linearGradient>
	<path style="fill:url(#SVGID_00000033358076613734229430000003427739299113884076_);" d="M119,25H69c-1.1,0-2,0.9-2,2v102h52V25z"
		/>
	
		<linearGradient id="SVGID_00000168106298461626117540000003478580905941885592_" gradientUnits="userSpaceOnUse" x1="120" y1="26" x2="120" y2="220.4304" gradientTransform="matrix(1 0 0 -1 0 242)">
		<stop  offset="0" style="stop-color:#CCCCCC"/>
		<stop  offset="0.6" style="stop-color:#EEEEEE"/>
		<stop  offset="1" style="stop-color:#DDDDDD"/>
	</linearGradient>
	<path style="fill:url(#SVGID_00000168106298461626117540000003478580905941885592_);" d="M67,136v78c0,1.1,0.9,2,2,2h102
		c1.1,0,2-0.9,2-2v-78H67z"/>
	
		<linearGradient id="SVGID_00000094601149284942934380000012298631544931064216_" gradientUnits="userSpaceOnUse" x1="185.1365" y1="66" x2="146.6896" y2="66" gradientTransform="matrix(1 0 0 -1 0 242)">
		<stop  offset="0" style="stop-color:#828282"/>
		<stop  offset="1" style="stop-color:#828282;stop-opacity:0"/>
	</linearGradient>
	<path style="opacity:0.35;fill:url(#SVGID_00000094601149284942934380000012298631544931064216_);enable-background:new    ;" d="
		M132.8,216H171c1.1,0,2-0.9,2-2v-78h-40.2V216z"/>
	
		<linearGradient id="SVGID_00000131326769154205468160000003803744151454485691_" gradientUnits="userSpaceOnUse" x1="-1430.8726" y1="165" x2="-1469.3195" y2="165" gradientTransform="matrix(-1 0 0 -1 -1376.009 242)">
		<stop  offset="0" style="stop-color:#828282"/>
		<stop  offset="1" style="stop-color:#828282;stop-opacity:0"/>
	</linearGradient>
	<path style="opacity:0.35;fill:url(#SVGID_00000131326769154205468160000003803744151454485691_);enable-background:new    ;" d="
		M67,129V27c0-1.1,0.9-2,2-2h38.2v104H67z"/>
	
		<linearGradient id="SVGID_00000097463310012335212370000017839205421786653849_" gradientUnits="userSpaceOnUse" x1="-1430.8726" y1="66" x2="-1469.3195" y2="66" gradientTransform="matrix(-1 0 0 -1 -1376.009 242)">
		<stop  offset="0" style="stop-color:#828282"/>
		<stop  offset="1" style="stop-color:#828282;stop-opacity:0"/>
	</linearGradient>
	<path style="opacity:0.35;fill:url(#SVGID_00000097463310012335212370000017839205421786653849_);enable-background:new    ;" d="
		M107.2,216H69c-1.1,0-2-0.9-2-2v-78h40.2V216z"/>
	
		<linearGradient id="SVGID_00000173839183874688578380000017422742375281785262_" gradientUnits="userSpaceOnUse" x1="146.5" y1="127" x2="146.5" y2="202" gradientTransform="matrix(1 0 0 -1 0 242)">
		<stop  offset="0" style="stop-color:#5FCBF7"/>
		<stop  offset="1" style="stop-color:#448CF6"/>
	</linearGradient>
	<rect x="130" y="40" style="fill:url(#SVGID_00000173839183874688578380000017422742375281785262_);" width="33" height="75"/>
	<g>
		<g>
			
				<linearGradient id="SVGID_00000049912135063995690860000016330983871224072086_" gradientUnits="userSpaceOnUse" x1="146.5" y1="171.0357" x2="146.5" y2="202" gradientTransform="matrix(1 0 0 -1 0 242)">
				<stop  offset="0" style="stop-color:#FFFFFF"/>
				<stop  offset="1" style="stop-color:#FFFFFF;stop-opacity:0.3"/>
			</linearGradient>
			<path style="opacity:0.6;fill:url(#SVGID_00000049912135063995690860000016330983871224072086_);enable-background:new    ;" d="
				M163,67.4V40h-33v31c6-1.6,12.4-2.8,19.1-3.7C153.7,66.7,158.4,66.8,163,67.4z"/>
			
				<linearGradient id="SVGID_00000088813487727167548800000014647534944049637561_" gradientUnits="userSpaceOnUse" x1="146.5" y1="147.2" x2="146.5" y2="175.1031" gradientTransform="matrix(1 0 0 -1 0 242)">
				<stop  offset="0" style="stop-color:#FFFFFF"/>
				<stop  offset="1" style="stop-color:#FFFFFF;stop-opacity:0.3"/>
			</linearGradient>
			<path style="opacity:0.4;fill:url(#SVGID_00000088813487727167548800000014647534944049637561_);enable-background:new    ;" d="
				M161,94.6c0.7,0,1.3,0.1,2,0.2V67.4c-4.6-0.6-9.3-0.7-13.9-0.1c-6.7,0.8-13.1,2.1-19.1,3.7v15.7C138.6,88.1,142.1,93.9,161,94.6z
				"/>
			
				<linearGradient id="SVGID_00000178887288061463910560000007316458616393031819_" gradientUnits="userSpaceOnUse" x1="146.5" y1="135.9007" x2="146.5" y2="155.2737" gradientTransform="matrix(1 0 0 -1 0 242)">
				<stop  offset="0" style="stop-color:#FFFFFF"/>
				<stop  offset="1" style="stop-color:#FFFFFF;stop-opacity:0.3"/>
			</linearGradient>
			<path style="opacity:0.3;fill:url(#SVGID_00000178887288061463910560000007316458616393031819_);enable-background:new    ;" d="
				M163,101.6v-6.8c-0.6-0.1-1.3-0.2-2-0.2c-18.9-0.7-22.4-6.5-31-7.9v18c1.2,0,2.5,0.3,3.9,0.7C142,107.9,152.1,103,163,101.6z"/>
			
				<linearGradient id="SVGID_00000097467337051474975490000015193490483481843329_" gradientUnits="userSpaceOnUse" x1="146.5" y1="127" x2="146.5" y2="140.3506" gradientTransform="matrix(1 0 0 -1 0 242)">
				<stop  offset="0" style="stop-color:#FFFFFF"/>
				<stop  offset="1" style="stop-color:#FFFFFF;stop-opacity:0.3"/>
			</linearGradient>
			
				<path style="opacity:0.15;fill:url(#SVGID_00000097467337051474975490000015193490483481843329_);enable-background:new    ;" d="
				M130,115h33v-13.4c-10.9,1.4-21,6.2-29.1,3.8c-1.4-0.4-2.6-0.6-3.9-0.7V115z"/>
		</g>
	</g>
	<rect x="119" y="132" class="st15" width="2" height="84"/>
	<rect x="119" y="27" class="st15" width="2" height="102"/>
</g>
</svg>
