<?xml version="1.0" encoding="utf-8"?>
<!-- Generator: Adobe Illustrator 25.4.2, SVG Export Plug-In . SVG Version: 6.00 Build 0)  -->
<svg version="1.1" id="ic_x5F_device_x5F_list_x5F_dryer"
	 xmlns="http://www.w3.org/2000/svg" xmlns:xlink="http://www.w3.org/1999/xlink" x="0px" y="0px" viewBox="0 0 240 240"
	 style="enable-background:new 0 0 240 240;" xml:space="preserve">
<style type="text/css">
	.st0{fill:#FFFFFF;}
	.st1{fill:url(#SVGID_1_);}
	.st2{fill:#464646;}
	.st3{fill:url(#Ellipse_886_copy_00000111184405996572006920000016721670032847831692_);}
	.st4{fill:url(#SVGID_00000016766911107171185040000011916201210641817234_);}
	.st5{fill:url(#SVGID_00000162343100753095867310000010911151183784170631_);}
	.st6{fill:url(#SVGID_00000003814886718364216840000010931434267381400237_);}
	.st7{fill:url(#SVGID_00000013158057015418068540000018307674422874878634_);}
	.st8{opacity:0.15;fill:none;stroke:#000000;stroke-width:2;enable-background:new    ;}
	.st9{fill:url(#SVGID_00000049907437297973139830000002514891241964390074_);}
	.st10{fill:url(#SVGID_00000094613129576939084660000010772512654418493063_);}
	.st11{fill:url(#SVGID_00000028315297407112417010000010796400006266388364_);}
	.st12{fill:#747474;}
	.st13{fill:#E1E4E5;}
	.st14{fill:#3D3D3D;}
	.st15{opacity:0.2;enable-background:new    ;}
	.st16{opacity:0.2;fill:url(#SVGID_00000049220311442851637420000015492106601198481539_);enable-background:new    ;}
	.st17{opacity:0.2;fill:url(#SVGID_00000103966914049506005180000007412706127642139034_);enable-background:new    ;}
	.st18{opacity:0.25;}
	.st19{fill:url(#SVGID_00000092424765010173927230000002103317801428292227_);}
</style>
<path class="st0" d="M208,240H32c-17.6,0-32-14.4-32-32V32C0,14.4,14.4,0,32,0h176c17.6,0,32,14.4,32,32v176
	C240,225.6,225.6,240,208,240z"/>
<g id="_x5F_default_27_">
	
		<linearGradient id="SVGID_1_" gradientUnits="userSpaceOnUse" x1="120" y1="36" x2="120" y2="208" gradientTransform="matrix(1 0 0 -1 0 242)">
		<stop  offset="0" style="stop-color:#E6E6E6"/>
		<stop  offset="0.6" style="stop-color:#F1F1F1"/>
		<stop  offset="1" style="stop-color:#EAEAEA"/>
	</linearGradient>
	<path class="st1" d="M180,206H60c-1.1,0-2-0.9-2-2V36c0-1.1,0.9-2,2-2h120c1.1,0,2,0.9,2,2v168C182,205.1,181.1,206,180,206z"/>
	<g>
		<circle class="st2" cx="120" cy="118.4" r="54"/>
		
			<radialGradient id="Ellipse_886_copy_00000069362382777906362870000011146814112402238135_" cx="126.2323" cy="122.3334" r="41.4649" gradientTransform="matrix(0.9912 0 0 -0.9912 -5.1214 239.6569)" gradientUnits="userSpaceOnUse">
			<stop  offset="0" style="stop-color:#4E4E4E"/>
			<stop  offset="0.5" style="stop-color:#565656"/>
			<stop  offset="1" style="stop-color:#414141"/>
		</radialGradient>
		
			<circle id="Ellipse_886_copy_1_" style="fill:url(#Ellipse_886_copy_00000069362382777906362870000011146814112402238135_);" cx="120" cy="118.4" r="41.1"/>
		<g>
			
				<radialGradient id="SVGID_00000059280685403802018810000000473665712198436507_" cx="126.2323" cy="181.5878" r="41.4499" gradientTransform="matrix(0.9912 0 0 -0.9912 -5.1214 239.6569)" gradientUnits="userSpaceOnUse">
				<stop  offset="0" style="stop-color:#4E4E4E"/>
				<stop  offset="0.5" style="stop-color:#565656"/>
				<stop  offset="1" style="stop-color:#414141"/>
			</radialGradient>
			<ellipse style="fill:url(#SVGID_00000059280685403802018810000000473665712198436507_);" cx="120" cy="89" rx="28.7" ry="11.7"/>
		</g>
		<g>
			
				<radialGradient id="SVGID_00000175315388858831095510000001343770940340801174_" cx="-1029.8751" cy="-269.281" r="41.4" gradientTransform="matrix(-0.4956 -0.8584 -0.8584 0.4956 -672.4188 -602.9175)" gradientUnits="userSpaceOnUse">
				<stop  offset="0" style="stop-color:#4E4E4E"/>
				<stop  offset="0.5" style="stop-color:#565656"/>
				<stop  offset="1" style="stop-color:#414141"/>
			</radialGradient>
			<path style="fill:url(#SVGID_00000175315388858831095510000001343770940340801174_);" d="M80.2,108.1c-2.6,10-1.4,21.1,4.2,30.8
				s14.5,16.2,24.5,19c2.6-10,1.4-21.1-4.2-30.8C99.2,117.5,90.2,110.9,80.2,108.1z"/>
		</g>
		<g>
			
				<radialGradient id="SVGID_00000005263150034890005950000012760370451511392690_" cx="-842.3129" cy="957.4134" r="41.4535" gradientTransform="matrix(-0.4956 0.8584 0.8584 0.4956 -1068.4598 396.2606)" gradientUnits="userSpaceOnUse">
				<stop  offset="0" style="stop-color:#4E4E4E"/>
				<stop  offset="0.5" style="stop-color:#565656"/>
				<stop  offset="1" style="stop-color:#414141"/>
			</radialGradient>
			<path style="fill:url(#SVGID_00000005263150034890005950000012760370451511392690_);" d="M131,157.9c10-2.8,18.9-9.3,24.5-19
				s6.8-20.7,4.2-30.8c-10,2.8-18.9,9.3-24.5,19C129.7,136.9,128.5,147.9,131,157.9z"/>
		</g>
		
			<radialGradient id="SVGID_00000004533241656404936940000008829623522319457211_" cx="96.445" cy="126.2186" r="13.5918" gradientTransform="matrix(1.0357 0 0 -1.0357 20.758 250.6246)" gradientUnits="userSpaceOnUse">
			<stop  offset="0" style="stop-color:#535353"/>
			<stop  offset="0.5" style="stop-color:#575757"/>
			<stop  offset="1" style="stop-color:#4A4A4A"/>
		</radialGradient>
		<circle style="fill:url(#SVGID_00000004533241656404936940000008829623522319457211_);" cx="120.6" cy="119.9" r="14.1"/>
		<path class="st8" d="M58,66.3c0,0,11.9-0.5,23.1-2c11-1.4,25.5-4.8,39.9-4.8c13.9,0,27.8,3.3,38.4,4.8c10.9,1.5,22.5,2,22.5,2"/>
		<g>
			
				<linearGradient id="SVGID_00000084506049658838524770000002042750262669949340_" gradientUnits="userSpaceOnUse" x1="169.3868" y1="115.2606" x2="229.8751" y2="115.2606" gradientTransform="matrix(0.901 0 0 -0.901 -57.6175 212.8998)">
				<stop  offset="0" style="stop-color:#5FCBF7"/>
				<stop  offset="1" style="stop-color:#448CF6"/>
			</linearGradient>
			<path style="fill:url(#SVGID_00000084506049658838524770000002042750262669949340_);" d="M149.5,112c0-16.7-13.5-30.2-30.2-30.2
				c-9.9,0-18.8,4.8-24.3,12.2c5-3.7,11.2-5.9,18-5.9c16.7,0,30.2,13.5,30.2,30.2c0,6.7-2.2,13-5.9,18
				C144.7,130.8,149.5,122,149.5,112z"/>
			
				<linearGradient id="SVGID_00000068671576082649642090000016885597218824196279_" gradientUnits="userSpaceOnUse" x1="-1163.6078" y1="-272.911" x2="-1103.1663" y2="-272.911" gradientTransform="matrix(-0.4505 -0.7803 -0.7803 0.4505 -613.4157 -640.0414)">
				<stop  offset="0" style="stop-color:#5FCBF7"/>
				<stop  offset="1" style="stop-color:#448CF6"/>
			</linearGradient>
			<path style="fill:url(#SVGID_00000068671576082649642090000016885597218824196279_);" d="M99.1,96.3
				c-14.4,8.3-19.4,26.8-11.1,41.2c5,8.6,13.5,13.8,22.7,14.9c-5.7-2.5-10.8-6.8-14.1-12.6c-8.3-14.4-3.4-32.9,11.1-41.2
				c5.8-3.4,12.3-4.6,18.5-3.8C117.8,91.1,107.7,91.3,99.1,96.3z"/>
			
				<linearGradient id="SVGID_00000107576781110452143190000001410312443463748542_" gradientUnits="userSpaceOnUse" x1="-833.3557" y1="1075.5121" x2="-772.9429" y2="1075.5121" gradientTransform="matrix(-0.4505 0.7803 0.7803 0.4505 -1074.1884 267.7788)">
				<stop  offset="0" style="stop-color:#5FCBF7"/>
				<stop  offset="1" style="stop-color:#448CF6"/>
			</linearGradient>
			<path style="fill:url(#SVGID_00000107576781110452143190000001410312443463748542_);" d="M110.7,147.7
				c14.4,8.3,32.9,3.4,41.2-11.1c5-8.6,5.2-18.7,1.5-27.1c0.7,6.2-0.5,12.7-3.8,18.5c-8.3,14.4-26.8,19.4-41.2,11.1
				c-5.8-3.4-10.1-8.4-12.6-14.1C96.8,134.2,102.1,142.8,110.7,147.7z"/>
		</g>
	</g>
	<g>
		<circle class="st12" cx="120" cy="47" r="9"/>
		<circle id="Ellipse_887_copy_41_" class="st13" cx="120" cy="47" r="7"/>
		<g>
			<rect x="147" y="40" class="st14" width="30" height="15"/>
		</g>
	</g>
	<path class="st15" d="M89.2,58H65.6c-1.2,0-2.2-1-2.2-2.2v-4.5h28v4.5C91.4,57,90.4,58,89.2,58z"/>
	
		<linearGradient id="SVGID_00000134966739435102232490000002697266280737111725_" gradientUnits="userSpaceOnUse" x1="185.0722" y1="122" x2="128.6585" y2="122" gradientTransform="matrix(1 0 0 -1 0 242)">
		<stop  offset="0" style="stop-color:#828282"/>
		<stop  offset="1" style="stop-color:#828282;stop-opacity:0"/>
	</linearGradient>
	<path style="opacity:0.2;fill:url(#SVGID_00000134966739435102232490000002697266280737111725_);enable-background:new    ;" d="
		M180,34h-54.2v172H180c1.1,0,2-0.9,2-2V36C182,34.9,181.1,34,180,34z"/>
	
		<linearGradient id="SVGID_00000114754966898690197320000013506477882877347716_" gradientUnits="userSpaceOnUse" x1="-1409.0645" y1="122" x2="-1463.3093" y2="122" gradientTransform="matrix(-1 0 0 -1 -1352.1111 242)">
		<stop  offset="0" style="stop-color:#828282"/>
		<stop  offset="1" style="stop-color:#828282;stop-opacity:0"/>
	</linearGradient>
	<path style="opacity:0.2;fill:url(#SVGID_00000114754966898690197320000013506477882877347716_);enable-background:new    ;" d="
		M60,34h54.2v172H60c-1.1,0-2-0.9-2-2V36C58,34.9,58.9,34,60,34z"/>
	<g class="st18">
		
			<radialGradient id="SVGID_00000088104360169478655730000005105079574993133459_" cx="84.2726" cy="162.2487" r="52.3446" gradientTransform="matrix(1 0 0 -1 0 242)" gradientUnits="userSpaceOnUse">
			<stop  offset="0" style="stop-color:#FFFFFF"/>
			<stop  offset="1" style="stop-color:#FFFFFF;stop-opacity:0"/>
		</radialGradient>
		<circle style="fill:url(#SVGID_00000088104360169478655730000005105079574993133459_);" cx="120" cy="118.4" r="54"/>
	</g>
</g>
</svg>
