<svg id="devices_ic_robotcleaner_white" data-name="devices/ic_robotcleaner_white" xmlns="http://www.w3.org/2000/svg" width="120" height="120" viewBox="0 0 120 120">
    <defs>
        <linearGradient id="linear-gradient" x1=".5" y1="1" x2=".5" gradientUnits="objectBoundingBox">
            <stop offset="0" stop-color="#77b4aa"/>
            <stop offset="1" stop-color="#379192"/>
        </linearGradient>
        <style>
            .cls-2{fill:#404040}
        </style>
    </defs>
    <rect id="Rectangle_163" data-name="Rectangle 163" width="120" height="120" rx="16" style="fill:#f4f4f4"/>
    <g id="Group_634" data-name="Group 634" transform="translate(10 10)">
        <g id="Group_248" data-name="Group 248" transform="translate(16.325 15.762)">
            <path id="Path_101" data-name="Path 101" class="cls-2" d="M1039.623 556.36a22.07 22.07 0 0 1 22.05 22.05v16.875a22.07 22.07 0 0 1-22.05 22.05h-15.763a22.07 22.07 0 0 1-22.05-22.05V578.41a22.07 22.07 0 0 1 22.05-22.05h15.762m0-3.75h-15.762a25.8 25.8 0 0 0-25.8 25.8v16.875a25.8 25.8 0 0 0 25.8 25.8h15.762a25.8 25.8 0 0 0 25.8-25.8V578.41a25.815 25.815 0 0 0-25.8-25.8z" transform="translate(-998.06 -552.61)"/>
        </g>
        <path id="Line_76" data-name="Line 76" transform="translate(43.612 24.025)" style="fill:none;stroke:#404040;stroke-miterlimit:10;stroke-width:3px" d="M0 0h12.775"/>
        <g id="Group_249" data-name="Group 249" transform="translate(27.85 27.887)">
            <path id="Path_102" data-name="Path 102" d="M1034.955 606.735H1023.9a16.626 16.626 0 0 1-16.625-16.625v-11.175a16.626 16.626 0 0 1 16.625-16.625h11.05a16.626 16.626 0 0 1 16.625 16.625v11.175a16.626 16.626 0 0 1-16.62 16.625z" transform="translate(-1007.28 -562.31)" style="fill:url(#linear-gradient)"/>
        </g>
        <g id="Group_250" data-name="Group 250" transform="translate(40.663 48.225)">
            <circle id="Ellipse_30" data-name="Ellipse 30" class="cls-2" cx="1.875" cy="1.875" r="1.875"/>
            <circle id="Ellipse_31" data-name="Ellipse 31" class="cls-2" cx="1.875" cy="1.875" r="1.875" transform="translate(7.462)"/>
            <circle id="Ellipse_32" data-name="Ellipse 32" class="cls-2" cx="1.875" cy="1.875" r="1.875" transform="translate(14.925)"/>
        </g>
    </g>
</svg>
