<?xml version="1.0" encoding="utf-8"?>
<!-- Generator: Adobe Illustrator 25.4.2, SVG Export Plug-In . SVG Version: 6.00 Build 0)  -->
<svg version="1.1" id="ic_x5F_device_x5F_list_x5F_lightwave_x5F_oven"
	 xmlns="http://www.w3.org/2000/svg" xmlns:xlink="http://www.w3.org/1999/xlink" x="0px" y="0px" viewBox="0 0 240 240"
	 style="enable-background:new 0 0 240 240;" xml:space="preserve">
<style type="text/css">
	.st0{fill:#F4F4F4;}
	.st1{fill:url(#SVGID_1_);}
	.st2{fill:url(#SVGID_00000007413921566352970910000003916175918019980427_);}
	.st3{fill:#747474;}
	.st4{fill:#E6E6E6;}
	.st5{fill:#474747;}
	.st6{fill:#C1C1C1;}
	.st7{fill:url(#SVGID_00000070828596606471175550000014265172975034239617_);}
	.st8{fill:#434343;}
	.st9{fill:none;stroke:#B72F25;stroke-width:4;stroke-linecap:round;stroke-miterlimit:10;}
	.st10{opacity:0.35;fill:url(#SVGID_00000034089445705493079040000016941273863510059140_);enable-background:new    ;}
	.st11{opacity:0.35;fill:url(#SVGID_00000078727547836834810230000016030556925041334961_);enable-background:new    ;}
</style>
<path class="st0" d="M208,240H32c-17.6,0-32-14.4-32-32V32C0,14.4,14.4,0,32,0h176c17.6,0,32,14.4,32,32v176
	C240,225.6,225.6,240,208,240z"/>
<g id="_x5F_default_37_">
	
		<linearGradient id="SVGID_1_" gradientUnits="userSpaceOnUse" x1="-412" y1="947" x2="-522" y2="947" gradientTransform="matrix(0 1 1 0 -827 579)">
		<stop  offset="0" style="stop-color:#D8D8D8"/>
		<stop  offset="0.6" style="stop-color:#EEEEEE"/>
		<stop  offset="1" style="stop-color:#DDDDDD"/>
	</linearGradient>
	<path class="st1" d="M33,165V59c0-1.1,0.9-2,2-2h170c1.1,0,2,0.9,2,2v106c0,1.1-0.9,2-2,2H35C33.9,167,33,166.1,33,165z"/>
	
		<linearGradient id="SVGID_00000094580983563321433120000012242201728160882617_" gradientUnits="userSpaceOnUse" x1="120" y1="97" x2="120" y2="146" gradientTransform="matrix(1 0 0 -1 0 242)">
		<stop  offset="0" style="stop-color:#EB8C3E"/>
		<stop  offset="1" style="stop-color:#E74343"/>
	</linearGradient>
	<path style="fill:url(#SVGID_00000094580983563321433120000012242201728160882617_);" d="M56,143V98c0-1.1,0.9-2,2-2h124
		c1.1,0,2,0.9,2,2v45c0,1.1-0.9,2-2,2H58C56.9,145,56,144.1,56,143z"/>
	<g>
		<circle class="st3" cx="158.5" cy="69.5" r="7.5"/>
		<circle id="Ellipse_887_copy_64_" class="st4" cx="158.5" cy="69.5" r="5.6"/>
	</g>
	<g>
		<rect x="95" y="62" class="st5" width="51" height="15"/>
	</g>
	<path class="st6" d="M199,82H41c-2.2,0-4,1.8-4,4v4h18l3-4h124l3,4h18v-4C203,83.8,201.2,82,199,82z"/>
	
		<linearGradient id="SVGID_00000083802129285505360890000003866235836363864207_" gradientUnits="userSpaceOnUse" x1="120" y1="60" x2="120" y2="68" gradientTransform="matrix(1 0 0 -1 0 242)">
		<stop  offset="0" style="stop-color:#575757"/>
		<stop  offset="1" style="stop-color:#747474"/>
	</linearGradient>
	<rect x="33" y="174" style="fill:url(#SVGID_00000083802129285505360890000003866235836363864207_);" width="174" height="8"/>
	<rect x="35" y="167" class="st8" width="170" height="7"/>
	<g>
		<g>
			<g>
				<g>
					<path class="st9" d="M94.6,108c0,0-3.8,2.9-3.8,7c0,4.5,4.3,4.4,4.3,9.8c0,4.6-2.2,6.7-4.4,8.3"/>
				</g>
			</g>
		</g>
		<g>
			<g>
				<g>
					<path class="st9" d="M112.6,108c0,0-3.8,2.9-3.8,7c0,4.5,4.3,4.4,4.3,9.8c0,4.6-2.2,6.7-4.4,8.3"/>
				</g>
			</g>
		</g>
		<g>
			<g>
				<g>
					<path class="st9" d="M130.7,108c0,0-3.8,2.9-3.8,7c0,4.5,4.3,4.4,4.3,9.8c0,4.6-2.2,6.7-4.4,8.3"/>
				</g>
			</g>
		</g>
		<g>
			<g>
				<g>
					<path class="st9" d="M148.7,108c0,0-3.8,2.9-3.8,7c0,4.5,4.3,4.4,4.3,9.8c0,4.6-2.2,6.7-4.4,8.3"/>
				</g>
			</g>
		</g>
	</g>
	
		<linearGradient id="SVGID_00000181087304579249562170000010300393752587559608_" gradientUnits="userSpaceOnUse" x1="242.887" y1="130" x2="159.0123" y2="130" gradientTransform="matrix(1 0 0 -1 0 242)">
		<stop  offset="0" style="stop-color:#828282"/>
		<stop  offset="1" style="stop-color:#828282;stop-opacity:0"/>
	</linearGradient>
	<path style="opacity:0.35;fill:url(#SVGID_00000181087304579249562170000010300393752587559608_);enable-background:new    ;" d="
		M205,57h-46.3v110H205c1.1,0,2-0.9,2-2V59C207,57.9,206.1,57,205,57z"/>
	
		<linearGradient id="SVGID_00000071561209792676556220000015219090586475421084_" gradientUnits="userSpaceOnUse" x1="-1374.4873" y1="130" x2="-1458.3621" y2="130" gradientTransform="matrix(-1 0 0 -1 -1377.3744 242)">
		<stop  offset="0" style="stop-color:#828282"/>
		<stop  offset="1" style="stop-color:#828282;stop-opacity:0"/>
	</linearGradient>
	<path style="opacity:0.35;fill:url(#SVGID_00000071561209792676556220000015219090586475421084_);enable-background:new    ;" d="
		M35,57h46.3v110H35c-1.1,0-2-0.9-2-2V59C33,57.9,33.9,57,35,57z"/>
</g>
</svg>
