<?xml version="1.0" encoding="utf-8"?>
<!-- Generator: Adobe Illustrator 25.4.2, SVG Export Plug-In . SVG Version: 6.00 Build 0)  -->
<svg version="1.1" id="ic_x5F_device_x5F_list_x5F_refrigerator"
	 xmlns="http://www.w3.org/2000/svg" xmlns:xlink="http://www.w3.org/1999/xlink" x="0px" y="0px" viewBox="0 0 240 240"
	 style="enable-background:new 0 0 240 240;" xml:space="preserve">
<style type="text/css">
	.st0{fill:#F4F4F4;}
	.st1{fill:url(#SVGID_1_);}
	.st2{fill-rule:evenodd;clip-rule:evenodd;fill:#444444;}
	.st3{fill:url(#SVGID_00000050657814725371484370000009770552045020411054_);}
	.st4{fill:url(#SVGID_00000090977393304233398320000002058368620648807047_);}
	.st5{fill:url(#SVGID_00000168813606077176663320000009143717388942261411_);}
	.st6{fill:url(#SVGID_00000127764376237232649720000012242877998515947920_);}
	.st7{opacity:0.35;fill:url(#SVGID_00000180336591991133634040000010228769252113440163_);enable-background:new    ;}
	.st8{opacity:0.35;fill:url(#SVGID_00000116222448474636821000000009328725543428776083_);enable-background:new    ;}
	.st9{opacity:0.35;fill:url(#SVGID_00000149352668068239574170000008246694370498417592_);enable-background:new    ;}
	.st10{fill:url(#SVGID_00000083074076997803788240000008815264458321533353_);}
	.st11{opacity:0.6;fill:url(#SVGID_00000083074787920605309920000015913635320593621128_);enable-background:new    ;}
	.st12{opacity:0.4;fill:url(#SVGID_00000046302563571210693680000013453367590012439723_);enable-background:new    ;}
	.st13{opacity:0.3;fill:url(#SVGID_00000003783035039559631660000011516444442058876293_);enable-background:new    ;}
	.st14{opacity:0.15;fill:url(#SVGID_00000069391837020647006530000007544676212524719765_);enable-background:new    ;}
	.st15{fill:#444444;}
</style>
<path class="st0" d="M208,240H32c-17.6,0-32-14.4-32-32V32C0,14.4,14.4,0,32,0h176c17.6,0,32,14.4,32,32v176
	C240,225.6,225.6,240,208,240z"/>
<g id="_x5F_default_29_">
	
		<radialGradient id="SVGID_1_" cx="120" cy="122" r="104" gradientTransform="matrix(1 0 0 -1 0 242)" gradientUnits="userSpaceOnUse">
		<stop  offset="0.342" style="stop-color:#448CF6"/>
		<stop  offset="0.6176" style="stop-color:#53AEF7;stop-opacity:0.5812"/>
		<stop  offset="0.849" style="stop-color:#5CC3F7;stop-opacity:0.2295"/>
		<stop  offset="1" style="stop-color:#5FCBF7;stop-opacity:0"/>
	</radialGradient>
	<path class="st1" d="M120,224c-57.4,0-104-46.6-104-104S62.6,16,120,16s104,46.6,104,104S177.4,224,120,224"/>
	<path id="Rectangle_817_copy_5_" class="st2" d="M69,129h102l2,3H67L69,129z"/>
	
		<linearGradient id="SVGID_00000000221843766733853460000013917541858270234802_" gradientUnits="userSpaceOnUse" x1="120" y1="106" x2="120" y2="110" gradientTransform="matrix(1 0 0 -1 0 242)">
		<stop  offset="0" style="stop-color:#595C5F"/>
		<stop  offset="1" style="stop-color:#7A7D80"/>
	</linearGradient>
	<rect x="67" y="132" style="fill:url(#SVGID_00000000221843766733853460000013917541858270234802_);" width="106" height="4"/>
	
		<linearGradient id="SVGID_00000138536655156991106380000010525350121924812188_" gradientUnits="userSpaceOnUse" x1="147" y1="37.1081" x2="147" y2="217" gradientTransform="matrix(1 0 0 -1 0 242)">
		<stop  offset="0" style="stop-color:#4D4D4D"/>
		<stop  offset="0.6" style="stop-color:#2F2F2F"/>
		<stop  offset="1" style="stop-color:#4C4C4C"/>
	</linearGradient>
	<path style="fill:url(#SVGID_00000138536655156991106380000010525350121924812188_);" d="M173,129V27c0-1.1-0.9-2-2-2h-50v104H173z
		"/>
	
		<linearGradient id="SVGID_00000067217844267240348280000010733622896233690534_" gradientUnits="userSpaceOnUse" x1="93" y1="37.1081" x2="93" y2="217" gradientTransform="matrix(1 0 0 -1 0 242)">
		<stop  offset="0" style="stop-color:#CCCCCC"/>
		<stop  offset="0.6" style="stop-color:#EEEEEE"/>
		<stop  offset="1" style="stop-color:#DDDDDD"/>
	</linearGradient>
	<path style="fill:url(#SVGID_00000067217844267240348280000010733622896233690534_);" d="M119,25H69c-1.1,0-2,0.9-2,2v102h52V25z"
		/>
	
		<linearGradient id="SVGID_00000088832717143380883110000001509761688664316079_" gradientUnits="userSpaceOnUse" x1="120" y1="26" x2="120" y2="220.4304" gradientTransform="matrix(1 0 0 -1 0 242)">
		<stop  offset="0" style="stop-color:#CCCCCC"/>
		<stop  offset="0.6" style="stop-color:#EEEEEE"/>
		<stop  offset="1" style="stop-color:#DDDDDD"/>
	</linearGradient>
	<path style="fill:url(#SVGID_00000088832717143380883110000001509761688664316079_);" d="M67,136v78c0,1.1,0.9,2,2,2h102
		c1.1,0,2-0.9,2-2v-78H67z"/>
	
		<linearGradient id="SVGID_00000100344518452701560160000017281019130262975133_" gradientUnits="userSpaceOnUse" x1="185.1365" y1="66" x2="146.6896" y2="66" gradientTransform="matrix(1 0 0 -1 0 242)">
		<stop  offset="0" style="stop-color:#828282"/>
		<stop  offset="1" style="stop-color:#828282;stop-opacity:0"/>
	</linearGradient>
	<path style="opacity:0.35;fill:url(#SVGID_00000100344518452701560160000017281019130262975133_);enable-background:new    ;" d="
		M132.8,216H171c1.1,0,2-0.9,2-2v-78h-40.2V216z"/>
	
		<linearGradient id="SVGID_00000122696097538662441360000008623051658318503576_" gradientUnits="userSpaceOnUse" x1="-1430.8726" y1="165" x2="-1469.3195" y2="165" gradientTransform="matrix(-1 0 0 -1 -1376.009 242)">
		<stop  offset="0" style="stop-color:#828282"/>
		<stop  offset="1" style="stop-color:#828282;stop-opacity:0"/>
	</linearGradient>
	<path style="opacity:0.35;fill:url(#SVGID_00000122696097538662441360000008623051658318503576_);enable-background:new    ;" d="
		M67,129V27c0-1.1,0.9-2,2-2h38.2v104H67z"/>
	
		<linearGradient id="SVGID_00000024719322067483107580000001826194969697477003_" gradientUnits="userSpaceOnUse" x1="-1430.8726" y1="66" x2="-1469.3195" y2="66" gradientTransform="matrix(-1 0 0 -1 -1376.009 242)">
		<stop  offset="0" style="stop-color:#828282"/>
		<stop  offset="1" style="stop-color:#828282;stop-opacity:0"/>
	</linearGradient>
	<path style="opacity:0.35;fill:url(#SVGID_00000024719322067483107580000001826194969697477003_);enable-background:new    ;" d="
		M107.2,216H69c-1.1,0-2-0.9-2-2v-78h40.2V216z"/>
	
		<linearGradient id="SVGID_00000042706770600764573990000016333699488476913280_" gradientUnits="userSpaceOnUse" x1="146.5" y1="127" x2="146.5" y2="202" gradientTransform="matrix(1 0 0 -1 0 242)">
		<stop  offset="0" style="stop-color:#5FCBF7"/>
		<stop  offset="1" style="stop-color:#448CF6"/>
	</linearGradient>
	<rect x="130" y="40" style="fill:url(#SVGID_00000042706770600764573990000016333699488476913280_);" width="33" height="75"/>
	<g>
		<g>
			
				<linearGradient id="SVGID_00000031181648191454127650000013855644026510286524_" gradientUnits="userSpaceOnUse" x1="146.5" y1="171.0357" x2="146.5" y2="202" gradientTransform="matrix(1 0 0 -1 0 242)">
				<stop  offset="0" style="stop-color:#FFFFFF"/>
				<stop  offset="1" style="stop-color:#FFFFFF;stop-opacity:0.3"/>
			</linearGradient>
			<path style="opacity:0.6;fill:url(#SVGID_00000031181648191454127650000013855644026510286524_);enable-background:new    ;" d="
				M163,67.4V40h-33v31c6-1.6,12.4-2.8,19.1-3.7C153.7,66.7,158.4,66.8,163,67.4z"/>
			
				<linearGradient id="SVGID_00000147206040900842159070000004460175560816674439_" gradientUnits="userSpaceOnUse" x1="146.5" y1="147.2" x2="146.5" y2="175.1031" gradientTransform="matrix(1 0 0 -1 0 242)">
				<stop  offset="0" style="stop-color:#FFFFFF"/>
				<stop  offset="1" style="stop-color:#FFFFFF;stop-opacity:0.3"/>
			</linearGradient>
			<path style="opacity:0.4;fill:url(#SVGID_00000147206040900842159070000004460175560816674439_);enable-background:new    ;" d="
				M161,94.6c0.7,0,1.3,0.1,2,0.2V67.4c-4.6-0.6-9.3-0.7-13.9-0.1c-6.7,0.8-13.1,2.1-19.1,3.7v15.7C138.6,88.1,142.1,93.9,161,94.6z
				"/>
			
				<linearGradient id="SVGID_00000028310906217066659650000011603315063872324767_" gradientUnits="userSpaceOnUse" x1="146.5" y1="135.9007" x2="146.5" y2="155.2737" gradientTransform="matrix(1 0 0 -1 0 242)">
				<stop  offset="0" style="stop-color:#FFFFFF"/>
				<stop  offset="1" style="stop-color:#FFFFFF;stop-opacity:0.3"/>
			</linearGradient>
			<path style="opacity:0.3;fill:url(#SVGID_00000028310906217066659650000011603315063872324767_);enable-background:new    ;" d="
				M163,101.6v-6.8c-0.6-0.1-1.3-0.2-2-0.2c-18.9-0.7-22.4-6.5-31-7.9v18c1.2,0,2.5,0.3,3.9,0.7C142,107.9,152.1,103,163,101.6z"/>
			
				<linearGradient id="SVGID_00000122721280499852876620000012135533032589894079_" gradientUnits="userSpaceOnUse" x1="146.5" y1="127" x2="146.5" y2="140.3506" gradientTransform="matrix(1 0 0 -1 0 242)">
				<stop  offset="0" style="stop-color:#FFFFFF"/>
				<stop  offset="1" style="stop-color:#FFFFFF;stop-opacity:0.3"/>
			</linearGradient>
			
				<path style="opacity:0.15;fill:url(#SVGID_00000122721280499852876620000012135533032589894079_);enable-background:new    ;" d="
				M130,115h33v-13.4c-10.9,1.4-21,6.2-29.1,3.8c-1.4-0.4-2.6-0.6-3.9-0.7V115z"/>
		</g>
	</g>
	<rect x="119" y="132" class="st15" width="2" height="84"/>
	<rect x="119" y="27" class="st15" width="2" height="102"/>
</g>
</svg>
