<?xml version="1.0" encoding="utf-8"?>
<!-- Generator: Adobe Illustrator 25.4.2, SVG Export Plug-In . SVG Version: 6.00 Build 0)  -->
<svg version="1.1" id="ic_x5F_device_x5F_list_x5F_stand_x5F_airconditioner"
	 xmlns="http://www.w3.org/2000/svg" xmlns:xlink="http://www.w3.org/1999/xlink" x="0px" y="0px" viewBox="0 0 240 240"
	 style="enable-background:new 0 0 240 240;" xml:space="preserve">
<style type="text/css">
	.st0{fill:#FFFFFF;}
	.st1{fill:url(#SVGID_1_);}
	.st2{fill:url(#SVGID_00000113334170256091834190000000515290641405796528_);}
	.st3{fill:url(#SVGID_00000090275808343697813720000018171982416359353496_);}
	.st4{fill:url(#SVGID_00000075152342893755731120000008693095495329988536_);}
	.st5{opacity:0.76;fill:url(#SVGID_00000088825445028928185630000016757468730168505236_);enable-background:new    ;}
	.st6{opacity:0.76;fill:url(#SVGID_00000096057965071631875120000009401338232671294381_);enable-background:new    ;}
	.st7{fill:url(#SVGID_00000099638545128414035710000014405643108000509877_);}
	.st8{fill:url(#SVGID_00000065757869595518767680000007023263114312339116_);}
	.st9{fill:url(#SVGID_00000170971117659566822720000015318248457035637158_);}
	.st10{fill:url(#SVGID_00000130638293925372138330000016966013463527993222_);}
	.st11{fill:url(#SVGID_00000086677949929784510400000011930494476881351343_);}
	.st12{fill:#696E72;}
	.st13{fill:#95989C;}
	.st14{fill:url(#Ellipse_886_copy_00000178922555305266028070000004273208449195997363_);}
</style>
<path class="st0" d="M208,240.5H32c-17.6,0-32-14.4-32-32v-176c0-17.6,14.4-32,32-32h176c17.6,0,32,14.4,32,32v176
	C240,226.1,225.6,240.5,208,240.5z"/>
<g id="_x5F_default_20_">
	<g>
		<g>
			
				<linearGradient id="SVGID_1_" gradientUnits="userSpaceOnUse" x1="-1320" y1="19.8253" x2="-1320" y2="229.164" gradientTransform="matrix(-1 0 0 -1 -1163 242)">
				<stop  offset="0" style="stop-color:#DCDCDC"/>
				<stop  offset="0.4" style="stop-color:#E8E8E8"/>
				<stop  offset="1" style="stop-color:#E8E8E8"/>
			</linearGradient>
			<path class="st1" d="M156,16v204l1.4-0.7c0.3-0.2,0.6-0.5,0.6-0.9V17.6c0-0.4-0.2-0.7-0.6-0.9L156,16z"/>
		</g>
		
			<linearGradient id="SVGID_00000136412572117715088480000015410738646309796794_" gradientUnits="userSpaceOnUse" x1="-745.9482" y1="1121.5924" x2="-745.9482" y2="1125.5924" gradientTransform="matrix(4.489700e-11 -1 1 4.489700e-11 -969.599 -627.9482)">
			<stop  offset="0" style="stop-color:#3D3D3D"/>
			<stop  offset="1" style="stop-color:#787878"/>
		</linearGradient>
		<polygon style="fill:url(#SVGID_00000136412572117715088480000015410738646309796794_);" points="156,220 156,16 152,17.5 
			152,218.5 		"/>
	</g>
	<g>
		<g>
			
				<linearGradient id="SVGID_00000032636933969995983030000015215552741924675734_" gradientUnits="userSpaceOnUse" x1="165.2502" y1="19.8231" x2="165.2502" y2="229.1619" gradientTransform="matrix(1 0 0 -1 -82.2502 242)">
				<stop  offset="0" style="stop-color:#DCDCDC"/>
				<stop  offset="0.4" style="stop-color:#E8E8E8"/>
				<stop  offset="1" style="stop-color:#E8E8E8"/>
			</linearGradient>
			<path style="fill:url(#SVGID_00000032636933969995983030000015215552741924675734_);" d="M84,16v204l-1.4-0.7
				c-0.3-0.2-0.6-0.5-0.6-0.9V17.6c0-0.4,0.2-0.7,0.6-0.9L84,16z"/>
		</g>
		
			<linearGradient id="SVGID_00000149348818089431093050000001509619139745290400_" gradientUnits="userSpaceOnUse" x1="-745.9482" y1="-363.6512" x2="-745.9482" y2="-359.6512" gradientTransform="matrix(0 -1 -1 0 -275.6512 -627.9482)">
			<stop  offset="0" style="stop-color:#3D3D3D"/>
			<stop  offset="1" style="stop-color:#787878"/>
		</linearGradient>
		<polygon style="fill:url(#SVGID_00000149348818089431093050000001509619139745290400_);" points="84,220 84,16 88,17.5 88,218.5 
					"/>
	</g>
	
		<linearGradient id="SVGID_00000138533091853973342700000016889311398801141123_" gradientUnits="userSpaceOnUse" x1="-15.4267" y1="122" x2="84.0066" y2="122" gradientTransform="matrix(1 0 0 -1 0 242)">
		<stop  offset="0.55" style="stop-color:#78B4AA;stop-opacity:0"/>
		<stop  offset="1" style="stop-color:#55D5BC"/>
	</linearGradient>
	<path style="opacity:0.76;fill:url(#SVGID_00000138533091853973342700000016889311398801141123_);enable-background:new    ;" d="
		M82.1,32C61.5,32,39,21.9,39,4.1V120v115.9c0-17.8,22.5-27.9,43.1-27.9H84v-88V32H82.1z"/>
	
		<linearGradient id="SVGID_00000005229712979882682120000010273166576156957872_" gradientUnits="userSpaceOnUse" x1="-1417.356" y1="122" x2="-1317.9226" y2="122" gradientTransform="matrix(-1 0 0 -1 -1161.9292 242)">
		<stop  offset="0.55" style="stop-color:#78B4AA;stop-opacity:0"/>
		<stop  offset="1" style="stop-color:#55D5BC"/>
	</linearGradient>
	<path style="opacity:0.76;fill:url(#SVGID_00000005229712979882682120000010273166576156957872_);enable-background:new    ;" d="
		M157.9,32C178.5,32,201,21.9,201,4.1V120v115.9c0-17.8-22.5-27.9-43.1-27.9H156v-88V32H157.9z"/>
	
		<linearGradient id="SVGID_00000147943247726564473750000010168763786625944473_" gradientUnits="userSpaceOnUse" x1="89.5" y1="20" x2="150.5" y2="20" gradientTransform="matrix(1 0 0 -1 0 242)">
		<stop  offset="0" style="stop-color:#7C8088"/>
		<stop  offset="6.716418e-02" style="stop-color:#9DA0A6"/>
		<stop  offset="0.9328" style="stop-color:#9DA0A6"/>
		<stop  offset="1" style="stop-color:#7C8088"/>
	</linearGradient>
	<rect x="89.5" y="220" style="fill:url(#SVGID_00000147943247726564473750000010168763786625944473_);" width="61" height="4"/>
	
		<linearGradient id="SVGID_00000063605029571323807520000001883389714571273099_" gradientUnits="userSpaceOnUse" x1="120" y1="22" x2="120" y2="224.5337" gradientTransform="matrix(1 0 0 -1 0 242)">
		<stop  offset="0.2" style="stop-color:#DDDDDD"/>
		<stop  offset="1" style="stop-color:#EFF0F2"/>
	</linearGradient>
	<path style="fill:url(#SVGID_00000063605029571323807520000001883389714571273099_);" d="M150.5,220h-61c-0.8,0-1.5-0.7-1.5-1.5
		v-201c0-0.8,0.7-1.5,1.5-1.5h61c0.8,0,1.5,0.7,1.5,1.5v201C152,219.3,151.3,220,150.5,220z"/>
	
		<linearGradient id="SVGID_00000048462642294911489040000007652766488151164606_" gradientUnits="userSpaceOnUse" x1="152" y1="124" x2="144.3622" y2="124" gradientTransform="matrix(1 0 0 -1 0 242)">
		<stop  offset="0" style="stop-color:#B4B4B4"/>
		<stop  offset="1" style="stop-color:#B4B4B4;stop-opacity:0"/>
	</linearGradient>
	<path style="fill:url(#SVGID_00000048462642294911489040000007652766488151164606_);" d="M150.5,16h-14v204h14
		c0.8,0,1.5-0.7,1.5-1.5v-201C152,16.7,151.3,16,150.5,16z"/>
	
		<linearGradient id="SVGID_00000170242622054296206750000014241814700263040396_" gradientUnits="userSpaceOnUse" x1="-1311.6042" y1="124" x2="-1319.2421" y2="124" gradientTransform="matrix(-1 0 0 -1 -1223.6042 242)">
		<stop  offset="0" style="stop-color:#B4B4B4"/>
		<stop  offset="1" style="stop-color:#B4B4B4;stop-opacity:0"/>
	</linearGradient>
	<path style="fill:url(#SVGID_00000170242622054296206750000014241814700263040396_);" d="M89.5,16h14v204h-14
		c-0.8,0-1.5-0.7-1.5-1.5v-201C88,16.7,88.7,16,89.5,16z"/>
	
		<linearGradient id="SVGID_00000168078960876798829330000006493767309108610233_" gradientUnits="userSpaceOnUse" x1="120" y1="169.5" x2="120" y2="217.5" gradientTransform="matrix(1 0 0 -1 0 242)">
		<stop  offset="0" style="stop-color:#5CEDC9"/>
		<stop  offset="1" style="stop-color:#24BBAB"/>
	</linearGradient>
	<circle style="fill:url(#SVGID_00000168078960876798829330000006493767309108610233_);" cx="120" cy="48.5" r="24"/>
	<g>
		<circle class="st12" cx="120" cy="48.5" r="21.8"/>
		<circle id="Ellipse_886_copy_9_" class="st13" cx="120" cy="48.5" r="19.5"/>
		
			<linearGradient id="Ellipse_886_copy_00000077294298542736922580000004430202934615416729_" gradientUnits="userSpaceOnUse" x1="106.2114" y1="207.2886" x2="133.8379" y2="179.6621" gradientTransform="matrix(1 0 0 -1 0 242)">
			<stop  offset="0" style="stop-color:#FFFFFF;stop-opacity:0.6"/>
			<stop  offset="1" style="stop-color:#DDDDDD;stop-opacity:0"/>
		</linearGradient>
		
			<circle id="Ellipse_886_copy_8_" style="fill:url(#Ellipse_886_copy_00000077294298542736922580000004430202934615416729_);" cx="120" cy="48.5" r="19.5"/>
	</g>
</g>
</svg>
