<?xml version="1.0" encoding="utf-8"?>
<!-- Generator: Adobe Illustrator 25.4.2, SVG Export Plug-In . SVG Version: 6.00 Build 0)  -->
<svg version="1.1" id="ic_x5F_device_x5F_list_x5F_kimchi_x5F_refrigerator"
	 xmlns="http://www.w3.org/2000/svg" xmlns:xlink="http://www.w3.org/1999/xlink" x="0px" y="0px" viewBox="0 0 240 240"
	 style="enable-background:new 0 0 240 240;" xml:space="preserve">
<style type="text/css">
	.st0{fill:#F4F4F4;}
	.st1{fill:url(#SVGID_1_);}
	.st2{fill-rule:evenodd;clip-rule:evenodd;fill:#515151;}
	.st3{fill:url(#SVGID_00000143577278699136802160000018366339682167688617_);}
	.st4{fill:url(#SVGID_00000023244102211121578270000008139562883997576361_);}
	.st5{fill:url(#SVGID_00000104664099841923444620000000938805486356103318_);}
	.st6{fill:url(#SVGID_00000119091678650209373170000010591422627799193495_);}
	.st7{fill:url(#SVGID_00000034082315488285750870000002600656521727106963_);}
	.st8{opacity:0.35;fill:url(#SVGID_00000176733651201917926490000001189414493658998161_);enable-background:new    ;}
	.st9{opacity:0.35;fill:url(#SVGID_00000124119806476597015890000012437007524682362530_);enable-background:new    ;}
	.st10{opacity:0.35;fill:url(#SVGID_00000145757214011949975120000006206196650811619757_);enable-background:new    ;}
	.st11{opacity:0.35;fill:url(#SVGID_00000065758871704120047400000005599989610827496591_);enable-background:new    ;}
	.st12{opacity:0.35;fill:url(#SVGID_00000091722776955780003060000011745009703399303614_);enable-background:new    ;}
	.st13{opacity:0.35;fill:url(#SVGID_00000031206211317801030590000012990192152709992639_);enable-background:new    ;}
	.st14{fill:#515151;}
</style>
<path class="st0" d="M208,240H32c-17.6,0-32-14.4-32-32V32C0,14.4,14.4,0,32,0h176c17.6,0,32,14.4,32,32v176
	C240,225.6,225.6,240,208,240z"/>
<g id="_x5F_default_23_">
	
		<radialGradient id="SVGID_1_" cx="120" cy="646" r="104" gradientTransform="matrix(1 0 0 1 0 -526)" gradientUnits="userSpaceOnUse">
		<stop  offset="0.3308" style="stop-color:#448CF6"/>
		<stop  offset="0.3488" style="stop-color:#458EF6;stop-opacity:0.9731"/>
		<stop  offset="0.621" style="stop-color:#53AFF7;stop-opacity:0.5663"/>
		<stop  offset="0.8478" style="stop-color:#5CC4F7;stop-opacity:0.2274"/>
		<stop  offset="1" style="stop-color:#5FCBF7;stop-opacity:0"/>
	</radialGradient>
	<path class="st1" d="M120,224c-57.4,0-104-46.6-104-104S62.6,16,120,16s104,46.6,104,104S177.4,224,120,224"/>
	<g>
		<path id="Rectangle_817_copy_32_" class="st2" d="M74,172h92l2,3H72L74,172z"/>
		
			<linearGradient id="SVGID_00000008830817352686835440000002025946910791623098_" gradientUnits="userSpaceOnUse" x1="120" y1="705" x2="120" y2="701" gradientTransform="matrix(1 0 0 1 0 -526)">
			<stop  offset="0" style="stop-color:#595C5F"/>
			<stop  offset="1" style="stop-color:#7A7D80"/>
		</linearGradient>
		<rect x="72" y="175" style="fill:url(#SVGID_00000008830817352686835440000002025946910791623098_);" width="96" height="4"/>
		
			<linearGradient id="SVGID_00000046329206741517422130000002861353516080703406_" gradientUnits="userSpaceOnUse" x1="120" y1="728.8919" x2="120" y2="549" gradientTransform="matrix(1 0 0 1 0 -526)">
			<stop  offset="0" style="stop-color:#CCCCCC"/>
			<stop  offset="0.6" style="stop-color:#EEEEEE"/>
			<stop  offset="1" style="stop-color:#DDDDDD"/>
		</linearGradient>
		<path style="fill:url(#SVGID_00000046329206741517422130000002861353516080703406_);" d="M166,23H74c-1.1,0-2,0.9-2,2v102h96V25
			C168,23.9,167.1,23,166,23z"/>
		
			<linearGradient id="SVGID_00000116219538537274550090000000218266892023520421_" gradientUnits="userSpaceOnUse" x1="120" y1="743" x2="120" y2="650.6456" gradientTransform="matrix(1 0 0 1 0 -526)">
			<stop  offset="0" style="stop-color:#CCCCCC"/>
			<stop  offset="0.6" style="stop-color:#EEEEEE"/>
			<stop  offset="1" style="stop-color:#DDDDDD"/>
		</linearGradient>
		<path style="fill:url(#SVGID_00000116219538537274550090000000218266892023520421_);" d="M72,179v36c0,1.1,0.9,2,2,2h92
			c1.1,0,2-0.9,2-2v-36H72z"/>
		<path id="Rectangle_817_copy_31_" class="st2" d="M74,127h92l2,3H72L74,127z"/>
		
			<linearGradient id="SVGID_00000172412369510507844330000016714861698878542468_" gradientUnits="userSpaceOnUse" x1="120" y1="660" x2="120" y2="656" gradientTransform="matrix(1 0 0 1 0 -526)">
			<stop  offset="0" style="stop-color:#595C5F"/>
			<stop  offset="1" style="stop-color:#7A7D80"/>
		</linearGradient>
		<rect x="72" y="130" style="fill:url(#SVGID_00000172412369510507844330000016714861698878542468_);" width="96" height="4"/>
		
			<linearGradient id="SVGID_00000109716158742719546040000005843468295409841288_" gradientUnits="userSpaceOnUse" x1="120" y1="698" x2="120" y2="605.6456" gradientTransform="matrix(1 0 0 1 0 -526)">
			<stop  offset="0" style="stop-color:#CCCCCC"/>
			<stop  offset="0.6" style="stop-color:#EEEEEE"/>
			<stop  offset="1" style="stop-color:#DDDDDD"/>
		</linearGradient>
		<rect x="72" y="134" style="fill:url(#SVGID_00000109716158742719546040000005843468295409841288_);" width="96" height="38"/>
	</g>
	<g>
		
			<linearGradient id="SVGID_00000069384755650349291460000015695228153075419322_" gradientUnits="userSpaceOnUse" x1="174.9469" y1="601" x2="132.9919" y2="601" gradientTransform="matrix(1 0 0 1 0 -526)">
			<stop  offset="0" style="stop-color:#828282"/>
			<stop  offset="1" style="stop-color:#828282;stop-opacity:0"/>
		</linearGradient>
		<path style="opacity:0.35;fill:url(#SVGID_00000069384755650349291460000015695228153075419322_);enable-background:new    ;" d="
			M168,25c0-1.1-0.9-2-2-2h-40.5v104H168V25z"/>
		
			<linearGradient id="SVGID_00000149348382723425538360000006421538074194505371_" gradientUnits="userSpaceOnUse" x1="174.9469" y1="724" x2="132.9919" y2="724" gradientTransform="matrix(1 0 0 1 0 -526)">
			<stop  offset="0" style="stop-color:#828282"/>
			<stop  offset="1" style="stop-color:#828282;stop-opacity:0"/>
		</linearGradient>
		<path style="opacity:0.35;fill:url(#SVGID_00000149348382723425538360000006421538074194505371_);enable-background:new    ;" d="
			M168,215v-36h-42.5v38H166C167.1,217,168,216.1,168,215z"/>
		
			<linearGradient id="SVGID_00000173846583737808060030000001948332410636408975_" gradientUnits="userSpaceOnUse" x1="174.9469" y1="679" x2="132.9919" y2="679" gradientTransform="matrix(1 0 0 1 0 -526)">
			<stop  offset="0" style="stop-color:#828282"/>
			<stop  offset="1" style="stop-color:#828282;stop-opacity:0"/>
		</linearGradient>
		
			<rect x="125.5" y="134" style="opacity:0.35;fill:url(#SVGID_00000173846583737808060030000001948332410636408975_);enable-background:new    ;" width="42.5" height="38"/>
	</g>
	<g>
		
			<linearGradient id="SVGID_00000067195742327233945220000001640988047301317561_" gradientUnits="userSpaceOnUse" x1="-2531.7263" y1="601" x2="-2573.6812" y2="601" gradientTransform="matrix(-1 0 0 1 -2466.6733 -526)">
			<stop  offset="0" style="stop-color:#828282"/>
			<stop  offset="1" style="stop-color:#828282;stop-opacity:0"/>
		</linearGradient>
		<path style="opacity:0.35;fill:url(#SVGID_00000067195742327233945220000001640988047301317561_);enable-background:new    ;" d="
			M72,25c0-1.1,0.9-2,2-2h40.5v104H72V25z"/>
		
			<linearGradient id="SVGID_00000140697789037881160810000017096263668196165003_" gradientUnits="userSpaceOnUse" x1="-2531.7263" y1="724" x2="-2573.6812" y2="724" gradientTransform="matrix(-1 0 0 1 -2466.6733 -526)">
			<stop  offset="0" style="stop-color:#828282"/>
			<stop  offset="1" style="stop-color:#828282;stop-opacity:0"/>
		</linearGradient>
		<path style="opacity:0.35;fill:url(#SVGID_00000140697789037881160810000017096263668196165003_);enable-background:new    ;" d="
			M72,215v-36h42.5v38H74C72.9,217,72,216.1,72,215z"/>
		
			<linearGradient id="SVGID_00000147194866730042271170000000977506562139164854_" gradientUnits="userSpaceOnUse" x1="-2531.7263" y1="679" x2="-2573.6812" y2="679" gradientTransform="matrix(-1 0 0 1 -2466.6733 -526)">
			<stop  offset="0" style="stop-color:#828282"/>
			<stop  offset="1" style="stop-color:#828282;stop-opacity:0"/>
		</linearGradient>
		
			<rect x="72" y="134" style="opacity:0.35;fill:url(#SVGID_00000147194866730042271170000000977506562139164854_);enable-background:new    ;" width="42.5" height="38"/>
	</g>
	<rect x="119" y="23" class="st14" width="2" height="104"/>
</g>
</svg>
