<?xml version="1.0" encoding="utf-8"?>
<!-- Generator: Adobe Illustrator 25.4.2, SVG Export Plug-In . SVG Version: 6.00 Build 0)  -->
<svg version="1.1" id="ic_x5F_device_x5F_list_x5F_airpurifier_1_"
	 xmlns="http://www.w3.org/2000/svg" xmlns:xlink="http://www.w3.org/1999/xlink" x="0px" y="0px" viewBox="0 0 240 240"
	 style="enable-background:new 0 0 240 240;" xml:space="preserve">
<style type="text/css">
	.st0{fill:#F4F4F4;}
	.st1{fill:url(#SVGID_1_);}
	.st2{opacity:0.35;fill:url(#SVGID_00000113348941422948841700000015875590141352986042_);enable-background:new    ;}
	.st3{fill:url(#SVGID_00000065780583312353521260000009303380174014687422_);}
	.st4{fill:url(#Ellipse_838_copy_00000070095801530839196870000008760356649022900651_);}
	.st5{fill-rule:evenodd;clip-rule:evenodd;fill:url(#Ellipse_838_copy_3_00000084506783991837276180000007584092064983474599_);}
	.st6{fill-rule:evenodd;clip-rule:evenodd;fill:#3A3A3A;}
	.st7{fill-rule:evenodd;clip-rule:evenodd;fill:url(#Ellipse_762_copy_2_00000096769578360846768400000010551883870999383461_);}
	.st8{fill:#5CEDC9;}
	.st9{fill:url(#SVGID_00000093884994979892700130000016619346606500380590_);}
	.st10{fill:url(#SVGID_00000096766274029154462360000003759838707397101243_);}
	.st11{fill:url(#SVGID_00000137838945614874651990000009555351904025831080_);}
	.st12{opacity:0.1;}
	.st13{clip-path:url(#SVGID_00000019676369516809022890000008083836960666141344_);}
	.st14{clip-path:url(#SVGID_00000096057070204725915570000013005885379565267857_);}
</style>
<path class="st0" d="M208,240H32c-17.6,0-32-14.4-32-32V32C0,14.4,14.4,0,32,0h176c17.6,0,32,14.4,32,32v176
	C240,225.6,225.6,240,208,240z"/>
<g id="_x5F_default_12_">
	<g>
		
			<radialGradient id="SVGID_1_" cx="131.2686" cy="194.7995" r="28.2603" gradientTransform="matrix(0.9842 0 0 -0.9852 -9.1946 238.3665)" gradientUnits="userSpaceOnUse">
			<stop  offset="0.6" style="stop-color:#F1F1F2"/>
			<stop  offset="1" style="stop-color:#C8C9C9"/>
		</radialGradient>
		<path class="st1" d="M148.2,42.3L148.2,42.3C147.5,30,134.8,19,120,19S92.5,30,91.8,42.3l0,0c0,0,0,7.1,0,7.9
			c0,13.1,12.7,23.7,28.2,23.7s28.2-10.6,28.2-23.7C148.2,49.4,148.2,42.3,148.2,42.3z"/>
		
			<linearGradient id="SVGID_00000011002709957600341830000008564915067446648716_" gradientUnits="userSpaceOnUse" x1="120" y1="213.9045" x2="120" y2="197.7221" gradientTransform="matrix(1 0 0 -1 0 242)">
			<stop  offset="0.4349" style="stop-color:#2C2C2C;stop-opacity:0"/>
			<stop  offset="0.5187" style="stop-color:#131313"/>
		</linearGradient>
		<path style="opacity:0.35;fill:url(#SVGID_00000011002709957600341830000008564915067446648716_);enable-background:new    ;" d="
			M148.2,41.7L148.2,41.7C147.5,29.4,134.8,19,120,19S92.5,29.5,91.8,41.8l0,0c0,0,0,7.6,0,8.4c0,13.1,12.7,23.7,28.2,23.7
			s28.2-10.6,28.2-23.7C148.2,49.4,148.2,41.7,148.2,41.7z"/>
		<g>
			
				<linearGradient id="SVGID_00000144308246027020113710000006735297408509218190_" gradientUnits="userSpaceOnUse" x1="102.6865" y1="198.0017" x2="159.9978" y2="198.0017" gradientTransform="matrix(0.9841 0 0 -0.9878 -9.2538 237.8861)">
				<stop  offset="0" style="stop-color:#C1C1C1"/>
				<stop  offset="0.5147" style="stop-color:#E7E7E7"/>
				<stop  offset="1" style="stop-color:#C1C1C1"/>
			</linearGradient>
			<path style="fill:url(#SVGID_00000144308246027020113710000006735297408509218190_);" d="M120,65.6c-15.6,0-28.2-10.5-28.2-23.3
				S104.4,19,120,19s28.2,10.5,28.2,23.3S135.6,65.6,120,65.6z"/>
			
				<radialGradient id="Ellipse_838_copy_00000144320576639603690820000011980638687888046266_" cx="108.6727" cy="197.3114" r="24.4115" gradientTransform="matrix(1.0164 0 0 -0.9732 9.5451 234.3234)" gradientUnits="userSpaceOnUse">
				<stop  offset="0" style="stop-color:#4E4E4E"/>
				<stop  offset="1" style="stop-color:#393939"/>
			</radialGradient>
			
				<ellipse id="Ellipse_838_copy_7_" style="fill:url(#Ellipse_838_copy_00000144320576639603690820000011980638687888046266_);" cx="120" cy="42.3" rx="26.7" ry="21.8"/>
			
				<linearGradient id="Ellipse_838_copy_3_00000124868330356311152280000009729016583672573323_" gradientUnits="userSpaceOnUse" x1="99.8" y1="200.3" x2="140.258" y2="200.3" gradientTransform="matrix(1 0 0 -1 0 242)">
				<stop  offset="0" style="stop-color:#CCCCCC"/>
				<stop  offset="0.6" style="stop-color:#EEEEEE"/>
				<stop  offset="1" style="stop-color:#DDDDDD"/>
			</linearGradient>
			
				<path id="Ellipse_838_copy_3_17_" style="fill-rule:evenodd;clip-rule:evenodd;fill:url(#Ellipse_838_copy_3_00000124868330356311152280000009729016583672573323_);" d="
				M120,25.6c11.2,0,20.2,7.2,20.2,16.1s-9.1,16.1-20.2,16.1s-20.2-7.2-20.2-16.1S108.8,25.6,120,25.6z"/>
			<path id="Ellipse_838_copy_3_16_" class="st6" d="M120,32.9c6.1,0,11.1,3.9,11.1,8.6s-5,8.6-11.1,8.6s-11.1-3.9-11.1-8.6
				S113.9,32.9,120,32.9z"/>
		</g>
		
			<radialGradient id="Ellipse_762_copy_2_00000000937547123286540740000007475113343169393043_" cx="120" cy="198.3778" r="56.5" gradientTransform="matrix(1 0 0 -1 0 242)" gradientUnits="userSpaceOnUse">
			<stop  offset="0.3" style="stop-color:#24BBAB"/>
			<stop  offset="1" style="stop-color:#5CEDC9"/>
		</radialGradient>
		
			<path id="Ellipse_762_copy_2_15_" style="fill-rule:evenodd;clip-rule:evenodd;fill:url(#Ellipse_762_copy_2_00000000937547123286540740000007475113343169393043_);" d="
			M163.3,39.4c2.3,0,4.2,1.9,4.2,4.2s-1.9,4.2-4.2,4.2s-4.2-1.9-4.2-4.2S160.9,39.4,163.3,39.4z M176,39.8c2.1,0,3.8,1.7,3.8,3.8
			s-1.7,3.8-3.8,3.8s-3.8-1.7-3.8-3.8S173.9,39.8,176,39.8z M187.9,40.2c1.9,0,3.4,1.5,3.4,3.4s-1.5,3.4-3.4,3.4s-3.4-1.5-3.4-3.4
			S186,40.2,187.9,40.2z M76.7,39.4c2.3,0,4.2,1.9,4.2,4.2s-1.9,4.2-4.2,4.2c-2.3,0-4.2-1.9-4.2-4.2S74.4,39.4,76.7,39.4z M64,39.8
			c2.1,0,3.8,1.7,3.8,3.8s-1.7,3.8-3.8,3.8s-3.8-1.7-3.8-3.8S61.9,39.8,64,39.8z M52.1,40.2c1.9,0,3.4,1.5,3.4,3.4S54,47,52.1,47
			s-3.4-1.5-3.4-3.4S50.2,40.2,52.1,40.2z M155.7,19.6c2-1.2,4.6-0.5,5.8,1.6c1.2,2,0.5,4.6-1.6,5.8c-2,1.2-4.6,0.5-5.8-1.6l0,0
			C153,23.3,153.7,20.8,155.7,19.6L155.7,19.6L155.7,19.6z M166.9,13.6c1.8-1.1,4.2-0.4,5.2,1.4c1.1,1.8,0.4,4.2-1.4,5.2
			c-1.8,1.1-4.2,0.4-5.2-1.4C164.5,17,165.1,14.6,166.9,13.6L166.9,13.6z M177.4,8c1.6-0.9,3.7-0.4,4.6,1.2c0.9,1.6,0.4,3.7-1.2,4.6
			c-1.6,0.9-3.7,0.4-4.6-1.2C175.3,11,175.8,8.9,177.4,8L177.4,8z M80,60.3c2-1.2,4.6-0.5,5.8,1.6c1.2,2,0.5,4.6-1.6,5.8
			c-2,1.2-4.6,0.5-5.8-1.6C77.3,64.1,78,61.5,80,60.3L80,60.3z M69.2,67.1c1.8-1.1,4.2-0.4,5.2,1.4c1.1,1.8,0.4,4.2-1.4,5.2
			c-1.8,1.1-4.2,0.4-5.2-1.4l0,0C66.8,70.4,67.4,68.1,69.2,67.1z M59.2,73.4c1.6-0.9,3.7-0.4,4.6,1.2s0.4,3.7-1.2,4.6
			S58.9,79.6,58,78l0,0C57,76.4,57.5,74.3,59.2,73.4L59.2,73.4z M160,60.3c2,1.2,2.7,3.8,1.6,5.8c-1.2,2-3.8,2.7-5.8,1.6
			c-2-1.2-2.7-3.8-1.6-5.8l0,0C155.3,59.8,157.9,59.2,160,60.3L160,60.3z M170.8,67.1c1.8,1.1,2.5,3.4,1.4,5.2
			c-1.1,1.8-3.4,2.5-5.2,1.4s-2.5-3.4-1.4-5.2C166.6,66.6,168.9,66,170.8,67.1L170.8,67.1z M180.8,73.4c1.6,0.9,2.2,3,1.2,4.6
			c-0.9,1.6-3,2.2-4.6,1.2c-1.6-0.9-2.2-3-1.2-4.6l0,0C177.1,73,179.2,72.4,180.8,73.4L180.8,73.4z M84.3,19.6
			c2,1.2,2.7,3.8,1.6,5.8c-1.2,2-3.8,2.7-5.8,1.6c-2-1.2-2.7-3.8-1.6-5.8C79.7,19.1,82.3,18.4,84.3,19.6L84.3,19.6z M73.1,13.6
			c1.8,1.1,2.5,3.4,1.4,5.2s-3.4,2.5-5.2,1.4c-1.8-1.1-2.5-3.4-1.4-5.2l0,0C68.9,13.2,71.2,12.5,73.1,13.6z M62.6,8
			c1.6,0.9,2.2,3,1.2,4.6c-0.9,1.6-3,2.2-4.6,1.2c-1.6-0.9-2.2-3-1.2-4.6l0,0C58.9,7.6,60.9,7.1,62.6,8z"/>
		<path id="Ellipse_838_copy_3_10_" class="st8" d="M120,27.6c10,0,18.1,6.3,18.1,14.1S130,55.8,120,55.8s-18.1-6.3-18.1-14.1
			C101.9,33.9,110,27.6,120,27.6 M120,25.6c-11.2,0-20.2,7.2-20.2,16.1s9.1,16.1,20.2,16.1s20.2-7.2,20.2-16.1S131.2,25.6,120,25.6
			L120,25.6z"/>
	</g>
	<g>
		
			<linearGradient id="SVGID_00000016768440149407902580000003048266740349679034_" gradientUnits="userSpaceOnUse" x1="94.344" y1="23.45" x2="145.6322" y2="23.45" gradientTransform="matrix(1 0 0 -1 0 242)">
			<stop  offset="0" style="stop-color:#303030"/>
			<stop  offset="0.5" style="stop-color:#525252"/>
			<stop  offset="1" style="stop-color:#303030"/>
		</linearGradient>
		<rect x="88" y="216.1" style="fill:url(#SVGID_00000016768440149407902580000003048266740349679034_);" width="64" height="4.9"/>
		<g>
			
				<linearGradient id="SVGID_00000171712279025471453630000016374945587554491527_" gradientUnits="userSpaceOnUse" x1="94.4087" y1="102.75" x2="145.6394" y2="102.75" gradientTransform="matrix(1 0 0 -1 0 242)">
				<stop  offset="0" style="stop-color:#303030"/>
				<stop  offset="0.5" style="stop-color:#525252"/>
				<stop  offset="1" style="stop-color:#303030"/>
			</linearGradient>
			<polygon style="fill:url(#SVGID_00000171712279025471453630000016374945587554491527_);" points="152,139.2 146.4,135.6 
				148.6,133.3 91.4,133.3 93.7,135.6 88.1,139.2 93.7,142.8 91.4,145.2 148.6,145.2 146.4,142.9 			"/>
			
				<linearGradient id="SVGID_00000067931417949216999930000001815514435572099251_" gradientUnits="userSpaceOnUse" x1="92.3396" y1="101.1" x2="147.6347" y2="101.1" gradientTransform="matrix(1 0 0 -1 0 242)">
				<stop  offset="0" style="stop-color:#B6B6B6"/>
				<stop  offset="0.5147" style="stop-color:#E3E3E3"/>
				<stop  offset="1" style="stop-color:#B6B6B6"/>
			</linearGradient>
			<path style="fill:url(#SVGID_00000067931417949216999930000001815514435572099251_);" d="M152.2,144.7H87.8l-2.3,71.5h69
				L152.2,144.7z M149.6,65.6H90.4L88.2,134h63.6L149.6,65.6z"/>
			<g class="st12">
				<g>
					<defs>
						<polygon id="SVGID_00000015336788285763677600000006221640364835158185_" points="149.6,65.6 90.4,65.6 88.2,134 151.8,134 
													"/>
					</defs>
					<clipPath id="SVGID_00000116920265024951468570000012611980043460425377_">
						<use xlink:href="#SVGID_00000015336788285763677600000006221640364835158185_"  style="overflow:visible;"/>
					</clipPath>
					<g style="clip-path:url(#SVGID_00000116920265024951468570000012611980043460425377_);">
						<g>
							<g>
								
									<rect x="149.2" y="65.6" transform="matrix(0.9995 -3.268714e-02 3.268714e-02 0.9995 -3.1822 4.9549)" width="1.5" height="68.4"/>
							</g>
							<g>
								
									<rect x="142.5" y="65.6" transform="matrix(0.9997 -2.543294e-02 2.543294e-02 0.9997 -2.492 3.6756)" width="1.5" height="68.4"/>
							</g>
							<g>
								
									<rect x="135.9" y="65.6" transform="matrix(0.9998 -1.816829e-02 1.816829e-02 0.9998 -1.7906 2.4991)" width="1.5" height="68.4"/>
							</g>
							<g>
								
									<rect x="129.2" y="65.6" transform="matrix(0.9999 -1.090647e-02 1.090647e-02 0.9999 -1.0807 1.4232)" width="1.5" height="68.4"/>
							</g>
							<g>
								<rect x="122.6" y="65.6" transform="matrix(1 -3.635511e-03 3.635511e-03 1 -0.362 0.4491)" width="1.5" height="68.4"/>
							</g>
							<g>
								<rect x="82.4" y="99" transform="matrix(3.906190e-03 -1 1 3.906190e-03 16.4044 216.0025)" width="68.4" height="1.5"/>
							</g>
							<g>
								
									<rect x="75.8" y="99.1" transform="matrix(1.041658e-02 -0.9999 0.9999 1.041658e-02 9.008 208.7349)" width="68.4" height="1.5"/>
							</g>
							<g>
								
									<rect x="69.1" y="99" transform="matrix(1.822676e-02 -0.9998 0.9998 1.822676e-02 1.6855 201.2323)" width="68.4" height="1.5"/>
							</g>
							<g>
								
									<rect x="62.5" y="99" transform="matrix(2.603183e-02 -0.9997 0.9997 2.603183e-02 -5.6165 193.8236)" width="68.4" height="1.5"/>
							</g>
							<g>
								
									<rect x="55.8" y="99.1" transform="matrix(3.255504e-02 -0.9995 0.9995 3.255504e-02 -12.7141 186.5416)" width="68.4" height="1.5"/>
							</g>
						</g>
					</g>
				</g>
			</g>
			<g class="st12">
				<g>
					<defs>
						<polygon id="SVGID_00000040561283852406227130000015057431471767901618_" points="152.2,144.7 87.8,144.7 85.5,216.2 
							154.5,216.2 						"/>
					</defs>
					<clipPath id="SVGID_00000108291043487102177990000000637231967882119811_">
						<use xlink:href="#SVGID_00000040561283852406227130000015057431471767901618_"  style="overflow:visible;"/>
					</clipPath>
					<g style="clip-path:url(#SVGID_00000108291043487102177990000000637231967882119811_);">
						<g>
							<g>
								<g>
									
										<rect x="151.9" y="144.6" transform="matrix(0.9995 -3.268632e-02 3.268632e-02 0.9995 -5.8136 5.0861)" width="1.5" height="71.5"/>
								</g>
								<g>
									
										<rect x="144.6" y="144.6" transform="matrix(0.9997 -2.541470e-02 2.541470e-02 0.9997 -4.5367 3.7523)" width="1.5" height="71.5"/>
								</g>
								<g>
									
										<rect x="137.4" y="144.6" transform="matrix(0.9998 -1.816704e-02 1.816704e-02 0.9998 -3.2535 2.5394)" width="1.5" height="71.5"/>
								</g>
								<g>
									
										<rect x="130.1" y="144.6" transform="matrix(0.9999 -1.090143e-02 1.090143e-02 0.9999 -1.9582 1.4371)" width="1.5" height="71.5"/>
								</g>
								<g>
									<rect x="122.9" y="144.6" transform="matrix(1 -3.633832e-03 3.633832e-03 1 -0.6545 0.4505)" width="1.5" height="71.5"/>
								</g>
								<g>
									
										<rect x="80.6" y="179.7" transform="matrix(3.906190e-03 -1 1 3.906190e-03 -64.5262 296.067)" width="71.5" height="1.5"/>
								</g>
								<g>
									
										<rect x="73.3" y="179.6" transform="matrix(1.041658e-02 -0.9999 0.9999 1.041658e-02 -72.4148 287.5986)" width="71.5" height="1.5"/>
								</g>
								<g>
									
										<rect x="66.1" y="179.6" transform="matrix(1.822676e-02 -0.9998 0.9998 1.822676e-02 -80.31 278.8954)" width="71.5" height="1.5"/>
								</g>
								<g>
									
										<rect x="58.9" y="179.6" transform="matrix(2.604029e-02 -0.9997 0.9997 2.604029e-02 -88.1668 270.2892)" width="71.5" height="1.5"/>
								</g>
								<g>
									
										<rect x="51.6" y="179.6" transform="matrix(3.255504e-02 -0.9995 0.9995 3.255504e-02 -95.7142 261.8161)" width="71.5" height="1.5"/>
								</g>
							</g>
						</g>
					</g>
				</g>
			</g>
		</g>
	</g>
</g>
</svg>
