<svg xmlns="http://www.w3.org/2000/svg" width="32" height="32" viewBox="0 0 32 32">
    <g>
        <g fill-rule="evenodd">
            <path fill="#aaa" d="M162 1302a16 16 0 1 1-16-16 16 16 0 0 1 16 16z" transform="translate(-130 -1286)"/>
            <path fill="#fff" d="M151.792 1306.67a2.022 2.022 0 0 1-1.413-.57l-4.379-4.29-4.381 4.29a2.031 2.031 0 0 1-2.837-.01 1.962 1.962 0 0 1 .01-2.8l5.794-5.68a2.038 2.038 0 0 1 2.827 0l5.792 5.68a1.962 1.962 0 0 1 .01 2.8 2.005 2.005 0 0 1-1.423.58z" transform="translate(-130 -1286)"/>
        </g>
    </g>
</svg>
