<svg xmlns="http://www.w3.org/2000/svg" width="24" height="24">
    <path fill="#F9D288" fill-rule="evenodd" d="M12 0c6.627 0 12 5.373 12 12s-5.373 12-12 12S0 18.627 0 12 5.373 0 12 0z"/>
    <path fill="#F2A510" fill-rule="evenodd" d="M19 10h4v4h-4v-4zm0-6l4 4h-4V4zm-6 18h4l-4 2v-2zm0-6h4v4h-4v-4zm0-6h4v4h-4v-4zm0-6h4v4h-4V4zm0-4l2 1 2 1h-4V0zm-2 22v2l-4-2h4zm-4-6h4v4H7v-4zm0-6h4v4H7v-4zm0-6h4v4H7V4zm2-3l2-1v2H7l2-1zM5 16v4l-4-4h4zm-4-6h4v4H1v-4zm4-6v4H1l4-4zm14 16v-4h4l-4 4z" opacity=".502"/>
</svg>
