<svg xmlns="http://www.w3.org/2000/svg" width="24" height="24">
    <path fill="#21A9AA" fill-rule="evenodd" d="M12 0c6.627 0 12 5.373 12 12s-5.373 12-12 12S0 18.627 0 12 5.373 0 12 0z"/>
    <path fill="#FFF" fill-rule="evenodd" d="M22 12v-2h2v2h-2zm-2-4h2v2h-2V8zm-2-2h2v2h-2V6zm-2-2h2v2h-2V4zm-2-2h2v2h-2V2zm-2-2h2v2h-2V0zm0 8h-2V6h2v2zm2 2h-2V8h2v2zm2 2h-2v-2h2v2zm2 2h-2v-2h2v2zm2 2h-2v-2h2v2zm2 2h-2v-2h2v2zM8 4h2v2H8V4zM6 2h2v2H6V2zm0 8H4V8h2v2zm2 2H6v-2h2v2zm2 2H8v-2h2v2zm2 2h-2v-2h2v2zm2 2h-2v-2h2v2zm2 2h-2v-2h2v2zm2 2h-2v-2h2v2zM2 6h2v2H2V6zm0 8H0v-2h2v2zm2 2H2v-2h2v2zm2 2H4v-2h2v2zm2 2H6v-2h2v2zm2 2H8v-2h2v2zm2 2h-2v-2h2v2z" opacity=".502"/>
</svg>
