<svg xmlns="http://www.w3.org/2000/svg" width="48" height="48" viewBox="0 0 48 48">
    <g fill="none" fill-rule="evenodd">
        <g>
            <path d="M0 0H48V48H0z"/>
            <g transform="translate(4 4)">
                <circle cx="20" cy="20" r="20" fill="#DA0F47"/>
                <g>
                    <path fill="#FFF" d="M0 9.894l12.004 14.238.775-8.59c.041-.457.238-.886.559-1.215l4.237-4.35c.376-.387.893-.605 1.433-.605h2.078c.68 0 1.233-.552 1.233-1.233 0-.321-.126-.63-.35-.86l-5.278-5.42c-.502-.515-1.328-.526-1.844-.024-.201.196-.333.451-.378.728l-.31 1.932c-.065.411-.257.791-.55 1.088L9.952 9.297c-.376.382-.89.597-1.425.597H0z" transform="translate(10 6)"/>
                    <path stroke="#FFF" stroke-linecap="round" stroke-linejoin="round" stroke-width="2" d="M8.675 14L0.008 21.272" transform="translate(10 6)"/>
                </g>
            </g>
        </g>
    </g>
</svg>
