<svg xmlns="http://www.w3.org/2000/svg" width="80" height="80" viewBox="0 0 80 80">
    <g fill="none" fill-rule="evenodd">
        <g>
            <g>
                <path d="M0 0H80V80H0z" transform="translate(-456 -1453) translate(456 1453)"/>
                <g transform="translate(-456 -1453) translate(456 1453)">
                    <rect width="77.5" height="77.5" x="1.25" y="1.25" fill="#000" fill-opacity=".5" stroke="#FFF" stroke-width="2.5" rx="38.75"/>
                    <path fill="#FFF" d="M32 52.304V27.78c0-1.105.895-2 2-2 .401 0 .793.12 1.125.346l18.394 12.509c.913.62 1.15 1.865.53 2.778-.15.218-.34.405-.56.55L35.093 53.979c-.925.604-2.164.344-2.768-.58-.213-.326-.326-.706-.326-1.095z"/>
                </g>
            </g>
        </g>
    </g>
</svg>
