<svg xmlns="http://www.w3.org/2000/svg" width="87" height="24" viewBox="0 0 87 24">
    <g fill="none" fill-rule="evenodd">
        <g fill="#000" fill-rule="nonzero">
            <g>
                <g>
                    <g>
                        <g>
                            <path d="M40.15 1.11V4.3h4.398v.832c0 3.288-1.328 5.032-4.913 6.16l1.347 3.052c2.476-.575 4.873-2.021 5.883-4.022 1.07 1.981 3.388 3.368 5.547 3.863l1.724-3.486c-3.13-.674-5.369-2.378-5.369-5.607V4.3h4.339V1.11H40.15zM60.198.674h-4.041V5.27h-3.804V8.58h3.804v8.4h3.546c.297-1.13.475-3.051.475-4.418V.674h.02zm.416 19.296H48.708c-.317 0-.416-.08-.416-.416v-4.715H44.25v6.36c0 1.386.694 2.04 2.08 2.04h14.264v-3.27h.02zm2.298-18.9v3.17h4.596v1.526c0 4.041-.832 6.577-5.012 8.42l1.585 2.812c2.397-.891 4.636-2.595 5.685-4.734 1.05 2.04 3.21 3.704 5.33 4.516l1.882-3.288c-4.062-1.526-5.468-3.903-5.468-7.746V4.24h4.477V1.07H62.912zm23.416 5.607h-4.021V.674h-3.863V23.24h3.387c.317-1.328.476-3.626.476-5.409V9.906h4.021V6.677zM6.67 22.922L15.902 22.922 15.902 18.662 5.481 18.662 5.481 1.13.449 1.13.449 22.922zM26.976 14.601h4.1v3.804c-.752.297-2.218.574-3.625.574-4.537 0-6.042-2.298-6.042-6.973 0-4.457 1.426-7.072 5.963-7.072 2.516 0 3.962.792 5.15 2.298l3.13-2.873c-1.901-2.734-5.25-3.566-8.38-3.566-7.052 0-10.756 3.843-10.756 11.173 0 7.29 3.348 11.253 10.717 11.253 3.388 0 6.696-.872 8.48-2.12V10.54h-8.737v4.061z" transform="translate(-661 -881) translate(621 124) translate(0 128) translate(40 629)"/>
                        </g>
                    </g>
                </g>
            </g>
        </g>
    </g>
</svg>
