<?xml version="1.0" encoding="UTF-8"?>
<svg width="88px" height="24px" viewBox="0 0 88 24" version="1.1" xmlns="http://www.w3.org/2000/svg" xmlns:xlink="http://www.w3.org/1999/xlink">
    <title>foot-logo</title>
    <g id="Page-1" stroke="none" stroke-width="1" fill="none" fill-rule="evenodd">
        <g id="lg-로고" fill="#6D6F71" fill-rule="nonzero">
            <g id="Group" transform="translate(0.053064, 0.323438)">
                <path d="M40.0966164,0.786763083 L40.0966164,3.97626666 L44.4945654,3.97626666 L44.4945654,4.80831107 C44.4945654,8.09686756 43.1672565,9.8401987 39.5815413,10.9694018 L40.9286608,14.0202313 C43.4049835,13.4457245 45.8020638,11.9995521 46.8124034,9.99868335 C47.8821748,11.9797415 50.2000128,13.3664822 52.3593662,13.8617467 L54.0828867,10.3750844 C50.9528149,9.70152463 48.7142192,7.99781465 48.7142192,4.76868991 L48.7142192,3.97626666 L53.0527365,3.97626666 L53.0527365,0.786763083 L40.0966164,0.786763083 Z M60.1449246,0.350930296 L56.103566,0.350930296 L56.103566,4.94698514 L52.2999344,4.94698514 L52.2999344,8.25535221 L56.103566,8.25535221 L56.103566,16.6550386 L59.6496601,16.6550386 C59.9468188,15.5258355 60.125114,13.6042091 60.125114,12.237279 L60.125114,0.350930296 L60.1449246,0.350930296 Z M60.5609468,19.6464364 L48.6547875,19.6464364 C48.3378182,19.6464364 48.2387653,19.5671941 48.2387653,19.2304142 L48.2387653,14.5154959 L44.1974067,14.5154959 L44.1974067,20.8746924 C44.1974067,22.2614331 44.8907771,22.9151823 46.2775177,22.9151823 L60.5411362,22.9151823 L60.5411362,19.6464364 L60.5609468,19.6464364 Z M62.8589742,0.747141921 L62.8589742,3.91683492 L67.4550291,3.91683492 L67.4550291,5.44224967 C67.4550291,9.48360824 66.6229847,12.0193626 62.442952,13.8617467 L64.0277985,16.6748492 C66.4248788,15.7833731 68.6634745,14.0796631 69.7134353,11.9401203 C70.7633961,13.9806102 72.9227495,15.644699 75.0424817,16.4569328 L76.9244869,13.1683763 C72.8633177,11.6429616 71.4567665,9.26569185 71.4567665,5.42243909 L71.4567665,3.91683492 L75.9339578,3.91683492 L75.9339578,0.747141921 L62.8589742,0.747141921 Z M86.2750812,6.35353641 L82.2535332,6.35353641 L82.2535332,0.350930296 L78.3904699,0.350930296 L78.3904699,22.9151823 L81.7780793,22.9151823 C82.0950486,21.5878734 82.2535332,19.2898459 82.2535332,17.5068936 L82.2535332,9.58266115 L86.2750812,9.58266115 L86.2750812,6.35353641 Z" id="Shape"></path>
                <polygon id="Path" points="6.61673413 22.598213 15.848465 22.598213 15.848465 18.338938 5.42809926 18.338938 5.42809926 0.806573664 0.396211625 0.806573664 0.396211625 22.598213"></polygon>
                <path d="M26.9225799,14.2777689 L31.0233702,14.2777689 L31.0233702,18.0814005 C30.2705681,18.3785592 28.8045851,18.6559073 27.3980338,18.6559073 C22.8614107,18.6559073 21.3558066,16.3578799 21.3558066,11.6825828 C21.3558066,7.22520198 22.7821684,4.61020526 27.3187915,4.61020526 C29.8347353,4.61020526 31.2809078,5.40262851 32.4695426,6.90823268 L35.5996145,4.0356984 C33.6977987,1.30183819 30.3498104,0.469793783 27.2197386,0.469793783 C20.1671717,0.469793783 16.462593,4.31304654 16.462593,11.6429616 C16.462593,18.9332555 19.8105812,22.8953717 27.1801174,22.8953717 C30.5677268,22.8953717 33.8760939,22.0237062 35.6590462,20.7756395 L35.6590462,10.2165997 L26.9225799,10.2165997 L26.9225799,14.2777689 L26.9225799,14.2777689 Z" id="Path"></path>
            </g>
        </g>
    </g>
</svg>