<svg xmlns="http://www.w3.org/2000/svg" width="114" height="20" viewBox="0 0 114 20">
    <defs>
        <filter id="3wtg57uiqa">
            <feColorMatrix in="SourceGraphic" values="0 0 0 0 0.133333 0 0 0 0 0.133333 0 0 0 0 0.133333 0 0 0 1.000000 0"/>
        </filter>
    </defs>
    <g fill="none" fill-rule="evenodd">
        <g>
            <g>
                <g>
                    <g>
                        <g filter="url(#3wtg57uiqa)" transform="translate(-64 -76) translate(48 68)">
                            <g>
                                <path d="M0 0H113V20H0z" transform="translate(16 8)"/>
                                <path fill="#111" d="M34 13.348v-.865c0-.028-.002-.054-.004-.078l-.001-.022c-.04-1.645-.966-2.55-2.61-2.55l-4.958-.002c-.683-.022-1.089-.446-1.09-1.14V7.418l.002-.027c.015-.622.515-1.052 1.217-1.052h6.771V5h-6.712c-1.378 0-2.277.677-2.536 1.906-.053.245-.079.49-.079.748v.865c0 .017 0 .034.002.05v.054c.04 1.641.968 2.545 2.613 2.545l4.957.002c.69.025 1.087.437 1.092 1.14v1.275c0 .013-.002.025-.004.031-.015.618-.514 1.048-1.217 1.048h-7.17V16h7.116c1.374 0 2.273-.678 2.53-1.906.054-.237.081-.487.081-.746M37 16L38 16 38 5 37 5zM50 9.904h-5.09v1.32h3.728v1.736c0 1.147-.567 1.704-1.732 1.704h-3.811c-1.066 0-1.73-.653-1.73-1.704V8.039c0-1.074.664-1.742 1.73-1.742h6.314V5h-6.26C41.149 5 40 6.18 40 8.237v4.522C40 14.819 41.15 16 43.149 16h3.7C48.88 16 50 14.85 50 12.759V9.904zM70.43 13.296L71.57 16H73L68.278 5h-1.556L62 16h1.414l1.145-2.704h5.87zM67.503 6L70 12h-5l2.504-6zM62 15.99L62 5 60.635 5 60.635 14.365 53.778 5.009 52 5.009 52 16 53.336 16 53.336 6.64 60.169 15.99zM81 5L72 5 72 6.303 75.818 6.303 75.818 16 77.181 16 77.181 6.303 81 6.303zM92 5h-1.338v7.664c0 1.309-.617 2.001-1.786 2.001h-2.753c-1.168 0-1.786-.692-1.786-2.003V5H83v7.5c0 2.324 1.058 3.5 3.143 3.5h2.646C90.919 16 92 14.824 92 12.5V5zM102.577 16h1.42c-.118-1.776-.746-3.1-1.872-3.938l-.11-.083.131-.035c.846-.228 1.854-.876 1.854-2.675V7.834C104 5.979 103.007 5 101.126 5H94v10.97h1.416v-3.935h3.34c2.839 0 3.789 2.626 3.821 3.965zM95 6h5.527c.907 0 1.471.471 1.471 1.232L102 8.768c0 .783-.514 1.232-1.409 1.232H95V6zM114 6.291L114 5 105 5 105 16 114 16 114 14.703 106.394 14.703 106.394 11.136 113.848 11.136 113.848 9.837 106.394 9.837 106.394 6.291zM0 4L0 16 7 16 7 13.663 2.279 13.663 2.279 4zM13.45 11.385h2.134v2.038c-.393.154-1.16.308-1.89.308-2.36 0-3.147-1.232-3.147-3.731 0-2.385.749-3.789 3.108-3.789 1.312 0 2.06.423 2.678 1.231l1.63-1.538C16.97 4.443 15.228 4 13.6 4 9.93 4 8 6.057 8 9.98 8 13.885 9.742 16 13.58 16c1.76 0 3.484-.462 4.42-1.134V9.212h-4.55v2.173z" transform="translate(16 8)"/>
                            </g>
                        </g>
                    </g>
                </g>
            </g>
        </g>
    </g>
</svg>
