<svg xmlns="http://www.w3.org/2000/svg" width="1173.5" height="221.5">
    <path fill="#FFF" fill-rule="evenodd" stroke="#DDD" d="M4.49.488h1164c2.209 0 4 1.791 4 4v212c0 2.21-1.791 4.001-4 4.001H4.49c-2.21 0-4-1.791-4-4.001v-212c0-2.209 1.79-4 4-4z"/>
    <path fill="#111" fill-rule="evenodd" d="M309.5 111.499h-8v8c0 .552-.448.999-1 .999-.553 0-1-.447-1-.999v-8h-8c-.553 0-1-.448-1-1 0-.553.447-1 1-1h8v-8c0-.553.447-1 1-1 .552 0 1 .447 1 1v8h8c.552 0 1 .447 1 1 0 .552-.448 1-1 1zM580.5 111.499h-8v8c0 .552-.448.999-1 .999-.553 0-1-.447-1-.999v-8h-8c-.553 0-1-.448-1-1 0-.553.447-1 1-1h8v-8c0-.553.447-1 1-1 .552 0 1 .447 1 1v8h8c.552 0 1 .447 1 1 0 .552-.448 1-1 1zM850.5 109.499h-18c-.553 0-1-.448-1-1s.447-1 1-1h18c.552 0 1 .448 1 1s-.448 1-1 1zm-18 5h18c.552 0 1 .448 1 1 0 .553-.448 1-1 1h-18c-.552 0-1-.447-1-1 0-.552.448-1 1-1zM976.5 35.5c41.421 0 75 33.578 75 75 0 41.42-33.579 74.999-75 74.999s-75-33.579-75-74.999c0-41.422 33.579-75 75-75z"/>
    <text x="938.5" y="116.629" fill="#FFF" font-family="Noto Sans CJK KR" font-size="18" font-weight="bold">
        서비스 요금
    </text>
    <path fill="#F4F4F4" fill-rule="evenodd" d="M706.5 35.5c41.421 0 75 33.578 75 75 0 41.42-33.579 74.999-75 74.999s-75-33.579-75-74.999c0-41.422 33.579-75 75-75z"/>
    <text x="658.5" y="134.5" fill="#111" font-family="Noto Sans CJK KR" font-size="18" font-weight="bold">
        <tspan dy="-28.938">출장비</tspan><tspan x="658.5" dy="1.444em">(출장 서비스)</tspan>
    </text>
    <path fill="#F4F4F4" fill-rule="evenodd" d="M436.5 35.5c41.421 0 75 33.578 75 75 0 41.42-33.579 74.999-75 74.999s-75-33.579-75-74.999c0-41.422 33.579-75 75-75z"/>
    <text x="398.5" y="134.5" fill="#111" font-family="Noto Sans CJK KR" font-size="18" font-weight="bold">
        <tspan dy="-28.938">수리비</tspan><tspan x="398.5" dy="1.444em">(수리공수)</tspan>
    </text>
    <path fill="#F4F4F4" fill-rule="evenodd" d="M166.5 35.5c41.421 0 75 33.578 75 75 0 41.42-33.579 74.999-75 74.999s-75-33.579-75-74.999c0-41.422 33.579-75 75-75z"/>
    <text x="143.5" y="116.629" fill="#111" font-family="Noto Sans CJK KR" font-size="18" font-weight="bold">
        부품비
    </text>
</svg>
