<svg xmlns="http://www.w3.org/2000/svg" width="24" height="24" viewBox="0 0 24 24">
    <g fill="none" fill-rule="evenodd">
        <g>
            <g>
                <g transform="translate(-682 -1242) translate(318 741) translate(364 501)">
                    <path d="M0 0H24V24H0z"/>
                    <circle cx="12" cy="12" r="11" fill="#FFF"/>
                    <path fill="#000" d="M12 7c.377 0 .682.305.682.682l-.001 3.636h3.637c.377 0 .682.305.682.682 0 .377-.305.682-.682.682l-3.637-.001v3.637c0 .377-.304.682-.681.682-.377 0-.682-.305-.682-.682v-3.637H7.682C7.305 12.682 7 12.378 7 12c0-.377.305-.682.682-.682h3.636V7.682c0-.377.305-.682.682-.682z"/>
                </g>
            </g>
        </g>
    </g>
</svg>
