<svg xmlns="http://www.w3.org/2000/svg" width="32" height="32" viewBox="0 0 32 32">
    <g fill="none" fill-rule="evenodd">
        <g>
            <g>
                <g>
                    <g>
                        <g>
                            <g>
                                <g>
                                    <path d="M0 0H32V32H0z" transform="translate(-558 -1444) translate(0 156) translate(510 656) translate(48 628) translate(0 4)"/>
                                    <path fill="#EC455A" d="M3.704 16.755c-3.029-3.748-2.02-9.37 3.028-11.244 5.048-1.874 8.077 1.874 9.086 3.748 1.01-1.874 5.048-5.622 10.096-3.748 5.048 1.874 5.048 7.496 2.02 11.244C24.903 20.504 15.817 28 15.817 28S6.732 20.504 3.704 16.755z" transform="translate(-558 -1444) translate(0 156) translate(510 656) translate(48 628) translate(0 4)"/>
                                </g>
                            </g>
                        </g>
                    </g>
                </g>
            </g>
        </g>
    </g>
</svg>
