<svg width="24" height="24" viewBox="0 0 24 24" xmlns="http://www.w3.org/2000/svg">
    <g fill="none" fill-rule="evenodd">
        <path d="M0 0h24v24H0z"/>
        <path d="M22 12a9.976 9.976 0 0 1-.761 3.827 9.976 9.976 0 0 1-2.168 3.244 9.976 9.976 0 0 1-3.244 2.168A9.976 9.976 0 0 1 12 22a9.976 9.976 0 0 1-3.827-.761A9.976 9.976 0 0 1 4.93 19.07a9.976 9.976 0 0 1-2.168-3.244A9.976 9.976 0 0 1 2 12a9.976 9.976 0 0 1 .761-3.827A9.976 9.976 0 0 1 4.93 4.93 9.976 9.976 0 0 1 8.173 2.76 9.976 9.976 0 0 1 12 2a9.976 9.976 0 0 1 3.827.761A9.976 9.976 0 0 1 19.07 4.93a9.976 9.976 0 0 1 2.168 3.244A9.976 9.976 0 0 1 22 12z" fill="#000"/>
        <path stroke="#FFF" stroke-linecap="round" stroke-linejoin="round" d="m8 12.486 3.068 3.014L17 9.5"/>
    </g>
</svg>
