<svg xmlns="http://www.w3.org/2000/svg" width="16" height="16" viewBox="0 0 16 16">
    <g fill="none" fill-rule="evenodd">
        <g>
            <g>
                <g>
                    <g>
                        <g>
                            <g>
                                <g>
                                    <g>
                                        <g>
                                            <g>
                                                <path d="M0 0H16V16H0z" transform="translate(-1594 -887) translate(504 512) translate(0 162) translate(33 100) translate(318) translate(696 109) translate(43 4)"/>
                                                <g fill="#EC455A" transform="translate(-1594 -887) translate(504 512) translate(0 162) translate(33 100) translate(318) translate(696 109) translate(43 4) translate(2 3)">
                                                    <rect width="10" height="1.5" x=".447" y="5.104" rx=".75"/>
                                                    <path d="M1.197 5.104h8.5c.414 0 .75.335.75.75 0 .414-.336.75-.75.75h-8.5c-.415 0-.75-.336-.75-.75 0-.415.335-.75.75-.75z" transform="rotate(90 5.447 5.854)"/>
                                                </g>
                                            </g>
                                        </g>
                                    </g>
                                </g>
                            </g>
                        </g>
                    </g>
                </g>
            </g>
        </g>
    </g>
</svg>
