<svg xmlns="http://www.w3.org/2000/svg" width="52" height="52" viewBox="0 0 52 52">
    <g fill="none" fill-rule="evenodd">
        <g>
            <g>
                <path fill="#F4F4F4" stroke="#DDD" d="M26 .5C18.958.5 12.583 3.354 7.969 7.969 3.354 12.583.5 18.959.5 26c0 7.042 2.854 13.417 7.469 18.031C12.583 48.646 18.959 51.5 26 51.5c7.042 0 13.417-2.854 18.031-7.469C48.646 39.417 51.5 33.041 51.5 26c0-7.042-2.854-13.417-7.469-18.031C39.417 3.354 33.041.5 26 .5z" transform="translate(-147 -463) translate(147 463)"/>
                <g>
                    <path d="M0 0H36V36H0z" transform="translate(-147 -463) translate(147 463) translate(8 8)"/>
                    <g>
                        <g>
                            <path d="M0 0L25.846 0 25.846 26 0 26z" transform="translate(-147 -463) translate(147 463) translate(8 8) translate(3 6)"/>
                            <g transform="translate(-147 -463) translate(147 463) translate(8 8) translate(3 6) translate(1 2)">
                                <path stroke="#212121" stroke-linecap="round" stroke-linejoin="round" stroke-width="2" d="M14 4.358c7.379-.064 11.06-.064 11.046 0l-1.484 8.486c-.374 1.614-1.805 2.756-3.452 2.756h-9.263c-1.65 0-3.08-1.144-3.453-2.76L4.431 0H0"/>
                                <ellipse cx="20.031" cy="20.15" fill="#222" rx="1.938" ry="1.95"/>
                                <ellipse cx="9.692" cy="20.15" fill="#222" rx="1.938" ry="1.95"/>
                            </g>
                        </g>
                    </g>
                </g>
            </g>
        </g>
    </g>
</svg>
