<svg xmlns="http://www.w3.org/2000/svg" width="52" height="52" viewBox="0 0 52 52">
    <g fill="none" fill-rule="evenodd">
        <g>
            <g>
                <path fill="#F4F4F4" stroke="#DDD" d="M26 .5C18.958.5 12.583 3.354 7.969 7.969 3.354 12.583.5 18.959.5 26c0 7.042 2.854 13.417 7.469 18.031C12.583 48.646 18.959 51.5 26 51.5c7.042 0 13.417-2.854 18.031-7.469C48.646 39.417 51.5 33.041 51.5 26c0-7.042-2.854-13.417-7.469-18.031C39.417 3.354 33.041.5 26 .5z" transform="translate(-87 -463) translate(87 463)"/>
                <path stroke="#222" stroke-linecap="round" stroke-linejoin="round" stroke-width="2" d="M14.582 26.828c-2.812-3.453-1.875-8.631 2.812-10.358 4.688-1.726 7.5 1.727 8.437 3.453.938-1.726 4.688-5.179 9.375-3.453 4.687 1.727 4.687 6.905 1.875 10.358-2.813 3.452-11.25 10.357-11.25 10.357s-8.437-6.905-11.25-10.357z" transform="translate(-87 -463) translate(87 463)"/>
            </g>
        </g>
    </g>
</svg>
