<svg xmlns="http://www.w3.org/2000/svg" width="16" height="16" viewBox="0 0 16 16">
    <g fill="none" fill-rule="evenodd">
        <g>
            <g>
                <g>
                    <g>
                        <g>
                            <path d="M0 0H16V16H0z" transform="translate(-505 -1016) translate(270 685) translate(0 295) translate(155 24) translate(80 12)"/>
                            <g>
                                <path fill="#AAA" d="M7 .5c-3.871 0-7 3.129-7 7s3.129 7 7 7 7-3.129 7-7-3.129-7-7-7z" transform="translate(-505 -1016) translate(270 685) translate(0 295) translate(155 24) translate(80 12) translate(1 .5)"/>
                                <path stroke="#FFF" stroke-linecap="round" stroke-linejoin="round" d="M9.121 5.379L4.879 9.621M4.879 5.379L9.121 9.621" transform="translate(-505 -1016) translate(270 685) translate(0 295) translate(155 24) translate(80 12) translate(1 .5)"/>
                            </g>
                        </g>
                    </g>
                </g>
            </g>
        </g>
    </g>
</svg>
