<svg xmlns="http://www.w3.org/2000/svg" width="16" height="16" viewBox="0 0 16 16">
    <g fill="none" fill-rule="evenodd">
        <g>
            <g>
                <g>
                    <g>
                        <g>
                            <path d="M0 0H16V16H0z" transform="translate(-664 -990) translate(640 966) translate(24 24)"/>
                            <path fill="#FFF" d="M5.236 2.803l7.732 5.026c.37.241.476.737.235 1.107-.061.094-.141.174-.235.235l-7.732 5.026c-.37.24-.866.135-1.107-.235-.084-.13-.129-.281-.129-.436V3.474c0-.442.358-.8.8-.8.155 0 .306.045.436.13z" transform="translate(-664 -990) translate(640 966) translate(24 24)"/>
                        </g>
                    </g>
                </g>
            </g>
        </g>
    </g>
</svg>
