<svg xmlns="http://www.w3.org/2000/svg" width="24" height="24" viewBox="0 0 24 24">
    <g fill="none" fill-rule="evenodd">
        <g>
            <g>
                <g>
                    <g>
                        <g>
                            <path d="M0 0H24V24H0z" transform="translate(-1403 -754) translate(511 225) translate(0 505) translate(769) translate(123 24)"/>
                            <path fill="#DA0F47" d="M15.436 5C17.956 5 20 7.092 20 9.674c0 1.172-.421 2.243-1.117 3.063h-.002c-.12.142-.242.27-.371.391l.371-.39c-2.161 2.274-4.099 4.276-5.812 6.006-.355.357-.912.326-1.291-.003-2.795-2.43-5.089-4.555-6.387-5.815-.088-.084-.164-.168-.23-.25C4.438 11.862 4 10.781 4 9.594 4 7.057 6.009 5 8.486 5c1.467 0 2.624.72 3.324 1.835C12.644 5.72 13.958 5 15.436 5z" transform="translate(-1403 -754) translate(511 225) translate(0 505) translate(769) translate(123 24)"/>
                        </g>
                    </g>
                </g>
            </g>
        </g>
    </g>
</svg>
