<svg xmlns="http://www.w3.org/2000/svg" width="24" height="24" viewBox="0 0 24 24">
    <g fill="none" fill-rule="evenodd">
        <g>
            <g>
                <g>
                    <g>
                        <g>
                            <path d="M0 0H24V24H0z" transform="translate(-136 -132) translate(116 112) translate(20 20)"/>
                            <g fill="#FFF">
                                <path d="M0 17.695V2.36c0-.663.537-1.2 1.2-1.2.254 0 .501.08.707.23l10.735 7.822c.536.39.653 1.14.263 1.677-.078.107-.173.2-.282.276L1.888 18.678c-.543.38-1.291.248-1.671-.295-.141-.201-.217-.442-.217-.688z" transform="translate(-136 -132) translate(116 112) translate(20 20) translate(7 2)"/>
                            </g>
                        </g>
                    </g>
                </g>
            </g>
        </g>
    </g>
</svg>
