<svg xmlns="http://www.w3.org/2000/svg" width="24" height="24" viewBox="0 0 24 24">
    <g fill="none" fill-rule="evenodd">
        <g>
            <g>
                <g>
                    <g>
                        <g>
                            <g>
                                <path d="M0 0H24V24H0z" transform="translate(-1488 -674) translate(596 203) translate(0 446) translate(0 1) translate(812) translate(80 24)"/>
                                <g fill="#AAA" fill-rule="nonzero">
                                    <g>
                                        <path d="M14.688 0c-1.086 0-2.08.35-2.958 1.042-.84.663-1.4 1.507-1.73 2.121-.33-.614-.89-1.458-1.73-2.12C7.393.35 6.398 0 5.313 0 2.283 0 0 2.525 0 5.874c0 3.619 2.85 6.094 7.163 9.841.732.637 1.563 1.358 2.426 2.128.113.101.26.157.411.157.152 0 .298-.056.411-.157.863-.77 1.694-1.491 2.427-2.128C17.15 11.968 20 9.493 20 5.875 20 2.524 17.716 0 14.687 0z" transform="translate(-1488 -674) translate(596 203) translate(0 446) translate(0 1) translate(812) translate(80 24) translate(2 3)"/>
                                    </g>
                                </g>
                            </g>
                        </g>
                    </g>
                </g>
            </g>
        </g>
    </g>
</svg>
