<?xml version="1.0" encoding="UTF-8"?>
<svg width="20px" height="20px" viewBox="0 0 20 20" version="1.1" xmlns="http://www.w3.org/2000/svg" xmlns:xlink="http://www.w3.org/1999/xlink">
    <title>btn-more-20-gray</title>
    <g id="Page-1" stroke="none" stroke-width="1" fill="none" fill-rule="evenodd">
        <g id="btn_more_20-copy-12">
            <rect id="Rectangle" x="0" y="0" width="20" height="20"></rect>
            <g id="Group-2" transform="translate(2.000000, 2.000000)">
                <rect id="Rectangle" x="0" y="0" width="16" height="16"></rect>
                <path d="M13.25,7 C13.6642136,7 14,7.33578644 14,7.75 C14,8.16421356 13.6642136,8.5 13.25,8.5 L2.75,8.5 C2.33578644,8.5 2,8.16421356 2,7.75 C2,7.33578644 2.33578644,7 2.75,7 L13.25,7 Z" id="Rectangle" fill="#767676" fill-rule="nonzero"></path>
                <path d="M13.25,7 C13.6642136,7 14,7.33578644 14,7.75 C14,8.16421356 13.6642136,8.5 13.25,8.5 L2.75,8.5 C2.33578644,8.5 2,8.16421356 2,7.75 C2,7.33578644 2.33578644,7 2.75,7 L13.25,7 Z" id="Rectangle" fill="#767676" fill-rule="nonzero" transform="translate(8.000000, 7.750000) rotate(-270.000000) translate(-8.000000, -7.750000) "></path>
            </g>
        </g>
    </g>
</svg>