<svg id="img_dishwasher_MO_80" xmlns="http://www.w3.org/2000/svg" width="80" height="80" viewBox="0 0 80 80">
  <g id="img_dishwasher_MO_80-2" data-name="img_dishwasher_MO_80">
    <g id="ic_dishwasher_MO_80">
      <g id="ic_dishwasher_40">
        <path id="ic_dishwasher_40-2" data-name="ic_dishwasher_40" d="M0,80H80V0H0Z" fill="none"/>
        <g id="icon" transform="translate(10 11)">
          <g id="Group_3" data-name="Group 3">
            <path id="Rectangle" d="M0,8.153V1.282A1.282,1.282,0,0,1,1.282,0H51.218A1.282,1.282,0,0,1,52.5,1.282V17.718A1.282,1.282,0,0,1,51.218,19H1.282A1.282,1.282,0,0,1,0,17.718V8.153Z" transform="translate(3.75)" fill="none" stroke="#fff" stroke-linecap="round" stroke-linejoin="round" stroke-miterlimit="10" stroke-width="3"/>
            <path id="Rectangle-2" data-name="Rectangle" d="M3.623-1.14A1.282,1.282,0,0,0,4.9,0H55.1a1.282,1.282,0,0,0,1.274-1.14L60-33.75H0Z" transform="translate(0 58.375)" fill="none" stroke="#fff" stroke-linecap="round" stroke-linejoin="round" stroke-miterlimit="10" stroke-width="3"/>
            <path id="Line" d="M.975.938h46.8" transform="translate(5.625 9.375)" fill="none" stroke="#fff" stroke-linecap="square" stroke-miterlimit="10" stroke-width="3"/>
            <rect id="Rectangle-3" data-name="Rectangle" width="60" height="5.625" transform="translate(0 19)" fill="none" stroke="#fff" stroke-linejoin="round" stroke-miterlimit="10" stroke-width="3"/>
            <rect id="Rectangle-4" data-name="Rectangle" width="7.5" height="2.813" rx="1.406" transform="translate(45 3.75)" fill="#fff"/>
          </g>
        </g>
      </g>
    </g>
  </g>
</svg>
