<svg xmlns="http://www.w3.org/2000/svg" width="80" height="80" viewBox="0 0 80 80">
    <g fill="none" fill-rule="evenodd">
        <g stroke="#000" stroke-linecap="round" stroke-linejoin="round">
            <path stroke-width="3" d="M68 40c0-15.464-12.536-28-28-28-11.855 0-21.99 7.367-26.074 17.773"/>
            <path stroke-width="2.706" d="M72.825 36l-4.923 5.413L62 36.843"/>
        </g>
        <g stroke="#000" stroke-linecap="round" stroke-linejoin="round">
            <path stroke-width="3" d="M11.926 40c0 15.464 12.536 28 28 28C51.781 68 61.916 60.633 66 50.227"/>
            <path stroke-width="2.706" d="M7.101 44l4.923-5.413 5.902 4.57"/>
        </g>
        <path fill="#000" fill-rule="nonzero" d="M30.224 46.064c2.608 0 4.592-1.104 4.592-3.488 0-1.6-.944-2.496-2.224-2.8v-.08c1.008-.352 1.616-1.472 1.616-2.56 0-2.208-1.856-2.912-4.288-2.912H26v11.84h4.224zm-.48-7.024h-1.376v-3.008h1.408c1.424 0 2.128.416 2.128 1.456 0 .944-.656 1.552-2.16 1.552zm.272 5.2h-1.648V40.8h1.648c1.632 0 2.496.48 2.496 1.632 0 1.232-.88 1.808-2.496 1.808zm14.048 1.824V44.08h-2.576c-.544 0-1.328.064-1.92.128 2.16-2.112 3.936-4.416 3.936-6.56 0-2.208-1.488-3.648-3.728-3.648-1.616 0-2.672.64-3.76 1.792l1.28 1.28c.592-.656 1.312-1.216 2.176-1.216 1.12 0 1.776.72 1.776 1.92 0 1.824-1.904 4.048-5.12 6.928v1.36h7.936zm6.48 0c2.608 0 4.592-1.104 4.592-3.488 0-1.6-.944-2.496-2.224-2.8v-.08c1.008-.352 1.616-1.472 1.616-2.56 0-2.208-1.856-2.912-4.288-2.912h-3.92v11.84h4.224zm-.48-7.024h-1.376v-3.008h1.408c1.424 0 2.128.416 2.128 1.456 0 .944-.656 1.552-2.16 1.552zm.272 5.2h-1.648V40.8h1.648c1.632 0 2.496.48 2.496 1.632 0 1.232-.88 1.808-2.496 1.808z"/>
    </g>
</svg>
