<svg id="img_computer_MO_80" xmlns="http://www.w3.org/2000/svg" width="80" height="80" viewBox="0 0 80 80">
  <g id="img_computer_MO_80-2" data-name="img_computer_MO_80">
    <g id="ic_computer_MO_80">
      <g id="ic_Computer_40">
        <path id="guidebox" d="M0,80H80V0H0Z" fill="none"/>
        <g id="Group_13" data-name="Group 13" transform="translate(12 12)">
          <path id="Stroke_1" data-name="Stroke 1" d="M0,11.683c0-1.527-.01-5.019,0-8.532A3.228,3.228,0,0,1,.927.926,3.128,3.128,0,0,1,3.147,0H52.858A3.156,3.156,0,0,1,56,3.151v35.7A3.156,3.156,0,0,1,52.858,42H3.147A3.156,3.156,0,0,1,0,38.848V11.683Z" fill="none" stroke="#fff" stroke-linecap="round" stroke-linejoin="round" stroke-miterlimit="10" stroke-width="3"/>
          <path id="Stroke_3" data-name="Stroke 3" d="M0,.973l33.661.053H56" transform="translate(0 32.49)" fill="none" stroke="#fff" stroke-linecap="round" stroke-linejoin="round" stroke-miterlimit="10" stroke-width="3"/>
          <g id="Group" transform="translate(18 42)">
            <path id="Stroke_7" data-name="Stroke 7" d="M4.288,0,0,12" transform="translate(0)" fill="none" stroke="#fff" stroke-linecap="round" stroke-linejoin="round" stroke-miterlimit="10" stroke-width="3"/>
            <path id="Stroke_9" data-name="Stroke 9" d="M0,0,4.816,12" transform="translate(15.184)" fill="none" stroke="#fff" stroke-linecap="round" stroke-linejoin="round" stroke-miterlimit="10" stroke-width="3"/>
            <path id="Stroke_11" data-name="Stroke 11" d="M0,2.528H20" transform="translate(0 9.446)" fill="none" stroke="#fff" stroke-linecap="round" stroke-linejoin="round" stroke-miterlimit="10" stroke-width="3"/>
          </g>
        </g>
      </g>
    </g>
  </g>
</svg>
