<svg xmlns="http://www.w3.org/2000/svg" width="80" height="80" viewBox="0 0 80 80">
  <defs>
    <style>
      .cls-1 {
        opacity: 0;
      }

      .cls-2 {
        fill: #fff;
        fill-rule: evenodd;
      }
    </style>
  </defs>
  <g id="cate_icon_b2b-products_w">
    <rect id="icon_area" class="cls-1" width="80" height="80"/>
    <path class="cls-2" d="M661.393,35.5a1.36,1.36,0,0,0-1.918.091l-2.428,2.659a29.635,29.635,0,0,0-57.092-8.524,1.505,1.505,0,0,0,2.8,1.1,26.624,26.624,0,0,1,51.333,8.266l-3.647-2.814a1.355,1.355,0,1,0-1.663,2.14l5.924,4.57a1.363,1.363,0,0,0,1.837-.159l4.941-5.413A1.349,1.349,0,0,0,661.393,35.5ZM654.179,49.33a1.505,1.505,0,0,0-1.952.849,26.624,26.624,0,0,1-51.333-8.265l3.646,2.813a1.355,1.355,0,1,0,1.664-2.139l-5.924-4.571a1.363,1.363,0,0,0-1.837.16L593.5,43.59a1.356,1.356,0,0,0,2.01,1.82l2.427-2.659a29.635,29.635,0,0,0,57.093,8.523A1.5,1.5,0,0,0,654.179,49.33ZM642.113,37.636c0-2.208-1.863-2.912-4.3-2.912h-3.935v11.84h4.24c2.618,0,4.609-1.1,4.609-3.488a2.694,2.694,0,0,0-2.232-2.8V40.2A2.685,2.685,0,0,0,642.113,37.636Zm-5.862-1.1h1.413c1.43,0,2.136.416,2.136,1.456,0,0.944-.658,1.552-2.168,1.552h-1.381V36.532Zm1.654,8.208h-1.654V41.3h1.654c1.638,0,2.506.48,2.506,1.632C640.411,44.164,639.527,44.74,637.905,44.74ZM627.3,34.5a4.826,4.826,0,0,0-3.774,1.792l1.285,1.28A3.081,3.081,0,0,1,627,36.356a1.7,1.7,0,0,1,1.783,1.92c0,1.824-1.912,4.048-5.14,6.928v1.36h7.966V44.58h-2.585c-0.546,0-1.333.064-1.928,0.128,2.169-2.112,3.951-4.416,3.951-6.56A3.48,3.48,0,0,0,627.3,34.5Zm-5.589,3.136c0-2.208-1.863-2.912-4.3-2.912h-3.935v11.84h4.24c2.618,0,4.609-1.1,4.609-3.488a2.694,2.694,0,0,0-2.232-2.8V40.2A2.685,2.685,0,0,0,621.716,37.636Zm-5.862-1.1h1.413c1.43,0,2.136.416,2.136,1.456,0,0.944-.658,1.552-2.168,1.552h-1.381V36.532Zm1.654,8.208h-1.654V41.3h1.654c1.638,0,2.506.48,2.506,1.632C620.014,44.164,619.13,44.74,617.508,44.74Z" transform="translate(-587)"/>
  </g>
</svg>
