<svg xmlns="http://www.w3.org/2000/svg" width="80" height="80" viewBox="0 0 80 80">
  <defs>
    <style>
      .cls-1 {
        opacity: 0;
      }

      .cls-2 {
        fill: #fff;
        fill-rule: evenodd;
      }
    </style>
  </defs>
  <g id="cate_icon_health-care_w">
    <rect id="icon_area" class="cls-1" width="80" height="80"/>
    <path class="cls-2" d="M303.045,132.177l1.694-5.758a4.892,4.892,0,0,0-5.786-6.136l-6.9,1.56h0a4.908,4.908,0,0,0-3.179,2.354l-3.581,6.3a21.906,21.906,0,0,0-10.6,5.406l-11.323,11.406a14.475,14.475,0,0,0-3.143,4.978h-0.175c-6.04,0-9.257,5.692-9.257,9.8v6.07a9.465,9.465,0,0,0-5.064,4.41l-0.266.5A4.032,4.032,0,0,0,249.048,179h46.565c5.837,0,7.6,0,8.291-1.619,0.654-1.53-.658-2.892-2.838-5.154l-9.585-9.808a36.975,36.975,0,0,0,5.781-10.406Zm-11.559-6.5a1.915,1.915,0,0,1,1.234-.916l6.9-1.56a1.9,1.9,0,0,1,2.275,1.432,1.871,1.871,0,0,1-.03.948l-1.379,4.688H288.877ZM253.8,167.543v-5.45c0-2.6,1.95-6.3,5.5-6.764v12.214h-5.5Zm5.5,8.472H249.048a1.05,1.05,0,0,1-1.05-1.048,1.064,1.064,0,0,1,.124-0.494l0.266-.5a6.5,6.5,0,0,1,5.751-3.443h5.166v5.484Zm41.131-.074c-1.11.074-2.877,0.074-4.823,0.074H262.3v-5.484h11.286c0.48,0,.972,0,1.471,0,4.9,0,8.129-.18,12.326-3.391l0,0a18.628,18.628,0,0,0,2.331-2.235l9.191,9.405C299.327,174.74,299.956,175.392,300.436,175.941Zm-13.617-12.609a11.432,11.432,0,0,1-4.145,3.1c-2.589,1.113-6.055,1.111-9.181,1.113H262.3v-10.18a11.416,11.416,0,0,1,3.222-7.962L276.8,138.047c2.354-2.21,6.683-4.792,11.139-4.792h11.674l-5.184,17.794A36.087,36.087,0,0,1,286.819,163.332Z" transform="translate(-235 -110)"/>
  </g>
</svg>
