<svg xmlns="http://www.w3.org/2000/svg" width="80" height="80" viewBox="0 0 80 80">
  <defs>
    <style>
      .cls-1 {
        opacity: 0;
      }

      .cls-2 {
        fill: #fff;
        fill-rule: evenodd;
      }
    </style>
  </defs>
  <g id="cate_icon_av-audio_w">
    <rect id="icon_area" class="cls-1" width="80" height="80"/>
    <path class="cls-2" d="M292.5,7h-34a4.505,4.505,0,0,0-4.5,4.5v58a4.505,4.505,0,0,0,4.5,4.5h34a4.505,4.505,0,0,0,4.5-4.5v-58A4.505,4.505,0,0,0,292.5,7ZM294,69.5a1.5,1.5,0,0,1-1.5,1.5h-34a1.5,1.5,0,0,1-1.5-1.5v-58a1.5,1.5,0,0,1,1.5-1.5h34a1.5,1.5,0,0,1,1.5,1.5v58ZM275.5,39A13.5,13.5,0,1,0,289,52.5,13.515,13.515,0,0,0,275.5,39Zm0,24A10.5,10.5,0,1,1,286,52.5,10.512,10.512,0,0,1,275.5,63Zm0.023-19.5a9,9,0,1,0,9,9A9.01,9.01,0,0,0,275.523,43.5Zm0,15a6,6,0,1,1,6-6A6.007,6.007,0,0,1,275.523,58.5ZM275.5,36a9.5,9.5,0,1,0-9.5-9.5A9.511,9.511,0,0,0,275.5,36Zm0-16a6.5,6.5,0,1,1-6.5,6.5A6.508,6.508,0,0,1,275.5,20Z" transform="translate(-235)"/>
  </g>
</svg>
