<svg xmlns="http://www.w3.org/2000/svg" width="80" height="80" viewBox="0 0 80 80">
    <path fill="none" fill-rule="evenodd" stroke="#000" stroke-width="3" d="M23.591 16.379c-3.811 2.994-9.591 7.808-8.863 19.65.716 11.654 2.272 21.765 6.533 28.448 1.846 2.895 7.574 5.254 11.155 6.08 11.945 2.753 24.2.694 26.892-5.257s-.094-40.673-10.144-49.7c-10.05-9.029-21.76-2.215-25.573.78zm-6.175 38.208c9.379 10.924 23.17 14.194 41.371 9.81M16.312 46.631C30.04 39.954 44.199 38.077 58.787 41m-43.748-1c12.432-7.892 26.367-10.632 41.804-8.218"/>
</svg>
