<svg xmlns="http://www.w3.org/2000/svg" width="80" height="80" viewBox="0 0 80 80">
  <defs>
    <style>
      .cls-1 {
        opacity: 0.2;
      }

      .cls-2 {
        opacity: 0;
      }

      .cls-3 {
        fill: #fff;
        fill-rule: evenodd;
      }
    </style>
  </defs>
  <g id="cate_icon_refrigerator_w" class="cls-1">
    <rect id="icon_area" class="cls-2" width="80" height="80"/>
    <path class="cls-3" d="M526.5,7h-34a4.505,4.505,0,0,0-4.5,4.5v58a4.505,4.505,0,0,0,4.5,4.5h34a4.505,4.505,0,0,0,4.5-4.5v-58A4.505,4.505,0,0,0,526.5,7Zm1.5,4.5V43H511V10h15.5A1.5,1.5,0,0,1,528,11.5ZM492.5,10H508V43H491V11.5A1.5,1.5,0,0,1,492.5,10ZM491,69.5V46h17V71H492.5A1.5,1.5,0,0,1,491,69.5ZM526.5,71H511V46h17V69.5A1.5,1.5,0,0,1,526.5,71Zm-10-33h6a3.5,3.5,0,0,0,3.5-3.5v-16a3.5,3.5,0,0,0-3.5-3.5h-6a3.5,3.5,0,0,0-3.5,3.5v16A3.5,3.5,0,0,0,516.5,38ZM516,18.5a0.5,0.5,0,0,1,.5-0.5h6a0.5,0.5,0,0,1,.5.5v16a0.5,0.5,0,0,1-.5.5h-6a0.5,0.5,0,0,1-.5-0.5v-16Z" transform="translate(-469)"/>
  </g>
</svg>
