<svg xmlns="http://www.w3.org/2000/svg" width="80" height="80" viewBox="0 0 80 80">
    <g fill="none" fill-rule="evenodd" stroke="#000" stroke-width="3" transform="translate(21 8)">
        <path stroke-linecap="round" stroke-linejoin="round" d="M3 0h34c1.657 0 3 1.343 3 3v58c0 1.657-1.343 3-3 3H3c-1.657 0-3-1.343-3-3V3c0-1.657 1.343-3 3-3z"/>
        <circle cx="20" cy="44" r="12"/>
        <path d="M20.023 51.5c4.142 0 7.5-3.358 7.5-7.5 0-4.142-3.358-7.5-7.5-7.5-4.142 0-7.5 3.358-7.5 7.5 0 4.142 3.358 7.5 7.5 7.5z"/>
        <circle cx="20" cy="18" r="8"/>
    </g>
</svg>
