<svg xmlns="http://www.w3.org/2000/svg" width="80" height="80" viewBox="0 0 80 80">
    <g fill="none" fill-rule="evenodd">
        <g>
            <g>
                <g>
                    <g>
                        <g>
                            <g>
                                <g>
                                    <path d="M0 80L80 80 80 0 0 0z" transform="translate(-1399 -2409) translate(1127 2353) translate(0 56) translate(272)"/>
                                    <g transform="translate(-1399 -2409) translate(1127 2353) translate(0 56) translate(272) translate(13 6)">
                                        <path stroke="#000" stroke-linecap="round" stroke-linejoin="round" stroke-width="3" d="M0 34.714V1.27C0 .569.569 0 1.27 0h50.793c.702 0 1.27.569 1.27 1.27v24.286h0H0"/>
                                        <path stroke="#000" stroke-linecap="round" stroke-linejoin="round" stroke-width="3" d="M53.333 25.556H1.27c-.701 0-1.27.568-1.27 1.27v36.349c0 .7.569 1.27 1.27 1.27h50.793c.702 0 1.27-.57 1.27-1.27V38.632h0V25.556z"/>
                                        <path stroke="#000" stroke-linecap="round" stroke-linejoin="round" stroke-width="2.893" d="M6.111 64.444L6.111 70M47.222 64.444L47.222 70"/>
                                        <rect width="10.294" height="3" x="8.603" y="32.746" fill="#000" rx="1.5"/>
                                        <rect width="10.294" height="3" x="8.603" y="15.776" fill="#000" rx="1.5"/>
                                    </g>
                                </g>
                            </g>
                        </g>
                    </g>
                </g>
            </g>
        </g>
    </g>
</svg>
