<svg xmlns="http://www.w3.org/2000/svg" width="80" height="80" viewBox="0 0 80 80">
    <g fill="none" fill-rule="evenodd">
        <g>
            <g>
                <g>
                    <g>
                        <g>
                            <g>
                                <g stroke="#000" stroke-width="3" transform="translate(-1775 -2945) translate(1127 2353) translate(0 56) translate(648 536) translate(6 4)">
                                    <path d="M17 34c7.18 0 13 5.82 13 13v17c0 4.418-3.582 8-8 8H12c-4.418 0-8-3.582-8-8V47c0-7.18 5.82-13 13-13z"/>
                                    <circle cx="17" cy="51" r="7.5"/>
                                    <path stroke-linejoin="round" d="M0 49.286L4 48 4 64 0 62.714zM30 48L34 49.286 34 62.714 30 64zM50 20H54V60H50z"/>
                                    <path d="M57.038 64h6.09C64.714 64 66 65.194 66 66.667V72H38v-5.333C38 65.194 39.286 64 40.872 64h4.085"/>
                                    <path stroke-linejoin="round" d="M47.556 60h8.888l1.767 2.98c.563.95.249 2.177-.701 2.74-.309.183-.661.28-1.02.28h-8.98c-1.105 0-2-.895-2-2 0-.359.096-.711.28-1.02L47.555 60h0z"/>
                                    <path d="M8 38c0-4.418 3.274-8 7.313-8h3.374C22.727 30 26 33.582 26 38M18 29V17c0-9.389 6.81-17 15.21-17h3.58C45.19 0 52 7.611 52 17v1.79"/>
                                </g>
                            </g>
                        </g>
                    </g>
                </g>
            </g>
        </g>
    </g>
</svg>
