<svg xmlns="http://www.w3.org/2000/svg" width="80" height="80" viewBox="0 0 80 80">
    <g fill="none" stroke="#000" stroke-width="3">
        <path d="M27.006 46.02h-.74c-4.888 0-7.761 4.734-7.761 8.338v6.971h8.505V46.02h-.004z"/>
        <path d="M20.342 61.329h6.668v8.505H15.248c-1.409 0-2.551-1.142-2.551-2.552 0-.417.103-.829.299-1.198l.267-.503c1.392-2.617 4.115-4.252 7.08-4.252zm41.735-17.594c-1.849 5.15-4.536 9.1-7.921 12.87-1.462 1.629-2.864 2.705-4.67 3.484-2.903 1.253-6.57 1.24-9.78 1.24H27.01V49.61c0-3.385 1.298-6.598 3.657-9.047l11.315-11.436c2.56-2.412 7.268-5.219 12.174-5.219h13.678l-5.757 19.828zm-3.465-28.32l6.9-1.566c1.832-.416 3.655.732 4.07 2.564.13.565.111 1.154-.052 1.71l-1.696 5.784h0-15.309l3.88-6.851c.473-.833 1.274-1.429 2.207-1.64z"/>
        <path d="M52.694 58.234c-3.783 2.904-6.624 3.095-11.496 3.095H27.01v8.505h34.828c8.162 0 8.466 0 4.381-4.253l-10.34-10.616c-1.3 1.546-2.362 2.636-3.185 3.269z"/>
    </g>
</svg>
