<svg xmlns="http://www.w3.org/2000/svg" width="80" height="80" viewBox="0 0 80 80">
  <defs>
    <style>
      .cls-1 {
        opacity: 0;
      }

      .cls-2 {
        opacity: 0.2;
      }

      .cls-3 {
        fill: #fff;
        fill-rule: evenodd;
      }
    </style>
  </defs>
  <g id="cate_icon_it-monitors_w" class="cls-1">
    <rect id="icon_area" class="cls-2" width="80" height="80"/>
    <path class="cls-3" d="M773.5,14h-58a4.5,4.5,0,0,0-4.5,4.489V50.4a4.5,4.5,0,0,0,4.5,4.489H743v5.291l-12.813,2.722a1.5,1.5,0,1,0,.625,2.926l13.774-2.925,13.6,2.924a1.467,1.467,0,0,0,.317.034,1.5,1.5,0,0,0,.315-2.958L746,60.15V54.893h27.5A4.5,4.5,0,0,0,778,50.4V18.486A4.5,4.5,0,0,0,773.5,14ZM775,50.4a1.5,1.5,0,0,1-1.5,1.5h-58a1.5,1.5,0,0,1-1.5-1.5V18.486a1.5,1.5,0,0,1,1.5-1.5h58a1.5,1.5,0,0,1,1.5,1.5V50.4Zm-26-3.99h-9a1.5,1.5,0,1,0,0,2.992h9A1.5,1.5,0,1,0,749,46.415Z" transform="translate(-704)"/>
  </g>
</svg>
