<svg id="img_conditioner_MO_80" xmlns="http://www.w3.org/2000/svg" width="80" height="80" viewBox="0 0 80 80">
  <g id="img_conditioner_MO_80-2" data-name="img_conditioner_MO_80">
    <g id="ic_conditioner_MO_80">
      <g id="ic_conditioner_40">
        <g id="ic_conditioner_40-2" data-name="ic_conditioner_40">
          <path id="guidebox" d="M0,80H80V0H0Z" fill="none"/>
          <g id="icon" transform="translate(7 25)">
            <path id="Stroke_1" data-name="Stroke 1" d="M0,8.5V1.112A1.111,1.111,0,0,1,1.111,0H64.889A1.112,1.112,0,0,1,66,1.112v25.9a1.111,1.111,0,0,1-1.111,1.111H1.111A1.111,1.111,0,0,1,0,27.014V8.5Z" transform="translate(0 0)" fill="none" stroke="#fff" stroke-linecap="round" stroke-linejoin="round" stroke-miterlimit="10" stroke-width="3"/>
            <path id="Path" d="M0,6.717V1.875A1.875,1.875,0,0,1,1.692.009L1.625,0h43.75l-.067.009A1.875,1.875,0,0,1,47,1.875h0V6.717" transform="translate(9.375 20.671)" fill="none" stroke="#fff" stroke-linecap="round" stroke-linejoin="round" stroke-miterlimit="10" stroke-width="3"/>
          </g>
        </g>
      </g>
    </g>
  </g>
</svg>
