<svg id="img_b2b_MO_80" xmlns="http://www.w3.org/2000/svg" xmlns:xlink="http://www.w3.org/1999/xlink" width="80" height="80" viewBox="0 0 80 80">
  <defs>
    <clipPath id="clip-path">
      <rect id="Rectangle" width="80" height="80" fill="none"/>
    </clipPath>
  </defs>
  <g id="img_b2b_MO_80-2" data-name="img_b2b_MO_80">
    <g id="ic_b2b_MO_80">
      <g id="ic_b2b_40">
        <g id="ic_nodata_56">
          <rect id="Rectangle-2" data-name="Rectangle" width="80" height="80" fill="none"/>
          <g id="ic_nodata_56-2" data-name="ic_nodata_56" clip-path="url(#clip-path)">
            <g id="Group_129" data-name="Group 129" transform="translate(14.566 -8.558) rotate(16)">
              <path id="Path" d="M60.7,34.891A31.573,31.573,0,0,0,0,19.813" transform="translate(0.934 17.503) rotate(-16)" fill="none" stroke="#fff" stroke-linecap="round" stroke-miterlimit="10" stroke-width="3"/>
              <path id="Path-2" data-name="Path" d="M12.806,0,6.983,6.9,0,1.074" transform="translate(61.17 30.194) rotate(-16)" fill="none" stroke="#fff" stroke-linecap="round" stroke-linejoin="round" stroke-miterlimit="10" stroke-width="3"/>
              <path id="Path-3" data-name="Path" d="M62.5,26.1A31.573,31.573,0,0,0,0,28.333" transform="translate(69.272 71.118) rotate(180)" fill="none" stroke="#fff" stroke-linecap="round" stroke-miterlimit="10" stroke-width="3"/>
              <path id="Path-4" data-name="Path" d="M11.152,0,8.789,8.712,0,6.386" transform="translate(13.202 53.949) rotate(-171)" fill="none" stroke="#fff" stroke-linecap="round" stroke-linejoin="round" stroke-miterlimit="10" stroke-width="3"/>
            </g>
            <path id="B2B" d="M25.4,15.081V.28h4.9a7.635,7.635,0,0,1,3.819.786,3.083,3.083,0,0,1,1.54,2.854,3.328,3.328,0,0,1-2.021,3.2v.1a3.35,3.35,0,0,1,2.781,3.5,3.792,3.792,0,0,1-1.647,3.3,7.15,7.15,0,0,1-4.092,1.063ZM28.362,12.8h2.057c2.071,0,3.122-.76,3.122-2.262,0-1.391-.993-2.04-3.122-2.04H28.362Zm0-6.5h1.719c1.767,0,2.7-.671,2.7-1.939s-.821-1.82-2.66-1.82h-1.76ZM0,15.081V.28H4.9a7.637,7.637,0,0,1,3.82.786,3.083,3.083,0,0,1,1.54,2.854,3.329,3.329,0,0,1-2.021,3.2v.1a3.35,3.35,0,0,1,2.78,3.5,3.792,3.792,0,0,1-1.646,3.3,7.153,7.153,0,0,1-4.093,1.063ZM2.961,12.8H5.018c2.072,0,3.122-.76,3.122-2.262,0-1.391-.992-2.04-3.122-2.04H2.961Zm0-6.5h1.72c1.767,0,2.7-.671,2.7-1.939S6.56,2.54,4.72,2.54H2.961Zm9.7,8.781v-1.7c4.019-3.6,6.4-6.38,6.4-8.661a2.123,2.123,0,0,0-2.22-2.4,3.834,3.834,0,0,0-2.72,1.52l-1.6-1.6A6,6,0,0,1,17.22,0a4.342,4.342,0,0,1,4.66,4.56c0,2.679-2.22,5.559-4.92,8.2.741-.08,1.721-.16,2.4-.16h3.22v2.48Z" transform="translate(22.31 32.92)" fill="#fff"/>
          </g>
        </g>
      </g>
    </g>
  </g>
</svg>
