<svg xmlns="http://www.w3.org/2000/svg" width="80" height="80" viewBox="0 0 80 80">
  <defs>
    <style>
      .cls-1 {
        opacity: 0;
      }

      .cls-2 {
        fill: #fff;
        fill-rule: evenodd;
      }
    </style>
  </defs>
  <g id="cate_icon_etc-products_w">
    <rect id="icon_area" class="cls-1" width="80" height="80"/>
    <path class="cls-2" d="M890.059,153.655a5.428,5.428,0,0,0-2.842-2.35c-0.421-15.072-11.257-26.328-25.543-26.328s-25.109,11.243-25.542,26.3a5.442,5.442,0,0,0-3.4,6.511l3.114,11.48a5.424,5.424,0,0,0,2.569,3.309,5.338,5.338,0,0,0,3.336.694,2.5,2.5,0,0,0,4.882-.752,2.452,2.452,0,0,0-.788-1.8c0.031-.05.072-0.09,0.1-0.141a5.354,5.354,0,0,0,.551-4.134l-3.113-11.48a5.42,5.42,0,0,0-2.569-3.308,5.553,5.553,0,0,0-1.676-.6c0.524-13.255,10.032-23.111,22.53-23.111s22.006,9.856,22.53,23.111a5.553,5.553,0,0,0-1.676.6,5.42,5.42,0,0,0-2.569,3.307l-3.114,11.482a5.375,5.375,0,0,0,.649,4.278,2.449,2.449,0,0,0-.783,1.791,2.5,2.5,0,0,0,4.882.752,5.338,5.338,0,0,0,3.336-.694,5.425,5.425,0,0,0,2.569-3.308l3.113-11.48A5.357,5.357,0,0,0,890.059,153.655Zm-49.576,2.083L843.6,167.22a2.431,2.431,0,0,1-.249,1.878,2.487,2.487,0,0,1-1.523,1.154,2.519,2.519,0,0,1-1.9-.247,2.463,2.463,0,0,1-1.167-1.5l-3.114-11.48a2.477,2.477,0,0,1,1.771-3.033,2.516,2.516,0,0,1,1.9.247A2.458,2.458,0,0,1,840.483,155.738Zm47.222,1.282L884.592,168.5a2.463,2.463,0,0,1-1.167,1.5,2.534,2.534,0,0,1-1.9.247,2.476,2.476,0,0,1-1.772-3.033l3.114-11.481a2.458,2.458,0,0,1,1.167-1.5,2.511,2.511,0,0,1,1.9-.247h0a2.482,2.482,0,0,1,1.521,1.153A2.43,2.43,0,0,1,887.705,157.02Z" transform="translate(-822 -110)"/>
  </g>
</svg>
