<svg xmlns="http://www.w3.org/2000/svg" width="80" height="80" viewBox="0 0 80 80">
    <g fill="none" fill-rule="evenodd" stroke="#000" stroke-width="3">
        <path stroke-linejoin="round" d="M29.045 30h21.91c1.58 0 2.89 1.226 2.994 2.803L56 64h0-32l2.051-31.197C26.155 31.226 27.464 30 29.045 30zM24 64h32l-4 6H28z"/>
        <path stroke-linecap="round" stroke-linejoin="round" d="M25.348 46h29.511M23.348 70h33.511"/>
        <path d="M40.047 26.5c3.59 0 6.5-2.91 6.5-6.5s-2.91-6.5-6.5-6.5-6.5 2.91-6.5 6.5 2.91 6.5 6.5 6.5z"/>
        <path d="M46.781 29.901C49.933 27.74 52 24.111 52 20c0-6.627-5.373-12-12-12s-12 5.373-12 12c0 4.043 2 7.62 5.064 9.794.375.266 3.66.212 6.936.206 3.299-.006 6.59.033 6.781-.099z"/>
    </g>
</svg>
