<svg xmlns="http://www.w3.org/2000/svg" width="80" height="80" viewBox="0 0 80 80">
  <defs>
    <style>
      .cls-1 {
        opacity: 0;
      }

      .cls-2 {
        fill: #fff;
        fill-rule: evenodd;
      }
    </style>
  </defs>
  <g id="cate_icon_beauty_w">
    <rect id="icon_area" class="cls-1" width="80" height="80"/>
    <path id="cate_icon_beauty_w-2" data-name="cate_icon_beauty_w" class="cls-2" d="M521.515,122.894c-12-10.893-25.821-.5-27.36.719-3.555,2.824-10.173,8.082-9.384,21.046,0.879,14.476,2.892,23.249,6.73,29.336,2.154,3.416,8.369,5.924,12.02,6.775a47.178,47.178,0,0,0,10.567,1.219c8.18,0,15.614-2.288,17.881-7.356C534.992,167.875,531.845,132.275,521.515,122.894Zm-33.766,21.58c-0.692-11.384,4.9-15.831,8.25-18.488h0c1.336-1.061,13.343-10.094,23.522-.847,2.823,2.563,5.067,7.532,6.75,13.361-13.984-1.8-26.887.727-38.424,7.509Q487.795,145.232,487.749,144.474Zm0.358,4.894c11.6-7.206,24.709-9.795,39-7.707,0.482,1.972.906,4.008,1.27,6.05A65.915,65.915,0,0,0,488.5,153.24C488.349,151.94,488.219,150.646,488.107,149.368Zm16.084,28.461c-3.8-.885-8.765-3.223-10.174-5.457a25.809,25.809,0,0,1-2-3.936c8.972,7.577,21.043,9.82,35.987,6.687C524.152,178.869,514.115,180.141,504.191,177.829Zm25.54-6.191c-17.432,4.242-30.773,1.084-39.666-9.387l0,0c-0.459-1.908-.831-3.886-1.134-5.88a63.144,63.144,0,0,1,39.971-5.5C530.175,159.407,530.438,167.622,529.731,171.638Z" transform="translate(-469 -110)"/>
  </g>
</svg>
