<svg xmlns="http://www.w3.org/2000/svg" xmlns:xlink="http://www.w3.org/1999/xlink" width="80" height="80" viewBox="0 0 80 80">
    <defs>
        <path id="ezrh8eioaa" d="M0 0H80V80H0z"/>
    </defs>
    <g fill="none" fill-rule="evenodd">
        <g>
            <g>
                <g>
                    <g>
                        <g>
                            <g>
                                <g transform="translate(-1263 -3117) translate(1127 2353) translate(0 56) translate(136 708)">
                                    <mask id="ncsf7kqzcb" fill="#fff">
                                        <use xlink:href="#ezrh8eioaa"/>
                                    </mask>
                                    <g stroke="#000" stroke-linecap="round" stroke-width="3" mask="url(#ncsf7kqzcb)">
                                        <g>
                                            <path d="M65.259 43.328c1.62-14.955-7.718-29.361-22.7-33.657-15.727-4.51-32.084 3.724-37.996 18.58" transform="rotate(16 37.73 47.542) rotate(-16 35.002 25.883)"/>
                                            <path stroke-linejoin="round" d="M74.678 28.296L68.855 35.192 61.872 29.37" transform="rotate(16 37.73 47.542) rotate(-16 68.275 31.744)"/>
                                            <path d="M69.272 68.881C66.707 54.059 53.76 42.784 38.174 42.784c-16.361 0-29.814 12.424-31.402 28.334" transform="rotate(16 37.73 47.542) rotate(180 38.022 56.951)"/>
                                            <path stroke-linejoin="round" d="M13.952 44.419L11.588 53.13 2.799 50.805" transform="rotate(16 37.73 47.542) rotate(-171 8.376 48.775)"/>
                                        </g>
                                    </g>
                                    <path fill="#000" fill-rule="nonzero" d="M27.59 48c3.26 0 5.74-1.38 5.74-4.36 0-2-1.18-3.12-2.78-3.5v-.1c1.26-.44 2.02-1.84 2.02-3.2 0-2.76-2.32-3.64-5.36-3.64h-4.9V48h5.28zm-.6-8.78h-1.72v-3.76h1.76c1.78 0 2.66.52 2.66 1.82 0 1.18-.82 1.94-2.7 1.94zm.34 6.5h-2.06v-4.3h2.06c2.04 0 3.12.6 3.12 2.04 0 1.54-1.1 2.26-3.12 2.26zM44.89 48v-2.48h-3.22c-.68 0-1.66.08-2.4.16 2.7-2.64 4.92-5.52 4.92-8.2 0-2.76-1.86-4.56-4.66-4.56-2.02 0-3.34.8-4.7 2.24l1.6 1.6c.74-.82 1.64-1.52 2.72-1.52 1.4 0 2.22.9 2.22 2.4 0 2.28-2.38 5.06-6.4 8.66V48h9.92zm8.1 0c3.26 0 5.74-1.38 5.74-4.36 0-2-1.18-3.12-2.78-3.5v-.1c1.26-.44 2.02-1.84 2.02-3.2 0-2.76-2.32-3.64-5.36-3.64h-4.9V48h5.28zm-.6-8.78h-1.72v-3.76h1.76c1.78 0 2.66.52 2.66 1.82 0 1.18-.82 1.94-2.7 1.94zm.34 6.5h-2.06v-4.3h2.06c2.04 0 3.12.6 3.12 2.04 0 1.54-1.1 2.26-3.12 2.26z" mask="url(#ncsf7kqzcb)"/>
                                </g>
                            </g>
                        </g>
                    </g>
                </g>
            </g>
        </g>
    </g>
</svg>
