<svg id="imgvacuum_cleaner_MO_80" data-name="imgvacuum cleaner_MO_80" xmlns="http://www.w3.org/2000/svg" width="80" height="80" viewBox="0 0 80 80">
  <g id="imgvacuum_cleaner_MO_80-2" data-name="imgvacuum cleaner_MO_80">
    <g id="ic_vacuum_cleaner_MO_80" data-name="ic_vacuum cleaner_MO_80">
      <g id="ic_vacuum_cleaner_40" data-name="ic_vacuum cleaner_40">
        <rect id="Rectangle" width="80" height="80" fill="#50e3c2" opacity="0"/>
        <g id="icon" transform="translate(6 4)">
          <path id="Rectangle-2" data-name="Rectangle" d="M13,0h0A13,13,0,0,1,26,13V37.48a.52.52,0,0,1-.52.52H.52A.52.52,0,0,1,0,37.48V13A13,13,0,0,1,13,0Z" transform="translate(4 34)" fill="none" stroke="#fff" stroke-miterlimit="10" stroke-width="3"/>
          <g id="Oval" transform="translate(8 42)" fill="none" stroke="#fff" stroke-miterlimit="10" stroke-width="3">
            <circle cx="9" cy="9" r="9" stroke="none"/>
            <circle cx="9" cy="9" r="7.5" fill="none"/>
          </g>
          <path id="Rectangle-3" data-name="Rectangle" d="M0,1.286,4,0V16L0,14.714Z" transform="translate(0 48)" fill="none" stroke="#fff" stroke-linejoin="round" stroke-miterlimit="10" stroke-width="3"/>
          <path id="Rectangle-4" data-name="Rectangle" d="M0,0,4,1.286V14.714L0,16Z" transform="translate(30 48)" fill="none" stroke="#fff" stroke-linejoin="round" stroke-miterlimit="10" stroke-width="3"/>
          <rect id="Rectangle-5" data-name="Rectangle" width="4" height="40" transform="translate(50 20)" fill="none" stroke="#fff" stroke-linejoin="round" stroke-miterlimit="10" stroke-width="3"/>
          <path id="Path" d="M19.038,0h6.091A2.775,2.775,0,0,1,28,2.667V8H0V2.667A2.775,2.775,0,0,1,2.872,0H6.957" transform="translate(38 64)" fill="none" stroke="#fff" stroke-miterlimit="10" stroke-width="3"/>
          <path id="Rectangle-6" data-name="Rectangle" d="M3.556,0h8.889l1.766,2.98A2,2,0,0,1,12.49,6H3.51A2,2,0,0,1,1.789,2.98Z" transform="translate(44 60)" fill="none" stroke="#fff" stroke-linejoin="round" stroke-miterlimit="10" stroke-width="3"/>
          <path id="Path-2" data-name="Path" d="M0,8C0,3.582,3.274,0,7.313,0h3.375C14.726,0,18,3.582,18,8" transform="translate(8 30)" fill="none" stroke="#fff" stroke-miterlimit="10" stroke-width="3"/>
          <path id="Path-3" data-name="Path" d="M0,29V17C0,7.611,6.81,0,15.211,0h3.579C27.19,0,34,7.611,34,17v1.79" transform="translate(18)" fill="none" stroke="#fff" stroke-miterlimit="10" stroke-width="3"/>
        </g>
      </g>
    </g>
  </g>
</svg>
