<svg width="16" height="16" viewBox="0 0 16 16" xmlns="http://www.w3.org/2000/svg">
    <g fill="none" fill-rule="evenodd">
        <path opacity=".2" d="M0 0h16v16H0z"/>
        <path d="M8.167 2a6.152 6.152 0 0 1 3.426 1.04 6.152 6.152 0 0 1 2.27 2.767 6.152 6.152 0 0 1 .352 3.563 6.152 6.152 0 0 1-1.688 3.157 6.152 6.152 0 0 1-3.157 1.688 6.152 6.152 0 0 1-3.563-.351 6.152 6.152 0 0 1-2.768-2.271A6.152 6.152 0 0 1 2 8.167 6.152 6.152 0 0 1 3.04 4.74a6.152 6.152 0 0 1 2.767-2.272A6.152 6.152 0 0 1 8.167 2z" stroke="#DA0F47"/>
        <path d="M5.172 8h5.656" stroke="#DA0F47" stroke-linecap="round" stroke-linejoin="round"/>
    </g>
</svg>
