<svg xmlns="http://www.w3.org/2000/svg" width="32" height="32" viewBox="0 0 32 32">
    <g fill="none" fill-rule="evenodd">
        <path d="M0 0h32v32H0z"/>
        <path stroke="#000" stroke-width="1.333" d="M20.581 6.667c3.361 0 6.086 2.79 6.086 6.231 0 1.83-.77 3.475-1.996 4.615l.504-.53c-2.882 3.033-5.465 5.703-7.75 8.008-.473.477-1.216.436-1.721-.003-3.727-3.24-6.785-6.073-8.516-7.753-.124-.12-.232-.238-.324-.354l-.063-.07c-.914-1.076-1.468-2.481-1.468-4.02 0-3.382 2.678-6.124 5.982-6.124 1.956 0 3.499.961 4.432 2.448 1.11-1.489 2.863-2.448 4.834-2.448z"/>
    </g>
</svg>
