<svg xmlns="http://www.w3.org/2000/svg" width="64" height="64" viewBox="0 0 64 64">
    <g fill="none" fill-rule="evenodd">
        <g>
            <g>
                <g>
                    <g>
                        <path d="M0 0H64V64H0z" transform="translate(-350 -1024) translate(270 870) translate(0 146) translate(80 8)"/>
                        <g>
                            <path stroke="#000" stroke-linecap="round" stroke-linejoin="round" stroke-width="2" d="M33 43H4c-2.21 0-4-1.79-4-4V8c0-1.105.895-2 2-2h40c1.105 0 2 .895 2 2v17" transform="translate(-350 -1024) translate(270 870) translate(0 146) translate(80 8) translate(10 10)"/>
                            <path stroke="#DA0F47" stroke-linecap="round" stroke-linejoin="round" stroke-width="2" d="M34 35.5L39.079 40 47 31" transform="translate(-350 -1024) translate(270 870) translate(0 146) translate(80 8) translate(10 10)"/>
                            <path stroke="#000" stroke-linecap="round" stroke-linejoin="round" stroke-width="2" d="M37.5 6L37.5 0" transform="translate(-350 -1024) translate(270 870) translate(0 146) translate(80 8) translate(10 10)"/>
                            <g fill="#000">
                                <path d="M0 0H4V4H0zM0 9H4V13H0zM9 0H13V4H9zM9 9H13V13H9zM18 0H22V4H18z" transform="translate(-350 -1024) translate(270 870) translate(0 146) translate(80 8) translate(10 10) translate(11 21)"/>
                            </g>
                            <path stroke="#000" stroke-linecap="round" stroke-linejoin="round" stroke-width="2" d="M7.5 6L7.5 0M0 13L44 13" transform="translate(-350 -1024) translate(270 870) translate(0 146) translate(80 8) translate(10 10)"/>
                        </g>
                    </g>
                </g>
            </g>
        </g>
    </g>
</svg>
