<svg xmlns="http://www.w3.org/2000/svg" width="64" height="64" viewBox="0 0 64 64">
    <g fill="none" fill-rule="evenodd">
        <g>
            <g>
                <g>
                    <g>
                        <g>
                            <g>
                                <path d="M0 0H64V64H0z" opacity=".3" transform="translate(-424 -246) translate(424 130) translate(0 116)"/>
                                <g>
                                    <path stroke="#222" stroke-linecap="round" stroke-linejoin="round" stroke-width="2" d="M38.612 43.828l11.728-4.464c1.425-.543 3.02.173 3.563 1.598l.006.015c.558 1.492-.067 3.168-1.465 3.93L32.275 55.902c-1.002.547-2.19.639-3.265.254l-12.864-4.613c-.867-.31-1.78-.47-2.7-.47H10.23h0V37.163l5.679-.828c1.494-.218 3.02-.009 4.4.604l6.357 2.821h9.208c1.512 0 2.737 1.225 2.737 2.737 0 1.511-1.225 2.737-2.737 2.737H25.546h0c-1.701.19-2.552 1.106-2.552 2.746" transform="translate(-424 -246) translate(424 130) translate(0 116) translate(5 3)"/>
                                    <g>
                                        <path fill="#FFF" fill-rule="nonzero" stroke="#222" stroke-width="2" d="M26.438 0c-1.954 0-3.745.597-5.324 1.775-1.513 1.13-2.52 2.568-3.114 3.614-.593-1.046-1.6-2.484-3.114-3.614C13.307.597 11.516 0 9.563 0 4.11 0 0 4.303 0 10.008c0 6.164 5.129 10.382 12.893 16.766 1.319 1.085 2.813 2.314 4.366 3.624.205.173.468.269.741.269.273 0 .536-.096.74-.269 1.554-1.31 3.048-2.54 4.368-3.624C30.87 20.39 36 16.172 36 10.008 36 4.303 31.889 0 26.437 0z" transform="translate(-424 -246) translate(424 130) translate(0 116) translate(5 3) translate(14.667)"/>
                                        <g fill="#DA0F47" transform="translate(-424 -246) translate(424 130) translate(0 116) translate(5 3) translate(14.667) translate(12 9)">
                                            <rect width="11.2" height="2" y="5" rx="1"/>
                                            <rect width="11.2" height="2" y="5" rx="1" transform="rotate(90 5.6 6)"/>
                                        </g>
                                    </g>
                                    <path fill="#FFF" stroke="#222" stroke-width="2" d="M9.333 34.333H2.667c-.46 0-.877.187-1.179.488C1.187 35.123 1 35.54 1 36v18.667c0 .46.187.877.488 1.178.302.302.718.488 1.179.488h6.666c.46 0 .877-.186 1.179-.488.301-.301.488-.718.488-1.178V36c0-.46-.187-.877-.488-1.179-.302-.301-.718-.488-1.179-.488z" transform="translate(-424 -246) translate(424 130) translate(0 116) translate(5 3)"/>
                                </g>
                            </g>
                        </g>
                    </g>
                </g>
            </g>
        </g>
    </g>
</svg>
