<svg xmlns="http://www.w3.org/2000/svg" xmlns:xlink="http://www.w3.org/1999/xlink" width="64" height="64" viewBox="0 0 64 64">
    <defs>
        <circle id="b34yxcfjoa" cx="18.049" cy="18.049" r="18.049"/>
        <circle id="4alp79r7pc" cx="18.049" cy="18.049" r="18.049"/>
    </defs>
    <g fill="none" fill-rule="evenodd">
        <g>
            <g>
                <g>
                    <g>
                        <path d="M0 0H64V64H0z" transform="translate(-1323 -1099) translate(-346 118) translate(616 760) translate(1053 221)"/>
                        <g>
                            <path fill="#FFF" stroke="#AAA" stroke-width="3" d="M32.667 0l1.131 5.377c.824.302 1.625.65 2.4 1.042l4.416-2.575 8.485 8.485-2.785 4.271c.46.927.86 1.89 1.19 2.883L52 20.667v12l-4.412.928c-.392 1.223-.885 2.4-1.47 3.524l2.038 3.495-8.485 8.485-3.403-2.22c-.906.462-1.847.864-2.818 1.201L32.667 52h-12l-.884-3.53c-1.427-.406-2.796-.948-4.093-1.612l-3.36 2.24-8.486-8.484 2.065-3.443c-.604-1.154-1.112-2.366-1.513-3.626L0 32.667v-12l4.474-1.119c.342-1.036.757-2.038 1.239-3.002L2.9 12.33l8.485-8.485 4.35 2.608c1.152-.586 2.361-1.077 3.617-1.462L20.667 0h12z" transform="translate(-1323 -1099) translate(-346 118) translate(616 760) translate(1053 221) translate(6 6)"/>
                            <g transform="translate(-1323 -1099) translate(-346 118) translate(616 760) translate(1053 221) translate(6 6) translate(8.966 8.966)">
                                <g>
                                    <mask id="9cy28efnjb" fill="#fff">
                                        <use xlink:href="#b34yxcfjoa"/>
                                    </mask>
                                    <circle cx="18.049" cy="18.049" r="16.549" stroke="#222" stroke-width="3"/>
                                    <g fill="#FFF" stroke="#AAA" stroke-width="3" mask="url(#9cy28efnjb)">
                                        <g transform="translate(4.979 7.468)">
                                            <circle cx="13.07" cy="23.028" r="11.57"/>
                                            <circle cx="13.07" cy="8.091" r="6.591"/>
                                        </g>
                                    </g>
                                </g>
                                <circle cx="18.049" cy="18.049" r="16.549" stroke="#AAA" stroke-width="3"/>
                            </g>
                        </g>
                    </g>
                </g>
            </g>
        </g>
    </g>
</svg>
