<svg xmlns="http://www.w3.org/2000/svg" width="64" height="64" viewBox="0 0 64 64">
    <g fill="none" fill-rule="evenodd">
        <g>
            <g>
                <g>
                    <g>
                        <path d="M0 0H64V64H0z" opacity=".3" transform="translate(-810 -978) translate(270 870) translate(468 100) translate(72 8)"/>
                        <g>
                            <path stroke="#000" stroke-linecap="round" stroke-linejoin="round" stroke-width="1.409" d="M6.577 20.671L26.219 20.671" transform="translate(-810 -978) translate(270 870) translate(468 100) translate(72 8) translate(11 8)"/>
                            <path stroke="#000" stroke-width="1.409" d="M25.486 5.402l-23.723.006c-.294.029-.557.167-.747.372-.193.21-.311.49-.311.797l.004 34.056c.06 1.83.843 3.475 2.07 4.663 1.226 1.187 2.896 1.918 4.738 1.918l28.14-.058c1.682-.22 3.17-1.055 4.233-2.3 1.05-1.23 1.681-2.857 1.682-4.686-.057-1.729-.76-3.294-1.873-4.464-1.251-1.315-3.023-2.13-4.985-2.116l-.613-9.885c-2.914-.165-5.538-1.415-7.475-3.352-2.083-2.083-3.372-4.96-3.372-8.139 0-2.549.83-4.905 2.232-6.812z" transform="translate(-810 -978) translate(270 870) translate(468 100) translate(72 8) translate(11 8)"/>
                            <path stroke="#000" stroke-linecap="round" stroke-linejoin="round" stroke-width="1.409" d="M6.577 15.033L22.55 15.033" transform="translate(-810 -978) translate(270 870) translate(468 100) translate(72 8) translate(11 8)"/>
                            <path stroke="#000" stroke-width="1.409" d="M11.975 33.589c1.18 1.483 1.884 3.361 1.884 5.403 0 1.931-.63 3.715-1.695 5.158-.99 1.34-2.356 2.386-3.943 3.062l27.438-.057c1.673-.219 3.154-1.045 4.217-2.25 1.058-1.2 1.7-2.777 1.7-4.503 0-1.725-.64-3.3-1.696-4.506-1.064-1.216-2.55-2.059-4.227-2.306l-23.678-.001z" transform="translate(-810 -978) translate(270 870) translate(468 100) translate(72 8) translate(11 8)"/>
                            <g stroke="#DA0F47" transform="translate(-810 -978) translate(270 870) translate(468 100) translate(72 8) translate(11 8) translate(22.55)">
                                <circle cx="12.214" cy="12.214" r="11.51" stroke-width="1.409"/>
                                <path stroke-linecap="round" stroke-linejoin="round" stroke-width="1.879" d="M7.517 12.214L16.912 12.214M12.214 7.517L12.214 16.912"/>
                            </g>
                        </g>
                    </g>
                </g>
            </g>
        </g>
    </g>
</svg>
