<svg xmlns="http://www.w3.org/2000/svg" width="80" height="80" viewBox="0 0 80 80">
  <g id="img_online_2" data-name="img_online 2" transform="translate(-1016.615 -296.485)">
    <g id="W">
      <path id="Path-2" d="M1057.428,320.888l3.371,9.515,3.5-9.515,3.89,9.515,2.982-9.515" fill="none" stroke="#da0f47" stroke-linecap="round" stroke-linejoin="round" stroke-width="2.5"/>
      <path id="Path-3" d="M1058.814,324.588H1056.2" fill="none" stroke="#da0f47" stroke-linecap="round" stroke-linejoin="round" stroke-width="2.5"/>
      <path id="Path-4" d="M1073.616,324.588h-2.611" fill="none" stroke="#da0f47" stroke-linecap="round" stroke-linejoin="round" stroke-width="2.5"/>
    </g>
    <rect id="Rectangle" width="80" height="80" transform="translate(1016.615 296.485)" fill="none"/>
    <path id="Shape" d="M1054.919,361.522h-20.625a2.549,2.549,0,0,1-2.5-2.5v-47.5a2.551,2.551,0,0,1,2.5-2.5h11.25m20,0h11.25a2.57,2.57,0,0,1,2.5,2.5v16.829" fill="none" stroke="#000" stroke-linecap="round" stroke-linejoin="round" stroke-width="2.5"/>
    <g id="그룹_188" data-name="그룹 188">
      <path id="Path" d="M1041.794,325.835l2.706,1.937,4.794-5" fill="none" stroke="#020202" stroke-linecap="round" stroke-width="2.5"/>
      <g id="그룹_187" data-name="그룹 187">
        <path id="Path-2-2" data-name="Path-2" d="M1041.794,334.585l2.706,1.937,4.794-5" fill="none" stroke="#020202" stroke-linecap="round" stroke-width="2.5"/>
      </g>
    </g>
    <rect id="Rectangle-2" width="7.5" height="7.5" rx="2.5" transform="translate(1041.794 342.772)" fill="none" stroke="#000" stroke-width="2.5"/>
    <g id="Group-12">
      <path id="Combined-Shape" d="M1083.06,333.556a2.5,2.5,0,0,1,3.5-.352l1.943,1.573a2.5,2.5,0,0,1,.37,3.517l-.015.018h0l-18.914,22.92h0l-8.4,4.315,2.577-9.035Z" fill="none" stroke="#000" stroke-linecap="round" stroke-linejoin="round" stroke-width="2.5"/>
      <line id="Path-3-2" data-name="Path-3" x2="5.634" y2="4.72" transform="translate(1064.311 356.512)" fill="none" stroke="#000" stroke-linecap="round" stroke-linejoin="round" stroke-width="2.5"/>
    </g>
    <path id="Rectangle-3" d="M1050.04,305.037l5.383,1.683a2.5,2.5,0,0,0,1.492,0l5.383-1.683a2.5,2.5,0,0,1,3.246,2.387v1.6a2.5,2.5,0,0,1-2.5,2.5h-13.75a2.5,2.5,0,0,1-2.5-2.5v-1.6a2.5,2.5,0,0,1,3.246-2.387Z" fill="none" stroke="#000" stroke-linecap="round" stroke-linejoin="round" stroke-width="2.5"/>
  </g>
</svg>
