<svg xmlns="http://www.w3.org/2000/svg" width="64" height="64" viewBox="0 0 64 64">
    <g fill="none" fill-rule="evenodd">
        <g>
            <g>
                <g>
                    <g>
                        <path d="M0 64L64 64 64 0 0 0z" transform="translate(-342 -978) translate(270 870) translate(0 100) translate(72 8)"/>
                        <g fill-rule="nonzero">
                            <path stroke="#000" stroke-width="1.5" d="M34.92 39.06l10.7-3.926c1.301-.477 2.757.152 3.252 1.405l.005.013c.51 1.312-.06 2.785-1.337 3.456l-18.402 9.667c-.915.48-1.999.562-2.98.223l-11.737-4.056c-.79-.273-1.624-.412-2.464-.412l-2.478-.197M9.48 33l4.726-.532c1.364-.191 2.756-.007 4.015.532l5.8 2.48h8.403c1.379 0 2.497 1.078 2.497 2.407 0 1.328-1.118 2.406-2.497 2.406h-9.425c-1.553.167-2.329.972-2.329 2.414" transform="translate(-342 -978) translate(270 870) translate(0 100) translate(72 8) translate(7 7)"/>
                            <g>
                                <path stroke="#000" stroke-width="1.5" d="M23.695 0c-1.751 0-3.356.544-4.771 1.617-1.357 1.028-2.26 2.339-2.791 3.291-.532-.952-1.435-2.263-2.792-3.291C11.927.544 10.321 0 8.571 0 3.684 0 0 3.918 0 9.115c0 5.613 4.597 9.454 11.556 15.269 1.181.987 2.52 2.107 3.913 3.3.183.158.42.245.664.245.244 0 .48-.087.663-.245 1.393-1.194 2.732-2.313 3.914-3.3 6.959-5.815 11.555-9.656 11.555-15.27 0-5.196-3.684-9.114-8.57-9.114z" transform="translate(-342 -978) translate(270 870) translate(0 100) translate(72 8) translate(7 7) translate(13.646 .104)"/>
                                <path stroke="#DA0F47" stroke-linecap="round" stroke-width="1.563" d="M12.688 14.063L20.069 14.063" transform="translate(-342 -978) translate(270 870) translate(0 100) translate(72 8) translate(7 7) translate(13.646 .104)"/>
                                <path stroke="#DA0F47" stroke-linecap="round" stroke-width="1.5" d="M16.379 10.313L16.379 17.813" transform="translate(-342 -978) translate(270 870) translate(0 100) translate(72 8) translate(7 7) translate(13.646 .104)"/>
                            </g>
                            <path stroke="#000" stroke-width="1.5" d="M8.362 31.063h-6.1c-.388 0-.74.157-.995.412s-.413.607-.413.996V50.03c0 .389.158.741.413.996s.607.413.996.413h6.1c.388 0 .74-.158.995-.413s.413-.607.413-.996V32.47c0-.389-.158-.741-.413-.996s-.607-.413-.996-.413z" transform="translate(-342 -978) translate(270 870) translate(0 100) translate(72 8) translate(7 7)"/>
                        </g>
                    </g>
                </g>
            </g>
        </g>
    </g>
</svg>
