<svg xmlns="http://www.w3.org/2000/svg" width="20" height="20" viewBox="0 0 20 20">
    <g fill="none" fill-rule="evenodd">
        <g>
            <g>
                <g>
                    <g>
                        <g>
                            <g>
                                <g>
                                    <path d="M0 0H20V20H0z" transform="translate(-1586 -1310) translate(270 550) translate(1 627) translate(936) translate(0 68) translate(272 54) translate(107 11)"/>
                                    <path fill="#767676" d="M8.5 7c.507 0 .917.41.917.917 0 .506-.41.916-.917.916H4.833v7.334h7.334V12.5c0-.506.41-.917.916-.917.507 0 .917.411.917.917v4.583c0 .506-.41.917-.917.917H3.917C3.41 18 3 17.59 3 17.083V7.917C3 7.41 3.41 7 3.917 7zm7.682-4c.452 0 .818.407.818.91v4.545c0 .501-.366.909-.818.909-.453 0-.818-.408-.818-.91v-2.35l-5.967 6.63c-.16.177-.37.266-.579.266-.21 0-.419-.09-.578-.266-.32-.356-.32-.93 0-1.286l5.967-6.63H12.09c-.452 0-.818-.407-.818-.909S11.639 3 12.09 3z" transform="translate(-1586 -1310) translate(270 550) translate(1 627) translate(936) translate(0 68) translate(272 54) translate(107 11)"/>
                                </g>
                            </g>
                        </g>
                    </g>
                </g>
            </g>
        </g>
    </g>
</svg>
