<svg width="24" height="24" viewBox="0 0 24 24" xmlns="http://www.w3.org/2000/svg">
    <g fill="none" fill-rule="evenodd">
        <path d="M12 .563c3.158 0 6.018 1.28 8.088 3.35 2.07 2.07 3.35 4.929 3.35 8.087 0 3.158-1.28 6.018-3.35 8.088A11.402 11.402 0 0 1 12 23.438c-3.158 0-6.018-1.28-8.088-3.35A11.402 11.402 0 0 1 .562 12c0-3.158 1.28-6.018 3.35-8.088C5.982 1.842 8.842.562 12 .562z" stroke="#FFF" stroke-width="1.125" fill-opacity=".5" fill="#000"/>
        <path d="M10.442 16.34a.6.6 0 0 1-.945-.491V8.183a.6.6 0 0 1 .955-.485l5.371 3.91a.6.6 0 0 1-.009.976l-5.372 3.756z" fill="#FFF"/>
    </g>
</svg>
