<svg width="60" height="60" viewBox="0 0 60 60" xmlns="http://www.w3.org/2000/svg">
    <g fill="none" fill-rule="evenodd">
        <path d="M0 60V0h60v60z"/>
        <g stroke-width="2">
            <path d="M6.252 27.932c0-.578.268-1.125.725-1.48l11.212-8.718a1.875 1.875 0 0 1 2.243-.044l12.225 8.764c.492.352.783.92.783 1.524v23.584H7.19a.938.938 0 0 1-.938-.937V27.932zM33.44 51.563V33.638c0-.304.148-.59.397-.766l6.184-4.362c-2.53-2.765-5.643-6.988-5.643-11.138 0-5.445 4.204-9.872 9.375-9.872 5.17 0 9.375 4.427 9.375 9.872 0 4.372-3.454 8.824-6.043 11.569l5.24 3.652c.503.35.803.925.803 1.538v17.432H33.44z" stroke="#000" stroke-linejoin="round"/>
            <path d="M26.405 41.313a.872.872 0 0 1 .875.874V45a.872.872 0 0 1-.875.875H13.28a.872.872 0 0 1-.875-.875v-2.813a.872.872 0 0 1 .875-.874zM26.405 32.875a.872.872 0 0 1 .875.875v2.813a.872.872 0 0 1-.875.874H13.28a.872.872 0 0 1-.875-.874V33.75a.872.872 0 0 1 .875-.875z" stroke="#000"/>
            <path d="M43.752 13.188c1.019 0 1.94.412 2.608 1.08a3.676 3.676 0 0 1 1.08 2.607c0 1.018-.413 1.94-1.08 2.607a3.676 3.676 0 0 1-2.608 1.08 3.676 3.676 0 0 1-2.607-1.08 3.676 3.676 0 0 1-1.08-2.607c0-1.018.413-1.94 1.08-2.607a3.676 3.676 0 0 1 2.607-1.08z" stroke="#DA0F47"/>
            <path d="M43.752 7.5c-5.17 0-9.375 4.428-9.375 9.872 0 6.843 8.463 13.883 8.822 14.263.153.16.353.24.553.24.2 0 .4-.08.554-.24.359-.38 8.821-7.42 8.821-14.263 0-5.444-4.204-9.872-9.375-9.872z" stroke="#DA0F47"/>
        </g>
    </g>
</svg>
