<svg width="60" height="60" viewBox="0 0 60 60" xmlns="http://www.w3.org/2000/svg">
    <g fill="none" fill-rule="evenodd">
        <path d="M0 60V0h60v60z"/>
        <circle fill="#DA0F47" cx="26.955" cy="31.5" r="1.5"/>
        <circle fill="#DA0F47" cx="33.705" cy="31.5" r="1.5"/>
        <circle fill="#DA0F47" cx="40.455" cy="31.5" r="1.5"/>
        <path d="M16.347 36.75H13.5a5.25 5.25 0 0 1-5.25-5.25v-15c0-2.9 2.35-5.25 5.25-5.25H39c2.9 0 5.25 2.35 5.25 5.25v1.28" stroke="#000" stroke-width="2"/>
        <path d="M45.75 17.5c1.588 0 3.025.644 4.066 1.684A5.732 5.732 0 0 1 51.5 23.25v15a5.732 5.732 0 0 1-1.684 4.066A5.732 5.732 0 0 1 45.75 44h-8.808l-6.738 3.79V44H21.75a5.732 5.732 0 0 1-4.066-1.684A5.732 5.732 0 0 1 16 38.25v-15c0-1.588.644-3.025 1.684-4.066A5.732 5.732 0 0 1 21.75 17.5z" stroke="#000" stroke-width="2"/>
    </g>
</svg>
