<svg width="60" height="60" viewBox="0 0 60 60" xmlns="http://www.w3.org/2000/svg">
    <g fill="none" fill-rule="evenodd">
        <path d="M.002 60V0h60v60z"/>
        <g stroke-width="2">
            <path d="M30 14.531c-3.102 0-5.625 2.313-5.625 5.156h11.25c0-1.374-.586-2.669-1.65-3.644-1.063-.975-2.475-1.512-3.975-1.512zm20.407 20.157H9.593c-1.154 0-2.093-.845-2.093-1.884V21.507c0-1.114.721-1.922 1.715-1.922.124 0 .251.013.378.038h10.465c0-2.528 1.07-4.888 3.01-6.644 1.901-1.72 4.396-2.666 7.026-2.666 2.586 0 5.018.946 6.849 2.666 1.828 1.716 2.923 4.076 3.084 6.644h10.38c.127-.025.255-.038.379-.038.993 0 1.714.808 1.714 1.922v11.297c0 1.039-.939 1.883-2.093 1.883z" stroke="#000" stroke-linecap="round" stroke-linejoin="round"/>
            <path d="M11.252 49.687a1.875 1.875 0 0 1-1.875-1.875V34.688h15.938v-2.813c0-1.035.84-1.875 1.875-1.875h5.625c1.035 0 1.875.84 1.875 1.875v2.813h15.937v13.124c0 1.035-.84 1.875-1.874 1.875h-37.5z" stroke="#000" stroke-linecap="round" stroke-linejoin="round"/>
            <path d="M25.315 37.875V31.5a1.5 1.5 0 0 1 1.5-1.5h6.375a1.5 1.5 0 0 1 1.5 1.5v6.375a1.5 1.5 0 0 1-1.5 1.5h-6.375a1.5 1.5 0 0 1-1.5-1.5z" stroke="#DA0F47"/>
        </g>
    </g>
</svg>
