<?xml version="1.0" encoding="UTF-8"?>
<svg width="48px" height="48px" viewBox="0 0 48 48" version="1.1" xmlns="http://www.w3.org/2000/svg" xmlns:xlink="http://www.w3.org/1999/xlink">
    <title>icon-04-48</title>
    <g id="Page-1" stroke="none" stroke-width="1" fill="none" fill-rule="evenodd">
        <g id="Group-27">
            <rect id="Mask-Copy-10" opacity="0.300000012" x="0" y="0" width="48" height="48"></rect>
            <g id="Group-11" transform="translate(3.000000, 3.000000)">
                <path d="M28.9591289,32.8712339 L37.7551275,29.5227536 C38.8240833,29.1158211 40.020527,29.6524971 40.4274595,30.7214528 C40.4288743,30.7251693 40.4302784,30.7288899 40.4316718,30.7326145 C40.8503758,31.8518409 40.3818481,33.1085906 39.3326474,33.6805688 L24.2062145,41.9268364 C23.4545535,42.3366091 22.5636329,42.4057298 21.7577638,42.1167959 L11.1272975,38.3053801 L11.1272975,38.3053801 L7.6730317,38.3053801 L7.6730317,27.8712339 L13.6477084,27 L20,29.8193318 L26.9065806,29.8193318 C28.0401717,29.8193318 28.9591289,30.7382889 28.9591289,31.8718801 C28.9591289,33.0054712 28.0401717,33.9244284 26.9065806,33.9244284 L19.1598215,33.9244284 L19.1598215,33.9244284 C17.8835115,34.0673951 17.2453565,34.7539675 17.2453565,35.9841458" id="Path-9" stroke="#222222" stroke-width="1.5" stroke-linecap="round" stroke-linejoin="round"></path>
                <g id="Group-35" transform="translate(11.000000, 0.000000)">
                    <path d="M19.828125,0 C18.3630059,0 17.0197559,0.44799115 15.8357637,1.33155752 C14.7006563,2.17863938 13.9449199,3.2575531 13.5,4.04209735 C13.0550801,3.25750221 12.2993438,2.17863938 11.1642363,1.33155752 C9.98024414,0.44799115 8.63699414,0 7.171875,0 C3.08327344,0 0,3.22697124 0,7.50624336 C0,12.1293451 3.84660352,15.2924049 9.66984961,20.0808319 C10.6587246,20.8940243 11.7795938,21.8157544 12.9446016,22.7988009 C13.0981641,22.9285575 13.2953906,23 13.5,23 C13.7046094,23 13.9018359,22.9285575 14.0553984,22.7988518 C15.2205117,21.8156527 16.3413281,20.8939735 17.3307832,20.080323 C23.1533965,15.2924049 27,12.1293451 27,7.50624336 C27,3.22697124 23.9167266,0 19.828125,0 Z" id="Path" stroke="#222222" stroke-width="1.5" fill="#EDEDED" fill-rule="nonzero"></path>
                    <rect id="Rectangle" fill="#222222" x="9" y="11" width="9" height="2"></rect>
                    <rect id="Rectangle" fill="#222222" transform="translate(13.500000, 12.000000) rotate(-270.000000) translate(-13.500000, -12.000000) " x="9" y="11" width="9" height="2"></rect>
                </g>
                <path d="M7,25.75 L2,25.75 C1.65482203,25.75 1.34232203,25.889911 1.11611652,26.1161165 C0.889911016,26.342322 0.75,26.654822 0.75,27 L0.75,41 C0.75,41.345178 0.889911016,41.657678 1.11611652,41.8838835 C1.34232203,42.110089 1.65482203,42.25 2,42.25 L7,42.25 C7.34517797,42.25 7.65767797,42.110089 7.88388348,41.8838835 C8.11008898,41.657678 8.25,41.345178 8.25,41 L8.25,27 C8.25,26.654822 8.11008898,26.342322 7.88388348,26.1161165 C7.65767797,25.889911 7.34517797,25.75 7,25.75 Z" id="Rectangle" stroke="#222222" stroke-width="1.5" fill="#FFFFFF"></path>
            </g>
        </g>
    </g>
</svg>