<svg xmlns="http://www.w3.org/2000/svg" width="160" height="160" viewBox="0 0 160 160">
  <defs>
    <style>
      .cls-1 {
        fill: #fff;
        opacity: 0;
      }

      .cls-2 {
        fill: #da0f47;
      }

      .cls-2, .cls-3 {
        fill-rule: evenodd;
      }
    </style>
  </defs>
  <g id="icon_service-inquiry">
    <rect id="icon_area" class="cls-1" width="160" height="160"/>
    <g id="shape">
      <path class="cls-2" d="M270.9,386.281a4.082,4.082,0,0,0,4.09-4.075v-5.845a4.082,4.082,0,0,0-4.09-4.075H265.03a4.083,4.083,0,0,0-4.091,4.075v5.845a4.083,4.083,0,0,0,4.091,4.075H270.9Zm24.033,0a4.082,4.082,0,0,0,4.09-4.075v-5.845a4.082,4.082,0,0,0-4.09-4.075h-5.867a4.082,4.082,0,0,0-4.09,4.075v5.845a4.082,4.082,0,0,0,4.09,4.075h5.867Zm24.033,0a4.083,4.083,0,0,0,4.091-4.075v-5.845a4.083,4.083,0,0,0-4.091-4.075H313.1a4.082,4.082,0,0,0-4.09,4.075v5.845a4.082,4.082,0,0,0,4.09,4.075h5.867Z" transform="translate(-212 -296)"/>
      <path id="Shape_49_copy" data-name="Shape 49 copy" class="cls-3" d="M323.053,415H257.718a12.564,12.564,0,0,1-12.573-12.527V345.031l4.6,4.583a2.5,2.5,0,0,0,3.547-3.534l-8.883-8.85a2.514,2.514,0,0,0-3.547,0l-8.883,8.85a2.5,2.5,0,1,0,3.547,3.534l4.6-4.583v57.444A17.577,17.577,0,0,0,257.718,420h65.335A2.5,2.5,0,1,0,323.053,415Zm28.96-8.117a2.514,2.514,0,0,0-3.547,0l-4.6,4.583V354.023a17.578,17.578,0,0,0-17.59-17.525h-13V334a3.011,3.011,0,0,0-6.021,0v2.5H276.741V334a3.011,3.011,0,0,0-6.021,0v2.5h-9.78a2.5,2.5,0,1,0,0,5h9.78V344a3.011,3.011,0,0,0,6.021,0v-2.5h30.512V344a3.011,3.011,0,0,0,6.021,0v-2.5h13a12.564,12.564,0,0,1,12.573,12.526v57.445l-4.6-4.583a2.5,2.5,0,0,0-3.548,3.534l8.883,8.849a2.514,2.514,0,0,0,3.547,0l8.883-8.849A2.492,2.492,0,0,0,352.013,406.885Z" transform="translate(-212 -296)"/>
    </g>
  </g>
</svg>
