<svg xmlns="http://www.w3.org/2000/svg" width="160" height="160" viewBox="0 0 160 160">
    <g fill="none" fill-rule="evenodd">
        <path d="M0 0h160v160H0z"/>
        <path stroke="#000" stroke-linecap="round" stroke-linejoin="round" stroke-width="5" d="M91.282 106.046c-2.892-2.855-6.501-2.855-9.374 0-2.192 2.173-4.383 4.346-6.538 6.556-.589.607-1.086.736-1.804.331-1.418-.773-2.928-1.4-4.291-2.247-6.354-3.996-11.676-9.134-16.39-14.916-2.339-2.873-4.42-5.948-5.875-9.41-.295-.7-.24-1.16.332-1.731 2.191-2.118 4.327-4.291 6.482-6.464 3.002-3.02 3.002-6.556-.018-9.594-1.713-1.731-3.426-3.426-5.138-5.157-1.768-1.767-3.518-3.554-5.304-5.303-2.891-2.818-6.5-2.818-9.374.018-2.21 2.173-4.327 4.402-6.574 6.538-2.081 1.97-3.13 4.383-3.352 7.2-.35 4.585.774 8.913 2.357 13.13 3.242 8.729 8.177 16.482 14.162 23.59 8.085 9.613 17.734 17.218 29.023 22.706 5.083 2.468 10.35 4.364 16.077 4.677 3.941.221 7.366-.773 10.11-3.848 1.879-2.1 3.997-4.015 5.986-6.022 2.946-2.983 2.964-6.593.036-9.54-3.499-3.516-7.016-7.015-10.533-10.514z"/>
        <path stroke="#DA0F47" stroke-linecap="round" stroke-linejoin="round" stroke-width="5" d="M72.743 30.355h50.514c4.418 0 8 3.582 8 8v27.404c0 4.418-3.582 8-8 8H81.63h0l-11.608 9.669c-.848.707-2.11.592-2.816-.257-.3-.36-.464-.812-.464-1.28V36.355c0-3.314 2.687-6 6-6z"/>
        <g fill="#DA0F47" transform="translate(84 50)">
            <circle cx="3" cy="3" r="3"/>
            <circle cx="15" cy="3" r="3"/>
            <circle cx="27" cy="3" r="3"/>
        </g>
    </g>
</svg>
