<svg xmlns="http://www.w3.org/2000/svg" width="40" height="40" viewBox="0 0 40 40">
    <g fill="none" fill-rule="evenodd">
        <g>
            <path d="M0 0H40V40H0z"/>
            <g stroke-width="1.5">
                <path fill-rule="nonzero" stroke="#222" d="M18.923 18.263c-.813-.785-1.828-.785-2.636 0-.617.597-1.233 1.195-1.84 1.802-.165.168-.305.203-.507.092-.398-.213-.823-.385-1.206-.618-1.787-1.1-3.284-2.512-4.61-4.102-.658-.79-1.243-1.636-1.652-2.588-.083-.192-.068-.32.093-.476.616-.582 1.217-1.18 1.823-1.778.844-.83.844-1.802-.005-2.638-.482-.476-.964-.942-1.445-1.418-.497-.486-.99-.977-1.492-1.459-.813-.774-1.828-.774-2.636.006-.622.597-1.217 1.21-1.85 1.797-.585.542-.88 1.206-.942 1.98-.098 1.261.218 2.452.663 3.611.912 2.4 2.3 4.533 3.983 6.487 2.274 2.644 4.988 4.735 8.163 6.245 1.43.678 2.91 1.2 4.521 1.286 1.109.06 2.072-.213 2.844-1.059.528-.577 1.124-1.104 1.683-1.656.829-.82.834-1.813.01-2.623-.984-.967-1.973-1.93-2.962-2.891z" transform="translate(6.5 6.5)"/>
                <path stroke="#DA0F47" stroke-linecap="round" stroke-linejoin="bevel" d="M27.5 14c0-7.732-6.492-14-14.5-14" transform="translate(6.5 6.5)"/>
                <path stroke="#DA0F47" stroke-linecap="round" stroke-linejoin="round" d="M21.5 13.5c0-4.418-3.582-8-8-8" transform="translate(6.5 6.5)"/>
            </g>
        </g>
    </g>
</svg>
