<svg xmlns="http://www.w3.org/2000/svg" width="48" height="48" viewBox="0 0 48 48">
    <path fill="none" d="M0 0H48V48H0z"/>
    <g fill="none" stroke="#000" stroke-width="2px">
        <path stroke-miterlimit="10" d="M693.1 638.779a2.123 2.123 0 0 0-3-.165 2.147 2.147 0 0 0-.165.165c-.739.72-1.479 1.434-2.206 2.163a.441.441 0 0 1-.609.109c-.48-.255-.988-.462-1.448-.741a22.8 22.8 0 0 1-5.532-4.92 12.8 12.8 0 0 1-1.98-3.106.438.438 0 0 1 .112-.571c.74-.7 1.46-1.416 2.188-2.133a2.025 2.025 0 0 0-.006-3.166c-.578-.571-1.157-1.131-1.734-1.7-.6-.583-1.188-1.173-1.79-1.75a2.138 2.138 0 0 0-3.02-.138 1.781 1.781 0 0 0-.144.144c-.746.72-1.46 1.453-2.22 2.16a3.492 3.492 0 0 0-1.133 2.372 9.855 9.855 0 0 0 .8 4.333 26.219 26.219 0 0 0 4.779 7.784 29.491 29.491 0 0 0 9.8 7.493 14.416 14.416 0 0 0 5.428 1.544 4.027 4.027 0 0 0 3.412-1.27c.634-.693 1.349-1.325 2.02-1.987a2.041 2.041 0 0 0 .288-2.871 2.121 2.121 0 0 0-.275-.278q-1.778-1.742-3.565-3.471z" transform="translate(-662.901 -608.771)"/>
        <path stroke-linecap="round" stroke-linejoin="bevel" d="M703.4 633.664c0-9.279-7.791-16.8-17.4-16.8" transform="translate(-662.901 -608.771)"/>
        <path stroke-linecap="round" stroke-linejoin="round" d="M696.2 633.064a9.6 9.6 0 0 0-9.6-9.6" transform="translate(-662.901 -608.771)"/>
    </g>
</svg>
