<svg xmlns="http://www.w3.org/2000/svg" width="64" height="64" viewBox="0 0 64 64">
    <g fill="none" fill-rule="evenodd">
        <g>
            <g>
                <g>
                    <g>
                        <g>
                            <path d="M0 0H64V64H0z" transform="translate(-795 -494) translate(0 466) translate(427) translate(267 28) translate(101)"/>
                            <g transform="translate(-795 -494) translate(0 466) translate(427) translate(267 28) translate(101)">
                                <circle cx="32" cy="32" r="32" fill="#F4F4F4"/>
                                <path fill="#222" d="M33.6 44.8c.442 0 .8.358.8.8 0 .442-.358.8-.8.8h-3.2c-.442 0-.8-.358-.8-.8 0-.442.358-.8.8-.8h3.2zm1.6-2.4c.442 0 .8.358.8.8 0 .442-.358.8-.8.8h-6.4c-.442 0-.8-.358-.8-.8 0-.442.358-.8.8-.8h6.4zM32 17.6c5.744 0 10.4 4.656 10.4 10.4 0 4.326-2.641 8.035-6.4 9.603V40.8c0 .408-.305.744-.7.794l-.1.006h-6.4c-.408 0-.744-.305-.794-.7L28 40.8v-3.197c-3.758-1.567-6.4-5.277-6.4-9.603 0-5.744 4.656-10.4 10.4-10.4zM39.2 28c-.442 0-.8.358-.8.8 0 .442.358.8.8.8.442 0 .8-.358.8-.8 0-.442-.358-.8-.8-.8zm-5.698-6.106c-.168.409.027.876.435 1.044 1.619.666 2.947 1.908 3.722 3.476.196.397.676.559 1.072.363.396-.196.558-.675.362-1.071-.947-1.917-2.568-3.433-4.547-4.247-.408-.168-.876.027-1.044.435z"/>
                            </g>
                        </g>
                    </g>
                </g>
            </g>
        </g>
    </g>
</svg>
