<svg xmlns="http://www.w3.org/2000/svg" width="48" height="48" viewBox="0 0 48 48">
    <g fill="none" fill-rule="evenodd">
        <g>
            <g>
                <g>
                    <g>
                        <g>
                            <g>
                                <g>
                                    <path d="M0 0H48V48H0z" transform="translate(-827 -2986) translate(0 2062) translate(0 766) translate(318 126) translate(436) translate(42 32) translate(31)"/>
                                    <g transform="translate(-827 -2986) translate(0 2062) translate(0 766) translate(318 126) translate(436) translate(42 32) translate(31)">
                                        <circle cx="24" cy="24" r="24" fill="#F4F4F4"/>
                                        <path fill="#000" fill-rule="nonzero" d="M21.84 28.267V27.2h-7.55l-.01 4.267c0 1.184.961 2.133 2.16 2.133h15.12c1.199 0 2.16-.95 2.16-2.133V27.2h-7.56v1.067h-4.32zm10.8-9.6h-4.33v-2.134L26.15 14.4h-4.32l-2.16 2.133v2.134h-4.31c-1.188 0-2.16.96-2.16 2.133V24c0 1.184.961 2.133 2.16 2.133h6.48V24h4.32v2.133h6.48c1.188 0 2.16-.96 2.16-2.133v-3.2c0-1.173-.972-2.133-2.16-2.133zm-6.48 0h-4.32v-2.134h4.32v2.134z"/>
                                    </g>
                                </g>
                            </g>
                        </g>
                    </g>
                </g>
            </g>
        </g>
    </g>
</svg>
