<?xml version="1.0" encoding="UTF-8"?>
<svg width="48px" height="48px" viewBox="0 0 48 48" version="1.1" xmlns="http://www.w3.org/2000/svg" xmlns:xlink="http://www.w3.org/1999/xlink">
    <title>icon-03-48</title>
    <defs>
        <circle id="path-1" cx="14.5" cy="14.5" r="14.5"></circle>
        <circle id="path-3" cx="14.5" cy="14.5" r="14.5"></circle>
    </defs>
    <g id="Page-1" stroke="none" stroke-width="1" fill="none" fill-rule="evenodd">
        <g id="Group-34">
            <rect id="Mask-Copy-9" opacity="0.300000012" x="0" y="0" width="48" height="48"></rect>
            <g id="Group-33" transform="translate(3.000000, 3.000000)">
                <path d="M26.3846154,0 L27.2986267,4.3430773 C27.9638795,4.58682826 28.6110464,4.86808344 29.2375667,5.18428183 L32.803244,3.10475915 L39.6567405,9.95825565 L37.4072592,13.4069227 C37.7791394,14.1558361 38.101253,14.9338296 38.3692739,15.736577 L42,16.6923077 L42,26.3846154 L38.4365948,27.1346419 C38.11974,28.1226931 37.7212327,29.0741838 37.2490144,29.981172 L38.8952408,32.803244 L32.0417444,39.6567405 L29.293423,37.8643307 C28.5618718,38.2366934 27.8019559,38.5613314 27.0177764,38.8341438 L26.3846154,42 L16.6923077,42 L15.9790907,39.1490949 C14.8265778,38.8211341 13.7204233,38.3830896 12.6727179,37.8470519 L9.95825565,39.6567405 L3.10475915,32.803244 L4.77294776,30.0232211 C4.2847259,29.0914152 3.874411,28.112365 3.55065412,27.0947216 L0,26.3846154 L0,16.6923077 L3.61306894,15.7897345 C3.88965537,14.9527491 4.22499117,14.1424978 4.61419274,13.3638643 L2.34325954,9.95825565 L9.19675604,3.10475915 L12.70857,5.21157806 C13.6397589,4.73774267 14.6168938,4.34122887 15.631518,4.03049315 L16.6923077,0 L26.3846154,0 Z" id="Combined-Shape" stroke="#222222" stroke-width="1.5" fill="#FFFFFF"></path>
                <g id="Group-31" transform="translate(7.000000, 7.000000)">
                    <g id="Group-32">
                        <mask id="mask-2" fill="white">
                            <use xlink:href="#path-1"></use>
                        </mask>
                        <circle stroke="#222222" stroke-width="1.5" cx="14.5" cy="14.5" r="13.75"></circle>
                        <g id="Group-31" mask="url(#mask-2)" fill="#FFFFFF" stroke="#222222" stroke-width="1.5">
                            <g transform="translate(4.000000, 6.000000)" id="Oval">
                                <circle cx="10.5" cy="18.5" r="9.75"></circle>
                                <circle cx="10.5" cy="6.5" r="5.75"></circle>
                            </g>
                        </g>
                    </g>
                    <mask id="mask-4" fill="white">
                        <use xlink:href="#path-3"></use>
                    </mask>
                    <circle stroke="#222222" stroke-width="1.5" cx="14.5" cy="14.5" r="13.75"></circle>
                </g>
            </g>
        </g>
    </g>
</svg>