<?xml version="1.0" encoding="UTF-8"?>
<svg width="120px" height="120px" viewBox="0 0 120 120" version="1.1" xmlns="http://www.w3.org/2000/svg" xmlns:xlink="http://www.w3.org/1999/xlink">
    <title>icon-07-120</title>
    <g id="Page-1" stroke="none" stroke-width="1" fill="none" fill-rule="evenodd">
        <g id="ic_care_dryer_120_PC">
            <g id="Group-65">
                <rect id="Rectangle" x="0" y="0" width="120" height="120"></rect>
                <g id="Group-43" transform="translate(18.000000, 13.000000)">
                    <g id="Group-69">
                        <g id="Group-91" transform="translate(-0.000000, 0.000000)">
                            <g id="Group-93">
                                <path d="M62.4,8 C64.3882251,8 66,9.6117749 66,11.6 L66,84.4 C66,86.3882251 64.3882251,88 62.4,88 L3.6,88 C1.6117749,88 0,86.3882251 0,84.4 L0,11.6 C0,9.6117749 1.6117749,8 3.6,8 L62.4,8 Z M62.4,10 L3.6,10 C2.76543638,10 2.08011021,10.6389615 2.00653868,11.4543674 L2,11.6 L2,84.4 C2,85.2345636 2.63896152,85.9198898 3.45436739,85.9934613 L3.6,86 L62.4,86 C63.2345636,86 63.9198898,85.3610385 63.9934613,84.5456326 L64,84.4 L64,11.6 C64,10.7654364 63.3610385,10.0801102 62.5456326,10.0065387 L62.4,10 Z" id="Rectangle" fill="#767676" fill-rule="nonzero"></path>
                                <path d="M57,16 C57.5522847,16 58,16.4477153 58,17 C58,17.5522847 57.5522847,18 57,18 L45,18 C44.4477153,18 44,17.5522847 44,17 C44,16.4477153 44.4477153,16 45,16 L57,16 Z" id="Rectangle" fill="#767676" fill-rule="nonzero"></path>
                                <path d="M59,25 C59.5522847,25 60,25.4477153 60,26 C60,26.5522847 59.5522847,27 59,27 L6,27 C5.44771525,27 5,26.5522847 5,26 C5,25.4477153 5.44771525,25 6,25 L59,25 Z" id="Rectangle" fill="#767676" fill-rule="nonzero"></path>
                                <path d="M33,35 C45.1502645,35 55,44.8497355 55,57 C55,69.1502645 45.1502645,79 33,79 C20.8497355,79 11,69.1502645 11,57 C11,44.8497355 20.8497355,35 33,35 Z M33,37 C21.954305,37 13,45.954305 13,57 C13,68.045695 21.954305,77 33,77 C44.045695,77 53,68.045695 53,57 C53,45.954305 44.045695,37 33,37 Z" id="Rectangle" fill="#767676" fill-rule="nonzero"></path>
                                <path d="M44.2,64.4 C44.5313708,63.9581722 45.1581722,63.8686292 45.6,64.2 C46.0418278,64.5313708 46.1313708,65.1581722 45.8,65.6 C42.6111456,69.8518058 38.3147573,72 33,72 C27.6852427,72 23.3888544,69.8518058 20.2,65.6 C19.8686292,65.1581722 19.9581722,64.5313708 20.4,64.2 C20.8418278,63.8686292 21.4686292,63.9581722 21.8,64.4 C24.6111456,68.1481942 28.3147573,70 33,70 C37.6852427,70 41.3888544,68.1481942 44.2,64.4 Z" id="Path-15" fill="#767676" fill-rule="nonzero"></path>
                                <path d="M16,86 L16,93.6 C16,94.9254834 14.9254834,96 13.6,96 L6.4,96 C5.0745166,96 4,94.9254834 4,93.6 L4,86 L16,86 Z M14,88 L6,88 L6,93.6 C6,93.7932997 6.1371128,93.9545749 6.31938605,93.9918734 L6.4,94 L13.6,94 C13.7932997,94 13.9545749,93.8628872 13.9918734,93.680614 L14,93.6 L14,88 Z" id="Rectangle" fill="#767676" fill-rule="nonzero"></path>
                                <path d="M62,86 L62,93.6 C62,94.9254834 60.9254834,96 59.6,96 L52.4,96 C51.0745166,96 50,94.9254834 50,93.6 L50,86 L62,86 Z M59.999,88 L51.999,88 L52,93.6 C52,93.7932997 52.1371128,93.9545749 52.319386,93.9918734 L52.4,94 L59.6,94 C59.7932997,94 59.9545749,93.8628872 59.9918734,93.680614 L60,93.6 L59.999,88 Z" id="Rectangle" fill="#767676" fill-rule="nonzero"></path>
                                <g id="Group-92" transform="translate(67.000000, -0.000000)" stroke="#767676" stroke-width="2">
                                    <path d="M5.49360069,4.38578285 L2.8395277,12.2666642 L-2.72219293,14.4834136 L2.83839341,16.6596255 L5.49359173,24.652865 L8.18507437,16.6591589 L13.7058227,14.4834056 L8.18394135,12.2671205 L5.49360069,4.38578285 Z" id="Path-33" fill="#FFFFFF"></path>
                                    <rect id="Rectangle" x="16" y="0" width="7" height="7" rx="3.5"></rect>
                                    <rect id="Rectangle" x="16" y="21" width="7" height="7" rx="3.5"></rect>
                                </g>
                            </g>
                        </g>
                    </g>
                </g>
            </g>
        </g>
    </g>
</svg>