<?xml version="1.0" encoding="UTF-8"?>
<svg width="64px" height="64px" viewBox="0 0 64 64" version="1.1" xmlns="http://www.w3.org/2000/svg" xmlns:xlink="http://www.w3.org/1999/xlink">
    <!-- Generator: Sketch 61.2 (89653) - https://sketch.com -->
    <title>Artboard</title>
    <desc>Created with Sketch.</desc>
    <g id="Page-1" stroke="none" stroke-width="1" fill="none" fill-rule="evenodd">
        <g id="Artboard" transform="translate(-308.000000, -199.000000)">
            <g id="Group-24" transform="translate(308.000000, 199.000000)">
                <rect id="Rectangle" x="0" y="0" width="64" height="64"></rect>
                <g id="Group-20" transform="translate(2.000000, 1.500000)">
                    <path d="M27.5535272,42.720632 C28.947526,42.033289 30.581892,42.033289 31.9758908,42.720632 L34.0561728,43.7463626 C35.5146455,44.465496 37.2805299,43.8917254 38.0377632,42.4526655 L39.1178374,40.4000729 C39.841596,39.0246288 41.1638258,38.0639726 42.6956046,37.8006728 L44.9814974,37.4077473 C46.5841227,37.1322696 47.6754993,35.6301186 47.4422557,34.0208041 L47.1095703,31.7253702 C46.8866376,30.1871979 47.3916845,28.6328235 48.4761558,27.5194525 L50.0945261,25.857955 C51.2291555,24.6930894 51.2291555,22.8363286 50.0945261,21.671463 L48.4761558,20.0099655 C47.3916845,18.8965945 46.8866376,17.3422201 47.1095703,15.8040478 L47.4422557,13.5086139 C47.6754993,11.8992994 46.5841227,10.3971484 44.9814974,10.1216707 L42.6956046,9.72874517 C41.1638258,9.46544541 39.841596,8.50478921 39.1178374,7.12934511 L38.0377632,5.07675251 C37.2805299,3.6376926 35.5146455,3.06392198 34.0561728,3.78305535 L31.9758908,4.80878599 C30.581892,5.496129 28.947526,5.496129 27.5535272,4.80878599 L25.4732452,3.78305535 C24.0147725,3.06392198 22.248888,3.6376926 21.4916548,5.07675251 L20.4115806,7.12934511 C19.687822,8.50478921 18.3655922,9.46544541 16.8338134,9.72874517 L14.5479206,10.1216707 C12.9452953,10.3971484 11.8539187,11.8992994 12.0871623,13.5086139 L12.4198476,15.8040478 C12.6427804,17.3422201 12.1377335,18.8965945 11.0532622,20.0099655 L9.43489186,21.671463 C8.3002625,22.8363286 8.3002625,24.6930894 9.43489186,25.857955 L11.0532622,27.5194525 C12.1377335,28.6328235 12.6427804,30.1871979 12.4198476,31.7253702 L12.0871623,34.0208041 C11.8539187,35.6301186 12.9452953,37.1322696 14.5479206,37.4077473 L16.8338134,37.8006728 C18.3655922,38.0639726 19.687822,39.0246288 20.4115806,40.4000729 L21.4916548,42.4526655 C22.248888,43.8917254 24.0147725,44.465496 25.4732452,43.7463626 L27.5535272,42.720632 Z" id="Star" stroke="#000000" stroke-width="2"></path>
                    <circle id="Oval" stroke="#000000" stroke-width="2" cx="29.764709" cy="23.764709" r="13.8086963"></circle>
                    <path d="M28.0499397,32.0498506 L28.0499397,25.9846332 L30.4629832,25.9846332 C33.941244,25.9846332 36.4847223,24.3759375 36.4847223,20.8759375 C36.4847223,17.2672419 33.941244,16.0498506 30.3760266,16.0498506 L25.5282006,16.0498506 L25.5282006,32.0498506 L28.0499397,32.0498506 Z M30.2238527,23.962894 L28.0499397,23.962894 L28.0499397,18.0715897 L30.1368962,18.0715897 C32.6803745,18.0715897 34.0064614,18.7672419 34.0064614,20.8759375 C34.0064614,22.9846332 32.7890701,23.962894 30.2238527,23.962894 Z" id="P" fill="#DA0F47" fill-rule="nonzero"></path>
                    <path d="M42.3238464,39.9696515 L44.1438297,55.5491042 C44.2079116,56.0976587 43.8151689,56.5942985 43.2666145,56.6583803 C42.9132083,56.699665 42.5644829,56.550056 42.3508643,56.2655081 L40.2995153,53.5330352 C39.9679382,53.0913621 39.3410951,53.0021118 38.8994221,53.3336889 C38.8238932,53.3903907 38.7567776,53.4575062 38.7000758,53.5330352 L35.9288068,57.2244684 C35.5972297,57.6661414 34.9703866,57.7553918 34.5287136,57.4238146 C34.3096397,57.2593493 34.1676266,57.0122133 34.1358414,56.7401253 L32.1767236,39.9696515 L32.1767236,39.9696515" id="Path" stroke="#000000" stroke-width="2" transform="translate(38.375040, 49.597801) rotate(-13.000000) translate(-38.375040, -49.597801) "></path>
                    <path d="M25.9132132,39.9696515 L27.7331965,55.5491042 C27.7972783,56.0976587 27.4045357,56.5942985 26.8559812,56.6583803 C26.502575,56.699665 26.1538496,56.550056 25.9402311,56.2655081 L23.8888821,53.5330352 C23.557305,53.0913621 22.9304619,53.0021118 22.4887888,53.3336889 C22.4132599,53.3903907 22.3461444,53.4575062 22.2894426,53.5330352 L19.5181735,57.2244684 C19.1865964,57.6661414 18.5597533,57.7553918 18.1180803,57.4238146 C17.8990064,57.2593493 17.7569933,57.0122133 17.7252081,56.7401253 L15.7660904,39.9696515 L15.7660904,39.9696515" id="Path" stroke="#000000" stroke-width="2" transform="translate(21.964407, 49.597801) scale(-1, 1) rotate(-13.000000) translate(-21.964407, -49.597801) "></path>
                    <g id="Group-19" transform="translate(49.739487, 38.965898)" fill="#000000">
                        <rect id="Rectangle" x="1.8189894e-12" y="4" width="9.25457425" height="2" rx="1"></rect>
                        <rect id="Rectangle" transform="translate(4.627287, 5.000000) rotate(-270.000000) translate(-4.627287, -5.000000) " x="0" y="4" width="9.25457425" height="2" rx="1"></rect>
                    </g>
                    <rect id="Rectangle" fill="#000000" x="0.765454084" y="9.55372865" width="7.03385687" height="2" rx="1"></rect>
                    <rect id="Rectangle" fill="#000000" transform="translate(4.282383, 10.553729) rotate(-270.000000) translate(-4.282383, -10.553729) " x="0.765454084" y="9.55372865" width="7.03385687" height="2" rx="1"></rect>
                </g>
            </g>
        </g>
    </g>
</svg>