<svg xmlns="http://www.w3.org/2000/svg" width="32" height="32" viewBox="0 0 32 32">
    <g fill="none" fill-rule="evenodd">
        <g fill-rule="nonzero">
            <g>
                <g>
                    <g>
                        <g>
                            <path d="M0 0H32V32H0z" transform="translate(-2893 -7487) translate(2010 5681) translate(851 1788) translate(32 18)"/>
                            <path fill="#FFF" d="M25.336 16H28c0-6.84-5.158-12-12-12v2.667c5.41 0 9.336 3.924 9.336 9.333z" transform="translate(-2893 -7487) translate(2010 5681) translate(851 1788) translate(32 18)"/>
                            <path fill="#FFF" d="M16 12.16c2.692 0 3.84 1.148 3.84 3.84h2.56c0-4.128-2.272-6.4-6.4-6.4v2.56zM22.039 20.413c-.81-.8-1.82-.8-2.625 0-.613.608-1.227 1.217-1.83 1.835-.165.17-.305.207-.506.093-.397-.216-.82-.392-1.201-.629-1.779-1.119-3.27-2.557-4.59-4.176-.654-.805-1.237-1.666-1.644-2.635-.083-.196-.067-.325.093-.485.613-.593 1.211-1.201 1.815-1.81.84-.845.84-1.835-.005-2.686-.48-.485-.96-.96-1.44-1.444-.494-.495-.984-.995-1.484-1.485-.81-.789-1.82-.789-2.625.005-.619.609-1.211 1.233-1.84 1.83-.583.552-.877 1.228-.939 2.017-.098 1.284.217 2.495.66 3.676.908 2.444 2.29 4.615 3.965 6.605 2.264 2.692 4.966 4.821 8.127 6.358 1.423.691 2.898 1.222 4.501 1.31 1.104.062 2.063-.217 2.831-1.078.526-.588 1.12-1.124 1.676-1.686.825-.835.83-1.846.01-2.671-.98-.985-1.964-1.965-2.95-2.944z" transform="translate(-2893 -7487) translate(2010 5681) translate(851 1788) translate(32 18)"/>
                        </g>
                    </g>
                </g>
            </g>
        </g>
    </g>
</svg>
