<svg xmlns="http://www.w3.org/2000/svg" width="160" height="160" viewBox="0 0 160 160">
    <g>
        <g fill-rule="evenodd">
            <path fill="#fff" d="M910 400.493v30.5h-19v-30.5a1.5 1.5 0 0 1 1.5-1.5h16a1.5 1.5 0 0 1 1.5 1.5zM976.5 356h-36a6.162 6.162 0 0 0-1.5.18V328.5a6.506 6.506 0 0 0-6.5-6.5h-64a6.512 6.512 0 0 0-6.5 6.5v95.992a6.506 6.506 0 0 0 6.5 6.5H886v-30.5a6.513 6.513 0 0 1 6.5-6.5h16a6.506 6.506 0 0 1 6.5 6.5v30.5h61.5a6.5 6.5 0 0 0 6.5-6.5V362.5a6.506 6.506 0 0 0-6.5-6.5zm-50 10.5a4 4 0 0 1-4 4h-44a4 4 0 0 1-4-4v-2a4 4 0 0 1 4-4h44a4 4 0 0 1 4 4v2zm0-20a4 4 0 0 1-4 4h-44a4 4 0 0 1-4-4v-2a4 4 0 0 1 4-4h44a4 4 0 0 1 4 4v2zm51.5 77.991a1.5 1.5 0 0 1-1.5 1.5H939V362.5a1.5 1.5 0 0 1 1.5-1.5h36a1.5 1.5 0 0 1 1.5 1.5v62zm-87 6.5V431h-5v-.01h5zm24 0V431h-5v-.01h5zM970.5 368h-24a4.507 4.507 0 0 0-4.5 4.5v6a4.506 4.506 0 0 0 4.5 4.5h24a4.506 4.506 0 0 0 4.5-4.5v-6a4.507 4.507 0 0 0-4.5-4.5zm-.5 10h-23v-5h23v5z" transform="translate(-842 -296)"/>
            <path fill="#da0f47" d="M915 400.493v30.5h-5v-30.5a1.5 1.5 0 0 0-1.5-1.5h-16a1.5 1.5 0 0 0-1.5 1.5v30.5h-5v-30.5a6.513 6.513 0 0 1 6.5-6.5h16a6.506 6.506 0 0 1 6.5 6.5z" transform="translate(-842 -296)"/>
        </g>
    </g>
</svg>
