<?xml version="1.0" encoding="UTF-8"?>
<svg width="60px" height="60px" viewBox="0 0 60 60" version="1.1" xmlns="http://www.w3.org/2000/svg" xmlns:xlink="http://www.w3.org/1999/xlink">
    <title>icon-product06-60</title>
    <g id="Page-1" stroke="none" stroke-width="1" fill="none" fill-rule="evenodd">
        <g id="btn_catergory_life_60">
            <rect id="Rectangle" x="0" y="0" width="60" height="60"></rect>
            <g id="Group-48" transform="translate(6.000000, 17.000000)" fill="#767676">
                <path d="M45,0 C46.6568542,0 48,1.34314575 48,3 L48,24 C48,25.6568542 46.6568542,27 45,27 L3,27 C1.34314575,27 0,25.6568542 0,24 L0,3 C0,1.34314575 1.34314575,0 3,0 L45,0 Z M45,2 L3,2 C2.48716416,2 2.06449284,2.38604019 2.00672773,2.88337887 L2,3 L2,24 C2,24.5128358 2.38604019,24.9355072 2.88337887,24.9932723 L3,25 L45,25 C45.5128358,25 45.9355072,24.6139598 45.9932723,24.1166211 L46,24 L46,3 C46,2.48716416 45.6139598,2.06449284 45.1166211,2.00672773 L45,2 Z" id="Rectangle" fill-rule="nonzero"></path>
                <rect id="Rectangle" x="2" y="18" width="45" height="2"></rect>
                <g id="Group-47" transform="translate(32.000000, 13.000000)">
                    <path d="M4,0 L11,0 C11.5522847,-1.01453063e-16 12,0.44771525 12,1 C12,1.55228475 11.5522847,2 11,2 L4,2 C3.44771525,2 3,1.55228475 3,1 C3,0.44771525 3.44771525,1.01453063e-16 4,0 Z" id="Rectangle"></path>
                    <rect id="Rectangle" x="0" y="0" width="2" height="2" rx="1"></rect>
                </g>
            </g>
        </g>
    </g>
</svg>