<svg xmlns="http://www.w3.org/2000/svg" width="48" height="48" viewBox="0 0 48 48">
    <g fill="none" fill-rule="evenodd">
        <g>
            <g>
                <g>
                    <g>
                        <g>
                            <g transform="translate(-46 -1624) translate(0 870) translate(0 124) translate(0 604) translate(46 26)">
                                <circle cx="24" cy="24" r="24" fill="#F4F4F4"/>
                                <g stroke="#050101" stroke-linecap="round" stroke-linejoin="round" stroke-width="1.489">
                                    <path d="M3.473 21.886c2.356 2.579 6.023 4.173 9.557 4.173 7.196 0 13.03-5.833 13.03-13.03C26.06 5.834 20.226 0 13.03 0S0 5.834 0 13.03M6.701 6.701L19.359 19.358M19.359 6.701L6.701 19.358" transform="translate(10.91 10.91)"/>
                                    <path fill="#FFF" d="M13.365 16.912c1.959 0 3.547-1.588 3.547-3.547 0-1.96-1.588-3.547-3.547-3.547-1.96 0-3.547 1.588-3.547 3.547s1.588 3.547 3.547 3.547z" transform="translate(10.91 10.91)"/>
                                </g>
                            </g>
                        </g>
                    </g>
                </g>
            </g>
        </g>
    </g>
</svg>
