<svg xmlns="http://www.w3.org/2000/svg" width="130" height="130" viewBox="0 0 130 130">
    <defs>
        <linearGradient id="dz46k5ohkb" x1="33.654%" x2="66.367%" y1="5.037%" y2="94.965%">
            <stop offset="0%" stop-color="#F38895"/>
            <stop offset="9%" stop-color="#EB7588"/>
            <stop offset="31%" stop-color="#D84869"/>
            <stop offset="52%" stop-color="#CA2752"/>
            <stop offset="69%" stop-color="#C21344"/>
            <stop offset="80%" stop-color="#BF0C3F"/>
            <stop offset="100%" stop-color="#BF0C3F"/>
        </linearGradient>
        <linearGradient id="86w28egy6c" x1="10.207%" x2="80.443%" y1="19.553%" y2="90.171%">
            <stop offset="0%" stop-color="#CD425C"/>
            <stop offset="9%" stop-color="#BE3351"/>
            <stop offset="25%" stop-color="#AA1F43"/>
            <stop offset="43%" stop-color="#9B1039"/>
            <stop offset="65%" stop-color="#930833"/>
            <stop offset="100%" stop-color="#900531"/>
        </linearGradient>
        <linearGradient id="v9ocjdywmd" x1="0%" x2="100%" y1="50.004%" y2="50.004%">
            <stop offset="0%" stop-color="#B4BDC3"/>
            <stop offset="4%" stop-color="#AEB7BD"/>
            <stop offset="50%" stop-color="#6C737A"/>
            <stop offset="83%" stop-color="#434950"/>
            <stop offset="100%" stop-color="#333940"/>
        </linearGradient>
        <linearGradient id="o8m2zadkne" x1="0%" x2="100%" y1="49.97%" y2="49.97%">
            <stop offset="0%" stop-color="#B3BBC1"/>
            <stop offset="8%" stop-color="#A6AEB4"/>
            <stop offset="52%" stop-color="#636B70"/>
            <stop offset="84%" stop-color="#3A4246"/>
            <stop offset="100%" stop-color="#2A3236"/>
        </linearGradient>
        <linearGradient id="tm0iqysx8f" x1="5.689%" x2="76.308%" y1="14.165%" y2="84.784%">
            <stop offset="0%" stop-color="#ABBAC2"/>
            <stop offset="100%" stop-color="#262A30"/>
        </linearGradient>
        <linearGradient id="aa97uvbgqg" x1="7.798%" x2="78.495%" y1="18.777%" y2="89.79%">
            <stop offset="0%" stop-color="#B4BDC3"/>
            <stop offset="100%" stop-color="#3E454D"/>
        </linearGradient>
        <linearGradient id="r56y9f9lvh" x1="98.532%" x2="-.781%" y1="51.419%" y2="51.419%">
            <stop offset="0%" stop-color="#B4BDC3"/>
            <stop offset="100%" stop-color="#485159"/>
        </linearGradient>
        <linearGradient id="0fpegs3avi" x1="0%" x2="100%" y1="50.03%" y2="50.03%">
            <stop offset="0%" stop-color="#B3BBC1"/>
            <stop offset="8%" stop-color="#A6AEB4"/>
            <stop offset="52%" stop-color="#636B70"/>
            <stop offset="84%" stop-color="#3A4246"/>
            <stop offset="100%" stop-color="#2A3236"/>
        </linearGradient>
        <radialGradient id="p9a9tmvcla" cx="47.391%" cy="49.259%" r="52.085%" fx="47.391%" fy="49.259%" gradientTransform="matrix(.99976 0 0 1 0 0)">
            <stop offset="0%" stop-color="#BF0C3F"/>
            <stop offset="50%" stop-color="#BF0C3F"/>
            <stop offset="75%" stop-color="#BD0B3E"/>
            <stop offset="86%" stop-color="#B6093A"/>
            <stop offset="94%" stop-color="#A90534"/>
            <stop offset="100%" stop-color="#99002C"/>
        </radialGradient>
        <radialGradient id="sr9f2z0l5j" cx="29.678%" cy="28.768%" r="76.798%" fx="29.678%" fy="28.768%" gradientTransform="matrix(1 0 0 .99975 0 0)">
            <stop offset="0%" stop-color="#FFF"/>
            <stop offset="35%" stop-color="#FFF"/>
            <stop offset="51%" stop-color="#FBFCFC"/>
            <stop offset="68%" stop-color="#EEF2F3"/>
            <stop offset="85%" stop-color="#DAE1E5"/>
            <stop offset="100%" stop-color="#C0CCD2"/>
        </radialGradient>
        <radialGradient id="e8ilajlr5k" cx="28.109%" cy="31.034%" r="78.131%" fx="28.109%" fy="31.034%">
            <stop offset="0%" stop-color="#FFF"/>
            <stop offset="35%" stop-color="#FFF"/>
            <stop offset="54%" stop-color="#FBFCFC"/>
            <stop offset="73%" stop-color="#EEF2F4"/>
            <stop offset="93%" stop-color="#DAE2E6"/>
            <stop offset="100%" stop-color="#D0DADF"/>
        </radialGradient>
    </defs>
    <g fill="none" fill-rule="evenodd">
        <g>
            <g>
                <g>
                    <g>
                        <path fill="#FFF" stroke="#645E5E" stroke-width=".5" d="M128 98.843C128 114.944 114.95 128 98.843 128H29.154C13.051 127.998 0 114.942 0 98.843V29.16C0 13.06 13.051 0 29.154 0h69.69C114.95 0 128 13.058 128 29.16v69.683z" transform="translate(-295 -287) translate(32 288) translate(264)"/>
                        <g>
                            <path fill="#6D6E70" fill-rule="nonzero" d="M57.45 7.281L51.2 7.281 51.2 34.329 70.394 34.329 70.394 29.063 57.45 29.063zM84.141 24.02h5.088v4.729c-.938.359-2.765.716-4.507.716-5.624 0-7.5-2.859-7.5-8.66 0-5.535 1.785-8.794 7.41-8.794 3.124 0 4.91.983 6.382 2.858l3.885-3.574C92.53 7.908 88.375 6.88 84.5 6.88c-8.75 0-13.346 4.775-13.346 13.875 0 9.061 4.151 13.971 13.301 13.971 4.196 0 8.304-1.071 10.534-2.632V18.969H84.14v5.051z" transform="translate(-295 -287) translate(32 288) translate(264) translate(16.5 43.08)"/>
                            <path fill="url(#p9a9tmvcla)" fill-rule="nonzero" d="M20.914 0C9.375 0 0 9.364 0 20.92c0 11.556 9.375 20.92 20.909 20.92 11.498.01 20.849-9.26 20.941-20.757v-.327C41.757 9.261 32.41-.007 20.914 0z" transform="translate(-295 -287) translate(32 288) translate(264) translate(16.5 43.08)"/>
                            <path fill="url(#dz46k5ohkb)" fill-rule="nonzero" d="M6.76 6.759C-.23 13.75-.939 24.405 5.201 30.545c6.14 6.14 16.784 5.434 23.776-1.562 6.993-6.997 7.71-17.658 1.575-23.798-2.802-2.802-6.544-4.181-10.457-4.181-4.647 0-9.531 1.95-13.335 5.75" transform="translate(-295 -287) translate(32 288) translate(264) translate(16.5 43.08)"/>
                            <path fill="url(#86w28egy6c)" fill-rule="nonzero" d="M19.841 30.295l.518-.294V12.326l-.125-.206.125-.039v-.025h.09l1.563-.536.28.483c.03.037.045.085.04.133l-.016 16.095h3.803l.306.477c.04.057.056.127.046.196v1.625c.004.034-.006.068-.029.094-.022.027-.054.043-.088.045h-5.82c-.104-.001-.205-.03-.293-.085l-.4-.288zm18.875-10.337H25.775v2.072l.321.429c.03.028.07.044.11.044h10.83C36.477 30.69 29.57 37.1 21.32 37.1c-4.175.01-8.182-1.64-11.139-4.587-2.955-2.923-4.614-6.91-4.604-11.067 0-4.185 1.548-8.197 4.516-11.15 2.99-2.947 6.75-4.5 11.25-4.602l.85-.013h.094c.059-.006.11-.007.11-.138V3.85c.004-.064-.011-.127-.042-.183l-.381-.48-.862.125-.436.143c-9.828 0-17.196 8.214-17.196 18-.008 4.71 1.875 9.227 5.226 12.537 3.364 3.35 7.824 5.046 12.583 5.046 4.78 0 9.268-1.803 12.625-5.154 3.352-3.309 5.235-7.826 5.225-12.536v-1.02l-.422-.371zm-24.209-8.193c-1.539.01-2.78 1.264-2.773 2.804.006 1.539 1.257 2.783 2.796 2.78 1.54-.001 2.787-1.248 2.789-2.788-.006-1.548-1.264-2.799-2.811-2.796z" transform="translate(-295 -287) translate(32 288) translate(264) translate(16.5 43.08)"/>
                            <path fill="#626D77" fill-rule="nonzero" d="M20.267 29.889L19.841 30.295 26.116 30.295 25.707 29.878z" transform="translate(-295 -287) translate(32 288) translate(264) translate(16.5 43.08)"/>
                            <path fill="#8699A3" fill-rule="nonzero" d="M25.707 28.628L26.116 28.231 22.01 28.231 21.524 28.628z" transform="translate(-295 -287) translate(32 288) translate(264) translate(16.5 43.08)"/>
                            <path fill="#8D9AA1" fill-rule="nonzero" d="M22.01 11.52L19.841 11.52 20.249 11.909 21.545 11.906z" transform="translate(-295 -287) translate(32 288) translate(264) translate(16.5 43.08)"/>
                            <path fill="url(#v9ocjdywmd)" fill-rule="nonzero" d="M21.558 28.596L22.01 28.231 22.01 11.52 21.545 11.906z" transform="translate(-295 -287) translate(32 288) translate(264) translate(16.5 43.08)"/>
                            <path fill="url(#o8m2zadkne)" fill-rule="nonzero" d="M25.707 28.628L25.707 29.878 26.116 30.295 26.116 28.231z" transform="translate(-295 -287) translate(32 288) translate(264) translate(16.5 43.08)"/>
                            <path fill="#B4BDC3" fill-rule="nonzero" d="M19.841 11.52L19.841 30.295 20.267 29.889 20.249 11.909z" transform="translate(-295 -287) translate(32 288) translate(264) translate(16.5 43.08)"/>
                            <path d="M11.914 14.24c-.003.941.562 1.791 1.43 2.153.87.363 1.871.166 2.538-.499.667-.664.867-1.665.508-2.535-.358-.87-1.206-1.438-2.148-1.439-.616-.002-1.208.242-1.645.677-.437.435-.683 1.026-.683 1.643z" transform="translate(-295 -287) translate(32 288) translate(264) translate(16.5 43.08)"/>
                            <path fill="url(#tm0iqysx8f)" fill-rule="nonzero" d="M11.51 14.24c-.001 1.105.664 2.101 1.684 2.525 1.02.424 2.195.19 2.977-.59s1.016-1.955.594-2.976c-.422-1.021-1.418-1.687-2.523-1.688-.724-.001-1.42.285-1.932.797-.513.512-.8 1.207-.8 1.932zm5.055 0c.003.942-.563 1.792-1.433 2.154-.87.362-1.871.164-2.537-.502-.667-.666-.866-1.667-.505-2.537.36-.87 1.21-1.437 2.152-1.435.616 0 1.207.243 1.643.679.435.435.68 1.025.68 1.641z" transform="translate(-295 -287) translate(32 288) translate(264) translate(16.5 43.08)"/>
                            <path fill="#505C61" fill-rule="nonzero" d="M36.949 21.559L26.104 21.546 25.701 21.97 36.532 21.97 36.748 21.746z" transform="translate(-295 -287) translate(32 288) translate(264) translate(16.5 43.08)"/>
                            <path fill="#8F9CA4" fill-rule="nonzero" d="M26.104 20.324L38.233 20.304 38.642 19.891 25.701 19.894z" transform="translate(-295 -287) translate(32 288) translate(264) translate(16.5 43.08)"/>
                            <path fill="url(#aa97uvbgqg)" fill-rule="nonzero" d="M38.642 20.92v-1.022l-.41.412v.61c0 9.564-7.752 17.316-17.316 17.316-9.563 0-17.316-7.752-17.316-17.316 0-9.555 7.764-17.325 17.305-17.325l.661-.009.405-.392-1.066-.01c-9.764 0-17.714 7.956-17.714 17.736-.053 6.368 3.314 12.276 8.82 15.475 5.506 3.2 12.306 3.2 17.812 0 5.506-3.2 8.873-9.107 8.82-15.475z" transform="translate(-295 -287) translate(32 288) translate(264) translate(16.5 43.08)"/>
                            <path fill="url(#r56y9f9lvh)" fill-rule="nonzero" d="M21.565 4.868l-.457-.01h-.43c-8.872.008-16.056 7.206-16.048 16.077.008 8.871 7.206 16.056 16.078 16.048h.417c8.325-.105 15.25-6.647 15.816-14.974l.015-.444-.205.188-.215.223c-.556 8.189-7.417 14.599-15.616 14.599-5.592 0-10.759-2.983-13.554-7.826-2.796-4.842-2.796-10.808 0-15.65 2.795-4.843 7.962-7.826 13.554-7.826l1.055.01-.41-.415z" transform="translate(-295 -287) translate(32 288) translate(264) translate(16.5 43.08)"/>
                            <path fill="#B4BDC3" fill-rule="nonzero" d="M26.104 20.324L25.701 19.894 25.701 21.97 26.104 21.546z" transform="translate(-295 -287) translate(32 288) translate(264) translate(16.5 43.08)"/>
                            <path fill="url(#0fpegs3avi)" fill-rule="nonzero" d="M21.566 4.87L21.971 5.276 21.971 3.188 21.566 3.58z" transform="translate(-295 -287) translate(32 288) translate(264) translate(16.5 43.08)"/>
                            <path fill="url(#sr9f2z0l5j)" fill-rule="nonzero" d="M20.071 11.741v18.334h5.83v-1.634h-4.159v-16.7h-1.67zm.61-8.341c-9.534.115-17.28 7.926-17.28 17.514 0 6.254 3.337 12.033 8.753 15.16 5.416 3.126 12.089 3.126 17.505 0 5.416-3.127 8.752-8.906 8.752-15.16v-.795H25.915v1.625H36.75v.237c-.563 8.25-7.441 14.808-15.837 14.808-8.768 0-15.876-7.108-15.876-15.875 0-8.768 7.108-15.875 15.876-15.875h.837V3.41c-.165 0-.44-.006-.655-.01h-.414z" transform="translate(-295 -287) translate(32 288) translate(264) translate(16.5 43.08)"/>
                            <path fill="url(#e8ilajlr5k)" fill-rule="nonzero" d="M11.717 14.24c0 1.016.61 1.933 1.55 2.323.938.39 2.02.176 2.738-.543.72-.718.935-1.798.547-2.738-.389-.939-1.304-1.551-2.32-1.552-.667-.001-1.306.263-1.778.734-.472.47-.737 1.11-.737 1.776" transform="translate(-295 -287) translate(32 288) translate(264) translate(16.5 43.08)"/>
                            <path fill="#FFF" fill-rule="nonzero" d="M14.682 12.181c.554.004 1.091.192 1.527.534-.585-.782-1.572-1.152-2.527-.947-.955.205-1.703.947-1.915 1.9-.213.954.15 1.943.927 2.535-.339-.432-.524-.964-.527-1.512.003-1.387 1.128-2.51 2.515-2.51" transform="translate(-295 -287) translate(32 288) translate(264) translate(16.5 43.08)"/>
                            <path fill="#FFF" fill-rule="nonzero" d="M21.741 3.41c-.22 0-.635-.012-.846-.012-9.636 0-17.493 7.86-17.493 17.516-.012 4.646 1.833 9.104 5.125 12.382.106.107.216.207.323.31-3.113-3.25-4.846-7.578-4.835-12.078 0-9.634 6.823-17.635 17.726-18.118M21.741 28.441s1.201.349 4.157.349v-.349H21.74zM21.741 12.256v-.517h-1.67v18.336s.523-2.789.523-17.819h1.147zM38.41 20.116h-12.5v1.625h.454V20.57c10.888 0 12.042-.455 12.042-.455" transform="translate(-295 -287) translate(32 288) translate(264) translate(16.5 43.08)"/>
                            <path fill="#FFF" fill-rule="nonzero" d="M36.75 21.746c0 .035 0 .21-.01.242-.558 8.247-7.44 14.807-15.836 14.807-7.117-.008-13.36-4.748-15.279-11.601 1.935 6.985 8.304 11.813 15.552 11.789 7.974 0 15.322-6.25 15.778-15.237h-.205z" transform="translate(-295 -287) translate(32 288) translate(264) translate(16.5 43.08)"/>
                        </g>
                    </g>
                </g>
            </g>
        </g>
    </g>
</svg>
