<svg xmlns="http://www.w3.org/2000/svg" width="40" height="40" viewBox="0 0 40 40">
    <defs>
        <filter id="ur5ou9pssa">
            <feColorMatrix in="SourceGraphic" values="0 0 0 0 0.403922 0 0 0 0 0.207843 0 0 0 0 0.917647 0 0 0 1.000000 0"/>
        </filter>
        <filter id="y9jw4afllb">
            <feColorMatrix in="SourceGraphic" values="0 0 0 0 1.000000 0 0 0 0 1.000000 0 0 0 0 1.000000 0 0 0 1.000000 0"/>
        </filter>
    </defs>
    <g fill="none" fill-rule="evenodd">
        <g>
            <g>
                <g>
                    <g>
                        <g filter="url(#ur5ou9pssa)" transform="translate(-529 -1633) translate(0 1328) translate(32 284) translate(367 20)">
                            <g>
                                <g>
                                    <g>
                                        <path d="M0 0H40V40H0z" transform="translate(130) translate(0 1)"/>
                                        <g stroke-linecap="round" filter="url(#y9jw4afllb)" transform="translate(130) translate(0 1)">
                                            <g stroke="#979797" stroke-width="2">
                                                <path stroke-linejoin="round" d="M7.947 2.5L12.894 0 17.947 2.5" transform="translate(7 6)"/>
                                                <path stroke-linejoin="round" d="M7.947 12.5L12.894 10 17.947 12.5" transform="translate(7 6) matrix(1 0 0 -1 0 22.5)"/>
                                                <path stroke-linejoin="round" d="M7.947 28.333L12.894 25.833 17.947 28.333" transform="translate(7 6) matrix(1 0 0 -1 0 54.167)"/>
                                                <path stroke-linejoin="round" d="M5 3.75L0 6.324 0 12.083" transform="translate(7 6)"/>
                                                <path stroke-linejoin="round" d="M25.833 3.75L20.833 6.324 20.833 12.083" transform="translate(7 6) matrix(-1 0 0 1 46.667 0)"/>
                                                <path stroke-linejoin="round" d="M25.833 15.833L20.833 18.408 20.833 24.167" transform="translate(7 6) rotate(180 23.333 20)"/>
                                                <path stroke-linejoin="round" d="M5 15.833L0 18.408 0 24.167" transform="translate(7 6) matrix(1 0 0 -1 0 40)"/>
                                                <path d="M12.947 12.5L12.947 17.5M12.947 22.5L12.947 27.5M12.947 0L12.947 5.833M25.833 6.324L20.833 8.636" transform="translate(7 6)"/>
                                                <path d="M5 6.324L0 8.636" transform="translate(7 6) matrix(-1 0 0 1 5 0)"/>
                                                <path d="M5 19.167L0 21.479" transform="translate(7 6) rotate(180 2.5 20.323)"/>
                                                <path d="M25.833 19.167L20.833 21.479" transform="translate(7 6) matrix(1 0 0 -1 0 40.645)"/>
                                            </g>
                                        </g>
                                    </g>
                                </g>
                            </g>
                        </g>
                    </g>
                </g>
            </g>
        </g>
    </g>
</svg>
