<svg xmlns="http://www.w3.org/2000/svg" xmlns:xlink="http://www.w3.org/1999/xlink" width="64" height="64" viewBox="0 0 64 64">
    <defs>
        <path id="nexlm14zba" d="M0 0H64V64H0z"/>
    </defs>
    <g fill="none" fill-rule="evenodd">
        <g>
            <g>
                <g>
                    <g transform="translate(-451 -829) translate(203 828) translate(240 1) translate(8)">
                        <mask id="8dklsh5xlb" fill="#fff">
                            <use xlink:href="#nexlm14zba"/>
                        </mask>
                        <g mask="url(#8dklsh5xlb)">
                            <g>
                                <path stroke="#000" stroke-width="2" d="M44.4 4.36H2c-.276 0-.526.112-.707.293-.181.18-.293.43-.293.707v19.52c0 .276.112.526.293.707.18.181.43.293.707.293h18.318L7.294 38.683c-.182.2-.27.453-.262.704.007.256.112.509.313.699L22.657 54.54c.196.184.447.275.697.272.25-.002.499-.098.69-.286l30.369-29.845c.24-.236.345-.576.28-.906L52.26 11.382c-.04-.207-.144-.39-.289-.529s-.331-.235-.54-.267l-2.669-.415-3.526-5.36c-.185-.282-.499-.451-.835-.451z" transform="translate(5 4)"/>
                                <path stroke="#000" stroke-width="2" d="M7.294 38.683c-.182.2-.27.453-.262.704.007.256.112.509.313.699L22.657 54.54c.196.184.447.275.697.272.25-.002.499-.098.69-.286l30.369-29.845c.24-.236.345-.576.28-.906L52.26 11.382c-.04-.207-.144-.39-.289-.529s-.331-.235-.54-.267L38.5 8.58c-.313-.048-.63.054-.855.275l-30.35 29.83z" transform="translate(5 4)"/>
                                <path fill="#DA0F47" fill-rule="nonzero" d="M19.564 37.8c1.881 0 2.992-1.133 2.992-2.464 0-1.177-.649-1.804-1.639-2.211l-1.067-.451c-.693-.275-1.276-.484-1.276-1.067 0-.54.462-.858 1.177-.858.671 0 1.21.242 1.727.67l.825-1.022c-.66-.671-1.606-1.045-2.552-1.045-1.65 0-2.816 1.023-2.816 2.354 0 1.188.825 1.848 1.65 2.189l1.09.462c.725.308 1.22.495 1.22 1.1 0 .572-.45.935-1.298.935-.715 0-1.485-.363-2.068-.902l-.935 1.122c.792.759 1.881 1.188 2.97 1.188zm5.038-.154l.572-2.09h2.64l.572 2.09h1.705l-2.618-8.14H25.56l-2.607 8.14h1.65zm2.86-3.355h-1.936l.242-.891c.242-.847.484-1.771.693-2.662h.044c.242.88.462 1.815.715 2.662l.242.89zm8.514 3.355v-1.364h-3.3v-6.776h-1.628v8.14h4.928zm6.534 0v-1.364h-3.487v-2.178h2.86V32.74h-2.86v-1.881h3.366v-1.353h-4.994v8.14h5.115z" transform="translate(5 4) rotate(-45 29.552 33.576)"/>
                                <g stroke="#000" stroke-width="2.24" transform="translate(5 4) translate(43.346 7.84)">
                                    <ellipse cx="3.419" cy="7.84" rx="2.299" ry="2.24"/>
                                    <path stroke-linecap="round" stroke-linejoin="round" d="M5.698 5.544L11.339 0"/>
                                </g>
                            </g>
                        </g>
                    </g>
                </g>
            </g>
        </g>
    </g>
</svg>
