<?xml version="1.0" encoding="UTF-8"?>
<svg width="20px" height="20px" viewBox="0 0 20 20" version="1.1" xmlns="http://www.w3.org/2000/svg" xmlns:xlink="http://www.w3.org/1999/xlink">
    <title>icon-ars-call</title>
    <g id="Page-1" stroke="none" stroke-width="1" fill="none" fill-rule="evenodd">
        <g id="bx-bxs-phone-call" fill-rule="nonzero">
            <g id="Icon" transform="translate(2.000000, 1.000000)" fill="#FFFFFF">
                <path d="M14.6666667,8.16583333 L16.3333333,8.16583333 C16.3333333,3.89083333 13.1058333,0.666666667 8.825,0.666666667 L8.825,2.33333333 C12.21,2.33333333 14.6666667,4.78583333 14.6666667,8.16583333 Z" id="Icon-Path"></path>
                <path d="M8.83333333,5.66666667 C10.5858333,5.66666667 11.3333333,6.41416667 11.3333333,8.16666667 L13,8.16666667 C13,5.47916667 11.5208333,4 8.83333333,4 L8.83333333,5.66666667 Z M11.685,10.2025 C11.3521441,9.89996918 10.8393672,9.91582066 10.5258333,10.2383333 L8.53166667,12.2891667 C8.05166667,12.1975 7.08666667,11.8966667 6.09333333,10.9058333 C5.1,9.91166667 4.79916667,8.94416667 4.71,8.4675 L6.75916667,6.4725 C7.08210892,6.1591556 7.09797129,5.6460266 6.795,5.31333333 L3.71583333,1.9275 C3.41268954,1.59371272 2.89903869,1.56158646 2.55666667,1.855 L0.748333333,3.40583333 C0.604259183,3.55042938 0.518266296,3.74287553 0.506666667,3.94666667 C0.494166667,4.155 0.255833333,9.09 4.0825,12.9183333 C7.42083333,16.2558333 11.6025,16.5 12.7541667,16.5 C12.9225,16.5 13.0258333,16.495 13.0533333,16.4933333 C13.2570959,16.4819268 13.4494375,16.3955512 13.5933333,16.2508333 L15.1433333,14.4416667 C15.4369589,14.0995134 15.4052029,13.5858783 15.0716667,13.2825 L11.685,10.2025 Z" id="Icon-Shape"></path>
            </g>
            <rect id="ViewBox" x="0" y="0" width="20" height="20"></rect>
        </g>
    </g>
</svg>