<svg xmlns="http://www.w3.org/2000/svg" width="160" height="160" viewBox="0 0 160 160">
  <defs>
    <style>
      .cls-1 {
        fill: #fff;
        opacity: 0;
      }

      .cls-2 {
        fill: #da0f47;
      }

      .cls-2, .cls-3 {
        fill-rule: evenodd;
      }
    </style>
  </defs>
  <g id="icon_consulting-inquiry">
    <rect id="icon_area" class="cls-1" width="160" height="160"/>
    <g id="shape">
      <path class="cls-2" d="M105.065,372.658H58.933a2.511,2.511,0,0,0,0,5.021h46.132A2.511,2.511,0,0,0,105.065,372.658Zm0,15.048H58.933a2.511,2.511,0,0,0,0,5.021h46.132A2.511,2.511,0,0,0,105.065,387.706ZM85.007,407.775a2.511,2.511,0,0,0,0-5.021H58.933a2.511,2.511,0,0,0,0,5.021H85.007Z" transform="translate(-2 -296)"/>
      <path id="Shape_54_copy" data-name="Shape 54 copy" class="cls-3" d="M132.017,415.619a2.5,2.5,0,0,0-3.545,0l-4.793,4.8V340.649A17.659,17.659,0,0,0,106.051,323H59.26a2.511,2.511,0,0,0,0,5.021h46.791a12.635,12.635,0,0,1,12.613,12.63v79.769l-4.794-4.8a2.508,2.508,0,0,0-3.545,3.55l9.071,9.082a2.539,2.539,0,0,0,.385.316c0.058,0.039.121,0.065,0.181,0.1a2.216,2.216,0,0,0,.251.132,2.139,2.139,0,0,0,.247.077c0.074,0.022.144,0.051,0.22,0.066a2.485,2.485,0,0,0,.982,0c0.076-.015.146-0.044,0.22-0.066a2.139,2.139,0,0,0,.247-0.077,2.319,2.319,0,0,0,.252-0.132c0.06-.034.122-0.059,0.179-0.1a2.5,2.5,0,0,0,.386-0.316l9.07-9.082A2.513,2.513,0,0,0,132.017,415.619Zm-29.284,8.349H57.948a12.637,12.637,0,0,1-12.614-12.631V331.569l4.794,4.8a2.509,2.509,0,0,0,3.545-3.55L44.6,323.736a2.5,2.5,0,0,0-3.55,0l-9.07,9.082a2.509,2.509,0,0,0,3.545,3.55l4.793-4.8v79.768a17.66,17.66,0,0,0,17.628,17.652h44.785A2.511,2.511,0,0,0,102.733,423.968Z" transform="translate(-2 -296)"/>
    </g>
  </g>
</svg>
