<?xml version="1.0" encoding="UTF-8"?>
<svg width="80px" height="80px" viewBox="0 0 80 80" version="1.1" xmlns="http://www.w3.org/2000/svg" xmlns:xlink="http://www.w3.org/1999/xlink">
    <title>icon-05-80</title>
    <g id="Page-1" stroke="none" stroke-width="1" fill="none" fill-rule="evenodd">
        <g id="ic_USP_archive_80">
            <rect id="Rectangle" x="0" y="0" width="80" height="80"></rect>
            <rect id="Rectangle" x="4" y="4" width="72" height="72"></rect>
            <g id="Group-33" transform="translate(14.000000, 8.000000)" stroke-width="3">
                <path d="M37.1609731,1.5 L3,1.5 C2.58578644,1.5 2.21078644,1.66789322 1.93933983,1.93933983 C1.66789322,2.21078644 1.5,2.58578644 1.5,3 L1.5,61 C1.5,61.4142136 1.66789322,61.7892136 1.93933983,62.0606602 C2.21078644,62.3321068 2.58578644,62.5 3,62.5 L49,62.5 C49.4142136,62.5 49.7892136,62.3321068 50.0606602,62.0606602 C50.3321068,61.7892136 50.5,61.4142136 50.5,61 L50.3567317,14.7226845 L37.1609731,1.5 Z" id="Rectangle" stroke="#767676"></path>
                <path d="M49.7300227,16.9391775 L39.7300227,16.9391775 C38.0731685,16.9391775 36.7300227,15.5960318 36.7300227,13.9391775 L36.7300227,1.93917753 L36.7300227,1.93917753" id="Path-8" stroke="#767676"></path>
                <g id="Group-17" transform="translate(17.000000, 27.000000)" stroke="#EC455A" stroke-linecap="round">
                    <line x1="9.5" y1="0" x2="9.5" y2="14" id="Path-9" stroke-linejoin="round"></line>
                    <polyline id="Path-10" stroke-linejoin="round" points="2 9 9.32581821 15 17 9"></polyline>
                    <line x1="0" y1="20.5" x2="18.5" y2="20.5" id="Path-11"></line>
                </g>
            </g>
        </g>
    </g>
</svg>