<svg xmlns="http://www.w3.org/2000/svg" width="24" height="24" viewBox="0 0 24 24">
    <g fill="none" fill-rule="evenodd">
        <g>
            <g>
                <g>
                    <g>
                        <g>
                            <path d="M0 0H24V24H0z" transform="translate(-1477 -3085) translate(1273 2237) translate(0 848) translate(204)"/>
                            <g stroke="#000">
                                <path d="M7.614 10.4l-4.769.282L.92 18.7l18.345-.518-2.692-7.782h-4.386c-.821 1.003-1.58 1.704-2.92 1.84-.074-.072-.799-.79-1.652-1.84z" transform="translate(-1477 -3085) translate(1273 2237) translate(0 848) translate(204) translate(2.1 2.4)"/>
                                <path fill-rule="nonzero" stroke-linejoin="bevel" d="M9.9 0C7.253 0 5.1 2.12 5.1 4.725c0 3.275 4.333 7.578 4.517 7.76.078.076.18.115.283.115.102 0 .205-.039.283-.115.184-.182 4.517-4.485 4.517-7.76C14.7 2.119 12.547 0 9.9 0z" transform="translate(-1477 -3085) translate(1273 2237) translate(0 848) translate(204) translate(2.1 2.4)"/>
                                <g transform="translate(-1477 -3085) translate(1273 2237) translate(0 848) translate(204) translate(2.1 2.4) translate(6.6 1.5)">
                                    <rect width="3.782" height="3.8" x="1.4" y="1.224" rx="1.891"/>
                                </g>
                            </g>
                        </g>
                    </g>
                </g>
            </g>
        </g>
    </g>
</svg>
