<svg xmlns="http://www.w3.org/2000/svg" width="24" height="24" viewBox="0 0 24 24">
    <defs>
        <linearGradient id="ixak6ztqda" x1="10.033%" x2="100%" y1="9.616%" y2="100%">
            <stop offset="0%" stop-color="#F47A48"/>
            <stop offset="100%" stop-color="#F1C246"/>
        </linearGradient>
    </defs>
    <g fill="none" fill-rule="evenodd">
        <g>
            <g>
                <path d="M0 0H24V24H0z"/>
                <path fill="url(#ixak6ztqda)" d="M11.665 17.426l-4.545 2.39c-.352.185-.788.05-.973-.302-.073-.14-.099-.301-.072-.457l.868-5.062c.04-.233-.037-.471-.207-.637L3.059 9.774c-.285-.278-.291-.734-.013-1.019.11-.113.255-.187.412-.21l5.082-.738c.234-.034.437-.181.542-.394l2.272-4.605c.176-.356.608-.503.965-.327.142.07.257.185.327.327l2.272 4.605c.105.213.308.36.542.394l5.082.739c.394.057.667.422.61.816-.023.156-.097.301-.21.412l-3.678 3.584c-.17.166-.247.404-.207.637l.868 5.062c.067.392-.196.764-.588.831-.156.027-.316.001-.457-.072l-4.545-2.39c-.21-.11-.46-.11-.67 0z"/>
            </g>
        </g>
    </g>
</svg>
