<svg xmlns="http://www.w3.org/2000/svg" xmlns:xlink="http://www.w3.org/1999/xlink" width="64" height="64" viewBox="0 0 64 64">
    <defs>
        <circle id="63xbvdui8a" cx="27.201" cy="12.6" r="6.074"/>
    </defs>
    <g fill="none" fill-rule="evenodd">
        <g>
            <g>
                <g>
                    <g>
                        <g>
                            <g>
                                <path d="M0 0H64V64H0z" transform="translate(-1482 -436) translate(269 286) translate(235) translate(0 118) translate(876) translate(102 32)"/>
                                <g transform="translate(-1482 -436) translate(269 286) translate(235) translate(0 118) translate(876) translate(102 32) translate(6 5.9)">
                                    <path stroke="#000" stroke-linecap="round" stroke-linejoin="round" stroke-width="2" d="M4.67 37.545l8.217 9.501c1.675-2.244 3.334-3.366 4.974-3.366 2.462 0 15.155.782 17.858 0 1.802-.521 6.562-5.415 14.281-14.681 2.146-2.27 2.479-4.133 1-5.587-1.479-1.455-3.422-1.122-5.828 1l-5.814 5.692"/>
                                    <path stroke="#000" stroke-linecap="round" stroke-linejoin="round" stroke-width="2" d="M4.721 37.529L0.521 41.123 9.898 52.491 13.858 48.548z"/>
                                    <path stroke="#000" stroke-linecap="round" stroke-linejoin="round" stroke-width="2" d="M4.67 37.545c3.12-3.107 5.4-5.202 6.838-6.283 2.158-1.622 2.86-2.218 6.343-2.517 3.482-.298 6.296.922 8.38 1.256 1.39.222 4.375.222 8.958 0 3.356-.219 5.033.768 5.033 2.961 0 2.193-1.677 3.289-5.033 3.287h-10.76M30.432 0l.549 2.606c.399.146.786.315 1.162.504l2.14-1.247 4.112 4.112-1.35 2.069c.223.45.416.916.577 1.397l2.179.574v5.816l-2.138.45c-.19.592-.43 1.163-.712 1.707l.987 1.694-4.112 4.112-1.65-1.075c-.438.223-.894.418-1.364.581l-.38 1.9h-5.816l-.428-1.71c-.691-.197-1.355-.46-1.983-.781l-1.63 1.085-4.111-4.112 1-1.669c-.293-.559-.539-1.146-.733-1.756l-2.13-.426v-5.816l2.168-.542c.166-.502.367-.987.6-1.454l-1.362-2.044 4.112-4.112 2.108 1.263c.558-.284 1.144-.521 1.752-.707L24.616 0h5.816z"/>
                                    <use stroke="#DA0F47" stroke-width="2" xlink:href="#63xbvdui8a"/>
                                </g>
                            </g>
                        </g>
                    </g>
                </g>
            </g>
        </g>
    </g>
</svg>
