<svg xmlns="http://www.w3.org/2000/svg" width="24" height="24" viewBox="0 0 24 24">
    <g fill="none" fill-rule="evenodd">
        <g>
            <g>
                <g>
                    <g>
                        <g>
                            <g>
                                <g>
                                    <g>
                                        <g transform="translate(-1096 -319) translate(269 286) translate(235) translate(93 32) translate(320) translate(117) translate(62 1)">
                                            <path d="M0 0H24V24H0z"/>
                                            <circle cx="12" cy="11.911" r="9.5" stroke="#FFF"/>
                                            <path fill="#FFF" fill-rule="nonzero" d="M11.883 15.06c.25 0 .447.073.592.22.144.146.216.33.216.553 0 .215-.07.394-.21.539-.141.145-.34.217-.598.217-.258 0-.456-.072-.595-.217-.139-.145-.208-.324-.208-.54 0-.23.072-.416.217-.559.144-.142.34-.214.586-.214zm.14-7.649c.786 0 1.398.258 1.837.657.44.398.66.955.66 1.67 0 .636-.297 1.263-.891 1.88l-.71.594c-.258.293-.39.72-.399 1.283-.01.376-.234.564-.675.564-.44 0-.658-.188-.655-.564 0-.52.065-.933.194-1.242.129-.309.373-.532.754-.901.38-.37.622-.632.723-.788.157-.238.235-.496.235-.774 0-.367-.091-.647-.273-.84-.181-.194-.448-.29-.8-.29-.335 0-.606.094-.811.284-.205.19-.308.446-.308.77 0 .606-.232.91-.696.91-.464 0-.707-.304-.728-.91.008-.691.244-1.238.707-1.64.462-.403 1.075-.663 1.836-.663z"/>
                                        </g>
                                    </g>
                                </g>
                            </g>
                        </g>
                    </g>
                </g>
            </g>
        </g>
    </g>
</svg>
