<svg xmlns="http://www.w3.org/2000/svg" width="48" height="48" viewBox="0 0 48 48">
    <g fill="none" fill-rule="evenodd">
        <g>
            <g>
                <g>
                    <path d="M0 0H48V48H0z" transform="translate(-552 -24) translate(472 24) translate(80)"/>
                    <path fill="#515151" fill-rule="nonzero" d="M36 12h-4c0-4.42-3.58-8-8-8s-8 3.58-8 8h-4c-2.2 0-4 1.8-4 4v24c0 2.2 1.8 4 4 4h24c2.2 0 4-1.8 4-4V16c0-2.2-1.8-4-4-4zM24 8c2.2 0 4 1.8 4 4h-8c0-2.2 1.8-4 4-4zm12 32H12V16h4v4c0 1.1.9 2 2 2s2-.9 2-2v-4h8v4c0 1.1.9 2 2 2s2-.9 2-2v-4h4v24z" transform="translate(-552 -24) translate(472 24) translate(80)"/>
                </g>
            </g>
        </g>
    </g>
</svg>
