<svg xmlns="http://www.w3.org/2000/svg" width="80" height="80" viewBox="0 0 80 80">
  <defs>
    <style>
      .cls-1 {
        fill: #fff;
        opacity: 0;
      }

      .cls-2, .cls-3 {
        fill-rule: evenodd;
      }

      .cls-3 {
        fill: #da0f47;
      }
    </style>
  </defs>
  <g id="icon_product-resolution">
    <rect id="icon_area" class="cls-1" width="80" height="80"/>
    <g id="shape">
      <path class="cls-2" d="M168.776,842.842l-8.542-8.62a4.2,4.2,0,0,0-2.962-1.238h-19.38a4.923,4.923,0,0,0-4.9,4.94v36.342a4.923,4.923,0,0,0,4.9,4.94h10.383a1.508,1.508,0,0,0,0-3.016H137.892a1.917,1.917,0,0,1-1.907-1.924V837.924A1.917,1.917,0,0,1,137.892,836h19v7.56a2.644,2.644,0,0,0,2.629,2.652h7.491v13.806a1.495,1.495,0,1,0,2.989,0V845.83A4.216,4.216,0,0,0,168.776,842.842Zm-8.893-4.71L164.9,843.2h-5.018v-5.064Zm-18.3,14.933h18.094a1.508,1.508,0,0,0,0-3.016H141.588A1.508,1.508,0,0,0,141.588,853.065Zm0,6.1h6.922a1.508,1.508,0,0,0,0-3.016h-6.922A1.508,1.508,0,0,0,141.588,859.168Zm17.205-.515a10.66,10.66,0,1,0,10.564,10.66A10.613,10.613,0,0,0,158.793,858.653Zm0,18.3a7.644,7.644,0,1,1,7.575-7.644A7.619,7.619,0,0,1,158.793,876.957Z" transform="translate(-111 -816)"/>
      <path id="Shape_33_copy" data-name="Shape 33 copy" class="cls-3" d="M159.927,866.452h-2.268v-2.288h2.268v2.288Zm0,8.01h-2.268V867.6h2.268v6.865Z" transform="translate(-111 -816)"/>
    </g>
  </g>
</svg>
