<?xml version="1.0" encoding="UTF-8"?>
<svg width="24px" height="24px" viewBox="0 0 24 24" version="1.1" xmlns="http://www.w3.org/2000/svg" xmlns:xlink="http://www.w3.org/1999/xlink">
    <title>icon-cal</title>
    <g id="Page-1" stroke="none" stroke-width="1" fill="none" fill-rule="evenodd">
        <g id="Icon_24x24_calendar-Copy">
            <g>
                <rect id="Rectangle" x="0" y="0" width="24" height="24"></rect>
                <g id="icon-copy" transform="translate(4.000000, 3.000000)">
                    <g id="Group-11">
                        <path d="M12.25,0 C12.756261,0 13.1746546,0.322461579 13.2408712,0.740833649 L13.25,0.857142857 L13.25,2.25 L16,2.25 L16,17.25 L0,17.25 L0,2.25 L2.75,2.25 L2.75,0.857142857 C2.75,0.383755929 3.19771525,0 3.75,0 C4.25626102,0 4.67465461,0.322461579 4.74087118,0.740833649 L4.75,0.857142857 L4.75,2.25 L11.25,2.25 L11.25,0.857142857 C11.25,0.383755929 11.6977153,0 12.25,0 Z" id="Combined-Shape" fill="#515151"></path>
                        <polyline id="Path-9" stroke="#FFFFFF" points="5 9.21428571 7.18181818 11.5 11 7.5"></polyline>
                    </g>
                </g>
            </g>
        </g>
    </g>
</svg>