<svg xmlns="http://www.w3.org/2000/svg" width="160" height="160" viewBox="0 0 160 160">
    <g fill="none" fill-rule="evenodd">
        <g>
            <g>
                <g>
                    <g>
                        <path d="M0 0H160V160H0z" opacity=".2" transform="translate(-762 -4900) translate(80 4564) translate(682 336)"/>
                        <g transform="translate(-762 -4900) translate(80 4564) translate(682 336) translate(8 25)">
                            <path stroke="#000" stroke-width="5" d="M124.536 2.5H18.481c-.966 0-1.841.392-2.475 1.025-.633.634-1.025 1.509-1.025 2.475v81.651h113.055V6c0-.966-.392-1.841-1.025-2.475-.633-.633-1.508-1.025-2.475-1.025z"/>
                            <g stroke-linecap="round" stroke-width="4.6">
                                <path stroke="#000" stroke-linejoin="round" d="M39.754 48.736c-1.708-1.687-3.841-1.687-5.539 0-1.294 1.283-2.59 2.567-3.862 3.873-.349.36-.642.435-1.067.196-.838-.457-1.73-.827-2.535-1.328-3.754-2.36-6.899-5.396-9.684-8.813-1.382-1.697-2.612-3.514-3.471-5.56-.174-.414-.142-.686.196-1.023 1.294-1.251 2.557-2.535 3.83-3.819 1.773-1.784 1.773-3.874-.011-5.669-1.012-1.023-2.024-2.024-3.036-3.047-1.045-1.044-2.078-2.1-3.134-3.133-1.708-1.665-3.84-1.665-5.538.01-1.306 1.285-2.557 2.601-3.885 3.863-1.23 1.165-1.85 2.59-1.98 4.255-.207 2.71.457 5.266 1.393 7.758 1.915 5.157 4.83 9.738 8.367 13.938 4.777 5.68 10.479 10.174 17.149 13.416 3.003 1.458 6.115 2.579 9.499 2.764 2.329.13 4.352-.457 5.974-2.274 1.11-1.24 2.361-2.372 3.536-3.558 1.741-1.763 1.752-3.896.022-5.637-2.068-2.078-4.146-4.145-6.224-6.212z" transform="translate(42.545 8.372)"/>
                                <path stroke="#DA0F47" stroke-linejoin="bevel" d="M34.363 36.791c6.065 0 10.981-4.916 10.981-10.981 0-6.065-4.916-10.98-10.98-10.98" transform="translate(42.545 8.372) rotate(-45 39.854 25.81)"/>
                                <path stroke="#DA0F47" stroke-linejoin="bevel" d="M32.515 43.484c11.456 0 20.742-9.287 20.742-20.742C53.257 11.286 43.971 2 32.515 2" transform="translate(42.545 8.372) rotate(-45 42.886 22.742)"/>
                            </g>
                            <path stroke="#000" stroke-width="5" d="M140.517 87.676H2.5v14.602c0 .966.392 1.841 1.025 2.475.634.633 1.509 1.025 2.475 1.025h131.017c.967 0 1.842-.392 2.475-1.025.634-.634 1.025-1.509 1.025-2.475V87.676z"/>
                            <rect width="29.735" height="5" x="56.641" y="94.227" fill="#222" rx="2.5"/>
                        </g>
                    </g>
                </g>
            </g>
        </g>
    </g>
</svg>
