<svg xmlns="http://www.w3.org/2000/svg" width="160" height="160" viewBox="0 0 160 160">
    <g fill="none" fill-rule="evenodd">
        <g>
            <g>
                <g>
                    <g>
                        <g>
                            <g>
                                <g>
                                    <path d="M0 0H160V160H0z" transform="translate(-1274 -5866) translate(80 5140) translate(456 14) translate(2) translate(0 664) translate(736 48)"/>
                                    <g stroke-linecap="round" stroke-linejoin="round" stroke-width="5" transform="translate(-1274 -5866) translate(80 5140) translate(456 14) translate(2) translate(0 664) translate(736 48) translate(22 30)">
                                        <path stroke="#000" d="M72 28h39c2.761 0 5 2.239 5 5v71h0-44V28z"/>
                                        <path stroke="#DA0F47" d="M29 72h14c2.761 0 5 2.239 5 5v27h0-24V77c0-2.761 2.239-5 5-5z"/>
                                        <rect width="52" height="10" x="10" y="20" stroke="#000" rx="2"/>
                                        <rect width="20" height="20" x="84" y="46" stroke="#000" rx="2"/>
                                        <rect width="52" height="10" x="10" y="40" stroke="#000" rx="2"/>
                                        <path stroke="#000" d="M5 0h62c2.761 0 5 2.239 5 5v99h0H0V5c0-2.761 2.239-5 5-5z"/>
                                    </g>
                                </g>
                            </g>
                        </g>
                    </g>
                </g>
            </g>
        </g>
    </g>
</svg>
