<?xml version="1.0" encoding="UTF-8"?>
<svg width="20px" height="20px" viewBox="0 0 20 20" version="1.1" xmlns="http://www.w3.org/2000/svg" xmlns:xlink="http://www.w3.org/1999/xlink">
    <title>icon-tooltip</title>
    <g id="Page-1" stroke="none" stroke-width="1" fill="none" fill-rule="evenodd">
        <g id="ic_tooltip_20_PC">
            <rect id="Rectangle" opacity="0.203683036" x="0" y="0" width="20" height="20"></rect>
            <rect id="Rectangle" stroke="#767676" stroke-width="1.5" fill="#F4F4F4" x="2.75" y="2.75" width="14.5" height="14.5" rx="7.25"></rect>
            <g id="Group-56" transform="translate(7.333333, 5.333333)" fill="#767676" fill-rule="nonzero">
                <path d="M2.74505621,7.15033725 C3.23017736,7.15033725 3.62344575,7.54360565 3.62344575,8.0287268 C3.62344575,8.51384795 3.23017736,8.90711634 2.74505621,8.90711634 C2.25993506,8.90711634 1.86666667,8.51384795 1.86666667,8.0287268 C1.86666667,7.54360565 2.25993506,7.15033725 2.74505621,7.15033725 Z M2.66666667,9.09494702e-13 C4.13705891,9.09494702e-13 5.33333333,1.18415159 5.33333333,2.63960221 C5.33333333,3.88392885 4.45903265,4.92997646 3.28656221,5.20728891 L3.28656221,5.20728891 L3.28656221,6.05305303 C3.28656221,6.39193139 3.00901431,6.66666667 2.66666667,6.66666667 C2.32431902,6.66666667 2.04677112,6.39193139 2.04677112,6.05305303 L2.04677112,6.05305303 L2.04677112,4.66567261 C2.04677112,4.32679426 2.32431902,4.05205898 2.66666667,4.05205898 C3.4534381,4.05205898 4.09354224,3.41844154 4.09354224,2.63964312 C4.09354224,1.8608447 3.4534381,1.22722726 2.66666667,1.22722726 C1.87989524,1.22722726 1.2397911,1.8608447 1.2397911,2.63964312 C1.2397911,2.97852148 0.962243195,3.25325675 0.619895548,3.25325675 C0.2775479,3.25325675 -1.70530257e-13,2.97852148 -1.70530257e-13,2.63964312 C-1.70530257e-13,1.18415159 1.19627443,9.09494702e-13 2.66666667,9.09494702e-13 Z" id="Combined-Shape"></path>
            </g>
        </g>
    </g>
</svg>