<?xml version="1.0" encoding="UTF-8"?>
<svg width="64px" height="64px" viewBox="0 0 64 64" version="1.1" xmlns="http://www.w3.org/2000/svg" xmlns:xlink="http://www.w3.org/1999/xlink">
    <title>icon-img04-64</title>
    <g id="Page-1" stroke="none" stroke-width="1" fill="none" fill-rule="evenodd">
        <g id="Group-24">
            <rect id="Mask-Copy-8" opacity="0.300000012" x="0" y="0" width="64" height="64"></rect>
            <path d="M41,12 L7,12 C6.72385763,12 6.47385763,12.1119288 6.29289322,12.2928932 C6.11192881,12.4738576 6,12.7238576 6,13 L6,56 L35,56 C36.9329966,56 38.6829966,55.2164983 39.9497475,53.9497475 C41.2164983,52.6829966 42,50.9329966 42,49 L42,13 C42,12.7238576 41.8880712,12.4738576 41.7071068,12.2928932 C41.5261424,12.1119288 41.2761424,12 41,12 Z" id="Rectangle" stroke="#222222" stroke-width="2" fill="#FFFFFF" transform="translate(24.000000, 34.000000) scale(-1, 1) translate(-24.000000, -34.000000) "></path>
            <path d="M50.999917,43.0023755 L20.080689,43.0757303 C18.6493549,43.3140548 17.3895967,44.1007742 16.4839434,45.2213402 C15.5570813,46.3681478 15,47.8648005 15,49.5 C15,51.1331805 15.5558802,52.6279078 16.4797928,53.7827985 C17.3883244,54.918463 18.6533836,55.7260555 20.0906476,56 L50.9999172,56 L50.9998702,55.432709 C49.8802107,53.9201092 49.1714286,51.8248089 49.1714286,49.5 C49.1714286,47.1751911 49.8802107,45.0798908 50.9998702,43.567291 L50.999917,43.0023755 Z" id="Combined-Shape" stroke="#222222" stroke-width="2" fill="#FFFFFF" transform="translate(33.000000, 49.500000) scale(-1, 1) translate(-33.000000, -49.500000) "></path>
            <circle id="Oval" stroke="#222222" stroke-width="2" fill="#F4F4F4" cx="47" cy="18" r="14"></circle>
            <rect id="Rectangle" fill="#EC455A" x="40" y="17" width="15" height="2" rx="1"></rect>
            <rect id="Rectangle" fill="#EC455A" transform="translate(47.500000, 18.000000) rotate(-270.000000) translate(-47.500000, -18.000000) " x="40" y="17" width="15" height="2" rx="1"></rect>
            <path d="M14,21 L33,21 C33.5522847,21 34,21.4477153 34,22 C34,22.5522847 33.5522847,23 33,23 L14,23 C13.4477153,23 13,22.5522847 13,22 C13,21.4477153 13.4477153,21 14,21 Z" id="Rectangle" fill="#222222"></path>
            <path d="M14,28 L37,28 C37.5522847,28 38,28.4477153 38,29 C38,29.5522847 37.5522847,30 37,30 L14,30 C13.4477153,30 13,29.5522847 13,29 C13,28.4477153 13.4477153,28 14,28 Z" id="Rectangle" fill="#222222"></path>
        </g>
    </g>
</svg>