<svg xmlns="http://www.w3.org/2000/svg" xmlns:xlink="http://www.w3.org/1999/xlink" width="24" height="24" viewBox="0 0 24 24">
    <defs>
        <path id="melfthnr5a" d="M0 0.056L13.873 0.056 13.873 11.461 0 11.461z"/>
    </defs>
    <g fill="none" fill-rule="evenodd">
        <g>
            <g>
                <g>
                    <g>
                        <g>
                            <g>
                                <g>
                                    <g transform="translate(-872 -1795) translate(270 1685) translate(351 90) translate(247 16) translate(4 4)">
                                        <rect width="24" height="24" fill="#222" opacity=".5" rx="12"/>
                                        <g>
                                            <g>
                                                <path fill="#FFF" d="M2.935 4.307c-.155 0-.287.056-.397.168-.11.112-.165.248-.165.407 0 .16.055.295.165.407.11.112.242.168.397.168.157 0 .291-.056.403-.168.113-.112.168-.248.168-.407 0-.16-.055-.295-.168-.407-.112-.112-.246-.168-.403-.168M7.735 4.302c-.154 0-.287.056-.397.168-.11.112-.165.248-.165.407 0 .16.055.295.165.407.11.112.243.168.397.168.157 0 .292-.056.404-.168.112-.112.168-.248.168-.407 0-.16-.056-.295-.168-.407-.112-.112-.247-.168-.404-.168M10.937 4.307c-.155 0-.287.056-.398.168-.11.112-.165.248-.165.407 0 .16.056.295.165.407.11.112.243.168.398.168.157 0 .291-.056.403-.168.112-.112.168-.248.168-.407 0-.16-.056-.295-.168-.407-.112-.112-.246-.168-.403-.168" transform="translate(5 7)"/>
                                                <g transform="translate(5 7) translate(0 .03)">
                                                    <mask id="z3l23czplb" fill="#fff">
                                                        <use xlink:href="#melfthnr5a"/>
                                                    </mask>
                                                    <path fill="#FFF" d="M12.305 5.71c0 .624-.118 1.005-.396 1.269-.331.314-.802.336-1.2.28v-.646c.332.034.788-.184.787-.614v-.165h-.01c-.186.256-.457.35-.818.35-.334 0-.624-.124-.82-.354-.197-.23-.295-.538-.295-.924 0-.434.11-.778.328-1.032.219-.255.53-.374.887-.374.32 0 .52.078.718.257h.01v-.195h.81v2.149zM9.04 5.359c-.07.159-.171.3-.305.426-.132.123-.284.218-.455.283-.171.066-.352.1-.543.1-.187 0-.365-.034-.534-.1-.17-.065-.322-.16-.456-.283-.137-.13-.24-.273-.311-.431-.071-.158-.106-.325-.106-.5 0-.178.035-.345.106-.502.07-.157.174-.301.311-.431.134-.124.286-.218.456-.284.169-.066.347-.099.534-.099.19 0 .372.033.543.099.171.066.323.16.455.284.134.125.235.267.305.426.07.16.104.328.104.506s-.034.347-.104.506zM5.78 6.03h-.83V3.833c0-.507-.401-.574-.401-.574v-.88s1.164.072 1.231 1.482v2.17zM4.032 5.72c-.214.242-.544.344-.903.344-.325 0-.562-.097-.737-.23h-.01v.172h-.815V2.453h.815V3.81h.01c.22-.189.513-.252.858-.264.295-.01.602.175.786.388.184.212.318.544.318.913 0 .4-.107.63-.322.871zM12.36.056H1.512C.68.056 0 .736 0 1.568v6.135c0 .831.68 1.512 1.512 1.512h4.26s.822 2.246 1.122 2.246c.3 0 1.19-2.246 1.19-2.246h4.276c.832 0 1.513-.68 1.513-1.512V1.568c0-.832-.681-1.512-1.513-1.512z" mask="url(#z3l23czplb)"/>
                                                </g>
                                            </g>
                                        </g>
                                    </g>
                                </g>
                            </g>
                        </g>
                    </g>
                </g>
            </g>
        </g>
    </g>
</svg>
