<svg xmlns="http://www.w3.org/2000/svg" width="24" height="24" viewBox="0 0 24 24">
    <g fill="none" fill-rule="evenodd">
        <g>
            <g>
                <path d="M0 0H24V24H0z" transform="translate(-407 -369) translate(407 369)"/>
                <g>
                    <path d="M11.055 5.234H12.055V6.234H11.055z" transform="translate(-407 -369) translate(407 369) translate(2 3)"/>
                    <g fill="#EC455A" fill-rule="nonzero">
                        <g>
                            <path d="M14.688 0c-1.086 0-2.08.344-2.958 1.022-.84.65-1.4 1.479-1.73 2.081-.33-.602-.89-1.43-1.73-2.08C7.393.342 6.398 0 5.313 0 2.283 0 0 2.477 0 5.762c0 3.55 2.85 5.977 7.163 9.653.732.625 1.563 1.332 2.426 2.087.113.1.26.154.411.154.152 0 .298-.055.411-.154.863-.755 1.694-1.462 2.427-2.087C17.15 11.739 20 9.31 20 5.762 20 2.477 17.716 0 14.687 0z" transform="translate(-407 -369) translate(407 369) translate(2 3)"/>
                        </g>
                    </g>
                </g>
            </g>
        </g>
    </g>
</svg>
