<svg id="img_CS_Video_MO_160" xmlns="http://www.w3.org/2000/svg" width="160" height="160" viewBox="0 0 160 160">
  <g id="img_CS_Video_MO_160-2" data-name="img_CS_Video_MO_160">
    <g id="img_CS_Video__80" data-name="img_CS_Video _80">
      <rect id="Rectangle" width="160" height="160" fill="none" opacity="0.2"/>
      <g id="PC" transform="translate(8 25)">
        <g id="Rectangle-2" data-name="Rectangle" transform="translate(12.481)" fill="none" stroke="#fff" stroke-linejoin="bevel" stroke-miterlimit="10" stroke-width="5">
          <path d="M6,0H112.055a6,6,0,0,1,6,6V90.151a0,0,0,0,1,0,0H0a0,0,0,0,1,0,0V6A6,6,0,0,1,6,0Z" stroke="none"/>
          <path d="M6,2.5H112.055a3.5,3.5,0,0,1,3.5,3.5V85.151a2.5,2.5,0,0,1-2.5,2.5H5a2.5,2.5,0,0,1-2.5-2.5V6A3.5,3.5,0,0,1,6,2.5Z" fill="none"/>
        </g>
        <g id="Phone" transform="translate(42.545 8.372)">
          <path id="Path" d="M39.754,29.57a3.664,3.664,0,0,0-5.538,0c-1.295,1.284-2.59,2.568-3.863,3.874a.763.763,0,0,1-1.066.2c-.838-.457-1.73-.827-2.535-1.327A40.169,40.169,0,0,1,17.067,23.5a22.942,22.942,0,0,1-3.471-5.56.8.8,0,0,1,.2-1.023c1.295-1.251,2.557-2.535,3.83-3.819a3.678,3.678,0,0,0-.011-5.669C16.6,6.4,15.587,5.4,14.575,4.381c-1.045-1.045-2.078-2.1-3.134-3.134A3.687,3.687,0,0,0,5.9,1.258C4.6,2.542,3.346,3.859,2.018,5.121A6.305,6.305,0,0,0,.038,9.375a18.025,18.025,0,0,0,1.393,7.758A47.142,47.142,0,0,0,9.8,31.071,51.78,51.78,0,0,0,26.947,44.488a24.8,24.8,0,0,0,9.5,2.764,6.962,6.962,0,0,0,5.974-2.274c1.11-1.24,2.361-2.372,3.536-3.558a3.7,3.7,0,0,0,.022-5.636Q42.877,32.666,39.754,29.57Z" transform="translate(0 19.166)" fill="#fff"/>
          <path id="Oval_2" data-name="Oval 2" d="M0,21.962A10.981,10.981,0,0,0,10.981,10.981,10.981,10.981,0,0,0,0,0" transform="translate(28.207 21.928) rotate(-45)" fill="none" stroke="#df0f47" stroke-linecap="round" stroke-linejoin="bevel" stroke-miterlimit="10" stroke-width="4.6"/>
          <path id="Oval_2-2" data-name="Oval 2" d="M0,41.484A20.742,20.742,0,0,0,20.742,20.742,20.742,20.742,0,0,0,0,0" transform="translate(20.886 15.408) rotate(-45)" fill="none" stroke="#df0f47" stroke-linecap="round" stroke-linejoin="bevel" stroke-miterlimit="10" stroke-width="4.6"/>
        </g>
        <g id="Rectangle_Copy" data-name="Rectangle Copy" transform="translate(0 85.176)" fill="none" stroke="#fff" stroke-miterlimit="10" stroke-width="5">
          <path d="M0,0H143.017a0,0,0,0,1,0,0V17.1a6,6,0,0,1-6,6H6a6,6,0,0,1-6-6V0A0,0,0,0,1,0,0Z" stroke="none"/>
          <path d="M5,2.5H138.017a2.5,2.5,0,0,1,2.5,2.5V17.1a3.5,3.5,0,0,1-3.5,3.5H6a3.5,3.5,0,0,1-3.5-3.5V5A2.5,2.5,0,0,1,5,2.5Z" fill="none"/>
        </g>
        <rect id="Rectangle-3" data-name="Rectangle" width="29.735" height="5" rx="2.5" transform="translate(56.641 94.227)" fill="#fff"/>
      </g>
    </g>
  </g>
</svg>
