<?xml version="1.0" encoding="UTF-8"?>
<svg width="64px" height="64px" viewBox="0 0 64 64" version="1.1" xmlns="http://www.w3.org/2000/svg" xmlns:xlink="http://www.w3.org/1999/xlink">
    <title>btn_sns_twitter_48</title>
    <g id="디자인" stroke="none" stroke-width="1" fill="none" fill-rule="evenodd">
        <g id="M/MKT4002_이벤트상세" transform="translate(-280.000000, -910.000000)">
            <g id="01-top" transform="translate(0.000000, 168.000000)">
                <g id="icon_share" transform="translate(184.000000, 742.000000)">
                    <g id="btn_sns_twitter_48" transform="translate(96.000000, 0.000000)">
                        <rect id="Rectangle" x="0" y="0" width="64" height="64"></rect>
                        <g id="ic">
                            <g id="ic_f_twitter_24" transform="translate(8.000000, 8.000000)">
                                <rect id="Rectangle-9-Copy-2" fill-opacity="0" fill="#F5F5F5" x="0" y="0" width="48" height="48"></rect>
                                <path d="M18.3537676,37 C30.8148148,37 37.6283525,26.6099476 37.6283525,17.6052356 C37.6283525,17.308377 37.6283525,17.0115183 37.614304,16.7287958 C38.9348659,15.7675393 40.0868455,14.5659686 41,13.1947644 C39.7918263,13.7319372 38.4853129,14.0994764 37.1085568,14.2691099 C38.51341,13.4209424 39.5810983,12.0921466 40.0868455,10.4947644 C38.7803321,11.2722513 37.3333333,11.8376963 35.7879949,12.1486911 C34.5517241,10.8198953 32.7956577,10 30.8429119,10 C27.1060026,10 24.0715198,13.0534031 24.0715198,16.8136126 C24.0715198,17.3507853 24.1277139,17.873822 24.2541507,18.3685864 C18.6206897,18.0858639 13.633461,15.3717277 10.2899106,11.2439791 C9.71392082,12.247644 9.37675607,13.4209424 9.37675607,14.6649215 C9.37675607,17.0256545 10.5708812,19.117801 12.3971903,20.3335079 C11.2873563,20.3052356 10.247765,19.9942408 9.33461047,19.4853403 C9.33461047,19.5136126 9.33461047,19.5418848 9.33461047,19.5701571 C9.33461047,22.8780105 11.6666667,25.6204188 14.7713921,26.2565445 C14.2094508,26.4120419 13.605364,26.4968586 12.9872286,26.4968586 C12.5517241,26.4968586 12.1302682,26.4544503 11.7088123,26.3696335 C12.5657727,29.0837696 15.0664112,31.0486911 18.0306513,31.1052356 C15.7126437,32.9287958 12.7905492,34.0172775 9.6155811,34.0172775 C9.06768838,34.0172775 8.53384419,33.9890052 8,33.9183246 C10.9642401,35.8691099 14.532567,37 18.3537676,37" id="Path" fill="#222222" fill-rule="nonzero"></path>
                            </g>
                        </g>
                    </g>
                </g>
            </g>
        </g>
    </g>
</svg>