<svg xmlns="http://www.w3.org/2000/svg" width="64" height="64" viewBox="0 0 64 64">
    <g fill="none" fill-rule="evenodd">
        <g>
            <path d="M0 0H64V64H0z"/>
            <path d="M3.2 3.2H60.800000000000004V60.800000000000004H3.2z"/>
            <g transform="translate(8 9.6)">
                <path stroke="#000" stroke-width="2" d="M1.8 36.659c.583-.877 1.108-1.554 1.611-2.068 1.154-1.18 2.233-1.602 3.53-1.602h20.883c2.068-2.693 5.214-4.507 8.776-4.81V1H7.2c-1.491 0-2.841.604-3.818 1.582C2.404 3.559 1.8 4.909 1.8 6.4v30.259z"/>
                <path stroke="#000" stroke-width="2" d="M27.842 33H7.2c-1.491 0-2.841.604-3.818 1.582-.978.977-1.582 2.327-1.582 3.818V40c0 1.491.604 2.841 1.582 3.818.977.978 2.327 1.582 3.818 1.582h20.197c-.981-1.722-1.542-3.716-1.542-5.84 0-2.427.732-4.684 1.987-6.56z"/>
                <rect width="22.72" height="22.72" x="25.84" y="28.24" stroke="#DA0F47" stroke-width="2.08" rx="11.36"/>
                <path fill="#000" d="M8.8 0H10.8V33.6H8.8z"/>
                <g fill="#DA0F47" transform="translate(36 33.6)">
                    <rect width="2" height="8" y="3.2" rx="1"/>
                    <rect width="2" height="2" rx="1"/>
                </g>
            </g>
        </g>
    </g>
</svg>
