<?xml version="1.0" encoding="UTF-8"?>
<svg width="120px" height="120px" viewBox="0 0 120 120" version="1.1" xmlns="http://www.w3.org/2000/svg" xmlns:xlink="http://www.w3.org/1999/xlink">
    <title>icon-01-120</title>
    <g id="Page-1" stroke="none" stroke-width="1" fill="none" fill-rule="evenodd">
        <g id="ic_caresolution_beer_120">
            <rect id="Rectangle" x="0" y="0" width="120" height="120"></rect>
            <g id="Group-16" transform="translate(13.000000, 18.000000)" stroke="#767676" stroke-width="2">
                <g id="Group-95" transform="translate(0.000000, 2.000000)">
                    <path d="M24.888125,10.4408233 L1.00008428,10.4408233 L1.00504031,69.248862 C1.05606138,69.6172479 1.43116956,69.9102142 1.88025029,70.2100911 C2.6429133,70.7193648 3.74072228,71.1669494 5.08471005,71.5491044 C7.88493378,72.3453315 11.7123611,72.8301887 15.9313894,72.8301887 C19.8230942,72.8301887 23.3817028,72.417164 26.1099176,71.7281681 C28.9337968,71.0150126 30.9563976,70.1260782 30.9308566,68.8475762 L42.0880113,68.8475762 C42.0624703,70.1260782 44.0850711,71.0150126 46.9089503,71.7281681 C49.6371651,72.417164 53.1957737,72.8301887 57.0874786,72.8301887 C61.3767843,72.8301887 65.2613158,72.3291938 68.072672,71.5092149 C69.4129181,71.1183098 70.4990123,70.6622961 71.236681,70.1428699 C71.6563872,69.8473356 72.0188679,69.5568353 72.0188679,69.1835334 L72.0188679,10.4408233 L48.1300888,10.4408233 L48.1297286,11.7678233 L24.8876173,11.7678233 L24.888125,10.4408233 Z" id="Combined-Shape" fill="#FFFFFF"></path>
                    <path d="M57,3 C51.639073,3 46.9065407,4.17211848 44.1627566,5.99997224 L28.8372434,5.99997224 C26.0934593,4.17211848 21.360927,3 16,3 C11.7400256,3 7.87996235,3.74453711 5.08711034,4.96640987 C3.75424318,5.54953925 2.67160314,6.23553911 1.93781582,7.01057881 C1.35757278,7.6234422 1,8.28659166 1,9 C1,9.71340834 1.35757278,10.3765578 1.93781582,10.9894212 C2.67160314,11.7644609 3.75424318,12.4504608 5.08711034,13.0335901 C7.87996235,14.2554629 11.7400256,15 16,15 C21.3603048,15 26.0923551,13.8281476 28.8362973,12.0006592 L44.1637027,12.0006592 C46.9076449,13.8281476 51.6396952,15 57,15 C61.2599744,15 65.1200376,14.2554629 67.9128897,13.0335901 C69.2457568,12.4504608 70.3283969,11.7644609 71.0621842,10.9894212 C71.6424272,10.3765578 72,9.71340834 72,9 C72,8.28659166 71.6424272,7.6234422 71.0621842,7.01057881 C70.3283969,6.23553911 69.2457568,5.54953925 67.9128897,4.96640987 C65.1200376,3.74453711 61.2599744,3 57,3 Z" id="Combined-Shape" fill="#FFFFFF"></path>
                    <rect id="Rectangle" fill="#FFFFFF" x="31" y="26" width="12" height="7" rx="2.43396226"></rect>
                    <path d="M39.9531155,1 L34.0083182,1.00074905 C33.7392306,1.01116209 33.4988594,1.1281749 33.3268543,1.30989782 C33.1524367,1.4941696 33.0483163,1.74497948 33.0558347,2.01865031 L33.6821459,24.8163773 C33.6988432,25.4241583 33.9559471,25.970064 34.3608792,26.3640244 C34.7658114,26.7579848 35.3185718,27 35.9265821,27 L38.0734179,27 C38.6814282,27 39.2341886,26.7579848 39.6391208,26.3640244 C40.0440529,25.970064 40.3011568,25.4241583 40.3178541,24.8163773 L40.9444752,1.98003939 C40.9414457,1.71078264 40.8310802,1.46730355 40.6541579,1.29038127 C40.4747455,1.11096887 40.2268896,1 39.9531155,1 Z" id="Rectangle" fill="#FFFFFF"></path>
                    <rect id="Rectangle" fill="#FFFFFF" x="35.8413379" y="33.4528302" width="2" height="4"></rect>
                    <line x1="26.2204117" y1="13.9751286" x2="26.2204117" y2="65.9751286" id="Path-27" fill="#FFFFFF" stroke-linecap="round" stroke-linejoin="round"></line>
                    <line x1="46.603456" y1="13.9751286" x2="46.603456" y2="65.9751286" id="Path-27" fill="#FFFFFF" stroke-linecap="round" stroke-linejoin="round"></line>
                    <rect id="Rectangle" fill="#FFFFFF" x="32.1989708" y="47" width="9.28473413" height="9.28473413" rx="4.64236707"></rect>
                    <path d="M60.9533574,67 L14.0569342,67 L11.6209262,76.7440319 L11.6209262,82.1440823 C11.6209262,82.6963671 11.8447839,83.1963671 12.2067127,83.5582959 C12.5686415,83.9202247 13.0686415,84.1440823 13.6209262,84.1440823 L61.3893654,84.1440823 C61.9416501,84.1440823 62.4416501,83.9202247 62.8035789,83.5582959 C63.1655077,83.1963671 63.3893654,82.6963671 63.3893654,82.1440823 L63.3893654,76.7440319 L60.9533574,67 Z" id="Rectangle" fill="#FFFFFF"></path>
                    <line x1="12.0252333" y1="77" x2="63.127595" y2="77" id="Path-13"></line>
                </g>
                <path d="M76.4936007,1.38578285 L73.8395277,9.26666419 L68.2778071,11.4834136 L73.8383934,13.6596255 L76.4935917,21.652865 L79.1850744,13.6591589 L84.7058227,11.4834056 L79.1839413,9.26712053 L76.4936007,1.38578285 Z" id="Path-33" fill="#FFFFFF"></path>
                <rect id="Rectangle" x="87" y="0" width="7" height="7" rx="3.5"></rect>
                <rect id="Rectangle" x="87" y="17" width="7" height="7" rx="3.5"></rect>
            </g>
        </g>
    </g>
</svg>