<?xml version="1.0" encoding="UTF-8"?>
<svg width="80px" height="80px" viewBox="0 0 80 80" version="1.1" xmlns="http://www.w3.org/2000/svg" xmlns:xlink="http://www.w3.org/1999/xlink">
    <title>icon-12-80</title>
    <defs>
        <rect id="path-1" x="0" y="0" width="72" height="72"></rect>
    </defs>
    <g id="Page-1" stroke="none" stroke-width="1" fill="none" fill-rule="evenodd">
        <g id="ic_care_benefit_80">
            <rect id="Rectangle" x="0" y="0" width="80" height="80"></rect>
            <g id="Group-135" transform="translate(4.000000, 2.000000)">
                <mask id="mask-2" fill="white">
                    <use xlink:href="#path-1"></use>
                </mask>
                <g id="Mask"></g>
                <g mask="url(#mask-2)" id="Rectangle" stroke="#222222" stroke-width="3">
                    <g transform="translate(1.000000, 1.000000)">
                        <path d="M60.5,35.5 L10.5,35.5 L10.5,67 C10.5,67.4142136 10.6678932,67.7892136 10.9393398,68.0606602 C11.2107864,68.3321068 11.5857864,68.5 12,68.5 L59,68.5 C59.4142136,68.5 59.7892136,68.3321068 60.0606602,68.0606602 C60.3321068,67.7892136 60.5,67.4142136 60.5,67 L60.5,35.5 Z" fill="#FFFFFF"></path>
                        <rect fill="#EC455A" x="30.5" y="35.5" width="10" height="33"></rect>
                        <path d="M60.8117333,20.2614808 L4.81173332,20.2614808 C4.39751975,20.2614808 4.02251975,20.429374 3.75107314,20.7008206 C3.47962653,20.9722672 3.31173332,21.3472672 3.31173332,21.7614808 L3.31173332,33.2614808 L62.3117333,33.2614808 L62.3117333,21.7614808 C62.3117333,21.3472672 62.1438401,20.9722672 61.8723935,20.7008206 C61.6009469,20.429374 61.2259469,20.2614808 60.8117333,20.2614808 Z" fill="#FFFFFF" transform="translate(32.811733, 26.761481) scale(-1, 1) rotate(15.000000) translate(-32.811733, -26.761481) "></path>
                        <rect fill="#EC455A" transform="translate(33.294696, 26.632071) scale(-1, 1) rotate(15.000000) translate(-33.294696, -26.632071) " x="26.7946962" y="20.1320713" width="13" height="13"></rect>
                        <path d="M34.009503,5.54006296 C32.7719828,5.54006296 31.6516184,6.04166715 30.8406342,6.85265141 C30.0296499,7.66363567 29.5280457,8.78399999 29.5280457,10.0215202 C29.5280457,11.6679944 30.1269538,13.1921236 31.1324434,14.3688314 C32.137933,15.5455391 33.5500042,16.3748255 35.1763303,16.6316138 L45.5280457,18.2660952 L45.5280457,15.6392123 C45.5280457,13.2390189 44.6549709,11.0171771 43.1891904,9.30179868 C41.72341,7.58642022 39.664924,6.37750504 37.2941019,6.00316469 L34.7084426,5.59490271 C34.4772523,5.55839897 34.2435575,5.54006296 34.009503,5.54006296 Z" fill="#EC455A" transform="translate(37.528046, 11.521520) scale(-1, 1) rotate(15.000000) translate(-37.528046, -11.521520) "></path>
                        <path d="M18.5546898,9.68116768 C17.3171695,9.68116768 16.1968052,10.1827719 15.385821,10.9937561 C14.5748367,11.8047404 14.0732325,12.9251047 14.0732325,14.162625 C14.0732325,15.8090991 14.6721406,17.3332283 15.6776302,18.5099361 C16.6831198,19.6866439 18.095191,20.5159302 19.7215171,20.7727185 L30.0732325,22.4071999 L30.0732325,19.780317 C30.0732325,17.3801236 29.2001576,15.1582819 27.7343772,13.4429034 C26.2685968,11.7275249 24.2101108,10.5186098 21.8392886,10.1442694 L19.2536294,9.73600743 C19.0224391,9.69950369 18.7887443,9.68116768 18.5546898,9.68116768 Z" fill="#EC455A" transform="translate(22.073233, 15.662625) rotate(-15.000000) translate(-22.073233, -15.662625) "></path>
                    </g>
                </g>
            </g>
        </g>
    </g>
</svg>