<?xml version="1.0" encoding="UTF-8"?>
<svg width="120px" height="120px" viewBox="0 0 120 120" version="1.1" xmlns="http://www.w3.org/2000/svg" xmlns:xlink="http://www.w3.org/1999/xlink">
    <title>icon-03-120</title>
    <g id="Page-1" stroke="none" stroke-width="1" fill="none" fill-rule="evenodd">
        <g id="ic_care_filter_120">
            <rect id="Rectangle" x="0" y="0" width="120" height="120"></rect>
            <g id="Group-83" transform="translate(9.000000, 18.000000)" stroke="#767676" stroke-width="2">
                <g id="Group-80">
                    <path d="M86,1 L3,1 C2.44771525,1 1.94771525,1.22385763 1.58578644,1.58578644 C1.22385763,1.94771525 1,2.44771525 1,3 L1,19 L88,19 L88,3 C88,2.44771525 87.7761424,1.94771525 87.4142136,1.58578644 C87.0522847,1.22385763 86.5522847,1 86,1 Z" id="Rectangle" fill="#FFFFFF"></path>
                    <path d="M28,19 L7,19 L7,62.5 C7,65.3994949 8.17525253,68.0244949 10.0753788,69.9246212 C11.9755051,71.8247475 14.6005051,73 17.5,73 C20.3994949,73 23.0244949,71.8247475 24.9246212,69.9246212 C26.8247475,68.0244949 28,65.3994949 28,62.5 L28,19 Z" id="Rectangle" fill="#FFFFFF"></path>
                    <path d="M55,19 L34,19 L34,62.5 C34,65.3994949 35.1752525,68.0244949 37.0753788,69.9246212 C38.9755051,71.8247475 41.6005051,73 44.5,73 C47.3994949,73 50.0244949,71.8247475 51.9246212,69.9246212 C53.8247475,68.0244949 55,65.3994949 55,62.5 L55,19 Z" id="Rectangle" fill="#FFFFFF"></path>
                    <path d="M81,19 L60,19 L60,62.5 C60,65.3994949 61.1752525,68.0244949 63.0753788,69.9246212 C64.9755051,71.8247475 67.6005051,73 70.5,73 C73.3994949,73 76.0244949,71.8247475 77.9246212,69.9246212 C79.8247475,68.0244949 81,65.3994949 81,62.5 L81,19 Z" id="Rectangle" fill="#FFFFFF"></path>
                    <path d="M22,12 L13,12 C12.7238576,12 12.4738576,12.1119288 12.2928932,12.2928932 C12.1119288,12.4738576 12,12.7238576 12,13 L12,19 L23,19 L23,13 C23,12.7238576 22.8880712,12.4738576 22.7071068,12.2928932 C22.5261424,12.1119288 22.2761424,12 22,12 Z" id="Rectangle" fill="#FFFFFF"></path>
                    <path d="M49,12 L40,12 C39.7238576,12 39.4738576,12.1119288 39.2928932,12.2928932 C39.1119288,12.4738576 39,12.7238576 39,13 L39,19 L50,19 L50,13 C50,12.7238576 49.8880712,12.4738576 49.7071068,12.2928932 C49.5261424,12.1119288 49.2761424,12 49,12 Z" id="Rectangle" fill="#FFFFFF"></path>
                    <path d="M75,12 L66,12 C65.7238576,12 65.4738576,12.1119288 65.2928932,12.2928932 C65.1119288,12.4738576 65,12.7238576 65,13 L65,19 L76,19 L76,13 C76,12.7238576 75.8880712,12.4738576 75.7071068,12.2928932 C75.5261424,12.1119288 75.2761424,12 75,12 Z" id="Rectangle" fill="#FFFFFF"></path>
                    <path d="M7,42 C8.1710482,46.3598756 11.6054714,47.570985 17.3032697,45.6333283 C23.0010679,43.6956716 26.5666447,44.4845622 28,48" id="Path-28" stroke-linecap="round" stroke-linejoin="round"></path>
                    <path d="M34,42 C35.1710482,46.3598756 38.6054714,47.570985 44.3032697,45.6333283 C50.0010679,43.6956716 53.5666447,44.4845622 55,48" id="Path-28" stroke-linecap="round" stroke-linejoin="round"></path>
                    <path d="M60,42 C61.1710482,46.3598756 64.6054714,47.570985 70.3032697,45.6333283 C76.0010679,43.6956716 79.5666447,44.4845622 81,48" id="Path-28" stroke-linecap="round" stroke-linejoin="round"></path>
                </g>
                <g id="Group-85" transform="translate(71.000000, 53.000000)">
                    <rect id="Rectangle" fill="#FFFFFF" x="1" y="1" width="34" height="34" rx="17"></rect>
                    <g id="Group-82" transform="translate(10.000000, 9.000000)" stroke-linecap="round" stroke-linejoin="round">
                        <polyline id="Path-29" points="5 0 0 4.5 5 9"></polyline>
                        <g id="Group-81" transform="translate(8.000000, 13.500000) scale(-1, 1) translate(-8.000000, -13.500000) translate(0.000000, 9.000000)">
                            <polyline id="Path-29" points="5 0 0 4.5 5 9"></polyline>
                            <line x1="0" y1="4.5" x2="16" y2="4.5" id="Path-30"></line>
                        </g>
                        <line x1="0" y1="4.5" x2="16" y2="4.5" id="Path-30"></line>
                    </g>
                </g>
            </g>
        </g>
    </g>
</svg>