<?xml version="1.0" encoding="UTF-8"?>
<svg width="48px" height="48px" viewBox="0 0 48 48" version="1.1" xmlns="http://www.w3.org/2000/svg" xmlns:xlink="http://www.w3.org/1999/xlink">
    <title>icon-point-48</title>
    <g id="Page-1" stroke="none" stroke-width="1" fill="none" fill-rule="evenodd">
        <g id="Group-13">
            <rect id="Rectangle" x="0" y="0" width="48" height="48"></rect>
            <g id="Group-12" transform="translate(6.000000, 6.000000)" fill="#222222">
                <path d="M28,0 C32.418278,0 36,3.581722 36,8 L36,28 C36,32.418278 32.418278,36 28,36 L8,36 C3.581722,36 0,32.418278 0,28 L0,8 C0,3.581722 3.581722,0 8,0 L28,0 Z M28,2 L8,2 C4.76160306,2 2.12242824,4.56557489 2.00413847,7.77506174 L2,8 L2,28 C2,31.2383969 4.56557489,33.8775718 7.77506174,33.9958615 L8,34 L28,34 C31.2383969,34 33.8775718,31.4344251 33.9958615,28.2249383 L34,28 L34,8 C34,4.76160306 31.4344251,2.12242824 28.2249383,2.00413847 L28,2 Z" id="Rectangle" fill-rule="nonzero"></path>
                <g id="Group-11" transform="translate(11.000000, 7.000000)">
                    <path d="M9,0 C12.3137085,0 15,2.6862915 15,6 C15,9.3137085 12.3137085,12 9,12 L0,12 L0,2 C0,0.8954305 0.8954305,0 2,0 L9,0 Z M9,2 L2,2 L2,10 L9,10 C11.1421954,10 12.8910789,8.31603153 12.9951047,6.19964034 L13,6 C13,3.790861 11.209139,2 9,2 Z" id="Rectangle" fill-rule="nonzero"></path>
                    <rect id="Rectangle" x="0" y="4" width="2" height="18.0000007" rx="1"></rect>
                </g>
            </g>
        </g>
    </g>
</svg>