<svg xmlns="http://www.w3.org/2000/svg" width="24" height="24" viewBox="0 0 24 24">
    <g fill="none" fill-rule="evenodd">
        <g>
            <g>
                <g>
                    <g>
                        <g>
                            <path d="M0 0H24V24H0z" transform="translate(-499 -831) translate(427 385) translate(0 302) translate(56 128) translate(16 16)"/>
                            <g transform="translate(-499 -831) translate(427 385) translate(0 302) translate(56 128) translate(16 16)">
                                <circle cx="12" cy="12" r="11.5" fill="#EC455A" stroke="#EC455A"/>
                                <path fill="#FFF" d="M12 6c.552 0 1 .448 1 1v10c0 .552-.448 1-1 1s-1-.448-1-1V7c0-.552.448-1 1-1z" transform="rotate(-90 12 12)"/>
                                <path fill="#FFF" d="M12 6c.552 0 1 .448 1 1v10c0 .552-.448 1-1 1s-1-.448-1-1V7c0-.552.448-1 1-1z"/>
                            </g>
                        </g>
                    </g>
                </g>
            </g>
        </g>
    </g>
</svg>
