<svg xmlns="http://www.w3.org/2000/svg" width="48" height="48" viewBox="0 0 48 48">
    <g fill="none" fill-rule="evenodd">
        <path d="M0 0h48v48H0z"/>
        <g transform="translate(4 10)">
            <path stroke="#EC455A" stroke-width="3" d="M4 1.5c-.69 0-1.31.274-1.756.723C1.793 2.676 1.52 3.304 1.52 4L1.5 28.001c0 .693.276 1.319.728 1.77.452.453 1.078.729 1.772.729h32c.694 0 1.32-.276 1.772-.728.452-.452.728-1.078.728-1.772V8c0-.694-.276-1.32-.728-1.772C37.32 5.776 36.694 5.5 36 5.5H21.657c-1.459 0-2.858-.58-3.89-1.61l-1.656-1.658c-.469-.469-1.105-.732-1.768-.732H4z"/>
            <rect width="3" height="16" x="18.5" y="10" fill="#EC455A" rx="1.5"/>
            <rect width="3" height="16" x="18.5" y="10" fill="#EC455A" rx="1.5" transform="rotate(90 20 18)"/>
        </g>
    </g>
</svg>
