<svg id="img_CS_email_80" xmlns="http://www.w3.org/2000/svg" width="80" height="80">
    <defs>
        <style>
            .cls-2,.cls-3{fill:none;stroke-linecap:round;stroke-linejoin:round;stroke-miterlimit:10;stroke-width:2.5px}.cls-2{stroke:#000}.cls-3{stroke:#da0f47}
        </style>
    </defs>
    <g id="ic" transform="translate(12 13)">
        <path id="Combined_Shape" data-name="Combined Shape" class="cls-2" d="M55 0v32.225a6 6 0 0 1-6 6H6a6 6 0 0 1-6-6V0" transform="translate(0 15.15)"/>
        <path id="Path" class="cls-2" d="M0 22h0V1.849A1.975 1.975 0 0 1 2.081 0h30.838A1.975 1.975 0 0 1 35 1.849v19.92h0" transform="translate(10)"/>
        <path id="Path-2" data-name="Path" class="cls-2" d="m0 6.472 10-6" transform="translate(0 8.528)"/>
        <path id="Path-3" data-name="Path" class="cls-2" d="m10.966 6.472-10-6" transform="translate(44.034 8.528)"/>
        <path id="Path-4" data-name="Path" class="cls-2" d="m0 0 27.5 15.209L55 0" transform="translate(0 16.5)"/>
        <path id="Line" class="cls-3" d="M0 .5h20" transform="translate(17.5 7)"/>
        <path id="Line-2" data-name="Line" class="cls-3" d="M0 .5h10" transform="translate(17.5 19)"/>
        <path id="Line-3" data-name="Line" class="cls-3" d="M0 .5h20" transform="translate(17.5 13)"/>
    </g>
</svg>
