<svg id="img_CS_fixing_80" xmlns="http://www.w3.org/2000/svg" width="80" height="80">
    <defs>
        <style>
            .cls-5{fill:none;stroke-linejoin:round;stroke-miterlimit:10;stroke-width:2.5px;stroke:#da0f47;stroke-linecap:round}
        </style>
    </defs>
    <path id="Rectangle" style="fill:none" d="M0 0h80v80H0z"/>
    <g id="ic" transform="translate(11.25 11.25)">
        <g id="ic-2" data-name="ic">
            <path id="Combined_Shape" data-name="Combined Shape" d="M41.172 50.77 23.666 33.263 10.4 46.681a5.632 5.632 0 0 1-7.986.022l-.049-.049a5.807 5.807 0 0 1 .043-8.154l13.233-13.262-3.775-3.775A10 10 0 0 1 1.384 6.562L5.821 11a1.061 1.061 0 0 0 1.476.027l2.075-1.922.03-.028a1.066 1.066 0 0 0 0-1.5l-4.5-4.543a10 10 0 0 1 14.92 10.475l3.768 3.768 4.767-4.777V7.546L43.375 0l6.232 6.251L40.9 21.443l-4.549-1.011-4.779 4.832 17.55 17.55a2.128 2.128 0 0 1 0 3.01l-4.939 4.946a2.128 2.128 0 0 1-3.01 0z" transform="translate(.392)" style="stroke-miterlimit:10;stroke-width:2.5px;stroke-linejoin:round;stroke:#000;fill:none"/>
            <path id="Combined_Shape-2" data-name="Combined Shape" d="M44.183 49.128a2.129 2.129 0 0 1-3.01 0L11.866 19.821A10 10 0 0 1 1.384 4.92l4.438 4.438a1.061 1.061 0 0 0 1.478.027l2.072-1.922.028-.028a1.066 1.066 0 0 0 0-1.5L4.908 1.39a10 10 0 0 1 14.913 10.476l29.307 29.307a2.128 2.128 0 0 1 0 3.01z" transform="translate(.392 1.642)" style="stroke-miterlimit:10;stroke-width:2.5px;stroke:#000;fill:none"/>
        </g>
        <rect id="Rectangle-2" data-name="Rectangle" width="26" height="28" rx="2.5" transform="translate(31.75 29.75)" style="stroke:#da0f47;fill:#fff;stroke-miterlimit:10;stroke-width:2.5px"/>
        <path id="Path" class="cls-5" d="M0 .5h12.275" transform="translate(38.75 38.25)"/>
        <path id="Path-2" data-name="Path" class="cls-5" d="M0 .5h6.137" transform="translate(38.75 43.25)"/>
    </g>
</svg>
