<svg xmlns="http://www.w3.org/2000/svg" width="80" height="80" viewBox="0 0 80 80">
    <g fill="none" fill-rule="evenodd">
        <g>
            <g>
                <g>
                    <g>
                        <g>
                            <g>
                                <path d="M0 0H80V80H0z" transform="translate(-584 -912) translate(568 624) translate(0 272) translate(16 16)"/>
                                <g stroke-width="4">
                                    <path fill-rule="nonzero" stroke="#222" d="M43.858 43.29c-1.885-1.862-4.238-1.862-6.11 0-1.43 1.416-2.858 2.832-4.262 4.272-.384.397-.708.48-1.177.217-.924-.505-1.908-.913-2.797-1.465-4.141-2.605-7.61-5.954-10.683-9.723-1.525-1.873-2.881-3.877-3.83-6.134-.192-.456-.156-.756.216-1.129 1.429-1.38 2.821-2.797 4.226-4.213 1.957-1.969 1.957-4.273-.012-6.254-1.117-1.128-2.233-2.233-3.35-3.361-1.152-1.153-2.292-2.317-3.457-3.457-1.884-1.837-4.237-1.837-6.11.012-1.44 1.416-2.82 2.869-4.285 4.261C.87 17.6.186 19.173.042 21.01c-.228 2.989.504 5.81 1.536 8.558 2.113 5.69 5.33 10.744 9.232 15.378 5.27 6.266 11.56 11.223 18.919 14.8 3.313 1.61 6.746 2.846 10.48 3.05 2.568.144 4.801-.505 6.59-2.51 1.224-1.368 2.605-2.616 3.901-3.925 1.92-1.944 1.933-4.297.024-6.218-2.28-2.292-4.574-4.573-6.866-6.854z" transform="translate(-584 -912) translate(568 624) translate(0 272) translate(16 16) translate(8 8)"/>
                                    <path stroke="#DA0F47" stroke-linecap="round" stroke-linejoin="bevel" d="M62.933 33.304C62.933 14.976 48.076.119 29.748.119" transform="translate(-584 -912) translate(568 624) translate(0 272) translate(16 16) translate(8 8)"/>
                                    <path stroke="#DA0F47" stroke-linecap="round" stroke-linejoin="round" d="M49.896 32.119c0-10.473-8.49-18.963-18.963-18.963" transform="translate(-584 -912) translate(568 624) translate(0 272) translate(16 16) translate(8 8)"/>
                                </g>
                            </g>
                        </g>
                    </g>
                </g>
            </g>
        </g>
    </g>
</svg>
