<?xml version="1.0" encoding="UTF-8"?>
<svg width="64px" height="64px" viewBox="0 0 64 64" version="1.1" xmlns="http://www.w3.org/2000/svg" xmlns:xlink="http://www.w3.org/1999/xlink">
    <title>icon-img03-64</title>
    <g id="Page-1" stroke="none" stroke-width="1" fill="none" fill-rule="evenodd">
        <g id="Group-26">
            <rect id="Mask-Copy-8" opacity="0.300000012" x="0" y="0" width="64" height="64"></rect>
            <g id="Group-25" transform="translate(0.000000, 8.000000)">
                <path d="M61,1 L26,1 C25.4477153,1 24.9477153,1.22385763 24.5857864,1.58578644 C24.2238576,1.94771525 24,2.44771525 24,3 L24,28 C24,28.5522847 24.2238576,29.0522847 24.5857864,29.4142136 C24.9477153,29.7761424 25.4477153,30 26,30 L61,30 C61.5522847,30 62.0522847,29.7761424 62.4142136,29.4142136 C62.7761424,29.0522847 63,28.5522847 63,28 L63,3 C63,2.44771525 62.7761424,1.94771525 62.4142136,1.58578644 C62.0522847,1.22385763 61.5522847,1 61,1 Z" id="Rectangle" stroke="#222222" stroke-width="2" fill="#F4F4F4"></path>
                <path d="M22.8729493,28 L33.6736721,21.9638415 C35.3488975,21.0276147 37.4658979,21.6266915 38.4021247,23.301917 C38.4140418,23.3232407 38.4257337,23.3446895 38.4371985,23.3662598 C39.4506743,25.2730533 38.7752006,27.6399205 36.9079893,28.7245939 C36.0905609,29.1994488 35.1505068,29.7065725 34.0878271,30.2459651 C29.662958,32.4919302 26.3334966,35.9103925 24.4704874,39.4411037 C23.2284814,41.7949112 20.5923172,42.9038757 16.5619949,42.7679971 L9,30.8453954 C13.3216286,20.4547363 17.945945,15.2594067 22.8729493,15.2594067" id="Path-46" stroke="#222222" stroke-width="2" fill="#FFFFFF" stroke-linecap="round"></path>
                <path d="M32.7432727,31.535358 L34.5990107,34.6321959 C35.391935,35.9554204 37.0959792,36.4039855 38.4376318,35.6426576 C39.7463892,34.8999964 40.2053009,33.2369929 39.4626396,31.9282354 C39.4545819,31.9140358 39.4463968,31.8999089 39.4380852,31.8858564 L38.0796556,29.5891458 L38.0796556,29.5891458" id="Path-47" stroke="#222222" stroke-width="2"></path>
                <path d="M28,34.5058788 L29.2620049,36.6275594 C30.0498777,37.9521299 31.7524543,38.4032778 33.09286,37.6426576 C34.4257241,36.8863169 34.8938155,35.1931462 34.1387259,33.8595729 L32.3378557,30.6790333 L32.3378557,30.6790333" id="Path-49" stroke="#222222" stroke-width="2"></path>
                <line x1="25.0074055" y1="14" x2="62.0074055" y2="14" id="Path-48" stroke="#EC455A" stroke-width="2"></line>
                <line x1="25.0074055" y1="7" x2="62.0074055" y2="7" id="Path-48" stroke="#EC455A" stroke-width="2"></line>
                <path d="M13.1106609,30.8923129 L6.34161586,32.1982691 C6.09834901,32.2452027 5.89060958,32.3776714 5.74635201,32.5602875 C5.60209444,32.7429037 5.52131871,32.9756673 5.53197924,33.2231908 L6.02730358,44.7239701 C6.03882563,44.9914969 6.15470666,45.2307397 6.3346509,45.4031008 C6.51459513,45.5754618 6.75860257,45.6809412 7.02637741,45.6809412 L13.1106609,45.6809412 L13.1106609,30.8923129 Z" id="Rectangle" stroke="#222222" stroke-width="2" fill="#FFFFFF" transform="translate(9.284677, 38.180941) rotate(-30.000000) translate(-9.284677, -38.180941) "></path>
                <rect id="Rectangle" fill="#FFFFFF" x="25" y="8" width="37" height="5"></rect>
            </g>
        </g>
    </g>
</svg>