<?xml version="1.0" encoding="UTF-8"?>
<svg width="48px" height="48px" viewBox="0 0 48 48" version="1.1" xmlns="http://www.w3.org/2000/svg" xmlns:xlink="http://www.w3.org/1999/xlink">
    <title>icon-call-svc-48</title>
    <g id="Page-1" stroke="none" stroke-width="1" fill="none" fill-rule="evenodd">
        <g id="icon_48" fill="#000000">
            <g id="09_Icon-/-40-/-고객센터-/-Black-/-icon-40-servicecenter-black" transform="translate(2.000000, 2.000000)">
                <g id="icon-40-servicecenter-black">
                    <g transform="translate(1.100000, 1.100000)" fill-rule="nonzero">
                        <path d="M21.45,3.90798505e-15 C29.5547714,3.90798505e-15 35.850372,5.00871364 38.3850844,12.0995607 L39.6,12.1 C42.0300529,12.1 42.9,14.2214815 42.9,16.8384615 L42.9,22.7615385 C42.9,25.3785185 42.0300529,27.5 39.6,27.5 L37.992,27.499 L37.9539457,27.5927971 C35.6800818,32.956364 31.1743766,36.9382384 25.218957,38.1305359 C24.8870413,39.6010191 23.571861,40.7 22,40.7 L19.8,40.7 C17.9774603,40.7 16.5,39.2225397 16.5,37.4 C16.5,35.5774603 17.9774603,34.1 19.8,34.1 L22,34.1 C23.2967,34.1 24.4187196,34.8478954 24.9582281,35.9358553 C30.4519013,34.7755314 34.4696826,30.914575 36.299549,25.7904246 L36.3003663,12.8001447 C34.0632497,6.58144773 28.5840013,2.2 21.45,2.2 C14.3162178,2.2 8.83685648,6.58153898 6.59967237,12.8002111 L6.6,25.29 L6.78739684,25.7629506 C7.37590753,27.1861638 8.15807075,28.5271016 9.1170224,29.7517954 C9.49155785,30.2301212 9.4074192,30.9215018 8.92909347,31.2960372 C8.45076773,31.6705727 7.75938713,31.586434 7.38485167,31.1081083 C6.50581505,29.9854753 5.75820021,28.7758587 5.1523076,27.5001681 L3.3,27.5 C0.869947101,27.5 0,25.3785185 0,22.7615385 L0,16.8384615 C0,14.2214815 0.869947101,12.1 3.3,12.1 L4.51541844,12.0992063 C7.0497358,5.00880115 13.3454555,3.90798505e-15 21.45,3.90798505e-15 Z M22,36.3 L19.8,36.3 C19.1924868,36.3 18.7,36.7924868 18.7,37.4 C18.7,37.9641194 19.1246442,38.4290579 19.6717168,38.4925995 L19.8,38.5 L22,38.5 C22.6075132,38.5 23.1,38.0075132 23.1,37.4 C23.1,36.8358806 22.6753558,36.3709421 22.1282832,36.3074005 L22,36.3 Z M26.787593,25.3707341 C27.3562058,25.5846309 27.6437599,26.2189802 27.4298632,26.787593 C26.429916,29.4458044 24.1689857,30.8002987 20.891918,30.8002987 C17.6134043,30.8002987 15.3565409,29.4441141 14.3690182,26.7830004 C14.1576579,26.2134399 14.4480365,25.5803785 15.0175969,25.3690182 C15.5871574,25.1576579 16.2202188,25.4480365 16.4315791,26.0175969 C17.0768689,27.7564832 18.4810851,28.6002987 20.891918,28.6002987 C23.3041969,28.6002987 24.7155204,27.7547929 25.3707341,26.0130044 C25.5846309,25.4443916 26.2189802,25.1568374 26.787593,25.3707341 Z M4.4,14.3 L3.30693132,14.3 C2.15444147,14.3 2.30331379,15.297184 2.21985893,16.5620127 L2.21386264,16.7444444 L2.21386264,22.8555556 C2.21386264,24.14422 2.01260442,25.1999796 3.14377733,25.2932952 L3.30693132,25.3 L4.4,25.3 L4.4,14.3 Z M39.5930687,14.3 L38.5,14.3 L38.5,25.3 L39.5930687,25.3 C40.7455585,25.3 40.5966862,24.302816 40.6801411,23.0379873 L40.6861374,22.8555556 L40.6861374,16.7444444 C40.6861374,15.45578 40.8873956,14.4000204 39.7562227,14.3067048 L39.5930687,14.3 Z" id="Combined-Shape"></path>
                    </g>
                </g>
            </g>
        </g>
    </g>
</svg>