<svg xmlns="http://www.w3.org/2000/svg" width="36" height="26" viewBox="0 0 36 26">
    <g fill="none" fill-rule="evenodd">
        <g>
            <g>
                <g>
                    <g>
                        <g>
                            <g>
                                <path d="M0 0H36V36H0z" transform="translate(-156 -1101) translate(56 107) translate(48 885) translate(32 104) translate(20)"/>
                                <path fill="#F7B500" d="M35.419 18.34l-.313-.198c-1.062-1.075-2.54-1.541-4.516-1.425-1.646.103-2.95.762-3.948 1.379l-.002-.046c0-.523.06-1.09.116-1.64.06-.559.118-1.127.118-1.666 0-.55-.062-1.07-.249-1.516-.047-.114-.15-.183-.283-.183-.53.012-1.569.381-1.82.604l-.137.305c-.011.597-.139 2.264-.27 2.466.007-.007-.07.201-.07.201-.223 2.381-.228 4.473-.022 6.27.024.179.364.45.629.548.287.108 1.193-.137 1.713-.338-.005.002.199-.03.199-.03.164-.018.26-.16.251-.35l.013-.516c.377-1.551 1.901-3.401 3.702-3.68 1.019-.162 1.823.1 2.458.804.087.126.272 1.241-.399 2.524-.501.951-1.5 1.748-2.813 2.25-1.246.478-2.617.674-4.307.612l-1.585-1.084c-1.34-.954-3.004-2.142-4.517-2.724-.264-.102-.741-.502-1.026-.742l-.157-.13c-.871-.71-2.528-1.828-3.86-2.729 0 0-.6-.407-.719-.486l.005-.153c.036-.043.874-.55.874-.55 1.171-.695 1.711-1.037 1.828-1.212-.024.026.156-.094.156-.094l2.903-1.666c2.785-1.553 5.945-3.315 7.604-5.056.002-.002.08-.265.08-.265l.036-.236c.11-.373.119-.66.026-.99-.026-.094-.112-.203-.226-.226-1.294-.128-2.966.658-4.485 2.103-.344.328-.632.486-.937.655l-.232.131c-1.678.967-5.454 3.341-7.43 4.624.13-2.155.524-5.22 1.006-7.776l-.052-.305-.205-.387-.154-.277-.046-.011c-.393-.203-.716-.121-.952-.058l-.397.146-.524.193c-.104.022-.18.085-.22.189-.944 2.313-1.731 6.117-1.917 9.163-1.887-1.218-3.631-2.092-4.486-2.515l-.024-.013-.103-.023c-.305-.04-.681-.269-1.045-.492l-.715-.47-1.098-.712c.012.006-.288-.066-.288-.066-.472.08-1.374.698-1.643 1.117-.037.055-.05.115-.05.178 0 .088.026.179.05.262l.05.227.05.138c.525.545 1.85 1.456 3.151 2.165l1.508.809 2.307 1.28c0 .009.395.314.395.314l.27.16s.03.017.048.03L4.53 19.993l-2.209 1.48c-.207.146-1.081.543-1.271.62-.48.196-.84.5-.992.83L0 23.051l.06.087.168.13c-.008-.001.225.15.225.15l.243.17.23.033c.389.017.963-.207 2.036-.684.988-.443 3.668-2.083 4.812-2.781l.49-.299c.202.017.427-.156.624-.308.23-.186.73-.497 1.034-.633.008-.004.184-.102.345-.194l-.002.134c.052 3.553.255 6.136.636 8.126l.007.036.038.08c.189.282.403 1.123.592 1.866l.437 1.482c.009.017.124.14.124.14.248.17 1.007.466 1.515.406l.127-.016.08-.182c.043-.22.057-.438.057-.677 0-.272-.02-.571-.045-.936l-.032-.536c-.16-2.48-.321-6.064-.321-8.444 0-.066 0-.125.002-.19l2.233 1.428c3.095 2.033 7.768 5.11 10.593 5.923.147.044.302.01.41-.095.003-.005.435-.284.435-.284l.08-.033c.163-.078.273-.355.29-.658 2.382-.12 5.703-1.05 7.48-3.314.687-.879.997-1.952.997-2.875 0-.752-.207-1.404-.581-1.762" transform="translate(-156 -1101) translate(56 107) translate(48 885) translate(32 104) translate(20)"/>
                            </g>
                        </g>
                    </g>
                </g>
            </g>
        </g>
    </g>
</svg>
