<svg xmlns="http://www.w3.org/2000/svg" width="160" height="160" viewBox="0 0 160 160">
  <defs>
    <style>
      .cls-1 {
        fill: #fff;
        opacity: 0;
      }

      .cls-2, .cls-3 {
        fill-rule: evenodd;
      }

      .cls-3 {
        fill: #da0f47;
      }
    </style>
  </defs>
  <g id="icon_solutions">
    <rect id="icon_area" class="cls-1" width="160" height="160"/>
    <g id="shape">
      <path class="cls-2" d="M125.758,129.989a1,1,0,0,1,1,1v56.658a1,1,0,0,1-1,1H40.42a1,1,0,0,1-1-1V130.987a1,1,0,0,1,1-1h85.339m0-4.99H40.42a6,6,0,0,0-6.015,5.988v56.658a6,6,0,0,0,6.015,5.988h85.339a6,6,0,0,0,6.015-5.988V130.987A6,6,0,0,0,125.758,125h0Zm11.231,81H28.009a2.995,2.995,0,1,1,0-5.989H136.989A2.995,2.995,0,1,1,136.989,206Z" transform="translate(-2 -86)"/>
      <path id="Shape_1_copy" data-name="Shape 1 copy" class="cls-3" d="M74.319,176.316a2.506,2.506,0,0,1-1.772-.731L59.221,162.318a2.486,2.486,0,0,1,0-3.528,2.512,2.512,0,0,1,3.544,0l11.686,11.633,29.569-25.208a2.514,2.514,0,0,1,3.533.272,2.487,2.487,0,0,1-.273,3.518L75.949,175.716A2.508,2.508,0,0,1,74.319,176.316Z" transform="translate(-2 -86)"/>
    </g>
  </g>
</svg>
