<svg xmlns="http://www.w3.org/2000/svg" width="48" height="48" viewBox="0 0 48 48">
    <g fill="none" fill-rule="evenodd">
        <g>
            <g>
                <g>
                    <g>
                        <g>
                            <g transform="translate(-46 -1524) translate(0 870) translate(0 124) translate(0 504) translate(46 26)">
                                <circle cx="24" cy="24" r="24" fill="#F4F4F4"/>
                                <g stroke-linecap="round" stroke-linejoin="round" stroke-width="1.275">
                                    <path stroke="#202121" d="M1.445 11.543C.42 9.59.173 8.06.12 7.698.047 7.223.009 6.743 0 6.258-.052 2.856 2.664.054 6.067.002c.553-.009 1.105.057 1.64.195 2.235.58 3.784 1.952 4.646 4.12.602-2.168 2.15-3.54 4.646-4.12C20.38-.587 23.756 1.52 24.54 4.9c.132.566.184 1.146.155 1.726-.083 1.699-.56 3.338-1.433 4.918-1.928 3.494-5.564 7.006-10.908 10.537-2.443-1.542-4.303-3.066-5.6-4.235-.553-.498-1.058-.986-1.058-.986" transform="translate(12 13.09)"/>
                                    <path stroke="#212121" d="M18.93 4.981L20.125 6.177M15.741 6.177L18.93 9.365" transform="translate(12 13.09)"/>
                                </g>
                            </g>
                        </g>
                    </g>
                </g>
            </g>
        </g>
    </g>
</svg>
