<svg xmlns="http://www.w3.org/2000/svg" width="160" height="160" viewBox="0 0 160 160">
    <g>
        <g fill-rule="evenodd">
            <path fill="#da0f47" d="M1292.9 385.4a4.075 4.075 0 0 0 4.09-4.061v-5.825a4.075 4.075 0 0 0-4.09-4.061h-5.87a4.075 4.075 0 0 0-4.09 4.061v5.825a4.075 4.075 0 0 0 4.09 4.061h5.87zm24.03 0a4.075 4.075 0 0 0 4.09-4.061v-5.825a4.075 4.075 0 0 0-4.09-4.061h-5.87a4.075 4.075 0 0 0-4.09 4.061v5.825a4.075 4.075 0 0 0 4.09 4.061h5.87zm24.03 0a4.075 4.075 0 0 0 4.09-4.061v-5.825a4.075 4.075 0 0 0-4.09-4.061h-5.86a4.075 4.075 0 0 0-4.09 4.061v5.825a4.075 4.075 0 0 0 4.09 4.061h5.86z" transform="translate(-1234 -296)"/>
            <path d="M1342.59 415.021h-62.87a12.542 12.542 0 0 1-12.57-12.483v-57.244l4.6 4.567a2.511 2.511 0 0 0 3.54 0 2.476 2.476 0 0 0 0-3.521l-8.88-8.817a2.112 2.112 0 0 0-.38-.313c-.06-.038-.12-.064-.18-.1-.08-.046-.17-.1-.25-.133s-.17-.051-.25-.075-.15-.051-.22-.066a2.525 2.525 0 0 0-.98 0c-.08.015-.15.044-.23.066a2.455 2.455 0 0 0-.24.075c-.09.037-.17.086-.26.132-.05.033-.12.059-.17.1a2.61 2.61 0 0 0-.39.313l-8.88 8.817a2.476 2.476 0 0 0 0 3.521 2.524 2.524 0 0 0 3.55 0l4.6-4.567v57.244A17.547 17.547 0 0 0 1279.72 420h62.87a2.491 2.491 0 1 0 0-4.979zm31.42-8.09a2.511 2.511 0 0 0-3.54 0l-4.6 4.568v-57.244a17.555 17.555 0 0 0-17.6-17.464h-12.69v-2.809a3 3 0 0 0-3.01-2.988h-.61a2.994 2.994 0 0 0-3.01 2.988v2.809h-29.9v-2.809a3 3 0 0 0-3.01-2.988h-.62a3 3 0 0 0-3.01 2.988v2.809h-7.01a2.491 2.491 0 1 0 0 4.981h7.01v2.809a3 3 0 0 0 3.01 2.988h.62a3 3 0 0 0 3.01-2.988v-2.809h29.9v2.809a2.994 2.994 0 0 0 3.01 2.988h.61a3 3 0 0 0 3.01-2.988v-2.809h12.69a12.544 12.544 0 0 1 12.58 12.483V411.5l-4.6-4.568a2.524 2.524 0 0 0-3.55 0 2.477 2.477 0 0 0 0 3.522l8.88 8.816a2.616 2.616 0 0 0 .39.314 1.525 1.525 0 0 0 .18.1 1.969 1.969 0 0 0 .25.131 2.155 2.155 0 0 0 .25.077 2.046 2.046 0 0 0 .22.064 2.468 2.468 0 0 0 .49.05 2.546 2.546 0 0 0 .49-.05c.07-.015.14-.043.22-.065s.17-.043.25-.076.16-.086.25-.131c.06-.033.12-.059.18-.1a2.117 2.117 0 0 0 .38-.314l8.88-8.816a2.477 2.477 0 0 0 0-3.523z" transform="translate(-1234 -296)"/>
        </g>
    </g>
</svg>
