<?xml version="1.0" encoding="UTF-8"?>
<svg width="120px" height="120px" viewBox="0 0 120 120" version="1.1" xmlns="http://www.w3.org/2000/svg" xmlns:xlink="http://www.w3.org/1999/xlink">
    <title>icon-08-120</title>
    <g id="Page-1" stroke="none" stroke-width="1" fill="none" fill-rule="evenodd">
        <g id="Group-99">
            <rect id="Rectangle" x="0" y="0" width="120" height="120"></rect>
            <g id="Group-101" transform="translate(26.000000, 30.000000)">
                <g id="Group-100">
                    <rect id="Rectangle" stroke="#979797" stroke-width="2" x="0" y="0" width="56" height="68" rx="3"></rect>
                    <rect id="Rectangle" stroke="#979797" stroke-width="2" x="19" y="7" width="18" height="6" rx="2"></rect>
                    <path d="M6,9 L13,9 C13.5522847,9 14,9.44771525 14,10 C14,10.5522847 13.5522847,11 13,11 L6,11 C5.44771525,11 5,10.5522847 5,10 C5,9.44771525 5.44771525,9 6,9 Z" id="Rectangle" fill="#979797"></path>
                    <path d="M43,9 L50,9 C50.5522847,9 51,9.44771525 51,10 C51,10.5522847 50.5522847,11 50,11 L43,11 C42.4477153,11 42,10.5522847 42,10 C42,9.44771525 42.4477153,9 43,9 Z" id="Rectangle" fill="#979797"></path>
                    <rect id="Rectangle" stroke="#979797" stroke-width="2" x="6" y="20" width="44" height="42" rx="2"></rect>
                    <circle id="Oval" stroke="#979797" stroke-width="2" fill="#FFFFFF" cx="36" cy="51" r="10"></circle>
                    <path d="M50,68 L7,68 L7,71 C7,71.5522847 7.22385763,72.0522847 7.58578644,72.4142136 C7.94771525,72.7761424 8.44771525,73 9,73 L48,73 C48.5522847,73 49.0522847,72.7761424 49.4142136,72.4142136 C49.7761424,72.0522847 50,71.5522847 50,71 L50,68 Z" id="Rectangle" stroke="#979797" stroke-width="2"></path>
                    <path d="M37,57 C39.7614237,57 42,54.7614237 42,52" id="Path" stroke="#979797" stroke-width="2" stroke-linecap="round"></path>
                    <circle id="Oval" stroke="#979797" stroke-width="2" fill="#FFFFFF" cx="20" cy="51" r="10"></circle>
                    <path d="M21,57 C23.7614237,57 26,54.7614237 26,52" id="Path" stroke="#979797" stroke-width="2" stroke-linecap="round"></path>
                </g>
            </g>
            <path d="M84.4936007,15.3857829 L81.8395277,23.2666642 L76.2778071,25.4834136 L81.8383934,27.6596255 L84.4935917,35.652865 L87.1850744,27.6591589 L92.7058227,25.4834056 L87.1839413,23.2671205 L84.4936007,15.3857829 Z" id="Path-33" stroke="#979797" stroke-width="2" fill="#FFFFFF"></path>
            <rect id="Rectangle" stroke="#979797" stroke-width="2" x="95" y="11" width="7" height="7" rx="3.5"></rect>
            <rect id="Rectangle" stroke="#979797" stroke-width="2" x="95" y="32" width="7" height="7" rx="3.5"></rect>
        </g>
    </g>
</svg>