<svg xmlns="http://www.w3.org/2000/svg" width="160" height="160" viewBox="0 0 160 160">
  <defs>
    <style>
      .cls-1 {
        opacity: 0;
      }

      .cls-2 {
        fill: #fff;
      }

      .cls-2, .cls-3 {
        fill-rule: evenodd;
      }

      .cls-3 {
        fill: #da0f47;
      }
    </style>
  </defs>
  <g id="icon_center-reservation_w">
    <rect id="icon_area" class="cls-1" width="160" height="160"/>
    <g>
      <path class="cls-2" d="M793.5,330H757V309.5a7.509,7.509,0,0,0-7.5-7.5h-62a7.5,7.5,0,0,0-7.5,7.5v99a2.5,2.5,0,0,0,2.5,2.5h116a2.5,2.5,0,0,0,2.5-2.5v-71A7.509,7.509,0,0,0,793.5,330Zm-49,22.5a2.006,2.006,0,0,1-2,2h-48a2,2,0,0,1-2-2v-6a2,2,0,0,1,2-2h48a2.006,2.006,0,0,1,2,2v6Zm0-20a2.006,2.006,0,0,1-2,2h-48a2,2,0,0,1-2-2v-6a2,2,0,0,1,2-2h48a2.006,2.006,0,0,1,2,2v6ZM796,406H757V335h36.5a2.5,2.5,0,0,1,2.5,2.5V406Zm-11.5-58h-16a4.507,4.507,0,0,0-4.5,4.5v16a4.507,4.507,0,0,0,4.5,4.5h16a4.507,4.507,0,0,0,4.5-4.5v-16A4.507,4.507,0,0,0,784.5,348ZM784,368H769V353h15v15Z" transform="translate(-660 -276)"/>
      <path id="Shape_19_copy" data-name="Shape 19 copy" class="cls-3" d="M733,381.5V411h-5V381.5a2.5,2.5,0,0,0-2.5-2.5h-14a2.5,2.5,0,0,0-2.5,2.5V411h-5V381.5a7.5,7.5,0,0,1,7.5-7.5h14A7.509,7.509,0,0,1,733,381.5Z" transform="translate(-660 -276)"/>
    </g>
  </g>
</svg>
