<?xml version="1.0" encoding="UTF-8"?>
<svg width="20px" height="20px" viewBox="0 0 20 20" version="1.1" xmlns="http://www.w3.org/2000/svg" xmlns:xlink="http://www.w3.org/1999/xlink">
    <title>icon-sale</title>
    <g id="Page-1" stroke="none" stroke-width="1" fill="none" fill-rule="evenodd">
        <g id="icon_sale_24">
            <rect id="Rectangle" x="0" y="0" width="20" height="20"></rect>
            <polygon id="Star" fill="#EC455A" points="10 17.0833333 7.42485838 17.925471 5.83652113 15.730537 3.25819171 14.8982104 3.26334968 12.1888704 1.66666667 10 3.26334968 7.81112962 3.25819171 5.10178956 5.83652113 4.26946296 7.42485838 2.07452903 10 2.91666667 12.5751416 2.07452903 14.1634789 4.26946296 16.7418083 5.10178956 16.7366503 7.81112962 18.3333333 10 16.7366503 12.1888704 16.7418083 14.8982104 14.1634789 15.730537 12.5751416 17.925471"></polygon>
            <path d="M7.68583333,9.89583333 C8.2925,9.89583333 8.75291667,9.7225 9.06708333,9.37583333 C9.38125,9.02916667 9.53833333,8.56333333 9.53833333,7.97833333 L9.53833333,7.97833333 L9.53833333,7.75083333 C9.53833333,7.16583333 9.38125,6.7 9.06708333,6.35333333 C8.75291667,6.00666667 8.2925,5.83333333 7.68583333,5.83333333 C7.07916667,5.83333333 6.61875,6.00666667 6.30458333,6.35333333 C5.99041667,6.7 5.83333333,7.16583333 5.83333333,7.75083333 L5.83333333,7.75083333 L5.83333333,7.97833333 C5.83333333,8.56333333 5.99041667,9.02916667 6.30458333,9.37583333 C6.61875,9.7225 7.07916667,9.89583333 7.68583333,9.89583333 Z M8.18315104,13.7172917 L8.28708333,13.7091667 C8.42791667,13.6875 8.53805556,13.6116667 8.6175,13.4816667 L8.6175,13.4816667 L12.745,6.6675 C12.8388889,6.51583333 12.8605556,6.37680556 12.81,6.25041667 C12.7594444,6.12402778 12.6727778,6.02833333 12.55,5.96333333 C12.4272222,5.89833333 12.2954167,5.87666667 12.1545833,5.89833333 C12.01375,5.92 11.9036111,5.99583333 11.8241667,6.12583333 L11.8241667,6.12583333 L7.69666667,12.94 C7.60277778,13.0916667 7.58111111,13.2306944 7.63166667,13.3570833 C7.68222222,13.4834722 7.76888889,13.5791667 7.89166667,13.6441667 C8.01444444,13.7091667 8.14625,13.7308333 8.28708333,13.7091667 L8.18315104,13.7172917 Z M7.68583333,8.9425 C7.41138889,8.9425 7.21458333,8.86125 7.09541667,8.69875 C6.97625,8.53625 6.91666667,8.27805556 6.91666667,7.92416667 L6.91666667,7.92416667 L6.91666667,7.81583333 C6.91666667,7.46194444 6.97625,7.20194444 7.09541667,7.03583333 C7.21458333,6.86972222 7.41138889,6.78666667 7.68583333,6.78666667 C7.96027778,6.78666667 8.15708333,6.86972222 8.27625,7.03583333 C8.39541667,7.20194444 8.455,7.46194444 8.455,7.81583333 L8.455,7.81583333 L8.455,7.92416667 C8.455,8.27805556 8.39541667,8.53625 8.27625,8.69875 C8.15708333,8.86125 7.96027778,8.9425 7.68583333,8.9425 Z M12.745,13.7741667 C13.3516667,13.7741667 13.8120833,13.6008333 14.12625,13.2541667 C14.4404167,12.9075 14.5975,12.4416667 14.5975,11.8566667 L14.5975,11.8566667 L14.5975,11.6291667 C14.5975,11.0441667 14.4404167,10.5783333 14.12625,10.2316667 C13.8120833,9.885 13.3516667,9.71166667 12.745,9.71166667 C12.1383333,9.71166667 11.6779167,9.885 11.36375,10.2316667 C11.0495833,10.5783333 10.8925,11.0441667 10.8925,11.6291667 L10.8925,11.6291667 L10.8925,11.8566667 C10.8925,12.4416667 11.0495833,12.9075 11.36375,13.2541667 C11.6779167,13.6008333 12.1383333,13.7741667 12.745,13.7741667 Z M12.745,12.8208333 C12.4705556,12.8208333 12.27375,12.7395833 12.1545833,12.5770833 C12.0354167,12.4145833 11.9758333,12.1563889 11.9758333,11.8025 L11.9758333,11.8025 L11.9758333,11.6941667 C11.9758333,11.3402778 12.0354167,11.0802778 12.1545833,10.9141667 C12.27375,10.7480556 12.4705556,10.665 12.745,10.665 C13.0194444,10.665 13.21625,10.7480556 13.3354167,10.9141667 C13.4545833,11.0802778 13.5141667,11.3402778 13.5141667,11.6941667 L13.5141667,11.6941667 L13.5141667,11.8025 C13.5141667,12.1563889 13.4545833,12.4145833 13.3354167,12.5770833 C13.21625,12.7395833 13.0194444,12.8208333 12.745,12.8208333 Z" id="%" fill="#FFFFFF" fill-rule="nonzero"></path>
        </g>
    </g>
</svg>