<svg version="1.1" id="Layer_1" xmlns="http://www.w3.org/2000/svg" xmlns:xlink="http://www.w3.org/1999/xlink" x="0px" y="0px"
	 viewBox="0 0 32 32" style="enable-background:new 0 0 32 32;" xml:space="preserve">
<style type="text/css">
	.st0{fill:#FFFFFF;}
	.st1{enable-background:new    ;}
	.st2{fill:#6B6B6B;}
</style>
<circle class="st0" cx="16" cy="16.2" r="15.9"/>
<g class="st1">
	<path d="M9.4,19.7l-0.6-2H6.4l-0.7,2H4l2.6-7.4h2l2.5,7.4H9.4z M7.5,13.5l-0.9,3h1.9l-0.9-3C7.7,13.5,7.5,13.5,7.5,13.5z"/>
</g>
<path class="st2" d="M27.8,9.3l-10,11.5c0,0,0,1,0.9,0.9l10-11.7C28.7,10,28.6,9.2,27.8,9.3z"/>
<path class="st2" d="M24.5,20.9c-0.5,0.9,0.7,1.3,1.1,0.9c2.3-2,3.3-5.6,1.7-9l-1,1.1C27.1,16.4,26.5,19.3,24.5,20.9z"/>
<path class="st2" d="M25.6,10.3c-0.5-0.5-1.6-0.1-1.1,0.8c0.5,0.4,1.1,1.1,1.4,1.7l0.9-1C26.4,11.3,26,10.7,25.6,10.3z"/>
<path class="st2" d="M22.2,19.5c-0.4,1.3,1.2,1.2,1.5,0.6c1.3-1.3,1.7-3,1.5-4.7l-1.6,1.9C23.4,18.1,22.9,18.9,22.2,19.5z"/>
<path class="st2" d="M23.8,12c-0.4-0.4-1.8-0.6-1.6,0.5c0.9,0.6,1.4,1.7,1.6,2.9L25,14C24.8,13.3,24.3,12.6,23.8,12z"/>
<path class="st2" d="M21.6,13.4c-0.2-0.2-1.1-1.3-1.9,0c1.6,0.8,1.8,4.4,0,5.2c0.4,0.5,0.6,0.7,1,0.6l1.4-1.6
	C22.6,16.2,22.4,14.2,21.6,13.4z"/>
<path d="M18.3,15.9c0-4-3.6-3.7-3.6-3.7h-2.6v7.5l2.6,0C18.6,19.5,18.3,15.9,18.3,15.9z"/>
<path class="st0" d="M16.7,15.9c0-2.4-1.9-2.2-1.9-2.2h-1.4v4.6l1.4,0C16.9,18.1,16.7,15.9,16.7,15.9z"/>
</svg>

