<svg xmlns="http://www.w3.org/2000/svg" width="64" height="64" viewBox="0 0 64 64">
    <g fill="none" fill-rule="evenodd">
        <g>
            <g>
                <g>
                    <g>
                        <path d="M0 0H64V64H0z" transform="translate(-211 -829) translate(203 828) translate(0 1) translate(8)"/>
                        <g transform="translate(-211 -829) translate(203 828) translate(0 1) translate(8) translate(6.5 12.5)">
                            <g stroke="#000" stroke-width="2">
                                <path d="M28.926 28.5H9.703c-1.254 3.35-3.518 6.194-6.372 8.15.654.531 1.487.85 2.395.85h19.4c1.05 0 2-.425 2.687-1.113.688-.688 1.113-1.638 1.113-2.687v-5.2z" transform="translate(21.574)"/>
                                <path d="M10.152 19.5c.32 1.283.49 2.622.49 4 0 1.74-.273 3.42-.773 5.001l19.057-.001v-9H10.152zM4.679 10.499c2.658 2.294 4.633 5.427 5.491 9.001h18.756v-9L4.68 10.499z" transform="translate(21.574)"/>
                                <path d="M25.126 1.5h-19.4c-1.05 0-2 .425-2.687 1.113-.687.688-1.113 1.638-1.113 2.687l.001 3.57c.91.461 1.76 1.006 2.542 1.63h24.457V5.3c0-1.05-.425-2-1.113-2.687-.687-.688-1.637-1.113-2.687-1.113z" transform="translate(21.574)"/>
                            </g>
                            <circle cx="16" cy="23" r="16" stroke="#000" stroke-width="2"/>
                            <path fill="#DA0F47" fill-rule="nonzero" d="M14.334 30.5v-5.022h1.998c2.88 0 4.986-1.332 4.986-4.23 0-2.988-2.106-3.996-5.058-3.996h-4.014V30.5h2.088zm1.8-6.696h-1.8v-4.878h1.728c2.106 0 3.204.576 3.204 2.322s-1.008 2.556-3.132 2.556z"/>
                        </g>
                    </g>
                </g>
            </g>
        </g>
    </g>
</svg>
