<svg xmlns="http://www.w3.org/2000/svg" width="160" height="160" viewBox="0 0 160 160">
  <defs>
    <style>
      .cls-1 {
        fill: #fff;
        opacity: 0;
      }

      .cls-2, .cls-3 {
        fill-rule: evenodd;
      }

      .cls-3 {
        fill: #da0f47;
      }
    </style>
  </defs>
  <g id="icon_find-center">
    <rect id="icon_area" class="cls-1" width="160" height="160"/>
    <g id="shape">
      <path class="cls-2" d="M916.5,151.937h-40a4.507,4.507,0,0,1-4.5-4.5v-6a4.508,4.508,0,0,1,4.5-4.5h40a4.507,4.507,0,0,1,4.5,4.5v6A4.506,4.506,0,0,1,916.5,151.937Zm-39.5-5h39v-5H877v5Zm39.5-5h0Zm0,30.025h-40a4.507,4.507,0,0,1-4.5-4.5v-6a4.508,4.508,0,0,1,4.5-4.5h40a4.507,4.507,0,0,1,4.5,4.5v6A4.506,4.506,0,0,1,916.5,171.954Zm-39.5-5h39v-5H877v5Zm39.5-5h0Zm60.005-5.695H966.47c-1.5,1.622-3.17,3.283-5.03,5H976.5a1.5,1.5,0,0,1,1.5,1.5v54.736a1.505,1.505,0,0,1-1.5,1.5H931V162.757a1.5,1.5,0,0,1,1.5-1.5h18.62q-2.79-2.583-5.04-5H932.5a6.162,6.162,0,0,0-1.5.181V127.417a6.515,6.515,0,0,0-6.5-6.5h-56a6.509,6.509,0,0,0-6.5,6.5v90.076A6.509,6.509,0,0,0,868.5,224h108a6.516,6.516,0,0,0,6.5-6.506V162.757A6.509,6.509,0,0,0,976.5,156.251ZM926,219H868.5a1.5,1.5,0,0,1-1.5-1.5V127.417a1.5,1.5,0,0,1,1.5-1.5h56a1.5,1.5,0,0,1,1.5,1.5V219Z" transform="translate(-842 -86)"/>
      <path id="Shape_11_copy" data-name="Shape 11 copy" class="cls-3" d="M972.46,114.806a22.649,22.649,0,0,0-32.36-.01,23.2,23.2,0,0,0-6.71,16.394c0,5.535,2.41,14.022,12.69,25.061q2.25,2.418,5.04,5c0.9,0.84,1.84,1.681,2.83,2.542l2.33,2.042,2.32-2.032c0.99-.861,1.94-1.712,2.84-2.552,1.86-1.722,3.53-3.383,5.03-5,10.29-11.039,12.7-19.526,12.7-25.061A23.2,23.2,0,0,0,972.46,114.806Zm-16.18,44.378c-14.76-13.081-17.89-22.419-17.89-27.994a18.206,18.206,0,0,1,5.27-12.871,17.642,17.642,0,0,1,25.24,0,18.249,18.249,0,0,1,5.27,12.871C974.17,136.765,971.03,146.1,956.28,159.184Zm0-16.638a11.571,11.571,0,1,1,11.561-11.571A11.58,11.58,0,0,1,956.277,142.546Zm0-18.138a6.567,6.567,0,1,0,6.561,6.567A6.571,6.571,0,0,0,956.277,124.408Z" transform="translate(-842 -86)"/>
    </g>
  </g>
</svg>
