<?xml version="1.0" encoding="UTF-8"?>
<svg width="24px" height="24px" viewBox="0 0 24 24" version="1.1" xmlns="http://www.w3.org/2000/svg" xmlns:xlink="http://www.w3.org/1999/xlink">
    <title>ic_pdp_counsel_24_PC</title>
    <g id="디자인" stroke="none" stroke-width="1" fill="none" fill-rule="evenodd">
        <g id="MKT4002_이벤트상세-(가이드)" transform="translate(-1025.000000, -2496.000000)">
            <g id="02-Contents" transform="translate(270.000000, 528.000000)">
                <g id="store-btn" transform="translate(0.000000, 1938.000000)">
                    <g id="Group-4" transform="translate(333.000000, 24.000000)">
                        <g id="btn" transform="translate(406.000000, 0.000000)">
                            <g id="ic_pdp_counsel_24_PC">
                                <g transform="translate(16.000000, 6.000000)">
                                    <rect id="Rectangle" x="0" y="0" width="24" height="24"></rect>
                                    <path d="M18.2222222,5 C19.2040618,5 20,5.79593822 20,6.77777778 L20,17.6666667 C20,18.6485062 19.2040618,19.4444444 18.2222222,19.4444444 L8.46,19.444 L5.77777778,22.1510668 L5.77777778,19.4444444 C4.79593822,19.4444444 4,18.6485062 4,17.6666667 L4,6.77777778 C4,5.79593822 4.79593822,5 5.77777778,5 L18.2222222,5 Z" id="Combined-Shape" fill="#FFFFFF"></path>
                                    <rect id="Rectangle" stroke="#767676" stroke-width="1.5" x="7.75" y="10.75" width="8.5" height="1" rx="0.5"></rect>
                                    <rect id="Rectangle" stroke="#767676" stroke-width="1.5" x="7.75" y="14.25" width="4.5" height="1" rx="0.5"></rect>
                                </g>
                            </g>
                        </g>
                    </g>
                </g>
            </g>
        </g>
    </g>
</svg>