<svg xmlns="http://www.w3.org/2000/svg" width="160" height="160" viewBox="0 0 160 160">
    <g>
        <g fill-rule="evenodd">
            <path d="M1938.5 151.937h-40a4.5 4.5 0 0 1-4.5-4.5v-6a4.5 4.5 0 0 1 4.5-4.5h40a4.507 4.507 0 0 1 4.5 4.5v6a4.508 4.508 0 0 1-4.5 4.5zm-39.5-5h39v-5h-39v5zm39.5-5zm0 30.025h-40a4.5 4.5 0 0 1-4.5-4.5v-6a4.5 4.5 0 0 1 4.5-4.5h40a4.508 4.508 0 0 1 4.5 4.5v6a4.508 4.508 0 0 1-4.5 4.492zm-39.5-5h39v-5h-39v5zm39.5-5zm60-5.694h-10.03c-1.5 1.621-3.17 3.282-5.03 5h15.06a1.5 1.5 0 0 1 1.5 1.5v54.737a1.505 1.505 0 0 1-1.5 1.5H1953v-56.248a1.5 1.5 0 0 1 1.5-1.5h18.62q-2.79-2.583-5.04-5h-13.58a6.162 6.162 0 0 0-1.5.18v-29.02a6.515 6.515 0 0 0-6.5-6.5h-56a6.509 6.509 0 0 0-6.5 6.5v90.077a6.509 6.509 0 0 0 6.5 6.5h108a6.515 6.515 0 0 0 6.5-6.5v-54.737a6.509 6.509 0 0 0-6.5-6.505zM1948 219h-57.5a1.5 1.5 0 0 1-1.5-1.5v-90.083a1.5 1.5 0 0 1 1.5-1.5h56a1.505 1.505 0 0 1 1.5 1.5V219z" transform="translate(-1864 -86)"/>
            <path fill="#da0f47" d="M1994.46 114.807a22.647 22.647 0 0 0-32.36-.01 23.2 23.2 0 0 0-6.71 16.393c0 5.535 2.41 14.022 12.69 25.062q2.25 2.416 5.04 5c.9.841 1.84 1.681 2.83 2.542l2.33 2.042 2.32-2.032c.99-.861 1.94-1.711 2.84-2.552 1.86-1.722 3.53-3.383 5.03-5 10.29-11.04 12.7-19.527 12.7-25.062a23.2 23.2 0 0 0-6.71-16.383zm-16.18 44.377c-14.76-13.081-17.89-22.419-17.89-27.994a18.2 18.2 0 0 1 5.27-12.87 17.64 17.64 0 0 1 25.24 0 18.245 18.245 0 0 1 5.27 12.87c0 5.575-3.14 14.91-17.89 27.994zm0-16.638a11.571 11.571 0 1 1 11.56-11.571 11.575 11.575 0 0 1-11.56 11.571zm0-18.138a6.567 6.567 0 1 0 6.56 6.567 6.569 6.569 0 0 0-6.56-6.567z" transform="translate(-1864 -86)"/>
        </g>
    </g>
</svg>
