<?xml version="1.0" encoding="UTF-8"?>
<svg width="120px" height="120px" viewBox="0 0 120 120" version="1.1" xmlns="http://www.w3.org/2000/svg" xmlns:xlink="http://www.w3.org/1999/xlink">
    <title>icon-06-120</title>
    <g id="Page-1" stroke="none" stroke-width="1" fill="none" fill-rule="evenodd">
        <g id="ic_care_antivirus_120">
            <rect id="Rectangle" x="0" y="0" width="120" height="120"></rect>
            <g id="Group-72" transform="translate(21.000000, 19.000000)">
                <path d="M6,35.0813879 C11.7793408,40.5220249 17.9033839,40.2292515 24.3721291,34.2030679 C30.8408743,28.1768842 37.383498,27.3389673 44,31.6893172" id="Path-21" stroke="#767676" stroke-width="2" stroke-linecap="round" stroke-linejoin="round"></path>
                <g id="Group-60" fill-rule="nonzero" stroke="#767676" stroke-width="2">
                    <g id="water-drop">
                        <path d="M29.0858726,4.56563501 C27.6315789,2.91141942 26.2465374,1.38954109 25,0 C23.7534626,1.45570971 22.3684211,2.97758805 20.9141274,4.56563501 C12.1191136,14.226254 0,27.6584845 0,38.113127 C0,44.7299893 2.7700831,50.6851654 7.34072022,54.9861259 C11.8421053,59.2870864 18.0747922,62 25,62 C31.9252078,62 38.1578947,59.3532551 42.6592798,54.9861259 C47.1606648,50.6851654 50,44.6638207 50,38.113127 C50,27.6584845 37.8808864,14.2924226 29.0858726,4.56563501 Z" id="Path"></path>
                    </g>
                </g>
                <path d="M77.0095074,38.594229 L58.3996627,32.2768976 C58.1390897,32.1884025 57.8613737,32.1884025 57.600708,32.2768976 L38.9904926,38.594229 C38.402628,38.7937623 38,39.4060979 38,40.1006373 L38,59.264116 C38,62.2769326 39.077968,65.3610485 41.2037881,68.4307998 C42.8273657,70.7752899 45.0736499,73.1295313 47.8799993,75.4282011 C52.5944994,79.2896896 57.2369065,81.6585053 57.4322436,81.7573808 C57.612847,81.8489165 57.8065162,81.8947368 58.0001853,81.8947368 C58.1938545,81.8947368 58.3875236,81.8490214 58.5681271,81.7573808 C58.7633715,81.6585053 63.4056859,79.2896896 68.1201861,75.4282011 C70.9265355,73.1295313 73.1727269,70.7752899 74.7963972,68.4307998 C76.9222173,65.3611534 78,62.2770374 78,59.264116 L78,40.1006373 C78,39.4060979 77.5975574,38.7937623 77.0095074,38.594229 Z" id="Path" stroke="#767676" stroke-width="2" fill="#FFFFFF" fill-rule="nonzero"></path>
                <path d="M72.2571305,42.8824506 L58.299747,38.0507628 C58.1043172,37.9830791 57.8960302,37.9830791 57.700531,38.0507628 L43.7428695,42.8824506 C43.301971,43.0350598 43,43.5033926 43,44.0345976 L43,58.6914107 C43,60.9957048 43.808476,63.3545308 45.4028411,65.7023702 C46.6205243,67.4955077 48.3052374,69.2961034 50.4099994,71.0541962 C53.9458746,74.0075804 57.4276799,75.8193229 57.5741827,75.8949459 C57.7096353,75.9649552 57.8548871,76 58.000139,76 C58.1453909,76 58.2906427,75.9650354 58.4260953,75.8949459 C58.5725286,75.8193229 62.0542644,74.0075804 65.5901396,71.0541962 C67.6949016,69.2961034 69.3795452,67.4955077 70.5972979,65.7023702 C72.191663,63.3546109 73,60.995785 73,58.6914107 L73,44.0345976 C73,43.5033926 72.698168,43.0350598 72.2571305,42.8824506 Z" id="Path" stroke="#767676" stroke-width="2" fill="#FFFFFF" fill-rule="nonzero"></path>
                <g id="Group-90" transform="translate(48.105263, 46.000000)" fill="#767676">
                    <polygon id="Rectangle" transform="translate(10.000000, 10.000000) rotate(-270.000000) translate(-10.000000, -10.000000) " points="0 8 20 8 20 12 0 12"></polygon>
                    <polygon id="Rectangle" transform="translate(10.000000, 10.000000) rotate(-180.000000) translate(-10.000000, -10.000000) " points="-1.77635684e-15 8 20 8 20 12 -1.77635684e-15 12"></polygon>
                </g>
            </g>
        </g>
    </g>
</svg>