<?xml version="1.0" encoding="UTF-8"?>
<svg width="60px" height="60px" viewBox="0 0 60 60" version="1.1" xmlns="http://www.w3.org/2000/svg" xmlns:xlink="http://www.w3.org/1999/xlink">
    <title>icon-product07-60</title>
    <g id="Page-1" stroke="none" stroke-width="1" fill="none" fill-rule="evenodd">
        <g id="btn_catergory_Beauty_60">
            <rect id="Rectangle" x="0" y="0" width="60" height="60"></rect>
            <g id="Group-62" transform="translate(15.000000, 7.000000)" stroke="#767676">
                <g id="Group-61">
                    <rect id="Rectangle" stroke-width="2" fill="#FFFFFF" x="1" y="1" width="28" height="31.1764706" rx="14"></rect>
                    <rect id="Rectangle" stroke-width="2" fill="#FFFFFF" x="4.75" y="4.68627451" width="20.5" height="23.8039216" rx="10.25"></rect>
                    <path d="M18.5885902,18.7442275 C18.5087915,18.8240262 18.459124,18.933956 18.4580822,19.0555224 L18.4102882,24.648377 C18.4112672,24.7540755 18.4584649,24.8571178 18.5339818,24.9313514 C18.6094987,25.0055849 18.7133347,25.0510098 18.8275905,25.0500307 C18.9491569,25.0489889 19.0590867,24.9993214 19.1388854,24.9195227 C19.2186841,24.839724 19.2683517,24.7297941 19.2693934,24.6082277 L19.3171875,19.0153732 C19.3162084,18.9096747 19.2690107,18.8066324 19.1934938,18.7323988 C19.117977,18.6581652 19.0141409,18.6127403 18.5885902,18.7442275 Z" id="Rectangle" fill="#767676" transform="translate(18.863738, 21.831875) rotate(-315.000000) translate(-18.863738, -21.831875) "></path>
                    <path d="M16.6976589,18.7601589 C16.6178602,18.8399576 16.5681926,18.9498874 16.5671508,19.0714538 L16.5512198,20.9461473 C16.5521986,21.0518696 16.5993963,21.1549119 16.6749132,21.2291455 C16.7504301,21.3033791 16.8542661,21.3488039 16.9685218,21.3478248 C17.0900882,21.346783 17.2000181,21.2971155 17.2798168,21.2173168 C17.3596155,21.1375181 17.409283,21.0275882 17.4103248,20.9060218 L17.4262559,19.0313284 C17.4252771,18.925606 17.3780793,18.8225637 17.3025625,18.7483302 C17.2270456,18.6740966 17.1232096,18.6286717 16.6976589,18.7601589 Z" id="Rectangle" fill="#767676" transform="translate(16.988738, 19.988738) rotate(-315.000000) translate(-16.988738, -19.988738) "></path>
                </g>
                <path d="M17.8311871,33.254902 L12.1703004,33.254902 L11.4061437,42.4449324 C11.416669,43.4289809 11.8253409,44.318127 12.5188901,44.9553689 C13.2191907,45.5988142 14.2011465,45.9811613 15.3422228,45.9836652 C16.3149751,45.8908269 17.1615916,45.4173969 17.7469779,44.7235663 C18.3401114,44.0205534 18.6650545,43.0912676 18.5812193,42.1023412 L17.8311871,33.254902 Z" id="Rectangle" stroke-width="2" fill="#FFFFFF"></path>
                <rect id="Rectangle" fill="#767676" x="14.5625" y="42.8921569" width="1" height="1" rx="0.5"></rect>
            </g>
        </g>
    </g>
</svg>