<svg xmlns="http://www.w3.org/2000/svg" width="80" height="80" viewBox="0 0 80 80">
  <defs>
    <style>
      .cls-1 {
        fill: #fff;
        opacity: 0;
      }

      .cls-2 {
        fill-rule: evenodd;
      }
    </style>
  </defs>
  <g id="icon_expendables">
    <rect id="icon_area" class="cls-1" width="80" height="80"/>
    <g id="shape_A" data-name="shape A">
      <path class="cls-2" d="M260.486,880.138a10.524,10.524,0,1,1,10.588-10.524A10.568,10.568,0,0,1,260.486,880.138Zm0-18.041a7.517,7.517,0,1,0,7.563,7.517A7.549,7.549,0,0,0,260.486,862.1Zm0,26.9a19.461,19.461,0,0,1-19.492-19.384v-40.1A5.326,5.326,0,0,1,246.1,824h28.778a5.326,5.326,0,0,1,5.1,5.512v40.1A19.461,19.461,0,0,1,260.486,889ZM246.1,827.006a2.325,2.325,0,0,0-2.078,2.5v40.1a16.467,16.467,0,0,0,32.934,0v-40.1a2.325,2.325,0,0,0-2.078-2.5H246.1Zm10.891,14.458h-7.423a1.508,1.508,0,0,1-1.512-1.5v-7.377a1.508,1.508,0,0,1,1.512-1.5h7.423a1.509,1.509,0,0,1,1.513,1.5v7.377A1.509,1.509,0,0,1,256.988,841.464Zm-5.91-3.007h4.4v-4.371h-4.4v4.371Zm20.328,3.007h-7.422a1.509,1.509,0,0,1-1.513-1.5v-7.377a1.509,1.509,0,0,1,1.513-1.5h7.422a1.508,1.508,0,0,1,1.513,1.5v7.377A1.508,1.508,0,0,1,271.406,841.464Zm-5.91-3.007h4.4v-4.371h-4.4v4.371Zm-8.508,17.4h-7.423a1.508,1.508,0,0,1-1.512-1.5v-7.378a1.508,1.508,0,0,1,1.512-1.5h7.423a1.508,1.508,0,0,1,1.513,1.5v7.378A1.508,1.508,0,0,1,256.988,855.857Zm-5.91-3.006h4.4V848.48h-4.4v4.371Zm20.328,3.006h-7.422a1.508,1.508,0,0,1-1.513-1.5v-7.378a1.508,1.508,0,0,1,1.513-1.5h7.422a1.508,1.508,0,0,1,1.513,1.5v7.378A1.508,1.508,0,0,1,271.406,855.857Zm-5.91-3.006h4.4V848.48h-4.4v4.371Z" transform="translate(-220 -816)"/>
    </g>
  </g>
</svg>
