<svg xmlns="http://www.w3.org/2000/svg" width="24" height="24" viewBox="0 0 24 24">
    <path fill="none" d="M0 0H24V24H0z"/>
    <g fill="none" stroke="#000">
        <path stroke-miterlimit="10" d="M690 578.67a1.061 1.061 0 0 0-1.5-.083 1.087 1.087 0 0 0-.083.083c-.369.36-.739.717-1.1 1.081a.22.22 0 0 1-.3.055c-.24-.128-.494-.231-.724-.371a11.367 11.367 0 0 1-2.766-2.46 6.381 6.381 0 0 1-.99-1.553.217.217 0 0 1 .056-.285c.37-.35.73-.708 1.094-1.067a1.014 1.014 0 0 0 0-1.583c-.289-.285-.579-.565-.867-.851s-.594-.586-.895-.875a1.069 1.069 0 0 0-1.51-.069q-.038.035-.072.072c-.373.36-.73.727-1.11 1.08a1.747 1.747 0 0 0-.567 1.186 4.944 4.944 0 0 0 .4 2.167 13.127 13.127 0 0 0 2.39 3.892 14.728 14.728 0 0 0 4.9 3.746 7.2 7.2 0 0 0 2.714.772 2.009 2.009 0 0 0 1.706-.635c.317-.346.674-.662 1.01-.993a1.021 1.021 0 0 0 .144-1.436 1.129 1.129 0 0 0-.138-.139q-.897-.87-1.792-1.734z" transform="translate(-674.901 -563.666)"/>
        <path stroke-linecap="round" stroke-linejoin="bevel" d="M695.149 576.112a8.555 8.555 0 0 0-8.7-8.4" transform="translate(-674.901 -563.666)"/>
        <path stroke-linecap="round" stroke-linejoin="round" d="M691.549 575.812a4.8 4.8 0 0 0-4.8-4.8" transform="translate(-674.901 -563.666)"/>
    </g>
</svg>
