<svg xmlns="http://www.w3.org/2000/svg" width="48" height="48" viewBox="0 0 48 48">
    <g fill="none" fill-rule="evenodd">
        <g>
            <g>
                <g>
                    <g>
                        <g>
                            <g transform="translate(-48 -1224) translate(0 870) translate(0 124) translate(0 204) translate(48 26)">
                                <circle cx="24" cy="24" r="24" fill="#F4F4F4"/>
                                <g stroke-linecap="round" stroke-linejoin="round" stroke-width="1.303">
                                    <path stroke="#000" d="M0 4.625V.46C0 .206.206 0 .46 0h18.384c.254 0 .46.206.46.46v8.33c0 .254-.206.46-.46.46H0" transform="translate(14.182 10.91)"/>
                                    <path stroke="#000" d="M0 9.25h18.844c.254 0 .46.205.46.46v13.155c0 .254-.206.46-.46.46H.46c-.254 0-.46-.206-.46-.46v-8.883h0" transform="translate(14.182 10.91) matrix(-1 0 0 1 19.303 0)"/>
                                    <path stroke="#050101" d="M2.212 23.325L2.212 25.336M17.091 23.325L17.091 25.336M3.469 6.233L4.977 6.233M3.469 12.668L4.977 12.668" transform="translate(14.182 10.91)"/>
                                </g>
                            </g>
                        </g>
                    </g>
                </g>
            </g>
        </g>
    </g>
</svg>
