<svg xmlns="http://www.w3.org/2000/svg" xmlns:xlink="http://www.w3.org/1999/xlink" width="88" height="88" viewBox="0 0 88 88">
    <defs>
        <filter id="sxbt498vma" width="162.5%" height="162.5%" x="-31.2%" y="-25%" filterUnits="objectBoundingBox">
            <feOffset dy="4" in="SourceAlpha" result="shadowOffsetOuter1"/>
            <feGaussianBlur in="shadowOffsetOuter1" result="shadowBlurOuter1" stdDeviation="6"/>
            <feColorMatrix in="shadowBlurOuter1" values="0 0 0 0 0 0 0 0 0 0 0 0 0 0 0 0 0 0 0.15 0"/>
        </filter>
        <circle id="zlj4s3j5ib" cx="32" cy="32" r="32"/>
    </defs>
    <g fill="none" fill-rule="evenodd">
        <g>
            <g>
                <g>
                    <path d="M0 0H64V64H0z" transform="translate(-1808 -820) translate(1820 828)"/>
                    <g>
                        <g transform="translate(-1808 -820) translate(1820 828)">
                            <use fill="#000" filter="url(#sxbt498vma)" xlink:href="#zlj4s3j5ib"/>
                            <use fill="#FFF" xlink:href="#zlj4s3j5ib"/>
                        </g>
                        <g>
                            <g>
                                <path d="M0 0H32V32H0z" transform="translate(-1808 -820) translate(1820 828) translate(16 16)"/>
                                <g stroke-width="2">
                                    <path fill-rule="nonzero" stroke="#222" d="M18.502 18.263c-.795-.785-1.787-.785-2.577 0-.603.597-1.206 1.195-1.798 1.802-.162.168-.299.203-.496.092-.39-.213-.806-.385-1.18-.618-1.748-1.1-3.211-2.512-4.508-4.102-.643-.79-1.215-1.636-1.615-2.588-.081-.192-.066-.32.09-.476.604-.582 1.191-1.18 1.784-1.778.825-.83.825-1.802-.005-2.638-.471-.476-.942-.942-1.413-1.418-.487-.486-.968-.977-1.459-1.459-.795-.774-1.788-.774-2.578.006-.607.597-1.19 1.21-1.808 1.797-.572.542-.86 1.206-.921 1.98-.097 1.261.212 2.452.648 3.611.891 2.4 2.248 4.533 3.894 6.487 2.224 2.644 4.877 4.735 7.982 6.245 1.397.678 2.846 1.2 4.42 1.286 1.085.06 2.027-.213 2.781-1.059.517-.577 1.1-1.104 1.646-1.656.81-.82.815-1.813.01-2.623-.962-.967-1.93-1.93-2.897-2.891z" transform="translate(-1808 -820) translate(1820 828) translate(16 16) translate(2.5 3)"/>
                                    <path stroke="#EC455A" stroke-linecap="round" stroke-linejoin="bevel" d="M26.55 14.05c0-7.732-6.268-14-14-14" transform="translate(-1808 -820) translate(1820 828) translate(16 16) translate(2.5 3)"/>
                                    <path stroke="#EC455A" stroke-linecap="round" stroke-linejoin="round" d="M21.05 13.55c0-4.418-3.582-8-8-8" transform="translate(-1808 -820) translate(1820 828) translate(16 16) translate(2.5 3)"/>
                                </g>
                            </g>
                        </g>
                    </g>
                </g>
            </g>
        </g>
    </g>
</svg>
