<svg xmlns="http://www.w3.org/2000/svg" width="80" height="80" viewBox="0 0 80 80">
  <defs>
    <style>
      .cls-1 {
        fill: #fff;
        opacity: 0;
      }

      .cls-2 {
        fill-rule: evenodd;
      }
    </style>
  </defs>
  <g id="icon_small-appliances">
    <rect id="icon_area" class="cls-1" width="80" height="80"/>
    <g id="shape">
      <path class="cls-2" d="M379,831.529a5.517,5.517,0,0,0-5.5-5.521H367v-4.517a1.5,1.5,0,0,0-1.5-1.506h-16a1.5,1.5,0,0,0-1.5,1.506v4.517h-6.5a5.517,5.517,0,0,0-5.5,5.521v52.2a1.491,1.491,0,0,0,.145.636c0,0.011.006,0.022,0.011,0.033l3.333,6.746a1.5,1.5,0,0,0,1.344.836h33.334a1.5,1.5,0,0,0,1.344-.836l3.333-6.746c0-.011.006-0.022,0.011-0.033a1.491,1.491,0,0,0,.145-0.636v-52.2ZM351,823h13v25.1H351V823ZM362,851.1v11.041h-9V851.1h9Zm-23-19.574a2.508,2.508,0,0,1,2.5-2.51H348V849.6a1.5,1.5,0,0,0,1.5,1.506H350V863.65a1.5,1.5,0,0,0,1.5,1.506h12a1.5,1.5,0,0,0,1.5-1.506V851.1h0.5A1.5,1.5,0,0,0,367,849.6V829.019h6.5a2.508,2.508,0,0,1,2.5,2.51V882.22H339V831.529Zm34.236,57.437H341.764l-1.846-3.734h35.164ZM359.5,826.625h-4a1.506,1.506,0,0,0,0,3.012h4A1.506,1.506,0,0,0,359.5,826.625Z" transform="translate(-317 -816)"/>
    </g>
  </g>
</svg>
