<?xml version="1.0" encoding="UTF-8"?>
<svg width="120px" height="120px" viewBox="0 0 120 120" version="1.1" xmlns="http://www.w3.org/2000/svg" xmlns:xlink="http://www.w3.org/1999/xlink">
    <title>icon-02-120</title>
    <g id="Page-1" stroke="none" stroke-width="1" fill="none" fill-rule="evenodd">
        <g id="ic_care_puricare_120_PC">
            <rect id="Rectangle" x="0" y="0" width="120" height="120"></rect>
            <g id="Group-88" transform="translate(21.000000, 21.000000)">
                <rect id="Rectangle" stroke="#767676" stroke-width="2" x="1" y="1" width="58" height="71"></rect>
                <line x1="1.92929771" y1="53.5969087" x2="58.3915392" y2="53.5969087" id="Path-31" stroke="#767676" stroke-width="2"></line>
                <path d="M9,54 L9,33 C9,31.3431458 10.3431458,30 12,30 L48,30 C49.6568542,30 51,31.3431458 51,33 L51,54 L51,54" id="Path-32" stroke="#767676" stroke-width="2"></path>
                <path d="M25,30 L17,30 L17,37 C17,37.5522847 17.2238576,38.0522847 17.5857864,38.4142136 C17.9477153,38.7761424 18.4477153,39 19,39 L23,39 C23.5522847,39 24.0522847,38.7761424 24.4142136,38.4142136 C24.7761424,38.0522847 25,37.5522847 25,37 L25,30 Z" id="Rectangle" stroke="#767676" stroke-width="2"></path>
                <rect id="Rectangle" stroke="#767676" stroke-width="2" x="20" y="40" width="2" height="2"></rect>
                <path d="M43,30 L35,30 L35,37 C35,37.5522847 35.2238576,38.0522847 35.5857864,38.4142136 C35.9477153,38.7761424 36.4477153,39 37,39 L41,39 C41.5522847,39 42.0522847,38.7761424 42.4142136,38.4142136 C42.7761424,38.0522847 43,37.5522847 43,37 L43,30 Z" id="Rectangle" stroke="#767676" stroke-width="2"></path>
                <rect id="Rectangle" stroke="#767676" stroke-width="2" x="38" y="40" width="2" height="2"></rect>
                <path d="M49.5,16 C50.3284271,16 51,16.6715729 51,17.5 C51,18.3284271 50.3284271,19 49.5,19 C48.6715729,19 48,18.3284271 48,17.5 C48,16.6715729 48.6715729,16 49.5,16 Z" id="Rectangle" fill="#767676"></path>
                <path d="M49.5,22 C50.3284271,22 51,22.6715729 51,23.5 C51,24.3284271 50.3284271,25 49.5,25 C48.6715729,25 48,24.3284271 48,23.5 C48,22.6715729 48.6715729,22 49.5,22 Z" id="Rectangle" fill="#767676"></path>
                <path d="M14.8672178,72 L5.13278222,72 L5.6637909,76.2480695 C5.72634451,76.7484983 5.97032181,77.1864809 6.32474153,77.4993564 C6.67916125,77.8122318 7.14402339,78 7.64834666,78 L12.3516533,78 C12.8559766,78 13.3208388,77.8122318 13.6752585,77.4993564 C14.0296782,77.1864809 14.2736555,76.7484983 14.3362091,76.2480695 L14.8672178,72 Z" id="Rectangle" stroke="#767676" stroke-width="2"></path>
                <path d="M54.8672178,72 L45.1327822,72 L45.6637909,76.2480695 C45.7263445,76.7484983 45.9703218,77.1864809 46.3247415,77.4993564 C46.6791612,77.8122318 47.1440234,78 47.6483467,78 L52.3516533,78 C52.8559766,78 53.3208388,77.8122318 53.6752585,77.4993564 C54.0296782,77.1864809 54.2736555,76.7484983 54.3362091,76.2480695 L54.8672178,72 Z" id="Rectangle" stroke="#767676" stroke-width="2"></path>
            </g>
            <g id="Group-87" transform="translate(30.000000, 53.000000)">
                <g id="Group-86" transform="translate(25.000000, 0.000000)"></g>
            </g>
            <rect id="Rectangle" x="29" y="32" width="3" height="3" rx="1.5"></rect>
            <g id="Group-86" transform="translate(37.000000, 53.000000)"></g>
            <path d="M85.4936007,21.3857829 L82.8395277,29.2666642 L77.2778071,31.4834136 L82.8383934,33.6596255 L85.4935917,41.652865 L88.1850744,33.6591589 L93.7058227,31.4834056 L88.1839413,29.2671205 L85.4936007,21.3857829 Z" id="Path-33" stroke="#767676" stroke-width="2" fill="#FFFFFF"></path>
            <rect id="Rectangle" stroke="#767676" stroke-width="2" fill="#FFFFFF" x="95" y="16" width="9" height="9" rx="3.5"></rect>
            <rect id="Rectangle" stroke="#767676" stroke-width="2" fill="#FFFFFF" x="95" y="37" width="9" height="9" rx="3.5"></rect>
        </g>
    </g>
</svg>