<?xml version="1.0" encoding="UTF-8"?>
<svg width="24px" height="24px" viewBox="0 0 24 24" version="1.1" xmlns="http://www.w3.org/2000/svg" xmlns:xlink="http://www.w3.org/1999/xlink">
    <title>icon-sns5</title>
    <g id="Page-1" stroke="none" stroke-width="1" fill="none" fill-rule="evenodd">
        <g id="ic_f_twitter_24">
            <rect id="Rectangle-9-Copy-2" fill-opacity="0" fill="#F5F5F5" x="0" y="0" width="24" height="24"></rect>
            <path d="M9.2363561,18.4288194 C15.5384563,18.4288194 18.9843623,13.2611847 18.9843623,8.78256799 C18.9843623,8.63492128 18.9843623,8.48727458 18.9772574,8.34665867 C19.6451237,7.86856457 20.2277304,7.27094695 20.6895529,6.58895979 C20.0785263,6.85613002 19.4177649,7.0389307 18.7214788,7.12330025 C19.4319748,6.70145252 19.9719519,6.04055774 20.2277304,5.24607784 C19.5669691,5.6327716 18.8351581,5.91400342 18.0536124,6.06868092 C17.4283759,5.40778614 16.5402558,5 15.5526662,5 C13.6627467,5 12.1280751,6.51865183 12.1280751,8.38884344 C12.1280751,8.65601367 12.156495,8.91615311 12.2204396,9.16223095 C9.37135036,9.02161504 6.84908928,7.6717023 5.15810861,5.61871001 C4.86680522,6.11789649 4.69628616,6.70145252 4.69628616,7.32016252 C4.69628616,8.49430537 5.30020783,9.53486311 6.22385273,10.1395115 C5.66256083,10.1254499 5.13679373,9.97077243 4.67497128,9.71766379 C4.67497128,9.73172539 4.67497128,9.74578698 4.67497128,9.75984857 C4.67497128,11.4050547 5.85439477,12.7690291 7.4245911,13.0854148 C7.14039267,13.1627536 6.83487936,13.2049384 6.52226108,13.2049384 C6.3020073,13.2049384 6.08885847,13.183846 5.87570965,13.1416612 C6.30911226,14.491574 7.57379528,15.4688545 9.07294201,15.4969777 C7.90062348,16.4039503 6.42279163,16.9453216 4.81707049,16.9453216 C4.53997702,16.9453216 4.26998851,16.93126 4,16.896106 C5.49914673,17.8663558 7.30380677,18.4288194 9.2363561,18.4288194" id="Path" fill="#787878" fill-rule="nonzero"></path>
        </g>
    </g>
</svg>