<svg xmlns="http://www.w3.org/2000/svg" width="160" height="160" viewBox="0 0 160 160">
    <g fill="none" fill-rule="evenodd">
        <g>
            <g>
                <g>
                    <g>
                        <path d="M0 0H160V160H0z" transform="translate(-970 -4900) translate(80 4564) translate(890 336)"/>
                        <g transform="translate(-970 -4900) translate(80 4564) translate(890 336) translate(14 13)">
                            <g stroke="#000">
                                <path stroke-width="5" d="M31.461 59.943H15.568l-1.873 14.473h19.64L31.46 59.943z" transform="translate(17.64 56.44)"/>
                                <path stroke-width="6.3" d="M4.085 76.066H42.945V77.066H4.085zM77.063 18.984H96.09100000000001V19.984H77.063z" transform="translate(17.64 56.44)"/>
                                <path stroke-width="5" d="M80.989 8.514H92.354V9.514H80.989z" transform="translate(17.64 56.44) rotate(80 86.671 8.514)"/>
                            </g>
                            <path stroke="#000" stroke-width="5" d="M38.076 59.666H7.56c-1.397 0-2.662.567-3.578 1.482-.916.916-1.482 2.18-1.482 3.578v46.469c0 1.397.566 2.662 1.482 3.578.916.916 2.18 1.482 3.578 1.482h67.19c1.397 0 2.662-.566 3.577-1.482.916-.916 1.483-2.18 1.483-3.578v-21.09c-4.062 2.22-8.722 3.482-13.677 3.482-7.886 0-15.026-3.196-20.195-8.365-5.168-5.168-8.365-12.308-8.365-20.195 0-1.832.173-3.624.503-5.36zM122.661 2.5h-67.19c-1.397 0-2.662.566-3.577 1.482-.916.916-1.483 2.18-1.483 3.578v33.766c4.447-2.899 9.757-4.583 15.461-4.583 7.131 0 13.647 2.633 18.63 6.979 4.518 3.941 7.774 9.292 9.085 15.366h29.074c1.397 0 2.662-.566 3.578-1.481.916-.916 1.482-2.18 1.482-3.578V7.56c0-1.397-.566-2.662-1.482-3.578-.916-.916-2.18-1.482-3.578-1.482z"/>
                            <circle cx="65.815" cy="65.405" r="28.295" stroke="#000" stroke-width="5"/>
                            <path stroke="#DA0F47" stroke-linecap="round" stroke-linejoin="bevel" stroke-width="4.6" d="M79.9 61.69c-7.81-7.81-20.474-7.81-28.284 0M74.186 67.347c-4.686-4.687-12.284-4.687-16.97 0M70.478 73.746c-2.638-2.639-6.916-2.639-9.554 0"/>
                        </g>
                    </g>
                </g>
            </g>
        </g>
    </g>
</svg>
