<?xml version="1.0" encoding="UTF-8"?>
<svg width="24px" height="24px" viewBox="0 0 24 24" version="1.1" xmlns="http://www.w3.org/2000/svg" xmlns:xlink="http://www.w3.org/1999/xlink">
    <title>icon-ht-off</title>
    <g id="Symbols" stroke="none" stroke-width="1" fill="none" fill-rule="evenodd">
        <g id="btn_wish_24_off">
            <rect id="Rectangle" x="0" y="0" width="24" height="24"></rect>
            <g id="ic" transform="translate(0.000000, 2.000000)" stroke="#979797">
                <path d="M20.3214193,0.912059944 C18.7020269,0.302112369 17.2135573,0.431732711 15.962102,0.903095999 C14.1104159,1.60053749 12.765957,3.03387192 12.2858982,3.93794776 C12.1367588,4.21881604 11.9920322,4.59740861 11.8771454,5.04360565 C11.7296909,4.60924049 11.5590324,4.23238356 11.4026888,3.93794776 C10.9195628,3.0280956 9.86100398,1.56416714 8.21390408,0.874851943 C7.13771343,0.424463616 5.80997782,0.317901141 4.23250416,0.912059944 C2.30466275,1.63818551 1.11731292,3.06426279 0.685820656,4.68948756 C0.226530706,6.4194129 0.619450453,8.36389596 1.85135833,9.91056503 C4.11509982,12.7527085 10.3568604,18.0882365 11.8440824,19.3460685 C13.3308589,18.0889782 19.5733298,12.752906 21.8372286,9.91056503 C23.1175577,8.30310273 23.7350949,6.2711394 23.4189346,4.4849024 C23.1462811,2.94446974 22.1613532,1.60507494 20.3214193,0.912059944 Z" id="Icon-Path"></path>
            </g>
        </g>
    </g>
</svg>