<svg xmlns="http://www.w3.org/2000/svg" width="74" height="74" viewBox="0 0 74 74">
    <defs>
        <linearGradient id="0pcwd1n4ba" x1="92.783%" x2="-9.69%" y1="31.919%" y2="74.627%">
            <stop offset="0%" stop-color="#F7AB6C"/>
            <stop offset="100%" stop-color="#EB3C66"/>
        </linearGradient>
    </defs>
    <g fill="none" fill-rule="evenodd">
        <g>
            <g>
                <g>
                    <g>
                        <g transform="translate(-318 -3209) translate(270 280) translate(0 2791) translate(0 128) translate(48 10)">
                            <path d="M0 0H74V74H0z"/>
                            <rect width="64" height="41" x="5" y="17" fill="url(#0pcwd1n4ba)" rx="4"/>
                            <path fill="#FFF" d="M16.5 29h42c.828 0 1.5.672 1.5 1.5v1c0 .828-.672 1.5-1.5 1.5h-42c-.828 0-1.5-.672-1.5-1.5v-1c0-.828.672-1.5 1.5-1.5zM46 45h14c.552 0 1 .448 1 1v2c0 .552-.448 1-1 1H46c-.552 0-1-.448-1-1v-2c0-.552.448-1 1-1z"/>
                        </g>
                    </g>
                </g>
            </g>
        </g>
    </g>
</svg>
