<svg xmlns="http://www.w3.org/2000/svg" width="160" height="160" viewBox="0 0 160 160">
    <g fill="none" fill-rule="evenodd">
        <g>
            <g>
                <g transform="translate(-970 -4620) translate(80 4564) translate(890 56)">
                    <path d="M0 0H160V160H0z"/>
                    <g stroke="#000" stroke-linejoin="round" stroke-width="5">
                        <path d="M31.129 59.048l19.443 19.443L24.2 104.863c-5.37 5.37-14.074 5.37-19.443 0-5.37-5.369-5.37-14.074 0-19.443l26.37-26.372zM94.787.986l13.644 13.644-18.527 35.807-9.645-1.632-11.295 11.294L49.52 40.656 60.757 29.42l-.533-9.494L94.787.986z" transform="translate(27.571 20.429)"/>
                    </g>
                    <path stroke="#000" stroke-width="5" d="M61.044 29.988c5.837 5.837 7.984 13.966 6.442 21.49l29.356 29.355c-1.932.917-3.266 2.886-3.266 5.165h0v28.354L49.094 69.87c-7.524 1.542-15.653-.605-21.49-6.442-8.089-8.09-9.092-20.58-3.009-29.761l13.041 13.041c.885.885 2.297.922 3.226.11l.118-.11 3.344-3.344c.885-.885.922-2.297.11-3.225l-.11-.119-13.04-13.041c9.18-6.083 21.671-5.08 29.76 3.01z"/>
                    <path stroke="#000" stroke-width="5" d="M144.654 80.295H96.966c-.888 0-1.692.36-2.273.941-.582.582-.942 1.386-.942 2.273v51.429c0 .887.36 1.691.942 2.273.581.581 1.385.941 2.273.941h47.688c.888 0 1.691-.36 2.273-.941.582-.582.942-1.386.942-2.273V83.509c0-.887-.36-1.69-.942-2.273-.582-.581-1.385-.941-2.273-.941z"/>
                    <rect width="35.756" height="5" x="102.932" y="92.605" fill="#DA0F47" rx="2.5"/>
                    <path fill="#DA0F47" d="M105.432 103.605h13.547c1.38 0 2.5 1.119 2.5 2.5 0 1.38-1.12 2.5-2.5 2.5h-13.547c-1.381 0-2.5-1.12-2.5-2.5 0-1.381 1.119-2.5 2.5-2.5z"/>
                </g>
            </g>
        </g>
    </g>
</svg>
