<svg xmlns="http://www.w3.org/2000/svg" width="48" height="48" viewBox="0 0 48 48">
    <g fill="none" fill-rule="evenodd">
        <g>
            <g>
                <g>
                    <g>
                        <g>
                            <g transform="translate(-48 -1124) translate(0 870) translate(0 124) translate(0 104) translate(48 26)">
                                <circle cx="24" cy="24" r="24" fill="#F4F4F4"/>
                                <g>
                                    <g>
                                        <path d="M0 0H25.998V25.998H0z" transform="translate(10.91 10.91)"/>
                                        <g stroke="#050101" stroke-linecap="round" stroke-linejoin="round" stroke-width="1.219">
                                            <path d="M.264 5.187c0-.643-.005-2.116 0-3.597 0-.09.01-.558.39-.938.24-.24.573-.39.938-.39h21.02c.73 0 1.328.598 1.328 1.328v15.05c0 .73-.598 1.328-1.328 1.328H1.592c-.73 0-1.328-.598-1.328-1.329V9.74M.709 14.091L20.131 14.111M9.181 17.968L7.73 21.782M15.046 17.968L16.497 21.782M7.657 21.768L16.496 21.768" transform="translate(10.91 10.91) translate(1.09 2.182)"/>
                                        </g>
                                    </g>
                                </g>
                            </g>
                        </g>
                    </g>
                </g>
            </g>
        </g>
    </g>
</svg>
