<svg xmlns="http://www.w3.org/2000/svg" width="160" height="160" viewBox="0 0 160 160">
    <g>
        <g fill-rule="evenodd">
            <path d="M1350.99 132.407l-11.13-12.388-4.52-5.019h-56.33a6.016 6.016 0 0 0-6.01 6.018v90.957a6.022 6.022 0 0 0 6.01 6.019h70.98a6.016 6.016 0 0 0 6.01-6.019v-74.001zm-.61 6.821h-12.4a3.509 3.509 0 0 1-3.5-3.511v-14.183zm.61 72.751a1 1 0 0 1-1 1h-70.98a1 1 0 0 1-1-1v-90.957a1 1 0 0 1 1-1h50.46v15.7a8.534 8.534 0 0 0 8.51 8.526h13.01v67.736z" transform="translate(-1234 -86)"/>
            <path fill="#da0f47" d="M1327.72 174.2l-11.64 9.258-.02.021-.01.01c-.1.07-.2.14-.3.2a2.345 2.345 0 0 1-.88.3 2.308 2.308 0 0 1-.37.03 2.186 2.186 0 0 1-.36-.03 2.241 2.241 0 0 1-.87-.3.917.917 0 0 1-.21-.13 1.047 1.047 0 0 1-.11-.08c-.03-.021-.06-.051-.09-.071l-11.58-9.208a2.506 2.506 0 0 1 3.12-3.922l7.6 6.049v-17.79a2.5 2.5 0 1 1 5 0v17.794l7.6-6.049a2.506 2.506 0 0 1 3.12 3.918zm2.18 19.938h-30.8a2.508 2.508 0 0 1 0-5.015h30.8a2.508 2.508 0 0 1 0 5.019z" transform="translate(-1234 -86)"/>
        </g>
    </g>
</svg>
