<svg xmlns="http://www.w3.org/2000/svg" width="64" height="64" viewBox="0 0 64 64">
    <g fill="none" fill-rule="evenodd">
        <g>
            <g>
                <g>
                    <g>
                        <g>
                            <path d="M0 0H64V64H0z" transform="translate(-577 -1011) translate(270 879) translate(0 100) translate(307 32)"/>
                            <g transform="translate(-577 -1011) translate(270 879) translate(0 100) translate(307 32) translate(4.5 12.5)">
                                <g stroke="#000" stroke-width="2">
                                    <path d="M27.8 28.739H9.771c-1.276 3.597-3.709 6.647-6.85 8.703.554.316 1.195.497 1.879.497H24c1.05 0 2-.426 2.687-1.113.688-.688 1.113-1.638 1.113-2.687v-5.4zM27.8 19.538H10.5c.174.984.265 1.995.265 3.028 0 2.175-.401 4.256-1.133 6.173l18.168-.001v-9.2zM27.8 10.337H6.075c2.337 2.489 3.946 5.669 4.488 9.2H27.8v-9.2zM24 1.136H4.8c-1.05 0-2 .425-2.687 1.113C1.425 2.937 1 3.887 1 4.936V6.22c2.07 1.005 3.911 2.41 5.42 4.115H27.8v-5.4c0-1.05-.425-2-1.113-2.687-.688-.688-1.638-1.113-2.687-1.113z" transform="translate(24.574)"/>
                                </g>
                                <circle cx="17.768" cy="22.398" r="17.631" stroke="#000" stroke-width="2"/>
                                <path fill="#DA0F47" fill-rule="nonzero" d="M16.181 30.398v-6.065h2.413c3.478 0 6.022-1.609 6.022-5.109 0-3.608-2.544-4.826-6.109-4.826H13.66v16h2.522zm2.174-8.087h-2.174V16.42h2.087c2.543 0 3.87.696 3.87 2.804 0 2.109-1.218 3.087-3.783 3.087z"/>
                            </g>
                        </g>
                    </g>
                </g>
            </g>
        </g>
    </g>
</svg>
