<svg id="img_CS_center_80" xmlns="http://www.w3.org/2000/svg" width="80" height="80">
    <defs>
        <style>
            .cls-2{fill:none;stroke:#000;stroke-linecap:round;stroke-linejoin:round;stroke-miterlimit:10;stroke-width:2.5px}
        </style>
    </defs>
    <path id="Rectangle" style="fill:none" d="M0 0h80v80H0z"/>
    <g id="ic" transform="translate(11 15)">
        <path id="Rectangle-2" data-name="Rectangle" class="cls-2" d="M0 0h19.5A2.5 2.5 0 0 1 22 2.5V38h0H0h0V0h0z" transform="translate(36 14)"/>
        <path id="Rectangle-3" data-name="Rectangle" d="M2.5 0h7A2.5 2.5 0 0 1 12 2.5V16h0H0h0V2.5A2.5 2.5 0 0 1 2.5 0z" transform="translate(12 36)" style="stroke:#da0f47;stroke-linecap:round;stroke-linejoin:round;stroke-miterlimit:10;stroke-width:2.5px;fill:none"/>
        <rect id="Rectangle-4" data-name="Rectangle" class="cls-2" width="26" height="5" rx="1" transform="translate(5 10)"/>
        <rect id="Rectangle-5" data-name="Rectangle" class="cls-2" width="10" height="10" rx="1" transform="translate(42 23)"/>
        <rect id="Rectangle-6" data-name="Rectangle" class="cls-2" width="26" height="5" rx="1" transform="translate(5 20)"/>
        <path id="Rectangle-7" data-name="Rectangle" class="cls-2" d="M2.5 0h31A2.5 2.5 0 0 1 36 2.5V52h0H0h0V2.5A2.5 2.5 0 0 1 2.5 0z"/>
    </g>
</svg>
