<svg xmlns="http://www.w3.org/2000/svg" width="48" height="48" viewBox="0 0 48 48">
    <g fill="none" fill-rule="evenodd">
        <g>
            <g>
                <path d="M0 0L48 0 48 48 0 48z" transform="translate(-623 -919) translate(623 919)"/>
                <path fill="#EC455A" fill-rule="nonzero" d="M24 4c-7.74 0-14 6.26-14 14 0 10.5 14 26 14 26s14-15.5 14-26c0-7.74-6.26-14-14-14zm0 19c-2.76 0-5-2.24-5-5s2.24-5 5-5 5 2.24 5 5-2.24 5-5 5z" transform="translate(-623 -919) translate(623 919)"/>
            </g>
        </g>
    </g>
</svg>
