<svg xmlns="http://www.w3.org/2000/svg" width="64" height="64" viewBox="0 0 64 64">
    <g fill="none" fill-rule="evenodd">
        <g>
            <g>
                <g>
                    <g>
                        <g>
                            <path d="M0 0H64V64H0z" opacity=".3" transform="translate(-577 -4379) translate(270 4252) translate(0 95) translate(307 32)"/>
                            <g transform="translate(-577 -4379) translate(270 4252) translate(0 95) translate(307 32) translate(5.674 2.71)">
                                <path stroke="#000" stroke-width="2" d="M10 53v-.062c1.017-.807 1.58-2.402 1.832-5.215.384-4.287-1.096-6.986-3.372-7.699l28.54.002V28.39c-2.608-1.27-4.82-3.23-6.397-5.64C28.957 20.236 28 17.23 28 14c0-1.746.28-3.427.797-5l-26.903.005c-.247.026-.467.143-.627.315C1.1 9.5 1 9.737 1 10l.004 36.233c.061 1.88.864 3.572 2.125 4.794C4.389 52.248 6.107 53 8 53h2z"/>
                                <path stroke="#000" stroke-width="2" d="M10 40l31.186.005c1.309.064 2.48.801 3.335 1.908.92 1.19 1.479 2.809 1.479 4.587 0 1.78-.62 3.398-1.57 4.586C43.51 52.236 42.274 53 41 53H10v-.567c1.12-1.513 1.829-3.608 1.829-5.933 0-2.325-.71-4.42-1.829-5.933V40z"/>
                                <circle cx="42" cy="15" r="14" stroke="#000" stroke-width="2"/>
                                <rect width="15" height="2" x="35" y="14" fill="#DA0F47" rx="1"/>
                                <rect width="15" height="2" x="35" y="14" fill="#DA0F47" rx="1" transform="rotate(90 42.5 15)"/>
                                <path fill="#000" d="M9 18h19c.552 0 1 .448 1 1s-.448 1-1 1H9c-.552 0-1-.448-1-1s.448-1 1-1zM9 25h23.757c.553 0 1 .448 1 1s-.447 1-1 1H9c-.552 0-1-.448-1-1s.448-1 1-1z"/>
                            </g>
                        </g>
                    </g>
                </g>
            </g>
        </g>
    </g>
</svg>
