<?xml version="1.0" encoding="UTF-8"?>
<svg width="64px" height="64px" viewBox="0 0 64 64" version="1.1" xmlns="http://www.w3.org/2000/svg" xmlns:xlink="http://www.w3.org/1999/xlink">
    <title>icon-img01-64</title>
    <g id="Page-1" stroke="none" stroke-width="1" fill="none" fill-rule="evenodd">
        <g id="Group-116">
            <g id="Group-115">
                <rect id="Rectangle" x="0" y="0" width="64" height="64"></rect>
                <rect id="Rectangle" stroke="#222222" stroke-width="2" fill="#FFFFFF" stroke-linejoin="round" x="4" y="4" width="54" height="38" rx="3"></rect>
                <rect id="Rectangle" stroke="#222222" stroke-width="2" stroke-linejoin="round" x="8" y="8" width="46" height="30" rx="2"></rect>
                <g id="Group-21" transform="translate(29.000000, 11.000000)" stroke-width="2">
                    <path d="M9.58609465,29.2028889 L9.58609465,11.8674598 C9.58609465,10.2838055 10.8699001,9 12.4535544,9 C14.0372087,9 15.3210142,10.2838055 15.3210142,11.8674598 L15.3210142,27 L15.3210142,27 L15.3298492,19.5344571 C15.331728,17.9468753 16.6192446,16.6608815 18.2068275,16.6608815 C19.7938606,16.6608815 21.0804051,17.947426 21.0804051,19.5344591 L21.0804051,27 L21.0804051,27 L21.0804051,22.102442 C21.0804051,20.5154089 22.3669496,19.2288644 23.9539827,19.2288644 C25.5410158,19.2288644 26.8275603,20.5154089 26.8275603,22.102442 L26.8275603,26.8124715 L26.8275603,26.8124715 L26.8275603,24.7423472 C26.8275603,23.3140174 27.9854504,22.1561274 29.4137802,22.1561274 C30.8421099,22.1561274 32,23.3140174 32,24.7423472 L32,28.3665399 L32,28.3665399 L32,35.7089707 L28.9719218,45 L10.3531784,45 L7.92388726,36.7554216 L1,25.8535143 C3.00239713,24.1929156 5.97184195,24.469998 7.63244064,26.4723951 C7.70789985,26.563386 7.77990701,26.6571853 7.84830917,26.7535936 L9.58609465,29.2028889 L9.58609465,29.2028889 Z" id="Path-41" stroke="#222222" fill="#FFFFFF" stroke-linejoin="round"></path>
                    <path d="M8.0840387,44.572605 L8.81786657,49.572605 C8.85389296,49.8180739 9.06446846,50 9.312567,50 L29.3725478,50 C29.6103222,50 29.815207,49.83255 29.8625405,49.5995345 L30.8782138,44.5995345 C30.9331852,44.328919 30.7583711,44.0649787 30.4877555,44.0100073 C30.4549953,44.0033525 30.4216503,44 30.388221,44 L8.57873913,44 C8.30259676,44 8.07873913,44.2238576 8.07873913,44.5 C8.07873913,44.5242983 8.08051035,44.5485642 8.0840387,44.572605 Z" id="Path-42" stroke="#222222" fill="#FFFFFF"></path>
                    <line x1="18.0934095" y1="4.14607626" x2="17.9818383" y2="6.1429618" id="Path-43" stroke="#EC455A" stroke-linecap="round" transform="translate(18.037624, 5.144519) rotate(30.000000) translate(-18.037624, -5.144519) "></line>
                    <line x1="6.93633143" y1="4.21338419" x2="6.82476023" y2="6.21026973" id="Path-43" stroke="#EC455A" stroke-linecap="round" transform="translate(6.880546, 5.211827) scale(-1, 1) rotate(30.000000) translate(-6.880546, -5.211827) "></line>
                    <line x1="21.962437" y1="6.45708331" x2="21.75278" y2="10.451585" id="Path-43" stroke="#EC455A" stroke-linecap="round" transform="translate(21.857609, 8.454334) rotate(60.000000) translate(-21.857609, -8.454334) "></line>
                    <line x1="2.79034303" y1="7.27235239" x2="2.58068607" y2="11.2668541" id="Path-43" stroke="#EC455A" stroke-linecap="round" transform="translate(2.685515, 9.269603) scale(-1, 1) rotate(60.000000) translate(-2.685515, -9.269603) "></line>
                    <line x1="12.5" y1="0" x2="12.5" y2="4" id="Path-43" stroke="#EC455A" stroke-linecap="round"></line>
                </g>
            </g>
        </g>
    </g>
</svg>