<?xml version="1.0" encoding="UTF-8"?>
<svg width="20px" height="20px" viewBox="0 0 20 20" version="1.1" xmlns="http://www.w3.org/2000/svg" xmlns:xlink="http://www.w3.org/1999/xlink">
    <title>ic_call_20</title>
    <g id="Page-1" stroke="none" stroke-width="1" fill="none" fill-rule="evenodd">
        <g id="케어플래너_상단케이스" transform="translate(-412.000000, -699.000000)">
            <g id="01-Top" transform="translate(0.000000, 390.000000)">
                <g id="01-2" transform="translate(0.000000, 119.000000)">
                    <g id="con" transform="translate(273.000000, 31.000000)">
                        <g id="02" transform="translate(0.000000, 44.000000)">
                            <g id="product">
                                <g id="Group-4" transform="translate(122.000000, 49.000000)">
                                    <g id="Group-6" transform="translate(17.000000, 64.000000)">
                                        <g id="ic_call_20" transform="translate(0.000000, 2.000000)">
                                            <rect id="Rectangle" x="0" y="0" width="20" height="20"></rect>
                                            <path d="M15.4563163,12.0091444 C14.8780621,11.4382719 14.1561652,11.4382719 13.5815941,12.0091444 C13.1432995,12.443744 12.705005,12.8783437 12.2740767,13.3203094 C12.1562159,13.44185 12.056771,13.4676314 11.9131282,13.3866043 C11.6295258,13.2319163 11.3275077,13.1066927 11.0549548,12.9372725 C9.78426879,12.138051 8.71983909,11.1104807 7.77695326,9.9540036 C7.3091935,9.37944811 6.8929978,8.7643791 6.60202913,8.07196608 C6.54309876,7.93201026 6.55414821,7.83993406 6.66832579,7.72575957 C7.10662037,7.30220906 7.53386551,6.8676094 7.9647938,6.43300974 C8.56514688,5.82898987 8.56514688,5.12184466 7.96111065,4.51414175 C7.61857791,4.16793524 7.27604517,3.82909482 6.93351243,3.48288831 C6.57993024,3.12931571 6.2300312,2.77206006 5.87276587,2.4221705 C5.29451167,1.85866416 4.57261471,1.85866416 3.99804366,2.42585355 C3.55606593,2.86045321 3.13250394,3.30610201 2.68315991,3.73333558 C2.26696422,4.12742171 2.05702479,4.60990099 2.01282702,5.17340733 C1.94284721,6.09048628 2.16751923,6.95600255 2.48426993,7.79942053 C3.13250394,9.54518527 4.11958754,11.0957485 5.31661056,12.517405 C6.93351243,14.439956 8.86348185,15.9610548 11.1212514,17.0586031 C12.1378002,17.5521316 13.1911805,17.9314855 14.3366394,17.9940973 C15.124833,18.0382939 15.8098985,17.8394093 16.3586875,17.2243403 C16.7343686,16.8044728 17.1579306,16.4214358 17.5557106,16.0199836 C18.1450142,15.4233298 18.1486973,14.7014524 17.5630769,14.1121648 C16.8632788,13.4087026 16.1597976,12.7089235 15.4563163,12.0091444 Z" id="Path" fill="#EC455A" fill-rule="nonzero"></path>
                                        </g>
                                    </g>
                                </g>
                            </g>
                        </g>
                    </g>
                </g>
            </g>
        </g>
    </g>
</svg>