<svg xmlns="http://www.w3.org/2000/svg" width="160" height="160" viewBox="0 0 160 160">
  <defs>
    <style>
      .cls-1 {
        fill: #fff;
        opacity: 0;
      }

      .cls-2, .cls-3 {
        fill-rule: evenodd;
      }

      .cls-3 {
        fill: #da0f47;
      }
    </style>
  </defs>
  <g id="icon_goods-xkeeper">
    <rect id="icon_area" class="cls-1" width="160" height="160"/>
    <g id="shape">
      <path class="cls-2" d="M537.176,389.267a16.177,16.177,0,0,0-5.816-3.829V330a4,4,0,0,0-3.983-4H469.97a4,4,0,0,0-3.983,4v84.563a4,4,0,0,0,3.983,4h47.8a74.17,74.17,0,0,0,6.134,5.968l1.673,1.47,1.663-1.47C539.436,413.912,542,405.9,542,401.055A16.689,16.689,0,0,0,537.176,389.267Zm-67.206,25.3V330h57.407v54.469a15.425,15.425,0,0,0-1.8-.1,16.18,16.18,0,0,0-11.611,4.9,16.719,16.719,0,0,0-4.81,11.788c0,3.189,1.106,7.738,5.338,13.507H469.97Zm55.605,6.639c-10.586-9.408-12.836-16.137-12.836-20.146a13.1,13.1,0,0,1,3.784-9.258,12.613,12.613,0,0,1,18.1,0,13.1,13.1,0,0,1,3.784,9.258C538.41,405.074,536.16,411.793,525.575,421.2Zm-31.417-16.209h7.468a2.132,2.132,0,0,1,2.241,2h0a2.131,2.131,0,0,1-2.241,2h-7.468a2.13,2.13,0,0,1-2.241-2h0A2.131,2.131,0,0,1,494.158,404.992Zm31.415,4.238a8.327,8.327,0,1,1,8.294-8.328A8.321,8.321,0,0,1,525.573,409.23Zm0-13.053a4.726,4.726,0,1,0,4.708,4.725A4.721,4.721,0,0,0,525.573,396.177Z" transform="translate(-422 -296)"/>
      <path id="Shape_31_copy" data-name="Shape 31 copy" class="cls-3" d="M490.355,371.876a0.745,0.745,0,0,0,0-1.489h-5.018a0.743,0.743,0,0,0-.741.744v7.892a0.743,0.743,0,0,0,.741.745h5.018a0.745,0.745,0,0,0,0-1.489h-4.276v-2.506h4.276a0.745,0.745,0,0,0,0-1.489h-4.276v-2.408h4.276Zm7.324,0a0.745,0.745,0,0,0,0-1.489h-5.018a0.743,0.743,0,0,0-.742.744v7.892a0.743,0.743,0,0,0,.742.745h5.018a0.745,0.745,0,0,0,0-1.489H493.4v-2.506h4.277a0.745,0.745,0,0,0,0-1.489H493.4v-2.408h4.277Zm14.2,0a0.745,0.745,0,0,0,0-1.489h-5.018a0.743,0.743,0,0,0-.742.744v7.892a0.743,0.743,0,0,0,.742.745h5.018a0.745,0.745,0,0,0,0-1.489H507.6v-2.506h4.277a0.745,0.745,0,0,0,0-1.489H507.6v-2.408h4.277Zm-31,2.187,2.452-2.4a0.745,0.745,0,0,0,.014-1.052,0.737,0.737,0,0,0-1.048-.014l-4.052,3.963v-3.43a0.742,0.742,0,1,0-1.483,0v5.184h0v2.707a0.742,0.742,0,1,0,1.483,0v-2.384l1.555-1.521,2.892,4.256a0.74,0.74,0,0,0,1.03.2,0.747,0.747,0,0,0,.2-1.035Zm21.765-3.676H499.95a0.742,0.742,0,0,0-.741.744v7.892a0.741,0.741,0,1,0,1.482,0v-2.961h1.946A2.838,2.838,0,0,0,502.637,370.387Zm0,4.186h-1.946v-2.7h1.946A1.349,1.349,0,0,1,502.637,374.573Zm17.811,3.928-2.11-2.842a2.837,2.837,0,0,0-1.445-5.272h-2.687a0.743,0.743,0,0,0-.741.744v7.892a0.742,0.742,0,1,0,1.483,0v-2.961h1.839l2.471,3.329A0.743,0.743,0,1,0,520.448,378.5Zm-5.5-6.625h1.945a1.349,1.349,0,0,1,0,2.7h-1.945v-2.7Zm-7.21-25.452a3.11,3.11,0,0,0-4.412,0l-4.639,4.658-4.64-4.658a3.126,3.126,0,0,0-4.412,4.429l4.64,4.659-4.64,4.659a3.141,3.141,0,0,0,0,4.429,3.11,3.11,0,0,0,4.412,0l4.64-4.659,4.639,4.659a3.11,3.11,0,0,0,4.412,0,3.14,3.14,0,0,0,0-4.429l-4.641-4.659,4.641-4.659A3.14,3.14,0,0,0,507.738,346.424Z" transform="translate(-422 -296)"/>
    </g>
  </g>
</svg>
