<?xml version="1.0" encoding="UTF-8"?>
<svg width="16px" height="18px" viewBox="0 0 16 18" version="1.1" xmlns="http://www.w3.org/2000/svg" xmlns:xlink="http://www.w3.org/1999/xlink">
    <title>icon-cal</title>
    <g id="Page-1" stroke="none" stroke-width="1" fill="none" fill-rule="evenodd">
        <g id="Group-11" stroke-width="1.5">
            <path d="M3.75,0.75 C3.82840921,0.75 3.90232313,0.770055918 3.95793599,0.811635369 C3.96885249,0.819797185 3.98257329,0.827962531 3.99145237,0.839184548 L3.99145237,0.839184548 L4.00452297,3 L12,3 L12,0.857142857 C12,0.838962496 12.0200442,0.829873098 12.0309867,0.820493782 C12.3284092,0.75 12.4023231,0.770055918 12.457936,0.811635369 C12.4688525,0.819797185 12.4825733,0.827962531 12.4914524,0.839184548 L12.4914524,0.839184548 L12.504523,3 L15.25,3 L15.25,16.5 L0.75,16.5 L0.75,3 L3.5,3 L3.5,0.857142857 C3.5,0.838962496 3.52004421,0.829873098 3.53098675,0.820493782 C3.58703713,0.7724506 3.66633439,0.75 3.75,0.75 Z" id="Combined-Shape" stroke="#111111" fill="#111111"></path>
            <polyline id="Path-9" stroke="#FFFFFF" points="5 10.2142857 7.18181818 12.5 11 8.5"></polyline>
        </g>
    </g>
</svg>