<?xml version="1.0" encoding="UTF-8"?>
<svg width="64px" height="64px" viewBox="0 0 64 64" version="1.1" xmlns="http://www.w3.org/2000/svg" xmlns:xlink="http://www.w3.org/1999/xlink">
    <title>btn_sns_kakaotalk_48</title>
    <g id="디자인" stroke="none" stroke-width="1" fill="none" fill-rule="evenodd">
        <g id="M/MKT4002_이벤트상세" transform="translate(-376.000000, -910.000000)">
            <g id="01-top" transform="translate(0.000000, 168.000000)">
                <g id="icon_share" transform="translate(184.000000, 742.000000)">
                    <g id="btn_sns_kakaotalk_48" transform="translate(192.000000, 0.000000)">
                        <rect id="Rectangle" x="0" y="0" width="64" height="64"></rect>
                        <g id="ic" fill="#222222">
                            <path d="M32,16 C41.9412784,16 50,22.1641291 50,30 C50,37.3719805 41.9412784,43.5366389 32,44 C30.858211,43.5366389 29.7410413,43.4545917 29,43 C26.6641743,44.6117223 22.0412146,47.652234 22,48 C21.3371022,48.1069344 20.7342026,48.1196385 21,47 C21.176256,46.4093507 22.1626698,42.8426782 23,41 C17.4144251,39.0558014 14,34.7173556 14,30 C14,22.1641291 22.0581745,16 32,16 Z M44.1077151,25.9668929 L44,26 C43.9908376,26.4538687 41.4247653,28.9655529 41.0459641,29.0261701 L41.017,29.023 L41.0214449,28.9997505 C41.0498257,28.7634875 41.0583383,27.5852151 41.0088004,27.0780389 L41,27 C41.0314938,26.2324149 40.6149116,26.0251456 40.1034522,26.0022353 L40,26 C39.5472173,26 39.0126991,26.2085684 39,27 C39.0426841,27.330346 39.0023072,33.5810217 39.0000935,33.9805063 L39,34 C39.0005566,35.1500314 40.8898969,35.1895483 40.9957631,34.123051 L41,34 C41.0276365,33.5731757 41.0313353,32.1545775 41.0085715,32.001178 L41.006,31.993 L42,31 L44,35 C44.7380717,35.4589241 46.3075553,34.3459181 46.0376901,34.0315256 L46,34 L43,30 C43.1226756,30.0619995 44.875215,28.2363344 45.8903608,27.1208842 L46,27 C46.1738046,26.9726495 44.9511384,25.7750918 44.1077151,25.9668929 Z M34,26 C33.4901379,26 32.9985399,26.2938798 33,27 C33.0032032,28.5089614 33.0087885,33.6417657 33.0007056,33.9828487 L33,34 C33.0086672,33.9330644 32.8778502,34.9006547 33.8463287,34.9929579 L34,35 C34.5531577,35 36.2629628,34.992198 36.8843282,34.9984396 L37,35 C38.172087,34.9913635 38.2090373,33.2062556 37.1250547,33.0145699 L37,33 C36.5356824,33.0676114 35.1247006,33.0628794 35.0069071,33.0098539 L35,33 C34.9567381,33.0602467 34.9624296,28.374076 34.9967972,27.1056674 L35,27 C34.9613556,26.3388647 34.5333027,26.0407375 34.0941388,26.0039256 L34,26 Z M27.9115692,26 C27.4565813,26 27.0134333,26.1646005 26.8262511,26.5752649 C26.3663099,27.5749441 24.7530204,32.1628154 24.1267798,33.6549334 L24.0613681,33.807645 C23.6639852,34.7137849 25.3079904,35.4576378 25.7933073,34.6631356 L25.840726,34.5720611 L26.2263662,33.2329381 L29.7642212,33.233496 C29.7642212,33.233496 29.6537621,33.2835993 30.0494278,34.3477931 L30.1126506,34.5151483 C30.4799861,35.4752251 32.2081527,34.863311 31.9791917,33.9243116 L31.9483886,33.826058 C31.4235069,32.4520271 29.6430364,27.6146425 29.2211336,26.6557108 L29.1846332,26.5752649 C29.0394073,26.2678711 28.5511864,26.0406503 28.0487136,26.0049148 L27.9115692,26 Z M24,25 L19,25 C17.7838052,25 17.7427747,26.78726 18.8699511,26.9847684 L19,27 L21,27 C20.567693,26.9243269 20.5660811,31.831978 20.9638657,32.9146231 L21,33 C20.5738199,34.154211 22.2773644,34.2357055 22.0337393,33.1237143 L22,33 L22,27 C22.3725502,27.0970858 22.9043488,26.9896811 23.758835,26.9953977 L24,27 C25.229352,26.9716931 25.2747004,25.1382842 24.1318709,25.0073625 L24,25 Z M28.0399799,28 L29,31 L27,31 L28.0399799,28 Z" id="Combined-Shape"></path>
                        </g>
                    </g>
                </g>
            </g>
        </g>
    </g>
</svg>