<svg xmlns="http://www.w3.org/2000/svg" width="48" height="48" viewBox="0 0 48 48">
    <g fill="none" fill-rule="evenodd">
        <g>
            <g>
                <g>
                    <g>
                        <g>
                            <g>
                                <g transform="translate(-1246 -2122) translate(0 1976) translate(246 32) translate(24 66) translate(936) translate(40 48)">
                                    <circle cx="24" cy="24" r="24" fill="#FFF"/>
                                    <g fill="#F47A48">
                                        <path fill-rule="nonzero" d="M26.2.4c1.714 0 3.113 1.347 3.196 3.04l.004.16v17.6c0 1.714-1.347 3.113-3.04 3.196l-.16.004H24v2.4c0 1.767-1.433 3.2-3.2 3.2H3.2C1.433 30 0 28.567 0 26.8V9.2C0 7.433 1.433 6 3.2 6l2.199-.001L5.4 3.6C5.4 1.886 6.747.487 8.44.404L8.6.4h17.6zm-5.4 7.2H3.2c-.843 0-1.535.653-1.596 1.48L1.6 9.2v17.6c0 .843.653 1.535 1.48 1.596l.12.004h17.6c.843 0 1.535-.653 1.596-1.48l.004-.12V9.2c0-.843-.653-1.535-1.48-1.596L20.8 7.6zM26.2 2H8.6c-.843 0-1.535.653-1.596 1.48L7 3.6l-.001 2.399L20.8 6C22.567 6 24 7.433 24 9.2v13.6h2.2c.843 0 1.535-.653 1.596-1.48l.004-.12V3.6c0-.843-.653-1.535-1.48-1.596L26.2 2z" transform="translate(9 9)"/>
                                        <path d="M11.8 13c.442 0 .8.358.8.8V17h3.2c.442 0 .8.358.8.8 0 .442-.358.8-.8.8h-3.2v3.2c0 .442-.358.8-.8.8-.442 0-.8-.358-.8-.8v-3.2H7.8c-.442 0-.8-.358-.8-.8 0-.442.358-.8.8-.8l3.2-.001V13.8c0-.442.358-.8.8-.8z" transform="translate(9 9)"/>
                                    </g>
                                </g>
                            </g>
                        </g>
                    </g>
                </g>
            </g>
        </g>
    </g>
</svg>
