<svg xmlns="http://www.w3.org/2000/svg" width="64" height="64" viewBox="0 0 64 64">
    <g fill="none" fill-rule="evenodd">
        <g>
            <path d="M0 0H64V64H0z"/>
            <g stroke-width="2">
                <path stroke="#000" d="M20.461 27.4H8.607c-.307 0-.596.1-.831.274-.235.173-.416.42-.507.714L1.05 48.8c0 .387.157.737.41.99s.603.41.99.41l48.312-.062c.37-.114.658-.366.825-.683.168-.317.215-.697.101-1.067l-6.157-20c-.09-.294-.272-.54-.507-.714-.235-.174-.524-.274-.831-.274H32.339c-2.03 2.505-3.807 4.328-4.486 5.01-.402.392-.927.59-1.453.59s-1.05-.198-1.453-.59c-.203-.201-2.178-2.161-4.486-5.01z" transform="translate(5.6 6.4)"/>
                <path fill-rule="nonzero" stroke="#000" stroke-linejoin="bevel" d="M26.4 0c-7.06 0-12.8 5.651-12.8 12.6 0 8.734 11.554 20.208 12.045 20.693.209.204.482.307.755.307s.546-.103.755-.307c.49-.485 12.045-11.96 12.045-20.693C39.2 5.651 33.46 0 26.4 0z" transform="translate(5.6 6.4)"/>
                <g stroke="#DA0F47" transform="translate(5.6 6.4) translate(19.6 5)">
                    <rect width="10.753" height="10.8" x="1.4" y="1.929" rx="5.377"/>
                </g>
            </g>
        </g>
    </g>
</svg>
