<svg xmlns="http://www.w3.org/2000/svg" width="160" height="160" viewBox="0 0 160 160">
    <g>
        <g fill-rule="evenodd">
            <path fill="#da0f47" d="M1127.57 372.251h-46.14a2.813 2.813 0 0 0 0 5.626h46.14a2.813 2.813 0 0 0 0-5.626zm0 15.143h-46.14a2.813 2.813 0 0 0 0 5.626h46.14a2.813 2.813 0 0 0 0-5.626zm-18.01 20.769a2.813 2.813 0 1 0 0-5.626h-28.13a2.813 2.813 0 0 0 0 5.626h28.13z" transform="translate(-1024 -296)"/>
            <path d="M1156.02 415.09a2.513 2.513 0 0 0-3.55 0l-5.34 5.348v-78.874a18.576 18.576 0 0 0-18.55-18.549h-41.69a2.507 2.507 0 1 0 0 5.014h41.69a13.548 13.548 0 0 1 13.53 13.535v78.874l-5.35-5.348a2.5 2.5 0 1 0-3.54 3.545l9.63 9.626a2.5 2.5 0 0 0 3.54 0l9.63-9.626a2.5 2.5 0 0 0 0-3.545zm-33.91 8.892h-41.69a13.548 13.548 0 0 1-13.53-13.536v-78.872l5.35 5.346a2.5 2.5 0 1 0 3.54-3.544l-9.62-9.624a2.688 2.688 0 0 0-.39-.315c-.06-.038-.12-.064-.18-.1a2.116 2.116 0 0 0-.25-.133 1.977 1.977 0 0 0-.25-.076 1.837 1.837 0 0 0-.22-.066 2.525 2.525 0 0 0-.98 0 1.837 1.837 0 0 0-.22.066c-.08.024-.17.043-.25.076a2.116 2.116 0 0 0-.25.133c-.06.033-.12.059-.18.1a2.165 2.165 0 0 0-.38.315l-9.63 9.624a2.508 2.508 0 0 0 3.55 3.544l5.34-5.346v78.872A18.576 18.576 0 0 0 1080.42 429h41.69a2.507 2.507 0 1 0 0-5.018z" transform="translate(-1024 -296)"/>
        </g>
    </g>
</svg>
