<svg xmlns="http://www.w3.org/2000/svg" width="80" height="80" viewBox="0 0 80 80">
  <defs>
    <style>
      .cls-1 {
        fill: #fff;
        opacity: 0;
      }

      .cls-2 {
        fill-rule: evenodd;
      }
    </style>
  </defs>
  <g id="icon_search-history">
    <rect id="icon_area" class="cls-1" width="80" height="80"/>
    <g id="shape">
      <path class="cls-2" d="M44.045,825a30.925,30.925,0,0,0-29.482,21.521l-2.118-3.947a1.7,1.7,0,1,0-3,1.617l4.4,8.2a1.7,1.7,0,0,0,2.307.695l8.482-4.566a1.705,1.705,0,0,0-1.613-3l-4.731,2.546a26.963,26.963,0,1,1-.544,13.906,2,2,0,1,0-3.9.882A30.964,30.964,0,1,0,44.045,825Zm-0.253,15.664a2,2,0,0,0-2,2V857.3a2,2,0,0,0,.742,1.557l9.006,7.287a2,2,0,0,0,2.512-3.113l-8.263-6.686V842.665A2,2,0,0,0,43.791,840.664Z" transform="translate(-2 -816)"/>
    </g>
  </g>
</svg>
