<?xml version="1.0" encoding="UTF-8"?>
<svg width="24px" height="24px" viewBox="0 0 24 24" version="1.1" xmlns="http://www.w3.org/2000/svg" xmlns:xlink="http://www.w3.org/1999/xlink">
    <title>icon-sns4</title>
    <g id="Page-1" stroke="none" stroke-width="1" fill="none" fill-rule="evenodd">
        <g id="m_f_sns_insta">
            <g id="Group-9">
                <rect id="Rectangle-9-Copy-2" fill="#F4F4F4" x="0" y="0" width="24" height="24"></rect>
                <path d="M15.5116883,4 C17.9905144,4 20,6.00948559 20,8.48831169 L20,15.5116883 C20,17.9905144 17.9905144,20 15.5116883,20 L8.48831169,20 C6.00948559,20 4,17.9905144 4,15.5116883 L4,8.48831169 C4,6.00948559 6.00948559,4 8.48831169,4 L15.5116883,4 Z M12,7.5 C9.51471863,7.5 7.5,9.51471863 7.5,12 C7.5,14.4852814 9.51471863,16.5 12,16.5 C14.4852814,16.5 16.5,14.4852814 16.5,12 C16.5,9.51471863 14.4852814,7.5 12,7.5 Z M12,9 C13.6568542,9 15,10.3431458 15,12 C15,13.6568542 13.6568542,15 12,15 C10.3431458,15 9,13.6568542 9,12 C9,10.3431458 10.3431458,9 12,9 Z M17.25,6.5 C16.8357864,6.5 16.5,6.83578644 16.5,7.25 C16.5,7.66421356 16.8357864,8 17.25,8 C17.6642136,8 18,7.66421356 18,7.25 C18,6.83578644 17.6642136,6.5 17.25,6.5 Z" id="Combined-Shape" fill="#808080"></path>
            </g>
        </g>
    </g>
</svg>