<svg xmlns="http://www.w3.org/2000/svg" width="20" height="20" viewBox="0 0 20 20">
    <g fill="none" fill-rule="evenodd">
        <g>
            <g>
                <g>
                    <g>
                        <path d="M0 0L20 0 20 20 0 20z" transform="translate(-1341 -22) translate(1309 22) translate(32)"/>
                        <path fill="#EC455A" fill-rule="nonzero" d="M10 5c.92 0 1.667.746 1.667 1.667 0 .92-.746 1.666-1.667 1.666-.92 0-1.667-.746-1.667-1.666C8.333 5.746 9.08 5 10 5m0 7.5c2.434 0 5 1.14 5 1.64V15H5v-.86c0-.5 2.566-1.64 5-1.64m0-9.167c-1.842 0-3.333 1.492-3.333 3.334C6.667 8.508 8.158 10 10 10s3.333-1.492 3.333-3.333c0-1.842-1.491-3.334-3.333-3.334zm0 7.5c-2.225 0-6.667 1.117-6.667 3.334v2.5h13.334v-2.5c0-2.217-4.442-3.334-6.667-3.334z" transform="translate(-1341 -22) translate(1309 22) translate(32)"/>
                    </g>
                </g>
            </g>
        </g>
    </g>
</svg>
