<?xml version="1.0" encoding="UTF-8"?>
<svg width="200px" height="200px" viewBox="0 0 200 200" version="1.1" xmlns="http://www.w3.org/2000/svg" xmlns:xlink="http://www.w3.org/1999/xlink">
    <title>Artboard</title>
    <g id="Artboard" stroke="none" stroke-width="1" fill="none" fill-rule="evenodd">
        <g id="img_crt_product_null">
            <rect id="Rectangle" fill="#FFFFFF" x="0" y="0" width="200" height="200"></rect>
            <g id="Group-3" transform="translate(38.000000, 38.000000)">
                <g id="Group-43" transform="translate(31.000000, 72.000000) scale(-1, 1) translate(-31.000000, -72.000000) translate(0.000000, 20.000000)" stroke="#222222">
                    <g id="Group-46">
                        <g id="Group">
                            <rect id="Rectangle" stroke-width="4" fill="#FFFFFF" x="2" y="2" width="58" height="94"></rect>
                            <path d="M12,96 L4,96 L4,100 C4,100.552285 4.22385763,101.052285 4.58578644,101.414214 C4.94771525,101.776142 5.44771525,102 6,102 L10,102 C10.5522847,102 11.0522847,101.776142 11.4142136,101.414214 C11.7761424,101.052285 12,100.552285 12,100 L12,96 Z" id="Rectangle" stroke-width="4" fill="#FFFFFF"></path>
                            <path d="M58,96 L50,96 L50,100 C50,100.552285 50.2238576,101.052285 50.5857864,101.414214 C50.9477153,101.776142 51.4477153,102 52,102 L56,102 C56.5522847,102 57.0522847,101.776142 57.4142136,101.414214 C57.7761424,101.052285 58,100.552285 58,100 L58,96 Z" id="Rectangle" stroke-width="4" fill="#FFFFFF"></path>
                            <path d="M55,30 L49,30 C48.7238576,30 48.4738576,30.1119288 48.2928932,30.2928932 C48.1119288,30.4738576 48,30.7238576 48,31 C48,31.2761424 48.1119288,31.5261424 48.2928932,31.7071068 C48.4738576,31.8880712 48.7238576,32 49,32 L55,32 C55.2761424,32 55.5261424,31.8880712 55.7071068,31.7071068 C55.8880712,31.5261424 56,31.2761424 56,31 C56,30.7238576 55.8880712,30.4738576 55.7071068,30.2928932 C55.5261424,30.1119288 55.2761424,30 55,30 Z" id="Rectangle" stroke-width="2" fill="#767676" transform="translate(52.000000, 31.000000) rotate(-270.000000) translate(-52.000000, -31.000000) "></path>
                            <path d="M55,50 L49,50 C48.7238576,50 48.4738576,50.1119288 48.2928932,50.2928932 C48.1119288,50.4738576 48,50.7238576 48,51 C48,51.2761424 48.1119288,51.5261424 48.2928932,51.7071068 C48.4738576,51.8880712 48.7238576,52 49,52 L55,52 C55.2761424,52 55.5261424,51.8880712 55.7071068,51.7071068 C55.8880712,51.5261424 56,51.2761424 56,51 C56,50.7238576 55.8880712,50.4738576 55.7071068,50.2928932 C55.5261424,50.1119288 55.2761424,50 55,50 Z" id="Rectangle" stroke-width="2" fill="#767676" transform="translate(52.000000, 51.000000) rotate(-270.000000) translate(-52.000000, -51.000000) "></path>
                            <path d="M60,39 L2,39 C1.72385763,39 1.47385763,39.1119288 1.29289322,39.2928932 C1.11192881,39.4738576 1,39.7238576 1,40 C1,40.2761424 1.11192881,40.5261424 1.29289322,40.7071068 C1.47385763,40.8880712 1.72385763,41 2,41 L60,41 C60.2761424,41 60.5261424,40.8880712 60.7071068,40.7071068 C60.8880712,40.5261424 61,40.2761424 61,40 C61,39.7238576 60.8880712,39.4738576 60.7071068,39.2928932 C60.5261424,39.1119288 60.2761424,39 60,39 Z" id="Rectangle" stroke-width="2" fill="#767676" transform="translate(31.000000, 40.000000) rotate(-180.000000) translate(-31.000000, -40.000000) "></path>
                        </g>
                    </g>
                </g>
                <g id="Group-43" transform="translate(46.000000, 38.000000)" stroke="#222222">
                    <g id="Group-69">
                        <rect id="Rectangle" stroke-width="4" fill="#FFFFFF" x="2" y="2" width="62" height="76"></rect>
                        <path d="M56,11 L46,11 C45.7238576,11 45.4738576,11.1119288 45.2928932,11.2928932 C45.1119288,11.4738576 45,11.7238576 45,12 C45,12.2761424 45.1119288,12.5261424 45.2928932,12.7071068 C45.4738576,12.8880712 45.7238576,13 46,13 L56,13 C56.2761424,13 56.5261424,12.8880712 56.7071068,12.7071068 C56.8880712,12.5261424 57,12.2761424 57,12 C57,11.7238576 56.8880712,11.4738576 56.7071068,11.2928932 C56.5261424,11.1119288 56.2761424,11 56,11 Z" id="Rectangle" stroke-width="2" fill="#DDDDDD"></path>
                        <rect id="Rectangle" stroke-width="4" fill="#FFFFFF" x="14" y="20" width="40" height="40" rx="20"></rect>
                        <path d="M22,46 C25,50 29,52 34,52 C39,52 43,50 46,46" id="Path" stroke-width="4" stroke-linecap="round"></path>
                        <path d="M14,78 L6,78 L6,82 C6,82.5522847 6.22385763,83.0522847 6.58578644,83.4142136 C6.94771525,83.7761424 7.44771525,84 8,84 L12,84 C12.5522847,84 13.0522847,83.7761424 13.4142136,83.4142136 C13.7761424,83.0522847 14,82.5522847 14,82 L14,78 Z" id="Rectangle" stroke-width="4" fill="#FFFFFF"></path>
                        <path d="M60,78 L52,78 L52,82 C52,82.5522847 52.2238576,83.0522847 52.5857864,83.4142136 C52.9477153,83.7761424 53.4477153,84 54,84 L58,84 C58.5522847,84 59.0522847,83.7761424 59.4142136,83.4142136 C59.7761424,83.0522847 60,82.5522847 60,82 L60,78 Z" id="Rectangle" stroke-width="4" fill="#FFFFFF"></path>
                    </g>
                </g>
                <g id="Group-7" transform="translate(72.000000, 0.000000)">
                    <circle id="Oval" stroke="#222222" stroke-width="4" fill="#FFFFFF" cx="26" cy="26" r="26"></circle>
                    <rect id="Rectangle" fill="#EC455A" x="12" y="24" width="28" height="4" rx="2"></rect>
                    <path d="M14,24 L38,24 C39.1045695,24 40,24.8954305 40,26 C40,27.1045695 39.1045695,28 38,28 L14,28 C12.8954305,28 12,27.1045695 12,26 C12,24.8954305 12.8954305,24 14,24 Z" id="Rectangle" fill="#EC455A" transform="translate(26.000000, 26.000000) rotate(-270.000000) translate(-26.000000, -26.000000) "></path>
                </g>
            </g>
        </g>
    </g>
</svg>