<?xml version="1.0" encoding="UTF-8"?>
<svg width="24px" height="24px" viewBox="0 0 24 24" version="1.1" xmlns="http://www.w3.org/2000/svg" xmlns:xlink="http://www.w3.org/1999/xlink">
    <title>icon-sns5</title>
    <g id="Page-1" stroke="none" stroke-width="1" fill="none" fill-rule="evenodd">
        <g id="Group-13" transform="translate(-128.000000, 0.000000)">
            <g id="ic_f_naverblog_24" transform="translate(128.000000, 0.000000)">
                <rect id="Rectangle-9-Copy-2" fill-opacity="0" fill="#F5F5F5" x="0" y="0" width="24" height="24"></rect>
                <path d="M12.7186111,17.8008333 C13.2475,17.8008333 13.7626157,17.7347222 14.2639583,17.6025 C14.7653009,17.4702778 15.2115509,17.2664352 15.6027083,16.9909722 C15.9938657,16.7155093 16.3051389,16.360162 16.5365278,15.9249306 C16.7679167,15.4896991 16.8836111,14.9745833 16.8836111,14.3795833 C16.8836111,13.6413426 16.7045602,13.0105324 16.3464583,12.4871528 C15.9883565,11.9637731 15.4456944,11.5974074 14.7184722,11.3880556 C15.2473611,11.1346296 15.6467824,10.8095833 15.9167361,10.4129167 C16.1866898,10.01625 16.3216667,9.52041667 16.3216667,8.92541667 C16.3216667,8.37449074 16.2307639,7.91171296 16.0489583,7.53708333 C15.8671528,7.1624537 15.6109722,6.86219907 15.2804167,6.63631944 C14.9498611,6.41043981 14.5531944,6.24791667 14.0904167,6.14875 C13.6276389,6.04958333 13.1152778,6 12.5533333,6 L7,6 L7,17.8008333 L12.7186111,17.8008333 Z M12.2227778,10.7765278 L9.59486111,10.7765278 L9.59486111,8.01638889 L12.0244444,8.01638889 C12.2558333,8.01638889 12.4789583,8.0356713 12.6938194,8.07423611 C12.9086806,8.11280093 13.09875,8.18166667 13.2640278,8.28083333 C13.4293056,8.38 13.5615278,8.51773148 13.6606944,8.69402778 C13.7598611,8.87032407 13.8094444,9.0962037 13.8094444,9.37166667 C13.8094444,9.8675 13.6606944,10.2256019 13.3631944,10.4459722 C13.0656944,10.6663426 12.6855556,10.7765278 12.2227778,10.7765278 Z M12.3715278,15.7844444 L9.59486111,15.7844444 L9.59486111,12.545 L12.4211111,12.545 C12.9830556,12.545 13.4348148,12.6744676 13.7763889,12.9334028 C14.117963,13.192338 14.28875,13.6248148 14.28875,14.2308333 C14.28875,14.5393519 14.236412,14.7927778 14.1317361,14.9911111 C14.0270602,15.1894444 13.8865741,15.3464583 13.7102778,15.4621528 C13.5339815,15.5778472 13.3301389,15.6604861 13.09875,15.7100694 C12.8673611,15.7596528 12.6249537,15.7844444 12.3715278,15.7844444 Z" id="B" fill="#787878" fill-rule="nonzero"></path>
            </g>
        </g>
    </g>
</svg>