<svg xmlns="http://www.w3.org/2000/svg" width="48" height="48" viewBox="0 0 48 48">
    <g fill="none" fill-rule="evenodd">
        <g>
            <g>
                <path d="M0 0L48 0 48 48 0 48z" transform="translate(-133 -919) translate(133 919)"/>
                <path fill="#EC455A" fill-rule="nonzero" d="M13.24 21.58c2.88 5.66 7.52 10.28 13.18 13.18l4.4-4.4c.54-.54 1.34-.72 2.04-.48 2.24.74 4.66 1.14 7.14 1.14 1.1 0 2 .9 2 2V40c0 1.1-.9 2-2 2C21.22 42 6 26.78 6 8c0-1.1.9-2 2-2h7c1.1 0 2 .9 2 2 0 2.5.4 4.9 1.14 7.14.22.7.06 1.48-.5 2.04l-4.4 4.4z" transform="translate(-133 -919) translate(133 919)"/>
            </g>
        </g>
    </g>
</svg>
