<svg xmlns="http://www.w3.org/2000/svg" width="160" height="160" viewBox="0 0 160 160">
  <defs>
    <style>
      .cls-1 {
        fill: red;
        opacity: 0;
      }

      .cls-2 {
        fill: #fff;
      }

      .cls-2, .cls-3 {
        fill-rule: evenodd;
      }

      .cls-3 {
        fill: #da0f47;
      }
    </style>
  </defs>
  <g id="icon_center-reservation_w">
    <rect id="icon_area" class="cls-1" width="160" height="160"/>
    <g id="shape">
      <path class="cls-2" d="M910,400.493v30.5H891v-30.5a1.5,1.5,0,0,1,1.5-1.5h16A1.5,1.5,0,0,1,910,400.493ZM976.5,356h-36a6.162,6.162,0,0,0-1.5.18V328.5a6.506,6.506,0,0,0-6.5-6.5h-64a6.512,6.512,0,0,0-6.5,6.5v95.992a6.506,6.506,0,0,0,6.5,6.5H886v-30.5a6.513,6.513,0,0,1,6.5-6.5h16a6.506,6.506,0,0,1,6.5,6.5v30.5h61.5a6.5,6.5,0,0,0,6.5-6.5V362.5A6.506,6.506,0,0,0,976.5,356Zm-50,10.5a4,4,0,0,1-4,4h-44a4,4,0,0,1-4-4v-2a4,4,0,0,1,4-4h44a4,4,0,0,1,4,4v2Zm0-20a4,4,0,0,1-4,4h-44a4,4,0,0,1-4-4v-2a4,4,0,0,1,4-4h44a4,4,0,0,1,4,4v2ZM978,424.491a1.5,1.5,0,0,1-1.5,1.5H939V362.5a1.5,1.5,0,0,1,1.5-1.5h36a1.5,1.5,0,0,1,1.5,1.5v62Zm-87,6.5V431h-5v-0.01h5Zm24,0V431h-5v-0.01h5ZM970.5,368h-24a4.507,4.507,0,0,0-4.5,4.5v6a4.507,4.507,0,0,0,4.5,4.5h24a4.507,4.507,0,0,0,4.5-4.5v-6A4.507,4.507,0,0,0,970.5,368ZM970,378H947v-5h23v5Z" transform="translate(-842 -296)"/>
      <path id="Shape_35_copy" data-name="Shape 35 copy" class="cls-3" d="M915,400.493v30.5h-5v-30.5a1.5,1.5,0,0,0-1.5-1.5h-16a1.5,1.5,0,0,0-1.5,1.5v30.5h-5v-30.5a6.513,6.513,0,0,1,6.5-6.5h16A6.506,6.506,0,0,1,915,400.493Z" transform="translate(-842 -296)"/>
    </g>
  </g>
</svg>
