<?xml version="1.0" encoding="UTF-8"?>
<svg width="60px" height="60px" viewBox="0 0 60 60" version="1.1" xmlns="http://www.w3.org/2000/svg" xmlns:xlink="http://www.w3.org/1999/xlink">
    <title>icon-product04-60</title>
    <g id="Page-1" stroke="none" stroke-width="1" fill="none" fill-rule="evenodd">
        <g id="Group-9" fill="#767676" fill-rule="nonzero">
            <g id="Group-43" transform="translate(15.000000, 4.000000)">
                <g id="Group-46">
                    <g id="Group">
                        <path d="M28,0 C29.6568542,0 31,1.34314575 31,3 L31,46 C31,47.6568542 29.6568542,49 28,49 L3,49 C1.34314575,49 0,47.6568542 0,46 L0,3 C0,1.34314575 1.34314575,0 3,0 L28,0 Z M28,2 L3,2 C2.48716416,2 2.06449284,2.38604019 2.00672773,2.88337887 L2,3 L2,46 C2,46.5128358 2.38604019,46.9355072 2.88337887,46.9932723 L3,47 L28,47 C28.5128358,47 28.9355072,46.6139598 28.9932723,46.1166211 L29,46 L29,3 C29,2.48716416 28.6139598,2.06449284 28.1166211,2.00672773 L28,2 Z" id="Rectangle"></path>
                        <path d="M7,47 L7,50 C7,51.1045695 6.1045695,52 5,52 L3,52 C1.8954305,52 1,51.1045695 1,50 L1,47 L7,47 Z M5,49 L3,49 L3,50 L5,50 L5,49 Z" id="Rectangle"></path>
                        <path d="M30,47 L30,50 C30,51.1045695 29.1045695,52 28,52 L26,52 C24.8954305,52 24,51.1045695 24,50 L24,47 L30,47 Z M28,49 L26,49 L26,50 L28,50 L28,49 Z" id="Rectangle"></path>
                        <path d="M27.5,14 C28.0522847,14 28.5,14.4477153 28.5,15 C28.5,15.5522847 28.0522847,16 27.5,16 L24.5,16 C23.9477153,16 23.5,15.5522847 23.5,15 C23.5,14.4477153 23.9477153,14 24.5,14 L27.5,14 Z" id="Rectangle" transform="translate(26.000000, 15.000000) rotate(-270.000000) translate(-26.000000, -15.000000) "></path>
                        <path d="M27.5,24.5 C28.0522847,24.5 28.5,24.9477153 28.5,25.5 C28.5,26.0522847 28.0522847,26.5 27.5,26.5 L24.5,26.5 C23.9477153,26.5 23.5,26.0522847 23.5,25.5 C23.5,24.9477153 23.9477153,24.5 24.5,24.5 L27.5,24.5 Z" id="Rectangle" transform="translate(26.000000, 25.500000) rotate(-270.000000) translate(-26.000000, -25.500000) "></path>
                        <path d="M30,18.8461538 C30.5522847,18.8461538 31,19.2938691 31,19.8461538 C31,20.3984386 30.5522847,20.8461538 30,20.8461538 L1,20.8461538 C0.44771525,20.8461538 0,20.3984386 0,19.8461538 C0,19.2938691 0.44771525,18.8461538 1,18.8461538 L30,18.8461538 Z" id="Rectangle" transform="translate(15.500000, 19.846154) rotate(-180.000000) translate(-15.500000, -19.846154) "></path>
                    </g>
                </g>
            </g>
        </g>
    </g>
</svg>