<svg xmlns="http://www.w3.org/2000/svg" width="33" height="33" viewBox="0 0 33 33">
    <g fill="none" fill-rule="evenodd">
        <g>
            <g>
                <g>
                    <g>
                        <g>
                            <path d="M0 0H33V33H0z" transform="translate(-1206 -1298) translate(318 196) translate(872 902) translate(0 184) translate(16 16)"/>
                            <path fill="#979797" fill-rule="nonzero" d="M3.867 5C3.388 5 3 5.403 3 5.9s.388.9.867.9H6.63l2.98 14.597c.119.55.465 1.007.904 1.003h14.45c.457.007.879-.424.879-.9 0-.476-.422-.907-.88-.9H11.218l-.37-1.8h15.271c.388-.003.755-.31.84-.703l2.023-9c.113-.522-.324-1.093-.84-1.097H8.653l-.47-2.287C8.103 5.313 7.729 5 7.336 5H3.867zm9.537 18c-1.586 0-2.89 1.354-2.89 3s1.304 3 2.89 3c1.585 0 2.89-1.354 2.89-3s-1.305-3-2.89-3zm8.67 0c-1.586 0-2.89 1.354-2.89 3s1.304 3 2.89 3c1.585 0 2.89-1.354 2.89-3s-1.305-3-2.89-3zm-8.67 1.8c.648 0 1.156.527 1.156 1.2 0 .673-.508 1.2-1.156 1.2-.649 0-1.156-.527-1.156-1.2 0-.673.507-1.2 1.156-1.2zm8.67 0c.648 0 1.155.527 1.155 1.2 0 .673-.507 1.2-1.156 1.2-.648 0-1.156-.527-1.156-1.2 0-.673.508-1.2 1.156-1.2z" transform="translate(-1206 -1298) translate(318 196) translate(872 902) translate(0 184) translate(16 16)"/>
                        </g>
                    </g>
                </g>
            </g>
        </g>
    </g>
</svg>
