<svg xmlns="http://www.w3.org/2000/svg" width="24" height="24" viewBox="0 0 24 24">
    <g fill="none" fill-rule="evenodd">
        <g>
            <g>
                <g>
                    <g>
                        <g>
                            <g>
                                <path d="M0 0H24V24H0z" transform="translate(-1000 -5728) translate(596 2458) translate(0 2470) translate(0 788) translate(234) translate(170 12)"/>
                                <g transform="translate(-1000 -5728) translate(596 2458) translate(0 2470) translate(0 788) translate(234) translate(170 12) translate(3 3)">
                                    <path stroke="#000" stroke-linecap="round" stroke-linejoin="round" d="M10.5 18H2c-1.105 0-2-.895-2-2V4c0-1.105.895-2 2-2h14c1.105 0 2 .895 2 2v7"/>
                                    <path stroke="#DA0F47" stroke-linecap="round" stroke-linejoin="round" d="M11 15.573L13.56 17.965 18.079 13.5"/>
                                    <rect width="1" height="3" x="3" fill="#000" rx=".5"/>
                                    <rect width="1" height="3" x="14" fill="#000" rx=".5"/>
                                    <path fill="#000" d="M0 5L17.612 5 17.612 6 0 6z"/>
                                    <g fill="#000">
                                        <path d="M.223 0H1.723V1.5H.223zM.223 3.5H1.723V5H.223zM3.723 0H5.223V1.5H3.723zM3.723 3.5H5.223V5H3.723zM7.223 0H8.722999999999999V1.5H7.223z" transform="translate(4.5 9)"/>
                                    </g>
                                </g>
                            </g>
                        </g>
                    </g>
                </g>
            </g>
        </g>
    </g>
</svg>
