<svg xmlns="http://www.w3.org/2000/svg" width="160" height="160" viewBox="0 0 160 160">
    <g>
        <g fill-rule="evenodd">
            <path d="M1147.76 129.989a1 1 0 0 1 1 1v56.658a1 1 0 0 1-1 1h-85.34a1 1 0 0 1-1-1v-56.66a1 1 0 0 1 1-1h85.34m0-4.99h-85.34a6.007 6.007 0 0 0-6.02 5.988v56.658a6.007 6.007 0 0 0 6.02 5.988h85.34a6 6 0 0 0 6.01-5.988v-56.656a6 6 0 0 0-6.01-5.988zm11.23 81h-108.98a2.995 2.995 0 1 1 0-5.989h108.98a2.995 2.995 0 1 1 0 5.992z" transform="translate(-1024 -86)"/>
            <path fill="#da0f47" d="M1096.32 176.316a2.491 2.491 0 0 1-1.77-.731l-13.33-13.266a2.486 2.486 0 0 1 0-3.529 2.522 2.522 0 0 1 3.55 0l11.68 11.634 29.57-25.209a2.5 2.5 0 0 1 3.26 3.791l-31.33 26.71a2.5 2.5 0 0 1-1.63.6z" transform="translate(-1024 -86)"/>
        </g>
    </g>
</svg>
