<svg xmlns="http://www.w3.org/2000/svg" width="160" height="160" viewBox="0 0 160 160">
  <defs>
    <style>
      .cls-1 {
        fill: #fff;
      }

      .cls-1, .cls-2 {
        fill-rule: evenodd;
      }

      .cls-2 {
        fill: #da0f47;
      }
    </style>
  </defs>
  <g id="icon_remote-reservation_w">
    <g id="shape">
      <path class="cls-1" d="M1189.51,309H1122.3a7.509,7.509,0,0,0-7.49,7.511v32.6a31.067,31.067,0,0,0-11.78,17.088h-28.55a7.509,7.509,0,0,0-7.49,7.511v46.656a7.509,7.509,0,0,0,7.49,7.511h22.64l-1.3,10.116h-9.69V443h43.91V437.99h-9.86l-1.3-10.116h22.82a7.507,7.507,0,0,0,7.48-7.511V400.685a31.1,31.1,0,0,0,12.45-14.882h22.22V380.8h-9.25l-1.31-10.118h16.22a7.509,7.509,0,0,0,7.49-7.511V316.512A7.509,7.509,0,0,0,1189.51,309ZM1115.15,437.99h-14.3l1.31-10.116h11.68Zm29.04-17.627a2.5,2.5,0,0,1-2.49,2.5h-67.22a2.5,2.5,0,0,1-2.5-2.5V373.707a2.5,2.5,0,0,1,2.5-2.5h27.64q-0.15,1.519-.15,3.08a30.918,30.918,0,0,0,42.22,28.905v17.174Zm25.38-39.567h-6.41a31.735,31.735,0,0,0,.68-6.512,30.672,30.672,0,0,0-.21-3.606h4.63Zm22.44-17.629a2.5,2.5,0,0,1-2.5,2.5h-26.88a30.9,30.9,0,0,0-42.83-19.512V316.512a2.5,2.5,0,0,1,2.5-2.5h67.21a2.5,2.5,0,0,1,2.5,2.5v46.655Z" transform="translate(-1052 -296)"/>
      <path id="Shape_51_copy" data-name="Shape 51 copy" class="cls-2" d="M1147.02,373.483a2.258,2.258,0,0,1-1.62-.675,17.634,17.634,0,0,0-24.99,0,2.3,2.3,0,1,1-3.24-3.256,22.194,22.194,0,0,1,31.47,0,2.3,2.3,0,0,1,0,3.256A2.275,2.275,0,0,1,1147.02,373.483Zm-5.7,5.666a2.3,2.3,0,0,1-1.63-.675,9.658,9.658,0,0,0-13.69,0,2.3,2.3,0,0,1-3.24-3.257,14.143,14.143,0,0,1,10.09-4.194h0a14.165,14.165,0,0,1,10.09,4.195A2.3,2.3,0,0,1,1141.32,379.149Zm-13.24,6.408a2.275,2.275,0,0,1-1.62-.675,2.3,2.3,0,0,1,0-3.257,9.012,9.012,0,0,1,12.78,0,2.3,2.3,0,1,1-3.25,3.257,4.437,4.437,0,0,0-6.29,0A2.258,2.258,0,0,1,1128.08,385.557Z" transform="translate(-1052 -296)"/>
    </g>
  </g>
</svg>
