<svg xmlns="http://www.w3.org/2000/svg" width="16" height="16" viewBox="0 0 16 16">
    <g fill="none" fill-rule="evenodd">
        <g>
            <g>
                <g>
                    <path d="M0 0H16V16H0z" transform="translate(-632 -232) translate(613 157) translate(19 75)"/>
                    <g transform="translate(-632 -232) translate(613 157) translate(19 75) translate(.333 .333)">
                        <circle cx="7.667" cy="7.667" r="7" fill="#616161"/>
                        <path fill="#F4F4F4" fill-rule="nonzero" d="M8.455 9.09V4.728c0-.401-.326-.727-.728-.727C7.326 4 7 4.326 7 4.727v4.364c0 .402.326.727.727.727.402 0 .728-.325.728-.727zM7.723 12c.414 0 .732-.318.732-.727 0-.41-.318-.728-.732-.728-.413 0-.723.319-.723.728s.31.727.723.727z" transform="rotate(-180 7.727 8)"/>
                    </g>
                </g>
            </g>
        </g>
    </g>
</svg>
