<?xml version="1.0" encoding="UTF-8"?>
<svg width="80px" height="80px" viewBox="0 0 80 80" version="1.1" xmlns="http://www.w3.org/2000/svg" xmlns:xlink="http://www.w3.org/1999/xlink">
    <title>icon-03-80</title>
    <g id="Page-1" stroke="none" stroke-width="1" fill="none" fill-rule="evenodd">
        <g id="ic_USP_mailcounsel_80">
            <rect id="Rectangle" x="0" y="0" width="80" height="80"></rect>
            <g id="Group-19" transform="translate(13.000000, 14.000000)">
                <g id="Group-18" stroke="#767676" stroke-width="3">
                    <polyline id="Path-3" points="0 19 28 6.68885158 54 19"></polyline>
                    <path d="M44,1.5 L10.5,2 L10.5,26.2839295 L27.5,36.2607635 L44.5,26.2839295 L44,1.5 Z" id="Rectangle" fill="#FFFFFF"></path>
                    <path d="M0,19 L28,35.5 L54,19 L54,50 C54,51.1045695 53.1045695,52 52,52 L2,52 C0.8954305,52 1.3527075e-16,51.1045695 0,50 L0,19 L0,19 Z" id="Rectangle" fill="#FFFFFF" stroke-linecap="round" stroke-linejoin="round"></path>
                </g>
                <rect id="Rectangle" fill="#EC455A" x="16" y="8" width="23" height="3" rx="1.5"></rect>
                <rect id="Rectangle" fill="#EC455A" x="16" y="14" width="23" height="3" rx="1.5"></rect>
                <rect id="Rectangle" fill="#EC455A" x="16" y="20" width="15" height="3" rx="1.5"></rect>
            </g>
        </g>
    </g>
</svg>