<svg id="img_CS_location_MO_160" xmlns="http://www.w3.org/2000/svg" width="160" height="160" viewBox="0 0 160 160">
  <g id="img_CS_location_MO_160-2" data-name="img_CS_location_MO_160">
    <rect id="Rectangle" width="160" height="160" fill="none"/>
    <g id="ic" transform="translate(26 26)">
      <g id="Group_18" data-name="Group 18">
        <path id="Path_3" data-name="Path 3" d="M0,9,20.477,0V21L56,42,89.719,21V.347L108,9" transform="translate(0 30.996)" fill="none" stroke="#fff" stroke-miterlimit="10" stroke-width="5"/>
        <g id="Rectangle-2" data-name="Rectangle" transform="translate(18 0.876)" fill="#fff" stroke-miterlimit="10">
          <path d="M 37.96464157104492 72.06627655029297 L 2.5 50.86749267578125 L 2.5 4 C 2.5 3.17289400100708 3.17289400100708 2.5 4 2.5 L 70 2.5 C 70.82710266113281 2.5 71.5 3.17289400100708 71.5 4 L 71.5 50.90706634521484 L 37.96464157104492 72.06627655029297 Z" stroke="none"/>
          <path d="M 5 5 L 5 49.44927978515625 L 37.92928314208984 69.132568359375 L 69 49.52842712402344 L 69 5 L 5 5 M 4 0 L 70 0 C 72.20912933349609 0 74 1.790870666503906 74 4 L 74 52.28571701049805 L 38 75 L 0 52.28571701049805 L 0 4 C 0 1.790870666503906 1.790870666503906 0 4 0 Z" stroke="none" fill="#fff"/>
        </g>
        <path id="Rectangle-3" data-name="Rectangle" d="M0,0,56,33,108,0V62a4,4,0,0,1-4,4H4a4,4,0,0,1-4-4Z" transform="translate(0 40)" fill="none" stroke="#fff" stroke-linecap="round" stroke-linejoin="round" stroke-miterlimit="10" stroke-width="5"/>
      </g>
      <rect id="Rectangle-4" data-name="Rectangle" width="46" height="5" rx="2.5" transform="translate(32 18)" fill="#df0f47"/>
      <rect id="Rectangle-5" data-name="Rectangle" width="46" height="5" rx="2.5" transform="translate(32 30)" fill="#df0f47"/>
      <rect id="Rectangle-6" data-name="Rectangle" width="30" height="5" rx="2.5" transform="translate(32 42)" fill="#df0f47"/>
    </g>
  </g>
</svg>
