<?xml version="1.0" encoding="UTF-8"?>
<svg width="80px" height="80px" viewBox="0 0 80 80" version="1.1" xmlns="http://www.w3.org/2000/svg" xmlns:xlink="http://www.w3.org/1999/xlink">
    <title>icon-11-80</title>
    <g id="Page-1" stroke="none" stroke-width="1" fill="none" fill-rule="evenodd">
        <g id="ic_care_logininfo_80">
            <rect id="Rectangle" x="0" y="0" width="80" height="80"></rect>
            <rect id="Rectangle" x="4" y="4" width="72" height="72"></rect>
            <g id="Group-3" transform="translate(10.000000, 8.000000)">
                <g id="Group-43" transform="translate(15.500000, 36.000000) scale(-1, 1) translate(-15.500000, -36.000000) translate(0.000000, 10.000000)" fill="#767676" fill-rule="nonzero">
                    <g id="Group-46">
                        <g id="Group">
                            <path d="M28,0 C29.6568542,0 31,1.34314575 31,3 L31,46 C31,47.6568542 29.6568542,49 28,49 L3,49 C1.34314575,49 0,47.6568542 0,46 L0,3 C0,1.34314575 1.34314575,0 3,0 L28,0 Z M28,2 L3,2 C2.48716416,2 2.06449284,2.38604019 2.00672773,2.88337887 L2,3 L2,46 C2,46.5128358 2.38604019,46.9355072 2.88337887,46.9932723 L3,47 L28,47 C28.5128358,47 28.9355072,46.6139598 28.9932723,46.1166211 L29,46 L29,3 C29,2.48716416 28.6139598,2.06449284 28.1166211,2.00672773 L28,2 Z" id="Rectangle"></path>
                            <path d="M7,47 L7,50 C7,51.1045695 6.1045695,52 5,52 L3,52 C1.8954305,52 1,51.1045695 1,50 L1,47 L7,47 Z M5,49 L3,49 L3,50 L5,50 L5,49 Z" id="Rectangle"></path>
                            <path d="M30,47 L30,50 C30,51.1045695 29.1045695,52 28,52 L26,52 C24.8954305,52 24,51.1045695 24,50 L24,47 L30,47 Z M28,49 L26,49 L26,50 L28,50 L28,49 Z" id="Rectangle"></path>
                            <path d="M27.5,14 C28.0522847,14 28.5,14.4477153 28.5,15 C28.5,15.5522847 28.0522847,16 27.5,16 L24.5,16 C23.9477153,16 23.5,15.5522847 23.5,15 C23.5,14.4477153 23.9477153,14 24.5,14 L27.5,14 Z" id="Rectangle" transform="translate(26.000000, 15.000000) rotate(-270.000000) translate(-26.000000, -15.000000) "></path>
                            <path d="M27.5,24.5 C28.0522847,24.5 28.5,24.9477153 28.5,25.5 C28.5,26.0522847 28.0522847,26.5 27.5,26.5 L24.5,26.5 C23.9477153,26.5 23.5,26.0522847 23.5,25.5 C23.5,24.9477153 23.9477153,24.5 24.5,24.5 L27.5,24.5 Z" id="Rectangle" transform="translate(26.000000, 25.500000) rotate(-270.000000) translate(-26.000000, -25.500000) "></path>
                            <path d="M30,18.8461538 C30.5522847,18.8461538 31,19.2938691 31,19.8461538 C31,20.3984386 30.5522847,20.8461538 30,20.8461538 L1,20.8461538 C0.44771525,20.8461538 0,20.3984386 0,19.8461538 C0,19.2938691 0.44771525,18.8461538 1,18.8461538 L30,18.8461538 Z" id="Rectangle" transform="translate(15.500000, 19.846154) rotate(-180.000000) translate(-15.500000, -19.846154) "></path>
                        </g>
                    </g>
                </g>
                <g id="Group-43" transform="translate(23.000000, 19.000000)">
                    <g id="Group-69">
                        <rect id="Rectangle" fill="#FFFFFF" x="1" y="2" width="31" height="36"></rect>
                        <path d="M30,0 C31.6568542,0 33,1.34314575 33,3 L33,37 C33,38.6568542 31.6568542,40 30,40 L3,40 C1.34314575,40 0,38.6568542 0,37 L0,3 C0,1.34314575 1.34314575,0 3,0 L30,0 Z M30,2 L3,2 C2.48716416,2 2.06449284,2.38604019 2.00672773,2.88337887 L2,3 L2,37 C2,37.5128358 2.38604019,37.9355072 2.88337887,37.9932723 L3,38 L30,38 C30.5128358,38 30.9355072,37.6139598 30.9932723,37.1166211 L31,37 L31,3 C31,2.48716416 30.6139598,2.06449284 30.1166211,2.00672773 L30,2 Z" id="Rectangle" fill="#767676" fill-rule="nonzero"></path>
                        <path d="M28,5 C28.5522847,5 29,5.44771525 29,6 C29,6.55228475 28.5522847,7 28,7 L23,7 C22.4477153,7 22,6.55228475 22,6 C22,5.44771525 22.4477153,5 23,5 L28,5 Z" id="Rectangle" fill="#767676" fill-rule="nonzero"></path>
                        <path d="M17.5,9 C23.2989899,9 28,13.7010101 28,19.5 L28,20.5 C28,26.2989899 23.2989899,31 17.5,31 L16.5,31 C10.7010101,31 6,26.2989899 6,20.5 L6,19.5 C6,13.7010101 10.7010101,9 16.5,9 L17.5,9 Z M17.5,11 L16.5,11 C11.8909327,11 8.13867855,14.668453 8.0037566,19.2448397 L8,19.5 L8,20.5 C8,25.1090673 11.668453,28.8613215 16.2448397,28.9962434 L16.5,29 L17.5,29 C22.1090673,29 25.8613215,25.331547 25.9962434,20.7551603 L26,20.5 L26,19.5 C26,14.8909327 22.331547,11.1386785 17.7551603,11.0037566 L17.5,11 Z" id="Rectangle" fill="#767676" fill-rule="nonzero"></path>
                        <path d="M22.2,22.4 C22.5313708,21.9581722 23.1581722,21.8686292 23.6,22.2 C24.0418278,22.5313708 24.1313708,23.1581722 23.8,23.6 C22.1111456,25.8518058 19.8147573,27 17,27 C14.1852427,27 11.8888544,25.8518058 10.2,23.6 C9.86862915,23.1581722 9.9581722,22.5313708 10.4,22.2 C10.8418278,21.8686292 11.4686292,21.9581722 11.8,22.4 C13.1111456,24.1481942 14.8147573,25 17,25 C19.1852427,25 20.8888544,24.1481942 22.2,22.4 Z" id="Path-15" fill="#767676" fill-rule="nonzero"></path>
                        <path d="M8,38 L8,41 C8,42.1045695 7.1045695,43 6,43 L4,43 C2.8954305,43 2,42.1045695 2,41 L2,38 L8,38 Z M6,40 L4,40 L4,41 L6,41 L6,40 Z" id="Rectangle" fill="#767676" fill-rule="nonzero"></path>
                        <path d="M31,38 L31,41 C31,42.1045695 30.1045695,43 29,43 L27,43 C25.8954305,43 25,42.1045695 25,41 L25,38 L31,38 Z M29,40 L27,40 L27,41 L29,41 L29,40 Z" id="Rectangle" fill="#767676" fill-rule="nonzero"></path>
                    </g>
                </g>
                <g id="Group-2" transform="translate(36.000000, 0.000000)" stroke="#EC455A" stroke-width="1.73333333">
                    <circle id="Oval" fill="#FFFFFF" cx="13" cy="13" r="13"></circle>
                    <polyline id="Path-2" stroke-linecap="round" stroke-linejoin="round" points="6.93333333 13.5254166 10.7959553 18.2 19.0666667 8.66666667"></polyline>
                </g>
            </g>
        </g>
    </g>
</svg>