<svg xmlns="http://www.w3.org/2000/svg" width="160" height="160" viewBox="0 0 160 160">
    <g fill="none" fill-rule="evenodd">
        <g>
            <g>
                <g>
                    <path d="M0 0H160V160H0z" transform="translate(-554 -4900) translate(80 4564) translate(474 336)"/>
                    <g transform="translate(-554 -4900) translate(80 4564) translate(474 336) translate(26 26)">
                        <g stroke="#000" stroke-width="5">
                            <path d="M0 40l20.477-9.004v21.002L56 73l33.719-21.002V31.344L108 40"/>
                            <path d="M88 3.376H22c-.414 0-.79.168-1.06.44-.272.27-.44.646-.44 1.06v46.867l35.465 21.2L89.5 51.782V4.876c0-.414-.168-.79-.44-1.06-.27-.272-.646-.44-1.06-.44z"/>
                            <path stroke-linecap="round" stroke-linejoin="round" d="M0 40l56 33 52-33v62c0 2.21-1.79 4-4 4H4c-2.21 0-4-1.79-4-4V40h0z"/>
                        </g>
                        <rect width="46" height="5" x="32" y="18" fill="#DA0F47" rx="2.5"/>
                        <rect width="46" height="5" x="32" y="30" fill="#DA0F47" rx="2.5"/>
                        <rect width="30" height="5" x="32" y="42" fill="#DA0F47" rx="2.5"/>
                    </g>
                </g>
            </g>
        </g>
    </g>
</svg>
