<svg xmlns="http://www.w3.org/2000/svg" width="48" height="48" viewBox="0 0 48 48">
    <g fill="none" fill-rule="evenodd">
        <g>
            <g>
                <g>
                    <g>
                        <g>
                            <g>
                                <g transform="translate(-310 -2122) translate(0 1976) translate(246 32) translate(24 66) translate(40 48)">
                                    <circle cx="24" cy="24" r="24" fill="#FFF"/>
                                    <g fill="#AE7CD2" fill-rule="nonzero">
                                        <g>
                                            <path d="M16 0c1.767 0 3.2 1.433 3.2 3.2v22.4c0 1.767-1.433 3.2-3.2 3.2H3.2c-1.767 0-3.2-1.433-3.2-3.2V3.2C0 1.433 1.433 0 3.2 0zm1.6 22.399H1.599L1.6 25.6c0 .835.639 1.52 1.454 1.593l.146.007H16c.884 0 1.6-.716 1.6-1.6v-3.201zM10.4 24c.442 0 .8.358.8.8 0 .41-.309.748-.707.795l-.093.005H8.8c-.442 0-.8-.358-.8-.8 0-.41.309-.748.707-.795L8.8 24h1.6zM16 1.6H3.2c-.884 0-1.6.716-1.6 1.6l-.001 17.599H17.6V3.2c0-.835-.639-1.52-1.454-1.593L16 1.6z" transform="translate(8 8) translate(6.4 1.6)"/>
                                        </g>
                                    </g>
                                </g>
                            </g>
                        </g>
                    </g>
                </g>
            </g>
        </g>
    </g>
</svg>
