<?xml version="1.0" encoding="UTF-8"?>
<svg width="64px" height="64px" viewBox="0 0 64 64" version="1.1" xmlns="http://www.w3.org/2000/svg" xmlns:xlink="http://www.w3.org/1999/xlink">
    <title>icon-img02-64</title>
    <g id="Page-1" stroke="none" stroke-width="1" fill="none" fill-rule="evenodd">
        <g id="icon">
            <rect id="Mask-Copy-8" x="0" y="0" width="64" height="64"></rect>
            <g id="Group-6" transform="translate(5.000000, 6.000000)" stroke-width="2">
                <polygon id="Path-44" stroke="#222222" fill="#FFFFFF" stroke-linejoin="round" points="0 21.4523658 15.9054457 10 32 21.4523658 32 52 0 52"></polygon>
                <polygon id="Path-44" stroke="#222222" fill="#FFFFFF" stroke-linejoin="round" points="32.5 30.9075859 43.4349939 23 54.5 30.9075859 54.5 52 32.5 52"></polygon>
                <path d="M43.4202198,1 C40.9398725,1 38.6919454,2.02250458 37.0635798,3.6712247 C35.4307418,5.32447318 34.4202198,7.60735052 34.4202198,10.125 C34.4202198,16.5251447 42.2880805,24.7680892 43.420085,25.927088 C44.5513459,24.7691507 52.4202198,16.5255568 52.4202198,10.125 C52.4202198,7.60735052 51.4096978,5.32447318 49.7768598,3.6712247 C48.1484942,2.02250458 45.9005671,1 43.4202198,1 Z" id="Path" stroke="#EC455A" fill="#FFFFFF"></path>
                <rect id="Rectangle" stroke="#222222" fill="#F4F4F4" x="6" y="26" width="20" height="6" rx="2"></rect>
                <rect id="Rectangle" stroke="#222222" fill="#F4F4F4" x="6" y="38" width="20" height="6" rx="2"></rect>
                <rect id="Rectangle" stroke="#EC455A" fill="#FFFFFF" x="39.4202198" y="5" width="8" height="8" rx="4"></rect>
            </g>
        </g>
    </g>
</svg>