<svg xmlns="http://www.w3.org/2000/svg" width="20" height="20" viewBox="0 0 20 20">
    <g fill="none" fill-rule="evenodd">
        <g>
            <g>
                <g>
                    <g transform="translate(-1328 -1096) translate(1206 624) translate(24 457) translate(98 15)">
                        <path d="M0 0H20V20H0z" opacity=".204"/>
                        <rect width="14.5" height="14.5" x="2.75" y="2.75" stroke="#FFF" stroke-width="1.5" rx="7.25"/>
                        <g fill="#FFF" fill-rule="nonzero">
                            <path d="M2.745 7.15c.485 0 .878.394.878.879s-.393.878-.878.878-.878-.393-.878-.878.393-.879.878-.879zM2.667 0c1.47 0 2.666 1.184 2.666 2.64 0 1.244-.874 2.29-2.046 2.567v.846c0 .339-.278.614-.62.614-.343 0-.62-.275-.62-.614V4.666c0-.34.277-.614.62-.614.786 0 1.427-.634 1.427-1.412 0-.78-.64-1.413-1.427-1.413S1.24 1.861 1.24 2.64c0 .339-.278.613-.62.613-.342 0-.62-.274-.62-.613C0 1.184 1.196 0 2.667 0z" transform="translate(7.333 5.333)"/>
                        </g>
                    </g>
                </g>
            </g>
        </g>
    </g>
</svg>
