<svg xmlns="http://www.w3.org/2000/svg" width="64" height="64" viewBox="0 0 64 64">
    <g fill="none" fill-rule="evenodd">
        <g>
            <path d="M0 0H64V64H0z"/>
            <g stroke-width="2">
                <path stroke="#000" d="M28.317 1.4H2.12c-.254 0-.484.103-.65.27-.167.166-.27.396-.27.65v43.36c0 .254.103.484.27.65.166.167.396.27.65.27h35.36c.254 0 .484-.103.65-.27.167-.166.27-.396.27-.65l-.082-34.434-10-9.846z" transform="translate(12 8)"/>
                <path stroke="#000" d="M35.4 12.4h-6.88c-1.06 0-1.92-.86-1.92-1.92V1.2h0" transform="translate(12 8)"/>
                <g stroke="#DA0F47" stroke-linecap="round">
                    <path stroke-linejoin="round" d="M0.944 6.876L6.48 11.219 12.278 6.876" transform="translate(12 8) translate(13 19.6)"/>
                    <path d="M0 14.838L13.6 14.838" transform="translate(12 8) translate(13 19.6)"/>
                    <path stroke-linejoin="round" d="M6.517 0L6.517 9.952" transform="translate(12 8) translate(13 19.6)"/>
                </g>
            </g>
        </g>
    </g>
</svg>
