<svg width="24" height="24" viewBox="0 0 24 24" xmlns="http://www.w3.org/2000/svg">
    <g fill="none" fill-rule="evenodd">
        <path opacity=".795" d="M0 0h24v24H0z"/>
        <g transform="translate(3.25 3.25)">
            <path d="m10.95.33.601 16.25-10.625.59L.324.92 10.949.33z" stroke="#000" stroke-width=".625" fill="#FFF"/>
            <rect stroke="#000" stroke-width=".625" x="2.813" y="2.813" width="2.321" height="2.431" rx=".313"/>
            <rect stroke="#000" stroke-width=".625" x="2.813" y="6.632" width="2.321" height="2.431" rx=".313"/>
            <rect stroke="#000" stroke-width=".625" x="6.741" y="2.813" width="2.321" height="2.431" rx=".313"/>
            <rect stroke="#000" stroke-width=".625" x="6.741" y="6.632" width="2.321" height="2.431" rx=".313"/>
            <circle stroke="#000" stroke-width=".625" fill="#FFF" cx="11.094" cy="11.406" r="4.063"/>
            <path stroke="#000" stroke-width=".625" stroke-linecap="round" d="m14.204 14.159 2.671 2.716"/>
            <path d="M10.987 12.281c.085 0 .16-.024.225-.072a.234.234 0 0 0 .097-.2c0-.058.004-.11.011-.157a.417.417 0 0 1 .05-.138.859.859 0 0 1 .112-.15c.048-.053.113-.117.194-.191a6.11 6.11 0 0 0 .326-.316c.087-.092.155-.179.205-.26a.877.877 0 0 0 .137-.493v-.06a.92.92 0 0 0-.345-.74 1.206 1.206 0 0 0-.406-.21c-.16-.05-.34-.075-.54-.075a1.701 1.701 0 0 0-1.096.354.258.258 0 0 0-.113.208.342.342 0 0 0 .075.224.32.32 0 0 0 .186.13.27.27 0 0 0 .22-.052c.1-.07.206-.128.317-.172.111-.044.24-.066.39-.066.11 0 .204.012.28.036a.506.506 0 0 1 .184.096.387.387 0 0 1 .136.305v.028a.486.486 0 0 1-.089.305c-.037.055-.09.117-.159.185-.068.068-.16.152-.275.252-.1.088-.18.169-.242.24a.862.862 0 0 0-.203.44 1.844 1.844 0 0 0-.017.261c0 .1.034.173.1.219a.41.41 0 0 0 .24.07zm.107 1.313a.393.393 0 0 0 .296-.127.434.434 0 0 0 .12-.31.434.434 0 0 0-.12-.312.393.393 0 0 0-.296-.126.393.393 0 0 0-.296.126.434.434 0 0 0-.12.311c0 .123.04.227.12.311.08.085.179.127.296.127z" fill="#000" fill-rule="nonzero"/>
        </g>
    </g>
</svg>
