<?xml version="1.0" encoding="UTF-8"?>
<svg width="80px" height="80px" viewBox="0 0 80 80" version="1.1" xmlns="http://www.w3.org/2000/svg" xmlns:xlink="http://www.w3.org/1999/xlink">
    <title>btn_sns_kakaotalk_80</title>
    <g id="Page-1" stroke="none" stroke-width="1" fill="none" fill-rule="evenodd">
        <g id="[MO]-CS_매장찾기상세_팝업_full_v0.8_200909" transform="translate(-268.000000, -5137.000000)">
            <g id="02-contents" transform="translate(39.000000, 198.000000)">
                <g id="02-10-share" transform="translate(125.000000, 4939.000000)">
                    <g id="btn_sns_kakaotalk_80" transform="translate(104.000000, 0.000000)">
                        <rect id="Rectangle" x="0" y="0" width="80" height="80"></rect>
                        <g id="ic" stroke-width="1" fill-rule="evenodd">
                            <circle id="Oval" fill="#F4F4F4" cx="40" cy="40" r="40"></circle>
                            <path d="M40,20 C52.426598,20 62.5,27.7051614 62.5,37.2100685 C62.5,46.7149756 52.426598,54.4207987 40,54.4207987 C38.5727637,54.4207987 37.1763016,54.3182396 35.8242911,54.1237083 C33.3302179,55.7646529 27.5515182,59.5652924 27.1644479,59.8154042 C26.6713778,60.133668 25.9177533,60.1495481 26.2227592,58.9658183 C26.4703201,58.0116884 27.7033373,53.5533477 28.1738397,51.8535143 C21.7680314,48.8197518 17.5,43.3966944 17.5,37.2100685 C17.5,27.7051614 27.5727182,20 40,20 Z M49.5301359,32.0967395 C48.9119176,32.0967395 48.2786541,32.3442045 48.2916477,32.8206078 C48.3143863,33.6428004 48.2686166,40.7441124 48.2639828,41.9502778 L48.263609,42.0899599 C48.2642666,42.968583 50.4899036,43.0005409 50.6604975,42.1893631 L50.6708307,42.0879749 L50.6708307,39.0105421 L51.377952,38.461355 L54.4697274,42.5418814 C55.0745888,43.3149201 56.9386536,41.9866203 56.4869186,41.1779695 L56.435853,41.1014231 L53.153278,36.9189993 C53.153278,36.9189993 55.2296791,34.7446895 56.163843,33.8348081 L56.2594146,33.7423158 C56.7533396,33.2669759 55.2957051,31.8127686 54.7310706,32.1520895 L54.6721528,32.1973135 C54.1911786,32.6588292 50.9017062,35.8451302 50.6965839,36.0438233 L50.6865597,36.0535334 C50.6865597,36.0535334 50.7154508,34.1047014 50.6883654,32.9086086 L50.6845081,32.7570873 C50.6737127,32.3435901 50.1864694,32.1286347 49.6536957,32.1000365 L49.5301359,32.0967395 Z M35.332999,32.0993861 C34.7811161,32.0993861 34.2435944,32.2945792 34.0165496,32.7815692 C33.4566588,33.9712967 31.4877543,39.4466708 30.7340724,41.1959416 L30.6628522,41.3581516 C30.1787553,42.4373574 32.1922689,43.3224438 32.7711939,42.360304 L32.8211453,42.2646411 L33.2889122,40.6766302 L37.5801951,40.6772919 C37.5801951,40.6772919 37.4450449,40.737225 37.9324346,42.0152199 L38.0028267,42.1971507 C38.4497874,43.3392353 40.5577491,42.6054547 40.2641878,41.4860183 L40.2295067,41.3799867 C39.5910849,39.7460747 37.4212482,33.9823707 36.9172435,32.8676396 L36.877177,32.7815692 C36.6997917,32.4144943 36.1005275,32.1438277 35.4865612,32.1043588 L35.332999,32.0993861 Z M42.41789,32.0921078 C41.7818911,32.0921078 41.1452084,32.4394852 41.1479438,33.1335783 C41.1506638,34.7036188 41.15598,39.0477741 41.158041,40.7592398 L41.1588857,41.4653423 C41.1588857,41.4653423 40.9889263,42.6128392 41.9398014,42.7221247 L42.0910003,42.7304577 C43.1298962,42.7304577 45.3487082,42.7213293 46.542475,42.7200253 L46.7987599,42.7198709 C47.860987,42.7198709 47.8939872,40.6159525 46.9105846,40.4601067 L46.7926051,40.4510003 C45.7866921,40.4510003 44.0225368,40.4416231 43.7233334,40.4399923 L43.6796298,40.4397519 L43.6799076,40.2652687 C43.6814128,39.3081228 43.6884354,34.6859068 43.6860224,33.2462209 L43.6857846,33.1276232 C43.6838698,32.4828908 43.1326951,32.1396099 42.544347,32.0967046 L42.41789,32.0921078 Z M31.0902708,31.7275269 L23.9588766,31.7275269 C22.6294566,31.7275269 22.5883377,33.9063985 23.8281074,34.0516566 L23.9609282,34.0592563 L26.3066016,34.0592563 L26.3069912,34.2291088 C26.3092088,35.2171018 26.3197851,40.2309164 26.3095546,41.7079111 L26.3086532,41.8226448 C26.311291,42.844785 28.5770764,42.9317408 28.7352357,41.987994 L28.7439136,41.8788868 L28.7541716,34.2822395 C28.7541716,34.2822395 29.4612437,34.1325882 30.850966,34.1179606 L31.0889031,34.1168217 C32.497652,34.1181009 32.5465275,31.8842437 31.2312052,31.7353185 L31.0902708,31.7275269 Z M35.4772955,34.6349103 L36.782803,38.5890575 L34.0630528,38.5890575 L35.4772955,34.6349103 Z" id="Combined-Shape" fill="#616161"></path>
                        </g>
                    </g>
                </g>
            </g>
        </g>
    </g>
</svg>