<?xml version="1.0" encoding="UTF-8"?>
<svg width="64px" height="64px" viewBox="0 0 64 64" version="1.1" xmlns="http://www.w3.org/2000/svg" xmlns:xlink="http://www.w3.org/1999/xlink">
    <title>btn_sns_linkcopy_48</title>
    <g id="디자인" stroke="none" stroke-width="1" fill="none" fill-rule="evenodd">
        <g id="M/MKT4002_이벤트상세" transform="translate(-472.000000, -910.000000)">
            <g id="01-top" transform="translate(0.000000, 168.000000)">
                <g id="icon_share" transform="translate(184.000000, 742.000000)">
                    <g id="btn_sns_linkcopy_48" transform="translate(288.000000, 0.000000)">
                        <rect id="Rectangle" x="0" y="0" width="64" height="64"></rect>
                        <g id="ic" fill="#222222" fill-rule="nonzero">
                            <path d="M19,42 C23.6666667,42 26,39.3166227 26,33 L26,24 L22,24 L22,34 C21.9866667,37.1556728 20.9366667,38.3430079 19,38 C17.1333333,38.3430079 16.1533333,37.1556728 16,34 L16,24 L12,24 L12,33 C12,39.3166227 14.4033333,42 19,42 Z M33,42 L33,36 L35,36 L38,42 L43,42 L39,35 C40.9302326,33.9919355 42.1162791,32.2983871 42,30 C42.1162791,25.3064516 39.0465116,24 35,24 L29,24 L29,42 L33,42 Z M35,32 L33,32 L33,27 L35,27 C36.9285714,27 38,27.575 38,29 C38,31.075 36.9285714,32 35,32 Z M56,42 L56,38 L49,38 L49,24 L45,24 L45,42 L56,42 Z" id="URL"></path>
                        </g>
                    </g>
                </g>
            </g>
        </g>
    </g>
</svg>