<?xml version="1.0" encoding="UTF-8"?>
<svg width="60px" height="60px" viewBox="0 0 60 60" version="1.1" xmlns="http://www.w3.org/2000/svg" xmlns:xlink="http://www.w3.org/1999/xlink">
    <title>icon-product04-60</title>
    <g id="Page-1" stroke="none" stroke-width="1" fill="none" fill-rule="evenodd">
        <g id="Group-9">
            <g id="Group-66">
                <rect id="Rectangle" x="0" y="0" width="60" height="60"></rect>
                <g id="Group-43" transform="translate(15.000000, 4.000000)" stroke="#767676">
                    <g id="Group-46">
                        <g id="Group">
                            <rect id="Rectangle" stroke-width="2" fill="#FFFFFF" x="1" y="1" width="29" height="47"></rect>
                            <path d="M6,48 L2,48 L2,50 C2,50.2761424 2.11192881,50.5261424 2.29289322,50.7071068 C2.47385763,50.8880712 2.72385763,51 3,51 L5,51 C5.27614237,51 5.52614237,50.8880712 5.70710678,50.7071068 C5.88807119,50.5261424 6,50.2761424 6,50 L6,48 Z" id="Rectangle" stroke-width="2" fill="#FFFFFF"></path>
                            <path d="M29,48 L25,48 L25,50 C25,50.2761424 25.1119288,50.5261424 25.2928932,50.7071068 C25.4738576,50.8880712 25.7238576,51 26,51 L28,51 C28.2761424,51 28.5261424,50.8880712 28.7071068,50.7071068 C28.8880712,50.5261424 29,50.2761424 29,50 L29,48 Z" id="Rectangle" stroke-width="2" fill="#FFFFFF"></path>
                            <path d="" id="Rectangle" fill="#979797" transform="translate(26.000000, 15.000000) rotate(-270.000000) translate(-26.000000, -15.000000) "></path>
                            <path d="" id="Rectangle" fill="#979797" transform="translate(26.000000, 25.500000) rotate(-270.000000) translate(-26.000000, -25.500000) "></path>
                            <path d="" id="Rectangle" fill="#979797" transform="translate(15.500000, 19.846154) rotate(-180.000000) translate(-15.500000, -19.846154) "></path>
                        </g>
                    </g>
                </g>
            </g>
            <g id="Group-43" transform="translate(15.000000, 4.000000)" stroke="#767676">
                <g id="Group-46">
                    <g id="Group">
                        <rect id="Rectangle" stroke-width="2" fill="#FFFFFF" x="1" y="1" width="29" height="47"></rect>
                        <path d="M6,48 L2,48 L2,50 C2,50.2761424 2.11192881,50.5261424 2.29289322,50.7071068 C2.47385763,50.8880712 2.72385763,51 3,51 L5,51 C5.27614237,51 5.52614237,50.8880712 5.70710678,50.7071068 C5.88807119,50.5261424 6,50.2761424 6,50 L6,48 Z" id="Rectangle" stroke-width="2" fill="#FFFFFF"></path>
                        <path d="M29,48 L25,48 L25,50 C25,50.2761424 25.1119288,50.5261424 25.2928932,50.7071068 C25.4738576,50.8880712 25.7238576,51 26,51 L28,51 C28.2761424,51 28.5261424,50.8880712 28.7071068,50.7071068 C28.8880712,50.5261424 29,50.2761424 29,50 L29,48 Z" id="Rectangle" stroke-width="2" fill="#FFFFFF"></path>
                        <path d="" id="Rectangle" fill="#979797" transform="translate(26.000000, 15.000000) rotate(-270.000000) translate(-26.000000, -15.000000) "></path>
                        <path d="" id="Rectangle" fill="#979797" transform="translate(26.000000, 25.500000) rotate(-270.000000) translate(-26.000000, -25.500000) "></path>
                        <path d="" id="Rectangle" fill="#979797" transform="translate(15.500000, 19.846154) rotate(-180.000000) translate(-15.500000, -19.846154) "></path>
                    </g>
                </g>
            </g>
        </g>
    </g>
</svg>