<?xml version="1.0" encoding="UTF-8"?>
<svg width="24px" height="24px" viewBox="0 0 24 24" version="1.1" xmlns="http://www.w3.org/2000/svg" xmlns:xlink="http://www.w3.org/1999/xlink">
    <title>icon-sns2</title>
    <g id="Page-1" stroke="none" stroke-width="1" fill="none" fill-rule="evenodd">
        <g id="Group-5" transform="translate(-32.000000, 0.000000)">
            <g id="m_f_sns_youtube" transform="translate(32.000000, 0.000000)">
                <rect id="Rectangle-9-Copy-2" fill-opacity="0" fill="#F5F5F5" x="0" y="0" width="24" height="24"></rect>
                <path d="M10.348,14.5285022 L10.3475,10.1342693 L14.6705,12.3389612 L10.348,14.5285022 Z M19.84,9.37281735 C19.84,9.37281735 19.6835,8.29515262 19.204,7.82058915 C18.5955,7.19744968 17.9135,7.19451726 17.601,7.15835074 C15.362,7 12.0035,7 12.0035,7 L11.9965,7 C11.9965,7 8.638,7 6.399,7.15835074 C6.086,7.19451726 5.4045,7.19744968 4.7955,7.82058915 C4.316,8.29515262 4.16,9.37281735 4.16,9.37281735 C4.16,9.37281735 4,10.6386458 4,11.9039854 L4,13.0906385 C4,14.3564669 4.16,15.6218065 4.16,15.6218065 C4.16,15.6218065 4.316,16.6994713 4.7955,17.1740347 C5.4045,17.7971742 6.204,17.7776247 6.56,17.8426267 C7.84,17.962856 12,18 12,18 C12,18 15.362,17.9951126 17.601,17.8367619 C17.9135,17.8001066 18.5955,17.7971742 19.204,17.1740347 C19.6835,16.6994713 19.84,15.6218065 19.84,15.6218065 C19.84,15.6218065 20,14.3564669 20,13.0906385 L20,11.9039854 C20,10.6386458 19.84,9.37281735 19.84,9.37281735 L19.84,9.37281735 Z" id="Youtube" fill="#787878"></path>
            </g>
        </g>
    </g>
</svg>