<svg xmlns="http://www.w3.org/2000/svg" width="24" height="24" viewBox="0 0 24 24">
    <g fill="none" fill-rule="evenodd">
        <g>
            <g>
                <g>
                    <g>
                        <g transform="translate(-872 -1795) translate(270 1685) translate(351 90) translate(247 16) translate(4 4)">
                            <path d="M0 0H32V32H0z"/>
                            <rect width="24" height="24" fill="#222" opacity=".5" rx="12"/>
                            <g fill="#FFF">
                                <path d="M9.6 0C10.925 0 12 1.075 12 2.4v7.2c0 1.325-1.075 2.4-2.4 2.4H2.4C1.075 12 0 10.925 0 9.6V2.4C0 1.075 1.075 0 2.4 0h7.2zM6 2.4C4.012 2.4 2.4 4.012 2.4 6S4.012 9.6 6 9.6 9.6 7.988 9.6 6 7.988 2.4 6 2.4zm0 .8c1.546 0 2.8 1.254 2.8 2.8 0 1.546-1.254 2.8-2.8 2.8-1.546 0-2.8-1.254-2.8-2.8 0-1.546 1.254-2.8 2.8-2.8zm3.675-1.525c-.497 0-.9.403-.9.9s.403.9.9.9.9-.403.9-.9-.403-.9-.9-.9z" transform="translate(6 6)"/>
                            </g>
                        </g>
                    </g>
                </g>
            </g>
        </g>
    </g>
</svg>
