<svg xmlns="http://www.w3.org/2000/svg" width="48" height="48" viewBox="0 0 48 48">
    <g fill="none" fill-rule="evenodd">
        <g>
            <g>
                <g>
                    <g>
                        <g>
                            <g transform="translate(-48 -1324) translate(0 870) translate(0 124) translate(0 304) translate(48 26)">
                                <circle cx="24" cy="24" r="24" fill="#F4F4F4"/>
                                <g stroke-linecap="round" stroke-linejoin="round" stroke-width="1.194">
                                    <path stroke="#050101" d="M0 3.384V.442C0 .198.198 0 .442 0h23.004c.244 0 .442.198.442.442v10.313c0 .244-.198.442-.442.442H.442C.198 11.197 0 11 0 10.755V7.664" transform="translate(12 18.545)"/>
                                    <path stroke="#050101" d="M19.409 11.197H4.479c-.412 0-.746-.334-.746-.746v-.747c0-.412.334-.746.746-.746h14.93" transform="translate(12 18.545)"/>
                                    <path stroke="#080204" d="M11.571 6.196L12.914 6.196" transform="translate(12 18.545)"/>
                                </g>
                            </g>
                        </g>
                    </g>
                </g>
            </g>
        </g>
    </g>
</svg>
