<?xml version="1.0" encoding="UTF-8"?>
<svg width="80px" height="80px" viewBox="0 0 80 80" version="1.1" xmlns="http://www.w3.org/2000/svg" xmlns:xlink="http://www.w3.org/1999/xlink">
    <title>btn_sns_twitter_80</title>
    <g id="Page-1" stroke="none" stroke-width="1" fill="none" fill-rule="evenodd">
        <g id="[MO]-CS_매장찾기상세_팝업_full_v0.8_200909" transform="translate(-476.000000, -5137.000000)">
            <g id="02-contents" transform="translate(39.000000, 198.000000)">
                <g id="02-10-share" transform="translate(125.000000, 4939.000000)">
                    <g id="btn_sns_twitter_80" transform="translate(312.000000, 0.000000)">
                        <rect id="Rectangle" x="0" y="0" width="80" height="80"></rect>
                        <g id="ic" stroke-width="1" fill-rule="evenodd">
                            <circle id="Oval" fill="#F4F4F4" cx="40" cy="40" r="40"></circle>
                            <path d="M35.0500213,58.3333333 C50.154321,58.3333333 58.4131545,45.5061082 58.4131545,34.3891798 C58.4131545,34.0226876 58.4131545,33.6561955 58.396126,33.3071553 C59.9968072,32.1204188 61.393146,30.6369983 62.5,28.9441536 C61.035547,29.6073298 59.4518944,30.061082 57.7830992,30.2705061 C59.4859515,29.2233857 60.7801192,27.582897 61.393146,25.6108202 C59.8094934,26.5706806 58.0555556,27.2687609 56.1824181,27.6527051 C54.683908,26.0122164 52.5553427,25 50.188378,25 C45.658791,25 41.9806301,28.7696335 41.9806301,33.4118674 C41.9806301,34.0750436 42.0487441,34.7207679 42.2020009,35.3315881 C35.3735632,34.982548 29.3284376,31.6317627 25.2756492,26.5357766 C24.5774798,27.7748691 24.1687952,29.2233857 24.1687952,30.7591623 C24.1687952,33.6736475 25.6162197,36.2565445 27.8299276,37.7574171 C26.4846743,37.7225131 25.2245636,37.3385689 24.1177097,36.7102967 C24.1177097,36.7452007 24.1177097,36.7801047 24.1177097,36.8150087 C24.1177097,40.8987784 26.9444444,44.2844677 30.707748,45.069808 C30.0266071,45.2617801 29.2943806,45.3664921 28.5451256,45.3664921 C28.0172414,45.3664921 27.5063857,45.3141361 26.99553,45.2094241 C28.0342699,48.5602094 31.065347,50.9860384 34.6583653,51.0558464 C31.848659,53.3071553 28.3067263,54.6509599 24.4582801,54.6509599 C23.7941677,54.6509599 23.1470839,54.6160558 22.5,54.5287958 C26.0930183,56.9371728 30.4182631,58.3333333 35.0500213,58.3333333" id="Path" fill="#616161" fill-rule="nonzero"></path>
                        </g>
                    </g>
                </g>
            </g>
        </g>
    </g>
</svg>