<svg xmlns="http://www.w3.org/2000/svg" width="40" height="40" viewBox="0 0 40 40">
    <g fill="none" fill-rule="evenodd">
        <g>
            <g>
                <path d="M0 0H40V40H0z" transform="translate(-247 -1632) translate(247 1632)"/>
                <g stroke-width="1.25" transform="translate(-247 -1632) translate(247 1632) translate(4.375 5)">
                    <path stroke="#000" stroke-linejoin="round" d="M.483 12.635l7.475-5.812c.437-.34 1.045-.352 1.495-.03l8.15 5.843c.328.235.522.613.522 1.016v15.723h0-17.5c-.345 0-.625-.28-.625-.625V13.622c0-.386.178-.75.483-.987zM25 0c3.447 0 6.25 2.952 6.25 6.581 0 2.915-2.303 5.883-4.029 7.713l3.494 2.434c.335.234.535.617.535 1.026v11.621H18.125v-11.95c0-.203.099-.393.265-.51l4.121-2.909c-1.686-1.843-3.761-4.658-3.761-7.425C18.75 2.951 21.553 0 25 0z"/>
                    <rect width="10" height="3.125" x="4.063" y="22.5" stroke="#000" rx="1.25"/>
                    <rect width="10" height="3.125" x="4.063" y="16.875" stroke="#000" rx="1.25"/>
                    <rect width="5" height="5" x="22.5" y="3.75" stroke="#DA0F47" rx="2.5"/>
                    <path stroke="#DA0F47" d="M25 0c-3.447 0-6.25 2.952-6.25 6.581 0 4.562 5.642 9.255 5.881 9.509.102.106.236.16.369.16s.267-.054.369-.16c.24-.254 5.881-4.947 5.881-9.509C31.25 2.951 28.447 0 25 0z"/>
                </g>
            </g>
        </g>
    </g>
</svg>
