<?xml version="1.0" encoding="UTF-8"?>
<svg width="20px" height="20px" viewBox="0 0 20 20" version="1.1" xmlns="http://www.w3.org/2000/svg" xmlns:xlink="http://www.w3.org/1999/xlink">
    <title>icon-cal</title>
    <g id="Page-1" stroke="none" stroke-width="1" fill="none" fill-rule="evenodd">
        <g id="ic_callendar_20_PC">
            <rect id="Rectangle" x="0" y="0" width="20" height="20"></rect>
            <path d="M17.2,3.6 L14.8,3.6 L14.8,2.8 C14.8,2.3576 14.4424,2 14,2 C13.5576,2 13.2,2.3576 13.2,2.8 L13.2,3.6 L6.8,3.6 L6.8,2.8 C6.8,2.3576 6.4424,2 6,2 C5.5576,2 5.2,2.3576 5.2,2.8 L5.2,3.6 L2.8,3.6 C2.3576,3.6 2,3.9576 2,4.4 L2,17.2 C2,17.6424 2.3576,18 2.8,18 L17.2,18 C17.6424,18 18,17.6424 18,17.2 L18,4.4 C18,3.9576 17.6424,3.6 17.2,3.6 L17.2,3.6 Z M3.6,16.4 L16.4,16.4 L16.4,8.4 L3.6,8.4 L3.6,16.4 Z M3.6,6.8 L16.4,6.8 L16.4,5.2 L3.6,5.2 L3.6,6.8 Z M6.8,10 C6.3576,10 6,10.3576 6,10.8 C6,11.2424 6.3576,11.6 6.8,11.6 C7.2424,11.6 7.6,11.2424 7.6,10.8 C7.6,10.3576 7.2424,10 6.8,10 M6.8,13.2 C6.3576,13.2 6,13.5576 6,14 C6,14.4424 6.3576,14.8 6.8,14.8 C7.2424,14.8 7.6,14.4424 7.6,14 C7.6,13.5576 7.2424,13.2 6.8,13.2 M10,13.2 C9.5576,13.2 9.2,13.5576 9.2,14 C9.2,14.4424 9.5576,14.8 10,14.8 C10.4424,14.8 10.8,14.4424 10.8,14 C10.8,13.5576 10.4424,13.2 10,13.2 M10,10 C9.5576,10 9.2,10.3576 9.2,10.8 C9.2,11.2424 9.5576,11.6 10,11.6 C10.4424,11.6 10.8,11.2424 10.8,10.8 C10.8,10.3576 10.4424,10 10,10 M13.2,10 C12.7576,10 12.4,10.3576 12.4,10.8 C12.4,11.2424 12.7576,11.6 13.2,11.6 C13.6424,11.6 14,11.2424 14,10.8 C14,10.3576 13.6424,10 13.2,10" id="Icon" fill="#767676"></path>
        </g>
    </g>
</svg>