<?xml version="1.0" encoding="UTF-8"?>
<svg width="20px" height="20px" viewBox="0 0 20 20" version="1.1" xmlns="http://www.w3.org/2000/svg" xmlns:xlink="http://www.w3.org/1999/xlink">
    <title>icon-copy-20</title>
    <g id="Page-1" stroke="none" stroke-width="1" fill="none" fill-rule="evenodd">
        <g id="ic_copy_24_PC">
            <g id="Group-126">
                <rect id="Rectangle" x="0" y="0" width="20" height="20"></rect>
                <path d="M16.2857143,1.75 L6.71428571,1.75 C6.44800557,1.75 6.20693414,1.85793135 6.03243275,2.03243275 C5.85793135,2.20693414 5.75,2.44800557 5.75,2.71428571 L5.75,13.2857143 C5.75,13.5519944 5.85793135,13.7930659 6.03243275,13.9675673 C6.20693414,14.1420686 6.44800557,14.25 6.71428571,14.25 L16.2857143,14.25 C16.5519944,14.25 16.7930659,14.1420686 16.9675673,13.9675673 C17.1420686,13.7930659 17.25,13.5519944 17.25,13.2857143 L17.25,2.71428571 C17.25,2.44800557 17.1420686,2.20693414 16.9675673,2.03243275 C16.7930659,1.85793135 16.5519944,1.75 16.2857143,1.75 Z" id="Rectangle" stroke="#808080" stroke-width="1.5" transform="translate(11.500000, 8.000000) scale(-1, 1) rotate(-180.000000) translate(-11.500000, -8.000000) "></path>
                <path d="M12.2857143,5.75 L3.71428571,5.75 C3.44800557,5.75 3.20693414,5.85793135 3.03243275,6.03243275 C2.85793135,6.20693414 2.75,6.44800557 2.75,6.71428571 L2.75,17.2857143 C2.75,17.5519944 2.85793135,17.7930659 3.03243275,17.9675673 C3.20693414,18.1420686 3.44800557,18.25 3.71428571,18.25 L12.2857143,18.25 C12.5519944,18.25 12.7930659,18.1420686 12.9675673,17.9675673 C13.1420686,17.7930659 13.25,17.5519944 13.25,17.2857143 L13.25,6.71428571 C13.25,6.44800557 13.1420686,6.20693414 12.9675673,6.03243275 C12.7930659,5.85793135 12.5519944,5.75 12.2857143,5.75 Z" id="Rectangle" stroke="#808080" stroke-width="1.5" fill="#FFFFFF" transform="translate(8.000000, 12.000000) scale(-1, 1) rotate(-180.000000) translate(-8.000000, -12.000000) "></path>
            </g>
        </g>
    </g>
</svg>