<svg xmlns="http://www.w3.org/2000/svg" width="160" height="160" viewBox="0 0 160 160">
  <defs>
    <style>
      .cls-1 {
        fill: #fff;
        opacity: 0;
      }

      .cls-2, .cls-3 {
        fill-rule: evenodd;
      }

      .cls-3 {
        fill: #da0f47;
      }
    </style>
  </defs>
  <g id="icon_video-tutorials">
    <rect id="icon_area" class="cls-1" width="160" height="160"/>
    <g id="shape">
      <path class="cls-2" d="M549,129a1,1,0,0,1,1,1v72a1,1,0,0,1-1,1H455a1,1,0,0,1-1-1V130a1,1,0,0,1,1-1h94m0-5H455a6,6,0,0,0-6,6v72a6,6,0,0,0,6,6h94a6,6,0,0,0,6-6V130a6,6,0,0,0-6-6h0Zm-82,25.245a2.5,2.5,0,0,1-2.5-2.5v-6a2.5,2.5,0,0,1,5,0v6A2.5,2.5,0,0,1,467,149.245Zm0,0a2.5,2.5,0,0,1-2.5-2.5v-6a2.5,2.5,0,0,1,5,0v6A2.5,2.5,0,0,1,467,149.245Zm0,22.255a2.5,2.5,0,0,1-2.5-2.5v-6a2.5,2.5,0,0,1,5,0v6A2.5,2.5,0,0,1,467,171.5Zm0,22.255a2.5,2.5,0,0,1-2.5-2.5v-6a2.5,2.5,0,0,1,5,0v6A2.5,2.5,0,0,1,467,193.755Zm70-44.51a2.5,2.5,0,0,1-2.5-2.5v-6a2.5,2.5,0,0,1,5,0v6A2.5,2.5,0,0,1,537,149.245Zm0,0a2.5,2.5,0,0,1-2.5-2.5v-6a2.5,2.5,0,0,1,5,0v6A2.5,2.5,0,0,1,537,149.245Zm0,22.255a2.5,2.5,0,0,1-2.5-2.5v-6a2.5,2.5,0,0,1,5,0v6A2.5,2.5,0,0,1,537,171.5Zm0,22.255a2.5,2.5,0,0,1-2.5-2.5v-6a2.5,2.5,0,0,1,5,0v6A2.5,2.5,0,0,1,537,193.755Z" transform="translate(-422 -86)"/>
      <path id="Shape_39_copy_2" data-name="Shape 39 copy 2" class="cls-2" d="M467,149.245a2.5,2.5,0,0,1-2.5-2.5v-6a2.5,2.5,0,0,1,5,0v6A2.5,2.5,0,0,1,467,149.245Zm70,0a2.5,2.5,0,0,1-2.5-2.5v-6a2.5,2.5,0,0,1,5,0v6A2.5,2.5,0,0,1,537,149.245Z" transform="translate(-422 -86)"/>
      <path id="Shape_39_copy" data-name="Shape 39 copy" class="cls-3" d="M491.773,184.8a2.5,2.5,0,0,1-2.5-2.5V149.7a2.5,2.5,0,0,1,3.865-2.095l24.453,15.926a2.5,2.5,0,0,1,.045,4.159l-24.454,16.68A2.505,2.505,0,0,1,491.773,184.8Zm2.5-30.493v23.261l17.447-11.9Z" transform="translate(-422 -86)"/>
    </g>
  </g>
</svg>
