<svg xmlns="http://www.w3.org/2000/svg" width="24" height="24" viewBox="0 0 24 24">
    <g fill="none" fill-rule="evenodd">
        <g fill="#000" fill-rule="nonzero">
            <g>
                <path d="M11.401 0c4.64 0 8.4 3.76 8.4 8.4 0 .637-.07 1.258-.205 1.855.539.095 1.077.201 1.614.317l1.117.242.069.019c.335.115.503.502.343.83L21.7 13.8l1.04 2.137.026.06c.16.433-.224.89-.692.79l-1.116-.242-.671-.14c-1.568-.313-3.15-.54-4.74-.682l-.023-.002c-1.217.687-2.623 1.079-4.122 1.079-1.467 0-2.846-.376-4.047-1.038-.032.009-.065.015-.1.018-1.59.141-3.17.369-4.739.682l-.67.14-1.117.24c-.468.102-.85-.356-.691-.79l.025-.058 1.041-2.138-1.041-2.137c-.16-.328.008-.715.343-.83l.07-.02 1.116-.24c.541-.117 1.084-.224 1.63-.321C3.076 9.696 3 9.057 3 8.4c0-4.64 3.761-8.4 8.4-8.4zm0 1.2c-3.976 0-7.2 3.224-7.2 7.2s3.224 7.2 7.2 7.2c3.977 0 7.2-3.224 7.2-7.2s-3.223-7.2-7.2-7.2zM3.578 11.465l.42-.073c-.481.08-.96.166-1.438.261l-.716.149-.368.08.834 1.712c.069.142.079.304.03.452l-.03.073-.63 1.29.6-.124c1.189-.237 2.385-.427 3.586-.568-1.002-.877-1.793-1.99-2.288-3.252zm15.667-.052c-.484 1.26-1.264 2.374-2.253 3.257 1.182.138 2.36.325 3.53.559l.599.124-.63-1.29-.03-.073c-.049-.148-.039-.31.03-.453l.835-1.712-.37-.08-.715-.148c-.477-.095-.957-.182-1.437-.261zm-8.979-7.084c.463-.972 1.808-.972 2.27 0l.79 1.66c.014.028.032.042.048.045l1.746.263c1.043.157 1.441 1.47.702 2.218l-1.247 1.261c-.024.024-.037.066-.03.108l.297 1.793c.174 1.05-.898 1.884-1.838 1.37l-1.585-.864c-.012-.007-.023-.007-.035 0l-1.585.864c-.94.513-2.012-.319-1.838-1.37l.297-1.794c.006-.041-.007-.083-.03-.107L6.98 8.514c-.739-.748-.34-2.06.703-2.217l1.746-.263c.015-.003.034-.017.047-.045zm1.187.515c-.028-.059-.075-.059-.104 0l-.79 1.661c-.182.383-.536.652-.951.715l-1.746.264c-.054.008-.09.124-.028.187L9.08 8.93c.297.3.431.73.361 1.149l-.296 1.794c-.016.093.044.14.08.12l1.585-.865c.37-.201.813-.201 1.183 0l1.585.865c.035.02.095-.027.08-.12l-.297-1.795c-.069-.419.065-.848.36-1.147l1.248-1.26c.062-.063.026-.18-.028-.188l-1.746-.264c-.415-.063-.77-.332-.952-.715z" transform="translate(.6 2.8)"/>
            </g>
        </g>
    </g>
</svg>
