<svg xmlns="http://www.w3.org/2000/svg" width="64" height="64" viewBox="0 0 64 64">
    <g fill="none" fill-rule="evenodd">
        <g>
            <path d="M0 0H64V64H0z"/>
            <g>
                <g>
                    <path stroke="#000" stroke-linecap="round" stroke-linejoin="round" stroke-width="2" d="M26.913 30.418c-1.157-1.141-2.6-1.141-3.75 0-.876.87-1.753 1.739-2.615 2.623-.236.243-.434.294-.722.132-.567-.31-1.171-.56-1.716-.898-2.541-1.599-4.67-3.654-6.556-5.967-.936-1.15-1.768-2.38-2.35-3.764-.118-.28-.096-.464.133-.692.876-.848 1.73-1.717 2.593-2.586 1.2-1.208 1.2-2.622-.008-3.838-.685-.692-1.37-1.37-2.055-2.062-.707-.707-1.407-1.422-2.121-2.122-1.157-1.127-2.6-1.127-3.75.008-.884.869-1.731 1.76-2.63 2.615-.832.788-1.252 1.753-1.34 2.88-.14 1.834.309 3.565.943 5.252 1.296 3.491 3.27 6.592 5.664 9.436 3.234 3.845 7.094 6.887 11.61 9.082 2.033.987 4.14 1.746 6.43 1.871 1.577.089 2.947-.31 4.044-1.54.752-.84 1.599-1.605 2.394-2.408 1.179-1.193 1.186-2.637.015-3.816-1.4-1.407-2.806-2.806-4.213-4.206z" transform="translate(9.6 12)"/>
                    <path stroke="#DA0F47" stroke-linecap="round" stroke-linejoin="round" stroke-width="2" d="M19.497.142h20.206c1.767 0 3.2 1.433 3.2 3.2v10.962c0 1.767-1.433 3.2-3.2 3.2h-16.65 0l-4.644 3.867c-.34.283-.844.237-1.126-.103-.12-.143-.186-.324-.186-.512V2.542c0-1.326 1.075-2.4 2.4-2.4z" transform="translate(9.6 12)"/>
                    <g fill="#DA0F47" transform="translate(9.6 12) translate(24 8)">
                        <circle cx="1.2" cy="1.2" r="1.2"/>
                        <circle cx="6" cy="1.2" r="1.2"/>
                        <circle cx="10.8" cy="1.2" r="1.2"/>
                    </g>
                </g>
            </g>
        </g>
    </g>
</svg>
