<svg xmlns="http://www.w3.org/2000/svg" xmlns:xlink="http://www.w3.org/1999/xlink" width="62" height="62" viewBox="0 0 62 62">
    <defs>
        <rect id="f722pl7x2a" width="62" height="62" x="0" y="0" rx="8"/>
        <rect id="hcjpo0j8ic" width="62" height="62" x="0" y="0" rx="8"/>
        <path id="w3wyod1cad" d="M0.055 0.048L3.999 0.048 3.999 6.88 0.055 6.88z"/>
    </defs>
    <g fill="none" fill-rule="evenodd">
        <g>
            <g>
                <g transform="translate(-712 -966) translate(640 966) translate(72)">
                    <mask id="o0pi45kmub" fill="#fff">
                        <use xlink:href="#f722pl7x2a"/>
                    </mask>
                    <rect width="63.1" height="63.1" x=".45" y=".45" stroke="#DDD" stroke-width="0" rx="8"/>
                    <g mask="url(#o0pi45kmub)">
                        <rect width="63.1" height="63.1" x=".45" y=".45" stroke="#DDD" stroke-width="0" rx="8"/>
                    </g>
                    <g mask="url(#o0pi45kmub)">
                        <g>
                            <path fill="#767676" d="M6.027 7.534v-4.52l3.915 2.26-3.915 2.26zm8.726-5.887C14.58.999 14.07.488 13.421.315 12.246 0 7.534 0 7.534 0S2.822 0 1.647.315C.999.488.488.999.315 1.647 0 2.822 0 5.274 0 5.274S0 7.726.315 8.9c.173.648.684 1.158 1.332 1.332 1.175.315 5.887.315 5.887.315s4.712 0 5.887-.315c.648-.174 1.159-.684 1.332-1.332.315-1.175.315-3.627.315-3.627s0-2.452-.315-3.627zM23.541 8.561c.083-.215.124-.567.124-1.056V5.447c0-.474-.041-.82-.124-1.04-.082-.219-.228-.329-.436-.329-.201 0-.343.11-.426.33-.082.218-.124.565-.124 1.039v2.058c0 .489.04.84.119 1.056.079.216.222.323.43.323.21 0 .355-.107.437-.323m-1.67 1.035c-.298-.201-.51-.514-.636-.938-.125-.424-.188-.987-.188-1.692v-.959c0-.71.071-1.282.215-1.713.144-.431.368-.745.674-.943.305-.197.706-.296 1.201-.296.489 0 .88.1 1.175.302.294.2.51.515.646.942.137.428.205.997.205 1.708v.96c0 .704-.067 1.27-.2 1.697-.132.427-.348.74-.646.937-.298.198-.702.296-1.212.296-.525 0-.936-.1-1.234-.301" transform="translate(8 27)"/>
                            <g transform="translate(8 27) translate(43.248 3.012)">
                                <mask id="ad2dhlksae" fill="#fff">
                                    <use xlink:href="#w3wyod1cad"/>
                                </mask>
                                <path fill="#767676" d="M1.698 1.19c-.075.094-.126.246-.15.458-.026.212-.038.533-.038.964v.475h1.088v-.475c0-.423-.015-.745-.043-.964-.03-.22-.081-.374-.156-.463-.076-.09-.193-.135-.35-.135-.159 0-.275.047-.351.14zM1.51 3.97v.334c0 .424.012.742.037.954.025.212.077.366.156.463.08.097.202.146.367.146.222 0 .375-.086.458-.259.082-.172.127-.46.134-.862l1.283.075c.007.058.01.137.01.237 0 .611-.167 1.067-.5 1.369-.335.302-.807.453-1.417.453-.733 0-1.247-.23-1.541-.69C.202 5.73.055 5.019.055 4.056V2.903c0-.991.152-1.715.458-2.17C.818.275 1.34.047 2.08.047c.51 0 .902.093 1.175.28.273.187.465.478.577.873.11.395.167.941.167 1.638V3.97h-2.49z" mask="url(#ad2dhlksae)"/>
                            </g>
                            <path fill="#767676" d="M18.25 6.858L16.558.748h1.477l.592 2.77c.151.683.262 1.264.334 1.746h.043c.05-.345.162-.923.334-1.735l.615-2.78h1.476l-1.713 6.11v2.93H18.25V6.86zM29.964 3.184V9.79H28.8l-.129-.809h-.032c-.316.61-.79.916-1.423.916-.438 0-.761-.143-.97-.43-.208-.288-.312-.737-.312-1.348V3.184h1.487v4.849c0 .295.033.505.097.63.065.126.172.189.323.189.13 0 .254-.04.372-.119.119-.079.207-.179.264-.301V3.184h1.487zM37.592 3.184V9.79h-1.164l-.13-.809h-.032c-.316.61-.79.916-1.422.916-.438 0-.762-.143-.97-.43-.208-.288-.312-.737-.312-1.348V3.184h1.487v4.849c0 .295.032.505.097.63.064.126.172.189.323.189.13 0 .253-.04.371-.119.12-.079.207-.179.265-.301V3.184h1.487z" transform="translate(8 27)"/>
                            <path fill="#767676" d="M34.005 1.945L32.529 1.945 32.529 9.79 31.074 9.79 31.074 1.945 29.598 1.945 29.598.749 34.005.749zM41.15 6.934c0 .482-.02.859-.06 1.132-.039.273-.105.467-.199.582-.093.115-.219.172-.377.172-.122 0-.235-.029-.34-.086-.103-.058-.188-.144-.252-.259v-3.75c.05-.18.136-.327.258-.441.122-.115.255-.173.399-.173.15 0 .268.06.35.178.083.118.14.318.172.598.033.28.049.679.049 1.196v.851zm1.363-2.694c-.09-.416-.235-.718-.436-.905-.201-.187-.478-.28-.83-.28-.273 0-.528.077-.765.231-.237.155-.42.358-.55.61h-.01V.414h-1.433v9.374h1.228l.15-.625h.033c.115.223.287.4.517.529.23.129.485.193.765.193.503 0 .873-.231 1.11-.695.237-.463.356-1.187.356-2.17V5.974c0-.74-.045-1.318-.135-1.735z" transform="translate(8 27)"/>
                        </g>
                    </g>
                </g>
            </g>
        </g>
    </g>
</svg>
