<svg xmlns="http://www.w3.org/2000/svg" width="160" height="160" viewBox="0 0 160 160">
    <g>
        <path fill="none" d="M0 0H160V160H0z"/>
        <g transform="translate(26 26)">
            <g stroke-miterlimit="10">
                <path fill="none" stroke="#fff" stroke-width="5" d="M0 39.996l20.477-9v21l35.523 21 33.719-21V31.343L108 39.996"/>
                <g fill="#fff">
                    <path d="M37.965 72.066L2.5 50.867V4c0-.827.673-1.5 1.5-1.5h66c.827 0 1.5.673 1.5 1.5v46.907l-33.535 21.16z" transform="translate(18 .876)"/>
                    <path d="M5 5v44.45l32.93 19.683L69 49.528V5H5M4 0h66c2.21 0 4 1.79 4 4v48.286L38 75 0 52.286V4c0-2.21 1.79-4 4-4z" transform="translate(18 .876)"/>
                </g>
                <path fill="none" stroke="#fff" stroke-linecap="round" stroke-linejoin="round" stroke-width="5" d="M0 40l56 33 52-33v62a4 4 0 0 1-4 4H4a4 4 0 0 1-4-4z"/>
            </g>
            <rect width="46" height="5" fill="#df0f47" rx="2.5" transform="translate(32 18)"/>
            <rect width="46" height="5" fill="#df0f47" rx="2.5" transform="translate(32 30)"/>
            <rect width="30" height="5" fill="#df0f47" rx="2.5" transform="translate(32 42)"/>
        </g>
    </g>
</svg>
