<svg xmlns="http://www.w3.org/2000/svg" width="160" height="160" viewBox="0 0 160 160">
  <defs>
    <style>
      .cls-1 {
        fill: #fff;
        opacity: 0;
      }

      .cls-2, .cls-3 {
        fill-rule: evenodd;
      }

      .cls-3 {
        fill: #da0f47;
      }
    </style>
  </defs>
  <g id="icon_expendables-160">
    <rect id="icon_area" class="cls-1" width="160" height="160"/>
    <g id="shape">
      <path class="cls-2" d="M1342,430a31.993,31.993,0,0,1-32-31.919v-66c0-5.012,3.76-9.089,8.39-9.089h47.22c4.63,0,8.39,4.077,8.39,9.089v66A32,32,0,0,1,1342,430Zm-23.61-102.026c-1.87,0-3.39,1.843-3.39,4.108v66a27,27,0,0,0,54,0v-66c0-2.265-1.52-4.108-3.39-4.108h-47.22Zm17.87,23.8h-12.18a2.5,2.5,0,0,1-2.5-2.491V337.137a2.5,2.5,0,0,1,2.5-2.491h12.18a2.5,2.5,0,0,1,2.5,2.491V349.28A2.5,2.5,0,0,1,1336.26,351.771Zm-9.68-4.982h7.18v-7.161h-7.18v7.161Zm33.34,4.982h-12.18a2.5,2.5,0,0,1-2.5-2.491V337.137a2.5,2.5,0,0,1,2.5-2.491h12.18a2.5,2.5,0,0,1,2.5,2.491V349.28A2.5,2.5,0,0,1,1359.92,351.771Zm-9.68-4.982h7.18v-7.161h-7.18v7.161Zm-13.98,28.671h-12.18a2.5,2.5,0,0,1-2.5-2.491V360.827a2.5,2.5,0,0,1,2.5-2.491h12.18a2.5,2.5,0,0,1,2.5,2.491v12.142A2.5,2.5,0,0,1,1336.26,375.46Zm-9.68-4.981h7.18v-7.161h-7.18v7.161Zm33.34,4.981h-12.18a2.5,2.5,0,0,1-2.5-2.491V360.827a2.5,2.5,0,0,1,2.5-2.491h12.18a2.5,2.5,0,0,1,2.5,2.491v12.142A2.5,2.5,0,0,1,1359.92,375.46Zm-9.68-4.981h7.18v-7.161h-7.18v7.161Z" transform="translate(-1262 -296)"/>
      <path id="Shape_38_copy" data-name="Shape 38 copy" class="cls-3" d="M1342,415.424a17.337,17.337,0,1,1,17.39-17.337A17.382,17.382,0,0,1,1342,415.424Zm0-29.693a12.356,12.356,0,1,0,12.39,12.356A12.388,12.388,0,0,0,1342,385.731Z" transform="translate(-1262 -296)"/>
    </g>
  </g>
</svg>
