<?xml version="1.0" encoding="UTF-8"?>
<svg width="120px" height="120px" viewBox="0 0 120 120" version="1.1" xmlns="http://www.w3.org/2000/svg" xmlns:xlink="http://www.w3.org/1999/xlink">
    <title>icon-02-120</title>
    <g id="Page-1" stroke="none" stroke-width="1" fill="none" fill-rule="evenodd">
        <g id="Group-89">
            <rect id="Rectangle" x="0" y="0" width="120" height="120"></rect>
            <g id="Group-88" transform="translate(21.000000, 24.000000)">
                <rect id="Rectangle" stroke="#979797" stroke-width="2" x="1" y="1" width="58" height="71"></rect>
                <line x1="1.92929771" y1="53.5969087" x2="58.3915392" y2="53.5969087" id="Path-31" stroke="#979797" stroke-width="2"></line>
                <path d="M9,54 L9,33 C9,31.3431458 10.3431458,30 12,30 L48,30 C49.6568542,30 51,31.3431458 51,33 L51,54 L51,54" id="Path-32" stroke="#979797" stroke-width="2"></path>
                <path d="M25,30 L17,30 L17,37 C17,37.5522847 17.2238576,38.0522847 17.5857864,38.4142136 C17.9477153,38.7761424 18.4477153,39 19,39 L23,39 C23.5522847,39 24.0522847,38.7761424 24.4142136,38.4142136 C24.7761424,38.0522847 25,37.5522847 25,37 L25,30 Z" id="Rectangle" stroke="#979797" stroke-width="2"></path>
                <rect id="Rectangle" stroke="#979797" stroke-width="2" fill="#D8D8D8" x="20" y="40" width="2" height="2"></rect>
                <path d="M43,30 L35,30 L35,37 C35,37.5522847 35.2238576,38.0522847 35.5857864,38.4142136 C35.9477153,38.7761424 36.4477153,39 37,39 L41,39 C41.5522847,39 42.0522847,38.7761424 42.4142136,38.4142136 C42.7761424,38.0522847 43,37.5522847 43,37 L43,30 Z" id="Rectangle" stroke="#979797" stroke-width="2"></path>
                <rect id="Rectangle" stroke="#979797" stroke-width="2" fill="#D8D8D8" x="38" y="40" width="2" height="2"></rect>
                <path d="M49.5,16 C50.3284271,16 51,16.6715729 51,17.5 C51,18.3284271 50.3284271,19 49.5,19 C48.6715729,19 48,18.3284271 48,17.5 C48,16.6715729 48.6715729,16 49.5,16 Z" id="Rectangle" fill="#979797"></path>
                <path d="M49.5,22 C50.3284271,22 51,22.6715729 51,23.5 C51,24.3284271 50.3284271,25 49.5,25 C48.6715729,25 48,24.3284271 48,23.5 C48,22.6715729 48.6715729,22 49.5,22 Z" id="Rectangle" fill="#979797"></path>
                <path d="M14.8950124,71 L5.10498756,71 L5.72488831,77.1990074 C5.77600849,77.7102092 6.01665136,78.1604574 6.37295204,78.4829051 C6.72925273,78.8053528 7.20121124,79 7.71496269,79 L12.2850373,79 C12.7987888,79 13.2707473,78.8053528 13.627048,78.4829051 C13.9833486,78.1604574 14.2239915,77.7102092 14.2751117,77.1990074 L14.8950124,71 Z" id="Rectangle" stroke="#979797" stroke-width="2"></path>
                <path d="M54.8950124,71 L45.1049876,71 L45.7248883,77.1990074 C45.7760085,77.7102092 46.0166514,78.1604574 46.372952,78.4829051 C46.7292527,78.8053528 47.2012112,79 47.7149627,79 L52.2850373,79 C52.7987888,79 53.2707473,78.8053528 53.627048,78.4829051 C53.9833486,78.1604574 54.2239915,77.7102092 54.2751117,77.1990074 L54.8950124,71 Z" id="Rectangle" stroke="#979797" stroke-width="2"></path>
            </g>
            <g id="Group-87" transform="translate(30.000000, 53.000000)">
                <g id="Group-86" transform="translate(25.000000, 0.000000)"></g>
            </g>
            <rect id="Rectangle" x="29" y="32" width="3" height="3" rx="1.5"></rect>
            <g id="Group-86" transform="translate(37.000000, 53.000000)"></g>
            <path d="M85.4936007,21.3857829 L82.8395277,29.2666642 L77.2778071,31.4834136 L82.8383934,33.6596255 L85.4935917,41.652865 L88.1850744,33.6591589 L93.7058227,31.4834056 L88.1839413,29.2671205 L85.4936007,21.3857829 Z" id="Path-33" stroke="#979797" stroke-width="2" fill="#FFFFFF"></path>
            <rect id="Rectangle" stroke="#979797" stroke-width="2" x="96" y="17" width="7" height="7" rx="3.5"></rect>
            <rect id="Rectangle" stroke="#979797" stroke-width="2" x="96" y="38" width="7" height="7" rx="3.5"></rect>
        </g>
    </g>
</svg>