<?xml version="1.0" encoding="UTF-8"?>
<svg width="28px" height="27px" viewBox="0 0 28 27" version="1.1" xmlns="http://www.w3.org/2000/svg" xmlns:xlink="http://www.w3.org/1999/xlink">
    <title>Star</title>
    <g id="Page-1" stroke="none" stroke-width="1" fill="none" fill-rule="evenodd">
        <g id="07_M_PLP_Refrigerator_0917" transform="translate(-333.000000, -3745.000000)" fill="#CCCCCC">
            <g id="Group-6" transform="translate(0.000000, 95.000000)">
                <g id="01" transform="translate(0.000000, 816.000000)">
                    <g id="02" transform="translate(40.000000, 2233.000000)">
                        <g id="01" transform="translate(56.000000, 488.000000)">
                            <g id="txt">
                                <g id="Group-13">
                                    <path d="M250.361818,136.335512 L244.055055,139.651174 C243.384639,140.003632 242.555436,139.745877 242.202978,139.075461 C242.062628,138.808498 242.014196,138.502714 242.065181,138.205446 L243.269666,131.182762 C243.345969,130.737879 243.198474,130.283936 242.875248,129.968868 L237.772969,124.995375 C237.230592,124.466688 237.219494,123.598418 237.748181,123.056041 C237.958707,122.840063 238.23456,122.69951 238.533033,122.656139 L245.584209,121.631543 C246.030897,121.566635 246.417044,121.286083 246.616809,120.881315 L249.770191,114.491866 C250.105398,113.812661 250.927742,113.533796 251.606947,113.869004 C251.87741,114.002485 252.096328,114.221403 252.229809,114.491866 L255.383191,120.881315 C255.582956,121.286083 255.969103,121.566635 256.415791,121.631543 L263.466967,122.656139 C264.216514,122.765054 264.735849,123.460976 264.626933,124.210523 C264.583562,124.508997 264.443008,124.784849 264.227031,124.995375 L259.124752,129.968868 C258.801526,130.283936 258.654031,130.737879 258.730334,131.182762 L259.934819,138.205446 C260.062857,138.951965 259.561479,139.660933 258.814961,139.788971 C258.517693,139.839956 258.211908,139.791524 257.944945,139.651174 L251.638182,136.335512 C251.238652,136.125467 250.761348,136.125467 250.361818,136.335512 Z" id="Star"></path>
                                </g>
                            </g>
                        </g>
                    </g>
                </g>
            </g>
        </g>
    </g>
</svg>