<?xml version="1.0" encoding="UTF-8"?>
<svg width="20px" height="20px" viewBox="0 0 20 20" version="1.1" xmlns="http://www.w3.org/2000/svg" xmlns:xlink="http://www.w3.org/1999/xlink">
    <title>icon-cal-selected</title>
    <defs>
        <path d="M15.2,1.6 L12.8,1.6 L12.8,0.8 C12.8,0.3576 12.4424,0 12,0 C11.5576,0 11.2,0.3576 11.2,0.8 L11.2,1.6 L4.8,1.6 L4.8,0.8 C4.8,0.3576 4.4424,0 4,0 C3.5576,0 3.2,0.3576 3.2,0.8 L3.2,1.6 L0.8,1.6 C0.3576,1.6 0,1.9576 0,2.4 L0,15.2 C0,15.6424 0.3576,16 0.8,16 L7.2,16 C7.6424,16 8,15.6424 8,15.2 C8,14.7576 7.6424,14.4 7.2,14.4 L1.6,14.4 L1.6,6.4 L14.4,6.4 L14.4,8.8 C14.4,9.2424 14.7576,9.6 15.2,9.6 C15.6424,9.6 16,9.2424 16,8.8 L16,2.4 C16,1.9576 15.6424,1.6 15.2,1.6 L15.2,1.6 Z M1.6,4.8 L14.4,4.8 L14.4,3.2 L1.6,3.2 L1.6,4.8 Z M4.8,8 C4.3576,8 4,8.3576 4,8.8 C4,9.2424 4.3576,9.6 4.8,9.6 C5.2424,9.6 5.6,9.2424 5.6,8.8 C5.6,8.3576 5.2424,8 4.8,8 M4.8,11.2 C4.3576,11.2 4,11.5576 4,12 C4,12.4424 4.3576,12.8 4.8,12.8 C5.2424,12.8 5.6,12.4424 5.6,12 C5.6,11.5576 5.2424,11.2 4.8,11.2 M8,11.2 C7.5576,11.2 7.2,11.5576 7.2,12 C7.2,12.4424 7.5576,12.8 8,12.8 C8.4424,12.8 8.8,12.4424 8.8,12 C8.8,11.5576 8.4424,11.2 8,11.2 M8,8 C7.5576,8 7.2,8.3576 7.2,8.8 C7.2,9.2424 7.5576,9.6 8,9.6 C8.4424,9.6 8.8,9.2424 8.8,8.8 C8.8,8.3576 8.4424,8 8,8 M12,8.8 C12,8.3576 11.6424,8 11.2,8 C10.7576,8 10.4,8.3576 10.4,8.8 C10.4,9.2424 10.7576,9.6 11.2,9.6 C11.6424,9.6 12,9.2424 12,8.8 M14.6344,11.4344 L12,14.0688 L10.9656,13.0344 C10.6528,12.7216 10.1472,12.7216 9.8344,13.0344 C9.5216,13.3472 9.5216,13.8528 9.8344,14.1656 L11.4344,15.7656 C11.5904,15.9216 11.7952,16 12,16 C12.2048,16 12.4096,15.9216 12.5656,15.7656 L15.7656,12.5656 C16.0784,12.2528 16.0784,11.7472 15.7656,11.4344 C15.4528,11.1216 14.9472,11.1216 14.6344,11.4344" id="path-1"></path>
    </defs>
    <g id="Page-1" stroke="none" stroke-width="1" fill="none" fill-rule="evenodd">
        <g id="Group-3">
            <rect id="Rectangle" x="0" y="0" width="20" height="20"></rect>
            <g id="Polaris-icon/Major/Mono/Accessibility" transform="translate(2.000000, 2.000000)">
                <mask id="mask-2" fill="white">
                    <use xlink:href="#path-1"></use>
                </mask>
                <use id="Icon" fill="#616161" xlink:href="#path-1"></use>
            </g>
        </g>
    </g>
</svg>