<svg xmlns="http://www.w3.org/2000/svg" width="48" height="48" viewBox="0 0 48 48">
    <g fill="none" fill-rule="evenodd">
        <path d="M0 0h48v48H0z"/>
        <g fill-rule="nonzero">
            <path fill="#515151" d="M24 4C12.94 4 4 12.94 4 24s8.94 20 20 20 20-8.94 20-20S35.06 4 24 4z"/>
            <path fill="#FFF" d="M32.59 32.59c-.779.779-2.041.779-2.82 0L24 26.82l-5.77 5.77c-.779.779-2.041.779-2.82 0-.779-.779-.779-2.041 0-2.82L21.18 24l-5.77-5.77c-.779-.779-.779-2.041 0-2.82.779-.779 2.041-.779 2.82 0L24 21.18l5.77-5.77c.779-.779 2.041-.779 2.82 0 .779.779.779 2.041 0 2.82L26.82 24l5.77 5.77c.779.779.779 2.041 0 2.82z"/>
        </g>
    </g>
</svg>
