<?xml version="1.0" encoding="UTF-8"?>
<svg width="64px" height="64px" viewBox="0 0 64 64" version="1.1" xmlns="http://www.w3.org/2000/svg" xmlns:xlink="http://www.w3.org/1999/xlink">
    <title>btn_sns_facebook_48</title>
    <g id="디자인" stroke="none" stroke-width="1" fill="none" fill-rule="evenodd">
        <g id="M/MKT4002_이벤트상세" transform="translate(-184.000000, -910.000000)">
            <g id="01-top" transform="translate(0.000000, 168.000000)">
                <g id="icon_share" transform="translate(184.000000, 742.000000)">
                    <g id="btn_sns_facebook_48">
                        <rect id="Rectangle" x="0" y="0" width="64" height="64"></rect>
                        <g id="ic">
                            <g id="ic_f_facebook_24" transform="translate(8.000000, 8.000000)">
                                <rect id="Rectangle-9-Copy-2" fill-opacity="0" fill="#F5F5F5" x="0" y="0" width="48" height="48"></rect>
                                <path d="M21.176443,40 L27.2842797,40 L27.2842797,24.8719948 L31.5453778,24.8719948 L32,19.8076673 L27.2842797,19.8076673 L27.2842797,16.9226771 C27.2842797,15.7283951 27.527358,15.2560104 28.6941342,15.2560104 L32,15.2560104 L32,10 L27.7704364,10 C23.2255279,10 21.176443,11.9792073 21.176443,15.7693307 L21.176443,19.8076673 L18,19.8076673 L18,24.9356725 L21.176443,24.9356725 L21.176443,40 Z" id="Fill-1" fill="#222222"></path>
                            </g>
                        </g>
                    </g>
                </g>
            </g>
        </g>
    </g>
</svg>