<svg xmlns="http://www.w3.org/2000/svg" width="24" height="24" viewBox="0 0 24 24">
    <path fill="#fff" fill-rule="evenodd" d="M24 12A12 12 0 1 1 12 0a12 12 0 0 1 12 12z"/>
    <path fill="#ddd" fill-rule="evenodd" d="M12 1A11 11 0 1 1 1 12 11.012 11.012 0 0 1 12 1m0-1a12 12 0 1 0 12 12A12 12 0 0 0 12 0z"/>
    <path fill="#da0f47" fill-rule="evenodd" d="M10.221 17h-.013a.979.979 0 0 1-.749-.365l-3.12-3.878a.993.993 0 0 1 .144-1.39.975.975 0 0 1 1.373.138l.006.007 2.378 2.955 5.92-7a.974.974 0 0 1 1.373-.119l.009.007a1 1 0 0 1 .11 1.4l-6.684 7.908a.978.978 0 0 1-.747.337z"/>
</svg>
