<svg id="img_CS_phone_80" xmlns="http://www.w3.org/2000/svg" width="80" height="80">
    <defs>
        <style>
            .cls-2{fill:none;stroke:#000;stroke-linecap:round;stroke-linejoin:round;stroke-miterlimit:10;stroke-width:2.5px}.cls-3{fill:#da0f47}
        </style>
    </defs>
    <path id="Rectangle" style="fill:none" d="M0 0h80v80H0z"/>
    <g id="ic" transform="translate(10 12)">
        <g id="Group_14" data-name="Group 14" transform="translate(0 12)">
            <path id="Path" class="cls-2" d="M26.913 20.018a2.48 2.48 0 0 0-3.749 0c-.877.869-1.753 1.738-2.615 2.622a.517.517 0 0 1-.722.133c-.567-.309-1.171-.56-1.716-.9a27.194 27.194 0 0 1-6.556-5.967A15.532 15.532 0 0 1 9.2 12.144a.539.539 0 0 1 .133-.692c.877-.847 1.731-1.716 2.593-2.585a2.49 2.49 0 0 0-.007-3.838c-.685-.692-1.37-1.37-2.055-2.063C9.16 2.259 8.46 1.544 7.746.844A2.5 2.5 0 0 0 4 .852c-.884.869-1.731 1.76-2.63 2.615a4.269 4.269 0 0 0-1.344 2.88A12.2 12.2 0 0 0 .969 11.6a31.914 31.914 0 0 0 5.665 9.436 35.054 35.054 0 0 0 11.609 9.082 16.79 16.79 0 0 0 6.431 1.871 4.713 4.713 0 0 0 4.044-1.54c.751-.84 1.6-1.606 2.394-2.409a2.506 2.506 0 0 0 .015-3.816q-2.1-2.11-4.214-4.206z" transform="translate(0 14)"/>
            <g id="Group_15" data-name="Group 15" transform="translate(28 .5)">
                <circle id="Oval" class="cls-3" cx="2" cy="2" r="2"/>
                <circle id="Oval-2" data-name="Oval" class="cls-3" cx="2" cy="2" r="2" transform="translate(8)"/>
                <circle id="Oval-3" data-name="Oval" class="cls-3" cx="2" cy="2" r="2" transform="translate(16)"/>
            </g>
        </g>
        <path id="Combined_Shape" data-name="Combined Shape" class="cls-2" d="M8 29H3a3 3 0 0 1-3-3V3a3 3 0 0 1 3-3h38a3 3 0 0 1 3 3v23a3 3 0 0 1-3 3H14.75L8 35z" transform="translate(16)"/>
    </g>
</svg>
