<svg width="60" height="60" viewBox="0 0 60 60" xmlns="http://www.w3.org/2000/svg">
    <g fill="none" fill-rule="evenodd">
        <path opacity=".4" d="M0 0h60v60H0z"/>
        <g stroke="#DA0F47" stroke-width="2.25">
            <path d="M28.5 23.625c1.632 0 3.263.622 4.508 1.867A6.355 6.355 0 0 1 34.875 30a6.355 6.355 0 0 1-1.867 4.508 6.355 6.355 0 0 1-4.508 1.867 6.355 6.355 0 0 1-4.508-1.867A6.355 6.355 0 0 1 22.125 30c0-1.632.622-3.263 1.867-4.508a6.355 6.355 0 0 1 4.508-1.867z"/>
            <path stroke-linecap="round" d="m33.75 35.25 4.5 4.5"/>
        </g>
        <path d="M12 44.775V24.372c0-1.693.898-3.262 2.368-4.139l12.243-7.301a6.628 6.628 0 0 1 6.778 0l12.243 7.301A4.823 4.823 0 0 1 48 24.372v20.403C48 46.556 46.535 48 44.727 48H15.273C13.465 48 12 46.556 12 44.775z" stroke="#000" stroke-width="2.25"/>
    </g>
</svg>
