<svg width="18" height="18" viewBox="0 0 18 18" xmlns="http://www.w3.org/2000/svg">
    <g fill="none" fill-rule="evenodd">
        <path d="M0 18h18V0H0z"/>
        <path d="M9.251 13.07a.54.54 0 0 0-.502 0l-3.41 1.792a.54.54 0 0 1-.783-.57l.651-3.796a.54.54 0 0 0-.155-.478L2.296 7.33a.54.54 0 0 1 .297-.92l3.812-.555a.54.54 0 0 0 .406-.295l1.705-3.454a.54.54 0 0 1 .968 0L11.19 5.56c.078.16.23.27.406.295l3.812.554a.54.54 0 0 1 .3.92l-2.757 2.69a.54.54 0 0 0-.155.477l.649 3.797a.54.54 0 0 1-.784.569L9.251 13.07z" fill="#FFB019" fill-rule="nonzero"/>
    </g>
</svg>
