<svg xmlns="http://www.w3.org/2000/svg" width="64" height="64" viewBox="0 0 64 64">
    <g>
        <g fill-rule="evenodd">
            <path d="M48.088 1059.75l-6.784-6.83a3.125 3.125 0 0 0-2.217-.92H23.694a3.714 3.714 0 0 0-3.7 3.72v28.76a3.714 3.714 0 0 0 3.7 3.72h7.328a1 1 0 0 0 0-2h-7.328a1.714 1.714 0 0 1-1.707-1.72v-28.76a1.714 1.714 0 0 1 1.707-1.72h15.283v6.18a1.907 1.907 0 0 0 1.9 1.91h6.142v10.03a1 1 0 1 0 1.991 0v-10.14a3.118 3.118 0 0 0-.922-2.23zm-7.12-4.33l4.64 4.66h-4.64v-4.66zm-14.338 12.09H41a1 1 0 0 0 0-2H26.63a1 1 0 0 0 0 2zm0 4.83h5.5a1 1 0 0 0 0-2h-5.5a1 1 0 0 0 0 2zm13.664-.22a8.44 8.44 0 1 0 8.391 8.44 8.416 8.416 0 0 0-8.391-8.44zm0 14.88a6.435 6.435 0 1 1 6.4-6.44 6.428 6.428 0 0 1-6.4 6.44z" transform="translate(-2 -1038)"/>
            <path fill="#da0f47" d="M39.393 1078.3h1.8v-1.81h-1.8v1.81zm0 6.34h1.8v-5.44h-1.8v5.44z" transform="translate(-2 -1038)"/>
        </g>
    </g>
</svg>
