<?xml version="1.0" encoding="UTF-8"?>
<svg width="80px" height="80px" viewBox="0 0 80 80" version="1.1" xmlns="http://www.w3.org/2000/svg" xmlns:xlink="http://www.w3.org/1999/xlink">
    <title>icon-01-80</title>
    <defs>
        <path d="M0,19.5 L18,34.5 L18,0 C13.4392329,4.94083104 7.43923288,11.440831 0,19.5 Z" id="path-1"></path>
        <rect id="path-3" x="0" y="0" width="18" height="18"></rect>
    </defs>
    <g id="Page-1" stroke="none" stroke-width="1" fill="none" fill-rule="evenodd">
        <g id="전화예약상담">
            <rect id="Rectangle" x="0" y="0" width="80" height="80"></rect>
            <g id="Group-34" transform="translate(19.000000, 9.000000)">
                <g id="Group-14">
                    <rect id="Rectangle" stroke="#808080" stroke-width="3" fill="#FFFFFF" x="1.5" y="1.5" width="38" height="60" rx="3"></rect>
                    <path d="M22.1383559,43.2602874 C21.4878199,42.6180559 20.6756858,42.6180559 20.0292934,43.2602874 C19.536212,43.749212 19.0431306,44.2381366 18.5583363,44.7353481 C18.4257429,44.8720813 18.3138673,44.9010853 18.1522692,44.8099298 C17.8332165,44.6359058 17.4934462,44.4950292 17.1868241,44.3044315 C15.7573024,43.4053074 14.559819,42.2492907 13.4990724,40.948254 C12.9728427,40.3018791 12.5046225,39.6099265 12.1772828,38.8309618 C12.1109861,38.6735115 12.1234167,38.5699258 12.2518665,38.4414795 C12.7449479,37.9649852 13.2255987,37.4760606 13.710393,36.987136 C14.3857902,36.3076136 14.3857902,35.5120752 13.7062495,34.8284095 C13.3209001,34.4389271 12.9355508,34.0577317 12.5502015,33.6682494 C12.1524215,33.2704802 11.7587851,32.8685676 11.3568616,32.4749418 C10.7063256,31.8409972 9.89419155,31.8409972 9.24779912,32.4790852 C8.75057417,32.9680099 8.27406693,33.4693648 7.7685549,33.9500025 C7.30033474,34.3933494 7.06415289,34.9361386 7.0144304,35.5700832 C6.93570312,36.6017971 7.18845913,37.5755029 7.54480368,38.5243481 C8.27406693,40.4883334 9.38453598,42.232717 10.7311869,43.8320806 C12.5502015,45.9949505 14.7214171,47.7061867 17.2614079,48.9409285 C18.4050252,49.496148 19.590078,49.9229212 20.8787193,49.9933595 C21.7654372,50.0430806 22.5361358,49.8193355 23.1535235,49.1273828 C23.5761647,48.6550319 24.0526719,48.2241153 24.5001744,47.7724816 C25.163141,47.1012461 25.1672845,46.289134 24.5084615,45.6261853 C23.7211886,44.8347904 22.9297723,44.0475389 22.1383559,43.2602874 Z" id="Path" fill="#808080" fill-rule="nonzero"></path>
                    <g id="Oval-+-Oval-Mask" transform="translate(22.738330, 33.500000) rotate(-45.000000) translate(-22.738330, -33.500000) translate(13.738330, 16.000000)">
                        <mask id="mask-2" fill="white">
                            <use xlink:href="#path-1"></use>
                        </mask>
                        <g id="Mask"></g>
                    </g>
                    <rect id="Rectangle" stroke="#808080" fill="#808080" x="13.5" y="6.5" width="2" height="2" rx="1"></rect>
                    <path d="M27.5,6.5 L19.5,6.5 C19.2238576,6.5 18.9738576,6.61192881 18.7928932,6.79289322 C18.6119288,6.97385763 18.5,7.22385763 18.5,7.5 C18.5,7.77614237 18.6119288,8.02614237 18.7928932,8.20710678 C18.9738576,8.38807119 19.2238576,8.5 19.5,8.5 L27.5,8.5 C27.7761424,8.5 28.0261424,8.38807119 28.2071068,8.20710678 C28.3880712,8.02614237 28.5,7.77614237 28.5,7.5 C28.5,7.22385763 28.3880712,6.97385763 28.2071068,6.79289322 C28.0261424,6.61192881 27.7761424,6.5 27.5,6.5 Z" id="Rectangle" stroke="#808080" fill="#808080"></path>
                    <g id="Rectangle-+-Rectangle-Mask" transform="translate(16.000000, 22.000000)">
                        <mask id="mask-4" fill="white">
                            <use xlink:href="#path-3"></use>
                        </mask>
                        <g id="Mask"></g>
                        <rect id="Rectangle" stroke="#EC455A" stroke-width="3" mask="url(#mask-4)" x="-16.5" y="1.5" width="33" height="33" rx="16.5"></rect>
                        <rect id="Rectangle" stroke="#EC455A" stroke-width="3" mask="url(#mask-4)" x="-10.5" y="7.5" width="21" height="21" rx="10.5"></rect>
                    </g>
                </g>
            </g>
        </g>
    </g>
</svg>