<svg width="60" height="60" viewBox="0 0 60 60" xmlns="http://www.w3.org/2000/svg">
    <g fill="none" fill-rule="evenodd">
        <path opacity=".4" d="M0 0h60v60H0z"/>
        <g stroke-width="2.25">
            <path stroke="#DA0F47" stroke-linecap="round" d="m24 31.114 4.597 4.136L36.75 27"/>
            <g stroke="#000" transform="translate(9 13.5)">
                <rect x="19.5" y="30" width="7.5" height="4.5" rx="2.25"/>
                <path d="M33 27c-.018 4-2.018 6-6 6M33 13.5v-1.35C33 5.44 27.627 0 21 0S9 5.44 9 12.15v1.35"/>
                <path d="M5.775 26.995C2.565 26.862 0 23.893 0 20.25c0-3.643 2.566-6.612 5.775-6.745L9 13.5V27l-3.225-.005zM36.225 26.995C39.435 26.862 42 23.893 42 20.25c0-3.643-2.566-6.612-5.775-6.745L33 13.5V27l3.225-.005z" stroke-linejoin="round"/>
            </g>
        </g>
    </g>
</svg>
