<svg xmlns="http://www.w3.org/2000/svg" width="32" height="32" viewBox="0 0 32 32">
    <g fill="none" fill-rule="evenodd">
        <g>
            <g>
                <g>
                    <g>
                        <g>
                            <path d="M0 0H32V32H0z" transform="translate(-603 -1378) translate(427 278) translate(56 1100) translate(120)"/>
                            <g transform="translate(-603 -1378) translate(427 278) translate(56 1100) translate(120)">
                                <circle cx="16" cy="16" r="16" fill="#F4F4F4"/>
                                <path fill="#616161" fill-rule="nonzero" d="M8.605 21c2.364 0 3.557-1.342 3.557-4.322V12H10.11v4.904c0 1.674-.537 2.268-1.504 2.268-.979 0-1.48-.594-1.48-2.268V12H5v4.678C5 19.658 6.23 21 8.605 21zm7.09-.166v-3.111h1.027l1.636 3.11h2.387l-1.982-3.502c.92-.427 1.528-1.258 1.528-2.553 0-2.137-1.575-2.778-3.473-2.778h-3.26v8.834h2.138zm.956-4.785h-.955v-2.375h.955c1.014 0 1.551.273 1.551 1.104 0 .831-.537 1.27-1.551 1.27zM27 20.834v-1.781h-3.45V12h-2.137v8.834H27z"/>
                            </g>
                        </g>
                    </g>
                </g>
            </g>
        </g>
    </g>
</svg>
