<svg xmlns="http://www.w3.org/2000/svg" width="30" height="30" viewBox="0 0 30 30">
    <g fill="none" fill-rule="evenodd">
        <circle cx="15" cy="15" r="15" fill="#F4F4F4"/>
        <path fill="#616161" fill-rule="nonzero" d="M12.206 21.25c5.664 0 8.761-4.81 8.761-8.98 0-.136 0-.274-.006-.405.6-.445 1.124-1.001 1.539-1.636-.55.249-1.143.419-1.769.497.639-.392 1.124-1.007 1.354-1.747-.594.36-1.252.622-1.954.766-.562-.615-1.36-.995-2.248-.995-1.698 0-3.078 1.414-3.078 3.154 0 .25.026.491.083.72-2.56-.13-4.827-1.387-6.347-3.298-.262.465-.415 1.008-.415 1.584 0 1.093.543 2.061 1.373 2.624-.505-.013-.977-.157-1.392-.393v.04c0 1.531 1.06 2.8 2.47 3.095-.255.072-.53.111-.81.111-.198 0-.39-.02-.581-.058.39 1.256 1.526 2.166 2.873 2.192-1.053.844-2.381 1.348-3.825 1.348-.249 0-.491-.013-.734-.046 1.347.903 2.97 1.427 4.706 1.427"/>
    </g>
</svg>
