<svg xmlns="http://www.w3.org/2000/svg" width="160" height="160" viewBox="0 0 160 160">
  <defs>
    <style>
      .cls-1 {
        fill: #fff;
        opacity: 0;
      }

      .cls-2, .cls-3 {
        fill-rule: evenodd;
      }

      .cls-3 {
        fill: #da0f47;
      }
    </style>
  </defs>
  <g id="icon_product-drivers">
    <rect id="icon_area" class="cls-1" width="160" height="160"/>
    <g id="shape">
      <path class="cls-2" d="M331.857,136.829l-18.808-21.014A8.473,8.473,0,0,0,306.743,113H259.449A8.444,8.444,0,0,0,251,121.419v90.162A8.443,8.443,0,0,0,259.449,220h66.1A8.443,8.443,0,0,0,334,211.581V142.433A8.4,8.4,0,0,0,331.857,136.829Zm-3.726,3.335a3.417,3.417,0,0,1,.546.854H312.956a3.5,3.5,0,0,1-3.5-3.5V119.3ZM325.551,215h-66.1A3.438,3.438,0,0,1,256,211.581V121.419A3.438,3.438,0,0,1,259.449,118h45.007v19.518a8.51,8.51,0,0,0,8.5,8.5H329v65.563A3.438,3.438,0,0,1,325.551,215Z" transform="translate(-212 -86)"/>
      <path id="Shape_46_copy" data-name="Shape 46 copy" class="cls-3" d="M278.846,174.772l12.473,9.834a2.5,2.5,0,0,0,3.1,0l12.443-9.833a2.5,2.5,0,0,0-3.1-3.924l-8.394,6.633v-19.13a2.5,2.5,0,0,0-5,0v19.138l-8.426-6.642A2.5,2.5,0,1,0,278.846,174.772Zm29.965,16.175h-32a2.5,2.5,0,0,0,0,5h32A2.5,2.5,0,0,0,308.811,190.947Z" transform="translate(-212 -86)"/>
    </g>
  </g>
</svg>
