<svg xmlns="http://www.w3.org/2000/svg" width="160" height="160" viewBox="0 0 160 160">
    <g>
        <g fill-rule="evenodd">
            <path fill="#da0f47" d="M1342.9 153.01a22.058 22.058 0 0 0-15.73 6.542 2.3 2.3 0 1 0 3.24 3.256 17.634 17.634 0 0 1 24.99 0 2.281 2.281 0 0 0 3.24 0 2.3 2.3 0 0 0 0-3.256 22.064 22.064 0 0 0-15.74-6.542zm-.05 8.013a14.143 14.143 0 0 0-10.09 4.194 2.3 2.3 0 0 0 3.24 3.257 9.657 9.657 0 0 1 13.69 0 2.3 2.3 0 1 0 3.25-3.257 14.16 14.16 0 0 0-10.09-4.194zm0 7.946a8.943 8.943 0 0 0-6.39 2.656 2.3 2.3 0 1 0 3.24 3.257 4.439 4.439 0 0 1 6.29 0 2.3 2.3 0 1 0 3.25-3.257 8.974 8.974 0 0 0-6.39-2.656z" transform="translate(-1262 -86)"/>
            <path d="M1399.51 99h-67.21a7.509 7.509 0 0 0-7.49 7.511v32.6a31.064 31.064 0 0 0-11.78 17.087h-28.55a7.509 7.509 0 0 0-7.49 7.511v46.656a7.509 7.509 0 0 0 7.49 7.511h22.64l-1.3 10.117h-9.69V233h43.91v-5.007h-9.86l-1.31-10.117h22.82a7.509 7.509 0 0 0 7.49-7.511v-19.68a31.1 31.1 0 0 0 12.45-14.882h22.22V170.8h-9.25l-1.31-10.117h16.22a7.509 7.509 0 0 0 7.49-7.511v-46.66a7.509 7.509 0 0 0-7.49-7.512zm-74.36 128.99h-14.3l1.31-10.117h11.68zm29.04-17.628a2.5 2.5 0 0 1-2.5 2.5h-67.21a2.5 2.5 0 0 1-2.5-2.5v-46.655a2.5 2.5 0 0 1 2.5-2.5h27.64q-.15 1.519-.15 3.08a30.916 30.916 0 0 0 42.22 28.905v17.174zm-11.29-20.041a26.038 26.038 0 1 1 25.95-26.038 26.02 26.02 0 0 1-25.95 26.039zm36.67-19.526h-6.41a31.735 31.735 0 0 0 .68-6.512 30.667 30.667 0 0 0-.21-3.6h4.63zm22.44-17.628a2.5 2.5 0 0 1-2.5 2.5h-26.88a30.9 30.9 0 0 0-42.83-19.512v-29.643a2.5 2.5 0 0 1 2.5-2.5h67.21a2.5 2.5 0 0 1 2.5 2.5v46.656z" transform="translate(-1262 -86)"/>
        </g>
    </g>
</svg>
