<?xml version="1.0" encoding="UTF-8"?>
<svg width="25px" height="31px" viewBox="0 0 25 31" version="1.1" xmlns="http://www.w3.org/2000/svg" xmlns:xlink="http://www.w3.org/1999/xlink">
    <title>icon-notice</title>
    <g id="Page-1" stroke="none" stroke-width="1" fill="none" fill-rule="evenodd">
        <g id="Group-11" transform="translate(0.000000, 1.000000)" stroke="#222222" stroke-width="2">
            <rect id="Rectangle" fill="#FFFFFF" x="8.51791098" y="21" width="8" height="8" rx="4"></rect>
            <path d="M12.3961128,3 C10.1114715,3 8.04311692,3.92603387 6.54592273,5.42322806 C5.04872853,6.92042226 4.12269466,8.98877679 4.12269466,11.2734181 L4.12257431,17.7946602 L1.98757783,23.32 C1.98757783,23.5077768 2.06368942,23.6777768 2.18674522,23.8008326 C2.30980102,23.9238884 2.47980102,24 2.66757783,24 L22.637528,23.9294665 C22.8058275,23.8461874 22.9244386,23.7025754 22.9801551,23.5377084 C23.0358715,23.3728414 23.0286933,23.1867193 22.9454142,23.0184198 L20.6685456,18.4178501 L20.6695309,11.2732802 C20.6695309,8.98877679 19.743497,6.92042226 18.2463028,5.42322806 C16.7491086,3.92603387 14.6807541,3 12.3961128,3 Z" id="Combined-Shape" fill="#FFFFFF"></path>
            <path d="M7,0 L6.41223579,0.25021122 C3.88405961,1.3264558 1.92150742,3.41140941 1,6 L1,6 L1,6" id="Path-3" stroke-linecap="round" stroke-linejoin="round"></path>
            <path d="M23,0 L22.4122358,0.25021122 C19.8840596,1.3264558 17.9215074,3.41140941 17,6 L17,6 L17,6" id="Path-3" stroke-linecap="round" stroke-linejoin="round" transform="translate(20.000000, 3.000000) scale(-1, 1) translate(-20.000000, -3.000000) "></path>
        </g>
    </g>
</svg>