<svg version="1.1" id="Layer_1" xmlns="http://www.w3.org/2000/svg" xmlns:xlink="http://www.w3.org/1999/xlink" x="0px" y="0px"
	 viewBox="0 0 32 32" style="enable-background:new 0 0 32 32;" xml:space="preserve">
<style type="text/css">
	.st0{fill:#FFFFFF;}
	.st1{enable-background:new    ;}
</style>
<circle class="st0" cx="16" cy="16.1" r="15.9"/>
<path d="M25.9,10.3c3.5,3.9,2.4,9-0.1,11.5c-0.4,0.5-1.7,0-1.2-0.9c2.6-2.4,2.7-7.4,0-9.9C23.9,10.1,25.3,9.8,25.9,10.3z"/>
<path d="M23.7,11.8c2,2.4,2.1,6,0,8.1c-0.4,0.5-2,0.6-1.5-0.6c2.3-2,1.8-5.7-0.1-7C21.8,11.2,23.3,11.4,23.7,11.8z"/>
<path d="M21.5,13.2c0.9,1,1.2,3.8-0.1,5.2c-0.2,0.3-1,1.1-1.8,0c1.8-0.8,1.5-4.4,0-5.2C20.5,11.9,21.3,13,21.5,13.2z"/>
<g class="st1">
	<path d="M9.4,19.6l-0.6-2H6.3l-0.7,2H4l2.6-7.4h2l2.5,7.4H9.4z M7.5,13.5l-0.9,3h1.9l-0.9-3C7.7,13.5,7.5,13.5,7.5,13.5z"/>
</g>
<path d="M18.2,15.8c0-4-3.6-3.7-3.6-3.7H12v7.5l2.6,0C18.6,19.4,18.2,15.8,18.2,15.8z"/>
<path class="st0" d="M16.7,15.9c0-2.4-1.9-2.2-1.9-2.2h-1.4v4.6l1.4,0C16.9,18,16.7,15.9,16.7,15.9z"/>
</svg>
