<svg xmlns="http://www.w3.org/2000/svg" width="64" height="64" viewBox="0 0 64 64">
    <g fill="none" fill-rule="evenodd">
        <g>
            <g>
                <g>
                    <g>
                        <g>
                            <g>
                                <path d="M0 0H64V64H0z" transform="translate(-1395 -931) translate(0 695) translate(270 120) translate(0 84) translate(936) translate(189 32)"/>
                                <g>
                                    <text fill="#DA0F47" font-family="NotoSansCJKkr-Bold, Noto Sans CJK KR" font-size="14" font-weight="bold" transform="translate(-1395 -931) translate(0 695) translate(270 120) translate(0 84) translate(936) translate(189 32) translate(7 8)">
                                        <tspan x="27.195" y="33.2">VIP</tspan>
                                    </text>
                                    <path stroke="#000" stroke-linecap="round" stroke-linejoin="round" stroke-width="2" d="M46.4 7.2L46.4 13.6 40 13.6" transform="translate(-1395 -931) translate(0 695) translate(270 120) translate(0 84) translate(936) translate(189 32) translate(7 8)"/>
                                    <path stroke="#000" stroke-linecap="round" stroke-linejoin="round" stroke-width="2" d="M36.174 44.781c-11.533 6.626-26.28 2.694-32.94-8.783C-3.423 24.521.528 9.845 12.062 3.218 23.594-3.406 38.34.526 45 12.003" transform="translate(-1395 -931) translate(0 695) translate(270 120) translate(0 84) translate(936) translate(189 32) translate(7 8)"/>
                                    <g stroke="#000" stroke-linecap="round" stroke-linejoin="round" stroke-width="2">
                                        <path d="M20 0L20 4M0 19.6L4 19.6M20 36L20 40" transform="translate(-1395 -931) translate(0 695) translate(270 120) translate(0 84) translate(936) translate(189 32) translate(7 8) translate(4.4 4)"/>
                                    </g>
                                </g>
                            </g>
                        </g>
                    </g>
                </g>
            </g>
        </g>
    </g>
</svg>
