<svg xmlns="http://www.w3.org/2000/svg" width="160" height="160" viewBox="0 0 160 160">
  <defs>
    <style>
      .cls-1 {
        fill: #fff;
        opacity: 0;
      }

      .cls-2 {
        fill: #da0f47;
      }

      .cls-2, .cls-3 {
        fill-rule: evenodd;
      }
    </style>
  </defs>
  <g id="icon_usage-guide-faq">
    <rect id="icon_area" class="cls-1" width="160" height="160"/>
    <g id="shape">
      <path class="cls-2" d="M680.524,146.787h16.067v4.32H685.739v6.778h9.266v4.355h-9.266v10.537h-5.215v-25.99ZM711.808,166.1h-8.456l-1.832,6.674h-5.285l8.35-25.99h6.131l8.385,25.99H713.64Zm-1.127-4.038-0.776-2.845c-0.81-2.7-1.514-5.69-2.29-8.5h-0.14c-0.67,2.845-1.446,5.795-2.22,8.5l-0.776,2.845h6.2Zm34.2,17a10.9,10.9,0,0,1-4.368.773,11.389,11.389,0,0,1-10.817-6.778c-5.567-1.054-9.266-5.971-9.266-13.381,0-8.465,4.756-13.382,11.662-13.382s11.662,4.952,11.662,13.382c0,7.094-3.383,11.87-8.562,13.205,1.2,1.967,3.559,2.774,5.919,2.774a9.224,9.224,0,0,0,2.854-.421ZM732.1,169.019c3.876,0,6.341-3.512,6.341-9.342,0-5.585-2.465-8.921-6.341-8.921s-6.342,3.336-6.342,8.921C725.755,165.507,728.221,169.019,732.1,169.019Z" transform="translate(-632 -86)"/>
      <path id="Shape_47_copy" data-name="Shape 47 copy" class="cls-3" d="M674.943,218a2.5,2.5,0,0,1-2.5-2.492V204.327A18.491,18.491,0,0,1,655,185.916V133.438A18.491,18.491,0,0,1,673.5,115h77A18.491,18.491,0,0,1,769,133.438v52.478a18.492,18.492,0,0,1-18.5,18.441H692.843a3.507,3.507,0,0,0-2.3.863L676.59,217.387A2.507,2.507,0,0,1,674.943,218ZM673.5,119.981A13.494,13.494,0,0,0,660,133.438v52.478a13.494,13.494,0,0,0,13.5,13.457h1.443a2.5,2.5,0,0,1,2.5,2.492v8.154l9.8-8.55a8.513,8.513,0,0,1,5.6-2.1H750.5A13.494,13.494,0,0,0,764,185.916V133.438a13.494,13.494,0,0,0-13.5-13.457h-77Z" transform="translate(-632 -86)"/>
    </g>
  </g>
</svg>
