<svg xmlns="http://www.w3.org/2000/svg" width="20" height="20" viewBox="0 0 20 20">
    <g fill="none" fill-rule="evenodd">
        <g>
            <g>
                <g>
                    <g>
                        <g>
                            <path d="M0 0H20V20H0z" transform="translate(-313 -758) translate(270 752) translate(0 4) translate(43 2)"/>
                            <g>
                                <g>
                                    <g>
                                        <path stroke="#222" stroke-linecap="round" stroke-linejoin="round" stroke-width="1.5" d="M6 3C2.686 3 0 5.686 0 9s2.686 6 6 6 6-2.686 6-6c0-.904-.2-1.761-.558-2.53" transform="translate(-313 -758) translate(270 752) translate(0 4) translate(43 2) translate(4 2)"/>
                                        <path fill="#222" d="M8 2.207V4.5c0 .276-.224.5-.5.5H5.207c-.276 0-.5-.224-.5-.5 0-.133.053-.26.147-.354l2.292-2.292c.196-.196.512-.196.708 0 .093.093.146.22.146.353z" transform="translate(-313 -758) translate(270 752) translate(0 4) translate(43 2) translate(4 2) rotate(-45 6 3)"/>
                                    </g>
                                </g>
                            </g>
                        </g>
                    </g>
                </g>
            </g>
        </g>
    </g>
</svg>
