<?xml version="1.0" encoding="UTF-8"?>
<svg width="48px" height="48px" viewBox="0 0 48 48" version="1.1" xmlns="http://www.w3.org/2000/svg" xmlns:xlink="http://www.w3.org/1999/xlink">
    <title>icon-05-48</title>
    <g id="Page-1" stroke="none" stroke-width="1" fill="none" fill-rule="evenodd">
        <g id="Group-22">
            <rect id="Rectangle" x="0" y="0" width="48" height="48"></rect>
            <g id="Group-19" transform="translate(7.800000, 8.400000)">
                <g id="Group-18" stroke="#222222" stroke-width="1.5">
                    <polyline id="Path-3" points="0 11.4 16.8 4.01331095 32.4 11.4"></polyline>
                    <path d="M26.4,0.75 L6.15,1.2 L6.15,15.8562505 L16.5,21.9303817 L26.85,15.8562505 L26.4,0.75 Z" id="Rectangle" fill="#EDEDED"></path>
                    <path d="M0,11.4 L16.8,21.3 L32.4,11.4 L32.4,30 C32.4,30.6627417 31.8627417,31.2 31.2,31.2 L1.2,31.2 C0.5372583,31.2 -5.84971365e-16,30.6627417 0,30 L0,11.4 L0,11.4 Z" id="Rectangle" fill="#FFFFFF" stroke-linecap="round" stroke-linejoin="round"></path>
                </g>
                <rect id="Rectangle" fill="#222222" x="9.6" y="4.8" width="13.8" height="1.8" rx="0.9"></rect>
                <rect id="Rectangle" fill="#222222" x="9.6" y="8.4" width="13.8" height="1.8" rx="0.9"></rect>
                <rect id="Rectangle" fill="#222222" x="9.6" y="12" width="9" height="1.8" rx="0.9"></rect>
            </g>
        </g>
    </g>
</svg>