<svg xmlns="http://www.w3.org/2000/svg" xmlns:xlink="http://www.w3.org/1999/xlink" width="80" height="80" viewBox="0 0 80 80">
    <defs>
        <path id="z0ku4aph4a" d="M0 19.5l18 15V0L0 19.5z"/>
        <path id="sgh6f4srmb" d="M0 0H18V18H0z"/>
    </defs>
    <g fill="none" fill-rule="evenodd">
        <g>
            <g>
                <g>
                    <g>
                        <g>
                            <path d="M0 0H80V80H0z" transform="translate(-387 -840) translate(387 244) translate(0 432) translate(0 161) translate(0 3)"/>
                            <g>
                                <g transform="translate(-387 -840) translate(387 244) translate(0 432) translate(0 161) translate(0 3) translate(19 9)">
                                    <rect width="38" height="60" x="1.5" y="1.5" fill="#FFF" stroke="#767676" stroke-width="3" rx="3"/>
                                    <path fill="#767676" fill-rule="nonzero" d="M22.138 43.26c-.65-.642-1.462-.642-2.109 0-.493.49-.986.978-1.47 1.475-.133.137-.245.166-.407.075-.319-.174-.659-.315-.965-.506-1.43-.899-2.627-2.055-3.688-3.356-.526-.646-.994-1.338-1.322-2.117-.066-.157-.054-.261.075-.39.493-.476.974-.965 1.458-1.454.676-.68.676-1.475-.004-2.159-.385-.39-.77-.77-1.156-1.16-.398-.398-.791-.8-1.193-1.193-.65-.634-1.463-.634-2.11.004-.496.489-.973.99-1.478 1.471-.469.443-.705.986-.755 1.62-.078 1.032.174 2.006.53 2.954.73 1.964 1.84 3.709 3.187 5.308 1.82 2.163 3.99 3.874 6.53 5.109 1.144.555 2.33.982 3.618 1.052.886.05 1.657-.174 2.275-.866.422-.472.899-.903 1.346-1.355.663-.67.667-1.483.008-2.146-.787-.791-1.578-1.578-2.37-2.366z"/>
                                    <g transform="rotate(-45 35.183 8.916)"/>
                                    <rect width="3" height="3" x="13" y="6" fill="#767676" rx="1.5"/>
                                    <path fill="#767676" d="M19.5 6h8c.828 0 1.5.672 1.5 1.5S28.328 9 27.5 9h-8c-.828 0-1.5-.672-1.5-1.5S18.672 6 19.5 6z"/>
                                    <g transform="translate(16 22)">
                                        <mask id="y76hlni2tc" fill="#fff">
                                            <use xlink:href="#sgh6f4srmb"/>
                                        </mask>
                                        <rect width="33" height="33" x="-16.5" y="1.5" stroke="#EC455A" stroke-width="3" mask="url(#y76hlni2tc)" rx="16.5"/>
                                        <rect width="21" height="21" x="-10.5" y="7.5" stroke="#EC455A" stroke-width="3" mask="url(#y76hlni2tc)" rx="10.5"/>
                                    </g>
                                </g>
                            </g>
                        </g>
                    </g>
                </g>
            </g>
        </g>
    </g>
</svg>
