<?xml version="1.0" encoding="UTF-8"?>
<svg width="80px" height="80px" viewBox="0 0 80 80" version="1.1" xmlns="http://www.w3.org/2000/svg" xmlns:xlink="http://www.w3.org/1999/xlink">
    <title>icon-06-80</title>
    <g id="Page-1" stroke="none" stroke-width="1" fill="none" fill-rule="evenodd">
        <g id="Group-27">
            <g id="Group-40">
                <rect id="Rectangle" x="0" y="0" width="80" height="80"></rect>
                <g id="Group-42" transform="translate(6.000000, 8.000000)" stroke-width="3">
                    <path d="M56.2407851,34.5 L11.7592149,34.5 C11.4300053,34.5 11.1200387,34.6073427 10.868158,34.7933445 C10.6162773,34.9793462 10.4224825,35.244007 10.3256166,35.5586432 L2.56255388,61 C2.56255388,61.4142136 2.7304471,61.7892136 3.00189371,62.0606602 C3.27334031,62.3321068 3.64834031,62.5 4.06255388,62.5 L64.3788029,62.4335983 C64.7746802,62.311721 65.0836792,62.0409208 65.2632396,61.7016207 C65.4428,61.3623206 65.4929218,60.9545204 65.3710444,60.5586432 L57.6743834,35.5586432 C57.5775175,35.244007 57.3837227,34.9793462 57.131842,34.7933445 C56.8799613,34.6073427 56.5699947,34.5 56.2407851,34.5 Z" id="Rectangle" stroke="#808080"></path>
                    <g id="Group-41" transform="translate(18.000000, 0.000000)">
                        <path d="M16,0 C7.176,0 0,7.063875 0,15.75 C0,26.667375 14.4426667,41.010375 15.056,41.61675 C15.3173333,41.871375 15.6586667,42 16,42 C16.3413333,42 16.6826667,41.871375 16.944,41.61675 C17.5573333,41.010375 32,26.667375 32,15.75 C32,7.063875 24.824,0 16,0 Z" id="Shape" stroke="#808080" fill="#FFFFFF" fill-rule="nonzero" stroke-linejoin="bevel"></path>
                        <rect id="Rectangle" stroke="#EC455A" x="9.5" y="8.91176471" width="12.9413919" height="13" rx="6.47069597"></rect>
                    </g>
                </g>
            </g>
        </g>
    </g>
</svg>