<svg xmlns="http://www.w3.org/2000/svg" width="48" height="48" viewBox="0 0 48 48">
    <g fill="none" fill-rule="evenodd">
        <g>
            <g>
                <path d="M0 0L48 0 48 48 0 48z" transform="translate(-231 -919) translate(231 919)"/>
                <path fill="#EC455A" fill-rule="nonzero" d="M42 12h-4v18H12v4c0 1.1.9 2 2 2h22l8 8V14c0-1.1-.9-2-2-2zm-8 12V6c0-1.1-.9-2-2-2H6c-1.1 0-2 .9-2 2v28l8-8h20c1.1 0 2-.9 2-2z" transform="translate(-231 -919) translate(231 919)"/>
            </g>
        </g>
    </g>
</svg>
