<svg width="80" height="80" viewBox="0 0 80 80" xmlns="http://www.w3.org/2000/svg">
    <g fill="none" fill-rule="evenodd">
        <path d="M0 80h80V0H0z"/>
        <g transform="matrix(-1 0 0 1 69.672 6.667)" stroke-width="2">
            <path d="m4.265 10.624 27.54-5.046a4 4 0 0 1 4.664 3.264l7.96 46.837a4 4 0 0 1-3.223 4.605l-27.54 5.046a4 4 0 0 1-4.664-3.264l-7.96-46.837a4 4 0 0 1 3.223-4.605z" stroke="#000"/>
            <rect stroke="#000" fill="#FFF" x="13.969" width="40.576" height="54.535" rx="4"/>
            <path d="M36.497 18.73c-.942.736-1.569 1.674-1.938 2.356-.37-.682-.996-1.62-1.938-2.356-.982-.768-2.096-1.158-3.312-1.158-3.392 0-5.95 2.806-5.95 6.526 0 4.02 3.191 6.77 8.022 10.932.82.707 1.75 1.509 2.717 2.363a.695.695 0 0 0 .922 0c.966-.854 1.896-1.656 2.717-2.363 4.83-4.163 8.022-6.913 8.022-10.932 0-3.72-2.558-6.526-5.95-6.526-1.216 0-2.33.39-3.312 1.158z" stroke="#DA0F47" fill="#FFF" stroke-linejoin="round"/>
        </g>
    </g>
</svg>
