<?xml version="1.0" encoding="UTF-8"?>
<svg width="80px" height="80px" viewBox="0 0 80 80" version="1.1" xmlns="http://www.w3.org/2000/svg" xmlns:xlink="http://www.w3.org/1999/xlink">
    <title>btn_sns_URL_80</title>
    <defs>
        <polygon id="path-1" points="0.0121563118 0.01244013 24.8113925 0.01244013 24.8113925 23.4645512 0.0121563118 23.4645512"></polygon>
        <polygon id="path-3" points="0 0.0303666983 24.7915521 0.0303666983 24.7915521 23.436922 0 23.436922"></polygon>
    </defs>
    <g id="Page-1" stroke="none" stroke-width="1" fill="none" fill-rule="evenodd">
        <g id="[MO]-CS_매장찾기상세_팝업_full_v0.8_200909" transform="translate(-164.000000, -5137.000000)">
            <g id="02-contents" transform="translate(39.000000, 198.000000)">
                <g id="02-10-share" transform="translate(125.000000, 4939.000000)">
                    <g id="btn_sns_URL_80">
                        <rect id="Rectangle" x="0" y="0" width="80" height="80"></rect>
                        <circle id="Oval" fill="#F4F4F4" cx="40" cy="40" r="40"></circle>
                        <g id="icon_url" transform="translate(23.000000, 22.000000)">
                            <g id="Group-3" transform="translate(10.378230, 0.056290)">
                                <mask id="mask-2" fill="white">
                                    <use xlink:href="#path-1"></use>
                                </mask>
                                <g id="Clip-2"></g>
                                <path d="M2.65512925,8.83503531 C-1.49128292,13.1250932 -0.586452471,20.244559 4.16320291,23.3984412 C4.31970112,23.5024297 4.52788429,23.481742 4.66232017,23.3504677 C5.66220421,22.373402 6.50813305,21.4270586 7.24883626,20.2234588 C7.36217203,20.0393312 7.29165505,19.800357 7.10154787,19.6973994 C6.37706494,19.3048824 5.6562247,18.5689216 5.25037405,17.7915165 L5.24989294,17.7917914 C4.76376565,16.8237981 4.59826381,15.7386889 4.85565766,14.6180462 C4.85593258,14.618115 4.85613877,14.6181837 4.85641369,14.6181837 C5.15257126,13.1834449 6.69294802,11.8487771 7.8693307,10.614455 C7.86685642,10.6135615 7.86445087,10.6127368 7.86197659,10.611912 L12.2697689,6.11312112 C14.0263016,4.32029907 16.915642,4.30559085 18.6904568,6.08033691 C20.4831414,7.83686952 20.512764,10.7407807 18.7563002,12.5334653 L16.0864146,15.2789539 C15.9629068,15.4060357 15.9228372,15.5914005 15.9806391,15.7589642 C16.5953602,17.5416142 16.7465662,20.0551391 16.3345986,21.954149 C16.323052,22.007346 16.3886204,22.0421234 16.4266968,22.0032909 L22.1089496,16.2037161 C25.7388558,12.4988941 25.7080647,6.46687443 22.0404945,2.7993729 C18.2976649,-0.94345671 12.2044067,-0.91232202 8.49999718,2.86844655 L2.67787888,8.81070489 C2.67018112,8.81881503 2.66289574,8.82706263 2.65512925,8.83503531" id="Fill-1" fill="#616161" mask="url(#mask-2)"></path>
                            </g>
                            <g id="Group-6" transform="translate(0.000000, 11.740390)">
                                <mask id="mask-4" fill="white">
                                    <use xlink:href="#path-3"></use>
                                </mask>
                                <g id="Clip-5"></g>
                                <path d="M23.6562749,12.5312522 C23.6562062,12.5314584 23.6560687,12.5317333 23.656,12.5319395 C23.6596427,12.5303667 23.6630105,12.5289841 23.6666532,12.5273346 C24.8263344,10.4068767 25.0545868,7.97486561 24.5111387,5.60402426 L24.5086644,5.606636 L24.5059839,5.60539886 C23.9898903,3.4938758 22.5739149,1.39706096 20.6507808,0.106036644 C20.4854164,-0.004962306 20.2211495,0.007890204 20.0662321,0.133184994 C19.0920531,0.920830794 18.1385618,1.93088687 17.5094074,3.21978056 C17.4105736,3.42212168 17.4845958,3.66515096 17.6793079,3.77821181 C18.4094955,4.20213845 19.0688911,4.82277035 19.5104126,5.64677432 L19.5110999,5.64629321 C19.8551623,6.22829885 20.1942074,7.33272122 19.974615,8.5194134 L19.9741339,8.5194134 C19.7692498,10.0927806 18.1804871,11.5359044 16.9174359,12.836276 L16.9180545,12.8368945 C15.9566592,13.8200772 13.5126891,16.3115397 12.5341114,17.311355 C10.7775788,19.1040396 7.87373629,19.1336622 6.08098297,17.3771983 C4.28822965,15.6206657 4.25860702,12.7167545 6.0150709,10.9240699 L8.69286043,8.17033373 C8.81423761,8.04552005 8.85547561,7.86414158 8.80152256,7.69863974 C8.20693933,5.87433935 8.04404923,3.41744804 8.41931503,1.52056877 C8.42976199,1.46764667 8.36474341,1.43390024 8.32694191,1.47238904 L2.73018928,7.1846768 C-0.936968598,10.9275751 -0.905902638,17.0214519 2.79940039,20.7265487 C6.54202381,24.3936379 12.6044222,24.3316434 16.2714426,20.5889512 C17.5453532,19.1640409 22.9986663,14.1149976 23.6562749,12.5312522" id="Fill-4" fill="#616161" mask="url(#mask-4)"></path>
                            </g>
                        </g>
                    </g>
                </g>
            </g>
        </g>
    </g>
</svg>