<svg xmlns="http://www.w3.org/2000/svg" width="64" height="64" viewBox="0 0 64 64">
    <g fill="none" fill-rule="evenodd">
        <g>
            <g>
                <g>
                    <g>
                        <g>
                            <g>
                                <g>
                                    <path d="M0 0H64V64H0z" transform="translate(-927 -931) translate(0 695) translate(270 120) translate(0 84) translate(467) translate(169 32) translate(21)"/>
                                    <g>
                                        <g stroke="#000" stroke-width="2">
                                            <path stroke-linejoin="round" d="M35.014 0L40 5l-6.963 12.155-3.64-.809-3.822 3.864 14.041 14.042c.665.665.665 1.743 0 2.408l-3.956 3.956c-.665.665-1.743.665-2.408 0L19.246 26.61 8.63 37.345c-1.75 1.769-4.602 1.785-6.371.035l-.056-.057c-1.776-1.819-1.76-4.727.037-6.527l10.587-10.605-3.017-3.018c-2.513.476-5.209-.258-7.153-2.202C.02 12.335-.391 8.317 1.42 5.249l3.55 3.55c.299.3.766.33 1.1.09l.08-.067 1.66-1.538.02-.02c.309-.305.335-.787.077-1.123l-.07-.08L4.24 2.426c3.069-1.818 7.091-1.407 9.73 1.23 1.944 1.945 2.678 4.64 2.203 7.152l3.012 3.013L23 10V6.037L35.014 0z" transform="translate(-927 -931) translate(0 695) translate(270 120) translate(0 84) translate(467) translate(169 32) translate(21) translate(9 9)"/>
                                            <path d="M4.24 2.426c3.07-1.818 7.092-1.407 9.73 1.23 1.945 1.945 2.679 4.64 2.204 7.152l23.442 23.444c.665.665.665 1.743 0 2.408l-3.956 3.956c-.665.665-1.743.665-2.408 0L9.81 17.173c-2.513.476-5.209-.258-7.153-2.202C.02 12.335-.391 8.317 1.42 5.249l3.55 3.55c.299.3.766.33 1.1.09l.08-.067 1.66-1.538.02-.02c.309-.305.335-.787.077-1.123l-.07-.08L4.24 2.426z" transform="translate(-927 -931) translate(0 695) translate(270 120) translate(0 84) translate(467) translate(169 32) translate(21) translate(9 9)"/>
                                        </g>
                                        <path fill="#F4F4F4" stroke="#DA0F47" stroke-width="2" d="M35 22l.307.004C42.345 22.167 48 27.923 48 35c0 7.18-5.82 13-13 13s-13-5.82-13-13 5.82-13 13-13h0z" transform="translate(-927 -931) translate(0 695) translate(270 120) translate(0 84) translate(467) translate(169 32) translate(21) translate(9 9)"/>
                                        <text fill="#DA0F47" font-family="NotoSansCJKkr-Bold, Noto Sans CJK KR" font-size="10" font-weight="bold" transform="translate(-927 -931) translate(0 695) translate(270 120) translate(0 84) translate(467) translate(169 32) translate(21) translate(9 9)">
                                            <tspan x="27" y="41">3년</tspan>
                                        </text>
                                    </g>
                                </g>
                            </g>
                        </g>
                    </g>
                </g>
            </g>
        </g>
    </g>
</svg>
