<?xml version="1.0" encoding="UTF-8"?>
<svg width="120px" height="120px" viewBox="0 0 120 120" version="1.1" xmlns="http://www.w3.org/2000/svg" xmlns:xlink="http://www.w3.org/1999/xlink">
    <title>icon-05-120</title>
    <g id="Page-1" stroke="none" stroke-width="1" fill="none" fill-rule="evenodd">
        <g id="ic_care_afterservice_120">
            <g id="Group-76">
                <rect id="Rectangle" x="0" y="0" width="120" height="120"></rect>
                <g id="Group-75" transform="translate(12.000000, 24.000000)" stroke="#767676" stroke-width="2">
                    <g id="Group-73">
                        <path d="M85.4353225,16 L69.0850442,16 L69.0850442,46.5989822 C69.0850442,47.151267 68.8611866,47.651267 68.4992578,48.0131958 C68.137329,48.3751246 67.637329,48.5989822 67.0850442,48.5989822 L4.59468055,48.5989822 L4.59468055,61 C4.59468055,61.5522847 4.81853817,62.0522847 5.18046698,62.4142136 C5.5423958,62.7761424 6.0423958,63 6.59468055,63 L93.2000053,63 C93.75229,63 94.25229,62.7761424 94.6142189,62.4142136 C94.9761477,62.0522847 95.2000053,61.5522847 95.2000053,61 L95.2000053,40.354344 L86.3724447,16.6509985 C86.2995603,16.4552929 86.1696982,16.2925433 86.0058479,16.1787201 C85.8419977,16.0648968 85.6441593,16 85.4353225,16 Z" id="Rectangle"></path>
                        <rect id="Rectangle" fill="#FFFFFF" x="12.7000006" y="54.3000029" width="17.5000011" height="17.5000011" rx="8.75000054"></rect>
                        <rect id="Rectangle" fill="#FFFFFF" x="67.3000036" y="54.3000029" width="17.5000011" height="17.5000011" rx="8.75000054"></rect>
                        <path d="M94.1877289,38.6500022 L77.5877281,38.6500022 C76.1517877,38.6500022 74.9877279,37.4859425 74.9877279,36.050002 L74.9877279,25.3500014 C74.9877279,24.7977166 75.4354432,24.3500014 75.9877279,24.3500014 L89.2372167,24.3500014 L89.2372167,24.3500014" id="Path-22"></path>
                        <line x1="94.6326348" y1="47.5" x2="86.8780759" y2="47.5" id="Path-23" stroke-linecap="round" stroke-linejoin="round"></line>
                        <path d="M66.3000036,1 L3.90000021,1 C3.09918727,1 2.37418721,1.32459358 1.8493904,1.8493904 C1.32459358,2.37418721 1,3.09918727 1,3.90000021 L1,46.8000026 C1,47.6008155 1.32459358,48.3258156 1.8493904,48.8506124 C2.37418721,49.3754092 3.09918727,49.7000028 3.90000021,49.7000028 L67.2000039,49.7000028 C67.7522886,49.7000028 68.2522886,49.4761452 68.6142174,49.1142164 C68.9761462,48.7522875 69.2000039,48.2522875 69.2000039,47.7000028 L69.2000039,3.90000021 C69.2000039,3.09918727 68.8754103,2.37418721 68.3506135,1.8493904 C67.8258166,1.32459358 67.1008166,1 66.3000036,1 Z" id="Rectangle" fill="#FFFFFF"></path>
                    </g>
                    <path d="M38.1245337,10 C38.9004264,10 39.5294118,10.6289854 39.5294118,11.4048781 L39.5296987,15.3325949 C40.0467473,15.5133333 40.5465586,15.7307908 41.0260072,15.9818418 L43.8246387,13.1840193 C44.3732777,12.6353803 45.2627973,12.6353803 45.8114363,13.1840193 L45.8114363,13.1840193 L48.8159807,16.1885637 C49.3646197,16.7372027 49.3646197,17.6267223 48.8159807,18.1753613 L48.8159807,18.1753613 L45.9403241,21.0511936 C46.1615188,21.5077961 46.3527235,21.9816312 46.5113789,22.4701397 L50.5951219,22.4705882 C51.3710146,22.4705882 52,23.0995736 52,23.8754663 L52,28.1245337 C52,28.9004264 51.3710146,29.5294118 50.5951219,29.5294118 L46.5113789,29.5298603 C46.3527235,30.0183688 46.1615188,30.4922039 45.9403241,30.9488064 L48.8159807,33.8246387 C49.3646197,34.3732777 49.3646197,35.2627973 48.8159807,35.8114363 L45.8114363,38.8159807 C45.2627973,39.3646197 44.3732777,39.3646197 43.8246387,38.8159807 L41.0260072,36.0181582 C40.5465586,36.2692092 40.0467473,36.4866667 39.5296987,36.6674051 L39.5294118,40.5951219 C39.5294118,41.3710146 38.9004264,42 38.1245337,42 L33.8754663,42 C33.0995736,42 32.4705882,41.3710146 32.4705882,40.5951219 L32.4702702,36.8202645 C31.8982921,36.648391 31.3455041,36.4321778 30.8158994,36.1756182 L28.1753613,38.8159807 C27.6267223,39.3646197 26.7372027,39.3646197 26.1885637,38.8159807 L26.1885637,38.8159807 L23.1840193,35.8114363 C22.6353803,35.2627973 22.6353803,34.3732777 23.1840193,33.8246387 L23.1840193,33.8246387 L25.7463534,31.2609304 C25.4575199,30.7092758 25.2131595,30.1306656 25.0180328,29.5298603 L21.4048781,29.5294118 C20.6289854,29.5294118 20,28.9004264 20,28.1245337 L20,23.8754663 C20,23.0995736 20.6289854,22.4705882 21.4048781,22.4705882 L25.0180328,22.4701397 C25.2132774,21.8689713 25.4578153,21.2900248 25.7468772,20.7380694 L23.1840193,18.1753613 C22.6353803,17.6267223 22.6353803,16.7372027 23.1840193,16.1885637 L26.1885637,13.1840193 C26.7372027,12.6353803 27.6267223,12.6353803 28.1753613,13.1840193 L30.8158994,15.8243818 C31.3455041,15.5678222 31.8982921,15.351609 32.4702702,15.1797355 L32.4705882,11.4048781 C32.4705882,10.6289854 33.0995736,10 33.8754663,10 L38.1245337,10 Z M35.7647059,20.3529412 C32.6459214,20.3529412 30.1176471,22.8812155 30.1176471,26 C30.1176471,29.1187845 32.6459214,31.6470588 35.7647059,31.6470588 C38.8834904,31.6470588 41.4117647,29.1187845 41.4117647,26 C41.4117647,22.8812155 38.8834904,20.3529412 35.7647059,20.3529412 Z" id="Combined-Shape" fill="#FFFFFF"></path>
                </g>
            </g>
        </g>
    </g>
</svg>