<?xml version="1.0" encoding="UTF-8"?>
<svg width="120px" height="120px" viewBox="0 0 120 120" version="1.1" xmlns="http://www.w3.org/2000/svg" xmlns:xlink="http://www.w3.org/1999/xlink">
    <title>icon-03-120</title>
    <g id="Page-1" stroke="none" stroke-width="1" fill="none" fill-rule="evenodd">
        <g id="Group-84">
            <rect id="Rectangle" x="0" y="0" width="120" height="120"></rect>
            <g id="Group-83" transform="translate(9.000000, 18.000000)" stroke="#979797" stroke-width="2">
                <g id="Group-80">
                    <path d="M86,1 L3,1 C2.44771525,1 1.94771525,1.22385763 1.58578644,1.58578644 C1.22385763,1.94771525 1,2.44771525 1,3 L1,19 L88,19 L88,3 C88,2.44771525 87.7761424,1.94771525 87.4142136,1.58578644 C87.0522847,1.22385763 86.5522847,1 86,1 Z" id="Rectangle" fill="#FFFFFF"></path>
                    <path d="M28,19 L7,19 L7,62.5 C7,65.3994949 8.17525253,68.0244949 10.0753788,69.9246212 C11.9755051,71.8247475 14.6005051,73 17.5,73 C20.3994949,73 23.0244949,71.8247475 24.9246212,69.9246212 C26.8247475,68.0244949 28,65.3994949 28,62.5 L28,19 Z" id="Rectangle" fill="#FFFFFF"></path>
                    <path d="M55,19 L34,19 L34,62.5 C34,65.3994949 35.1752525,68.0244949 37.0753788,69.9246212 C38.9755051,71.8247475 41.6005051,73 44.5,73 C47.3994949,73 50.0244949,71.8247475 51.9246212,69.9246212 C53.8247475,68.0244949 55,65.3994949 55,62.5 L55,19 Z" id="Rectangle" fill="#FFFFFF"></path>
                    <path d="M22,12 L13,12 C12.7238576,12 12.4738576,12.1119288 12.2928932,12.2928932 C12.1119288,12.4738576 12,12.7238576 12,13 L12,19 L23,19 L23,13 C23,12.7238576 22.8880712,12.4738576 22.7071068,12.2928932 C22.5261424,12.1119288 22.2761424,12 22,12 Z" id="Rectangle" fill="#FFFFFF"></path>
                    <path d="M49,12 L40,12 C39.7238576,12 39.4738576,12.1119288 39.2928932,12.2928932 C39.1119288,12.4738576 39,12.7238576 39,13 L39,18 C39,18.2761424 39.1119288,18.5261424 39.2928932,18.7071068 C39.4738576,18.8880712 39.7238576,19 40,19 L49,19 C49.2761424,19 49.5261424,18.8880712 49.7071068,18.7071068 C49.8880712,18.5261424 50,18.2761424 50,18 L50,13 C50,12.7238576 49.8880712,12.4738576 49.7071068,12.2928932 C49.5261424,12.1119288 49.2761424,12 49,12 Z" id="Rectangle" fill="#FFFFFF"></path>
                    <path d="M7.59918569,42.4158289 C8.71446969,46.7167174 11.9853489,47.9114411 17.4118235,46 C22.838298,44.0885589 26.2340854,44.8667761 27.5991857,48.3346517" id="Path-28"></path>
                    <path d="M34.5991857,42.4158289 C35.7144697,46.7167174 38.9853489,47.9114411 44.4118235,46 C49.838298,44.0885589 53.2340854,44.8667761 54.5991857,48.3346517" id="Path-28"></path>
                    <path d="M82,19 L61,19 L61,62.5 C61,65.3994949 62.1752525,68.0244949 64.0753788,69.9246212 C65.9755051,71.8247475 68.6005051,73 71.5,73 C74.3994949,73 77.0244949,71.8247475 78.9246212,69.9246212 C80.8247475,68.0244949 82,65.3994949 82,62.5 L82,19 Z" id="Rectangle" fill="#FFFFFF"></path>
                    <path d="M76,12 L67,12 C66.7238576,12 66.4738576,12.1119288 66.2928932,12.2928932 C66.1119288,12.4738576 66,12.7238576 66,13 L66,18 C66,18.2761424 66.1119288,18.5261424 66.2928932,18.7071068 C66.4738576,18.8880712 66.7238576,19 67,19 L76,19 C76.2761424,19 76.5261424,18.8880712 76.7071068,18.7071068 C76.8880712,18.5261424 77,18.2761424 77,18 L77,13 C77,12.7238576 76.8880712,12.4738576 76.7071068,12.2928932 C76.5261424,12.1119288 76.2761424,12 76,12 Z" id="Rectangle" fill="#FFFFFF"></path>
                    <path d="M61.5991857,42.4158289 C62.7144697,46.7167174 65.9853489,47.9114411 71.4118235,46 C76.838298,44.0885589 80.2340854,44.8667761 81.5991857,48.3346517" id="Path-28"></path>
                </g>
                <g id="Group-85" transform="translate(71.000000, 53.000000)">
                    <rect id="Rectangle" fill="#FFFFFF" x="1" y="1" width="34" height="34" rx="17"></rect>
                    <g id="Group-82" transform="translate(10.000000, 9.000000)" stroke-linecap="round" stroke-linejoin="round">
                        <polyline id="Path-29" points="5 0 0 4.5 5 9"></polyline>
                        <g id="Group-81" transform="translate(8.000000, 13.500000) scale(-1, 1) translate(-8.000000, -13.500000) translate(0.000000, 9.000000)">
                            <polyline id="Path-29" points="5 0 0 4.5 5 9"></polyline>
                            <line x1="0" y1="4.5" x2="16" y2="4.5" id="Path-30"></line>
                        </g>
                        <line x1="0" y1="4.5" x2="16" y2="4.5" id="Path-30"></line>
                    </g>
                </g>
            </g>
        </g>
    </g>
</svg>