<?xml version="1.0" encoding="UTF-8"?>
<svg width="20px" height="20px" viewBox="0 0 20 20" version="1.1" xmlns="http://www.w3.org/2000/svg" xmlns:xlink="http://www.w3.org/1999/xlink">
    <title>icon-blank-20</title>
    <g id="Page-1" stroke="none" stroke-width="1" fill="none" fill-rule="evenodd">
        <g id="Group-21">
            <rect id="Rectangle" x="0" y="0" width="20" height="20"></rect>
            <path d="M8.5,6.13793103 C9.00691667,6.13793103 9.41666667,6.5485977 9.41666667,7.0545977 C9.41666667,7.5605977 9.00691667,7.97126437 8.5,7.97126437 L8.5,7.97126437 L4.83333333,7.97126437 L4.83333333,15.3045977 L12.1666667,15.3045977 L12.1666667,11.637931 C12.1666667,11.131931 12.5764167,10.7212644 13.0833333,10.7212644 C13.59025,10.7212644 14,11.131931 14,11.637931 L14,11.637931 L14,16.2212644 C14,16.7272644 13.59025,17.137931 13.0833333,17.137931 L13.0833333,17.137931 L3.91666667,17.137931 C3.40975,17.137931 3,16.7272644 3,16.2212644 L3,16.2212644 L3,7.0545977 C3,6.5485977 3.40975,6.13793103 3.91666667,6.13793103 L3.91666667,6.13793103 Z M16.1818368,2 C16.634281,2 17,2.40727273 17,2.90909091 L17,2.90909091 L17,7.45454545 C17,7.95636364 16.634281,8.36363636 16.1818368,8.36363636 C15.7293925,8.36363636 15.3636736,7.95636364 15.3636736,7.45454545 L15.3636736,7.45454545 L15.3636736,5.10363636 L9.39680916,11.7336364 C9.23726733,11.9109091 9.02781755,12 8.81836776,12 C8.60891798,12 8.39946819,11.9109091 8.23992637,11.7336364 C7.92002454,11.3781818 7.92002454,10.8036364 8.23992637,10.4481818 L8.23992637,10.4481818 L14.2067908,3.81818182 L12.0910207,3.81818182 C11.6385764,3.81818182 11.2728574,3.41090909 11.2728574,2.90909091 C11.2728574,2.40727273 11.6385764,2 12.0910207,2 L12.0910207,2 Z" id="Icon" fill="#616161"></path>
        </g>
    </g>
</svg>