<svg xmlns="http://www.w3.org/2000/svg" width="48" height="48" viewBox="0 0 48 48">
    <g fill="none" fill-rule="evenodd">
        <g>
            <g>
                <g>
                    <g>
                        <g>
                            <g>
                                <g>
                                    <path d="M0 0H48V48H0z" transform="translate(-1045 -2986) translate(0 2062) translate(0 766) translate(318 126) translate(654) translate(48 32) translate(25)"/>
                                    <g transform="translate(-1045 -2986) translate(0 2062) translate(0 766) translate(318 126) translate(654) translate(48 32) translate(25)">
                                        <circle cx="24" cy="24" r="24" fill="#F4F4F4"/>
                                        <path fill="#000" fill-rule="nonzero" d="M31.05 25.104c.109 0 .217.086.227.216l.184 1.277c.302.12.572.282.82.476l1.2-.487c.118-.032.248 0 .302.109l.972 1.677c.065.108.032.238-.054.314l-1.026.8c.032.152.043.314.043.477 0 .162-.021.324-.043.476l1.037.8c.086.076.119.206.054.304l-.972 1.677c-.065.108-.195.152-.303.108l-1.21-.487c-.237.195-.518.347-.81.476l-.183 1.277c-.01.12-.119.206-.237.206h-1.934c-.118 0-.216-.087-.237-.206l-.184-1.277c-.302-.119-.572-.28-.82-.476l-1.2.487c-.118.033-.248 0-.302-.108l-.972-1.677c-.065-.109-.032-.238.054-.314l1.026-.8c-.021-.152-.032-.315-.032-.477 0-.162.01-.325.032-.476l-1.026-.801c-.097-.076-.108-.206-.054-.314l.972-1.677c.065-.108.195-.152.303-.108l1.198.487c.249-.195.53-.347.821-.477l.184-1.277c.01-.119.119-.205.237-.205zm-.971 3.387c-.81 0-1.458.65-1.458 1.46 0 .813.658 1.462 1.458 1.462.799 0 1.458-.65 1.458-1.461 0-.812-.648-1.461-1.458-1.461zM22.065 13.2c.184 0 .346.14.378.314l.28 2.002c.465.195.887.444 1.275.747l1.88-.758c.172-.065.367 0 .464.162l1.512 2.62c.097.161.054.367-.087.486l-1.598 1.255c.032.25.054.498.054.747s-.022.498-.054.736l1.598 1.255c.14.12.184.325.087.487l-1.512 2.62c-.097.161-.292.226-.465.161l-1.879-.757c-.388.303-.82.552-1.274.747l-.28 2.002c-.033.184-.195.324-.379.324h-3.024c-.183 0-.345-.14-.378-.314l-.28-2.002c-.465-.194-.886-.443-1.275-.746l-1.88.757c-.172.065-.366 0-.464-.162l-1.512-2.619c-.097-.162-.054-.368.087-.487l1.598-1.255c-.032-.25-.054-.498-.054-.747s.022-.498.054-.736l-1.598-1.255c-.14-.12-.184-.325-.087-.487l1.512-2.619c.098-.162.292-.227.465-.162l1.879.757c.389-.303.82-.552 1.274-.746l.281-2.002c.033-.184.195-.325.378-.325zm-1.512 5.41c-1.188 0-2.16.975-2.16 2.165s.972 2.164 2.16 2.164c1.188 0 2.16-.973 2.16-2.164 0-1.19-.972-2.164-2.16-2.164z"/>
                                    </g>
                                </g>
                            </g>
                        </g>
                    </g>
                </g>
            </g>
        </g>
    </g>
</svg>
