<svg xmlns="http://www.w3.org/2000/svg" width="16" height="16" viewBox="0 0 16 16">
    <g fill="none" fill-rule="evenodd">
        <g>
            <g>
                <g>
                    <g>
                        <g>
                            <path d="M0 0H16V16H0z" transform="translate(-1210 -1118) translate(270 1102) translate(469) translate(459 8) translate(12 8)"/>
                            <g transform="translate(-1210 -1118) translate(270 1102) translate(469) translate(459 8) translate(12 8) translate(1 1)">
                                <rect width="14" height="14" fill="#000" rx="7"/>
                                <path fill="#FFF" fill-rule="nonzero" d="M7 4c-1.103 0-2 .87-2 1.94 0 .25.208.451.465.451s.465-.202.465-.45c0-.573.48-1.039 1.07-1.039.59 0 1.07.466 1.07 1.038 0 .573-.48 1.038-1.07 1.038-.257 0-.465.202-.465.451v1.02c0 .25.208.451.465.451s.465-.202.465-.451v-.622C8.345 7.624 9 6.855 9 5.94 9 4.87 8.103 4 7 4z"/>
                                <circle cx="7" cy="10.3" r="1" fill="#FFF" fill-rule="nonzero"/>
                            </g>
                        </g>
                    </g>
                </g>
            </g>
        </g>
    </g>
</svg>
