<svg xmlns="http://www.w3.org/2000/svg" xmlns:xlink="http://www.w3.org/1999/xlink" width="20" height="20" viewBox="0 0 20 20">
    <defs>
        <path id="gzqj3oksua" d="M15.2 1.6h-2.4V.8c0-.442-.358-.8-.8-.8-.442 0-.8.358-.8.8v.8H4.8V.8C4.8.358 4.442 0 4 0c-.442 0-.8.358-.8.8v.8H.8c-.442 0-.8.358-.8.8v12.8c0 .442.358.8.8.8h6.4c.442 0 .8-.358.8-.8 0-.442-.358-.8-.8-.8H1.6v-8h12.8v2.4c0 .442.358.8.8.8.442 0 .8-.358.8-.8V2.4c0-.442-.358-.8-.8-.8zM1.6 4.8h12.8V3.2H1.6v1.6zM4.8 8c-.442 0-.8.358-.8.8 0 .442.358.8.8.8.442 0 .8-.358.8-.8 0-.442-.358-.8-.8-.8m0 3.2c-.442 0-.8.358-.8.8 0 .442.358.8.8.8.442 0 .8-.358.8-.8 0-.442-.358-.8-.8-.8m3.2 0c-.442 0-.8.358-.8.8 0 .442.358.8.8.8.442 0 .8-.358.8-.8 0-.442-.358-.8-.8-.8M8 8c-.442 0-.8.358-.8.8 0 .442.358.8.8.8.442 0 .8-.358.8-.8 0-.442-.358-.8-.8-.8m4 .8c0-.442-.358-.8-.8-.8-.442 0-.8.358-.8.8 0 .442.358.8.8.8.442 0 .8-.358.8-.8m2.634 2.634L12 14.07l-1.034-1.035c-.313-.312-.819-.312-1.132 0-.312.313-.312.819 0 1.132l1.6 1.6c.156.156.361.234.566.234.205 0 .41-.078.566-.234l3.2-3.2c.312-.313.312-.819 0-1.132-.313-.312-.819-.312-1.132 0"/>
    </defs>
    <g fill="none" fill-rule="evenodd">
        <g>
            <g>
                <g>
                    <path d="M0 0H20V20H0z" transform="translate(-283 -241) translate(83 189) translate(200 52)"/>
                    <g transform="translate(-283 -241) translate(83 189) translate(200 52) translate(2 2)">
                        <use fill="#222" xlink:href="#gzqj3oksua"/>
                    </g>
                </g>
            </g>
        </g>
    </g>
</svg>
