<svg xmlns="http://www.w3.org/2000/svg" width="64" height="64" viewBox="0 0 64 64">
    <g fill="none" fill-rule="evenodd">
        <g>
            <g>
                <g>
                    <g>
                        <path d="M0 0H64V64H0z" transform="translate(-571 -829) translate(203 828) translate(360 1) translate(8)"/>
                        <g>
                            <g stroke="#000" stroke-width="2">
                                <path stroke-linejoin="round" d="M35.014 0L40 5l-6.963 12.155-3.64-.809-3.822 3.864 14.041 14.042c.665.665.665 1.743 0 2.408l-3.956 3.956c-.665.665-1.743.665-2.408 0L19.246 26.61 8.63 37.345c-1.75 1.769-4.602 1.785-6.371.035l-.056-.057c-1.776-1.819-1.76-4.727.037-6.527l10.587-10.605-3.017-3.018c-2.513.476-5.209-.258-7.153-2.202C.02 12.335-.391 8.317 1.42 5.249l3.55 3.55c.299.3.766.33 1.1.09l.08-.067 1.66-1.538.02-.02c.309-.305.335-.787.077-1.123l-.07-.08L4.24 2.426c3.069-1.818 7.091-1.407 9.73 1.23 1.944 1.945 2.678 4.64 2.203 7.152l3.012 3.013L23 10V6.037L35.014 0z" transform="translate(-571 -829) translate(203 828) translate(360 1) translate(8) translate(9 9)"/>
                                <path d="M4.24 2.426c3.07-1.818 7.092-1.407 9.73 1.23 1.945 1.945 2.679 4.64 2.204 7.152l23.442 23.444c.665.665.665 1.743 0 2.408l-3.956 3.956c-.665.665-1.743.665-2.408 0L9.81 17.173c-2.513.476-5.209-.258-7.153-2.202C.02 12.335-.391 8.317 1.42 5.249l3.55 3.55c.299.3.766.33 1.1.09l.08-.067 1.66-1.538.02-.02c.309-.305.335-.787.077-1.123l-.07-.08L4.24 2.426z" transform="translate(-571 -829) translate(203 828) translate(360 1) translate(8) translate(9 9)"/>
                            </g>
                            <path fill="#F4F4F4" stroke="#DA0F47" stroke-width="2" d="M35 22l.307.004C42.345 22.167 48 27.923 48 35c0 7.18-5.82 13-13 13s-13-5.82-13-13 5.82-13 13-13h0z" transform="translate(-571 -829) translate(203 828) translate(360 1) translate(8) translate(9 9)"/>
                            <path fill="#DA0F47" fill-rule="nonzero" d="M29.74 39.14c1.41 0 2.6-.79 2.6-2.15 0-.97-.64-1.59-1.48-1.82v-.05c.79-.31 1.24-.89 1.24-1.69 0-1.27-.97-1.97-2.4-1.97-.87 0-1.58.35-2.22.91l.75.9c.44-.4.87-.65 1.4-.66.63.01.99.35.99.93 0 .66-.44 1.13-1.8 1.13v1.06c1.61 0 2.04.45 2.04 1.18 0 .66-.51 1.03-1.26 1.03-.67 0-1.21-.33-1.65-.76l-.69.93c.52.59 1.31 1.03 2.48 1.03zm11.28-1.72v-6.77H39.7v1.02h-2.23v1.04h2.23v.68h-2.23v1.04h2.23v2.99h1.32zm-6.46-1.18c1.38 0 2.6-.05 3.96-.3l-.13-1.07c-1.13.2-2.15.27-3.26.29v-3.93h-1.31v5.01h.74zm6.67 3.46v-1.05h-4.96v-1.83h-1.32v2.88h6.28z" transform="translate(-571 -829) translate(203 828) translate(360 1) translate(8) translate(9 9)"/>
                        </g>
                    </g>
                </g>
            </g>
        </g>
    </g>
</svg>
