<svg xmlns="http://www.w3.org/2000/svg" width="64" height="64" viewBox="0 0 64 64">
    <g fill="none" fill-rule="evenodd">
        <g>
            <g>
                <g>
                    <g>
                        <g>
                            <g transform="translate(-1327 -494) translate(0 466) translate(427) translate(799 28) translate(101)">
                                <circle cx="32" cy="32" r="32" fill="#F4F4F4"/>
                                <g fill="#000" fill-rule="nonzero">
                                    <path d="M12.567 18.85C8.373 18.85 0 20.957 0 25.136v3.141h25.135v-3.141c0-4.18-8.373-6.284-12.568-6.284zM33.146 6.032c.016-.173.032-.345.032-.534 0-.188-.016-.361-.048-.534l1.163-.911c.11-.079.126-.236.063-.346l-1.1-1.9c-.063-.126-.22-.158-.33-.126l-1.35.55c-.283-.22-.598-.393-.928-.534L30.444.236C30.413.094 30.303 0 30.161 0h-2.199c-.141 0-.251.094-.267.236l-.204 1.46c-.33.142-.644.33-.927.535l-1.367-.55c-.125-.047-.267 0-.33.126l-1.1 1.9c-.062.126-.046.267.064.346l1.162.911c-.031.173-.047.361-.047.534 0 .173.016.361.047.534l-1.162.911c-.11.079-.126.236-.063.346l1.1 1.9c.062.126.22.158.33.126l1.366-.55c.283.22.597.393.927.535l.204 1.46c.016.142.126.236.267.236h2.2c.14 0 .25-.094.267-.235l.204-1.461c.33-.142.644-.33.927-.534l1.366.55c.126.047.267 0 .33-.126l1.1-1.901c.063-.126.047-.267-.063-.346l-1.147-.91zm-4.084 1.43c-1.084 0-1.964-.88-1.964-1.964s.88-1.963 1.964-1.963 1.963.88 1.963 1.963c0 1.084-.88 1.964-1.963 1.964zM29.722 13.635l-.786-1.366c-.047-.094-.157-.126-.235-.094l-.974.392c-.205-.157-.425-.282-.66-.377l-.142-1.037c-.031-.094-.125-.157-.22-.157h-1.57c-.095 0-.173.063-.189.173l-.141 1.037c-.236.094-.456.236-.66.377l-.974-.393c-.094-.031-.189 0-.236.095l-.785 1.366c-.047.094-.032.189.047.252l.833.644c-.016.125-.032.251-.032.377 0 .125.016.267.032.377l-.833.644c-.079.063-.094.173-.047.251l.785 1.367c.047.094.157.125.236.094l.974-.393c.204.157.424.283.66.377l.141 1.037c.016.11.094.173.189.173h1.57c.095 0 .189-.063.189-.173l.141-1.037c.236-.094.456-.235.66-.377l.974.393c.094.031.189 0 .236-.094l.785-1.367c.047-.094.032-.188-.047-.251l-.817-.644c.016-.126.032-.252.032-.377 0-.126-.016-.267-.032-.377l.833-.644c.078-.063.094-.173.063-.268zm-3.802 2.592c-.723 0-1.304-.596-1.304-1.303 0-.723.597-1.304 1.304-1.304.707 0 1.304.597 1.304 1.304 0 .722-.581 1.303-1.304 1.303zM5.875 9.425h13.4c.424 0 .77-.345.77-.77v-.03c0-.425-.346-.77-.77-.77h-.424c0-2.325-1.273-4.32-3.142-5.42v1.492c0 .44-.346.786-.785.786-.44 0-.786-.346-.786-.786V1.791c-.503-.126-1.02-.22-1.57-.22s-1.069.094-1.572.22v2.136c0 .44-.345.786-.785.786-.44 0-.786-.346-.786-.786V2.435c-1.869 1.1-3.141 3.095-3.141 5.42h-.409c-.424 0-.77.345-.77.77v.046c0 .409.346.754.77.754zM12.567 15.71c2.922 0 5.357-2.012 6.064-4.714H6.504c.706 2.702 3.141 4.713 6.063 4.713z" transform="translate(17.6 17.6)"/>
                                </g>
                            </g>
                        </g>
                    </g>
                </g>
            </g>
        </g>
    </g>
</svg>
