<?xml version="1.0" encoding="UTF-8"?>
<svg width="60px" height="60px" viewBox="0 0 60 60" version="1.1" xmlns="http://www.w3.org/2000/svg" xmlns:xlink="http://www.w3.org/1999/xlink">
    <title>icon-360-60</title>
    <g id="Page-1" stroke="none" stroke-width="1" fill="none" fill-rule="evenodd">
        <g id="btn_PDP_360view_60_PC">
            <rect id="Rectangle" x="0" y="0" width="60" height="60"></rect>
            <g id="Group-118" transform="translate(6.000000, 15.000000)">
                <g id="Group-27" transform="translate(0.000000, 9.000000)" stroke="#767676" stroke-linecap="round" stroke-width="2">
                    <path d="M11.192431,0.253155211 C4.46651188,1.95661254 0,4.96214693 0,8.38559152 C0,13.6954827 10.745166,18 24,18 M28,18 C39.3169314,17.3078657 48,13.2851205 48,8.42612379 C48,4.98412896 43.6428708,1.96176188 37.0788634,0.245667591" id="Shape"></path>
                    <polyline id="Path-52" stroke-linejoin="round" points="20 14 24 18 20 22"></polyline>
                </g>
                <path d="M15.9864171,13 C16.5446852,13 17.0375313,12.9250048 17.4649553,12.7750145 C17.8923793,12.6250242 18.2500198,12.4243019 18.5378768,12.1728476 C18.8257338,11.9213933 19.0438073,11.6302356 19.1920972,11.2993746 C19.3403872,10.9685137 19.4145322,10.617801 19.4145322,10.2472368 L19.4145322,10.2472368 L19.4145322,10.1148924 C19.4145322,9.77079697 19.3600138,9.47302211 19.2509771,9.22156777 C19.1419403,8.97011344 18.9958311,8.75836242 18.8126494,8.58631472 C18.6294677,8.41426702 18.4201171,8.27971689 18.1845978,8.18266434 C17.9490784,8.08561179 17.7091976,8.0194396 17.4649553,7.98414776 C17.7091976,7.90474113 17.9272711,7.7922484 18.1191757,7.64666958 C18.3110804,7.50109075 18.4746355,7.32904305 18.6098411,7.13052647 C18.7450466,6.93200989 18.8475412,6.71584739 18.9173247,6.48203898 C18.9871082,6.24823056 19.0219999,6.0122164 19.0219999,5.77399651 L19.0219999,5.77399651 L19.0219999,5.70782432 C19.0219999,5.39019779 18.9609394,5.0858057 18.8388182,4.79464805 C18.7166971,4.5034904 18.5269731,4.24762459 18.2696464,4.02705061 C18.0123197,3.80647663 17.6873903,3.63001745 17.294858,3.49767307 C16.9023257,3.36532868 16.44001,3.29915649 15.9079107,3.29915649 C15.3583655,3.29915649 14.8786039,3.38959182 14.4686257,3.57046248 C14.0586476,3.75133314 13.7140915,3.99617025 13.4349575,4.30497382 C13.3128363,4.45496413 13.2452335,4.62260035 13.2321491,4.80788249 C13.2190647,4.99316463 13.2779446,5.16521233 13.4087886,5.3240256 C13.5309098,5.48283886 13.6879227,5.57327419 13.8798274,5.59533159 C14.071732,5.61738899 14.2505523,5.55342253 14.4162881,5.40343223 C14.6430845,5.20050417 14.8677002,5.04610239 15.0901351,4.94022688 C15.3125701,4.83435137 15.5808005,4.78141361 15.8948263,4.78141361 C16.4182026,4.78141361 16.7976505,4.8806719 17.0331698,5.07918848 C17.2686892,5.27770506 17.3864489,5.54459957 17.3864489,5.87987202 L17.3864489,5.87987202 L17.3864489,5.91957533 C17.3864489,6.37836921 17.2490626,6.72025887 16.97429,6.94524433 C16.6995174,7.17022978 16.2699127,7.28272251 15.6854757,7.28272251 L15.6854757,7.28272251 L15.1359306,7.28272251 C14.92658,7.28272251 14.7739286,7.35330619 14.6779763,7.49447353 C14.5820239,7.63564088 14.5340478,7.80768858 14.5340478,8.01061664 C14.5340478,8.2135447 14.5820239,8.3855924 14.6779763,8.52675974 C14.7739286,8.66792709 14.92658,8.73851076 15.1359306,8.73851076 L15.1359306,8.73851076 L15.8294042,8.73851076 C16.5010705,8.73851076 16.9851937,8.84659201 17.2817736,9.06275451 C17.5783535,9.27891701 17.7266435,9.61198371 17.7266435,10.0619546 L17.7266435,10.0619546 L17.7266435,10.1678301 C17.7266435,10.3531123 17.6939325,10.5273657 17.6285104,10.6905905 C17.5630884,10.8538152 17.4584131,10.9949825 17.3144846,11.1140925 C17.1705561,11.2332024 16.9808322,11.3258435 16.7453128,11.3920157 C16.5097935,11.4581879 16.217575,11.491274 15.8686575,11.491274 C15.5459087,11.491274 15.2536903,11.4515707 14.9920021,11.372164 C14.7303139,11.2927574 14.4468184,11.1515901 14.1415155,10.948662 C13.9408879,10.8251406 13.7533447,10.7854373 13.578886,10.8295521 C13.4044272,10.8736669 13.2561372,10.9971883 13.1340161,11.2001163 C13.0206179,11.3853985 12.9791839,11.5817093 13.0097142,11.7890489 C13.0402445,11.9963884 13.1558234,12.1662304 13.356451,12.2985748 C13.7402603,12.5456176 14.145877,12.7242825 14.573301,12.8345695 C15.000725,12.9448565 15.4717637,13 15.9864171,13 Z M23.9847292,13 C24.5081055,13 24.9769635,12.9205934 25.3913031,12.7617801 C25.8056427,12.6029668 26.156741,12.3845986 26.444598,12.1066754 C26.732455,11.8287522 26.9527092,11.4978912 27.1053606,11.1140925 C27.2580121,10.7302938 27.3343378,10.3178204 27.3343378,9.87667248 L27.3343378,9.87667248 L27.3343378,9.6781559 C27.3343378,9.21936203 27.266735,8.80027148 27.1315295,8.42088424 C26.9963239,8.04149699 26.8022385,7.71725325 26.5492733,7.448153 C26.296308,7.17905274 25.9866437,6.97171321 25.6202803,6.82613438 C25.2539168,6.68055556 24.8439387,6.60776614 24.3903459,6.60776614 C23.9803677,6.60776614 23.5812933,6.67834982 23.1931225,6.81951716 C22.8049517,6.96068451 22.4974681,7.16802404 22.2706717,7.44153578 C22.3055634,6.95627303 22.3818891,6.54821117 22.4996488,6.2173502 C22.6174085,5.88648924 22.7635177,5.61738899 22.9379765,5.41004945 C23.1124353,5.20270991 23.3108821,5.05492534 23.5333171,4.96669575 C23.755752,4.87846616 23.9934521,4.83435137 24.2464174,4.83435137 C24.7785166,4.83435137 25.2757242,4.92699244 25.7380399,5.11227458 C25.9648364,5.20932713 26.1632832,5.22035583 26.3333805,5.14536067 C26.5034778,5.07036552 26.6277797,4.93140392 26.7062862,4.72847586 C26.7847926,4.5255478 26.8022385,4.34026566 26.7586238,4.17262944 C26.7150091,4.00499321 26.592888,3.85941439 26.3922604,3.73589296 C26.165464,3.60354857 25.8732455,3.49767307 25.515605,3.41826643 C25.1579645,3.3388598 24.7697937,3.29915649 24.3510926,3.29915649 C23.8364392,3.29915649 23.3523161,3.3719459 22.8987233,3.51752472 C22.4451304,3.66310355 22.0482367,3.92779232 21.7080421,4.31159104 C21.3678475,4.69538976 21.0996171,5.22476731 20.903351,5.89972368 C20.7070848,6.57468005 20.6089518,7.4371243 20.6089518,8.48705643 L20.6089518,8.48705643 L20.6089518,8.96349622 C20.6089518,9.5722804 20.6721931,10.1259211 20.7986757,10.6244183 C20.9251583,11.1229155 21.1236052,11.5486232 21.3940163,11.9015416 C21.6644274,12.25446 22.013345,12.5257659 22.440769,12.7154596 C22.868193,12.9051532 23.3828464,13 23.9847292,13 Z M23.945476,11.4648051 C23.4046537,11.4648051 22.9946756,11.321432 22.7155416,11.0346859 C22.4364075,10.7479397 22.2968405,10.3442893 22.2968405,9.82373473 L22.2968405,9.82373473 L22.2968405,9.69139034 C22.2968405,9.47081637 22.3295515,9.26347683 22.3949735,9.06937173 C22.4603956,8.87526663 22.5628901,8.70542467 22.7024571,8.55984584 C22.8420242,8.41426702 23.0186637,8.29956855 23.2323757,8.21575044 C23.4460877,8.13193232 23.7055951,8.09002327 24.010898,8.09002327 C24.586612,8.09002327 25.0096745,8.2245734 25.2800856,8.49367365 C25.5504968,8.7627739 25.6857023,9.17524724 25.6857023,9.73109366 L25.6857023,9.73109366 L25.6857023,9.81050029 C25.6857023,10.3398778 25.5395931,10.7479397 25.2473746,11.0346859 C24.9551562,11.321432 24.5211899,11.4648051 23.945476,11.4648051 Z M31.5120025,13 C32.7244911,13 33.6076886,12.6029668 34.1615953,11.8089005 C34.7155019,11.0148342 34.9924552,9.88990692 34.9924552,8.43411867 L34.9924552,8.43411867 L34.9924552,7.86503781 C34.9924552,6.40924956 34.7155019,5.28432228 34.1615953,4.49025596 C33.6076886,3.69618965 32.7244911,3.29915649 31.5120025,3.29915649 C30.299514,3.29915649 29.4163164,3.69618965 28.8624098,4.49025596 C28.3085032,5.28432228 28.0315499,6.40924956 28.0315499,7.86503781 L28.0315499,7.86503781 L28.0315499,8.43411867 C28.0315499,9.88990692 28.3085032,11.0148342 28.8624098,11.8089005 C29.4163164,12.6029668 30.299514,13 31.5120025,13 Z M31.5120025,11.3986329 C31.1718079,11.3986329 30.8861317,11.3412837 30.6549738,11.2265852 C30.4238159,11.1118868 30.2406342,10.9288104 30.1054286,10.677356 C29.9702231,10.4259017 29.87209,10.1060694 29.8110294,9.71785922 C29.7499688,9.32964902 29.7194386,8.86203219 29.7194386,8.31500873 L29.7194386,8.31500873 L29.7194386,7.98414776 C29.7194386,7.4371243 29.7499688,6.96950747 29.8110294,6.58129727 C29.87209,6.19308707 29.9702231,5.8732548 30.1054286,5.62180047 C30.2406342,5.37034613 30.4238159,5.18726973 30.6549738,5.07257126 C30.8861317,4.95787279 31.1718079,4.90052356 31.5120025,4.90052356 C31.8521972,4.90052356 32.1378734,4.95787279 32.3690313,5.07257126 C32.6001892,5.18726973 32.7833709,5.37034613 32.9185765,5.62180047 C33.053782,5.8732548 33.1519151,6.19308707 33.2129757,6.58129727 C33.2740362,6.96950747 33.3045665,7.4371243 33.3045665,7.98414776 L33.3045665,7.98414776 L33.3045665,8.31500873 C33.3045665,8.86203219 33.2740362,9.32964902 33.2129757,9.71785922 C33.1519151,10.1060694 33.053782,10.4259017 32.9185765,10.677356 C32.7833709,10.9288104 32.6001892,11.1118868 32.3690313,11.2265852 C32.1378734,11.3412837 31.8521972,11.3986329 31.5120025,11.3986329 Z M36.2728581,3.4938918 C36.5345462,3.4938918 36.7722463,3.44757126 36.9859583,3.35493019 C37.1996703,3.26228912 37.3806713,3.13656195 37.5289613,2.97774869 C37.6772513,2.81893543 37.7928302,2.63365329 37.8756981,2.42190227 C37.958566,2.21015125 38,1.98516579 38,1.7469459 C38,1.508726 37.958566,1.28374055 37.8756981,1.07198953 C37.7928302,0.860238511 37.6772513,0.67495637 37.5289613,0.516143106 C37.3806713,0.357329843 37.1996703,0.231602676 36.9859583,0.138961606 C36.7722463,0.0463205352 36.5345462,0 36.2728581,0 C36.0111699,0 35.7734698,0.0463205352 35.5597578,0.138961606 C35.3460458,0.231602676 35.1650448,0.357329843 35.0167548,0.516143106 C34.8684649,0.67495637 34.7528859,0.860238511 34.670018,1.07198953 C34.5871501,1.28374055 34.5457161,1.508726 34.5457161,1.7469459 C34.5457161,1.98516579 34.5871501,2.21015125 34.670018,2.42190227 C34.7528859,2.63365329 34.8684649,2.81893543 35.0167548,2.97774869 C35.1650448,3.13656195 35.3460458,3.26228912 35.5597578,3.35493019 C35.7734698,3.44757126 36.0111699,3.4938918 36.2728581,3.4938918 Z M36.2728581,2.56748109 C36.0286158,2.56748109 35.8367111,2.48807446 35.6971441,2.3292612 C35.5575771,2.17044793 35.4877935,1.97634283 35.4877935,1.7469459 C35.4877935,1.51754896 35.5575771,1.32344386 35.6971441,1.1646306 C35.8367111,1.00581734 36.0286158,0.926410704 36.2728581,0.926410704 C36.5171004,0.926410704 36.709005,1.00581734 36.848572,1.1646306 C36.9881391,1.32344386 37.0579226,1.51754896 37.0579226,1.7469459 C37.0579226,1.97634283 36.9881391,2.17044793 36.848572,2.3292612 C36.709005,2.48807446 36.5171004,2.56748109 36.2728581,2.56748109 Z" id="360°" fill="#767676" fill-rule="nonzero"></path>
            </g>
        </g>
    </g>
</svg>