<svg xmlns="http://www.w3.org/2000/svg" xmlns:xlink="http://www.w3.org/1999/xlink" width="30" height="30" viewBox="0 0 30 30">
    <defs>
        <path id="j7k75ogpha" d="M0 0.137L16.535 0.137 16.535 15.258 0 15.258z"/>
        <path id="up5szk8lpc" d="M.614.068C.11.068.11.949.615.949h.862s.006 2.386 0 2.935c.002.4.897.421.896.021l.003-2.871s.29-.064.858-.063c.536 0 .536-.903 0-.903H.615z"/>
        <path id="vwfe4ii4le" d="M1.295.466C1.082.931.317 3.126.062 3.708c-.183.421.61.764.793.343l.172-.6h1.577s-.054.025.155.574c.17.446.988.137.819-.308C3.336 3.08 2.498.79 2.346.467c-.07-.151-.323-.259-.568-.259-.202 0-.4.074-.483.258zm.536.7l.48 1.496h-1l.52-1.495z"/>
        <path id="2121ux9nog" d="M.146.6L.15 3.748s-.07.478.342.478l1.73-.004c.405 0 .403-.858-.002-.858s-1.144-.004-1.144-.004.004-2.223.002-2.764C1.078.336.845.206.612.206S.145.336.146.599z"/>
        <path id="lcoothp6ni" d="M.258.481c.009.327-.01 3.284-.01 3.504 0 .345.884.345.884 0V2.82l.26-.208 1.136 1.543c.23.301.952-.243.722-.545l-1.206-1.58s.819-.882 1.142-1.202C3.374.643 2.79.06 2.602.245L1.138 1.703s.011-.802 0-1.246C1.132.289.924.207.712.207c-.227 0-.46.094-.455.274z"/>
    </defs>
    <g fill="none" fill-rule="evenodd">
        <circle cx="15" cy="15" r="15" fill="#F4F4F4"/>
        <g transform="translate(7.5 7.613)">
            <mask id="hl5sz3h2ab" fill="#fff">
                <use xlink:href="#j7k75ogpha"/>
            </mask>
            <path fill="#616161" d="M8.268.137C3.7.137 0 3.049 0 6.643c0 2.338 1.568 4.388 3.922 5.535-.173.643-.626 2.328-.717 2.689-.112.447.165.441.346.32.142-.094 2.266-1.53 3.182-2.15.497.073 1.01.111 1.535.111 4.566 0 8.267-2.912 8.267-6.505 0-3.594-3.701-6.506-8.267-6.506" mask="url(#hl5sz3h2ab)"/>
            <g transform="translate(1.759 4.502)">
                <mask id="378t9b4dvd" fill="#fff">
                    <use xlink:href="#up5szk8lpc"/>
                </mask>
                <path fill="#FFF" d="M0.109 4.305L3.77 4.305 3.77 0.068 0.109 0.068z" mask="url(#378t9b4dvd)"/>
            </g>
            <g transform="translate(4.774 4.502)">
                <mask id="pcpdz6pusf" fill="#fff">
                    <use xlink:href="#vwfe4ii4le"/>
                </mask>
                <path fill="#FFF" d="M-0.121 4.472L3.747 4.472 3.747 0.208 -0.121 0.208z" mask="url(#pcpdz6pusf)"/>
            </g>
            <g transform="translate(8.544 4.502)">
                <mask id="kkkejemy4h" fill="#fff">
                    <use xlink:href="#2121ux9nog"/>
                </mask>
                <path fill="#FFF" d="M0.081 4.227L2.627 4.227 2.627 0.206 0.081 0.206z" mask="url(#kkkejemy4h)"/>
            </g>
            <g transform="translate(11.056 4.502)">
                <mask id="fw138t0b6j" fill="#fff">
                    <use xlink:href="#lcoothp6ni"/>
                </mask>
                <path fill="#FFF" d="M0.247 4.457L3.48 4.457 3.48 0.059 0.247 0.059z" mask="url(#fw138t0b6j)"/>
            </g>
        </g>
    </g>
</svg>
