<svg xmlns="http://www.w3.org/2000/svg" width="64" height="64" viewBox="0 0 64 64">
    <g fill="none" fill-rule="evenodd">
        <g>
            <g>
                <g>
                    <g>
                        <g>
                            <g>
                                <path d="M0 0H64V64H0z" transform="translate(-606 -436) translate(269 286) translate(235) translate(0 118) translate(102 32)"/>
                                <g transform="translate(-606 -436) translate(269 286) translate(235) translate(0 118) translate(102 32) translate(4.5 8)">
                                    <g stroke="#000" stroke-width="2">
                                        <path stroke-linejoin="round" d="M15.851 24.018l7.776 7.777-10.547 10.55c-2.147 2.148-5.63 2.148-7.777 0-2.148-2.147-2.148-5.63 0-7.777l10.548-10.55zM41.315.794l5.458 5.458-7.411 14.323-3.859-.654-4.518 4.517-7.777-7.777 4.495-4.493-.213-3.797L41.315.794z"/>
                                        <path d="M16.789 4.224c2.334 2.334 3.193 5.585 2.577 8.595l14.39 14.389c-1.725 2.199-2.754 4.97-2.754 7.981 0 1.76.351 3.438.988 4.968l-19.981-19.98c-3.01.616-6.261-.243-8.596-2.577C.178 14.364-.224 9.368 2.21 5.695l5.217 5.217c.343.343.884.367 1.255.073l.082-.073 1.338-1.338c.343-.343.368-.884.074-1.255l-.074-.082L4.885 3.02C8.557.587 13.553.988 16.789 4.224z"/>
                                    </g>
                                    <circle cx="42.72" cy="35.362" r="11.864" stroke="#000" stroke-width="2"/>
                                    <path fill="#DA0F47" fill-rule="nonzero" d="M36.502 39.144c1.706 0 2.714-.837 2.714-2.221 0-1.084-.622-1.62-1.545-1.792.805-.29 1.299-.859 1.299-1.738 0-1.202-.891-1.835-2.286-1.835-.762 0-1.674.171-2.146.418l.16 1.105c.43-.182 1.042-.343 1.568-.343.772 0 1.201.247 1.201.923 0 .654-.493.998-1.298 1.02l-.719.02v1.063l.805.021c.869.022 1.363.29 1.363 1.03 0 .773-.483 1.149-1.385 1.149-.568 0-1.395-.183-1.76-.408l-.236 1.073c.43.268 1.363.515 2.265.515zm6.492.022c1.706 0 2.586-1.138 2.586-2.565 0-1.406-.902-2.2-2.19-2.2-.74 0-1.33.3-1.695.601.108-1.728.848-2.232 1.867-2.232.505 0 1.116.172 1.417.322l.257-1.116c-.322-.182-.987-.408-1.727-.408-1.792 0-3.316.977-3.316 3.82v.505c0 2.006.955 3.273 2.8 3.273zm-.033-1.095c-.89 0-1.255-.719-1.255-1.92v-.065c.236-.311.74-.633 1.212-.633.698 0 1.224.343 1.224 1.266 0 .87-.462 1.352-1.18 1.352zm5.516 1.073c1.706 0 2.725-1.062 2.725-2.457 0-1.578-.9-2.35-2.392-2.35-.258 0-.655.053-.859.129l.107-1.642h2.78v-1.148h-3.906l-.28 4.163c.344-.172 1.042-.408 1.482-.408.976 0 1.502.365 1.502 1.234 0 .827-.59 1.256-1.567 1.256-.547 0-1.04-.193-1.46-.408l-.257 1.138c.494.278 1.277.493 2.125.493z"/>
                                </g>
                            </g>
                        </g>
                    </g>
                </g>
            </g>
        </g>
    </g>
</svg>
