<svg xmlns="http://www.w3.org/2000/svg" width="64" height="64" viewBox="0 0 64 64">
    <g fill="none" fill-rule="evenodd">
        <g>
            <g>
                <g>
                    <g>
                        <g>
                            <g>
                                <path d="M0 0L64 0 64 6.921 64 64 0 64z" transform="translate(-310 -767) translate(270 322) translate(0 413) translate(40 32)"/>
                                <g stroke-width="2">
                                    <path stroke="#000" stroke-linejoin="round" d="M43 0c2.21 0 4 1.79 4 4v22.124c.21-.062.433-.096.664-.096 1.29 0 2.336 1.046 2.336 2.336v3.343c0 4.441-.77 8.85-2.278 13.027L47.265 46H30.448l-2.194-6.624L24.88 34H4c-2.21 0-4-1.79-4-4V4c0-2.21 1.79-4 4-4h39z" transform="translate(-310 -767) translate(270 322) translate(0 413) translate(40 32) translate(7 8)"/>
                                    <path stroke="#000" stroke-linejoin="round" d="M29.755 32.471V16.59c0-1.43 1.16-2.59 2.59-2.59s2.59 1.16 2.59 2.59v13.867h0l.008-6.857c.002-1.434 1.165-2.596 2.599-2.596 1.433 0 2.595 1.162 2.595 2.596v6.857h0v-4.51c0-1.433 1.162-2.595 2.596-2.595 1.433 0 2.595 1.162 2.595 2.596v4.338h0v-1.922c0-1.29 1.046-2.336 2.336-2.336 1.29 0 2.336 1.046 2.336 2.336v3.343h0c0 4.441-.77 8.85-2.278 13.027L47.265 46h0-16.817l-2.194-6.624L22 29.41c1.787-1.5 4.453-1.268 5.953.52.08.093.154.19.224.291l1.578 2.251h0z" transform="translate(-310 -767) translate(270 322) translate(0 413) translate(40 32) translate(7 8)"/>
                                    <path stroke="#000" d="M28.085 46.527l.657 4.09c.036.22.226.383.45.383h18.33c.214 0 .398-.148.444-.356l.91-4.09c.055-.245-.1-.489-.345-.543-.032-.007-.065-.011-.098-.011H28.534c-.251 0-.455.204-.455.455 0 .024.002.048.006.072z" transform="translate(-310 -767) translate(270 322) translate(0 413) translate(40 32) translate(7 8)"/>
                                    <path stroke="#000" stroke-linejoin="round" d="M41 4c1.104 0 2 .895 2 2v17.366c1.308.133 2.328 1.238 2.328 2.582v2.416c0-1.29 1.046-2.336 2.336-2.336 1.29 0 2.336 1.046 2.336 2.336v3.343c0 4.441-.77 8.85-2.278 13.027L47.265 46H30.448l-2.194-6.624L22.37 30H6c-1.105 0-2-.895-2-2V6c0-1.105.895-2 2-2h35zM29.755 30h-1.744l.058.072c.037.048.073.098.108.148l1.578 2.251V30z" transform="translate(-310 -767) translate(270 322) translate(0 413) translate(40 32) translate(7 8)"/>
                                    <g stroke="#DA0F47" stroke-linecap="round">
                                        <path d="M16.465 3.773L16.363 5.59" transform="translate(-310 -767) translate(270 322) translate(0 413) translate(40 32) translate(7 8) translate(20.93 5.37) rotate(30 16.414 4.682)"/>
                                        <path d="M6.312 3.834L6.211 5.651" transform="translate(-310 -767) translate(270 322) translate(0 413) translate(40 32) translate(7 8) translate(20.93 5.37) scale(-1 1) rotate(30 0 -18.625)"/>
                                        <path d="M19.986 5.876L19.795 9.511" transform="translate(-310 -767) translate(270 322) translate(0 413) translate(40 32) translate(7 8) translate(20.93 5.37) rotate(60 19.89 7.693)"/>
                                        <path d="M2.539 6.618L2.348 10.253" transform="translate(-310 -767) translate(270 322) translate(0 413) translate(40 32) translate(7 8) translate(20.93 5.37) scale(-1 1) rotate(60 0 4.203)"/>
                                        <path d="M11.375 0L11.375 3.64" transform="translate(-310 -767) translate(270 322) translate(0 413) translate(40 32) translate(7 8) translate(20.93 5.37)"/>
                                    </g>
                                </g>
                            </g>
                        </g>
                    </g>
                </g>
            </g>
        </g>
    </g>
</svg>
