<svg xmlns="http://www.w3.org/2000/svg" width="80" height="80" viewBox="0 0 80 80">
    <g fill="none" fill-rule="evenodd">
        <path d="M0 0h80v80H0z"/>
        <g stroke-width="4">
            <path stroke="#000" d="M50.098 66.511c.635 0 5.3 1.779 10.235-1.222 3.29-2.001 4.619-5.808 3.987-11.42"/>
            <path fill="#FFF" stroke="#DA0F47" d="M41.144 61.52h9.481c2.618 0 4.74 2.123 4.74 4.741 0 2.618-2.122 4.74-4.74 4.74h-9.481c-2.619 0-4.741-2.122-4.741-4.74 0-2.618 2.122-4.74 4.74-4.74z"/>
            <path stroke="#000" stroke-linecap="round" stroke-linejoin="round" d="M65.602 30c0-15.627-11.261-25-26.501-25-15.24 0-26.551 9.373-26.551 25m1.771 1.554c3.491 0 6.321 2.83 6.321 6.321v10.114c0 3.49-2.83 6.32-6.321 6.32C10.83 54.31 8 51.48 8 47.99V37.875c0-3.491 2.83-6.321 6.321-6.321zm50.526.15c3.491 0 6.321 2.83 6.321 6.32v10.114c0 3.491-2.83 6.321-6.32 6.321-3.492 0-6.322-2.83-6.322-6.32V38.024c0-3.491 2.83-6.321 6.321-6.321z"/>
        </g>
    </g>
</svg>
