<svg xmlns="http://www.w3.org/2000/svg" width="64" height="64" viewBox="0 0 64 64">
    <g fill="none" fill-rule="evenodd">
        <g>
            <g>
                <g>
                    <g>
                        <path fill-rule="nonzero" d="M0 0H64V64H0z" transform="translate(-331 -581) translate(203 581) translate(120) translate(8)"/>
                        <g>
                            <path stroke="#000" stroke-linecap="round" stroke-linejoin="round" stroke-width="2" d="M8.75 22.318c-3.666-2.357-5.921-4.028-6.766-5.014C.718 15.824.508 14.63.298 13.842c-.21-.79-.478-2.973-.131-5.58C.513 5.652 2.1 4 4.487 4H8M39.174 22c4.5-2.145 7.15-3.71 7.948-4.696 1.199-1.48 1.397-2.673 1.596-3.462.198-.79.452-2.973.124-5.58C48.514 5.652 47.012 4 44.755 4h-4.27" transform="translate(-331 -581) translate(203 581) translate(120) translate(8) translate(8 9)"/>
                            <path stroke="#000" stroke-width="2" d="M23.935 41.15l-9.91 4.956c-.17.084-.308.213-.404.368-.095.155-.149.337-.149.526 0 .276.112.526.293.707.181.181.431.293.707.293h19.056c.19 0 .37-.054.526-.15.155-.095.284-.233.368-.403.124-.247.135-.52.055-.763-.081-.243-.255-.455-.502-.578l-10.04-4.956z" transform="translate(-331 -581) translate(203 581) translate(120) translate(8) translate(8 9)"/>
                            <path fill-rule="nonzero" stroke="#000" stroke-width="2" d="M40 2v14.836h0C40 25.763 32.837 33 24 33S8 25.763 8 16.836V2c0-1.105.895-2 2-2h28c1.105 0 2 .895 2 2z" transform="translate(-331 -581) translate(203 581) translate(120) translate(8) translate(8 9)"/>
                            <path fill="#DA0F47" fill-rule="nonzero" d="M14.31 19v-2.97c0-.85-.11-1.78-.18-2.58h.05l.75 1.59L17.07 19h1.5v-7.4h-1.4v2.95c0 .84.11 1.82.19 2.59h-.05l-.74-1.6-2.15-3.94h-1.51V19h1.4zm9.61.14c.96 0 1.75-.38 2.36-1.09l-.78-.92c-.4.43-.9.73-1.53.73-1.17 0-1.93-.97-1.93-2.58 0-1.59.84-2.55 1.96-2.55.56 0 .99.26 1.36.62l.78-.94c-.48-.5-1.23-.95-2.17-.95-1.87 0-3.44 1.43-3.44 3.87 0 2.47 1.52 3.81 3.39 3.81zm5.95 0c1.71 0 2.72-1.03 2.72-2.24 0-1.07-.59-1.64-1.49-2.01l-.97-.41c-.63-.25-1.16-.44-1.16-.97 0-.49.42-.78 1.07-.78.61 0 1.1.22 1.57.61l.75-.93c-.6-.61-1.46-.95-2.32-.95-1.5 0-2.56.93-2.56 2.14 0 1.08.75 1.68 1.5 1.99l.99.42c.66.28 1.11.45 1.11 1 0 .52-.41.85-1.18.85-.65 0-1.35-.33-1.88-.82l-.85 1.02c.72.69 1.71 1.08 2.7 1.08zm6.01-.14v-7.4H34.4V19h1.48z" transform="translate(-331 -581) translate(203 581) translate(120) translate(8) translate(8 9)"/>
                            <path stroke="#000" stroke-linecap="round" stroke-linejoin="round" stroke-width="2" d="M24 34L24 41.047" transform="translate(-331 -581) translate(203 581) translate(120) translate(8) translate(8 9)"/>
                        </g>
                    </g>
                </g>
            </g>
        </g>
    </g>
</svg>
