<svg xmlns="http://www.w3.org/2000/svg" width="64" height="64" viewBox="0 0 64 64">
    <g fill="none" fill-rule="evenodd">
        <g>
            <path d="M0 0H64V64H0z"/>
            <g transform="translate(6.5 12.5)">
                <g stroke="#000" stroke-width="2">
                    <path d="M28.926 28.5H9.703c-1.254 3.35-3.518 6.194-6.372 8.15.654.531 1.487.85 2.395.85h19.4c1.05 0 2-.425 2.687-1.113.688-.688 1.113-1.638 1.113-2.687v-5.2z" transform="translate(21.574)"/>
                    <path d="M10.152 19.5c.32 1.283.49 2.622.49 4 0 1.74-.273 3.42-.773 5.001l19.057-.001v-9H10.152zM4.679 10.499c2.658 2.294 4.633 5.427 5.491 9.001h18.756v-9L4.68 10.499z" transform="translate(21.574)"/>
                    <path d="M25.126 1.5h-19.4c-1.05 0-2 .425-2.687 1.113-.687.688-1.113 1.638-1.113 2.687l.001 3.57c.91.461 1.76 1.006 2.542 1.63h24.457V5.3c0-1.05-.425-2-1.113-2.687-.687-.688-1.637-1.113-2.687-1.113z" transform="translate(21.574)"/>
                </g>
                <circle cx="16" cy="23" r="16" stroke="#000" stroke-width="2"/>
                <text fill="#DA0F47" font-family="NotoSansCJKkr-Medium, Noto Sans CJK KR" font-size="16" font-weight="400" letter-spacing=".8">
                    <tspan x="11.5" y="29.5">P</tspan>
                </text>
            </g>
        </g>
    </g>
</svg>
