<svg xmlns="http://www.w3.org/2000/svg" width="160" height="160" viewBox="0 0 160 160">
  <defs>
    <style>
      .cls-1 {
        fill: #fff;
        opacity: 0;
      }

      .cls-2 {
        fill: #da0f47;
      }

      .cls-2, .cls-3 {
        fill-rule: evenodd;
      }
    </style>
  </defs>
  <g id="icon_goods-giftcard">
    <rect id="icon_area" class="cls-1" width="160" height="160"/>
    <g id="shape">
      <path class="cls-2" d="M708.132,375.283v0.022l34.514-.022,0-3.48-31.192.019a6.7,6.7,0,0,0-4.1-9.869,6.793,6.793,0,0,0-5.12.676v-8.711h-3.5v8.711a6.784,6.784,0,0,0-5.124-.674,6.7,6.7,0,0,0-4.1,9.848h-8.648v3.48h15.52l-4.021,3.982a0.99,0.99,0,0,0,0,1.406l0.917,0.918a1,1,0,0,0,1.414,0l4.049-4.009V392.7h3.5V377.584l4.093,4.069a1,1,0,0,0,1.414,0l0.916-.917a0.989,0.989,0,0,0,0-1.406l-4.065-4.042h3.541Zm-1.717-10.18a3.438,3.438,0,0,1-.02,6.7h-4.158V367.67A3.466,3.466,0,0,1,706.415,365.1ZM692,367.643a3.466,3.466,0,0,1,6.736.027V371.8h-4.158A3.447,3.447,0,0,1,692,367.643Z" transform="translate(-632 -296)"/>
      <path id="Shape_29_copy" data-name="Shape 29 copy" class="cls-3" d="M754.36,369.145h0l-8.5-7.853v-3.4a5.787,5.787,0,0,0-5.647-5.9h-4.247l-19.394-17.023a6.038,6.038,0,0,0-7.928-.012L689.114,351.99h-5.328a5.787,5.787,0,0,0-5.647,5.9v3.713l-8.47,7.508,0,0A1.984,1.984,0,0,0,669,370.6v42.425a5.957,5.957,0,0,0,5.935,5.966h74.129A5.958,5.958,0,0,0,755,413.026V370.6A1.982,1.982,0,0,0,754.36,369.145Zm-57.318,23.131L673,411.65v-37.1Zm3.317,2.446,8.631,6.363a5.877,5.877,0,0,0,7.1.014l7.763-5.889,24.274,19.805H675.176Zm26.765-1.991L751,374.619v37.593Zm22.776-22.28-4.039,3.064V366.72Zm-38.616-32.507a2.013,2.013,0,0,1,2.643,0l16,14.041H695.181Zm-27.5,17.9h56.428a1.928,1.928,0,0,1,1.772,2.05v18.559l-28.3,21.47a1.9,1.9,0,0,1-2.3-.021l-29.375-21.658V357.9A1.928,1.928,0,0,1,683.786,355.845Zm-5.647,17.543-3.974-2.929,3.974-3.522v6.451Z" transform="translate(-632 -296)"/>
    </g>
  </g>
</svg>
