<?xml version="1.0" encoding="UTF-8"?>
<svg width="120px" height="120px" viewBox="0 0 120 120" version="1.1" xmlns="http://www.w3.org/2000/svg" xmlns:xlink="http://www.w3.org/1999/xlink">
    <title>icon-08-120</title>
    <g id="Page-1" stroke="none" stroke-width="1" fill="none" fill-rule="evenodd">
        <g id="ic_care_dishwasher_120">
            <rect id="Rectangle" x="0" y="0" width="120" height="120"></rect>
            <g id="Group-101" transform="translate(18.000000, 23.000000)" stroke="#767676">
                <g id="Group-100">
                    <rect id="Rectangle" stroke-width="2" x="0" y="0" width="66" height="80" rx="3"></rect>
                    <rect id="Rectangle" stroke-width="2" x="23" y="8" width="20" height="7" rx="2"></rect>
                    <path d="" id="Rectangle" fill="#979797"></path>
                    <path d="" id="Rectangle" fill="#979797"></path>
                    <rect id="Rectangle" stroke-width="2" x="7" y="24" width="52" height="49" rx="2"></rect>
                    <ellipse id="Oval" stroke-width="2" fill="#FFFFFF" cx="42.5" cy="60" rx="11.5" ry="12"></ellipse>
                    <path d="M59,80 L8,80 L8,84 C8,84.5522847 8.22385763,85.0522847 8.58578644,85.4142136 C8.94771525,85.7761424 9.44771525,86 10,86 L57,86 C57.5522847,86 58.0522847,85.7761424 58.4142136,85.4142136 C58.7761424,85.0522847 59,84.5522847 59,84 L59,80 Z" id="Rectangle" stroke-width="2"></path>
                    <path d="M43,67 C46.3137085,67 49,64.3137085 49,61" id="Path" stroke-width="2" stroke-linecap="round"></path>
                    <circle id="Oval" stroke-width="2" fill="#FFFFFF" cx="24" cy="60" r="12"></circle>
                    <path d="M25,67 C28.3137085,67 31,64.3137085 31,61" id="Path" stroke-width="2" stroke-linecap="round"></path>
                </g>
            </g>
            <path d="M86.4936007,10.3857829 L83.8395277,18.2666642 L78.2778071,20.4834136 L83.8383934,22.6596255 L86.4935917,30.652865 L89.1850744,22.6591589 L94.7058227,20.4834056 L89.1839413,18.2671205 L86.4936007,10.3857829 Z" id="Path-33" stroke="#767676" stroke-width="2" fill="#FFFFFF"></path>
            <rect id="Rectangle" stroke="#767676" stroke-width="2" x="95" y="10" width="7" height="7" rx="3.5"></rect>
            <rect id="Rectangle" stroke="#767676" stroke-width="2" x="95" y="24" width="7" height="7" rx="3.5"></rect>
        </g>
    </g>
</svg>