<svg xmlns="http://www.w3.org/2000/svg" xmlns:xlink="http://www.w3.org/1999/xlink" width="64" height="64" viewBox="0 0 64 64">
    <defs>
        <path id="f70pf20i2a" d="M0 0H63.84V63.84H0z"/>
    </defs>
    <g fill="none" fill-rule="evenodd">
        <g>
            <g>
                <g>
                    <g>
                        <g>
                            <g transform="translate(-459 -1107) translate(270 879) translate(0 196) translate(189 32)">
                                <mask id="sr4uizgi0b" fill="#fff">
                                    <use xlink:href="#f70pf20i2a"/>
                                </mask>
                                <g mask="url(#sr4uizgi0b)">
                                    <g>
                                        <path stroke="#000" stroke-linecap="round" stroke-linejoin="round" stroke-width="2" d="M21.26 44.6H2.095C.938 44.6 0 43.684 0 42.554V5.046C0 3.916.938 3 2.095 3h8.904m16.705 0h8.601c1.157 0 2.095.916 2.095 2.046v16.081" transform="translate(10.42 7.92)"/>
                                        <g stroke="#DA0F47" stroke-linecap="round" stroke-linejoin="round" stroke-width="2">
                                            <path d="M0 4H6.051V28.592H0z" transform="translate(10.42 7.92) rotate(39 -4.167 71.786)"/>
                                            <path d="M0 24.749H6.051V28.592H0z" transform="translate(10.42 7.92) rotate(39 -4.167 71.786) matrix(1 0 0 -1 0 53.34)"/>
                                            <path d="M0 0.141H6.051V3.984H0z" transform="translate(10.42 7.92) rotate(39 -4.167 71.786) matrix(1 0 0 -1 0 4.126)"/>
                                            <path d="M0 28.607L3.026 36.128 6.051 28.607z" transform="translate(10.42 7.92) rotate(39 -4.167 71.786)"/>
                                        </g>
                                        <path stroke="#000" stroke-linecap="round" stroke-linejoin="round" stroke-width="2" d="M11.717 0.162L19.2 1.415 26.683 0.162 26.683 5.838 11.717 5.838z" transform="translate(10.42 7.92)"/>
                                        <g fill="#000" transform="translate(10.42 7.92) translate(7.2 14.2)">
                                            <rect width="24" height="2" rx="1"/>
                                            <rect width="24" height="2" y="7.6" rx="1"/>
                                            <path d="M1 15.2h14c.552 0 1 .448 1 1s-.448 1-1 1H1c-.552 0-1-.448-1-1s.448-1 1-1z"/>
                                        </g>
                                    </g>
                                </g>
                            </g>
                        </g>
                    </g>
                </g>
            </g>
        </g>
    </g>
</svg>
