<svg xmlns="http://www.w3.org/2000/svg" width="160" height="160" viewBox="0 0 160 160">
  <defs>
    <style>
      .cls-1 {
        fill: #fff;
        opacity: 0;
      }

      .cls-2, .cls-3 {
        fill-rule: evenodd;
      }

      .cls-3 {
        fill: #da0f47;
      }
    </style>
  </defs>
  <g id="icon_store-finder">
    <rect id="icon_area" class="cls-1" width="160" height="160"/>
    <g id="shape">
      <path class="cls-2" d="M1193.96,171.68l-18.38-13.16q-2.445,2.46-5.44,5.08c0.46-.38,1.04-0.89,1.77-1.56l18.1,12.96v44h-44.72V175l17.97-13.03c0.88,0.8,1.55,1.37,2.07,1.78q-3.15-2.745-5.71-5.32l-14.33,10.4V152.3a2.5,2.5,0,0,0-1.05-2.04l-36.37-25.94a2.477,2.477,0,0,0-2.9.01l-35.94,25.94a2.489,2.489,0,0,0-1.04,2.03v69.2a2.5,2.5,0,0,0,2.5,2.5H1192.5a2.5,2.5,0,0,0,2.5-2.5V173.72A2.52,2.52,0,0,0,1193.96,171.68ZM1140.3,219h-67.32V153.58l33.46-24.15,33.86,24.16V219Zm-15.58-40.306h-36.16a7.025,7.025,0,0,1-7.01-7.031v-4.53a7.025,7.025,0,0,1,7.01-7.031h36.16a7.032,7.032,0,0,1,7.01,7.031v4.53A7.032,7.032,0,0,1,1124.72,178.694ZM1088.56,165.1a2.032,2.032,0,0,0-2.03,2.031v4.53a2.032,2.032,0,0,0,2.03,2.031h36.16a2.03,2.03,0,0,0,2.02-2.031v-4.53a2.03,2.03,0,0,0-2.02-2.031h-36.16Zm36.16,40.776h-36.16a7.026,7.026,0,0,1-7.01-7.031v-4.531a7.025,7.025,0,0,1,7.01-7.03h36.16a7.031,7.031,0,0,1,7.01,7.03v4.531A7.032,7.032,0,0,1,1124.72,205.878Zm-36.16-13.592a2.032,2.032,0,0,0-2.03,2.03v4.531a2.032,2.032,0,0,0,2.03,2.031h36.16a2.03,2.03,0,0,0,2.02-2.031v-4.531a2.03,2.03,0,0,0-2.02-2.03h-36.16Z" transform="translate(-1052 -86)"/>
      <path id="Shape_12_copy" data-name="Shape 12 copy" class="cls-3" d="M1183.78,114.79a22.566,22.566,0,0,0-32.27,0,23.218,23.218,0,0,0-6.69,16.38c0,5.9,2.72,15.15,14.8,27.26q2.565,2.58,5.71,5.32l0.18,0.15,2.14,1.89,2.32-2.04c0.06-.05.12-0.1,0.17-0.15q3-2.625,5.44-5.08c12.15-12.15,14.9-21.44,14.9-27.35A23.185,23.185,0,0,0,1183.78,114.79ZM1169,157.92c-0.44.41-.89,0.81-1.35,1.22-14.72-13.07-17.84-22.4-17.84-27.97a18.156,18.156,0,0,1,5.26-12.86,17.569,17.569,0,0,1,25.17,0,18.231,18.231,0,0,1,5.25,12.86C1185.49,136.57,1182.56,145.49,1169,157.92Zm-1.35-15.406a11.561,11.561,0,1,1,11.53-11.561A11.557,11.557,0,0,1,1167.65,142.514Zm0-18.122a6.561,6.561,0,1,0,6.54,6.561A6.564,6.564,0,0,0,1167.65,124.392Z" transform="translate(-1052 -86)"/>
    </g>
  </g>
</svg>
