<?xml version="1.0" encoding="UTF-8"?>
<svg width="80px" height="80px" viewBox="0 0 80 80" version="1.1" xmlns="http://www.w3.org/2000/svg" xmlns:xlink="http://www.w3.org/1999/xlink">
    <title>icon-fixed-80</title>
    <g id="Page-1" stroke="none" stroke-width="1" fill="none" fill-rule="evenodd">
        <g id="img_fixing_80">
            <rect id="Rectangle" x="0" y="0" width="80" height="80"></rect>
            <g id="Group-4" transform="translate(7.000000, 6.000000)" stroke="#000000" stroke-width="2.5">
                <path d="M28.1525217,21.0040214 L22.88117,16.9985794 L28.4143569,-0.771303928 L38.0792842,-0.771303928 L44.1993518,17.2743971 L38.1465414,21.0495916 M39.0334135,20.080012 L39.0334135,63.8652164 C39.0334135,67.1491782 36.53367,69.8113552 33.4500801,69.8113552 C30.3664903,69.8113552 27.8667468,67.1491782 27.8667468,63.8652164 L27.8667468,20.080012" id="Combined-Shape" stroke-linejoin="round" transform="translate(33.540261, 34.520026) rotate(-315.000000) translate(-33.540261, -34.520026) "></path>
                <path d="M35.9298075,-1.11958381 C41.2985724,0.0679566677 45.3205269,4.9461012 45.3205269,10.7833966 C45.3205269,15.5963224 42.5863152,19.7571966 38.6173682,21.7349804 L38.6169196,63.3212915 C38.6169196,66.4048813 36.1171762,68.9046248 33.0335863,68.9046248 C29.9499964,68.9046248 27.450253,66.4048813 27.450253,63.3212915 L27.4497246,21.3456711 C23.8727165,19.2429512 21.4644663,15.3003322 21.4644663,10.7833966 C21.4644663,4.94636357 25.4860591,0.0683951824 30.8544617,-1.11942366 L30.8546178,8.48004963 C30.8546178,9.16195734 31.3728635,9.72282228 32.0369771,9.7902667 L32.1716344,9.79706631 L34.6133587,9.79706631 C35.2952664,9.79706631 35.8561313,9.2788206 35.9235757,8.61470694 L35.9303753,8.48004963 L35.9298075,-1.11958381 Z" id="Combined-Shape" fill="#FFFFFF" transform="translate(33.392497, 33.892521) rotate(-45.000000) translate(-33.392497, -33.892521) "></path>
            </g>
        </g>
    </g>
</svg>