<svg xmlns="http://www.w3.org/2000/svg" width="80" height="80" viewBox="0 0 80 80">
    <g>
        <path fill-rule="evenodd" d="M1066.04 1265a30.925 30.925 0 0 0-29.48 21.52l-2.12-3.95a1.687 1.687 0 0 0-2.3-.69 1.714 1.714 0 0 0-.7 2.31l4.41 8.2a1.676 1.676 0 0 0 1.5.9 1.637 1.637 0 0 0 .8-.2l8.48-4.57a1.7 1.7 0 1 0-1.61-3l-4.73 2.54a26.974 26.974 0 1 1-.54 13.91 2 2 0 1 0-3.9.88 30.963 30.963 0 1 0 30.19-37.85zm-.25 15.66a2.008 2.008 0 0 0-2 2.01v14.63a2.022 2.022 0 0 0 .75 1.56l9 7.28a2.006 2.006 0 0 0 1.26.45 2 2 0 0 0 1.25-3.56l-8.26-6.69v-13.67a2 2 0 0 0-2-2.01z" transform="translate(-1024 -1256)"/>
    </g>
</svg>
