<svg xmlns="http://www.w3.org/2000/svg" width="64" height="64" viewBox="0 0 64 64">
    <g fill="none" fill-rule="evenodd">
        <g>
            <g>
                <g>
                    <g>
                        <path fill-rule="nonzero" d="M0 0H64V64H0z" transform="translate(-761 -4896) translate(270 4801) translate(491 95)"/>
                        <g>
                            <path stroke="#000" stroke-linecap="round" stroke-linejoin="round" stroke-width="2" d="M8.75 22.318c-3.666-2.357-5.921-4.028-6.766-5.014C.718 15.824.508 14.63.298 13.842c-.21-.79-.478-2.973-.131-5.58C.513 5.652 2.1 4 4.487 4H8M39.174 22c4.5-2.145 7.15-3.71 7.948-4.696 1.199-1.48 1.397-2.673 1.596-3.462.198-.79.452-2.973.124-5.58C48.514 5.652 47.012 4 44.755 4h-4.27" transform="translate(-761 -4896) translate(270 4801) translate(491 95) translate(8 9)"/>
                            <path stroke="#000" stroke-width="2" d="M23.935 41.15l-9.91 4.956c-.17.084-.308.213-.404.368-.095.155-.149.337-.149.526 0 .276.112.526.293.707.181.181.431.293.707.293h19.056c.19 0 .37-.054.526-.15.155-.095.284-.233.368-.403.124-.247.135-.52.055-.763-.081-.243-.255-.455-.502-.578l-10.04-4.956z" transform="translate(-761 -4896) translate(270 4801) translate(491 95) translate(8 9)"/>
                            <path fill-rule="nonzero" stroke="#000" stroke-width="2" d="M40 2v14.836h0C40 25.763 32.837 33 24 33S8 25.763 8 16.836V2c0-1.105.895-2 2-2h28c1.105 0 2 .895 2 2z" transform="translate(-761 -4896) translate(270 4801) translate(491 95) translate(8 9)"/>
                            <text fill="#DA0F47" font-family="NotoSansCJKkr-Bold, Noto Sans CJK KR" font-size="10" font-weight="bold" letter-spacing=".5" transform="translate(-761 -4896) translate(270 4801) translate(491 95) translate(8 9)">
                                <tspan x="12" y="19">NCSI</tspan>
                            </text>
                            <path stroke="#000" stroke-linecap="round" stroke-linejoin="round" stroke-width="2" d="M24 34L24 41.047" transform="translate(-761 -4896) translate(270 4801) translate(491 95) translate(8 9)"/>
                        </g>
                    </g>
                </g>
            </g>
        </g>
    </g>
</svg>
