<?xml version="1.0" encoding="UTF-8"?>
<svg width="48px" height="48px" viewBox="0 0 48 48" version="1.1" xmlns="http://www.w3.org/2000/svg" xmlns:xlink="http://www.w3.org/1999/xlink">
    <title>icon-01-48</title>
    <g id="Page-1" stroke="none" stroke-width="1" fill="none" fill-rule="evenodd">
        <g id="Group-117">
            <rect id="Rectangle" x="0" y="0" width="48" height="48"></rect>
            <path d="M34.2850373,5.75 L33.7149627,5.75 C33.1369923,5.75 32.606039,5.96897815 32.2052007,6.3317318 C31.8043624,6.69448545 31.5336392,7.20101461 31.476129,7.77611663 L30.9603891,13.0324869 C30.9688659,13.3647597 31.1070042,13.6647961 31.3260916,13.8838835 C31.5522972,14.110089 31.8647972,14.25 32.2099751,14.25 L33.75,14.25 L33.75,26.75 L32,26.75 C31.654822,26.75 31.342322,26.889911 31.1161165,27.1161165 C30.889911,27.342322 30.75,27.654822 30.75,28 L30.75,41 C30.75,41.345178 30.889911,41.657678 31.1161165,41.8838835 C31.342322,42.110089 31.654822,42.25 32,42.25 L36,42.25 C36.345178,42.25 36.657678,42.110089 36.8838835,41.8838835 C37.110089,41.657678 37.25,41.345178 37.25,41 L37.25,28 C37.25,27.654822 37.110089,27.342322 36.8838835,27.1161165 C36.657678,26.889911 36.345178,26.75 36,26.75 L34.25,26.75 L34.25,14.257489 L35.9439906,14.2404886 C36.2749157,14.1995667 36.5607365,14.0320012 36.7574715,13.7915472 C36.9600461,13.5439561 37.0681679,13.2190853 37.0338214,12.8756204 L36.523871,7.77611663 C36.4663608,7.20101461 36.1956376,6.69448545 35.7947993,6.3317318 C35.393961,5.96897815 34.8630077,5.75 34.2850373,5.75 Z M15.2500725,6.21919958 C13.7793032,6.73900796 12.5001,7.66425062 11.54625,8.86022814 C10.4218589,10.2700373 9.75,12.0565816 9.75,14 C9.75,15.7595415 10.3006579,17.3905224 11.2394295,18.7296841 C12.3073425,20.2530665 13.8768099,21.3993352 15.7084386,21.927785 L14.9277292,39.1937269 C14.9320655,40.0397904 15.2793632,40.8049421 15.8560516,41.3560128 C16.4341827,41.9084621 17.2395358,42.2435848 18.1555498,42.2460505 C18.9965607,42.2034953 19.7420631,41.8262195 20.2688578,41.2492539 C20.7990177,40.6686025 21.1076666,39.885702 21.069143,39.0381816 L20.2914285,21.9278233 C22.1231141,21.3993906 23.6926317,20.2531033 24.7605705,18.7296841 C25.6993421,17.3905224 26.25,15.7595415 26.25,14 C26.25,12.056751 25.5782582,10.2703486 24.4540439,8.86059669 C23.5003475,7.66467224 22.2213432,6.73941966 20.7507818,6.21950156 L20.7499563,12.5340611 L18,15.0090218 L15.2499959,12.5340182 L15.2500725,6.21919958 Z" id="Combined-Shape" stroke="#222222" stroke-width="1.5"></path>
        </g>
    </g>
</svg>