<svg width="80" height="80" viewBox="0 0 80 80" xmlns="http://www.w3.org/2000/svg">
    <g fill="none" fill-rule="evenodd">
        <path d="M0 80h80V0H0z"/>
        <path d="M25.6 40.8c0-7.953 6.447-14.4 14.4-14.4s14.4 6.447 14.4 14.4S47.953 55.2 40 55.2s-14.4-6.447-14.4-14.4z" stroke="#000" stroke-width="2" stroke-linecap="round" stroke-linejoin="round"/>
        <path d="M26.4 17a1 1 0 0 1 1-1h25.2a1 1 0 0 1 0 2H27.4a1 1 0 0 1-1-1z" fill="#000"/>
        <rect stroke="#000" stroke-width="2" x="16" y="8" width="48" height="57.6" rx="4"/>
        <path d="m62.037 67.972-.137-.133-8.824-8.928a8.283 8.283 0 0 1-1.203.108c-2.19.036-4.235-.793-5.759-2.334-2.581-2.612-3.05-6.723-1.14-9.999l4.086 4.134c.779.788 2.048.797 2.887.041l.182-.178.25-.253c.804-.814.854-2.099.134-2.924l-.14-.147-3.939-3.986a8.206 8.206 0 0 1 4.948-.871 7.797 7.797 0 0 1 4.517 2.26c1.524 1.54 2.343 3.61 2.307 5.825a8.557 8.557 0 0 1-.2 1.709l8.66 8.762c.78.788.79 2.065.047 2.916l-.184.192-3.603 3.67c-.805.814-2.073.865-2.89.136z" stroke="#DA0F47" stroke-width="2" fill="#FFF" stroke-linejoin="round"/>
    </g>
</svg>
