<?xml version="1.0" encoding="UTF-8"?>
<svg width="60px" height="60px" viewBox="0 0 60 60" version="1.1" xmlns="http://www.w3.org/2000/svg" xmlns:xlink="http://www.w3.org/1999/xlink">
    <title>icon-product02-60</title>
    <g id="Page-1" stroke="none" stroke-width="1" fill="none" fill-rule="evenodd">
        <g id="btn_catergory_PC_60">
            <rect id="Rectangle" x="0" y="0" width="60" height="60"></rect>
            <g id="Group-51" transform="translate(2.000000, 11.000000)" fill="#767676" fill-rule="nonzero">
                <g id="Group-49">
                    <g id="Group-70">
                        <g id="Group-71">
                            <path d="M45,0 C46.6568542,0 48,1.34314575 48,3 L48,23 C48,24.6568542 46.6568542,26 45,26 L11,26 C9.34314575,26 8,24.6568542 8,23 L8,3 C8,1.34314575 9.34314575,0 11,0 L45,0 Z M45,2 L11,2 C10.4871642,2 10.0644928,2.38604019 10.0067277,2.88337887 L10,3 L10,23 C10,23.5128358 10.3860402,23.9355072 10.8833789,23.9932723 L11,24 L45,24 C45.5128358,24 45.9355072,23.6139598 45.9932723,23.1166211 L46,23 L46,3 C46,2.48716416 45.6139598,2.06449284 45.1166211,2.00672773 L45,2 Z" id="Rectangle"></path>
                            <path d="M43,3 C44.1045695,3 45,3.8954305 45,5 L45,20.9047619 C45,22.0093314 44.1045695,22.9047619 43,22.9047619 L13,22.9047619 C11.8954305,22.9047619 11,22.0093314 11,20.9047619 L11,5 C11,3.8954305 11.8954305,3 13,3 L43,3 Z M43,5 L13,5 L13,20.9047619 L43,20.9047619 L43,5 Z" id="Rectangle"></path>
                            <path d="M46.3944487,24 C47.3975083,24 48.3342023,24.5013034 48.8905996,25.3358994 L52.8905996,31.3358994 C53.809657,32.7144855 53.4371354,34.5770935 52.0585493,35.4961509 C51.5657468,35.8246859 50.9867237,36 50.3944487,36 L5.60555128,36 C3.94869703,36 2.60555128,34.6568542 2.60555128,33 C2.60555128,32.407725 2.78086536,31.828702 3.10940039,31.3358994 L7.10940039,25.3358994 C7.66579773,24.5013034 8.60249171,24 9.60555128,24 L46.3944487,24 Z M46.3944487,26 L9.60555128,26 C9.31299224,26 9.03737025,26.1279368 8.8487884,26.3462924 L8.77350098,26.4452998 L4.77350098,32.4452998 C4.6639893,32.6095673 4.60555128,32.802575 4.60555128,33 C4.60555128,33.5128358 4.99159147,33.9355072 5.48893015,33.9932723 L5.60555128,34 L50.3944487,34 C50.5918737,34 50.7848814,33.941562 50.9491489,33.8320503 C51.3758541,33.5475802 51.5134014,32.9919194 51.285591,32.5460663 L51.226499,32.4452998 L47.226499,26.4452998 C47.0642165,26.201876 46.804879,26.0435112 46.5185898,26.0077235 L46.3944487,26 Z" id="Rectangle"></path>
                            <path d="M51.2,33.4 C51.5313708,32.9581722 52.1581722,32.8686292 52.6,33.2 C53.007841,33.5058808 53.1155105,34.0634893 52.8690296,34.4949748 L52.8,34.6 L49.8,38.6 C49.6347524,38.8203301 49.3871742,38.9613325 49.1169988,38.9931405 L49,39 L7.01438226,39 C6.73896962,39 6.47762074,38.8865388 6.29006916,38.6894833 L6.21438226,38.6 L3.21438226,34.6 C2.88301141,34.1581722 2.97255446,33.5313708 3.41438226,33.2 C3.82222331,32.8941192 4.38767495,32.946887 4.7328864,33.3043246 L4.81438226,33.4 L7.514,37 L48.499,37 L51.2,33.4 Z" id="Path"></path>
                            <path d="M37.2380492,29.5 C37.5558644,29.5 37.8521854,29.6508279 38.0394992,29.9019127 L38.1044613,30.0006703 L40.4097374,34.0006703 C40.6855096,34.4791764 40.5211612,35.0906398 40.0426551,35.366412 C39.5983279,35.6224862 39.0393591,35.4990687 38.7409747,35.0970123 L38.6769133,34.9993297 L36.66,31.5 L20.426,31.5 L18.4097374,34.9993297 C18.1536632,35.4436569 17.608141,35.6171031 17.1483969,35.4188154 L17.0439956,35.366412 C16.5996685,35.1103378 16.4262223,34.5648156 16.6245099,34.1050716 L16.6769133,34.0006703 L18.9821894,30.0006703 C19.140884,29.7253114 19.419525,29.5438881 19.7305992,29.5069713 L19.8486015,29.5 L37.2380492,29.5 Z" id="Path-2"></path>
                        </g>
                    </g>
                </g>
            </g>
        </g>
    </g>
</svg>