<?xml version="1.0" encoding="UTF-8"?>
<svg width="60px" height="60px" viewBox="0 0 60 60" version="1.1" xmlns="http://www.w3.org/2000/svg" xmlns:xlink="http://www.w3.org/1999/xlink">
    <title>icon-product01-60</title>
    <g id="Page-1" stroke="none" stroke-width="1" fill="none" fill-rule="evenodd">
        <g id="Group-68">
            <rect id="Rectangle" x="0" y="0" width="60" height="60"></rect>
            <g id="Group-52" transform="translate(8.000000, 6.000000)" fill="#767676" fill-rule="nonzero">
                <g id="Group-53">
                    <g id="Group-51" transform="translate(0.000000, 11.257857)">
                        <g id="Group-49">
                            <path d="M41,0 C42.6568542,0 44,1.34314575 44,3 L44,28 C44,29.6568542 42.6568542,31 41,31 L3,31 C1.34314575,31 0,29.6568542 0,28 L0,3 C0,1.34314575 1.34314575,0 3,0 L41,0 Z M41,2 L3,2 C2.48716416,2 2.06449284,2.38604019 2.00672773,2.88337887 L2,3 L2,28 C2,28.5128358 2.38604019,28.9355072 2.88337887,28.9932723 L3,29 L41,29 C41.5128358,29 41.9355072,28.6139598 41.9932723,28.1166211 L42,28 L42,3 C42,2.48716416 41.6139598,2.06449284 41.1166211,2.00672773 L41,2 Z" id="Rectangle"></path>
                        </g>
                        <path d="M40,33 C40.5522847,33 41,33.4477153 41,34 C41,34.5522847 40.5522847,35 40,35 L4,35 C3.44771525,35 3,34.5522847 3,34 C3,33.4477153 3.44771525,33 4,33 L40,33 Z" id="Rectangle"></path>
                    </g>
                    <path d="M34.0387654,0.217123378 C34.4711363,-0.12649548 35.1002002,-0.0545477993 35.443819,0.37782302 C35.7610057,0.776934546 35.7241001,1.34364256 35.3764741,1.69873234 L35.2831194,1.78287662 L22.184925,12.1924288 L12.5269098,7.00623136 C12.0403392,6.74495085 11.8577055,6.13869775 12.118986,5.65212716 C12.3616036,5.20031161 12.9016721,5.0105641 13.3671625,5.1949583 L13.4730902,5.24420339 L21.971,9.807 L34.0387654,0.217123378 Z" id="Path-17"></path>
                </g>
            </g>
        </g>
    </g>
</svg>