<svg xmlns="http://www.w3.org/2000/svg" width="20" height="20" viewBox="0 0 20 20">
    <g fill="none" fill-rule="evenodd">
        <g>
            <path d="M0 0H20V20H0z"/>
            <g>
                <g>
                    <g>
                        <path stroke="#FFF" stroke-linecap="round" stroke-linejoin="round" stroke-width="1.5" d="M6 3C2.686 3 0 5.686 0 9s2.686 6 6 6 6-2.686 6-6c0-.904-.2-1.761-.558-2.53" transform="translate(4 2)"/>
                        <path fill="#FFF" d="M6.854 1.025l1.62 1.621c.196.196.196.512 0 .708l-1.62 1.62c-.196.196-.512.196-.708 0C6.053 4.882 6 4.755 6 4.622V1.38c0-.276.224-.5.5-.5.133 0 .26.052.354.146z" transform="translate(4 2)"/>
                    </g>
                </g>
            </g>
        </g>
    </g>
</svg>
