<svg xmlns="http://www.w3.org/2000/svg" width="160" height="160" viewBox="0 0 160 160">
    <g fill="none" fill-rule="evenodd">
        <g>
            <g>
                <g>
                    <path d="M0 0H160V160H0z" transform="translate(-346 -4900) translate(80 4564) translate(266 336)"/>
                    <g stroke-width="5">
                        <path stroke="#000" d="M110.482 68.5l-29.635.001c-5.769 7.121-10.706 12.02-11.214 12.523-1.006.98-2.32 1.476-3.633 1.476-1.314 0-2.627-.496-3.646-1.489-.495-.49-5.432-5.389-11.2-12.51L21.517 68.5c-.768 0-1.491.25-2.079.684-.587.434-1.04 1.052-1.266 1.786l-15.393 50c-.103.334-.155.68-.155 1.03 0 .966.392 1.841 1.025 2.475.634.633 1.509 1.025 2.475 1.025h119.75c.349 0 .696-.052 1.03-.155.923-.284 1.644-.916 2.063-1.708.42-.792.536-1.743.252-2.667l-15.393-50c-.226-.734-.679-1.352-1.266-1.786-.588-.434-1.311-.684-2.08-.684z" transform="translate(-346 -4900) translate(80 4564) translate(266 336) translate(14 16)"/>
                        <path fill-rule="nonzero" stroke="#000" stroke-linejoin="bevel" d="M66 0C48.352 0 34 14.128 34 31.5c0 21.835 28.885 50.52 30.112 51.734.523.509 1.205.766 1.888.766.683 0 1.365-.257 1.888-.766C69.115 82.02 98 53.334 98 31.5 98 14.128 83.648 0 66 0z" transform="translate(-346 -4900) translate(80 4564) translate(266 336) translate(14 16)"/>
                        <g stroke="#DA0F47" transform="translate(-346 -4900) translate(80 4564) translate(266 336) translate(14 16) translate(50 14)">
                            <rect width="26.883" height="27" x="2.5" y="3.324" rx="13.441"/>
                        </g>
                    </g>
                </g>
            </g>
        </g>
    </g>
</svg>
