<svg xmlns="http://www.w3.org/2000/svg" width="64" height="64" viewBox="0 0 64 64">
  <defs>
    <style>
      .cls-1 {
        fill: #fff;
        opacity: 0;
      }

      .cls-2, .cls-3 {
        fill-rule: evenodd;
      }

      .cls-3 {
        fill: #da0f47;
      }
    </style>
  </defs>
  <g id="icon_product-resolution-64">
    <rect id="icon_area" class="cls-1" width="64" height="64"/>
    <g id="shape">
      <path class="cls-2" d="M48.087,1059.75l-6.784-6.83a3.125,3.125,0,0,0-2.217-.92H23.694a3.714,3.714,0,0,0-3.7,3.72v28.76a3.714,3.714,0,0,0,3.7,3.72h7.328a1,1,0,0,0,0-2H23.694a1.714,1.714,0,0,1-1.706-1.72v-28.76a1.714,1.714,0,0,1,1.706-1.72H38.977v6.18a1.907,1.907,0,0,0,1.9,1.91h6.142v10.03a1,1,0,1,0,1.991,0v-10.14A3.119,3.119,0,0,0,48.087,1059.75Zm-7.12-4.33,4.64,4.66h-4.64v-4.66ZM26.63,1067.51H41a1,1,0,0,0,0-2H26.63A1,1,0,0,0,26.63,1067.51Zm0,4.83h5.5a1,1,0,0,0,0-2h-5.5A1,1,0,0,0,26.63,1072.34Zm13.664-.22a8.44,8.44,0,1,0,8.391,8.44A8.416,8.416,0,0,0,40.294,1072.12Zm0,14.88a6.435,6.435,0,1,1,6.4-6.44A6.428,6.428,0,0,1,40.294,1087Z" transform="translate(-2 -1038)"/>
      <path id="Shape_37_copy" data-name="Shape 37 copy" class="cls-3" d="M39.393,1078.3h1.8v-1.81h-1.8v1.81Zm0,6.34h1.8v-5.44h-1.8v5.44Z" transform="translate(-2 -1038)"/>
    </g>
  </g>
</svg>
