<svg xmlns="http://www.w3.org/2000/svg" xmlns:xlink="http://www.w3.org/1999/xlink" width="64" height="64" viewBox="0 0 64 64">
    <defs>
        <path id="yxdf3idq3a" d="M0 0H63.84V63.84H0z"/>
    </defs>
    <g fill="none" fill-rule="evenodd">
        <g>
            <g stroke-width="2" transform="translate(11 7)">
                <path stroke="#000" stroke-linecap="round" stroke-linejoin="round" d="M18.5 46H2c-1.074 0-2-.925-2-2V6c0-1.075.926-2 2-2h9m16 0h9c1.036 0 2 .91 2 2v13.463"/>
                <path stroke="#DA0F47" stroke-linecap="round" d="M8 17.451L10.164 19 14 15M8 24.451L10.164 26 14 22"/>
                <rect width="6" height="6" x="8" y="31" stroke="#000" rx="2"/>
                <g stroke="#000" stroke-linecap="round" stroke-linejoin="round">
                    <path d="M.285 2.321c.01-1.097.902-1.981 2-1.981h2c1.104 0 2 .895 2 2v.018h0l-.22 23.772h0l-3.053 6.914L.065 26.13l.22-23.809zM.186 26.032L6.065 26.13" transform="rotate(39 -9.434 70.48)"/>
                </g>
                <path stroke="#000" stroke-linecap="round" stroke-linejoin="round" d="M14.597.812l4.306 1.346c.389.122.805.122 1.194 0L24.403.812c1.054-.33 2.176.258 2.506 1.312.06.193.091.394.091.597V4c0 1.105-.895 2-2 2H14c-1.105 0-2-.895-2-2V2.72c0-1.104.895-2 2-2 .202 0 .404.032.597.092zM19.5 17.5L31.5 17.5M19.5 24.5L31.5 24.5"/>
            </g>
        </g>
    </g>
</svg>
