<svg xmlns="http://www.w3.org/2000/svg" width="32" height="32" viewBox="0 0 32 32">
    <g fill="none" fill-rule="evenodd">
        <g>
            <path d="M0 0H32V32H0z"/>
            <g stroke-width="1.568">
                <path fill-rule="nonzero" stroke="#000" d="M15.826 15.274c-.68-.656-1.529-.656-2.204 0-.516.5-1.031 1-1.538 1.508-.139.14-.256.17-.425.076-.333-.178-.689-.322-1.01-.517-1.494-.919-2.746-2.1-3.855-3.43-.55-.661-1.04-1.368-1.381-2.165-.07-.16-.057-.266.078-.398.515-.487 1.018-.987 1.524-1.486.707-.695.707-1.508-.004-2.207-.403-.398-.806-.788-1.209-1.186-.415-.407-.827-.817-1.247-1.22-.68-.648-1.53-.648-2.205.004-.52.5-1.018 1.013-1.547 1.504C.314 6.21.067 6.765.015 7.413c-.082 1.055.182 2.05.555 3.02.762 2.008 1.923 3.79 3.33 5.426 1.902 2.21 4.172 3.96 6.828 5.222 1.195.568 2.434 1.004 3.782 1.076.927.05 1.732-.178 2.378-.885.442-.483.94-.924 1.408-1.385.693-.687.697-1.517.008-2.194-.823-.81-1.65-1.614-2.478-2.419z" transform="translate(4.5 5)"/>
                <path stroke="#DA0F47" stroke-linecap="round" stroke-linejoin="bevel" d="M23 11.71C23 5.241 17.57 0 10.873 0" transform="translate(4.5 5)"/>
                <path stroke="#DA0F47" stroke-linecap="round" stroke-linejoin="round" d="M17.982 11.29c0-3.694-2.996-6.69-6.691-6.69" transform="translate(4.5 5)"/>
            </g>
        </g>
    </g>
</svg>
