<svg id="img_floatingchat_40" xmlns="http://www.w3.org/2000/svg" width="40" height="40" viewBox="0 0 40 40">
  <g id="img_floatingchat_40-2" data-name="img_floatingchat_40">
    <rect id="Area" width="40" height="40" fill="none"/>
    <g id="ic" transform="translate(8.999 7.001)">
      <g id="Rectangle" transform="translate(0.001)" fill="none" stroke-linecap="round" stroke-linejoin="round" stroke-miterlimit="10">
        <path d="M0,1.093A1.093,1.093,0,0,1,1.093,0H16.937L22.4,6.567V24.039a1.093,1.093,0,0,1-1.093,1.093H1.093A1.093,1.093,0,0,1,0,24.039Z" stroke="none"/>
        <path d="M 1.092704772949219 1.9073486328125e-06 C 0.4892158508300781 1.9073486328125e-06 -3.814697265625e-06 0.4892215728759766 -3.814697265625e-06 1.092702865600586 L -3.814697265625e-06 24.03944206237793 C -3.814697265625e-06 24.64292335510254 0.4892158508300781 25.13214302062988 1.092704772949219 25.13214302062988 L 21.30768585205078 25.13214302062988 C 21.91116523742676 25.13214302062988 22.4003849029541 24.64292335510254 22.4003849029541 24.03944206237793 L 22.4003849029541 6.567173004150391 L 16.93687438964844 1.9073486328125e-06 L 1.092704772949219 1.9073486328125e-06 M 1.092704772949219 -1.499998092651367 L 16.93687438964844 -1.499998092651367 C 17.38247489929199 -1.499998092651367 17.80500602722168 -1.301877975463867 18.08999633789063 -0.9593276977539063 L 23.55350494384766 5.607843399047852 C 23.77765464782715 5.87727165222168 23.9003849029541 6.216691970825195 23.9003849029541 6.567173004150391 L 23.9003849029541 24.03944206237793 C 23.9003849029541 25.46906280517578 22.7373046875 26.63214302062988 21.30768585205078 26.63214302062988 L 1.092704772949219 26.63214302062988 C -0.3369255065917969 26.63214302062988 -1.500003814697266 25.46906280517578 -1.500003814697266 24.03944206237793 L -1.500003814697266 1.092702865600586 C -1.500003814697266 -0.3369178771972656 -0.3369255065917969 -1.499998092651367 1.092704772949219 -1.499998092651367 Z" stroke="none" fill="#000"/>
      </g>
      <path id="Path" d="M0,0V5.474A1.093,1.093,0,0,0,1.093,6.567H5.464" transform="translate(16.937 0)" fill="none" stroke="#000" stroke-linecap="round" stroke-linejoin="round" stroke-miterlimit="10" stroke-width="1.5"/>
      <path id="Path_23" data-name="Path 23" d="M.616-5.832H4.582v1H1.888v1.578h2.5v.985h-2.5V.487H.616Zm6.606,0H8.9L11.11.487H9.715L9.183-1.152H6.822L6.29.487H4.948Zm.758.985L7.153-2.163h1.7L8.059-4.847ZM15.171.5a3.857,3.857,0,0,1-.828.1,3.271,3.271,0,0,1-1.3-.227,2.114,2.114,0,0,1-.85-.649,2.616,2.616,0,0,1-.466-1.028,6.142,6.142,0,0,1-.139-1.373,3.547,3.547,0,0,1,.723-2.445,2.917,2.917,0,0,1,2.266-.8,3.337,3.337,0,0,1,1.307.227,2.088,2.088,0,0,1,.858.654,2.656,2.656,0,0,1,.466,1.037,6.2,6.2,0,0,1,.139,1.377,3.833,3.833,0,0,1-.288,1.6,2.7,2.7,0,0,1-.741.989l-.1.078,1.281,1.159-.976.671ZM14.6-4.969a1.908,1.908,0,0,0-.819.157,1.28,1.28,0,0,0-.532.462,2.026,2.026,0,0,0-.283.745,5.54,5.54,0,0,0-.083,1.015,5.831,5.831,0,0,0,.061.867,2.1,2.1,0,0,0,.227.706,1.25,1.25,0,0,0,.44.471,1.332,1.332,0,0,0,.71.17,2,2,0,0,0,.824-.148,1.207,1.207,0,0,0,.523-.449,2.035,2.035,0,0,0,.279-.745,5.724,5.724,0,0,0,.083-1.037,5.681,5.681,0,0,0-.061-.854,2.164,2.164,0,0,0-.222-.7,1.273,1.273,0,0,0-.44-.479A1.286,1.286,0,0,0,14.6-4.969Z" transform="translate(2.385 15.465)" fill="#da0f47"/>
    </g>
  </g>
</svg>
