<svg id="img_floatingchat_40" xmlns="http://www.w3.org/2000/svg" width="40" height="40" viewBox="0 0 40 40">
  <rect id="Area" width="40" height="40" fill="none"/>
  <g id="ic" transform="translate(8.999 7.001)">
    <g id="Rectangle" transform="translate(-0.002)" fill="none" stroke-linecap="round" stroke-linejoin="round" stroke-miterlimit="10">
      <path d="M0,1.093A1.093,1.093,0,0,1,1.093,0H16.937L22.4,6.567V24.039a1.093,1.093,0,0,1-1.093,1.093H1.093A1.093,1.093,0,0,1,0,24.039Z" stroke="none"/>
      <path d="M 1.092704772949219 1.9073486328125e-06 C 0.4892158508300781 1.9073486328125e-06 -3.814697265625e-06 0.4892215728759766 -3.814697265625e-06 1.092702865600586 L -3.814697265625e-06 24.03944206237793 C -3.814697265625e-06 24.64292335510254 0.4892158508300781 25.13214302062988 1.092704772949219 25.13214302062988 L 21.30768585205078 25.13214302062988 C 21.91116523742676 25.13214302062988 22.4003849029541 24.64292335510254 22.4003849029541 24.03944206237793 L 22.4003849029541 6.567173004150391 L 16.93687438964844 1.9073486328125e-06 L 1.092704772949219 1.9073486328125e-06 M 1.092704772949219 -1.499998092651367 L 16.93687438964844 -1.499998092651367 C 17.38247489929199 -1.499998092651367 17.80500602722168 -1.301877975463867 18.08999633789063 -0.9593276977539063 L 23.55350494384766 5.607843399047852 C 23.77765464782715 5.87727165222168 23.9003849029541 6.216691970825195 23.9003849029541 6.567173004150391 L 23.9003849029541 24.03944206237793 C 23.9003849029541 25.46906280517578 22.7373046875 26.63214302062988 21.30768585205078 26.63214302062988 L 1.092704772949219 26.63214302062988 C -0.3369255065917969 26.63214302062988 -1.500003814697266 25.46906280517578 -1.500003814697266 24.03944206237793 L -1.500003814697266 1.092702865600586 C -1.500003814697266 -0.3369178771972656 -0.3369255065917969 -1.499998092651367 1.092704772949219 -1.499998092651367 Z" stroke="none" fill="#000"/>
    </g>
    <path id="Path" d="M0,0V5.474A1.093,1.093,0,0,0,1.093,6.567H5.464" transform="translate(16.937 0)" fill="none" stroke="#000" stroke-linecap="round" stroke-linejoin="round" stroke-miterlimit="10" stroke-width="1.5"/>
    <g id="Group_89" data-name="Group 89">
      <path id="Path_22" data-name="Path 22" d="M2.655-3.78h1.92C4.35-5.895,6.96-6.615,6.96-8.745c0-1.92-1.32-2.85-3.12-2.85A4.15,4.15,0,0,0,.69-10.1l1.215,1.11a2.313,2.313,0,0,1,1.665-.84A1.17,1.17,0,0,1,4.845-8.6C4.845-7.17,2.3-6.2,2.655-3.78Z" transform="translate(7.313 19)" fill="#da0f47"/>
      <circle id="Ellipse_3" data-name="Ellipse 3" cx="1" cy="1" r="1" transform="translate(10 16)" fill="#da0f47"/>
    </g>
  </g>
</svg>
