<svg width="24" height="24" viewBox="0 0 24 24" xmlns="http://www.w3.org/2000/svg">
    <g fill="none" fill-rule="evenodd">
        <path d="M0 0h24v24H0z"/>
        <path d="M12 3.5a8.48 8.48 0 0 1 4.722 1.433 8.48 8.48 0 0 1 3.131 3.814 8.48 8.48 0 0 1 .484 4.911 8.48 8.48 0 0 1-2.327 4.352 8.48 8.48 0 0 1-4.352 2.327 8.48 8.48 0 0 1-4.91-.484 8.48 8.48 0 0 1-3.815-3.13A8.48 8.48 0 0 1 3.5 12a8.48 8.48 0 0 1 1.433-4.722 8.48 8.48 0 0 1 3.814-3.131A8.48 8.48 0 0 1 12 3.5z" stroke="#AAA"/>
        <path d="M11.288 16.46a.747.747 0 0 1-.208-.539c0-.23.073-.416.217-.559.145-.143.34-.214.586-.214.25 0 .447.073.592.22a.759.759 0 0 1 .217.553c0 .215-.07.395-.212.54-.14.144-.34.216-.597.216-.258 0-.456-.072-.595-.217zm-.098-2.876c0-.52.064-.933.194-1.242.129-.309.373-.532.753-.9.382-.37.623-.634.725-.79.155-.238.234-.495.234-.772 0-.368-.091-.648-.273-.842-.182-.193-.448-.29-.8-.29-.336 0-.606.095-.81.285-.206.189-.309.446-.309.77 0 0 0 .91-.696.91s-.728-.91-.728-.91c.009-.691.243-1.238.707-1.64.463-.403 1.075-.663 1.837-.663.785 0 1.397.258 1.837.656.439.399.659.956.659 1.67 0 .637-.297 1.264-.891 1.881l-.71.594c-.258.293-.391.72-.398 1.283 0 0-.015.564-.675.564s-.656-.564-.656-.564z" fill="#AAA"/>
    </g>
</svg>
