<?xml version="1.0" encoding="UTF-8"?>
<svg width="100px" height="100px" viewBox="0 0 100 100" version="1.1" xmlns="http://www.w3.org/2000/svg" xmlns:xlink="http://www.w3.org/1999/xlink">
    <title>C447A980-BB32-4902-A1DC-5B6B1D69964D</title>
    <defs>
        <circle id="path-1" cx="50" cy="50" r="50"></circle>
    </defs>
    <g id="0224" stroke="none" stroke-width="1" fill="none" fill-rule="evenodd">
        <g id="1Depth-Category-Component-Case_소모품" transform="translate(-173.000000, -2406.000000)">
            <g id="제품등록유도" transform="translate(125.000000, 2358.000000)">
                <g id="01" transform="translate(48.000000, 48.000000)">
                    <mask id="mask-2" fill="white">
                        <use xlink:href="#path-1"></use>
                    </mask>
                    <use id="Mask" fill="#D9E6B6" xlink:href="#path-1"></use>
                    <g id="90dfb652fe7645908fce8d67b5033f03" mask="url(#mask-2)" fill-rule="nonzero">
                        <g transform="translate(29.807692, 28.846154)">
                            <path d="M8.07692308,0 L32.3076923,0 C36.7684536,0 40.3846154,3.64383634 40.3846154,8.13873626 L40.3846154,73.2486264 C40.3846154,74.7469262 39.179228,75.9615385 37.6923077,75.9615385 L2.69230769,75.9615385 C1.20538721,75.9615385 0,74.7469262 0,73.2486264 L0,8.13873626 C0,3.64383634 3.61616163,0 8.07692308,0 Z" id="Rectangle" fill="#3B554C"></path>
                            <path d="M20.5069683,9.24749164 C23.0626194,9.24749164 25.1576293,11.194103 25.1576293,13.6209756 C25.1576293,14.8116138 24.7076992,15.770366 23.821753,16.6905925 C23.5931011,16.9280916 23.3375994,17.1632046 23.0227537,17.4294384 L22.5588351,17.8102296 L21.8607193,18.3604751 L21.8173519,21.1371237 L19.0908689,21.096436 L19.1534192,17.0727906 L20.9469638,15.6502348 L21.2243518,15.4210269 L21.6645224,15.0297152 C21.7269621,14.9702472 21.7845448,14.9130862 21.8381765,14.8573793 C22.2767338,14.4018527 22.43083,14.0734903 22.43083,13.6209756 C22.43083,12.7022282 21.5880408,11.9191373 20.5069683,11.9191373 C19.5511004,11.9191373 18.7702485,12.5684118 18.6361751,13.3748285 L18.6158282,13.6209756 L15.889029,13.6209756 C15.889029,11.2009867 17.9769555,9.24749164 20.5069683,9.24749164 Z" id="Stroke-2" fill="#E2E2E2"></path>
                            <path d="M21.1854063,18.4949833 L35.8750181,29.3375034 C36.2138218,29.5875773 36.4123581,29.974464 36.4123581,30.3846154 C36.4123581,31.0331549 35.9253241,31.5725439 35.2830612,31.6844013 L35.0355842,31.7056856 L7.33522833,31.7056856 C6.9077827,31.7056856 6.5045825,31.515182 6.24396429,31.1900862 C5.83186958,30.6760382 5.87516628,29.96357 6.31316276,29.4991583 L6.49579444,29.3375034 L21.1854063,18.4949833 Z M21.1854063,21.8267224 L11.3800223,29.0635452 L30.9880368,29.0635452 L21.1854063,21.8267224 Z" id="Stroke-4" fill="#E2E2E2"></path>
                            <polygon id="Fill-1" fill="#61C4CA" points="11.9167718 51.5217391 30.4539723 51.5217391 30.4539723 33.0267559 11.9167718 33.0267559"></polygon>
                        </g>
                    </g>
                </g>
            </g>
        </g>
    </g>
</svg>