<svg xmlns="http://www.w3.org/2000/svg" width="80" height="16" viewBox="0 0 80 16">
    <defs>
        <linearGradient id="rednn6coda" x1="10.033%" x2="100%" y1="9.616%" y2="100%">
            <stop offset="0%" stop-color="#F47A48"/>
            <stop offset="100%" stop-color="#F1C246"/>
        </linearGradient>
    </defs>
    <g fill="none" fill-rule="evenodd">
        <g>
            <g>
                <g>
                    <g>
                        <g>
                            <g>
                                <g>
                                    <path d="M0 0H16V16H0z" transform="translate(-781 -384) translate(669 308) translate(0 72) translate(112) translate(0 4)"/>
                                    <path fill="url(#rednn6coda)" d="M7.777 11.617l-3.03 1.594c-.235.123-.525.033-.649-.202-.049-.093-.066-.2-.048-.304l.579-3.375c.026-.155-.025-.314-.138-.425l-2.452-2.39c-.19-.184-.194-.488-.009-.678.074-.076.17-.125.275-.14l3.388-.492c.156-.023.292-.121.361-.263l1.516-3.07c.117-.238.405-.335.642-.218.095.047.172.123.218.218l1.516 3.07c.07.142.205.24.361.263l3.388.492c.262.038.444.282.406.544-.015.105-.064.201-.14.275l-2.452 2.39c-.113.11-.164.269-.138.424l.58 3.375c.044.26-.132.509-.393.554-.104.018-.21 0-.304-.048l-3.03-1.594c-.14-.073-.308-.073-.447 0z" transform="translate(-781 -384) translate(669 308) translate(0 72) translate(112) translate(0 4)"/>
                                </g>
                                <g>
                                    <path d="M0 0H16V16H0z" transform="translate(-781 -384) translate(669 308) translate(0 72) translate(112) translate(0 4) translate(16)"/>
                                    <path fill="url(#rednn6coda)" d="M7.777 11.617l-3.03 1.594c-.235.123-.525.033-.649-.202-.049-.093-.066-.2-.048-.304l.579-3.375c.026-.155-.025-.314-.138-.425l-2.452-2.39c-.19-.184-.194-.488-.009-.678.074-.076.17-.125.275-.14l3.388-.492c.156-.023.292-.121.361-.263l1.516-3.07c.117-.238.405-.335.642-.218.095.047.172.123.218.218l1.516 3.07c.07.142.205.24.361.263l3.388.492c.262.038.444.282.406.544-.015.105-.064.201-.14.275l-2.452 2.39c-.113.11-.164.269-.138.424l.58 3.375c.044.26-.132.509-.393.554-.104.018-.21 0-.304-.048l-3.03-1.594c-.14-.073-.308-.073-.447 0z" transform="translate(-781 -384) translate(669 308) translate(0 72) translate(112) translate(0 4) translate(16)"/>
                                </g>
                                <g>
                                    <path d="M0 0H16V16H0z" transform="translate(-781 -384) translate(669 308) translate(0 72) translate(112) translate(0 4) translate(32)"/>
                                    <path fill="url(#rednn6coda)" d="M7.777 11.617l-3.03 1.594c-.235.123-.525.033-.649-.202-.049-.093-.066-.2-.048-.304l.579-3.375c.026-.155-.025-.314-.138-.425l-2.452-2.39c-.19-.184-.194-.488-.009-.678.074-.076.17-.125.275-.14l3.388-.492c.156-.023.292-.121.361-.263l1.516-3.07c.117-.238.405-.335.642-.218.095.047.172.123.218.218l1.516 3.07c.07.142.205.24.361.263l3.388.492c.262.038.444.282.406.544-.015.105-.064.201-.14.275l-2.452 2.39c-.113.11-.164.269-.138.424l.58 3.375c.044.26-.132.509-.393.554-.104.018-.21 0-.304-.048l-3.03-1.594c-.14-.073-.308-.073-.447 0z" transform="translate(-781 -384) translate(669 308) translate(0 72) translate(112) translate(0 4) translate(32)"/>
                                </g>
                                <g>
                                    <path d="M0 0H16V16H0z" transform="translate(-781 -384) translate(669 308) translate(0 72) translate(112) translate(0 4) translate(48)"/>
                                    <path fill="url(#rednn6coda)" d="M7.777 11.617l-3.03 1.594c-.235.123-.525.033-.649-.202-.049-.093-.066-.2-.048-.304l.579-3.375c.026-.155-.025-.314-.138-.425l-2.452-2.39c-.19-.184-.194-.488-.009-.678.074-.076.17-.125.275-.14l3.388-.492c.156-.023.292-.121.361-.263l1.516-3.07c.117-.238.405-.335.642-.218.095.047.172.123.218.218l1.516 3.07c.07.142.205.24.361.263l3.388.492c.262.038.444.282.406.544-.015.105-.064.201-.14.275l-2.452 2.39c-.113.11-.164.269-.138.424l.58 3.375c.044.26-.132.509-.393.554-.104.018-.21 0-.304-.048l-3.03-1.594c-.14-.073-.308-.073-.447 0z" transform="translate(-781 -384) translate(669 308) translate(0 72) translate(112) translate(0 4) translate(48)"/>
                                </g>
                                <g>
                                    <g>
                                        <path d="M0 0H16V16H0z" transform="translate(-781 -384) translate(669 308) translate(0 72) translate(112) translate(0 4) translate(64)"/>
                                        <path fill="#000" d="M7.777 11.617l-3.03 1.594c-.235.123-.525.033-.649-.202-.049-.093-.066-.2-.048-.304l.579-3.375c.026-.155-.025-.314-.138-.425l-2.452-2.39c-.19-.184-.194-.488-.009-.678.074-.076.17-.125.275-.14l3.388-.492c.156-.023.292-.121.361-.263l1.516-3.07c.117-.238.405-.335.642-.218.095.047.172.123.218.218l1.516 3.07c.07.142.205.24.361.263l3.388.492c.262.038.444.282.406.544-.015.105-.064.201-.14.275l-2.452 2.39c-.113.11-.164.269-.138.424l.58 3.375c.044.26-.132.509-.393.554-.104.018-.21 0-.304-.048l-3.03-1.594c-.14-.073-.308-.073-.447 0z" opacity=".3" transform="translate(-781 -384) translate(669 308) translate(0 72) translate(112) translate(0 4) translate(64)"/>
                                    </g>
                                </g>
                            </g>
                        </g>
                    </g>
                </g>
            </g>
        </g>
    </g>
</svg>
