<svg xmlns="http://www.w3.org/2000/svg" width="91" height="20" viewBox="0 0 91 20">
    <g fill="none" fill-rule="evenodd">
        <g>
            <g>
                <g>
                    <g>
                        <path d="M0 0H20V20H0z" transform="translate(-1336 -305) translate(1206 196) translate(0 106) translate(130 3)"/>
                        <path fill="#F7B500" d="M10 14.5L4.71 17.281 5.72 11.391 1.44 7.219 7.355 6.359 10 1 12.645 6.359 18.56 7.219 14.28 11.391 15.29 17.281zM28 14.5L22.71 17.281 23.72 11.391 19.44 7.219 25.355 6.359 28 1 30.645 6.359 36.56 7.219 32.28 11.391 33.29 17.281zM46 14.5L40.71 17.281 41.72 11.391 37.44 7.219 43.355 6.359 46 1 48.645 6.359 54.56 7.219 50.28 11.391 51.29 17.281zM64 14.5L58.71 17.281 59.72 11.391 55.44 7.219 61.355 6.359 64 1 66.645 6.359 72.56 7.219 68.28 11.391 69.29 17.281z" transform="translate(-1336 -305) translate(1206 196) translate(0 106) translate(130 3)"/>
                        <path fill="#DDD" d="M82 14.5L76.71 17.281 77.72 11.391 73.44 7.219 79.355 6.359 82 1 84.645 6.359 90.56 7.219 86.28 11.391 87.29 17.281z" transform="translate(-1336 -305) translate(1206 196) translate(0 106) translate(130 3)"/>
                    </g>
                </g>
            </g>
        </g>
    </g>
</svg>
