<svg xmlns="http://www.w3.org/2000/svg" width="425" height="217" viewBox="0 0 425 217">
    <g fill="none" fill-rule="evenodd">
        <g>
            <g>
                <g>
                    <g>
                        <path fill="#FFF" d="M0 49.719L207.904 0 425 49.719 425 217 0 217z" transform="translate(-747 -2846) translate(270 2807) translate(46 39) translate(431)"/>
                        <g>
                            <text fill="#B4B4B4" font-family="NotoSansCJKkr-Medium, Noto Sans CJK KR" font-size="32" font-weight="400" transform="translate(-747 -2846) translate(270 2807) translate(46 39) translate(431) translate(61 87.734)">
                                <tspan x="0" y="40.006">집콕러의 생활공간을</tspan>
                            </text>
                            <g stroke="#2C2C2C" stroke-width="3.15">
                                <path d="M17.573.22L33.73 15.08c.344.316.366.851.05 1.195-.16.175-.386.274-.623.274h-3.469v14.476c0 .503-.444.916-1.016.97l-.124.005H6.862c-.63 0-2.55-.436-2.55-.975h0L4.31 16.55H.843c-.467 0-.846-.38-.846-.847 0-.237.099-.463.273-.623L16.427.221c.324-.298.822-.298 1.146 0z" transform="translate(-747 -2846) translate(270 2807) translate(46 39) translate(431) translate(61 87.734) translate(278)"/>
                                <path d="M13.475 32h7.05v-8.623c0-.668-.542-1.21-1.21-1.21h-4.63c-.668 0-1.21.542-1.21 1.21V32h0z" transform="translate(-747 -2846) translate(270 2807) translate(46 39) translate(431) translate(61 87.734) translate(278)"/>
                            </g>
                        </g>
                        <text fill="#363532" font-family="NanumBarunpen-Bold, NanumBarunpen" font-size="50" font-weight="bold" transform="translate(-747 -2846) translate(270 2807) translate(46 39) translate(431)">
                            <tspan x="69" y="186">조금은 색다르게</tspan>
                        </text>
                    </g>
                </g>
            </g>
        </g>
    </g>
</svg>
