<svg xmlns="http://www.w3.org/2000/svg" width="423" height="199" viewBox="0 0 423 199">
    <defs>
        <linearGradient id="2ah0hq80ga" x1="67.188%" x2="39.439%" y1="17.383%" y2="57.17%">
            <stop offset="0%" stop-color="#FFC6C6"/>
            <stop offset="100%" stop-color="#FFA5A5"/>
        </linearGradient>
        <linearGradient id="f5xnruqjob" x1="115.052%" x2="10.029%" y1="42.781%" y2="51.587%">
            <stop offset="0%" stop-color="#FFC6C6"/>
            <stop offset="100%" stop-color="#FFA5A5"/>
        </linearGradient>
    </defs>
    <g fill="none" fill-rule="evenodd">
        <g>
            <g>
                <g>
                    <g>
                        <path fill="url(#2ah0hq80ga)" d="M368 0L423 0 423 107 368 107z" transform="translate(-1181 -2328) translate(270 1657) translate(46 671) translate(865)"/>
                        <path fill="url(#f5xnruqjob)" d="M0 48.74L211.716 0 423 48.74 423 199 0 199z" transform="translate(-1181 -2328) translate(270 1657) translate(46 671) translate(865)"/>
                        <text fill="#363532" font-family="NotoSansCJKkr-Medium, Noto Sans CJK KR" font-size="32" font-weight="400" transform="translate(-1181 -2328) translate(270 1657) translate(46 671) translate(865)">
                            <tspan x="90" y="112">패피의 의류관리는</tspan>
                        </text>
                        <text fill="#363532" font-family="NotoSansCJKkr-Bold, Noto Sans CJK KR" font-size="44" font-weight="bold" transform="translate(-1181 -2328) translate(270 1657) translate(46 671) translate(865)">
                            <tspan x="85" y="168">남보다 빠르게</tspan>
                        </text>
                    </g>
                </g>
            </g>
        </g>
    </g>
</svg>
