<svg xmlns="http://www.w3.org/2000/svg" width="226" height="150" viewBox="0 0 226 150">
    <g fill="none" fill-rule="evenodd">
        <g>
            <g>
                <path fill="#FFF" d="M0 31L111.518 0 226 31 226 150 0 150z" transform="translate(-20 -2348) translate(20 2348)"/>
                <g>
                    <g fill="#B4B4B4" font-family="NotoSansCJKkr-Medium, Noto Sans CJK KR" font-size="20" font-weight="400">
                        <text transform="translate(-20 -2348) translate(20 2348) translate(24 53.515) translate(0 3.485)">
                            <tspan x="0" y="23">반려동물의 흔적을</tspan>
                        </text>
                    </g>
                    <path fill="#262626" d="M179.418 17.21c-.396 1.83-1.77 3.084-3.07 2.8-1.3-.285-2.032-2-1.636-3.83.396-1.83 1.77-3.084 3.07-2.8 1.3.285 2.032 2 1.636 3.83m-5.268 10.464c-1.668.93-2.992-.575-5.127-.57-2.134.004-3.452 1.514-5.124.592-2.71-1.496-2.586-4.447-.658-5.69 2.438-1.572 1.148-6.165 5.758-6.175 4.61-.01 3.34 4.589 5.785 6.15 1.933 1.234 2.07 4.185-.634 5.693m-15.564-10.419c-.403-1.828.322-3.546 1.62-3.836 1.298-.29 2.678.957 3.082 2.786.403 1.828-.322 3.546-1.62 3.836-1.298.29-2.678-.957-3.082-2.786m6.487-10.246c1.35-.19 2.66 1.198 2.926 3.101.264 1.904-.616 3.6-1.967 3.791-1.351.19-2.661-1.198-2.926-3.101-.265-1.903.616-3.6 1.967-3.791m4.902 3.097c.257-1.904 1.561-3.299 2.913-3.114 1.352.185 2.24 1.878 1.983 3.782-.257 1.905-1.561 3.299-2.913 3.114-1.352-.184-2.24-1.878-1.983-3.782m11.535 3.626c-.625-1.461-1.791-2.476-3.202-2.785-.294-.065-.597-.097-.899-.097h-.055c.133-1.344-.106-2.675-.682-3.774-.747-1.424-2.005-2.355-3.451-2.552-.19-.026-.383-.039-.574-.039-1.344 0-2.62.624-3.592 1.756l-.076.09-.072-.084c-.973-1.126-2.246-1.746-3.586-1.746-.197 0-.396.014-.592.041-2.674.377-4.442 3.138-4.106 6.344h-.037c-.308 0-.616.034-.917.101-1.409.315-2.571 1.335-3.19 2.8-.505 1.198-.615 2.622-.309 4.009.277 1.254.86 2.37 1.686 3.227.58.602 1.253 1.041 1.969 1.295-.336.752-.502 1.58-.472 2.438.071 2.12 1.295 3.986 3.356 5.124.728.401 1.509.605 2.32.605.972 0 1.783-.282 2.499-.53.555-.193 1.034-.36 1.505-.36.465 0 .943.163 1.498.353.71.244 1.517.52 2.479.52.82 0 1.607-.208 2.339-.616 2.057-1.146 3.272-3.019 3.335-5.138.025-.857-.144-1.686-.483-2.435.713-.257 1.382-.697 1.958-1.299.825-.86 1.405-1.981 1.678-3.24.3-1.388.184-2.812-.327-4.008" transform="translate(-20 -2348) translate(20 2348) translate(24 53.515) rotate(27 169 17.485)"/>
                </g>
                <text fill="#2C2C2C" font-family="NanumBarunpen-Bold, NanumBarunpen" font-size="32" font-weight="bold" letter-spacing="-1.143" transform="translate(-20 -2348) translate(20 2348)">
                    <tspan x="37" y="119">아무도 모르게</tspan>
                </text>
            </g>
        </g>
    </g>
</svg>
