<svg xmlns="http://www.w3.org/2000/svg" width="225" height="119" viewBox="0 0 225 119">
    <g fill="none" fill-rule="evenodd">
        <g>
            <g>
                <g>
                    <path fill="#EEE" d="M0 0L225 0 225 119 0 119z" transform="translate(-248 -2379) translate(20 2348) translate(228 31)"/>
                    <g>
                        <g>
                            <g fill="#C9C9C9" font-family="NotoSansCJKkr-Medium, Noto Sans CJK KR" font-size="20" font-weight="400" letter-spacing="-.5">
                                <text transform="translate(-248 -2379) translate(20 2348) translate(228 31) translate(19 26)">
                                    <tspan x="0" y="23">집콕러의 생활공간을</tspan>
                                </text>
                            </g>
                            <g>
                                <path fill="#D3D3D3" d="M4.667 10.565v12.64c0 .44.422.795.944.795h16.778c.522 0 .944-.356.944-.794V10.565L14 4.348l-9.333 6.217z" transform="translate(-248 -2379) translate(20 2348) translate(228 31) translate(19 26) translate(168 1)"/>
                                <path fill="#D3D3D3" d="M14.427.351l12.126 9.978c.286.236.327.66.092.946-.128.155-.318.245-.52.245H1.876c-.372 0-.673-.3-.673-.672 0-.2.09-.391.245-.519L13.573.351c.248-.204.606-.204.854 0z" transform="translate(-248 -2379) translate(20 2348) translate(228 31) translate(19 26) translate(168 1)"/>
                                <path fill="#EEE" d="M11.586 24h4.828v-5.76c0-.53-.43-.96-.96-.96h-2.908c-.53 0-.96.43-.96.96V24z" transform="translate(-248 -2379) translate(20 2348) translate(228 31) translate(19 26) translate(168 1)"/>
                            </g>
                        </g>
                        <text fill="#C9C9C9" font-family="NanumBarunpen-Bold, NanumBarunpen" font-size="32" font-weight="bold" letter-spacing="-1.143" transform="translate(-248 -2379) translate(20 2348) translate(228 31) translate(19 26)">
                            <tspan x="6" y="62">조금은 색다르게</tspan>
                        </text>
                    </g>
                </g>
            </g>
        </g>
    </g>
</svg>
