<svg xmlns="http://www.w3.org/2000/svg" width="426" height="166" viewBox="0 0 426 166">
    <g fill="none" fill-rule="evenodd">
        <g>
            <g>
                <g>
                    <g>
                        <path fill="#EEE" d="M0 0L426 0 426 166 0 166z" transform="translate(-1178 -2897) translate(270 2807) translate(46 39) translate(862 51)"/>
                        <text fill="#C9C9C9" font-family="NotoSansCJKkr-Medium, Noto Sans CJK KR" font-size="32" font-weight="400" transform="translate(-1178 -2897) translate(270 2807) translate(46 39) translate(862 51)">
                            <tspan x="73" y="76">패피의 의류관리는</tspan>
                        </text>
                        <g>
                            <path fill="#D3D3D3" d="M11.737 5.89c-1.779 1.247-5.298 4.314-10.558 9.198-.687.638-.832 1.672-.347 2.475l1.937 3.203c.566.936 1.783 1.236 2.719.67.166-.1.317-.225.447-.37 2.77-3.076 4.308-4.21 4.612-3.4.33.879-.21 6.039-1.62 15.48-.215 1.443.78 2.786 2.222 3.002.129.019.259.028.39.028h18.978c1.458 0 2.64-1.182 2.64-2.64 0-.146-.012-.293-.037-.438-1.553-9.22-2.125-14.421-1.716-15.603.38-1.1 1.792.047 4.234 3.44.639.888 1.876 1.09 2.764.451.145-.104.275-.227.386-.366l1.755-2.183c.619-.77.576-1.878-.101-2.597-5.822-6.186-9.231-9.636-10.228-10.35-1.593-1.144-3.835-.847-4.766 0-.93.845-3.35 5.164-4.415 5.164-.682 0-2.231-3.025-4.104-4.904-.999-1.002-2.33-2.27-5.192-.26z" transform="translate(-1178 -2897) translate(270 2807) translate(46 39) translate(862 51) translate(317 32.74)"/>
                        </g>
                        <text fill="#C9C9C9" font-family="NanumBarunpen-Bold, NanumBarunpen" font-size="50" font-weight="bold" transform="translate(-1178 -2897) translate(270 2807) translate(46 39) translate(862 51)">
                            <tspan x="88" y="135">남보다 빠르게</tspan>
                        </text>
                    </g>
                </g>
            </g>
        </g>
    </g>
</svg>
