<svg xmlns="http://www.w3.org/2000/svg" width="425" height="217" viewBox="0 0 425 217">
    <g fill="none" fill-rule="evenodd">
        <g>
            <g>
                <g>
                    <g>
                        <path fill="#FFF" d="M0 49.719L207.904 0 425 49.719 425 217 0 217z" transform="translate(-316 -2846) translate(270 2807) translate(46 39)"/>
                        <g>
                            <text fill="#B4B4B4" font-family="NotoSansCJKkr-Medium, Noto Sans CJK KR" font-size="32" font-weight="400" transform="translate(-316 -2846) translate(270 2807) translate(46 39) translate(78.5 81.618)">
                                <tspan x="0" y="46">반려동물의 흔적을</tspan>
                            </text>
                            <path fill="#262626" d="M282.826 24.492c-.564 2.604-2.52 4.388-4.369 3.983-1.849-.405-2.891-2.845-2.328-5.45.563-2.605 2.52-4.388 4.368-3.984 1.85.405 2.892 2.846 2.329 5.45m-7.498 14.89c-2.373 1.324-4.257-.817-7.295-.81-3.037.006-4.912 2.155-7.291.842-3.859-2.128-3.681-6.328-.938-8.096 3.47-2.237 1.634-8.774 8.195-8.788 6.56-.014 4.752 6.53 8.232 8.752 2.751 1.756 2.947 5.955-.903 8.1M253.18 24.557c-.574-2.603.458-5.047 2.305-5.46 1.848-.413 3.811 1.362 4.386 3.964.574 2.603-.458 5.048-2.305 5.46-1.847.413-3.81-1.362-4.386-3.964m9.231-14.582c1.923-.27 3.787 1.705 4.164 4.414.377 2.708-.876 5.123-2.799 5.394-1.922.271-3.787-1.705-4.164-4.413-.377-2.709.876-5.124 2.799-5.395m6.977 4.408c.365-2.71 2.22-4.694 4.145-4.432 1.923.263 3.187 2.672 2.821 5.383-.365 2.71-2.22 4.694-4.144 4.431-1.924-.262-3.187-2.672-2.822-5.382m16.414 5.16c-.888-2.08-2.549-3.524-4.556-3.964-.419-.092-.85-.138-1.28-.138h-.078c.19-1.912-.15-3.806-.97-5.37-1.063-2.027-2.853-3.351-4.912-3.632-.27-.037-.544-.056-.817-.056-1.912 0-3.727.888-5.11 2.5l-.11.128-.101-.12c-1.385-1.602-3.197-2.485-5.103-2.485-.28 0-.564.02-.843.06-3.806.536-6.32 4.464-5.843 9.027h-.052c-.439 0-.878.048-1.306.144-2.005.448-3.659 1.9-4.538 3.983-.72 1.705-.877 3.732-.441 5.705.394 1.786 1.224 3.374 2.399 4.593.826.857 1.783 1.482 2.802 1.844-.477 1.069-.714 2.249-.672 3.47.102 3.014 1.843 5.672 4.777 7.29 1.036.572 2.147.861 3.301.861 1.383 0 2.538-.4 3.556-.754.79-.275 1.472-.512 2.142-.513.662 0 1.343.233 2.131.503 1.012.347 2.159.74 3.529.74 1.166 0 2.286-.295 3.328-.876 2.927-1.63 4.657-4.296 4.746-7.311.036-1.221-.205-2.4-.687-3.467 1.014-.365 1.966-.991 2.787-1.848 1.174-1.225 1.999-2.82 2.386-4.61.428-1.977.263-4.002-.465-5.704" transform="translate(-316 -2846) translate(270 2807) translate(46 39) translate(78.5 81.618) rotate(27 268 24.882)"/>
                        </g>
                        <text fill="#363532" font-family="NanumBarunpen-Bold, NanumBarunpen" font-size="50" font-weight="bold" transform="translate(-316 -2846) translate(270 2807) translate(46 39)">
                            <tspan x="87" y="186">아무도 모르게</tspan>
                        </text>
                    </g>
                </g>
            </g>
        </g>
    </g>
</svg>
