<svg xmlns="http://www.w3.org/2000/svg" xmlns:xlink="http://www.w3.org/1999/xlink" width="226" height="119" viewBox="0 0 226 119">
    <defs>
        <path id="2i2itht93a" d="M0 0L25.93 0 25.93 25.93 0 25.93z"/>
    </defs>
    <g fill="none" fill-rule="evenodd">
        <g>
            <g>
                <g>
                    <path fill="#EEE" d="M0 0L226 0 226 119 0 119z" transform="translate(-20 -2379) translate(20 2348) translate(0 31)"/>
                    <g fill="#C9C9C9" font-family="NotoSansCJKkr-Medium, Noto Sans CJK KR" font-size="20" font-weight="400">
                        <text transform="translate(-20 -2379) translate(20 2348) translate(0 31) translate(24 26)">
                            <tspan x="0" y="23">반려동물의 흔적을</tspan>
                        </text>
                    </g>
                    <g transform="translate(-20 -2379) translate(20 2348) translate(0 31) rotate(23 36.541 468.933)">
                        <mask id="9f5zqi6m2b" fill="#fff">
                            <use xlink:href="#2i2itht93a"/>
                        </mask>
                        <path fill="#D3D3D3" d="M23.638 7.954c-1.584-.338-3.26 1.157-3.744 3.337-.482 2.183.411 4.227 1.995 4.567 1.584.34 3.262-1.154 3.744-3.337.482-2.183-.411-4.227-1.995-4.567m-2.982 10.781c-3.059-1.926-1.468-7.596-7.237-7.584-5.767.014-4.153 5.678-7.206 7.616-2.41 1.532-2.568 5.171.826 7.017 2.09 1.136 3.74-.727 6.412-.733 2.669-.006 4.326 1.852 6.411.704 3.385-1.86 3.214-5.497.794-7.02m-3.714-9.394c1.628.237 3.198-1.573 3.508-4.046.308-2.472-.76-4.672-2.389-4.912-1.625-.24-3.195 1.57-3.505 4.043-.308 2.476.76 4.675 2.386 4.915M9.15 8.784c1.627-.246 2.687-2.452 2.368-4.926C11.2 1.385 9.622-.42 7.998-.17 6.37.075 5.313 2.281 5.632 4.755 5.95 7.228 7.525 9.03 9.15 8.784m-5.192 6.742c-1.583.346-3.262-1.143-3.755-3.325-.492-2.181.391-4.23 1.974-4.575 1.58-.346 3.262 1.141 3.755 3.323.49 2.181-.394 4.229-1.974 4.577" mask="url(#9f5zqi6m2b)"/>
                    </g>
                    <text fill="#C9C9C9" font-family="NanumBarunpen-Bold, NanumBarunpen" font-size="32" font-weight="bold" letter-spacing="-1.143" transform="translate(-20 -2379) translate(20 2348) translate(0 31)">
                        <tspan x="37" y="88">아무도 모르게</tspan>
                    </text>
                </g>
            </g>
        </g>
    </g>
</svg>
