<svg xmlns="http://www.w3.org/2000/svg" width="425" height="166" viewBox="0 0 425 166">
    <g fill="none" fill-rule="evenodd">
        <g>
            <g>
                <g>
                    <g>
                        <path fill="#EEE" d="M0 0L425 0 425 166 0 166z" transform="translate(-747 -2897) translate(270 2807) translate(46 39) translate(431 51)"/>
                        <g>
                            <text fill="#C9C9C9" font-family="NotoSansCJKkr-Medium, Noto Sans CJK KR" font-size="32" font-weight="400" transform="translate(-747 -2897) translate(270 2807) translate(46 39) translate(431 51) translate(61 35)">
                                <tspan x="0" y="41.74">집콕러의 생활공간을</tspan>
                            </text>
                            <g>
                                <path fill="#D3D3D3" d="M6.833 15.407v18.435c0 .64.62 1.158 1.383 1.158h24.568c.764 0 1.383-.519 1.383-1.158V15.407L20.5 6.341 6.833 15.407z" transform="translate(-747 -2897) translate(270 2807) translate(46 39) translate(431 51) translate(61 35) translate(275)"/>
                                <path fill="#D3D3D3" d="M21.121.51L38.88 15.061c.419.343.48.96.137 1.38-.186.226-.464.358-.758.358H2.742c-.541 0-.98-.439-.98-.98 0-.294.132-.572.359-.758L19.879.509c.361-.296.881-.296 1.242 0z" transform="translate(-747 -2897) translate(270 2807) translate(46 39) translate(431 51) translate(61 35) translate(275)"/>
                                <path fill="#EEE" d="M16.966 35h7.068v-8.4c0-.773-.626-1.4-1.4-1.4h-4.268c-.774 0-1.4.627-1.4 1.4V35z" transform="translate(-747 -2897) translate(270 2807) translate(46 39) translate(431 51) translate(61 35) translate(275)"/>
                            </g>
                        </g>
                        <text fill="#C9C9C9" font-family="NanumBarunpen-Bold, NanumBarunpen" font-size="50" font-weight="bold" transform="translate(-747 -2897) translate(270 2807) translate(46 39) translate(431 51)">
                            <tspan x="69" y="135">조금은 색다르게</tspan>
                        </text>
                    </g>
                </g>
            </g>
        </g>
    </g>
</svg>
