<svg xmlns="http://www.w3.org/2000/svg" width="184" height="50" viewBox="0 0 184 50">
    <g fill="none" fill-rule="evenodd">
        <g fill="#000">
            <g>
                <g>
                    <g>
                        <path d="M183.256 12.794h-8.57V0h-8.262v48.105h7.226c.672-2.84 1.035-7.713 1.035-11.525V19.703h8.57v-6.909zM133.284.876v6.751h9.81v3.265c0 8.61-1.754 14.026-10.69 17.94l3.357 5.985c5.113-1.909 9.914-5.516 12.134-10.108 2.22 4.332 6.867 7.888 11.356 9.64l4.03-7.005c-8.673-3.25-11.671-8.305-11.671-16.5V7.627h9.543V.876h-27.87zm-4.907 40.265H102.97c-.671 0-.88-.15-.88-.876V30.212h-8.622v13.557c0 2.943 1.497 4.336 4.444 4.336h30.464V41.14zM127.5 0h-8.622v9.793h-8.108v7.063h8.108v17.89h7.587c.62-2.42 1.035-6.485 1.035-9.431V0zM84.697.927v6.806h9.392v1.749c0 7.018-2.837 10.728-10.479 13.154l2.892 6.49c5.264-1.231 10.428-4.328 12.55-8.56 2.264 4.232 7.226 7.168 11.818 8.253l3.67-7.419c-6.665-1.447-11.463-5.057-11.463-11.962V7.733h9.239V.927h-27.62zM13.37 46.959L33.215 46.959 33.215 38.038 10.813 38.038 10.813 1.145 0 1.145 0 46.959zM56.83 29.607h8.804v8.166c-1.62.62-4.786 1.236-7.8 1.236-9.728 0-12.973-4.933-12.973-14.955 0-9.56 3.09-15.182 12.817-15.182 5.408 0 8.494 1.69 11.042 4.926l6.718-6.166C71.34 1.78 64.165 0 57.448 0 42.315 0 34.36 8.245 34.36 23.971c0 15.658 7.18 24.134 23.012 24.134 7.255 0 14.359-1.853 18.22-4.548v-22.66H56.83v8.71z" transform="translate(-268 -80) translate(30) translate(32 80) translate(206)"/>
                    </g>
                </g>
            </g>
        </g>
    </g>
</svg>
