<?xml version="1.0" encoding="utf-8"?>
<!-- Generator: Adobe Illustrator 16.0.0, SVG Export Plug-In . SVG Version: 6.00 Build 0)  -->
<!DOCTYPE svg PUBLIC "-//W3C//DTD SVG 1.1//EN" "http://www.w3.org/Graphics/SVG/1.1/DTD/svg11.dtd">
<svg version="1.1" id="Layer_1" xmlns="http://www.w3.org/2000/svg" xmlns:xlink="http://www.w3.org/1999/xlink" x="0px" y="0px"
	 width="263px" height="70px" viewBox="0 0 263 70" enable-background="new 0 0 263 70" xml:space="preserve">
<g>
	
		<radialGradient id="SVGID_1_" cx="-281.2998" cy="349.4473" r="1.1367" gradientTransform="matrix(31.9334 0 0 -31.9334 9016.5234 11192.9775)" gradientUnits="userSpaceOnUse">
		<stop  offset="0" style="stop-color:#C01F42"/>
		<stop  offset="0.5" style="stop-color:#C01F42"/>
		<stop  offset="0.7515" style="stop-color:#BE1F41"/>
		<stop  offset="0.8573" style="stop-color:#B71E3E"/>
		<stop  offset="0.9355" style="stop-color:#AA1C38"/>
		<stop  offset="1" style="stop-color:#991A30"/>
	</radialGradient>
	<path fill="url(#SVGID_1_)" d="M34.949,0.176c-19.204,0-34.802,15.59-34.802,34.826s15.598,34.822,34.802,34.822
		c19.168,0,34.706-15.438,34.858-34.551v-0.547C69.655,15.618,54.117,0.176,34.949,0.176z"/>
	<linearGradient id="SVGID_2_" gradientUnits="userSpaceOnUse" x1="20.709" y1="4.6738" x2="39.0822" y2="55.1539">
		<stop  offset="0" style="stop-color:#F38895"/>
		<stop  offset="0.2557" style="stop-color:#DD5B71"/>
		<stop  offset="0.4832" style="stop-color:#CD3A57"/>
		<stop  offset="0.6728" style="stop-color:#C32648"/>
		<stop  offset="0.8011" style="stop-color:#C01F42"/>
		<stop  offset="1" style="stop-color:#C01F42"/>
	</linearGradient>
	<path fill="url(#SVGID_2_)" d="M11.391,11.427C-0.245,23.063-1.42,40.8,8.792,51.02c10.224,10.212,27.945,9.044,39.584-2.6
		C60.035,36.757,61.21,19.024,50.999,8.808c-4.662-4.666-10.896-6.961-17.409-6.961C25.849,1.847,17.724,5.094,11.391,11.427"/>
	<linearGradient id="SVGID_3_" gradientUnits="userSpaceOnUse" x1="11.7319" y1="17.1509" x2="53.8759" y2="59.2949">
		<stop  offset="0" style="stop-color:#CC435C"/>
		<stop  offset="0.0842" style="stop-color:#BE3953"/>
		<stop  offset="0.2452" style="stop-color:#AA2A45"/>
		<stop  offset="0.4273" style="stop-color:#9B203B"/>
		<stop  offset="0.646" style="stop-color:#931A36"/>
		<stop  offset="1" style="stop-color:#901834"/>
	</linearGradient>
	<path fill="url(#SVGID_3_)" d="M33.166,50.607l0.864-0.496l-0.008-29.42l-0.212-0.344l0.212-0.06v-0.044h0.152l2.607-0.892
		l0.464,0.804c0,0,0.064,0.068,0.064,0.228L37.28,47.165h6.333l0.508,0.796c0.044,0.06,0.076,0.124,0.076,0.327v2.695
		c0,0.147-0.092,0.212-0.196,0.235h-9.684c-0.232,0.005-0.432-0.111-0.488-0.144L33.166,50.607z M64.585,33.398l-21.543,0.008v3.451
		l0.536,0.715l0,0c0,0,0.068,0.068,0.188,0.068h16.413h1.583h0.008h0.016c-0.928,13.627-12.427,24.303-26.157,24.303
		c-7.005,0-13.587-2.724-18.545-7.638c-4.946-4.926-7.661-11.459-7.661-18.425c0-6.965,2.575-13.642,7.517-18.556
		c4.974-4.906,11.227-7.497,18.724-7.661L37.08,9.64h0.156c0.096-0.012,0.184-0.012,0.184-0.228V6.585
		c0-0.204-0.072-0.3-0.072-0.308l-0.636-0.792l-1.436,0.204l-0.724,0.236C18.192,5.925,5.929,19.6,5.929,35.881
		c0,7.877,3.095,15.294,8.7,20.872c5.598,5.578,13.019,8.396,20.94,8.396c7.957,0,15.43-2.999,21.027-8.576
		c5.61-5.578,8.701-12.991,8.701-20.868V34.01L64.585,33.398z M24.289,19.76c-2.591,0-4.686,2.087-4.686,4.654
		c0,2.559,2.095,4.642,4.686,4.642c2.583,0,4.678-2.083,4.678-4.642C28.967,21.847,26.872,19.76,24.289,19.76z"/>
	<polygon fill="#636E77" points="33.877,49.932 33.166,50.607 43.613,50.607 42.93,49.908 	"/>
	<polygon fill="#8497A1" points="42.93,47.828 43.613,47.165 36.78,47.165 35.964,47.828 	"/>
	<polygon fill="#8D9AA1" points="36.78,19.352 33.166,19.352 33.845,20 36.004,20 	"/>
	<linearGradient id="SVGID_4_" gradientUnits="userSpaceOnUse" x1="36.0044" y1="33.5645" x2="36.7803" y2="33.5645">
		<stop  offset="0" style="stop-color:#B3BCC2"/>
		<stop  offset="0.0272" style="stop-color:#AFB8BE"/>
		<stop  offset="0.4918" style="stop-color:#6D747B"/>
		<stop  offset="0.8282" style="stop-color:#444A51"/>
		<stop  offset="1" style="stop-color:#343A41"/>
	</linearGradient>
	<polygon fill="url(#SVGID_4_)" points="36.028,47.776 36.78,47.165 36.78,19.352 36.004,20 	"/>
	<linearGradient id="SVGID_5_" gradientUnits="userSpaceOnUse" x1="42.9297" y1="48.8867" x2="43.6133" y2="48.8867">
		<stop  offset="0" style="stop-color:#B3BBC0"/>
		<stop  offset="0.0751" style="stop-color:#A7AFB4"/>
		<stop  offset="0.5167" style="stop-color:#646C70"/>
		<stop  offset="0.8366" style="stop-color:#3A4246"/>
		<stop  offset="1" style="stop-color:#2A3236"/>
	</linearGradient>
	<polygon fill="url(#SVGID_5_)" points="42.93,47.828 42.93,49.908 43.613,50.607 43.613,47.165 	"/>
	<polygon fill="#B3BCC2" points="33.166,19.352 33.166,50.607 33.877,49.932 33.845,20 	"/>
	<path fill="none" d="M19.971,23.878c0,2.127,1.739,3.854,3.878,3.854c2.127,0,3.866-1.728,3.866-3.854
		c0-2.131-1.739-3.858-3.866-3.858C21.71,20.02,19.971,21.747,19.971,23.878z"/>
	
		<linearGradient id="SVGID_6_" gradientUnits="userSpaceOnUse" x1="-284.3545" y1="365.9902" x2="-283.562" y2="365.9902" gradientTransform="matrix(8.1027 8.1027 8.1027 -8.1027 -640.84 5290.2021)">
		<stop  offset="0" style="stop-color:#ABBAC2"/>
		<stop  offset="1" style="stop-color:#262A30"/>
	</linearGradient>
	<path fill="url(#SVGID_6_)" d="M19.299,23.878c0,2.503,2.035,4.53,4.55,4.53c2.511,0,4.538-2.027,4.538-4.53
		c0-2.503-2.027-4.542-4.538-4.542C21.334,19.336,19.299,21.375,19.299,23.878z M27.716,23.878c0,2.127-1.739,3.854-3.866,3.854
		c-2.139,0-3.878-1.728-3.878-3.854c0-2.131,1.739-3.858,3.878-3.858C25.977,20.02,27.716,21.747,27.716,23.878z"/>
	<polygon fill="#515D61" points="61.642,36.065 43.593,36.041 42.922,36.749 60.951,36.749 61.306,36.373 	"/>
	<polygon fill="#0E1F27" points="36.712,8.956 36.712,8.956 36.712,8.956 	"/>
	<polygon fill="#8F9CA4" points="43.593,34.01 63.781,33.974 64.465,33.287 42.922,33.291 	"/>
	
		<linearGradient id="SVGID_7_" gradientUnits="userSpaceOnUse" x1="-285.5962" y1="341.9268" x2="-284.8035" y2="341.9268" gradientTransform="matrix(53.1048 53.1048 53.1048 -53.1048 -2980.0159 33341.1563)">
		<stop  offset="0" style="stop-color:#B3BCC2"/>
		<stop  offset="1" style="stop-color:#3E454D"/>
	</linearGradient>
	<path fill="url(#SVGID_7_)" d="M64.465,34.99v-1.703l-0.684,0.688v1.016c0,7.701-2.995,14.942-8.433,20.388
		c-5.438,5.449-12.691,8.452-20.412,8.452c-7.689,0-14.926-3.003-20.364-8.452C9.127,49.924,6.128,42.687,6.128,34.99
		c0-15.906,12.927-28.84,28.809-28.84l1.104-0.012l0.672-0.651l-1.775-0.02c-16.253,0-29.484,13.247-29.484,29.524
		c0,7.88,3.067,15.293,8.641,20.868c5.562,5.573,12.971,8.652,20.844,8.652c7.901,0,15.322-3.079,20.888-8.652
		C61.398,50.283,64.465,42.87,64.465,34.99z"/>
	
		<linearGradient id="SVGID_8_" gradientUnits="userSpaceOnUse" x1="-289.272" y1="334.1777" x2="-288.4795" y2="334.1777" gradientTransform="matrix(-67.4051 0 0 67.4051 -19436.7598 -22490.334)">
		<stop  offset="0" style="stop-color:#B3BCC2"/>
		<stop  offset="1" style="stop-color:#48525A"/>
	</linearGradient>
	<path fill="url(#SVGID_8_)" d="M36.037,8.28l-0.76-0.02h-0.72c-6.981,0.104-13.531,2.875-18.513,7.821
		c-5.038,5.046-7.813,11.755-7.813,18.908c0,7.145,2.775,13.854,7.813,18.901c4.982,4.97,11.563,7.748,18.569,7.836h0.68
		c13.862-0.176,25.397-11.067,26.333-24.926l0.024-0.735l-0.344,0.308l-0.355,0.376C60.019,50.38,48.6,61.047,34.957,61.047
		c-6.958,0-13.495-2.719-18.425-7.637c-4.91-4.918-7.613-11.459-7.613-18.42c0-6.969,2.703-13.515,7.613-18.429
		c4.942-4.902,11.472-7.621,18.425-7.621l1.755,0.016L36.037,8.28z"/>
	<path fill="#0E1F27" d="M36.712,8.956"/>
	
		<linearGradient id="SVGID_9_" gradientUnits="userSpaceOnUse" x1="-288.9023" y1="333.792" x2="-288.9023" y2="333.792" gradientTransform="matrix(-67.4051 0 0 67.4051 -19436.7598 -22490.334)">
		<stop  offset="0" style="stop-color:#A9B7C0"/>
		<stop  offset="1" style="stop-color:#0E1F27"/>
	</linearGradient>
	<path fill="url(#SVGID_9_)" d="M36.712,8.956"/>
	<polygon fill="#B3BCC2" points="43.593,34.01 42.922,33.291 42.922,36.749 43.593,36.041 	"/>
	<linearGradient id="SVGID_10_" gradientUnits="userSpaceOnUse" x1="36.0405" y1="7.2207" x2="36.7124" y2="7.2207">
		<stop  offset="0" style="stop-color:#B3BBC0"/>
		<stop  offset="0.0751" style="stop-color:#A7AFB4"/>
		<stop  offset="0.5167" style="stop-color:#646C70"/>
		<stop  offset="0.8366" style="stop-color:#3A4246"/>
		<stop  offset="1" style="stop-color:#2A3236"/>
	</linearGradient>
	<polygon fill="url(#SVGID_10_)" points="36.041,8.285 36.712,8.956 36.712,5.486 36.041,6.137 	"/>
	
		<radialGradient id="SVGID_11_" cx="-10.3315" cy="-514.7021" r="63.9328" gradientTransform="matrix(0.6971 0 0 0.6971 30.3935 381.4449)" gradientUnits="userSpaceOnUse">
		<stop  offset="0" style="stop-color:#FFFFFF"/>
		<stop  offset="0.35" style="stop-color:#FFFFFF"/>
		<stop  offset="0.5097" style="stop-color:#FBFCFC"/>
		<stop  offset="0.6746" style="stop-color:#EEF2F3"/>
		<stop  offset="0.8413" style="stop-color:#DAE1E5"/>
		<stop  offset="1" style="stop-color:#BFCCD2"/>
	</radialGradient>
	<path fill="url(#SVGID_11_)" d="M33.549,19.72v30.52h9.7v-2.723h-6.921V19.72H33.549z M34.565,5.837
		C18.691,6.025,5.801,19.028,5.801,34.99c0,7.789,3.031,15.102,8.537,20.608c5.49,5.51,12.823,8.54,20.58,8.54
		c7.809,0,15.13-3.03,20.632-8.54c5.501-5.506,8.524-12.819,8.524-20.608v-1.323L62.93,33.67H43.273v2.703h18.033
		c0,0.064,0,0.344-0.008,0.396c-0.936,13.738-12.387,24.646-26.361,24.646c-7.049,0-13.679-2.751-18.685-7.745
		c-4.974-4.985-7.725-11.615-7.725-18.68c0-7.069,2.75-13.707,7.725-18.692c5.006-4.97,11.635-7.725,18.685-7.725
		c0.308,0,1.06,0,1.392,0.008V5.854c-0.268,0-0.732-0.012-1.084-0.016H34.565z"/>
	
		<radialGradient id="SVGID_12_" cx="-11.9033" cy="-515.1401" r="9.3339" gradientTransform="matrix(0.6971 0 0 0.6971 30.3935 381.4449)" gradientUnits="userSpaceOnUse">
		<stop  offset="0" style="stop-color:#FFFFFF"/>
		<stop  offset="0.35" style="stop-color:#FFFFFF"/>
		<stop  offset="0.5348" style="stop-color:#FBFCFC"/>
		<stop  offset="0.7263" style="stop-color:#EEF2F4"/>
		<stop  offset="0.9202" style="stop-color:#DAE2E6"/>
		<stop  offset="1" style="stop-color:#CFDADF"/>
	</radialGradient>
	<path fill="url(#SVGID_12_)" d="M19.643,23.878c0,2.303,1.879,4.166,4.182,4.166c2.303,0,4.179-1.863,4.179-4.166
		c0-2.319-1.875-4.174-4.179-4.174C21.522,19.704,19.643,21.559,19.643,23.878"/>
	<g>
		<path fill="#FFFFFF" d="M24.585,20.452c0.956,0,1.823,0.348,2.535,0.888c-0.76-0.992-1.951-1.635-3.295-1.635
			c-2.303,0-4.182,1.855-4.182,4.174c0,1.335,0.648,2.511,1.627,3.271c-0.54-0.704-0.875-1.563-0.875-2.519
			C20.395,22.319,22.278,20.452,24.585,20.452"/>
		<path fill="#FFFFFF" d="M36.329,5.854c-0.364-0.008-1.06-0.024-1.412-0.024c-16.034,0-29.116,13.083-29.116,29.16
			c0,7.796,3.039,15.102,8.533,20.612c0.176,0.176,0.359,0.34,0.536,0.516c-5.186-5.45-8.045-12.543-8.045-20.107
			C6.824,19.976,18.18,6.653,36.329,5.854"/>
		<path fill="#FFFFFF" d="M36.329,47.517c0,0,1.995,0.584,6.921,0.584v-0.584H36.329z"/>
		<path fill="#FFFFFF" d="M36.329,20.576v-0.86h-2.779v30.523c0,0,0.872-4.642,0.872-29.664H36.329z"/>
		<path fill="#FFFFFF" d="M64.073,33.662l-20.8,0.004v2.703h0.752v-1.951C62.154,34.418,64.073,33.662,64.073,33.662"/>
		<path fill="#FFFFFF" d="M61.311,36.373c-0.004,0.061-0.004,0.348-0.016,0.404C60.371,50.5,48.911,61.415,34.933,61.415
			c-7.045,0-13.679-2.751-18.685-7.749c-3.259-3.255-5.558-7.225-6.757-11.555c3.131,11.379,13.535,19.628,25.897,19.628
			c13.275,0,25.502-10.4,26.262-25.366H61.311z"/>
	</g>
</g>
<path fill="#6D6F71" d="M167.416,12.581v6.597h9.097v1.695c0,6.801-2.747,10.404-10.145,12.755l2.799,6.293
	c5.099-1.199,10.093-4.198,12.147-8.301c2.199,4.103,7.001,6.949,11.447,8.004l3.555-7.196c-6.453-1.399-11.1-4.906-11.1-11.603
	v-1.647h8.948v-6.597H167.416z M208.863,11.677h-8.349v9.5h-7.853v6.845h7.853v17.349h7.35c0.6-2.346,0.999-6.297,0.999-9.148
	V11.677z M209.714,51.572h-24.602c-0.648,0-0.852-0.15-0.852-0.852v-9.748h-8.354v13.152c0,2.846,1.452,4.197,4.307,4.197h29.5
	V51.572z M214.46,12.525v6.553h9.504v3.163c0,8.353-1.703,13.599-10.355,17.402l3.259,5.797c4.942-1.852,9.588-5.35,11.743-9.796
	c2.151,4.198,6.646,7.646,11,9.345l3.898-6.801c-8.401-3.152-11.3-8.05-11.3-15.995v-3.115h9.24v-6.553H214.46z M262.853,24.088
	h-8.297V11.677h-8v46.645h7.001c0.644-2.746,0.999-7.477,0.999-11.172V30.782h8.297V24.088z"/>
<polygon fill="#6D6F71" points="98.228,57.511 117.316,57.511 117.316,48.738 95.76,48.738 95.76,12.489 85.361,12.489 
	85.361,57.511 "/>
<path fill="#6D6F71" d="M140.195,40.35h8.473v7.873c-1.563,0.592-4.606,1.191-7.51,1.191c-9.355,0-12.479-4.758-12.479-14.415
	c0-9.216,2.967-14.638,12.327-14.638c5.21,0,8.177,1.635,10.628,4.758l6.465-5.945c-3.942-5.642-10.844-7.353-17.313-7.353
	c-14.563,0-22.215,7.949-22.215,23.103c0,15.082,6.909,23.255,22.143,23.255c6.981,0,13.818-1.783,17.533-4.383V31.953h-18.053
	V40.35z"/>
</svg>
