<svg id="img_map" xmlns="http://www.w3.org/2000/svg" width="973" height="546" viewBox="0 0 973 546">
    <defs>
        <clipPath id="clip-path">
            <path id="Rectangle_10" data-name="Rectangle 10" transform="translate(270 2586)" style="fill:#d1d1d1;stroke:#707070" d="M0 0h973v546H0z"/>
        </clipPath>
        <clipPath id="clip-path-2">
            <path id="Rectangle_23" data-name="Rectangle 23" transform="translate(-.078)" style="stroke:transparent;fill:none" d="M0 0h981v546H0z"/>
        </clipPath>
        <style>
            .cls-8,.cls-9{fill:none}.cls-5{stroke:transparent;fill:#a5d1f2}.cls-8,.cls-9{stroke-miterlimit:10;stroke:#666}.cls-9{stroke-width:.75px}
        </style>
    </defs>
    <g id="Mask_Group_22" data-name="Mask Group 22" transform="translate(-270 -2586)" style="clip-path:url(#clip-path)">
        <g id="Group_46" data-name="Group 46" transform="translate(262.078 2586)" style="clip-path:url(#clip-path-2)">
            <path id="바다" class="cls-5" d="m-21.845 219 149.194 207.45 39.785 212.585s-44.048 17.051-46.179 16.34-125.039-2.842-125.039-2.842S-46 627.668-46 621.984-21.845 219-21.845 219z" transform="translate(13.319 -79.034)"/>
            <path id="땅" d="M980.415 0v576.333H74.6l-2.131-59.484 3.789-4.914 1.894-17.613 9-22.306-11.845-3.336-10.982 21.775-8.437 1.886-2.842-15.157 3.315-2.369-3.315-6.157 9-4.737 7.1-1.421-6.631-10.893-7.1-13.262 1.895-9 12.314-9.945 21.313-9 19.892-5.684 6.157-3.789-3.786-10.418-10.42-2.136-5.684 10.181-29.367 2.846-3.315-55.415-3.316-27-2.368-11.836 16.932-7.349 8.881-7.336v-4.025l-21.728 5.446-13.528-.474-3.108-7.578v-6.63L28.24 249.839l-12.818-12.788L4.973 220v-12.55L0 198.206V0h980.415z" transform="translate(0 -15.622)" style="fill:#fcf8e3;stroke:transparent"/>
            <g id="서울" transform="translate(272.811 54.113)">
                <path id="seoul" d="m430.928 254.343-5.7 9.946 2.832 15.63-2.847 9.236-17.413 12.078-13.856 17.051v15.63H384l9.946 15.275 20.6 5.151 7.1 12.966h4.263l4.973-11.012 16.34 1.954 7.1 5.95 9.248 15.402-4.263 25.465-13.5 26.231 11.367 9.208-4.263 12.419-2.131 13.129h33.391l3.552-12.433 26.289-17.219 8.525 12.344 37.654 80.056 11.367 3.441L595 509.449l10.3 14.892 32.325-7.132v-5.684l45.469-31.26h7.815l8.525 18.116 15.63-3.73 6.039-15.363 5.328 1.687v40.5l19.893 19.892h27l4.263-16.7-3.552-5.151 12.078-2.575 13.5-13.01 14.919-13.609L828.739 486l3.2 4.235 3.907-4.29v-2.842l30.194-19.893 6.927-13.5 11.9-14.209v-12.782l-8.525-4.263-15.63-4.263v-9.236l14.564-25.576 12.255-20.6 2.931-8.525 24.954-2.842v-11.369l-6.749-39.785 1.6-4.973-35.078 16.222-20.291 2.92-27.125 17.21-14.05-2.25 4.313-19.892-3.527-10.657 13.511-17.761 4.27-13.5 3.558-12.788-3.552-3.907 1.421-11.722h-18.476v-16.34l9.591-9.236 1.6-6.394-2.4-9.591-3.108-2.487h-17.05l-.71-15.985 2.836-18.65-3.2-21.047.355-12.522v-3.552h-10.649l-4.973-10.658-12.078 4.263H764.8l-6.394 4.618-8.525 3.375-.71-10.39-28.418-.932-2.133-11.478-19.182 4.207-2.838 21.286-21.313 7.091 2.131 19.886-19.182 22.731 7.815 30.546-28.781 9.812-10.293-38.94-12.078-8.525L595 181.878l-23.761 7.815-8.209 11.367v19.892l-9.23 36.233v19.182l-22.5-6.631-4.322 23.682-32.414 14.209z" transform="translate(-384 -98.156)" style="stroke-miterlimit:10;fill:#fff;stroke:#4c4c4c;stroke-width:2px"/>
                <path id="Path_49" data-name="Path 49" class="cls-8" d="m470.953 457.163 7.138-10.124h8.525l10.42 19.537 19.655 7.1 7.874-4.973 5.742-9.71v-15.151l4.856-2.842 11.367 2.131 3.315.71 3.079 8.525 5.657 17.287-8.972 9-1.184 25.34-6.631 10.657-13.972 1.416-5.684-5.916-1.184-4.5-10.894-1.18-10.892 10.18-12.315.237-.71-5.21-3.789-.948" transform="translate(-409.178 -197.428)"/>
                <path id="Path_50" data-name="Path 50" class="cls-8" d="m582.6 581.411 10.361-.533 6.572-3.73v-18.827l-4.263-6.4-4.2-14.794-11.07-7.46" transform="translate(-440.753 -223.102)"/>
                <path id="Line_8" data-name="Line 8" class="cls-8" transform="translate(140.313 232.915)" d="M0 13.498V0"/>
                <path id="Path_51" data-name="Path 51" class="cls-8" d="m607.356 592.913 11.418 5.228 12.381-5.362 7.372-1.8 6.585-6.425V583.5h32.325l15.124 4.8 3.7 17.939 15.275 6.741 9.78-3.155" transform="translate(-448.674 -238.69)"/>
                <path id="Path_52" data-name="Path 52" class="cls-8" d="m659.6 519.5-11.367 20.255-1.571 14.912-3.224 4.973-17.938 6.386v18.48l7.5 4.618 14.724 59.045" transform="translate(-453.927 -220.158)"/>
                <path id="Path_53" data-name="Path 53" class="cls-8" d="M750.5 530v22.024l10.124-.006 6.128 8.887-4.573 38.364 8.721 18.471" transform="translate(-490.122 -223.198)"/>
                <path id="Path_54" data-name="Path 54" class="cls-8" d="m822.727 504 8.364 20.606v10.657l7.815 9.229 3.2 21.852 21.313 18.294 5.328 18.816 2.487 6.76 16.545-1.421 7.255-11.367 18.472-.355 3.907 14.919 10.657 7.993" transform="translate(-511.035 -215.669)"/>
                <path id="Path_55" data-name="Path 55" class="cls-8" d="m922.754 501.666-1.421 32.925 17.051 16.57 26.286 8.639 4.737 8.874 9.946 5.679 4.737 18.483 7.578 8.288" transform="translate(-539.587 -214.994)"/>
                <path id="Path_56" data-name="Path 56" class="cls-8" d="M1010.167 458.834c.71.236 9.472 6.275 9.472 6.275v8.052l-2.25 9.946 11.13 16.34 12.552 3.553 3.315 2.6" transform="translate(-565.309 -202.592)"/>
                <path id="Path_57" data-name="Path 57" class="cls-8" d="m970.085 389.855-14.162-.355-5.684 4.973H933.9l-7.342 18.288-2.842 20.993-10.925 14.638-3.674 18.864" transform="translate(-536.05 -182.516)"/>
                <path id="Path_58" data-name="Path 58" class="cls-8" d="m974.947 271-20.722 2.119-19.892 11.139 1.2 13.282 5.666 62.618" transform="translate(-543.351 -148.205)"/>
                <path id="Path_59" data-name="Path 59" class="cls-8" d="m903.024 308.375-26.331 8.348-12.329 16.015-18.472 11.841-8.052 14.921 1.895 8.994-1.895 18.714-15.114 21.787 5.167 24.155" transform="translate(-511.035 -159.026)"/>
                <path id="Path_60" data-name="Path 60" class="cls-8" d="m706.288 464.3 18.03-22.5 3.078-9.236-.947-9.473-5.461-7.124" transform="translate(-477.32 -190.181)"/>
                <path id="Path_61" data-name="Path 61" class="cls-8" d="m601.333 343 57.31 52.566 27.81 2.376 16.475-12.315 6.868-3.552s13.025-6.868 13.735-6.039 7.578 4.973 7.578 4.973l44.521-2.492 8.052 4.978 5.921-4.978 17.287.953 1.895 8.288 14.887 5.447 13.767 6.091" transform="translate(-446.93 -169.052)"/>
                <path id="Path_62" data-name="Path 62" class="cls-8" d="m797.732 446.946-9.87-5.052h-12.788L766.7 435.5H736" transform="translate(-485.923 -195.836)"/>
                <path id="Path_63" data-name="Path 63" class="cls-8" d="m631.951 351.435 6.349-15.215 23.167-2.605 6.275-11.6s6.631-2.605 7.342-2.605 7.578-12.522 7.578-12.522l12.117-3.657" transform="translate(-455.795 -157.536)"/>
                <path id="Path_64" data-name="Path 64" class="cls-8" d="m730.707 241.537-11.5 16.492 1.153 37.624 7.579 7.785v17.287l-4.277 18.235 1.554 6.157 13.445 10.3" transform="translate(-481.061 -139.673)"/>
                <path id="Path_65" data-name="Path 65" class="cls-8" d="m769.317 250.983 5.221 16.343 5.21 17.049-9.236 15.167.474 7.815 17.287 4.766 12.315 9.916 6.792 15.161 16.954 2.056" transform="translate(-495.57 -142.408)"/>
                <path id="Path_66" data-name="Path 66" class="cls-8" d="m776.157 228.072 13.92 6.9 21.521 16.71 5.848 20.736H847.8l15.157-22.468" transform="translate(-497.551 -135.774)"/>
                <path id="Path_67" data-name="Path 67" class="cls-8" d="m824.579 126.667-1.852 34.812 12.035 14.209 10.657 1.421 44.521 61.1 13.923 3.229" transform="translate(-511.035 -106.412)"/>
                <path id="Path_68" data-name="Path 68" class="cls-8" d="m899.92 127.667-4.973 13.262L903 156.795l-3.078 34.1-3.322 17.052-9.969.619" transform="translate(-529.54 -106.701)"/>
            </g>
            <g id="경기도_구역" data-name="경기도 구역" transform="translate(4.973 -28.41)">
                <path id="Path_69" data-name="Path 69" class="cls-8" d="m7 289.494 4.055 1.777L28.669 306.6l7.993-9.946L51.4 304.3l1.421 11.012 30.019-19.897 14.031 2.664L107.6 274.1l5.232-15.63 12.633-6.216L136.059 240l15.633 5.21 37.361 29.247 15.1 22.734 33.387 22.379 12.788-1.776 6.216 18.472h5.749l11.657-8.466 5.861-5.18 31.561 10.7" transform="translate(-7 -56.705)"/>
                <path id="Path_70" data-name="Path 70" class="cls-9" d="m1064.086 608.909 54.643 4.682 17.761 36.766-29.128 71.577" transform="translate(-313.084 -163.524)"/>
                <path id="Path_71" data-name="Path 71" class="cls-9" d="m1125 768-14.248 24.589" transform="translate(-330.721 -209.589)"/>
                <path id="Path_72" data-name="Path 72" class="cls-9" d="m484.111 641.666 16.262 1.647 13.5 63.241 12.788 25.576 10.011 18.57" transform="translate(-145.149 -173.009)"/>
                <path id="Line_9" data-name="Line 9" transform="translate(402.449 513.142)" style="stroke-width:.75px;stroke:#666;stroke-miterlimit:10;fill:#fcf8e3" d="M41.58 0 0 65.769"/>
                <path id="Path_73" data-name="Path 73" class="cls-9" d="m741.5 688 3.617 40.318 12.983 16.518 11.043 22.464" transform="translate(-219.677 -186.425)"/>
                <path id="Path_74" data-name="Path 74" class="cls-9" d="m864.657 715.3-.827 20.923-37.2 6.064-18.753 11.164-23.971 13.457" transform="translate(-238.897 -194.33)"/>
                <path id="Line_10" data-name="Line 10" class="cls-9" transform="translate(624.933 541.893)" d="M14.516 36.018 0 0"/>
                <path id="Path_75" data-name="Path 75" class="cls-8" d="m1088.161 319.6-33.391-57.16v-32.679L1048.021 212 999 223.722" transform="translate(-294.238 -48.597)"/>
                <path id="Path_76" data-name="Path 76" class="cls-8" d="m1267.883 524.833-25.7 5.087v28.423l-19 21.669-78.06-7.637-4.307 16.873" transform="translate(-335.3 -139.18)"/>
                <path id="Path_77" data-name="Path 77" class="cls-9" d="m1014.519-18-17.05 49.731L952 74.713" transform="translate(-280.629 18)"/>
                <path id="Line_11" data-name="Line 11" class="cls-9" transform="translate(576.172 3.552)" d="m0 0 7.104 83.172"/>
                <path id="Path_78" data-name="Path 78" class="cls-9" d="m226 65.959 86.674-15.019 44.985-22.354 20.376-32.35 23.438 9.211 51.159-4.238 32.508 7.266 29.96-2.231L517.5-13" transform="translate(-70.412 16.552)"/>
                <path id="Path_79" data-name="Path 79" class="cls-8" d="M667.351.215 664 8.664l-23.145 93.5 46.472 3.212L697.9 74.3h26.184l25.576 28.075" transform="translate(-190.537 12.726)"/>
                <path id="Path_80" data-name="Path 80" class="cls-8" d="m377.238 443.217-10.183 63.071-22.382 7.112-5.689 44.037 15.861 7.116 5.667 13.5 29.773 5.684 4.658 33.391-15.1 12.078v29.128l-11.9 3.552-7.389 12.078-8.829 18.367" transform="translate(-103.127 -115.547)"/>
                <path id="Path_81" data-name="Path 81" class="cls-9" d="m411.25 633.084 51.764 1.006 11.229-18.59" transform="translate(-124.052 -165.432)"/>
            </g>
            <g id="한강" transform="translate(152.455 -19.885)">
                <path id="han-river" d="M222.7-6s2.131 22.734 0 34.1-7.1 50.442-6.394 55.415-6.226 17.761 3.636 27.707 50.358 36.233 59.594 43.337 111.54 72.821 125.038 86.319 100.526 75.664 110.471 83.479c2.732 1.659 47.01 16.218 55.77 30.9 3.2 6.394 37.654 37.3 71.755 5.684 23.445-27 30.9-29.483 43.692-26.286s37.654 23.09 54.349 23.09c0 0 25.576 2.131 47.245-50.8 11.367-24.155 11.841-29.01 25.221-30.549 14.537-1.672 10.3 2.131 28.063-8.881s41.916-25.221 59.322-4.973 21.669 41.916 55.06 63.585 47.955 26.642 52.573 55.77c1.066 13.143 23.8 2.131 21.669-18.827-1.066-16.34 8.525-17.406 22.379-27.352" transform="translate(-214.59 6)" style="stroke-width:24px;stroke:#a5d1f2;stroke-miterlimit:10;fill:none"/>
                <path id="Path_82" data-name="Path 82" d="M703.828 500.637s-15.371 1.777-26.1 1.658-13.569-3.8-17.832-8.53-5.21-18.823-5.565-25.1" transform="translate(-341.919 -131.442)" style="stroke-width:11px;stroke:#a5d1f2;stroke-miterlimit:10;fill:none"/>
                <path id="Path_83" data-name="Path 83" d="m1381.115 409.167-21.491 40.022-3.375 28.525" transform="translate(-545.162 -114.213)" style="stroke-width:12px;stroke:#a5d1f2;stroke-miterlimit:10;fill:none"/>
                <path id="Path_84" data-name="Path 84" class="cls-5" d="M1363.122 663.925c-18.792-15.376-31.8-31.938-35.813-49.228-3.679-15.85.443-26.434 1.307-28.4 1.132-2.57 1.327-11.685-3.326-17.434-7.917-9.782-.724-26.211 2.664-30.993l6.513 4.588 3.7 2.612c-4.367 6.2-7.989 8.607-4.846 16.62 2.926 7.411 5.885 13.8 2.57 25.764-.082.3-11.131 37.049 30.3 70.95z" transform="translate(-535.161 -151.481)"/>
            </g>
        </g>
    </g>
</svg>
