<svg xmlns="http://www.w3.org/2000/svg" xmlns:xlink="http://www.w3.org/1999/xlink" width="973" height="546" viewBox="0 0 973 546">
  <defs>
    <style>
      .cls-1 {
        fill: #d1d1d1;
      }

      .cls-11, .cls-12, .cls-13, .cls-2, .cls-8, .cls-9 {
        fill: none;
      }

      .cls-3 {
        clip-path: url(#clip-path);
      }

      .cls-4 {
        clip-path: url(#clip-path-2);
      }

      .cls-5 {
        fill: #a5d1f2;
      }

      .cls-10, .cls-6 {
        fill: #fcf8e3;
      }

      .cls-14, .cls-7 {
        fill: #fff;
        stroke-width: 2px;
      }

      .cls-7 {
        stroke: #4c4c4c;
      }

      .cls-10, .cls-11, .cls-12, .cls-13, .cls-14, .cls-7, .cls-8, .cls-9 {
        stroke-miterlimit: 10;
      }

      .cls-10, .cls-14, .cls-8, .cls-9 {
        stroke: #666;
      }

      .cls-10, .cls-9 {
        stroke-width: 0.75px;
      }

      .cls-11, .cls-12, .cls-13 {
        stroke: #a5d1f2;
      }

      .cls-11 {
        stroke-width: 24px;
      }

      .cls-12 {
        stroke-width: 11px;
      }

      .cls-13 {
        stroke-width: 12px;
      }
    </style>
    <clipPath id="clip-path">
      <rect id="Rectangle_10" data-name="Rectangle 10" class="cls-1" width="973" height="546" transform="translate(270 2586)"/>
    </clipPath>
    <clipPath id="clip-path-2">
      <rect id="Rectangle_23" data-name="Rectangle 23" class="cls-2" width="981" height="546" transform="translate(-0.078 0)"/>
    </clipPath>
  </defs>
  <g id="img_map" class="cls-3" transform="translate(-270 -2586)">
    <g id="지도" transform="translate(262.078 2586.425)">
      <g id="Group_46" data-name="Group 46" class="cls-4" transform="translate(0 -0.425)">
        <path id="바다" class="cls-5" d="M-21.845,219,127.349,426.45l39.785,182.585s-44.048,17.051-46.179,16.34S-4.084,622.533-4.084,622.533-46,597.668-46,591.984-21.845,219-21.845,219Z" transform="translate(13.319 -63.034)"/>
        <path id="땅" class="cls-6" d="M980.415,0V546.333H74.6l-2.131-29.484,3.789-4.914,1.894-17.613,9-22.306L75.307,468.68,64.325,490.455l-8.437,1.886-2.842-15.157,3.315-2.369-3.315-6.157,9-4.737,7.1-1.421-6.631-10.893-7.1-13.262,1.895-9L69.624,419.4l21.313-9,19.892-5.684,6.157-3.789L113.2,390.509l-10.42-2.136-5.684,10.181L67.729,401.4l-3.315-55.415-3.316-27L58.73,307.149,75.662,299.8l8.881-7.336v-4.025l-21.728,5.446-13.528-.474-3.108-7.578v-6.63L28.24,249.839,15.422,237.051,4.973,220V207.45L0,198.206V0H980.415Z" transform="translate(0 0.378)"/>
        <g id="서울" transform="translate(272.811 70.113)">
          <path id="seoul" class="cls-7" d="M430.928,254.343l-5.7,9.946,2.832,15.63-2.847,9.236L407.8,301.233l-13.856,17.051v15.63H384l9.946,15.275,20.6,5.151,7.1,12.966h4.263l4.973-11.012,16.34,1.954,7.1,5.95L463.57,379.6l-4.263,25.465-13.5,26.231,11.367,9.208-4.263,12.419-2.131,13.129h33.391l3.552-12.433L514.012,436.4l8.525,12.344L560.191,528.8l11.367,3.441L595,509.449l10.3,14.892,32.325-7.132v-5.684l45.469-31.26h7.815l8.525,18.116,15.63-3.73,6.039-15.363,5.328,1.687v40.5l19.893,19.892h27l4.263-16.7-3.552-5.151,12.078-2.575,13.5-13.01,14.919-13.609L828.739,486l3.2,4.235,3.907-4.29v-2.842l30.194-19.893,6.927-13.5,11.9-14.209V422.719l-8.525-4.263-15.63-4.263v-9.236l14.564-25.576,12.255-20.6,2.931-8.525,24.954-2.842V336.045l-6.749-39.785,1.6-4.973-35.078,16.222-20.291,2.92-27.125,17.21-14.05-2.25,4.313-19.892-3.527-10.657,13.511-17.761,4.27-13.5,3.558-12.788-3.552-3.907,1.421-11.722H815.241v-16.34l9.591-9.236,1.6-6.394-2.4-9.591-3.108-2.487H803.874l-.71-15.985L806,156.479l-3.2-21.047.355-12.522v-3.552H792.506L787.533,108.7l-12.078,4.263H764.8l-6.394,4.618-8.525,3.375-.71-10.39-28.418-.932L718.62,98.156l-19.182,4.207L696.6,123.649l-21.313,7.091,2.131,19.886-19.182,22.731,7.815,30.546-28.781,9.812-10.293-38.94-12.078-8.525L595,181.878l-23.761,7.815-8.209,11.367v19.892L553.8,257.185v19.182l-22.5-6.631-4.322,23.682-32.414,14.209Z" transform="translate(-384 -98.156)"/>
          <path id="Path_49" data-name="Path 49" class="cls-8" d="M470.953,457.163l7.138-10.124h8.525l10.42,19.537,19.655,7.1,7.874-4.973,5.742-9.71V443.842L535.163,441l11.367,2.131,3.315.71,3.079,8.525,5.657,17.287-8.972,9-1.184,25.34-6.631,10.657-13.972,1.416-5.684-5.916-1.184-4.5-10.894-1.18L499.168,514.65l-12.315.237-.71-5.21-3.789-.948" transform="translate(-409.178 -197.428)"/>
          <path id="Path_50" data-name="Path 50" class="cls-8" d="M582.6,581.411l10.361-.533,6.572-3.73V558.321l-4.263-6.4-4.2-14.794L580,529.667" transform="translate(-440.753 -223.102)"/>
          <line id="Line_8" data-name="Line 8" class="cls-8" y1="13.498" transform="translate(140.313 232.915)"/>
          <path id="Path_51" data-name="Path 51" class="cls-8" d="M607.356,592.913l11.418,5.228,12.381-5.362,7.372-1.8,6.585-6.425V583.5h32.325l15.124,4.8,3.7,17.939,15.275,6.741,9.78-3.155" transform="translate(-448.674 -238.69)"/>
          <path id="Path_52" data-name="Path 52" class="cls-8" d="M659.6,519.5l-11.367,20.255-1.571,14.912-3.224,4.973L625.5,566.026v18.48l7.5,4.618,14.724,59.045" transform="translate(-453.927 -220.158)"/>
          <path id="Path_53" data-name="Path 53" class="cls-8" d="M750.5,530v22.024l10.124-.006,6.128,8.887-4.573,38.364L770.9,617.74" transform="translate(-490.122 -223.198)"/>
          <path id="Path_54" data-name="Path 54" class="cls-8" d="M822.727,504l8.364,20.606v10.657l7.815,9.229,3.2,21.852,21.313,18.294,5.328,18.816,2.487,6.76,16.545-1.421,7.255-11.367,18.472-.355,3.907,14.919,10.657,7.993" transform="translate(-511.035 -215.669)"/>
          <path id="Path_55" data-name="Path 55" class="cls-8" d="M922.754,501.666l-1.421,32.925,17.051,16.57L964.67,559.8l4.737,8.874,9.946,5.679,4.737,18.483,7.578,8.288" transform="translate(-539.587 -214.994)"/>
          <path id="Path_56" data-name="Path 56" class="cls-8" d="M1010.167,458.834c.71.236,9.472,6.275,9.472,6.275v8.052l-2.25,9.946,11.13,16.34L1041.071,503l3.315,2.6" transform="translate(-565.309 -202.592)"/>
          <path id="Path_57" data-name="Path 57" class="cls-8" d="M970.085,389.855l-14.162-.355-5.684,4.973H933.9l-7.342,18.288-2.842,20.993-10.925,14.638-3.674,18.864" transform="translate(-536.05 -182.516)"/>
          <path id="Path_58" data-name="Path 58" class="cls-8" d="M974.947,271l-20.722,2.119-19.892,11.139,1.2,13.282,5.666,62.618" transform="translate(-543.351 -148.205)"/>
          <path id="Path_59" data-name="Path 59" class="cls-8" d="M903.024,308.375l-26.331,8.348-12.329,16.015-18.472,11.841L837.84,359.5l1.895,8.994-1.895,18.714-15.114,21.787,5.167,24.155" transform="translate(-511.035 -159.026)"/>
          <path id="Path_60" data-name="Path 60" class="cls-8" d="M706.288,464.3l18.03-22.5,3.078-9.236-.947-9.473-5.461-7.124" transform="translate(-477.32 -190.181)"/>
          <path id="Path_61" data-name="Path 61" class="cls-8" d="M601.333,343l57.31,52.566,27.81,2.376,16.475-12.315,6.868-3.552s13.025-6.868,13.735-6.039,7.578,4.973,7.578,4.973l44.521-2.492,8.052,4.978,5.921-4.978,17.287.953,1.895,8.288,14.887,5.447,13.767,6.091" transform="translate(-446.93 -169.052)"/>
          <path id="Path_62" data-name="Path 62" class="cls-8" d="M797.732,446.946l-9.87-5.052H775.074L766.7,435.5H736" transform="translate(-485.923 -195.836)"/>
          <path id="Path_63" data-name="Path 63" class="cls-8" d="M631.951,351.435,638.3,336.22l23.167-2.605,6.275-11.6s6.631-2.605,7.342-2.605,7.578-12.522,7.578-12.522l12.117-3.657" transform="translate(-455.795 -157.536)"/>
          <path id="Path_64" data-name="Path 64" class="cls-8" d="M730.707,241.537l-11.5,16.492,1.153,37.624,7.579,7.785v17.287l-4.277,18.235,1.554,6.157,13.445,10.3" transform="translate(-481.061 -139.673)"/>
          <path id="Path_65" data-name="Path 65" class="cls-8" d="M769.317,250.983l5.221,16.343,5.21,17.049-9.236,15.167.474,7.815,17.287,4.766,12.315,9.916L807.38,337.2l16.954,2.056" transform="translate(-495.57 -142.408)"/>
          <path id="Path_66" data-name="Path 66" class="cls-8" d="M776.157,228.072l13.92,6.9,21.521,16.71,5.848,20.736H847.8l15.157-22.468" transform="translate(-497.551 -135.774)"/>
          <path id="Path_67" data-name="Path 67" class="cls-8" d="M824.579,126.667l-1.852,34.812,12.035,14.209,10.657,1.421,44.521,61.1,13.923,3.229" transform="translate(-511.035 -106.412)"/>
          <path id="Path_68" data-name="Path 68" class="cls-8" d="M899.92,127.667l-4.973,13.262L903,156.795l-3.078,34.1L896.6,207.947l-9.969.619" transform="translate(-529.54 -106.701)"/>
        </g>
        <g id="경기도_구역" data-name="경기도 구역" transform="translate(4.973 -12.41)">
          <path id="Path_69" data-name="Path 69" class="cls-8" d="M7,289.494l4.055,1.777L28.669,306.6l7.993-9.946L51.4,304.3l1.421,11.012L82.84,295.415l14.031,2.664L107.6,274.1l5.232-15.63,12.633-6.216L136.059,240l15.633,5.21,37.361,29.247,15.1,22.734L237.54,319.57l12.788-1.776,6.216,18.472h5.749L273.95,327.8l5.861-5.18,31.561,10.7" transform="translate(-7 -56.705)"/>
          <path id="Path_70" data-name="Path 70" class="cls-9" d="M1064.086,608.909l54.643,4.682,17.761,36.766-29.128,71.577" transform="translate(-313.084 -163.524)"/>
          <path id="Path_71" data-name="Path 71" class="cls-9" d="M1125,768" transform="translate(-330.721 -209.589)"/>
          <path id="Path_72" data-name="Path 72" class="cls-9" d="M526.659,732.13l-12.788-25.576-13.5-63.241-16.262-1.647" transform="translate(-145.149 -173.009)"/>
          <line id="Line_9" data-name="Line 9" class="cls-10" x1="35.878" y2="45.269" transform="translate(408.151 513.142)"/>
          <path id="Path_73" data-name="Path 73" class="cls-9" d="M741.5,688l3.617,40.318L758.1,744.836" transform="translate(-219.677 -186.425)"/>
          <path id="Path_74" data-name="Path 74" class="cls-9" d="M864.657,715.3l-.827,20.923-37.2,6.064-18.753,11.164" transform="translate(-238.897 -194.33)"/>
          <line id="Line_10" data-name="Line 10" class="cls-9" x1="6.132" y1="17.228" transform="translate(624.933 541.893)"/>
          <path id="Path_75" data-name="Path 75" class="cls-8" d="M1088.161,319.6l-33.391-57.16V229.761L1048.021,212,999,223.722" transform="translate(-294.238 -48.597)"/>
          <path id="Path_76" data-name="Path 76" class="cls-8" d="M1267.883,524.833l-25.7,5.087v28.423l-19,21.669-78.06-7.637-4.307,16.873" transform="translate(-335.3 -139.18)"/>
          <path id="Path_77" data-name="Path 77" class="cls-9" d="M1014.519-18,997.469,31.731,952,74.713" transform="translate(-280.629 18)"/>
          <line id="Line_11" data-name="Line 11" class="cls-9" x2="7.104" y2="83.172" transform="translate(576.172 3.552)"/>
          <path id="Path_78" data-name="Path 78" class="cls-9" d="M226,65.959,312.674,50.94l44.985-22.354,20.376-32.35,21.99,21.313,52.606-16.34,31.26,14.919,30.514-4.263L517.5-13" transform="translate(-70.412 16.552)"/>
          <path id="Path_79" data-name="Path 79" class="cls-8" d="M667.351.215,664,8.664l-23.145,93.5,46.472,3.212L697.9,74.3h26.184l25.576,28.075" transform="translate(-190.537 12.726)"/>
          <path id="Path_80" data-name="Path 80" class="cls-8" d="M360.557,673.958l7.389-12.078,11.9-3.552V629.2l15.1-12.078-4.658-33.391-29.773-5.684-5.667-13.5-15.861-7.116,5.689-44.037,22.382-7.109,10.183-63.071" transform="translate(-103.127 -115.547)"/>
          <path id="Path_81" data-name="Path 81" class="cls-9" d="M411.25,633.084l51.764,1.006,11.229-18.59" transform="translate(-124.052 -165.432)"/>
        </g>
        <g id="한강" transform="translate(152.455 -3.885)">
          <path id="han-river" class="cls-11" d="M222.7-6s2.131,22.734,0,34.1-7.1,50.442-6.394,55.415-6.226,17.761,3.636,27.707,50.358,36.233,59.594,43.337,111.54,72.821,125.038,86.319S505.1,316.542,515.045,324.357c2.732,1.659,47.01,16.218,55.77,30.9,3.2,6.394,37.654,37.3,71.755,5.684,23.445-27,30.9-29.483,43.692-26.286s37.654,23.09,54.349,23.09c0,0,25.576,2.131,47.245-50.8,11.367-24.155,11.841-29.01,25.221-30.549,14.537-1.672,10.3,2.131,28.063-8.881s41.916-25.221,59.322-4.973,21.669,41.916,55.06,63.585,47.955,26.642,52.573,55.77c1.066,13.143,23.8,2.131,21.669-18.827-1.066-16.34,8.525-17.406,22.379-27.352" transform="translate(-214.59 6)"/>
          <path id="Path_82" data-name="Path 82" class="cls-12" d="M703.828,500.637s-15.371,1.777-26.1,1.658-13.569-3.8-17.832-8.53-5.21-18.823-5.565-25.1" transform="translate(-341.919 -131.442)"/>
          <path id="Path_83" data-name="Path 83" class="cls-13" d="M1381.115,409.167l-21.491,40.022-3.375,28.525" transform="translate(-545.162 -114.213)"/>
          <path id="Path_84" data-name="Path 84" class="cls-5" d="M1363.122,663.925c-18.792-15.376-31.8-31.938-35.813-49.228-3.679-15.85.443-26.434,1.307-28.4,1.132-2.57,1.327-11.685-3.326-17.434-7.917-9.782-.724-26.211,2.664-30.993l6.513,4.588h0l3.7,2.612c-4.367,6.2-7.989,8.607-4.846,16.62,2.926,7.411,5.885,13.8,2.57,25.764-.082.3-11.131,37.049,30.3,70.95Z" transform="translate(-535.161 -151.481)"/>
        </g>
      </g>
    </g>
    <g id="Group_47" data-name="Group 47" transform="translate(260.168 2581.5)">
      <rect id="Rectangle_27" data-name="Rectangle 27" class="cls-5" width="1003.043" height="558.215" transform="translate(-0.046)"/>
      <path id="Path_93" data-name="Path 93" class="cls-6" d="M-.168,373.6l8.056-7.268,5.845,7.268,3.665,9.932v10.42l34.888,13.8-16.717,13.09L39.2,438.286l17.444-7.268,9.449,2.907L44.292,454.268,77,450.142l34.888-19.851-10.176-5.1L76.273,435.379l-.727-10.185,21.805-11.621-6.542-7.042-10.9-14.763L68.277,361.241l-7.268-19.625,1.454-23.986L38.477,291.464,36.3,274.747l19.625-21.805H79.18L67.55,292.918l14.537,17.444,2.907,26.893L95.171,343.8l6.542-13.81h23.259v11.629L144.6,361.968h8.722L148.23,335.8l22.532-3.634s-.727,10.176,0,12.356,11.629,30.527,11.629,30.527l-13.81,12.356,6.542,6.542,20.352-10.42v15.508l20.352,7.494,25.439,17.444,5.088,15.764,10.9-26.893,12.356,6.542,49.183,3.271,4.24-7.51L424.43,320.9l213.328-130.71L760.475,93.763h63.719l11.387-16.475,9.207-5.33,7.753-10.176L863.686,64.2l14.537.97,5.815-7.268-23.259-22.29-2.423-15.991,11.629-9.691L881.615,0H1.408Z"/>
      <path id="Path_94" data-name="Path 94" class="cls-8" d="M0,25.64H72.684L204.243,58.167,254.4,75.52l29.8-32.753L345.25,18.031l21.078,28.7,95.035,49.056,50.7,68.309v7.277" transform="translate(-0.046 -4.925)"/>
      <path id="Path_95" data-name="Path 95" class="cls-8" d="M326.913,343.019,241.055,315.4l13.083-41.43-36.342-18.9L211.981,218,180,135.869l30.527-24.338s13.083,2.532,17.444,3.986,38.865-35.876,38.865-35.876" transform="translate(-49.214 -21.755)"/>
      <line id="Line_12" data-name="Line 12" class="cls-8" y1="13.106" x2="14.537" transform="translate(345.204)"/>
      <g id="부산" transform="translate(274.973 19.625)">
        <path id="Path_96" data-name="Path 96" class="cls-14" d="M918.873,112.767V95.323l-24.349-6.9,5.451-12.356-2.953-18.535L880.328,32.815,862.532,31,830.193,39.72,808.754,27l-5.45,8.722,6.179,6.905-8.358,20.352L787.678,75.335,766.237,62.979,726.624,52.8,736.8,65.886l4,10.176-9.449,17.444-13.81,25.076L713.9,134.573,688.828,139.3l-12.72,10.539-13.81-1.454-14.173,26.166H613.6l-20.352,52.878-53.423,7.541L512.2,250.186l-7.632-9.835-4.724,4.35,4,5.446-25.8,2.541L462.78,268.54l9.086,40.84-5.815-5.089-1.454,5.088,6.542,12.356-5.815,13.447-7.632-9.812,4.724-1.817,1.817-4.724-2.907-4.731-11.266-1.221L434.8,317.737v8.722L405.9,322.1l-27.529,3.271,12.038,24.349,22.555,13.447,12,2.181,1.459,8.722,5.091,8.722,1.455,8.478-11.991,7.149H410.81l-.727,6,14.9,12.811,4.361,5.906h30.891l13.447,4.543,6.178-15.718,3.271-24.395,8.722-14.2,8,4.713-11.629,50.141H507.48l1.817-12.908,9.449-7.716,9.086-20.4,7.632,2.021-6.542,29.563,8.722-3.524,7.268-24.107h7.632l.727,16.172-6.542,17.353,7.632,40.658,10.9,5.429,8.722-2.919,1.817-12,10.9-2.729,4.724,20.167h7.632l1.09-5.633L594.7,448.66l-2.907-26.575,13.083-2.93,6.178,28.7,1.09,16.348,4-6.681,4.724-17.786-2.544-7.883H624.5l1.454-23.8,13.083-3,2.18-12.038,14.173-25.462,13.81-2.192,6.178,9.807L669.93,389.2l23.259,7.4,2.181-7.406,4,1.709,2.544,19.142L717.9,397.69l11.629,2.907,3.271-13.083,1.09-14.537-18.171-18.534L721.172,337l21.078-8,10.176-.727,26.53-5.088,9.812,6.905,18.9-13.81,2.907-16.354,17.808-10.9,10.176-13.083,4.724-7.405-9.812-15.127,9.812-12.356,6.178,4.724,16.717-47.608-19.261-1.09-.363-5.815L860,176.73l5.451.727,8.722-31.254-.363-13.328,6.905-17.927,15.991-8.359,7.632,10.176,10.721,1.09Z" transform="translate(-378.375 -27)"/>
        <path id="Path_97" data-name="Path 97" class="cls-8" d="M584,461.792l26.409-31.178,13.567-74.138,30.043-16.959-3.859-39.429" transform="translate(-434.543 -101.596)"/>
        <path id="Path_98" data-name="Path 98" class="cls-8" d="M673.6,555l12.638-23.969-6.319-35.373-23.724-6.3-35.857-9.692" transform="translate(-444.468 -150.649)"/>
        <path id="Path_99" data-name="Path 99" class="cls-8" d="M725.08,515.17l-10.837-20.327,10.973-12.562-10.9-5.312,7.764-14.528-17.135-6.779L689.5,469.719v16.716" transform="translate(-463.361 -144.092)"/>
        <path id="Path_100" data-name="Path 100" class="cls-8" d="M680.334,354.335l29.558,12.6-2.907,25.682,2.907,21.805-7.456,13.563" transform="translate(-460.857 -116.414)"/>
        <path id="Path_101" data-name="Path 101" class="cls-8" d="M748.642,212.406l-4.383,25.145,10.176,25.682-3.392,12.9,17.444,13.748L748.62,315.566,721,328.165" transform="translate(-471.965 -77.645)"/>
        <path id="Path_102" data-name="Path 102" class="cls-8" d="M826.115,170.311l31.934,19.4-5.815,29.558,14.537,8.238,10.66,14.052-25.658,32.466-14.56,15.262-11.1-12.84-25.244-6.3-14.537,8.238" transform="translate(-489.812 -66.147)"/>
        <path id="Path_103" data-name="Path 103" class="cls-8" d="M753.5,350.6l19.444,10.866,21.836-12.463,9.237,6.435h28.346L828.244,334" transform="translate(-480.843 -110.859)"/>
        <path id="Path_104" data-name="Path 104" class="cls-8" d="M911.667,268.335l13.568,3.392,9.691,19.687-3.876,29.253,21.32,1.992,6.3,15.452,18.261,13.138" transform="translate(-524.047 -92.922)"/>
        <path id="Path_105" data-name="Path 105" class="cls-8" d="M884.532,420.194l-4.845-21.932L866.119,383.49,862,363.5" transform="translate(-510.481 -118.917)"/>
        <path id="Path_106" data-name="Path 106" class="cls-8" d="M756.625,358.592l12.387,18.559,11.629.181,13.144,8.716,5.27,14.707,9.206,6.469H816.5l10.023,19.583" transform="translate(-481.697 -117.577)"/>
        <path id="Path_107" data-name="Path 107" class="cls-8" d="M859.371,387.9l-8.924.621-10.721,8.995L839,415.228" transform="translate(-504.198 -125.581)"/>
        <path id="Path_108" data-name="Path 108" class="cls-8" d="M733.227,452.471l10.011-8.806,13.447-3.411,9.267,4.361,3.271-4.361,18.171-9.267,9.812-10.676" transform="translate(-475.305 -134.436)"/>
        <path id="Path_109" data-name="Path 109" class="cls-8" d="M778.5,481.162l2.544-16.547-1.2-13.665" transform="translate(-487.672 -142.805)"/>
        <path id="Path_110" data-name="Path 110" class="cls-14" d="M733,550.722v9.449l10.539,11.856L762.8,584.884l3.271,6.905,26.893,10.531,4.179-7.987L785.12,576.521l-8.509-21.938L759.166,542h-8.722Z" transform="translate(-475.243 -167.676)"/>
        <path id="Path_111" data-name="Path 111" class="cls-14" d="M424.115,584.53l-30.164,13.818L388.5,613.6l12.356,41.8L417.21,667.4l-3.634,10.9,12.72,11.629,6.542-14.537-6.9-11.629,8.722-18.9,7.268-19.625-2.181-22.169,10.9-5.451-16.354-6.542-6.9-7.769Z" transform="translate(-381.141 -178.96)"/>
      </g>
    </g>
  </g>
</svg>
