<svg id="img_map" xmlns="http://www.w3.org/2000/svg" xmlns:xlink="http://www.w3.org/1999/xlink" width="720" height="690" viewBox="0 0 720 690">
  <defs>
    <style>
      .cls-1 {
        fill: #d1d1d1;
        stroke: #707070;
      }

      .cls-11, .cls-12, .cls-13, .cls-2, .cls-8, .cls-9 {
        fill: none;
      }

      .cls-2, .cls-5, .cls-6 {
        stroke: rgba(0,0,0,0);
      }

      .cls-3 {
        clip-path: url(#clip-path);
      }

      .cls-4 {
        clip-path: url(#clip-path-2);
      }

      .cls-5 {
        fill: #a5d1f2;
      }

      .cls-10, .cls-6 {
        fill: #fcf8e3;
      }

      .cls-7 {
        fill: #fff;
        stroke: #4c4c4c;
        stroke-width: 2px;
      }

      .cls-10, .cls-11, .cls-12, .cls-13, .cls-7, .cls-8, .cls-9 {
        stroke-miterlimit: 10;
      }

      .cls-10, .cls-8, .cls-9 {
        stroke: #666;
      }

      .cls-10, .cls-9 {
        stroke-width: 0.75px;
      }

      .cls-11, .cls-12, .cls-13 {
        stroke: #a5d1f2;
      }

      .cls-11 {
        stroke-width: 24px;
      }

      .cls-12 {
        stroke-width: 11px;
      }

      .cls-13 {
        stroke-width: 12px;
      }
    </style>
    <clipPath id="clip-path">
      <rect id="Rectangle_10" data-name="Rectangle 10" class="cls-1" width="720" height="690" transform="translate(410 2586)"/>
    </clipPath>
    <clipPath id="clip-path-2">
      <rect id="Rectangle_23" data-name="Rectangle 23" class="cls-2" width="1301" height="726" transform="translate(-0.124 -0.342)"/>
    </clipPath>
  </defs>
  <g id="img_map-2" data-name="img_map" class="cls-3" transform="translate(-410 -2586)">
    <g id="Group_46" data-name="Group 46" class="cls-4" transform="translate(174.124 2556.342)">
      <path id="바다" class="cls-5" d="M-13.953,219,183.984,494.227l52.783,242.237s-58.439,22.622-61.266,21.679-165.89-3.77-165.89-3.77S-46,721.383-46,713.843-13.953,219-13.953,219Z" transform="translate(2.668 -12.079)"/>
      <path id="땅" class="cls-6" d="M1300.73,0V724.827H98.969l-2.828-39.116,5.027-6.519,2.513-23.367,11.939-29.593L99.911,621.8l-14.57,28.89-11.193,2.5-3.77-20.109,4.4-3.143-4.4-8.168,11.939-6.285,9.426-1.885-8.8-14.452L73.52,581.558l2.514-11.939,16.337-13.2,28.277-11.938,26.392-7.54,8.169-5.028-5.027-13.824-13.824-2.834-7.54,13.508-38.959,3.779-4.4-73.52-4.4-35.817L77.918,407.5l22.465-9.747,11.782-9.732v-5.341L83.337,389.9l-17.948-.629-4.123-10.054v-8.8l-23.8-38.96-17-16.966L6.6,291.878V275.227L0,262.962V0H1300.73Z" transform="translate(0.025 0.501)"/>
      <g id="서울" transform="translate(361.968 93.019)">
        <path id="seoul" class="cls-7" d="M446.26,305.372l-7.566,13.2,3.757,20.736-3.777,12.253-23.1,16.023L397.2,390.2v20.736H384L397.2,431.2l27.334,6.834,9.426,17.2h5.655l6.6-14.61,21.679,2.592,9.426,7.894,12.253,20.442-5.655,33.785L466,540.142l15.081,12.216-5.655,16.476L472.6,586.254h44.3l4.713-16.495L556.488,546.9,567.8,563.279l49.956,106.214,15.081,4.566,31.1-30.236,13.667,19.757,42.886-9.463v-7.54l60.323-41.473h10.368L802.5,629.141l20.736-4.948,8.012-20.383,7.069,2.239v53.726L864.7,686.165h35.817l5.655-22.15-4.713-6.833,16.023-3.417L935.4,636.5l19.794-18.056,18.851-5.729,4.242,5.619,5.184-5.692v-3.77l40.058-26.392,9.19-17.909,15.788-18.851V528.758l-11.311-5.656-20.736-5.655V505.194l19.322-33.932,16.259-27.334,3.888-11.311,33.107-3.77V413.766l-8.954-52.783,2.121-6.6-46.538,21.521-26.92,3.874-35.987,22.832-18.64-2.985,5.722-26.392-4.68-14.138,17.925-23.564,5.665-17.909,4.72-16.966-4.713-5.184,1.885-15.552H956.133V258.244l12.725-12.253,2.121-8.483L967.8,224.783l-4.124-3.3H941.052l-.943-21.208,3.77-24.742-4.242-27.923L940.109,131v-4.713H925.971l-6.6-14.138L903.35,117.8H889.211l-8.483,6.127-11.311,4.477-.943-13.785-37.7-1.237-2.828-15.228L802.5,103.738l-3.77,28.24-28.277,9.407,2.828,26.383-25.449,30.157L758.2,238.45l-38.185,13.017-13.656-51.662-16.023-11.311L663.94,209.231,632.416,219.6,621.525,234.68v26.392l-12.253,48.07v25.449l-29.848-8.8-5.734,31.419-43,18.851Z" transform="translate(-384 -98.156)"/>
        <path id="Path_49" data-name="Path 49" class="cls-8" d="M470.953,462.443l9.47-13.432h11.311l13.824,25.92,26.077,9.426,10.447-6.6,7.619-12.882V444.77l6.441-3.77,15.081,2.828,4.4.943,4.085,11.311,7.505,22.935-11.9,11.939-1.571,33.618-8.8,14.138L546.4,540.591l-7.541-7.849-1.571-5.975L522.838,525.2l-14.452,13.511-16.338.314-.943-6.912-5.027-1.257" transform="translate(-388.995 -117.85)"/>
        <path id="Path_50" data-name="Path 50" class="cls-8" d="M583.456,598.316l13.746-.707,8.718-4.948V567.683l-5.655-8.491-5.577-19.628L580,529.667" transform="translate(-395.259 -122.943)"/>
        <line id="Line_8" data-name="Line 8" class="cls-8" y1="17.909" transform="translate(186.155 309.012)"/>
        <path id="Path_51" data-name="Path 51" class="cls-8" d="M607.356,595.989l15.149,6.936,16.426-7.113,9.781-2.386,8.736-8.524v-1.4h42.886l20.065,6.362,4.912,23.8,20.265,8.943,12.976-4.186" transform="translate(-396.83 -126.035)"/>
        <path id="Path_52" data-name="Path 52" class="cls-8" d="M670.743,519.5l-15.081,26.872-2.084,19.784-4.278,6.6-23.8,8.472v24.518l9.947,6.127,19.535,78.335" transform="translate(-397.872 -122.359)"/>
        <path id="Path_53" data-name="Path 53" class="cls-8" d="M750.5,530v29.219l13.431-.008,8.13,11.79-6.068,50.9,11.576,24.507" transform="translate(-405.052 -122.962)"/>
        <path id="Path_54" data-name="Path 54" class="cls-8" d="M822.726,504l11.1,27.339v14.138l10.368,12.245,4.241,28.992L876.71,610.98l7.069,24.963,3.3,8.969,21.95-1.885,9.625-15.081,24.506-.471,5.184,19.794,14.138,10.6" transform="translate(-409.201 -121.469)"/>
        <path id="Path_55" data-name="Path 55" class="cls-8" d="M923.218,501.666l-1.885,43.682,22.621,21.984L978.829,578.8l6.284,11.773,13.2,7.535,6.284,24.521,10.053,11" transform="translate(-414.866 -121.335)"/>
        <path id="Path_56" data-name="Path 56" class="cls-8" d="M1010.167,458.834c.943.313,12.567,8.325,12.567,8.325v10.683l-2.985,13.2,14.767,21.679,16.652,4.713,4.4,3.455" transform="translate(-419.968 -118.874)"/>
        <path id="Path_57" data-name="Path 57" class="cls-8" d="M990,389.971l-18.789-.471-7.54,6.6H942l-9.74,24.263-3.77,27.852-14.495,19.421-4.875,25.027" transform="translate(-414.164 -114.892)"/>
        <path id="Path_58" data-name="Path 58" class="cls-8" d="M988.216,271l-27.492,2.811-26.392,14.779,1.594,17.621,7.517,83.076" transform="translate(-415.612 -108.085)"/>
        <path id="Path_59" data-name="Path 59" class="cls-8" d="M929.258,308.375,894.324,319.45,877.968,340.7l-24.507,15.709L842.778,376.2l2.514,11.933-2.514,24.828-20.052,28.9,6.856,32.047" transform="translate(-409.201 -110.232)"/>
        <path id="Path_60" data-name="Path 60" class="cls-8" d="M706.288,480.092l23.921-29.847,4.084-12.253-1.257-12.568-7.246-9.451" transform="translate(-402.513 -116.412)"/>
        <path id="Path_61" data-name="Path 61" class="cls-8" d="M601.333,343l76.033,69.74,36.9,3.152,21.857-16.338,9.112-4.713s17.28-9.112,18.222-8.012,10.054,6.6,10.054,6.6l59.067-3.305,10.682,6.6,7.855-6.6,22.935,1.264,2.514,11,19.75,7.227,18.265,8.081" transform="translate(-396.484 -112.221)"/>
        <path id="Path_62" data-name="Path 62" class="cls-8" d="M817.9,450.685l-13.095-6.7H787.841l-11.1-8.483H736" transform="translate(-404.22 -117.534)"/>
        <path id="Path_63" data-name="Path 63" class="cls-8" d="M631.951,367.185,640.377,347l30.736-3.456,8.326-15.395s8.8-3.456,9.74-3.456,10.053-16.613,10.053-16.613l16.076-4.851" transform="translate(-398.243 -109.936)"/>
        <path id="Path_64" data-name="Path 64" class="cls-8" d="M734.464,241.537l-15.255,21.88,1.53,49.916,10.055,10.329V346.6l-5.675,24.193,2.062,8.169,17.838,13.665" transform="translate(-403.255 -106.392)"/>
        <path id="Path_65" data-name="Path 65" class="cls-8" d="M769.317,250.983l6.927,21.683,6.912,22.619L770.9,315.407l.629,10.368,22.935,6.323,16.338,13.156,9.009,20.108,22.493,2.728" transform="translate(-406.133 -106.935)"/>
        <path id="Path_66" data-name="Path 66" class="cls-8" d="M776.157,228.072l18.467,9.161,28.552,22.17,7.758,27.511h40.272l20.109-29.808" transform="translate(-406.526 -105.619)"/>
        <path id="Path_67" data-name="Path 67" class="cls-8" d="M825.184,126.667l-2.458,46.185L838.694,191.7l14.138,1.885,59.067,81.06,18.472,4.284" transform="translate(-409.201 -99.794)"/>
        <path id="Path_68" data-name="Path 68" class="cls-8" d="M904.26,127.666l-6.6,17.595,10.682,21.05-4.084,45.243-4.4,22.621L886.635,235" transform="translate(-412.872 -99.851)"/>
      </g>
      <g id="경기도_구역" data-name="경기도 구역" transform="translate(6.623 -16.465)">
        <path id="Path_69" data-name="Path 69" class="cls-8" d="M7,305.664l5.38,2.358,23.368,20.343,10.6-13.2L65.91,325.3l1.885,14.61,39.823-26.392,18.616,3.535,14.236-31.811,6.942-20.736,16.76-8.248L178.224,240l20.74,6.912,49.567,38.8,20.029,30.162,44.3,29.691,16.966-2.356,8.247,24.506H345.7l15.466-11.232,7.776-6.873,41.873,14.2" transform="translate(-7 3.18)"/>
        <path id="Path_70" data-name="Path 70" class="cls-9" d="M1064.086,608.909l72.5,6.212,23.564,48.777L1121.5,758.862" transform="translate(-67.721 -18.011)"/>
        <path id="Path_71" data-name="Path 71" class="cls-9" d="M1125,768" transform="translate(-71.22 -27.149)"/>
        <path id="Path_72" data-name="Path 72" class="cls-9" d="M540.56,761.686l-16.966-33.932-17.909-83.9-21.574-2.185" transform="translate(-34.406 -19.893)"/>
        <line id="Line_9" data-name="Line 9" class="cls-10" x1="47.599" y2="60.059" transform="translate(541.5 680.792)"/>
        <path id="Path_73" data-name="Path 73" class="cls-9" d="M741.5,688l4.8,53.49L763.518,763.4" transform="translate(-49.191 -22.554)"/>
        <path id="Path_74" data-name="Path 74" class="cls-9" d="M883.208,715.3l-1.1,27.76L832.757,751.1l-24.879,14.812" transform="translate(-53.004 -24.122)"/>
        <line id="Line_10" data-name="Line 10" class="cls-9" x1="8.135" y1="22.857" transform="translate(829.107 718.936)"/>
        <path id="Path_75" data-name="Path 75" class="cls-8" d="M1117.291,354.757l-44.3-75.835V235.564L1064.036,212,999,227.552" transform="translate(-63.983 4.788)"/>
        <path id="Path_76" data-name="Path 76" class="cls-8" d="M1309.4,524.833l-34.1,6.749v37.709l-25.214,28.748-103.564-10.132-5.714,22.386" transform="translate(-72.128 -13.181)"/>
        <path id="Path_77" data-name="Path 77" class="cls-9" d="M1034.945-18l-22.621,65.979L952,105" transform="translate(-61.283 18)"/>
        <line id="Line_11" data-name="Line 11" class="cls-9" x2="9.426" y2="110.346" transform="translate(764.414 4.713)"/>
        <path id="Path_78" data-name="Path 78" class="cls-9" d="M226,91.756,340.992,71.83l59.682-29.657L427.707-.747,456.882,27.53,526.676,5.851l41.473,19.794,40.484-5.655,4.1-32.99" transform="translate(-19.58 17.713)"/>
        <path id="Path_79" data-name="Path 79" class="cls-8" d="M676.007.215l-4.44,11.209L640.86,135.477l61.655,4.262L716.533,98.51h34.738L785.2,135.757" transform="translate(-43.41 16.954)"/>
        <path id="Path_80" data-name="Path 80" class="cls-8" d="M367.605,749.344l9.8-16.023,15.788-4.713V689.963l20.029-16.024-6.179-44.3-39.5-7.541-7.518-17.908-21.044-9.44,7.548-58.424,29.694-9.432,13.51-83.677" transform="translate(-26.07 -8.493)"/>
        <path id="Path_81" data-name="Path 81" class="cls-9" d="M411.25,638.828l68.676,1.335,14.9-24.663" transform="translate(-30.221 -18.39)"/>
      </g>
      <g id="한강" transform="translate(202.289 -5.154)">
        <path id="han-river" class="cls-11" d="M225.345-6s2.828,30.162,0,45.243-9.426,66.922-8.483,73.52-8.261,23.564,4.824,36.76,66.81,48.07,79.064,57.5S448.731,303.63,466.64,321.539,600.011,421.921,613.207,432.29c3.624,2.2,62.368,21.517,73.991,41,4.242,8.483,49.956,49.484,95.2,7.54,31.1-35.817,41-39.116,57.967-34.875s49.956,30.633,72.106,30.633c0,0,33.932,2.828,62.68-67.393,15.081-32.047,15.71-38.488,33.461-40.53,19.286-2.219,13.667,2.828,37.231-11.782s55.611-33.461,78.7-6.6,28.748,55.611,73.048,84.359,63.623,35.346,69.749,73.991c1.414,17.437,31.576,2.828,28.748-24.978-1.414-21.679,11.311-23.093,29.691-36.289" transform="translate(-214.59 6)"/>
        <path id="Path_82" data-name="Path 82" class="cls-12" d="M720,511.082s-20.392,2.357-34.624,2.2-18-5.038-23.658-11.316-6.912-24.973-7.383-33.3" transform="translate(-239.85 -21.266)"/>
        <path id="Path_83" data-name="Path 83" class="cls-13" d="M1389.239,409.167l-28.512,53.1-4.477,37.844" transform="translate(-280.169 -17.848)"/>
        <path id="Path_84" data-name="Path 84" class="cls-5" d="M1376.652,705.107c-24.932-20.4-42.189-42.373-47.513-65.312-4.882-21.028.588-35.071,1.734-37.672,1.5-3.409,1.76-15.5-4.412-23.13-10.5-12.978-.961-34.775,3.535-41.119l8.641,6.087h0l4.9,3.466c-5.794,8.22-10.6,11.419-6.429,22.049,3.881,9.832,7.808,18.315,3.41,34.181-.109.4-14.768,49.154,40.2,94.131Z" transform="translate(-278.185 -25.241)"/>
      </g>
    </g>
  </g>
</svg>
