<svg id="img_map" xmlns="http://www.w3.org/2000/svg" width="720" height="690" viewBox="0 0 720 690">
    <defs>
        <clipPath id="clip-path">
            <path id="Rectangle_10" data-name="Rectangle 10" transform="translate(410 2586)" style="fill:#d1d1d1;stroke:#707070" d="M0 0h720v690H0z"/>
        </clipPath>
        <clipPath id="clip-path-2">
            <path id="Rectangle_57" data-name="Rectangle 57" class="cls-2" d="M0 0h874v755.989H0z"/>
        </clipPath>
        <style>
            .cls-2,.cls-8,.cls-9{fill:none}.cls-5{fill:#a5d1f2}.cls-8,.cls-9{stroke-miterlimit:10;stroke:#666}.cls-9{stroke-width:.75px}
        </style>
    </defs>
    <g id="img_map-2" data-name="img_map" transform="translate(-410 -2586)" style="clip-path:url(#clip-path)">
        <g id="Group_921" data-name="Group 921" transform="translate(377.054 2561.5)">
            <g id="Group_920" data-name="Group 920" style="clip-path:url(#clip-path-2)">
                <g id="Group_919" data-name="Group 919" transform="translate(-29.133 -39.689)">
                    <path id="바다" class="cls-5" d="m-24.467 410 163.189 111.607 120.334 372.26L144 944.956s-39.267 15.2-41.167 14.567-111.466-2.534-111.466-2.534S-46 934.822-46 929.756-24.467 410-24.467 410z" transform="translate(46 -110.644)"/>
                    <path id="땅" d="m133 788.289 69.033-45.6L87.4 680.622l-33.567 31.667-19.633-5.067 20.9-109.778 9.5-15.728 3.378-4.381 1.689-15.7 8.022-19.884-9.078 5.872-2.744 19.389-10.344.666 2.155-6.948.422-12.244-13.133 18.525-6.756-4.611 9.078-23.644 8.022-4.223 6.333-1.267-5.911-9.711-6.333-11.822 1.689-8.022 10.978-8.867 19-8.022 17.733-5.066 5.489-3.378-3.378-9.288-9.289-1.9-5.067 9.076-26.177 2.534-2.955-49.4 13.089-14.778-2.112-10.556 15.095-6.549 7.917-6.539-3.1-5.629L56 382.955l-12.06-.422-2.771-6.756v-5.91l-15.995-26.179-11.426-11.4-9.315-15.2V305.9L0 297.659V0h874v755.989l-735.863 35.537z" transform="translate(29.133 39.689)" style="fill:#fcf8e3"/>
                    <g id="서울" transform="translate(272.333 222.821)">
                        <path id="seoul" d="m425.835 428.391-5.084 8.867 2.525 13.933-2.538 8.233-15.519 10.767-12.352 15.2v13.933H384l8.867 13.617 18.367 4.592 6.333 11.558h3.8l4.433-9.817 14.567 1.742 6.333 5.3 8.233 13.735-3.8 22.7L439.1 586.14l10.133 8.209-3.8 11.071-1.9 11.7H473.3l3.167-11.083 23.433-15.355 7.6 11 33.567 71.369 10.133 3.068 20.9-20.316 9.183 13.275 28.817-6.358v-5.067l40.533-27.867h6.967l7.6 16.15 13.933-3.325 5.383-13.7 4.75 1.5v36.1L707 684.257h24.067l3.8-14.883-3.167-4.592 10.767-2.3 12.033-11.6 13.3-12.132 12.667-3.849 2.85 3.775 3.483-3.825v-2.533l26.917-17.733 6.175-12.033 10.608-12.661v-11.4l-7.6-3.8-13.933-3.8v-8.233l12.983-22.8 10.925-18.367 2.612-7.6 22.246-2.533v-10.134l-6.017-35.467 1.425-4.433-31.27 14.461-18.088 2.6L779.6 493.73l-12.525-2.006 3.845-17.733-3.144-9.5 12.045-15.833 3.806-12.033 3.172-11.4-3.167-3.483 1.267-10.45h-16.466v-14.568l8.55-8.233 1.425-5.7-2.138-8.55-2.771-2.217H758.3l-.633-14.25 2.533-16.625-2.85-18.763.317-11.163v-3.167h-9.5l-4.433-9.5-10.767 3.8h-9.5l-5.7 4.117-7.6 3.008-.633-9.262-25.333-.831-1.9-10.232-17.1 3.75-2.533 18.975-19 6.321 1.9 17.727-17.1 20.264 6.967 27.23-25.657 8.747-9.178-34.713-10.767-7.6-17.733 13.934-21.182 6.967-7.318 10.133v17.733l-8.233 32.3v17.1l-20.055-5.911-3.853 21.111-28.9 12.667z" transform="translate(-384 -289.156)" style="stroke-miterlimit:10;fill:#fff;stroke:#4c4c4c;stroke-width:2px"/>
                        <path id="Path_939" data-name="Path 939" class="cls-8" d="m470.953 646.408 6.363-9.025h7.6l9.289 17.417 17.522 6.333 7.02-4.433 5.119-8.656v-13.511l4.328-2.533 10.133 1.9 2.956.633 2.745 7.6 5.043 15.411-8 8.022-1.056 22.589-5.911 9.5-12.456 1.262-5.067-5.274-1.055-4.015-9.711-1.051-9.711 9.078-10.978.211-.633-4.644-3.378-.845" transform="translate(-415.883 -414.866)"/>
                        <path id="Path_940" data-name="Path 940" class="cls-8" d="m582.322 766.795 9.236-.475 5.858-3.325v-16.784l-3.8-5.706-3.747-13.189-9.869-6.649" transform="translate(-455.867 -447.377)"/>
                        <path id="Line_15" data-name="Line 15" class="cls-8" transform="translate(125.083 207.634)" d="M0 12.033V0"/>
                        <path id="Path_941" data-name="Path 941" class="cls-8" d="m607.356 782.892 10.179 4.661 11.037-4.78 6.572-1.6 5.87-5.727v-.946h28.817l13.482 4.275 3.3 15.992 13.617 6.009 8.719-2.813" transform="translate(-465.897 -467.116)"/>
                        <path id="Path_942" data-name="Path 942" class="cls-8" d="m655.9 710.5-10.133 18.056-1.4 13.294-2.874 4.433-15.993 5.693v16.474l6.684 4.117L645.31 825.2" transform="translate(-472.55 -443.649)"/>
                        <path id="Path_943" data-name="Path 943" class="cls-8" d="M750.5 721v19.633l9.025-.005 5.462 7.922-4.077 34.2 7.778 16.467" transform="translate(-518.383 -447.499)"/>
                        <path id="Path_944" data-name="Path 944" class="cls-8" d="m822.727 695 7.457 18.37v9.5l6.967 8.228L840 750.573l19 16.308 4.75 16.773 2.217 6.027 14.749-1.267 6.468-10.133 16.467-.317 3.483 13.3 9.5 7.125" transform="translate(-544.866 -437.964)"/>
                        <path id="Path_945" data-name="Path 945" class="cls-8" d="m922.6 692.666-1.267 29.351 15.2 14.771 23.433 7.706 4.222 7.91 8.867 5.063 4.222 16.477 6.755 7.388" transform="translate(-581.022 -437.11)"/>
                        <path id="Path_946" data-name="Path 946" class="cls-8" d="M1010.167 649.834c.633.21 8.444 5.594 8.444 5.594v7.178l-2.006 8.867 9.922 14.567 11.189 3.167 2.955 2.322" transform="translate(-613.595 -421.405)"/>
                        <path id="Path_947" data-name="Path 947" class="cls-8" d="m963.467 580.817-12.625-.317-5.067 4.433h-14.566l-6.545 16.3-2.533 18.715L912.392 633l-3.276 16.816" transform="translate(-576.543 -395.982)"/>
                        <path id="Path_948" data-name="Path 948" class="cls-8" d="m970.539 462-18.473 1.889-17.733 9.93 1.071 11.84 5.051 55.821" transform="translate(-585.789 -352.534)"/>
                        <path id="Path_949" data-name="Path 949" class="cls-8" d="m894.308 499.375-23.473 7.442-10.991 14.277-16.467 10.555-7.178 13.3 1.689 8.018-1.688 16.682-13.473 19.422 4.607 21.533" transform="translate(-544.866 -366.237)"/>
                        <path id="Path_950" data-name="Path 950" class="cls-8" d="M706.288 650.057 722.361 630l2.744-8.233-.844-8.445-4.869-6.351" transform="translate(-502.172 -405.689)"/>
                        <path id="Path_951" data-name="Path 951" class="cls-8" d="m601.333 534 51.089 46.86 24.791 2.118L691.9 572l6.122-3.167s11.611-6.122 12.244-5.383 6.756 4.433 6.756 4.433l39.689-2.221 7.178 4.438 5.278-4.438 15.411.849 1.689 7.388 13.271 4.856 12.273 5.43" transform="translate(-463.689 -378.932)"/>
                        <path id="Path_952" data-name="Path 952" class="cls-8" d="m791.032 636.7-8.8-4.5h-11.4l-7.462-5.7H736" transform="translate(-513.067 -412.849)"/>
                        <path id="Path_953" data-name="Path 953" class="cls-8" d="m631.951 537.2 5.662-13.563 20.652-2.322 5.594-10.344s5.911-2.322 6.545-2.322 6.755-11.162 6.755-11.162l10.8-3.26" transform="translate(-474.915 -364.349)"/>
                        <path id="Path_954" data-name="Path 954" class="cls-8" d="m729.459 432.537-10.25 14.7 1.028 33.54 6.756 6.94v15.413l-3.813 16.256 1.385 5.489 11.986 9.182" transform="translate(-506.91 -341.729)"/>
                        <path id="Path_955" data-name="Path 955" class="cls-8" d="m769.317 441.983 4.655 14.569 4.644 15.2-8.233 13.521.422 6.967 15.411 4.249 10.978 8.84 6.054 13.511 15.113 1.833" transform="translate(-525.283 -345.193)"/>
                        <path id="Path_956" data-name="Path 956" class="cls-8" d="m776.157 419.072 12.409 6.156 19.185 14.9 5.213 18.485h27.06l13.511-20.029" transform="translate(-527.791 -336.792)"/>
                        <path id="Path_957" data-name="Path 957" class="cls-8" d="m824.378 317.667-1.651 31.033 10.729 12.667 9.5 1.267 39.689 54.466 12.412 2.878" transform="translate(-544.866 -299.61)"/>
                        <path id="Path_958" data-name="Path 958" class="cls-8" d="m898.478 318.667-4.433 11.822 7.178 14.144-2.744 30.4-2.956 15.2-8.887.551" transform="translate(-568.299 -299.977)"/>
                    </g>
                    <g id="경기도_구역" data-name="경기도 구역" transform="translate(33.567 133.422)">
                        <path id="Path_959" data-name="Path 959" class="cls-8" d="m7 475.121 3.615 1.584 15.7 13.669 7.125-8.867 13.142 6.808 1.267 9.817L74.608 480.4l12.508 2.375 9.567-21.375 4.664-13.933 11.261-5.542L122.05 431l13.936 4.645 33.305 26.072 13.458 20.267 29.767 19.95 11.4-1.583 5.542 16.467h5.125l10.392-7.547 5.225-4.618 28.136 9.54" transform="translate(-7 -251.767)"/>
                        <path id="Path_960" data-name="Path 960" class="cls-9" d="M858.135 901.3 830.2 966.956l-36.2 44.122 40.533 5.278 23.6 12.033 24.743 46.233 82.177-40.744 7.757-32.089 67.872-72.741-7.389-56.763-19.528-68.2-48.712-4.174" transform="translate(-295.567 -387.033)"/>
                        <path id="Path_962" data-name="Path 962" class="cls-9" d="m526.305 918.378-15.664-27.867-12.033-56.377-14.5-1.468" transform="translate(-181.941 -399.044)"/>
                        <path id="Line_16" data-name="Line 16" transform="translate(363.85 473.278)" style="stroke-width:.75px;stroke:#666;stroke-miterlimit:10;fill:#fcf8e3" d="M31.983 0 0 40.355"/>
                        <path id="Path_963" data-name="Path 963" class="cls-9" d="m741.5 879 3.225 35.942 11.569 14.725" transform="translate(-276.317 -416.033)"/>
                        <path id="Path_964" data-name="Path 964" class="cls-9" d="m858.494 906.3-.737 18.652-33.162 5.406-16.717 9.953" transform="translate(-300.655 -426.043)"/>
                        <path id="Line_17" data-name="Line 17" class="cls-9" transform="translate(557.102 498.908)" d="M5.466 15.358 0 0"/>
                        <path id="Path_965" data-name="Path 965" class="cls-8" d="m1078.483 498.922-29.767-50.956v-29.133L1042.7 403 999 413.45" transform="translate(-370.733 -241.5)"/>
                        <path id="Path_966" data-name="Path 966" class="cls-8" d="m1254.091 715.833-22.91 4.535v25.338l-16.942 19.317-69.587-6.808-3.84 15.042" transform="translate(-422.731 -356.205)"/>
                        <path id="Path_967" data-name="Path 967" class="cls-9" d="m952 246.483 40.533-38.317 15.2-44.333L1105.056 148l139.333 108.089-14.2 178.284" transform="translate(-353.5 -148)"/>
                        <path id="Path_968" data-name="Path 968" class="cls-9" d="M824.333 244.078 818 169.933l18.212 8.233 25.257-3.8 14.587 17.1L919.967 156l26.177 6.756 12.456 4.011" transform="translate(-304.367 -150.933)"/>
                        <path id="Path_969" data-name="Path 969" class="cls-9" d="M226 248.389 303.267 235l40.1-19.928 18.164-28.839 19.6 19 46.9-14.567 27.867 13.3 27.2-3.8L513.036 178" transform="translate(-87.3 -159)"/>
                        <path id="Path_970" data-name="Path 970" class="cls-8" d="m664.476 191.215-2.984 7.532L640.86 282.1l41.428 2.864 9.419-27.7h23.342l22.8 25.028" transform="translate(-239.415 -163.845)"/>
                        <path id="Path_971" data-name="Path 971" class="cls-8" d="m358.216 839.913 6.587-10.767 10.608-3.167v-25.966l13.458-10.767-4.152-29.767-26.541-5.067-5.052-12.033-14.14-6.343 5.072-39.257 19.952-6.338 9.078-56.225" transform="translate(-128.728 -326.279)"/>
                        <path id="Path_972" data-name="Path 972" class="cls-9" d="m411.25 822.175 46.145.9 10.011-16.575" transform="translate(-155.225 -389.45)"/>
                    </g>
                    <g id="한강" transform="translate(147.567 32.089)">
                        <path id="han-river" d="M187-12s26.6 145.033 24.7 155.167-6.333 44.967-5.7 49.4-5.551 15.833 3.241 24.7 44.892 32.3 53.125 38.633 99.433 64.917 111.467 76.95 89.617 67.45 98.483 74.417c2.435 1.479 41.907 14.458 49.717 27.55 2.85 5.7 33.567 33.25 63.967 5.067 20.9-24.067 27.55-26.283 38.95-23.433s33.567 20.583 48.45 20.583c0 0 22.8 1.9 42.117-45.283 10.133-21.533 10.556-25.861 22.483-27.233 12.959-1.491 9.183 1.9 25.017-7.917s37.367-22.483 52.883-4.433 19.317 37.367 49.083 56.683 42.75 23.75 46.867 49.717c.95 11.717 21.217 1.9 19.317-16.783-.95-14.567 7.6-15.517 19.95-24.383" transform="translate(-187 12)" style="stroke-width:24px;stroke:#a5d1f2;stroke-miterlimit:10;fill:none"/>
                        <path id="Path_973" data-name="Path 973" d="M698.455 688.167a230.64 230.64 0 0 1-23.265 1.478c-9.563-.106-12.1-3.385-15.9-7.6s-4.644-16.78-4.961-22.374" transform="translate(-358.355 -234.278)" style="stroke-width:11px;stroke:#a5d1f2;stroke-miterlimit:10;fill:none"/>
                        <path id="Path_974" data-name="Path 974" d="m1378.417 600.167-19.158 35.678-3.008 25.429" transform="translate(-615.725 -212.461)" style="stroke-width:12px;stroke:#a5d1f2;stroke-miterlimit:10;fill:none"/>
                        <path id="Path_975" data-name="Path 975" class="cls-5" d="M1358.627 841.244c-16.752-13.707-28.348-28.471-31.926-43.885-3.28-14.13.4-23.565 1.165-25.313 1.009-2.291 1.183-10.417-2.965-15.541-7.058-8.72-.645-23.366 2.375-27.629l5.806 4.09 3.3 2.329c-3.893 5.523-7.122 7.673-4.32 14.816 2.608 6.606 5.247 12.306 2.292 22.967-.073.266-9.923 33.028 27.014 63.249z" transform="translate(-603.06 -259.654)"/>
                    </g>
                    <path id="Rectangle_56" data-name="Rectangle 56" class="cls-2" transform="translate(29.133 160.656)" d="M0 0h874v486.4H0z"/>
                    <path id="Path_976" data-name="Path 976" class="cls-8" d="M753.192 959.633 725.947 959l-37.1 25.967-30.118 66.711 4.6 22.8 32.572 37.156 46.7-8.444 1.8-33.778" transform="translate(-212.402 -311.944)"/>
                    <path id="Line_18" data-name="Line 18" class="cls-8" transform="translate(530.201 791.244)" d="m0 0 1.799 43.911"/>
                    <path id="Path_978" data-name="Path 978" class="cls-8" d="m568.85 959-19.485 5.7 11.569 54.889L547 1071.1h34.411l27.123-28.711 9.23 9.289" transform="translate(-171.433 -311.944)"/>
                    <path id="Line_19" data-name="Line 19" class="cls-8" transform="translate(354.702 759.156)" d="M37.177 0 0 76"/>
                    <path id="Path_979" data-name="Path 979" class="cls-9" d="m315.033 959-62.767 90.989-31.053 10.8" transform="translate(-51.978 -311.944)"/>
                    <path id="Path_980" data-name="Path 980" class="cls-9" d="m274 1102.568 46.753 4.664 19.346-11.907 13.135-22.926 11.807-5.573 33.7-1.424 15.344-6.409 12.764-20.267 29.838-15.154" transform="translate(-71.333 -335.621)"/>
                    <path id="Path_981" data-name="Path 981" class="cls-9" d="m1161.62 70.756-20.808-55.733 16.588-5.912.844-12.667 9.183-19.422-13.307-39.689" transform="translate(-389.165 62.667)"/>
                    <path id="Path_982" data-name="Path 982" class="cls-9" d="M957.855 98.8V63.333l-17.084-24.489L921.333 0" transform="translate(-308.689 39.689)"/>
                    <path id="Path_983" data-name="Path 983" class="cls-9" d="m651.969 121.1 3.706-45.947-6.65-6.756-24.805 10.981-17.47-21.956 10.5-18.578-9.078-27.867L625.467 0" transform="translate(-193.342 39.689)"/>
                </g>
            </g>
        </g>
    </g>
</svg>
