<svg xmlns="http://www.w3.org/2000/svg" xmlns:xlink="http://www.w3.org/1999/xlink" width="720" height="690" viewBox="0 0 720 690">
  <defs>
    <style>
      .cls-1 {
        fill: #d1d1d1;
      }

      .cls-11, .cls-12, .cls-13, .cls-2, .cls-8, .cls-9 {
        fill: none;
      }

      .cls-3 {
        clip-path: url(#clip-path);
      }

      .cls-4 {
        clip-path: url(#clip-path-2);
      }

      .cls-5 {
        fill: #a5d1f2;
      }

      .cls-10, .cls-6 {
        fill: #fcf8e3;
      }

      .cls-14, .cls-7 {
        fill: #fff;
        stroke-width: 2px;
      }

      .cls-7 {
        stroke: #4c4c4c;
      }

      .cls-10, .cls-11, .cls-12, .cls-13, .cls-14, .cls-7, .cls-8, .cls-9 {
        stroke-miterlimit: 10;
      }

      .cls-10, .cls-14, .cls-8, .cls-9 {
        stroke: #666;
      }

      .cls-10, .cls-9 {
        stroke-width: 0.75px;
      }

      .cls-11, .cls-12, .cls-13 {
        stroke: #a5d1f2;
      }

      .cls-11 {
        stroke-width: 24px;
      }

      .cls-12 {
        stroke-width: 11px;
      }

      .cls-13 {
        stroke-width: 12px;
      }
    </style>
    <clipPath id="clip-path">
      <rect id="Rectangle_10" data-name="Rectangle 10" class="cls-1" width="720" height="690" transform="translate(565.643 2627.684)"/>
    </clipPath>
    <clipPath id="clip-path-2">
      <rect id="Rectangle_23" data-name="Rectangle 23" class="cls-2" width="1319" height="734" transform="translate(0.036 0.127)"/>
    </clipPath>
  </defs>
  <g id="img_map" class="cls-3" transform="translate(-565.643 -2627.684)">
    <g id="지도" transform="translate(287.607 2590.557)">
      <g id="Group_46" data-name="Group 46" class="cls-4" transform="translate(0 0)">
        <path id="바다" class="cls-5" d="M-13.542,219,186.931,497.753l53.46,245.341s-59.187,22.911-62.051,21.957-168.016-3.818-168.016-3.818S-46,727.82-46,720.183-13.542,219-13.542,219Z" transform="translate(2.621 -9.117)"/>
        <path id="땅" class="cls-6" d="M1317.395,0V734.114H100.237L97.373,694.5l5.092-6.6,2.546-23.666L117.1,634.255l-15.911-4.484-14.757,29.26L75.1,661.565,71.28,641.2l4.455-3.184-4.455-8.273,12.092-6.365,9.546-1.909-8.91-14.638-9.546-17.82,2.546-12.092,16.547-13.365,28.639-12.091,26.73-7.637,8.274-5.092-5.092-14-14-2.87-7.637,13.681-39.458,3.827-4.455-74.461L82.1,428.631l-3.183-15.912,22.753-9.872,11.933-9.857v-5.409L84.4,394.9l-18.178-.637L62.051,384.08v-8.909L37.946,335.712,20.723,318.529,6.682,295.617V278.753L0,266.331V0H1317.395Z" transform="translate(0.534 0.818)"/>
        <g id="서울" transform="translate(367.114 94.522)">
          <path id="seoul" class="cls-7" d="M447.058,308.027l-7.663,13.365,3.806,21-3.825,12.41-23.392,16.229-18.619,22.911v21H384l13.365,20.525,27.684,6.921,9.546,17.422h5.728l6.682-14.8,21.957,2.625,9.546,8,12.41,20.7-5.728,34.218-18.138,35.247,15.274,12.373L476.6,574.866l-2.864,17.642H518.6l4.773-16.706,35.321-23.15,11.456,16.587,50.6,107.575,15.274,4.624,31.5-30.623,13.842,20.01,43.436-9.584V653.6l61.1-42h10.5l11.456,24.343,21-5.012,8.114-20.644,7.16,2.267v54.414l26.73,26.73h36.276l5.728-22.434-4.773-6.921,16.229-3.461L942.461,643.4l20.047-18.287,19.093-5.8L985.9,625l5.25-5.765v-3.819l40.572-26.73,9.308-18.138,15.99-19.093V534.275l-11.456-5.728-21-5.728v-12.41l19.57-34.367,16.467-27.684,3.938-11.456,33.531-3.819V417.81L1089,364.35l2.148-6.682-47.134,21.8-27.265,3.924L980.3,406.513l-18.879-3.023,5.795-26.73-4.74-14.32,18.155-23.866,5.737-18.138,4.781-17.183L986.374,298l1.909-15.751H963.463V260.295l12.888-12.41,2.148-8.592-3.222-12.888-4.176-3.341H948.189l-.955-21.479,3.819-25.059-4.3-28.281.477-16.825v-4.773H932.915l-6.682-14.32L910,118.054H895.684l-8.592,6.205-11.456,4.534-.955-13.962L836.5,113.58l-2.864-15.423-25.775,5.653-3.819,28.6L775.4,141.939l2.864,26.721L752.489,199.2l10.5,41.045-38.674,13.184-13.831-52.324-16.229-11.456-26.73,21-31.928,10.5-11.03,15.274v26.73l-12.41,48.686V337.62l-30.23-8.91-5.807,31.821-43.555,19.093Z" transform="translate(-384 -98.156)"/>
          <path id="Path_49" data-name="Path 49" class="cls-8" d="M470.953,462.718l9.591-13.6H492l14,26.252,26.411,9.546,10.581-6.682,7.716-13.047V444.819L557.233,441l15.274,2.864,4.455.955,4.137,11.456,7.6,23.229L576.644,491.6l-1.591,34.049-8.91,14.319-18.775,1.9-7.637-7.95-1.591-6.052L523.5,526.28l-14.637,13.684-16.547.318-.955-7-5.091-1.273" transform="translate(-387.945 -113.71)"/>
          <path id="Path_50" data-name="Path 50" class="cls-8" d="M583.5,599.2l13.922-.716,8.83-5.012v-25.3l-5.728-8.6-5.649-19.88L580,529.667" transform="translate(-392.892 -117.732)"/>
          <line id="Line_8" data-name="Line 8" class="cls-8" y1="18.138" transform="translate(188.54 312.971)"/>
          <path id="Path_51" data-name="Path 51" class="cls-8" d="M607.356,596.149l15.343,7.026,16.637-7.2,9.906-2.416,8.848-8.633V583.5h43.436l20.322,6.444,4.975,24.1,20.525,9.058,13.142-4.24" transform="translate(-394.133 -120.174)"/>
          <path id="Path_52" data-name="Path 52" class="cls-8" d="M671.323,519.5l-15.274,27.216-2.111,20.038-4.333,6.682-24.1,8.581v24.832l10.075,6.205,19.785,79.339" transform="translate(-394.956 -117.271)"/>
          <path id="Path_53" data-name="Path 53" class="cls-8" d="M750.5,530v29.594l13.6-.008,8.234,11.941-6.146,51.55L777.916,647.9" transform="translate(-400.626 -117.747)"/>
          <path id="Path_54" data-name="Path 54" class="cls-8" d="M822.726,504l11.239,27.689V546l10.5,12.4,4.3,29.363L877.4,612.351l7.16,25.283,3.341,9.084,22.232-1.909,9.749-15.274,24.821-.477,5.25,20.047,14.32,10.74" transform="translate(-403.903 -116.567)"/>
          <path id="Path_55" data-name="Path 55" class="cls-8" d="M923.242,501.666l-1.909,44.241,22.911,22.265,35.321,11.615,6.365,11.924,13.365,7.632,6.365,24.835,10.182,11.137" transform="translate(-408.377 -116.462)"/>
          <path id="Path_56" data-name="Path 56" class="cls-8" d="M1010.167,458.834c.955.317,12.728,8.431,12.728,8.431v10.82l-3.023,13.365,14.956,21.957,16.866,4.773,4.454,3.5" transform="translate(-412.407 -114.519)"/>
          <path id="Path_57" data-name="Path 57" class="cls-8" d="M991.04,389.977l-19.029-.477-7.637,6.682H942.417l-9.865,24.574-3.819,28.209-14.68,19.67-4.937,25.347" transform="translate(-407.822 -111.373)"/>
          <path id="Path_58" data-name="Path 58" class="cls-8" d="M988.906,271l-27.844,2.847-26.73,14.968,1.615,17.847,7.614,84.14" transform="translate(-408.966 -105.998)"/>
          <path id="Path_59" data-name="Path 59" class="cls-8" d="M930.622,308.375l-35.381,11.217-16.566,21.519-24.82,15.91-10.82,20.047,2.546,12.085L843.035,414.3l-20.308,29.275,6.944,32.458" transform="translate(-403.903 -107.693)"/>
          <path id="Path_60" data-name="Path 60" class="cls-8" d="M706.288,480.914l24.228-30.229,4.137-12.41-1.273-12.729-7.339-9.572" transform="translate(-398.621 -112.574)"/>
          <path id="Path_61" data-name="Path 61" class="cls-8" d="M601.333,343l77.007,70.633,37.368,3.192,22.137-16.548,9.228-4.773s17.5-9.228,18.456-8.114,10.183,6.682,10.183,6.682l59.824-3.348,10.819,6.689,7.956-6.689,23.229,1.28,2.546,11.137,20,7.319,18.5,8.185" transform="translate(-393.859 -109.264)"/>
          <path id="Path_62" data-name="Path 62" class="cls-8" d="M818.951,450.88l-13.262-6.788H788.5L777.258,435.5H736" transform="translate(-399.969 -113.46)"/>
          <path id="Path_63" data-name="Path 63" class="cls-8" d="M631.951,368l8.534-20.444,31.13-3.5,8.432-15.592s8.91-3.5,9.865-3.5,10.182-16.825,10.182-16.825l16.282-4.914" transform="translate(-395.248 -107.459)"/>
          <path id="Path_64" data-name="Path 64" class="cls-8" d="M734.659,241.537l-15.45,22.16,1.549,50.556,10.184,10.461v23.229l-5.747,24.5,2.088,8.274,18.066,13.84" transform="translate(-399.207 -104.661)"/>
          <path id="Path_65" data-name="Path 65" class="cls-8" d="M769.317,250.983l7.016,21.961,7,22.908-12.41,20.381.637,10.5,23.229,6.4,16.548,13.325,9.125,20.366,22.781,2.763" transform="translate(-401.48 -105.089)"/>
          <path id="Path_66" data-name="Path 66" class="cls-8" d="M776.157,228.072l18.7,9.278L823.779,259.8l7.858,27.863h40.788l20.366-30.19" transform="translate(-401.791 -104.05)"/>
          <path id="Path_67" data-name="Path 67" class="cls-8" d="M825.216,126.666l-2.489,46.777L838.9,192.536l14.319,1.909,59.824,82.1,18.709,4.339" transform="translate(-403.903 -99.45)"/>
          <path id="Path_68" data-name="Path 68" class="cls-8" d="M904.486,127.666l-6.682,17.82,10.819,21.32-4.136,45.822L900.03,235.54l-13.4.831" transform="translate(-406.802 -99.495)"/>
        </g>
        <g id="경기도_구역" data-name="경기도 구역" transform="translate(7.217 -16.365)">
          <path id="Path_69" data-name="Path 69" class="cls-8" d="M7,306.505l5.449,2.388,23.667,20.6,10.74-13.365,19.809,10.262,1.909,14.8,40.333-26.73,18.854,3.58,14.419-32.219,7.031-21,16.975-8.353L180.418,240l21.006,7,50.2,39.3,20.286,30.548,44.868,30.071,17.183-2.387,8.353,24.82h7.725L365.7,357.977l7.876-6.961,42.409,14.38" transform="translate(-7 6.296)"/>
          <path id="Path_70" data-name="Path 70" class="cls-9" d="M1064.086,608.909l73.425,6.292,23.866,49.4-39.14,96.179" transform="translate(-54.955 -10.44)"/>
          <path id="Path_71" data-name="Path 71" class="cls-9" d="M1125,768" transform="translate(-57.719 -17.657)"/>
          <path id="Path_72" data-name="Path 72" class="cls-9" d="M541.283,763.223,524.1,728.856l-18.138-84.977-21.851-2.213" transform="translate(-28.645 -11.926)"/>
          <line id="Line_9" data-name="Line 9" class="cls-10" x1="48.209" y2="60.828" transform="translate(548.437 689.515)"/>
          <path id="Path_73" data-name="Path 73" class="cls-9" d="M741.5,688l4.861,54.176,17.439,22.2" transform="translate(-40.321 -14.028)"/>
          <path id="Path_74" data-name="Path 74" class="cls-9" d="M884.173,715.3l-1.111,28.115-49.986,8.148-25.2,15" transform="translate(-43.332 -15.267)"/>
          <line id="Line_10" data-name="Line 10" class="cls-9" x1="8.239" y1="23.15" transform="translate(839.729 728.147)"/>
          <path id="Path_75" data-name="Path 75" class="cls-8" d="M1118.807,356.586l-44.868-76.807V235.866L1064.87,212,999,227.751" transform="translate(-52.003 7.566)"/>
          <path id="Path_76" data-name="Path 76" class="cls-8" d="M1311.559,524.833l-34.532,6.835V569.86l-25.536,29.116L1146.6,588.714l-5.787,22.673" transform="translate(-58.436 -6.626)"/>
          <path id="Path_77" data-name="Path 77" class="cls-9" d="M1036.008-18,1013.1,48.824,952,106.58" transform="translate(-49.871 18)"/>
          <line id="Line_11" data-name="Line 11" class="cls-9" x2="9.546" y2="111.759" transform="translate(774.208 4.773)"/>
          <path id="Path_78" data-name="Path 78" class="cls-9" d="M226,93.1,342.465,72.917,402.912,42.88,430.292-.59l29.549,28.639L530.528,6.093l42,20.047,41-5.728L617.69-13" transform="translate(-16.935 17.773)"/>
          <path id="Path_79" data-name="Path 79" class="cls-8" d="M676.457.215l-4.5,11.353L640.86,137.21l62.445,4.316,14.2-41.757h35.183l34.367,37.725" transform="translate(-35.756 17.174)"/>
          <path id="Path_80" data-name="Path 80" class="cls-8" d="M367.972,753.266l9.929-16.229,15.99-4.773v-39.14L414.177,676.9l-6.258-44.868-40.006-7.637L360.3,606.252l-21.313-9.561,7.644-59.172,30.075-9.553,13.683-84.749" transform="translate(-22.061 -2.923)"/>
          <path id="Path_81" data-name="Path 81" class="cls-9" d="M411.25,639.127l69.555,1.352L495.895,615.5" transform="translate(-25.339 -10.739)"/>
        </g>
        <g id="한강" transform="translate(205.389 -4.909)">
          <path id="han-river" class="cls-11" d="M225.482-6s2.864,30.548,0,45.822-9.546,67.779-8.592,74.461-8.366,23.866,4.886,37.231,67.666,48.686,80.077,58.233S451.731,307.6,469.869,325.735,604.949,427.4,618.314,437.9c3.671,2.229,63.167,21.792,74.939,41.527,4.3,8.592,50.6,50.118,96.418,7.637,31.5-36.276,41.527-39.617,58.71-35.321s50.6,31.026,73.029,31.026c0,0,34.367,2.864,63.483-68.256,15.274-32.458,15.911-38.981,33.889-41.049,19.534-2.247,13.842,2.864,37.708-11.933s56.323-33.889,79.712-6.682,29.116,56.323,73.984,85.44,64.438,35.8,70.643,74.939c1.432,17.661,31.98,2.864,29.116-25.3-1.432-21.957,11.455-23.389,30.071-36.753" transform="translate(-214.59 6)"/>
          <path id="Path_82" data-name="Path 82" class="cls-12" d="M720.84,511.625s-20.654,2.388-35.068,2.228-18.233-5.1-23.961-11.461-7-25.293-7.478-33.725" transform="translate(-234.539 -15.534)"/>
          <path id="Path_83" data-name="Path 83" class="cls-13" d="M1389.662,409.167l-28.878,53.777-4.534,38.329" transform="translate(-266.382 -12.834)"/>
          <path id="Path_84" data-name="Path 84" class="cls-5" d="M1377.356,707.25c-25.251-20.661-42.729-42.916-48.122-66.148-4.944-21.3.6-35.52,1.757-38.155,1.521-3.453,1.783-15.7-4.469-23.426-10.639-13.144-.973-35.22,3.58-41.646l8.751,6.165h0l4.967,3.51c-5.868,8.325-10.735,11.565-6.511,22.332,3.931,9.958,7.908,18.549,3.454,34.619-.111.4-14.957,49.783,40.718,95.336Z" transform="translate(-264.815 -18.673)"/>
        </g>
      </g>
    </g>
    <g id="Group_47" data-name="Group 47" transform="translate(285.349 2584.82)">
      <rect id="Rectangle_27" data-name="Rectangle 27" class="cls-5" width="1347.8" height="750.08" transform="translate(0.164)"/>
      <path id="Path_93" data-name="Path 93" class="cls-6" d="M-.168,502.007l10.825-9.767,7.853,9.767,4.925,13.345v14L70.316,547.9,47.853,565.49l4.883,23.44,23.44-9.767,12.7,3.907-29.3,27.335,43.95-5.545,46.88-26.674-13.673-6.848-34.183,13.685-.977-13.685,29.3-15.615-8.79-9.463-14.65-19.837L91.8,485.4l-9.767-26.37,1.953-32.23-32.23-35.16-2.93-22.463,26.37-29.3h31.253L90.826,393.6l19.533,23.44,3.907,36.137,13.673,8.79,8.79-18.557h31.253v15.627l26.37,27.347h11.72l-6.837-35.16,30.277-4.883s-.977,13.673,0,16.6,15.627,41.02,15.627,41.02l-18.557,16.6,8.79,8.79,27.347-14V536.19l27.347,10.07,34.183,23.44,6.837,21.183,14.65-36.137,16.6,8.79,66.088,4.4,5.7-10.092L570.37,431.2,857.021,255.562,1021.916,125.99h85.62l15.3-22.138,12.372-7.162,10.418-13.673,14.975,3.255,19.533,1.3,7.813-9.767L1156.7,47.857l-3.255-21.487,15.627-13.022L1184.694,0H1.949Z" transform="translate(0.168)"/>
      <path id="Path_94" data-name="Path 94" class="cls-8" d="M0,28.256H97.667L274.443,71.962l67.39,23.318,40.043-44.011,82.04-33.237L492.24,56.594l127.7,65.917L688.062,214.3v9.778" transform="translate(0.164 -0.421)"/>
      <path id="Path_95" data-name="Path 95" class="cls-8" d="M377.409,433.545,262.04,396.432l17.58-55.67-48.833-25.393-7.813-49.81L180,155.195l41.02-32.7s17.58,3.4,23.44,5.356,52.223-48.207,52.223-48.207" transform="translate(-4.036 -1.858)"/>
      <line id="Line_12" data-name="Line 12" class="cls-8" y1="17.611" x2="19.533" transform="translate(464.081)"/>
      <g id="부산" transform="translate(369.71 26.37)">
        <path id="Path_96" data-name="Path 96" class="cls-14" d="M1104.649,142.247v-23.44l-32.718-9.278,7.325-16.6-3.968-24.905-22.433-33.207-23.913-2.442-43.454,11.72L956.68,27l-7.323,11.72L957.66,48,946.429,75.345l-18.068,16.6-28.812-16.6L846.32,61.672l13.673,17.58,5.372,13.673-12.7,23.44-18.557,33.7-4.883,21.487-33.7,6.348-17.092,14.162L759.885,190.1l-19.045,35.16H694.449L667.1,296.316l-71.785,10.133L558.2,326.9l-10.255-13.215-6.348,5.845,5.372,7.317L512.3,330.259l-20.51,21.3L504,406.436l-7.813-6.838-1.953,6.837,8.79,16.6-7.813,18.068-10.255-13.185,6.348-2.442,2.442-6.348-3.907-6.357L474.7,411.134l-20.51,6.532v11.72l-38.822-5.86-36.991,4.395,16.176,32.718,30.307,18.068,16.13,2.93,1.961,11.72,6.84,11.72,1.955,11.392-16.113,9.606H421.959l-.977,8.058L441,551.348l5.86,7.935h41.508l18.068,6.1,8.3-21.12,4.4-32.779,11.72-19.075,10.743,6.333L525.974,566.12h25.882l2.442-17.344,12.7-10.369L579.2,511l10.255,2.715-8.79,39.724,11.72-4.735,9.767-32.393h10.255l.977,21.731-8.79,23.318,10.255,54.632,14.65,7.295,11.72-3.922,2.442-16.123,14.65-3.666,6.348,27.1h10.255l1.465-7.569-7.325-25.515-3.907-35.709,17.58-3.937,8.3,38.563,1.465,21.967,5.372-8.978,6.348-23.9L700.8,571h8.3l1.953-31.986,17.58-4.029,2.93-16.176L750.607,484.6l18.557-2.945,8.3,13.177-7.325,18.857,31.253,9.949,2.93-9.952,5.372,2.3,3.418,25.721L834.6,525.1l15.627,3.907,4.4-17.58,1.465-19.533-24.417-24.9L839,443.549l28.323-10.743,13.673-.977,35.649-6.837,13.185,9.278,25.393-18.557,3.907-21.975,23.928-14.65,13.673-17.58,6.348-9.951-13.185-20.326,13.185-16.6,8.3,6.348,22.463-63.972-25.882-1.465-.488-7.813,18.068-19.533,7.325.977,11.72-42-.488-17.909,9.278-24.088,21.487-11.232,10.255,13.673,14.406,1.465Z" transform="translate(-378.375 -27)"/>
        <path id="Path_97" data-name="Path 97" class="cls-8" d="M584,517.372l35.486-41.894,18.23-99.62,40.37-22.789L672.9,300.088" transform="translate(-383.173 -33.372)"/>
        <path id="Path_98" data-name="Path 98" class="cls-8" d="M691.9,580.893l16.982-32.207-8.491-47.532-31.878-8.464-48.182-13.023" transform="translate(-384.021 -37.562)"/>
        <path id="Path_99" data-name="Path 99" class="cls-8" d="M737.309,535.624l-14.561-27.313,14.744-16.88-14.653-7.138,10.432-19.521-23.025-9.11L689.5,474.551v22.461" transform="translate(-385.634 -37.002)"/>
        <path id="Path_100" data-name="Path 100" class="cls-8" d="M680.334,354.335l39.717,16.929-3.907,34.51,3.907,29.3L710.033,453.3" transform="translate(-385.421 -34.638)"/>
        <path id="Path_101" data-name="Path 101" class="cls-8" d="M758.143,212.406l-5.89,33.788L765.927,280.7l-4.558,17.339,23.44,18.473-26.7,34.509L721,367.952" transform="translate(-386.37 -31.326)"/>
        <path id="Path_102" data-name="Path 102" class="cls-8" d="M839.788,170.311l42.91,26.068L874.885,236.1l19.533,11.069,14.324,18.882-34.477,43.625L854.7,330.181l-14.912-17.253-33.921-8.465-19.534,11.07" transform="translate(-387.894 -30.344)"/>
        <path id="Path_103" data-name="Path 103" class="cls-8" d="M753.5,356.311l26.127,14.6,29.341-16.746,12.412,8.647h38.089L853.935,334" transform="translate(-387.128 -34.163)"/>
        <path id="Path_104" data-name="Path 104" class="cls-8" d="M911.667,268.335l18.232,4.558,13.022,26.454-5.208,39.308,28.648,2.677,8.465,20.763,24.538,17.654" transform="translate(-390.818 -32.631)"/>
        <path id="Path_105" data-name="Path 105" class="cls-8" d="M892.277,439.68l-6.51-29.471L867.535,390.36,862,363.5" transform="translate(-389.659 -34.851)"/>
        <path id="Path_106" data-name="Path 106" class="cls-8" d="M756.625,358.592l16.644,24.937,15.627.243,17.661,11.712,7.082,19.761,12.371,8.693h11.069l13.467,26.314" transform="translate(-387.201 -34.737)"/>
        <path id="Path_107" data-name="Path 107" class="cls-8" d="M866.373,387.9l-11.991.835-14.406,12.086L839,424.623" transform="translate(-389.123 -35.421)"/>
        <path id="Path_108" data-name="Path 108" class="cls-8" d="M733.227,463.525l13.452-11.832,18.068-4.583,12.453,5.86,4.395-5.86,24.417-12.452L819.2,420.311" transform="translate(-386.655 -36.177)"/>
        <path id="Path_109" data-name="Path 109" class="cls-8" d="M778.5,491.546l3.419-22.234-1.612-18.361" transform="translate(-387.711 -36.892)"/>
        <path id="Path_110" data-name="Path 110" class="cls-14" d="M733,553.72v12.7l14.162,15.931,25.882,17.276,4.4,9.278,36.137,14.15,5.616-10.732-16.157-23.934L791.6,558.908,768.16,542H756.44Z" transform="translate(-386.65 -39.016)"/>
        <path id="Path_111" data-name="Path 111" class="cls-14" d="M436.357,584.949l-40.532,18.568-7.325,20.5,16.6,56.17L427.078,696.3l-4.883,14.65,17.092,15.627,8.79-19.533L438.8,691.417l11.72-25.393,9.767-26.37-2.93-29.788L472,602.541l-21.975-8.79-9.278-10.439Z" transform="translate(-378.611 -39.98)"/>
      </g>
    </g>
  </g>
</svg>
