<svg xmlns="http://www.w3.org/2000/svg" width="128" height="128" viewBox="0 0 128 128">
    <g fill="none" fill-rule="evenodd">
        <g>
            <g>
                <g>
                    <g>
                        <g>
                            <g>
                                <path d="M0 0H128V128H0z" transform="translate(-296 -2324) translate(0 1304) translate(0 64) translate(97 956) translate(199)"/>
                                <g transform="translate(-296 -2324) translate(0 1304) translate(0 64) translate(97 956) translate(199) translate(18 18)">
                                    <g stroke="#000" stroke-width="4">
                                        <path stroke-linejoin="round" d="M70.028 0L80 10 66.074 34.31l-7.279-1.617-7.645 7.728 28.082 28.083c1.33 1.33 1.33 3.486 0 4.815l-7.913 7.913c-1.33 1.33-3.485 1.33-4.815 0L38.492 53.22 17.26 74.69c-3.499 3.538-9.203 3.57-12.741.07l-.113-.113C.855 71.008.887 65.19 4.48 61.593L25.653 40.38l-6.034-6.034c-5.025.951-10.417-.517-14.305-4.406C.042 24.67-.782 16.634 2.842 10.498l7.1 7.101c.611.611 1.576.663 2.246.143l.115-.098 3.32-3.076.04-.039c.633-.626.67-1.627.11-2.299l-.098-.108-7.195-7.27c6.138-3.636 14.184-2.815 19.461 2.462 3.888 3.888 5.357 9.28 4.406 14.303l6.023 6.025L46 20v-7.926L70.028 0z"/>
                                        <path d="M8.48 4.853c6.138-3.637 14.184-2.816 19.461 2.46 3.888 3.889 5.357 9.28 4.406 14.304l46.885 46.887c1.33 1.33 1.33 3.486 0 4.815l-7.913 7.913c-1.33 1.33-3.485 1.33-4.815 0L19.619 34.347c-5.025.951-10.417-.517-14.305-4.406C.042 24.67-.782 16.634 2.842 10.498l7.1 7.101c.611.611 1.576.663 2.246.143l.115-.098 3.32-3.076.04-.039c.633-.626.67-1.627.11-2.299l-.098-.108-7.195-7.27z"/>
                                    </g>
                                    <circle cx="70" cy="70" r="26" fill="#FFF" stroke="#DA0F47" stroke-width="4"/>
                                    <text fill="#DA0F47" font-family="NotoSansCJKkr-Bold, Noto Sans CJK KR" font-size="20" font-weight="bold">
                                        <tspan x="57" y="81">5</tspan>
                                    </text>
                                    <text fill="#DA0F47" font-family="NotoSansCJKkr-Bold, Noto Sans CJK KR" font-size="16" font-weight="bold">
                                        <tspan x="70" y="77.2">년</tspan>
                                    </text>
                                </g>
                            </g>
                        </g>
                    </g>
                </g>
            </g>
        </g>
    </g>
</svg>
