<svg xmlns="http://www.w3.org/2000/svg" width="80" height="80" viewBox="0 0 80 80">
    <g fill="none" fill-rule="evenodd">
        <g>
            <path d="M0 0H80V80H0z"/>
            <g>
                <g fill="#FFF" stroke="#000" stroke-linecap="round" stroke-linejoin="round" stroke-width="2.5" transform="translate(4 10) translate(20)">
                    <path d="M0 31h52v10c0 4.97-11.64 9-26 9S0 45.97 0 41h0V31z"/>
                    <path d="M0 23h52v10c0 4.97-11.64 9-26 9S0 37.97 0 33h0V23z"/>
                    <path d="M0 15h52v10c0 4.97-11.64 9-26 9S0 29.97 0 25h0V15z"/>
                    <path d="M0 10h9.655C14.12 8.75 19.807 8 26 8s11.88.75 16.345 2H52v7c0 4.97-11.64 9-26 9S0 21.97 0 17h0v-7z"/>
                    <ellipse cx="26" cy="9" rx="26" ry="9"/>
                </g>
                <g transform="translate(4 10) translate(0 20)">
                    <circle cx="20" cy="20" r="20" fill="#FFF" stroke="#000" stroke-linecap="round" stroke-linejoin="round" stroke-width="2.5"/>
                    <text fill="#DA0F47" font-family="Roboto-Medium, Roboto" font-size="26" font-weight="400">
                        <tspan x="12" y="31">$</tspan>
                    </text>
                </g>
            </g>
        </g>
    </g>
</svg>
