<svg xmlns="http://www.w3.org/2000/svg" width="128" height="128" viewBox="0 0 128 128">
    <g fill="none" fill-rule="evenodd">
        <g>
            <g>
                <g>
                    <g>
                        <g>
                            <g>
                                <path d="M0 0H128V128H0z" transform="translate(-296 -2910) translate(0 1304) translate(0 64) translate(97 1542) translate(199)"/>
                                <g>
                                    <g stroke="#000" stroke-linecap="round" stroke-width="4" transform="translate(-296 -2910) translate(0 1304) translate(0 64) translate(97 1542) translate(199) translate(20 5) translate(0 19)">
                                        <path d="M13.984 27.043h67.87c3.977 0 7.2 3.223 7.2 7.2v11.17H68.478c-1.988 0-3.6 1.612-3.6 3.6v17.48c0 1.989 1.612 3.6 3.6 3.6h20.816v10.619c0 3.976-3.224 7.2-7.2 7.2H10.8c-5.965 0-10.8-4.835-10.8-10.8V31.177c0-4.579 2.888-8.66 7.206-10.184l12.061-3.59M61.453 2.214l3.786-1.7c4.687-1.654 9.828.805 11.482 5.493.34.962.513 1.974.513 2.994v16.254"/>
                                        <circle cx="78" cy="58" r="4"/>
                                    </g>
                                    <g>
                                        <path stroke="#DA0F47" stroke-linecap="round" stroke-width="4" d="M49.572 45.119c6.444-8.515 5.701-20.784-2.17-28.655-8.592-8.592-22.422-8.691-30.892-.222-7.747 7.747-8.324 19.981-1.957 29.098" transform="translate(-296 -2910) translate(0 1304) translate(0 64) translate(97 1542) translate(199) translate(20 5) translate(10.155 .893)"/>
                                        <text fill="#DA0F47" font-family="NotoSansCJKkr-Bold, Noto Sans CJK KR" font-size="24" font-weight="bold" transform="translate(-296 -2910) translate(0 1304) translate(0 64) translate(97 1542) translate(199) translate(20 5) translate(10.155 .893)">
                                            <tspan x="23.845" y="46.107">P</tspan>
                                        </text>
                                    </g>
                                    <path stroke="#000" stroke-linecap="round" stroke-width="4" d="M13 46L65 46" transform="translate(-296 -2910) translate(0 1304) translate(0 64) translate(97 1542) translate(199) translate(20 5)"/>
                                </g>
                            </g>
                        </g>
                    </g>
                </g>
            </g>
        </g>
    </g>
</svg>
