<svg id="img_membership_as_5y_128" xmlns="http://www.w3.org/2000/svg" width="128" height="128" viewBox="0 0 128 128">
  <rect id="Rectangle" width="128" height="128" fill="none"/>
  <g id="ic" transform="translate(23.372 22.999)">
    <g id="ic-2" data-name="ic">
      <path id="Combined_Shape" data-name="Combined Shape" d="M65.876,81.231,37.866,53.221,16.632,74.69a9.01,9.01,0,0,1-12.775.036l-.079-.079a9.292,9.292,0,0,1,.074-13.054L25.027,40.382l-6.032-6.032a16.216,16.216,0,0,1-3,.278A15.983,15.983,0,0,1,.114,20.544,16.1,16.1,0,0,1,2.214,10.5l7.1,7.1a1.7,1.7,0,0,0,2.362.045l3.319-3.077.048-.047a1.705,1.705,0,0,0,.005-2.4l-7.2-7.268A15.985,15.985,0,0,1,27.314,7.313,15.9,15.9,0,0,1,32,18.627a16.2,16.2,0,0,1-.278,2.993l6.022,6.022L45.374,20V12.074L69.4,0l9.973,10L65.446,34.31l-7.278-1.616-7.644,7.729L78.6,68.5a3.4,3.4,0,0,1,0,4.815l-7.913,7.913a3.4,3.4,0,0,1-4.815,0Z" transform="translate(0.627 0)" fill="none" stroke="#000" stroke-linejoin="round" stroke-miterlimit="10" stroke-width="4"/>
      <path id="Combined_Shape-2" data-name="Combined Shape" d="M70.692,78.6a3.4,3.4,0,0,1-4.815,0L18.994,31.722A16.179,16.179,0,0,1,16,32,15.983,15.983,0,0,1,.115,17.917a16.09,16.09,0,0,1,2.1-10.046l7.1,7.1a1.7,1.7,0,0,0,2.362.045l3.319-3.077.048-.046a1.705,1.705,0,0,0,.005-2.4l-7.2-7.269A15.985,15.985,0,0,1,27.314,4.686,15.893,15.893,0,0,1,32,16a16.175,16.175,0,0,1-.278,2.994L78.6,65.876a3.4,3.4,0,0,1,0,4.815Z" transform="translate(0.627 2.627)" fill="none" stroke="#000" stroke-miterlimit="10" stroke-width="4"/>
    </g>
  </g>
</svg>
