<svg xmlns="http://www.w3.org/2000/svg" width="80" height="80" viewBox="0 0 80 80">
    <g fill="none" fill-rule="evenodd">
        <g>
            <path d="M0 0H80V80H0z"/>
            <g stroke-linecap="round" stroke-linejoin="round" stroke-width="2.5" transform="translate(10 10)">
                <circle cx="30" cy="30" r="30" stroke="#000"/>
                <path stroke="#000" d="M37.5 27v-7.481C37.5 15.366 34.142 12 30 12c-4.142 0-7.5 3.366-7.5 7.519V27M20 27h20c1.105 0 2 .895 2 2v15c0 2.21-1.79 4-4 4H22c-2.21 0-4-1.79-4-4V29c0-1.105.895-2 2-2z"/>
                <rect width="6" height="6" x="27" y="34.5" stroke="#DA0F47" rx="3"/>
            </g>
        </g>
    </g>
</svg>
