<svg xmlns="http://www.w3.org/2000/svg" width="128" height="128" viewBox="0 0 128 128">
    <g fill="none" fill-rule="evenodd">
        <g stroke-width="4">
            <g>
                <g>
                    <g>
                        <g>
                            <g>
                                <g>
                                    <g stroke="#000" stroke-linecap="round" stroke-linejoin="round">
                                        <path d="M11.163 27.537l14.884 15.874c2.877-3.085 5.783-4.627 8.72-4.627 4.403 0 27.115 1.433 31.95 0 3.225-.955 11.742-9.927 25.552-26.914 3.84-4.162 4.436-7.576 1.79-10.243C91.413-1.04 87.937-.428 83.63 3.46L71.407 15.722" transform="translate(-296 -1840) translate(0 1304) translate(0 64) translate(97 472) translate(199) translate(16 19.8) translate(0 40)"/>
                                        <path d="M8.124 24.195L.376 30.903 21.542 53.502 28.86 46.723zM12.834 26.4c4.569-4.104 8.162-7.145 10.781-9.123 3.929-2.968 5.208-4.059 11.548-4.604 6.34-.546 11.464 1.686 15.26 2.296 2.53.407 7.226.407 14.09 0 6.11-.4 9.165 1.406 9.165 5.418 0 4.012-3.055 6.016-9.165 6.013H47.14" transform="translate(-296 -1840) translate(0 1304) translate(0 64) translate(97 472) translate(199) translate(16 19.8) translate(0 40)"/>
                                    </g>
                                    <g stroke="#DA0F47">
                                        <path d="M32.078 0c7.07 0 12.802 5.919 12.802 13.22 0 3.874-1.614 7.36-4.186 9.777-5.644 5.978-10.729 11.27-15.256 15.878-.994 1.011-2.558.924-3.622-.009C13.977 31.995 7.543 25.985 3.901 22.42c-.233-.228-.44-.453-.62-.675C1.243 19.437 0 16.365 0 12.995 0 5.817 5.634 0 12.584 0c4.114 0 7.359 2.038 9.322 5.19C24.246 2.035 27.932 0 32.078 0z" transform="translate(-296 -1840) translate(0 1304) translate(0 64) translate(97 472) translate(199) translate(16 19.8) translate(26)"/>
                                    </g>
                                </g>
                            </g>
                        </g>
                    </g>
                </g>
            </g>
        </g>
    </g>
</svg>
