<svg xmlns="http://www.w3.org/2000/svg" id="logo" width="476" height="96" viewBox="0 0 476 96">
    <defs>
        <style>
            .cls-1{fill:#5a5b5e}.cls-2{fill:#313133}.cls-3{fill:#af0030}
        </style>
    </defs>
    <g id="Group_304">
        <g id="Group_299">
            <g id="Group_296" transform="translate(0 3.862)">
                <path id="Path_597" d="M458.316 517.546h8.991v8.354a26.061 26.061 0 0 1-7.971 1.271c-9.924 0-13.254-5.094-13.254-15.33 0-9.792 3.15-15.536 13.091-15.536 5.534 0 8.688 1.733 11.3 5.05l6.849-6.308c-4.166-5.987-11.5-7.816-18.374-7.816-15.484 0-23.6 8.437-23.6 24.554 0 15.99 7.346 24.673 23.516 24.673 7.416 0 14.657-1.891 18.6-4.649v-23.19h-19.148z" class="cls-1" transform="translate(-400.085 -487.234)"/>
                <path id="Path_598" d="M438.39 487.4h-11.057v47.811h33.928v-9.3H438.39z" class="cls-1" transform="translate(-427.333 -486.685)"/>
            </g>
            <g id="Group_298" transform="translate(103.31)">
                <g id="Group_297">
                    <path id="Path_599" d="M508.281 527.294l-3.484 7.03h-53.978v-7.03h20.459v-13.355h8.283v13.355zm-17.771-18.932H458v-6.9h32.507v-7.478h-31.414V487.1h39.47V519h-8.054z" class="cls-2" transform="translate(-450.819 -483.82)"/>
                    <path id="Path_600" d="M464.31 526.737h57.457l-3.554 7.183h-53.9zm49.478-16.61l-3.413 6.959h-29.741a13.5 13.5 0 0 1-4.856-.673 4.159 4.159 0 0 1-2.331-2.3 13.1 13.1 0 0 1-.647-4.641v-22.337h38.657v7.034H480.85v14.437a1.248 1.248 0 0 0 1.522 1.522z" class="cls-2" transform="translate(-404.917 -483.708)"/>
                    <path id="Path_601" d="M497.021 499.786a54.87 54.87 0 0 0 .62 9.541 16.9 16.9 0 0 0 2.784 6.383 75.022 75.022 0 0 0 7.4 8.525l-5.147 5.445q-4.857-5.239-6.792-7.812a16.758 16.758 0 0 1-2.714-5.318 15.81 15.81 0 0 1-2.674 5.771c-1.315 1.755-3.677 4.526-7.122 8.287l-5.367-5.3a80.925 80.925 0 0 0 7.368-8.762 19.3 19.3 0 0 0 2.965-6.862 49.815 49.815 0 0 0 .774-9.9v-2.1h-8.714v-7.1h24.668v7.1h-8.054zm13.557-12.686h7.768v54.545h-7.768v-30.62h-7.315v-6.963h7.315zm20.463-.743v56.3h-7.76v-56.3z" class="cls-3" transform="translate(-358.293 -486.356)"/>
                    <path id="Path_602" d="M548.693 527.967l-3.48 7.033H491.24v-7.029h24.369v-8.432h-15.958v-19.654h30.255V493.8h-29.969v-6.9h34.469c2.415 0 3.629 1.161 3.629 3.475v16.1h-30.251v6.18h33.444l-3.418 6.875h-13.922v8.432z" class="cls-3" transform="translate(-313.29 -484.493)"/>
                </g>
            </g>
        </g>
        <g id="Group_303" transform="translate(349.653 3.915)">
            <g id="Group_300" transform="translate(0 0.066)">
                <path id="Path_603" d="M543 534.808l-4.452-13.078h-19.276l-4.452 13.078h-8.032l17.129-47.388H534.3l16.931 47.388zm-14.38-41.445l-7.32 22.284h15.162l-7.262-22.284z" class="cls-2" transform="translate(-506.788 -486.72)"/>
                <path id="Path_604" d="M550.908 509.4a46.931 46.931 0 0 1-1.21 11.208 22.946 22.946 0 0 1-3.792 8.4 16.687 16.687 0 0 1-6.594 5.3 23.355 23.355 0 0 1-9.712 1.821 30.568 30.568 0 0 1-5.617-.458 20.034 20.034 0 0 1-4.452-1.306l1.707-5.56a17.457 17.457 0 0 0 3.638 1.047 22.057 22.057 0 0 0 4.271.4 15.089 15.089 0 0 0 5.622-.955 11.128 11.128 0 0 0 3.995-2.644 13.005 13.005 0 0 0 2.582-4.016 23.793 23.793 0 0 0 1.39-5.142l.269-2.01c-.533.321-1.1.651-1.733.968a18.039 18.039 0 0 1-2 .849 21.463 21.463 0 0 1-6.471.976c-5.058 0-8.855-1.2-11.437-3.638-2.569-2.411-3.853-6.088-3.853-11.063a19.858 19.858 0 0 1 1.078-6.739 13.963 13.963 0 0 1 3.176-5.116 14.252 14.252 0 0 1 5.156-3.308 22.226 22.226 0 0 1 14.349.066 12.644 12.644 0 0 1 5.3 3.915 18.518 18.518 0 0 1 3.233 6.893 40.313 40.313 0 0 1 1.105 10.112zm-7.966-6.15a17.916 17.916 0 0 0-.823-4.1 10.614 10.614 0 0 0-1.7-3.281 7.512 7.512 0 0 0-2.688-2.156 9.725 9.725 0 0 0-10.355 1.738c-1.566 1.689-2.349 4.24-2.349 7.68a9 9 0 0 0 2.406 6.73 9.163 9.163 0 0 0 6.611 2.345A15.778 15.778 0 0 0 540 511.1a10.8 10.8 0 0 0 1.755-.792 14.132 14.132 0 0 0 1.575-.977 45.7 45.7 0 0 0-.388-6.08z" class="cls-2" transform="translate(-470.339 -487.261)"/>
            </g>
            <g id="Group_302" transform="translate(90.031)">
                <g id="Group_301">
                    <path id="Path_605" d="M560.5 488.781a17.559 17.559 0 0 0-2.015-.453c-.378-.084-.774-.149-1.17-.224a76.376 76.376 0 0 0-11.82-.858h-.176c-2.067 0-4.109.066-6.211.22a59.36 59.36 0 0 0-7.161.937c-.708.132-1.254.273-1.636.378a3.857 3.857 0 0 0-2.987 3.427 7.176 7.176 0 0 0-.07 1.086v36.937c0 3.15 1.548 4.047 3.057 4.509.449.136 1.13.3 2.019.475.356.066.735.136 1.122.2a76.142 76.142 0 0 0 11.881.889h.172c2.1 0 4.13-.088 6.207-.238a60.515 60.515 0 0 0 7.152-.924c.788-.145 1.28-.295 1.636-.378a3.829 3.829 0 0 0 2.978-3.444 5.132 5.132 0 0 0 .092-1.074v-36.95c.001-3.134-1.551-4.053-3.07-4.515zm-5.477 36.053a10.047 10.047 0 0 1-8.789 4.5c-2.085 0-7.434-.735-12.057-7.245l3.383-2.85c.8 1.033 4.254 5.164 8.1 5.164.128 0 .251-.018.383-.018 4.5-.343 5.442-2.74 5.442-4.7 0-2.257-1.214-3.642-4.32-4.949-2.393-.994-8.036-3.352-9.783-5.323a8.1 8.1 0 0 1-2.468-6.061 9.824 9.824 0 0 1 3.4-6.858 11.507 11.507 0 0 1 7.034-2.279 13.633 13.633 0 0 1 10.425 5.235l-3.625 2.987a9.684 9.684 0 0 0-7.078-3.286c-5.059 0-5.217 3.413-5.217 3.8v.163c-.013.924-.057 2.833 3.832 4.553 1.042.466 1.971.818 2.872 1.175a20.313 20.313 0 0 1 7.231 4.158c3.726 3.265 3.436 8.438 1.237 11.834z" class="cls-2" transform="translate(-527.255 -487.246)"/>
                </g>
            </g>
        </g>
    </g>
    <g id="Group_309" transform="translate(103.458 68.261)">
        <g id="Group_308" transform="translate(210.275)">
            <g id="Group_306" transform="translate(80.788 9.009)">
                <g id="Group_305">
                    <path id="Path_606" d="M519.069 510.533a6.438 6.438 0 0 0 .29 2 4.087 4.087 0 0 0 .854 1.544 3.8 3.8 0 0 0 1.434.985 5.3 5.3 0 0 0 2.019.352h3.462l-.875 1.729h-3.079a6.5 6.5 0 0 1-2.406-.436 5.672 5.672 0 0 1-1.97-1.289 6.018 6.018 0 0 1-1.328-2.072 8.384 8.384 0 0 1-.009-5.564 6.288 6.288 0 0 1 1.293-2.09 5.5 5.5 0 0 1 1.957-1.3 6.244 6.244 0 0 1 2.464-.471h3.955l-.875 1.733h-2.586a5.2 5.2 0 0 0-1.984.356 3.84 3.84 0 0 0-1.438 1.012 4.248 4.248 0 0 0-.88 1.526 6.338 6.338 0 0 0-.298 1.985z" class="cls-2" transform="translate(-516.988 -503.922)"/>
                    <path id="Path_607" d="M524.29 514.873a5.165 5.165 0 0 1-2.041-.378 3.992 3.992 0 0 1-1.522-1.03 4.664 4.664 0 0 1-.95-1.6 6.483 6.483 0 0 1-.321-2.1 6.4 6.4 0 0 1 .321-2.094 4.567 4.567 0 0 1 .95-1.606 4.191 4.191 0 0 1 1.522-1.025 5.242 5.242 0 0 1 2.041-.374 5.19 5.19 0 0 1 2.037.374 4.155 4.155 0 0 1 1.522 1.025 4.369 4.369 0 0 1 .946 1.606 6.4 6.4 0 0 1 .33 2.094 6.467 6.467 0 0 1-.33 2.111 4.278 4.278 0 0 1-.946 1.592 3.953 3.953 0 0 1-1.522 1.025 5.114 5.114 0 0 1-2.037.38zm0-8.547a2.645 2.645 0 0 0-2.182.928 4.511 4.511 0 0 0 0 5 2.629 2.629 0 0 0 2.182.941 2.741 2.741 0 0 0 1.267-.273 2.707 2.707 0 0 0 .919-.743 3.6 3.6 0 0 0 .559-1.091 4.34 4.34 0 0 0 .2-1.324 3.876 3.876 0 0 0-.757-2.512 2.671 2.671 0 0 0-2.188-.926z" class="cls-2" transform="translate(-508.6 -501.386)"/>
                    <path id="Path_608" d="M524.274 517.14a2.053 2.053 0 0 1-2.288-2.362v-10.856h1.861v10.856a.922.922 0 0 0 .141.536.557.557 0 0 0 .5.2h1.14l-.84 1.623z" class="cls-2" transform="translate(-499.997 -503.922)"/>
                    <path id="Path_609" d="M525.4 517.14c-1.526 0-2.279-.779-2.279-2.362v-10.856h1.843v10.856a.892.892 0 0 0 .15.536.556.556 0 0 0 .488.2h1.139l-.831 1.623z" class="cls-2" transform="translate(-496.126 -503.922)"/>
                    <path id="Path_610" d="M531.815 514.6h-3.255a4.561 4.561 0 0 1-2-.4 3.937 3.937 0 0 1-1.4-1.065 4.548 4.548 0 0 1-.844-1.575 6.892 6.892 0 0 1-.273-1.918 7.061 7.061 0 0 1 .273-1.931 4.522 4.522 0 0 1 .853-1.57 3.821 3.821 0 0 1 1.452-1.073 4.83 4.83 0 0 1 2.076-.4 5.07 5.07 0 0 1 2.156.4 3.484 3.484 0 0 1 1.39 1.073 4.082 4.082 0 0 1 .761 1.57 8.268 8.268 0 0 1 .225 1.931v1.038h-7.161a2.714 2.714 0 0 0 .84 1.7 2.558 2.558 0 0 0 1.751.594h3.977zm-3.119-8.256a2.527 2.527 0 0 0-1.971.726 3.114 3.114 0 0 0-.721 1.984h5.283a3.251 3.251 0 0 0-.673-1.984 2.359 2.359 0 0 0-1.914-.722z" class="cls-2" transform="translate(-493.013 -501.386)"/>
                    <path id="Path_611" d="M533.373 514.394h-2.266a5.254 5.254 0 0 1-1.891-.33 3.9 3.9 0 0 1-1.487-.946 4.45 4.45 0 0 1-.981-1.522 5.419 5.419 0 0 1-.365-2.041 5.288 5.288 0 0 1 .378-2.015 4.3 4.3 0 0 1 1.007-1.526 4.168 4.168 0 0 1 1.5-.955 5.157 5.157 0 0 1 1.838-.33h3.1l-.836 1.632h-2.125a2.984 2.984 0 0 0-1.219.233 2.588 2.588 0 0 0-.919.664 2.847 2.847 0 0 0-.607 1.016 3.836 3.836 0 0 0-.215 1.28 3.471 3.471 0 0 0 .774 2.318 2.744 2.744 0 0 0 2.186.9h2.96z" class="cls-2" transform="translate(-485.056 -501.176)"/>
                    <path id="Path_612" d="M533.413 516.647h-1.874a3.1 3.1 0 0 1-2.3-.831 3.24 3.24 0 0 1-.827-2.371v-9.378h1.861v2.917h3.915l-.818 1.632h-3.1v4.9c0 .994.453 1.482 1.368 1.482h2.608z" class="cls-2" transform="translate(-478.146 -503.429)"/>
                    <path id="Path_613" d="M531.9 503.922v1.678h-1.856v-1.676zm0 3.554v9.664h-1.856v-9.664z" class="cls-2" transform="translate(-472.599 -503.922)"/>
                    <path id="Path_614" d="M535.561 514.873a5.16 5.16 0 0 1-2.046-.378 4.006 4.006 0 0 1-1.526-1.03 4.5 4.5 0 0 1-.941-1.6 6.357 6.357 0 0 1-.326-2.1 6.275 6.275 0 0 1 .326-2.094 4.412 4.412 0 0 1 .941-1.606 4.207 4.207 0 0 1 1.526-1.025 5.237 5.237 0 0 1 2.046-.374 5.163 5.163 0 0 1 2.028.374 4.171 4.171 0 0 1 1.526 1.025 4.423 4.423 0 0 1 .946 1.606 6.387 6.387 0 0 1 .335 2.094 6.455 6.455 0 0 1-.335 2.111 4.33 4.33 0 0 1-.946 1.592 3.968 3.968 0 0 1-1.526 1.025 5.087 5.087 0 0 1-2.028.38zm0-8.547a2.654 2.654 0 0 0-2.186.928 4.489 4.489 0 0 0 0 5 2.638 2.638 0 0 0 2.186.941 2.672 2.672 0 0 0 2.177-1.016 3.242 3.242 0 0 0 .558-1.091 4.475 4.475 0 0 0 .194-1.324 3.852 3.852 0 0 0-.752-2.512 2.654 2.654 0 0 0-2.177-.926z" class="cls-2" transform="translate(-470.309 -501.386)"/>
                    <path id="Path_615" d="M538.273 504.73a3.248 3.248 0 0 1 2.322.849 3.3 3.3 0 0 1 .942 2.49v6.325h-1.856v-6.378a1.733 1.733 0 0 0-.453-1.254 1.814 1.814 0 0 0-1.06-.387h-3.079v8.019h-1.834v-9.664z" class="cls-2" transform="translate(-461.703 -501.176)"/>
                </g>
            </g>
            <g id="Group_307">
                <path id="Path_616" d="M520.238 513.245a13.947 13.947 0 0 1-.726 4.579 9.986 9.986 0 0 1-2.112 3.589 9.306 9.306 0 0 1-3.387 2.322 13.288 13.288 0 0 1-9.207 0 9.3 9.3 0 0 1-3.379-2.309 10.045 10.045 0 0 1-2.089-3.554 15.279 15.279 0 0 1 0-9.251 10.159 10.159 0 0 1 2.089-3.6 9.3 9.3 0 0 1 3.379-2.331 13.443 13.443 0 0 1 9.237 0 9.225 9.225 0 0 1 3.378 2.331 10.026 10.026 0 0 1 2.089 3.6 14.2 14.2 0 0 1 .728 4.624zm-10.812 8.415a7.7 7.7 0 0 0 3-.581 6.731 6.731 0 0 0 2.34-1.641 7.235 7.235 0 0 0 1.522-2.626 10.832 10.832 0 0 0 .532-3.567 11.125 11.125 0 0 0-.532-3.612 7.463 7.463 0 0 0-1.5-2.635 6.264 6.264 0 0 0-2.353-1.623 7.837 7.837 0 0 0-3-.554 7.726 7.726 0 0 0-3.022.563 6.638 6.638 0 0 0-2.331 1.641 7.449 7.449 0 0 0-1.5 2.644 12.406 12.406 0 0 0 0 7.161 7.42 7.42 0 0 0 1.526 2.648 6.653 6.653 0 0 0 2.34 1.618 7.974 7.974 0 0 0 2.977.564z" class="cls-2" transform="translate(-498.622 -501.874)"/>
                <path id="Path_617" d="M507.313 501.99v5.82h3.009a8.055 8.055 0 0 1 3.044.554 6.652 6.652 0 0 1 2.411 1.584 7.518 7.518 0 0 1 1.575 2.489 9.062 9.062 0 0 1 .563 3.264 8.939 8.939 0 0 1-.585 3.343 7.211 7.211 0 0 1-1.61 2.5 7.093 7.093 0 0 1-2.406 1.575 8.268 8.268 0 0 1-2.991.545h-6.088V501.99zm0 19h2.776a4.6 4.6 0 0 0 1.975-.418 4.521 4.521 0 0 0 1.487-1.139 4.847 4.847 0 0 0 .937-1.694 6.472 6.472 0 0 0 .321-2.036 6.585 6.585 0 0 0-.308-2.023 4.453 4.453 0 0 0-.906-1.654 4.363 4.363 0 0 0-1.482-1.126 4.6 4.6 0 0 0-2.023-.414h-2.776z" class="cls-2" transform="translate(-479.548 -501.48)"/>
                <path id="Path_618" d="M511.637 503.313v16.315a2.981 2.981 0 0 1-.462 1.76 1.666 1.666 0 0 1-1.438.651h-1.214l-1.368 2.683h2.881a4.988 4.988 0 0 0 1.852-.352 4.083 4.083 0 0 0 1.478-1.012 4.544 4.544 0 0 0 .968-1.584 5.988 5.988 0 0 0 .348-2.147v-16.314z" class="cls-2" transform="translate(-469.62 -496.983)"/>
                <path id="Path_619" d="M522.285 519.509h-5.358a7.685 7.685 0 0 1-3.251-.651 6.855 6.855 0 0 1-2.309-1.746 7.53 7.53 0 0 1-1.377-2.586 10.75 10.75 0 0 1-.453-3.141 10.906 10.906 0 0 1 .453-3.167 7.3 7.3 0 0 1 1.385-2.591 6.645 6.645 0 0 1 2.375-1.755 8.246 8.246 0 0 1 3.414-.66 8.473 8.473 0 0 1 3.536.66 6.062 6.062 0 0 1 2.287 1.755 6.8 6.8 0 0 1 1.245 2.591 13.555 13.555 0 0 1 .361 3.167v1.7h-11.739a4.408 4.408 0 0 0 1.372 2.776 4.163 4.163 0 0 0 2.872.972h6.528zm-5.12-13.548a4.108 4.108 0 0 0-3.22 1.2 5.046 5.046 0 0 0-1.192 3.246h8.666a5.425 5.425 0 0 0-1.1-3.246 3.865 3.865 0 0 0-3.154-1.2z" class="cls-2" transform="translate(-461.524 -497.326)"/>
                <path id="Path_620" d="M521.736 522.867h-3.075a5.052 5.052 0 0 1-3.761-1.367 5.282 5.282 0 0 1-1.355-3.871v-15.4h3.044v4.79h6.422l-1.346 2.675h-5.076v8.023c0 1.628.739 2.437 2.243 2.437h4.28z" class="cls-2" transform="translate(-447.884 -500.684)"/>
                <path id="Path_621" d="M514.639 501.994h-3.018l-3.447 4.2h3.012z" class="cls-2" transform="translate(-466.157 -501.466)"/>
            </g>
        </g>
        <path id="Rectangle_45" d="M0 0H198.213V1.022H0z" class="cls-2" transform="translate(0 11.031)"/>
    </g>
</svg>
