<svg xmlns="http://www.w3.org/2000/svg" id="logo" width="500" height="96" viewBox="0 0 500 96">
    <defs>
        <style>
            .cls-1{fill:#313133}.cls-2{fill:#5a5b5e}
        </style>
    </defs>
    <g id="Group_597" transform="translate(115.539 68.261)">
        <g id="Group_596">
            <g id="Group_595" transform="translate(223.782)">
                <g id="Group_593" transform="translate(80.819 9.003)">
                    <g id="Group_592">
                        <path id="Path_1197" d="M368.083 555.238a6.47 6.47 0 0 0 .286 2 4.179 4.179 0 0 0 .854 1.536 3.781 3.781 0 0 0 1.443.995 5.318 5.318 0 0 0 2.011.348h3.463l-.876 1.725h-3.084a6.509 6.509 0 0 1-2.407-.431 5.591 5.591 0 0 1-1.971-1.289 5.925 5.925 0 0 1-1.325-2.077 7.7 7.7 0 0 1-.479-2.807 7.569 7.569 0 0 1 .471-2.754 6.066 6.066 0 0 1 1.294-2.086 5.713 5.713 0 0 1 1.962-1.311 6.366 6.366 0 0 1 2.455-.471h3.96l-.876 1.742h-2.587a5.137 5.137 0 0 0-1.985.356 3.913 3.913 0 0 0-1.434 1 4.289 4.289 0 0 0-.88 1.549 6.25 6.25 0 0 0-.295 1.975z" class="cls-1" transform="translate(-365.997 -548.616)"/>
                        <path id="Path_1198" d="M373.305 559.577a5.617 5.617 0 0 1-2.046-.369 4.077 4.077 0 0 1-1.518-1.052 4.463 4.463 0 0 1-.946-1.606 6.174 6.174 0 0 1-.33-2.077 6.406 6.406 0 0 1 .33-2.112 4.444 4.444 0 0 1 .946-1.593 4.241 4.241 0 0 1 1.518-1.03 5.353 5.353 0 0 1 2.046-.374 5.214 5.214 0 0 1 2.028.374 4.181 4.181 0 0 1 1.531 1.03 4.445 4.445 0 0 1 .946 1.593 6.527 6.527 0 0 1 .33 2.112 6.423 6.423 0 0 1-.33 2.1 4.16 4.16 0 0 1-.946 1.593 4.1 4.1 0 0 1-1.531 1.043 5.469 5.469 0 0 1-2.028.368zm0-8.55a2.656 2.656 0 0 0-2.187.92 3.9 3.9 0 0 0-.761 2.526 3.824 3.824 0 0 0 .761 2.473 2.631 2.631 0 0 0 2.187.959 2.791 2.791 0 0 0 1.263-.286 2.6 2.6 0 0 0 .915-.743 3.2 3.2 0 0 0 .559-1.091 4.156 4.156 0 0 0 .2-1.311 3.894 3.894 0 0 0-.757-2.526 2.643 2.643 0 0 0-2.18-.921z" class="cls-1" transform="translate(-357.605 -546.073)"/>
                        <path id="Path_1199" d="M373.282 561.843c-1.527 0-2.284-.784-2.284-2.367v-10.86h1.857v10.86a.893.893 0 0 0 .136.541.564.564 0 0 0 .5.2h1.135l-.832 1.624z" class="cls-1" transform="translate(-348.993 -548.616)"/>
                        <path id="Path_1200" d="M374.41 561.843c-1.523 0-2.275-.784-2.275-2.367v-10.86h1.848v10.86a.89.89 0 0 0 .145.541.553.553 0 0 0 .484.2h1.144l-.827 1.624z" class="cls-1" transform="translate(-345.126 -548.616)"/>
                        <path id="Path_1201" d="M380.827 559.3h-3.261a4.479 4.479 0 0 1-2-.4 3.946 3.946 0 0 1-1.4-1.069 4.51 4.51 0 0 1-.845-1.571 6.714 6.714 0 0 1-.273-1.919 6.809 6.809 0 0 1 .273-1.923 4.41 4.41 0 0 1 .854-1.584 4.175 4.175 0 0 1 1.443-1.073 5.045 5.045 0 0 1 2.081-.4 5.21 5.21 0 0 1 2.156.4 3.869 3.869 0 0 1 1.395 1.073 4.171 4.171 0 0 1 .757 1.584 7.734 7.734 0 0 1 .224 1.923v1.039h-7.164a2.734 2.734 0 0 0 .836 1.7 2.621 2.621 0 0 0 1.756.589h3.982zm-3.124-8.255a2.541 2.541 0 0 0-1.967.73 3.062 3.062 0 0 0-.726 1.971h5.285a3.242 3.242 0 0 0-.673-1.971 2.369 2.369 0 0 0-1.922-.73z" class="cls-1" transform="translate(-342.008 -546.073)"/>
                        <path id="Path_1202" d="M382.369 559.089H380.1a5.059 5.059 0 0 1-1.883-.326 3.8 3.8 0 0 1-1.492-.951 4.549 4.549 0 0 1-.977-1.518 5.336 5.336 0 0 1-.356-2.033 5.149 5.149 0 0 1 .37-2.02 4.389 4.389 0 0 1 1-1.531 4.254 4.254 0 0 1 1.5-.959 5.105 5.105 0 0 1 1.839-.326h3.1l-.836 1.628h-2.117a2.985 2.985 0 0 0-1.219.237 2.57 2.57 0 0 0-.933.664 3.237 3.237 0 0 0-.6 1.017 3.756 3.756 0 0 0-.216 1.289 3.382 3.382 0 0 0 .779 2.3 2.727 2.727 0 0 0 2.187.9h2.953z" class="cls-1" transform="translate(-334.042 -545.862)"/>
                        <path id="Path_1203" d="M382.427 561.35h-1.87a3.066 3.066 0 0 1-2.3-.832 3.2 3.2 0 0 1-.836-2.367v-9.39h1.866v2.926h3.916l-.819 1.628h-3.1v4.893c0 .994.449 1.492 1.369 1.492h2.609z" class="cls-1" transform="translate(-327.143 -548.123)"/>
                        <path id="Path_1204" d="M380.907 548.616v1.684h-1.848v-1.681zm0 3.564v9.663h-1.848v-9.663z" class="cls-1" transform="translate(-321.583 -548.616)"/>
                        <path id="Path_1205" d="M384.57 559.577a5.593 5.593 0 0 1-2.042-.369 4.043 4.043 0 0 1-1.518-1.052 4.415 4.415 0 0 1-.95-1.606 6.181 6.181 0 0 1-.33-2.077 6.413 6.413 0 0 1 .33-2.112 4.4 4.4 0 0 1 .95-1.593 4.2 4.2 0 0 1 1.518-1.03 5.751 5.751 0 0 1 4.079 0 4.262 4.262 0 0 1 1.523 1.03 4.448 4.448 0 0 1 .946 1.593 6.409 6.409 0 0 1 .33 2.112 6.307 6.307 0 0 1-.33 2.1 4.29 4.29 0 0 1-2.468 2.636 5.569 5.569 0 0 1-2.038.368zm0-8.55a2.635 2.635 0 0 0-2.182.92 3.892 3.892 0 0 0-.753 2.526 3.819 3.819 0 0 0 .753 2.473 2.61 2.61 0 0 0 2.182.959 2.783 2.783 0 0 0 1.267-.286 2.56 2.56 0 0 0 .915-.743 3.2 3.2 0 0 0 .559-1.091 4.418 4.418 0 0 0 .2-1.311 3.921 3.921 0 0 0-.761-2.526 2.647 2.647 0 0 0-2.18-.921z" class="cls-1" transform="translate(-319.302 -546.073)"/>
                        <path id="Path_1206" d="M387.275 549.426a3.28 3.28 0 0 1 2.337.84 3.349 3.349 0 0 1 .937 2.5v6.323h-1.861V552.7a1.609 1.609 0 0 0-.449-1.232 1.729 1.729 0 0 0-1.056-.387H384.1v8.009h-1.835v-9.663z" class="cls-1" transform="translate(-310.689 -545.862)"/>
                    </g>
                </g>
                <g id="Group_594">
                    <path id="Path_1207" d="M369.253 557.945a13.717 13.717 0 0 1-.722 4.576 9.772 9.772 0 0 1-2.117 3.582 9.053 9.053 0 0 1-3.388 2.332 13.136 13.136 0 0 1-9.2 0 9.2 9.2 0 0 1-3.384-2.31 10 10 0 0 1-2.086-3.559 14 14 0 0 1-.726-4.62 14.167 14.167 0 0 1 .726-4.629 10.4 10.4 0 0 1 2.086-3.6 9.335 9.335 0 0 1 3.384-2.323 13.44 13.44 0 0 1 9.236 0 9.338 9.338 0 0 1 3.375 2.323 10.214 10.214 0 0 1 2.094 3.6 14.052 14.052 0 0 1 .722 4.628zm-10.811 8.4a7.913 7.913 0 0 0 3-.555 6.825 6.825 0 0 0 2.341-1.645 7.4 7.4 0 0 0 1.523-2.627 10.8 10.8 0 0 0 .532-3.573 11 11 0 0 0-.532-3.608 7.389 7.389 0 0 0-1.5-2.64 6.231 6.231 0 0 0-2.35-1.628 8.558 8.558 0 0 0-6.037.018 6.42 6.42 0 0 0-2.323 1.645 7.4 7.4 0 0 0-1.514 2.632 12.525 12.525 0 0 0 0 7.168 7.215 7.215 0 0 0 1.536 2.645 6.457 6.457 0 0 0 2.337 1.619 7.981 7.981 0 0 0 2.986.549z" class="cls-1" transform="translate(-347.63 -546.57)"/>
                    <path id="Path_1208" d="M356.327 546.685v5.821h3.014a8.339 8.339 0 0 1 3.045.55 6.915 6.915 0 0 1 2.407 1.584 7.473 7.473 0 0 1 1.575 2.495 9.753 9.753 0 0 1-.022 6.618 7.327 7.327 0 0 1-1.606 2.486 6.909 6.909 0 0 1-2.411 1.575 7.964 7.964 0 0 1-2.988.554h-6.1v-21.683zm0 19.013h2.773a4.481 4.481 0 0 0 1.976-.431 4.416 4.416 0 0 0 1.487-1.127 5.113 5.113 0 0 0 .933-1.694 6.283 6.283 0 0 0 .321-2.042 6.45 6.45 0 0 0-.3-2.02 4.553 4.553 0 0 0-.906-1.663 4.219 4.219 0 0 0-1.483-1.122 4.749 4.749 0 0 0-2.024-.422h-2.777z" class="cls-1" transform="translate(-328.548 -546.179)"/>
                    <path id="Path_1209" d="M360.649 548.008v16.325a2.951 2.951 0 0 1-.466 1.76 1.675 1.675 0 0 1-1.439.656h-1.21l-1.368 2.671h2.878a4.924 4.924 0 0 0 1.857-.339 4.367 4.367 0 0 0 2.438-2.6 5.832 5.832 0 0 0 .356-2.147v-16.326z" class="cls-1" transform="translate(-318.609 -541.68)"/>
                    <path id="Path_1210" d="M371.294 564.2h-5.351a7.728 7.728 0 0 1-3.265-.66 6.586 6.586 0 0 1-2.306-1.756A7.124 7.124 0 0 1 359 559.21a10.662 10.662 0 0 1-.453-3.133A10.954 10.954 0 0 1 359 552.9a7.1 7.1 0 0 1 1.391-2.587 6.547 6.547 0 0 1 2.372-1.756 8.217 8.217 0 0 1 3.419-.651 8.485 8.485 0 0 1 3.529.651 6 6 0 0 1 2.289 1.76 6.833 6.833 0 0 1 1.241 2.587 13.151 13.151 0 0 1 .37 3.173v1.7h-11.746a4.339 4.339 0 0 0 1.369 2.772 4.152 4.152 0 0 0 2.878.981h6.526zm-5.113-13.557a4.131 4.131 0 0 0-3.23 1.206 5.017 5.017 0 0 0-1.192 3.243h8.668a5.392 5.392 0 0 0-1.1-3.243 3.878 3.878 0 0 0-3.145-1.202z" class="cls-1" transform="translate(-310.51 -542.014)"/>
                    <path id="Path_1211" d="M370.756 567.564h-3.076a5.029 5.029 0 0 1-3.758-1.373 5.267 5.267 0 0 1-1.364-3.885v-15.384h3.049v4.778h6.424l-1.342 2.671h-5.082v8.03q0 2.442 2.244 2.442h4.281z" class="cls-1" transform="translate(-296.871 -545.373)"/>
                    <path id="Path_1212" d="M363.647 546.689h-3.019l-3.444 4.207h3.008z" class="cls-1" transform="translate(-315.146 -546.164)"/>
                </g>
            </g>
            <path id="Rectangle_68" d="M0 0H211.724V1.023H0z" class="cls-1" transform="translate(0 11.032)"/>
        </g>
    </g>
    <g id="Group_603">
        <g id="Group_599" transform="translate(104.454)">
            <g id="Group_598">
                <path id="Path_1213" d="M297.232 566.013l-2.975-6.68a121.162 121.162 0 0 0 12.69-4.493 13.343 13.343 0 0 0 5.509-4.061l-16.677.8v-6.741h18.411c.106-.924.15-2.464.15-4.642h-17.834v-6.521h25.521v4.2q0 9.637-1.377 13.8c-.915 2.785-2.983 5.152-6.2 7.075s-8.95 4.35-17.218 7.263zM344.644 580l-3.472 6.965h-32.407q-3.637 0-3.635-3.485V567.6h8.053v11.533a.959.959 0 0 0 .18.691.827.827 0 0 0 .612.176zm-9.491-28.637h-10.442v-7.031h10.442v-13.275h8.047v40.169h-8.048z" class="cls-1" transform="translate(-294.257 -531.057)"/>
                <path id="Path_1214" d="M355.219 531.057v56.275h-8.048V557.89h-11.309v16.967h-28.72v-39.879h7.912v12.47h12.906v-12.47h7.9v15.66h11.309v-19.581zM327.96 554.4h-12.906v13.421h12.906z" class="cls-1" transform="translate(-250.445 -531.057)"/>
                <path id="Path_1215" d="M327.934 567.971h25.385l-3.485 6.961h-30.019V534.9h27.77v6.965h-19.651v9.417h17.333v6.965h-17.333zm39.879-36.913v56.275h-8.044v-29.808h-10.01v-7.177h10.01v-19.29z" class="cls-1" transform="translate(-207.354 -531.057)"/>
                <path id="Path_1216" d="M331.565 560.825v-6.31h57.423l-3.12 6.31zm51.335 20.523l-3.049 6.16h-36.76q-3.624 0-3.626-3.476V572.79h32.412v-2.69h-32.123v-6.156h40.17v14.648h-32.408v1.883a1 1 0 0 0 .176.691.878.878 0 0 0 .62.18zM340.841 551.4v-20.162h7.687v4.136h22.622v-4.136h7.692V551.4zm7.687-6.248h22.622v-3.687h-22.622z" class="cls-1" transform="translate(-167.401 -530.442)"/>
            </g>
        </g>
        <g id="Group_601" transform="translate(337.574)">
            <g id="Group_600">
                <path id="Path_1217" d="M371.742 567.319h6.675l-3.406 6.886h-27.778v-6.886h4.647v-25.09h-4.066v-6.891h27.845v6.891h-3.916zm-12.616 0h5.364v-25.09h-5.364zm41.111-36.262v56.275h-7.467v-29.517h-5.289v28.5h-7.4v-54.523h7.4v18.987h5.289v-19.722z" class="cls-1" transform="translate(-347.233 -531.057)"/>
                <path id="Path_1218" d="M362.78 534.978h27.4v4.422q0 11.881-1.483 17.429a19.246 19.246 0 0 1-6.525 9.795q-5.036 4.238-17.579 10.908l-4.066-6.957q7.108-3.413 10.952-5.654a31.355 31.355 0 0 0 6.121-4.5 14.193 14.193 0 0 0 3.379-5.078l-18.93.862V548.9h20.087c.145-1.989.216-4.277.216-6.887H362.78zm45.969-3.921v56.275H400.7v-56.275z" class="cls-1" transform="translate(-302.013 -531.057)"/>
                <path id="Path_1219" d="M409.387 568.4l-4.933 6.1a96.438 96.438 0 0 1-9.131-7.832 16.876 16.876 0 0 1-3.925-5.874 17.978 17.978 0 0 1-4.092 6.671 83.983 83.983 0 0 1-9.61 8.409l-5-5.87a98.173 98.173 0 0 0 9.826-9.034 16.337 16.337 0 0 0 3.767-6.6 39.442 39.442 0 0 0 .906-9.742V542.3h-11.888v-7.172h31.4v7.172h-11.322v2.328a37.063 37.063 0 0 0 .876 9.311 14.78 14.78 0 0 0 3.59 6.1 93.583 93.583 0 0 0 9.536 8.361zm13.7-37.34v56.275h-8.044v-56.278z" class="cls-1" transform="translate(-260.663 -531.057)"/>
            </g>
        </g>
        <g id="Group_602" transform="translate(0 3.846)">
            <path id="Path_1220" d="M301.487 562.227h8.99v8.36a26.071 26.071 0 0 1-7.969 1.263c-9.918 0-13.245-5.065-13.245-15.308 0-9.79 3.151-15.537 13.086-15.537 5.527 0 8.673 1.734 11.287 5.047l6.847-6.292c-4.167-5.985-11.493-7.828-18.367-7.828-15.476 0-23.585 8.444-23.585 24.536 0 16 7.335 24.681 23.51 24.681 7.406 0 14.648-1.9 18.591-4.651v-23.191h-19.145z" class="cls-2" transform="translate(-243.283 -531.931)"/>
            <path id="Path_1221" d="M281.577 532.092h-11.056v47.788h33.906v-9.295h-22.85z" class="cls-2" transform="translate(-270.521 -531.384)"/>
        </g>
    </g>
</svg>
