<svg xmlns="http://www.w3.org/2000/svg" id="logo" width="454.549" height="93" viewBox="0 0 454.549 93">
    <defs>
        <style>
            .cls-1{fill:#5a5b5e}.cls-2{fill:#313133}
        </style>
    </defs>
    <g id="Group_142">
        <g id="Group_135" transform="translate(0 0.702)">
            <g id="Group_134">
                <path id="Path_255" d="M459.976 266.066h8.971v8.34a25.888 25.888 0 0 1-7.947 1.261c-9.907 0-13.22-5.068-13.22-15.28 0-9.781 3.138-15.51 13.057-15.51 5.524 0 8.661 1.734 11.265 5.047l6.836-6.3c-4.166-5.971-11.469-7.813-18.33-7.813-15.456 0-23.549 8.432-23.549 24.5 0 15.965 7.32 24.631 23.465 24.631 7.4 0 14.632-1.893 18.568-4.65v-23.139h-19.116z" class="cls-1" transform="translate(-401.87 -235.815)"/>
                <path id="Path_256" d="M439.683 235.985h-11.047v47.7h33.852v-9.267h-22.805z" class="cls-1" transform="translate(-428.636 -235.274)"/>
            </g>
        </g>
        <g id="Group_140" transform="translate(105.843)">
            <g id="Group_139">
                <g id="Group_138">
                    <g id="Group_137">
                        <g id="Group_136">
                            <path id="Rectangle_21" d="M0 0H12.339V47.593H0z" class="cls-2" transform="translate(48.98 1.5)"/>
                            <path id="Path_257" d="M495.226 235.69a25.306 25.306 0 1 0 25.308 25.287 25.3 25.3 0 0 0-25.308-25.287zm0 38.515a13.212 13.212 0 1 1 13.233-13.228 13.2 13.2 0 0 1-13.233 13.228z" class="cls-2" transform="translate(-403.182 -235.51)"/>
                            <path id="Path_258" d="M525.858 271.2c0 16.738-21.857 15.322-21.857 15.322-20.29.259-21.426-11.758-21.276-15.43v-1.254H495.3l.017 1.391c-.038 1.726.644 5.357 8.682 5.357 7.671 0 9.305-2.377 9.305-4.889 0-2.979-4.488-4.224-9.305-5.394-3.71-.9-5.958-.953-9.643-2.018-5.227-1.479-10.788-5.436-10.788-13.542 0 0-1.5-14.825 20.432-15.088 0 0 20.478-1.019 20.386 15.347v.364H511.86v-.364c-.384-5.753-7.859-5.386-7.859-5.386-6.735 0-7.88 3.33-7.88 4.767 0 2.666 1.713 4.759 5.724 5.591 0 0 3.539.673 9.681 1.884 6.117 1.171 14.332 4.359 14.332 13.342z" class="cls-2" transform="translate(-362.604 -235.647)"/>
                            <path id="Path_259" d="M474.417 236.006h-20.449V283.6h20.449a23.8 23.8 0 1 0 0-47.591zm-3.326 38.4h-4.8V245.2h4.8a14.609 14.609 0 0 1 0 29.206z" class="cls-2" transform="translate(-453.968 -234.506)"/>
                        </g>
                    </g>
                </g>
            </g>
        </g>
        <g id="Group_141" transform="translate(283.002 10.487)">
            <path id="Path_260" d="M509.717 244a10.08 10.08 0 0 0 2.728 7.124 12.912 12.912 0 0 0 3 2.336 16.678 16.678 0 0 0 3.677 1.55l-2.185 3.857a19.109 19.109 0 0 1-5.3-2.891 11.942 11.942 0 0 1-3.652-4.646 12.817 12.817 0 0 1-3.744 4.726 20.221 20.221 0 0 1-6.288 3.309l-1.579-3.059a20.143 20.143 0 0 0 4.207-2.206 10.634 10.634 0 0 0 2.7-2.691 9.366 9.366 0 0 0 1.425-3.3 17.47 17.47 0 0 0 .422-3.99v-5.056h4.6zm17.415 27.631c0 .485-.013.99-.046 1.563s-.075 1.132-.146 1.692c-.067.577-.146 1.116-.226 1.629s-.167.94-.251 1.291h-3.9v-11.478h-18.072v-3.723h22.642zm0-11.394h-4.571v-21.97h4.571z" class="cls-2" transform="translate(-496.368 -237.807)"/>
            <path id="Path_261" d="M505.05 261.736a58.444 58.444 0 0 0 6.126-3.305 23.354 23.354 0 0 0 4.115-3.167 10.8 10.8 0 0 0 2.277-3.15 8.086 8.086 0 0 0 .7-3.276v-4.391h-12.3v-3.773H523v7.245a15.009 15.009 0 0 1-.786 5.026 11.709 11.709 0 0 1-2.666 4.141 24.733 24.733 0 0 1-4.98 3.815c-2.073 1.237-4.63 2.6-7.692 4.065zm25.078 14.423v-37.892h4.6v30.547c0 .614-.017 1.237-.042 1.889s-.075 1.291-.125 1.951-.125 1.274-.213 1.864-.163 1.149-.251 1.642z" class="cls-2" transform="translate(-468.774 -237.807)"/>
            <path id="Path_262" d="M524.658 246.6a17.924 17.924 0 0 0 1.68 8.336 11.154 11.154 0 0 0 5.707 4.939l-2.323 3.857a17.226 17.226 0 0 1-4.17-3.38 13.837 13.837 0 0 1-2.758-4.646 15.111 15.111 0 0 1-2.962 4.763 17.783 17.783 0 0 1-5.039 3.677c-.305-.556-.6-1.091-.886-1.617-.3-.506-.589-1.011-.89-1.546a14.605 14.605 0 0 0 3.585-2.549 10.992 10.992 0 0 0 2.194-3.113 13.919 13.919 0 0 0 1.1-3.894 36.259 36.259 0 0 0 .288-4.826v-6.43h4.475zm13.191 21.393c0 .476-.017 1-.046 1.579s-.058 1.174-.1 1.784-.088 1.207-.146 1.83c-.063.6-.13 1.162-.2 1.676H533.5v-22.669h-5.357v-3.852h5.357v-9.493h4.354zm7.914.66c0 .547-.013 1.166-.038 1.83s-.071 1.329-.113 1.989-.088 1.316-.163 1.939a13.63 13.63 0 0 1-.276 1.751h-3.848v-37.895h4.437z" class="cls-2" transform="translate(-443.453 -237.807)"/>
            <path id="Path_263" d="M522.348 245.043h20.565v3.648h-8.006v.882a6.444 6.444 0 0 0 2.369 4.935 12.73 12.73 0 0 0 6.71 2.849l-1.625 3.765a17.329 17.329 0 0 1-5.632-2.227 10.17 10.17 0 0 1-3.723-3.9 10.863 10.863 0 0 1-3.8 4.065 17.112 17.112 0 0 1-6.113 2.4l-1.324-3.15a15.19 15.19 0 0 0 3.84-1.425 9.88 9.88 0 0 0 2.595-2.035 7.247 7.247 0 0 0 1.488-2.494 9.323 9.323 0 0 0 .451-2.875v-.786h-7.792zm5.064-6.886a11.523 11.523 0 0 0 3.017.832 21.172 21.172 0 0 0 3.447.292h4.3v3.4h-4.843c-.56 0-1.124-.033-1.726-.058-.6-.042-1.182-.1-1.763-.171s-1.132-.159-1.646-.267a6.286 6.286 0 0 1-1.3-.418zm2.348 25.467h22.675v8.357c0 .485-.017.99-.058 1.563s-.1 1.132-.167 1.692c-.059.577-.138 1.115-.221 1.629s-.167.94-.255 1.291H547.8v-10.814h-18.04zm11.611-12.982h6.43v-12.025h4.634v22.838H547.8v-6.961h-6.43z" class="cls-2" transform="translate(-415.643 -238.157)"/>
            <path id="Path_264" d="M530.319 261.736a58.783 58.783 0 0 0 6.138-3.305 23.483 23.483 0 0 0 4.1-3.167 10.835 10.835 0 0 0 2.286-3.15 8.1 8.1 0 0 0 .706-3.276v-4.391h-12.315v-3.773h17.031v7.245a15.008 15.008 0 0 1-.777 5.026 11.866 11.866 0 0 1-2.678 4.141 24.654 24.654 0 0 1-4.972 3.815c-2.06 1.237-4.63 2.6-7.7 4.065zm25.074 14.423v-37.892h4.617v30.547c0 .614-.017 1.237-.046 1.889s-.075 1.291-.121 1.951-.13 1.274-.213 1.864-.158 1.149-.251 1.642z" class="cls-2" transform="translate(-388.462 -237.807)"/>
        </g>
    </g>
    <g id="Group_147" transform="translate(106.061 65.353)">
        <g id="Group_146" transform="translate(187.893)">
            <g id="Group_144" transform="translate(80.511 8.987)">
                <g id="Group_143">
                    <path id="Path_265" d="M520.335 260.016a6.567 6.567 0 0 0 .288 2 4.056 4.056 0 0 0 .848 1.529 3.541 3.541 0 0 0 1.437.986 5.194 5.194 0 0 0 2 .343h3.452l-.878 1.738h-3.067a6.4 6.4 0 0 1-2.394-.443 5.749 5.749 0 0 1-1.964-1.274 6.062 6.062 0 0 1-1.325-2.072 7.829 7.829 0 0 1-.476-2.808 7.474 7.474 0 0 1 .468-2.729 6.112 6.112 0 0 1 1.287-2.089 5.4 5.4 0 0 1 1.956-1.3 6.369 6.369 0 0 1 2.448-.455h3.945l-.878 1.726h-2.572a5.314 5.314 0 0 0-1.976.347 4.02 4.02 0 0 0-2.307 2.54 6.321 6.321 0 0 0-.292 1.961z" class="cls-2" transform="translate(-518.258 -253.439)"/>
                    <path id="Path_266" d="M525.664 264.388a5.6 5.6 0 0 1-2.027-.364 4.291 4.291 0 0 1-1.512-1.04 4.493 4.493 0 0 1-.948-1.6 6.237 6.237 0 0 1-.33-2.077 6.336 6.336 0 0 1 .33-2.1 4.14 4.14 0 0 1 .948-1.592 4.315 4.315 0 0 1 1.512-1.028 5.929 5.929 0 0 1 4.066 0 4.41 4.41 0 0 1 1.517 1.028 4.286 4.286 0 0 1 .94 1.592 6.567 6.567 0 0 1 .326 2.1 6.44 6.44 0 0 1-.326 2.093 4.39 4.39 0 0 1-.94 1.592 4.266 4.266 0 0 1-1.517 1.036 5.633 5.633 0 0 1-2.039.36zm0-8.515a2.641 2.641 0 0 0-2.173.915 4.533 4.533 0 0 0 0 4.989 2.625 2.625 0 0 0 2.173.944 2.7 2.7 0 0 0 1.262-.28 2.546 2.546 0 0 0 .915-.748 3.133 3.133 0 0 0 .56-1.074 4.292 4.292 0 0 0 .2-1.316 3.86 3.86 0 0 0-.756-2.515 2.622 2.622 0 0 0-2.181-.916z" class="cls-2" transform="translate(-510.033 -250.95)"/>
                    <path id="Path_267" d="M525.78 266.613a2.054 2.054 0 0 1-2.277-2.361v-10.813h1.855v10.813a.881.881 0 0 0 .138.531.584.584 0 0 0 .485.209h1.149l-.844 1.621z" class="cls-2" transform="translate(-501.588 -253.439)"/>
                    <path id="Path_268" d="M526.97 266.613c-1.521 0-2.273-.786-2.273-2.361v-10.813h1.846v10.813a.827.827 0 0 0 .142.531.562.562 0 0 0 .485.209h1.141l-.832 1.621z" class="cls-2" transform="translate(-497.793 -253.439)"/>
                    <path id="Path_269" d="M533.406 264.125h-3.255a4.825 4.825 0 0 1-1.981-.389 4.173 4.173 0 0 1-1.4-1.082 4.316 4.316 0 0 1-.836-1.558 6.91 6.91 0 0 1 0-3.836 4.1 4.1 0 0 1 .848-1.575 3.9 3.9 0 0 1 1.442-1.065 5 5 0 0 1 2.072-.4 5.154 5.154 0 0 1 2.143.4 3.631 3.631 0 0 1 1.4 1.065 4.061 4.061 0 0 1 .752 1.575 7.935 7.935 0 0 1 .225 1.922v1.032h-7.146a2.663 2.663 0 0 0 .836 1.688 2.566 2.566 0 0 0 1.746.6h3.97zm-3.113-8.244a2.466 2.466 0 0 0-1.964.74 3.049 3.049 0 0 0-.719 1.976h5.265a3.275 3.275 0 0 0-.673-1.976 2.3 2.3 0 0 0-1.908-.74z" class="cls-2" transform="translate(-494.733 -250.95)"/>
                    <path id="Path_270" d="M535.073 263.927h-2.265a5.3 5.3 0 0 1-1.876-.334 3.886 3.886 0 0 1-1.479-.957 4.289 4.289 0 0 1-.974-1.513 5.746 5.746 0 0 1 0-4.032 4.335 4.335 0 0 1 1.011-1.525 4.051 4.051 0 0 1 1.492-.957 5.053 5.053 0 0 1 1.822-.326h3.1l-.831 1.63h-2.11a3.034 3.034 0 0 0-1.216.226 2.742 2.742 0 0 0-.928.673 2.981 2.981 0 0 0-.6 1.024 3.635 3.635 0 0 0-.213 1.27 3.432 3.432 0 0 0 .765 2.294 2.777 2.777 0 0 0 2.189.907h2.94z" class="cls-2" transform="translate(-486.927 -250.753)"/>
                    <path id="Path_271" d="M535.232 266.13h-1.868a3.078 3.078 0 0 1-2.294-.836 3.265 3.265 0 0 1-.823-2.361v-9.343h1.853v2.9h3.9l-.815 1.63H532.1v4.872c0 1 .451 1.492 1.362 1.492h2.6z" class="cls-2" transform="translate(-480.154 -252.956)"/>
                    <path id="Path_272" d="M533.813 253.439v1.661h-1.851v-1.663zm0 3.531v9.643h-1.851v-9.643z" class="cls-2" transform="translate(-474.703 -253.439)"/>
                    <path id="Path_273" d="M537.485 264.388a5.657 5.657 0 0 1-2.035-.364 4.367 4.367 0 0 1-1.513-1.04 4.737 4.737 0 0 1-.944-1.6 6.237 6.237 0 0 1-.326-2.077 6.337 6.337 0 0 1 .326-2.1 4.347 4.347 0 0 1 .944-1.592 4.392 4.392 0 0 1 1.513-1.028 5.567 5.567 0 0 1 2.035-.359 5.482 5.482 0 0 1 2.031.359 4.373 4.373 0 0 1 1.517 1.028 4.3 4.3 0 0 1 .948 1.592 6.556 6.556 0 0 1 .318 2.1 6.431 6.431 0 0 1-.318 2.093 4.4 4.4 0 0 1-.948 1.592 4.231 4.231 0 0 1-1.517 1.036 5.569 5.569 0 0 1-2.031.36zm0-8.515a2.637 2.637 0 0 0-2.181.915 4.555 4.555 0 0 0 0 4.989 2.62 2.62 0 0 0 2.181.944 2.691 2.691 0 0 0 2.177-1.028 3.55 3.55 0 0 0 .564-1.074 4.865 4.865 0 0 0 .188-1.316 3.905 3.905 0 0 0-.752-2.515 2.633 2.633 0 0 0-2.177-.916z" class="cls-2" transform="translate(-472.462 -250.95)"/>
                    <path id="Path_274" d="M540.325 254.284a3.276 3.276 0 0 1 2.319.852 3.239 3.239 0 0 1 .932 2.482v6.309h-1.843v-6.372a1.716 1.716 0 0 0-.447-1.241 1.944 1.944 0 0 0-1.057-.393h-3.079v8.006h-1.826v-9.643z" class="cls-2" transform="translate(-464.021 -250.753)"/>
                </g>
            </g>
            <g id="Group_145">
                <path id="Path_275" d="M520.528 262.628a13.753 13.753 0 0 1-.723 4.563 9.962 9.962 0 0 1-2.1 3.568 9.368 9.368 0 0 1-3.384 2.319 13.248 13.248 0 0 1-9.171 0 9.231 9.231 0 0 1-3.363-2.3 9.9 9.9 0 0 1-2.089-3.535 15.335 15.335 0 0 1 0-9.226 10.1 10.1 0 0 1 2.089-3.589 9.208 9.208 0 0 1 3.363-2.315 13.28 13.28 0 0 1 9.2 0 9.293 9.293 0 0 1 3.368 2.315 10.082 10.082 0 0 1 2.081 3.589 13.968 13.968 0 0 1 .729 4.611zM509.748 271a7.657 7.657 0 0 0 3-.573 6.606 6.606 0 0 0 2.327-1.634 7.207 7.207 0 0 0 1.517-2.616 10.852 10.852 0 0 0 .531-3.552 11.192 11.192 0 0 0-.531-3.606 7.448 7.448 0 0 0-1.5-2.624 6.2 6.2 0 0 0-2.34-1.625 7.864 7.864 0 0 0-3-.547 7.585 7.585 0 0 0-3.008.572 6.388 6.388 0 0 0-2.319 1.638 7.223 7.223 0 0 0-1.5 2.632 12.219 12.219 0 0 0 0 7.124 7.143 7.143 0 0 0 1.521 2.645 6.347 6.347 0 0 0 2.332 1.6 7.642 7.642 0 0 0 2.97.566z" class="cls-2" transform="translate(-498.989 -251.288)"/>
                <path id="Path_276" d="M507.95 251.41v5.8h3a7.983 7.983 0 0 1 3.025.547 6.687 6.687 0 0 1 2.411 1.588 7.369 7.369 0 0 1 1.563 2.478 9.559 9.559 0 0 1-.017 6.585 7.2 7.2 0 0 1-1.6 2.486 7.062 7.062 0 0 1-2.4 1.567 8.032 8.032 0 0 1-2.979.547h-6.075v-21.6zm0 18.932h2.766a4.406 4.406 0 0 0 1.968-.422 4.516 4.516 0 0 0 1.483-1.124 5.017 5.017 0 0 0 .932-1.684 6.685 6.685 0 0 0 .313-2.035 6.547 6.547 0 0 0-.3-2.026 4.568 4.568 0 0 0-.89-1.642 4.411 4.411 0 0 0-1.483-1.116 4.688 4.688 0 0 0-2.018-.422h-2.771z" class="cls-2" transform="translate(-480.282 -250.9)"/>
                <path id="Path_277" d="M512.407 252.8v16.26a2.949 2.949 0 0 1-.46 1.755 1.668 1.668 0 0 1-1.437.648h-1.2l-1.366 2.674h2.87a4.682 4.682 0 0 0 1.847-.359 4.04 4.04 0 0 0 1.475-.994 4.738 4.738 0 0 0 .965-1.584 6.027 6.027 0 0 0 .351-2.139V252.8z" class="cls-2" transform="translate(-470.537 -246.489)"/>
                <path id="Path_278" d="M523.147 268.923h-5.336a7.466 7.466 0 0 1-3.247-.66 6.506 6.506 0 0 1-2.311-1.734 7.4 7.4 0 0 1-1.362-2.57 11.149 11.149 0 0 1 0-6.28 7.093 7.093 0 0 1 1.383-2.59 6.548 6.548 0 0 1 2.369-1.747 8.267 8.267 0 0 1 3.4-.648 8.582 8.582 0 0 1 3.522.648 5.976 5.976 0 0 1 2.277 1.747 6.66 6.66 0 0 1 1.237 2.59 13.157 13.157 0 0 1 .368 3.15v1.688h-11.7a4.394 4.394 0 0 0 1.37 2.774 4.159 4.159 0 0 0 2.862.965h6.5zm-5.106-13.5a4.11 4.11 0 0 0-3.217 1.2 5.056 5.056 0 0 0-1.178 3.23h8.628a5.366 5.366 0 0 0-1.09-3.23 3.867 3.867 0 0 0-3.143-1.2z" class="cls-2" transform="translate(-462.591 -246.816)"/>
                <path id="Path_279" d="M522.818 272.226h-3.062a5.036 5.036 0 0 1-3.756-1.367 5.254 5.254 0 0 1-1.35-3.869v-15.334h3.033v4.772h6.405l-1.341 2.662h-5.064v8.006c0 1.621.744 2.436 2.235 2.436h4.27z" class="cls-2" transform="translate(-449.214 -250.118)"/>
                <path id="Path_280" d="M515.453 251.416h-3.005l-3.438 4.178h3.005z" class="cls-2" transform="translate(-467.139 -250.881)"/>
            </g>
        </g>
        <path id="Rectangle_22" d="M0 0H175.875V1.012H0z" class="cls-2" transform="translate(0 10.997)"/>
    </g>
</svg>
