<svg xmlns="http://www.w3.org/2000/svg" id="logo" width="464" height="107" viewBox="0 0 464 107">
    <defs>
        <style>
            .cls-1{fill:#af0030}.cls-2{fill:#5a5b5e}.cls-3{fill:#313133}
        </style>
    </defs>
    <g id="Group_112">
        <g id="Group_110">
            <g id="Group_102" transform="translate(402.391)">
                <g id="Group_101">
                    <g id="Group_100">
                        <path id="Path_199" d="M535.754 200.628l-.042-.029-.084-.063a53.949 53.949 0 0 0-7.245-3.57s3.191 5.818 4.363 7.015h.008a2.255 2.255 0 0 0 1.656.759 2.3 2.3 0 0 0 2.269-2.294 2.253 2.253 0 0 0-.925-1.818z" class="cls-1" transform="translate(-514.847 -178.82)"/>
                        <path id="Path_200" d="M540.158 195.6l-.008-.008-.046.008a1.449 1.449 0 0 1-.179.042 75.7 75.7 0 0 0-11.374 3.458s9.3 3.045 11.787 3.136a3.442 3.442 0 0 0 2.515-.888 3.351 3.351 0 0 0 .142-4.73 3.287 3.287 0 0 0-2.837-1.018z" class="cls-1" transform="translate(-514.317 -183.246)"/>
                        <path id="Path_201" d="M534.011 194.353h-.021l-.008.029c-.033.046-.062.1-.1.159a77.784 77.784 0 0 0-5.489 10.994s8.884-4.826 10.736-6.619a3.444 3.444 0 1 0-5.113-4.563z" class="cls-1" transform="translate(-514.831 -191.602)"/>
                        <path id="Path_202" d="M527.274 195.759v.029c.016.046.021.092.033.142a62.492 62.492 0 0 0 3.091 9.209s2.256-7.666 2.281-9.7a2.6 2.6 0 0 0-.78-2.014 2.708 2.708 0 0 0-3.854-.012 2.77 2.77 0 0 0-.771 2.346z" class="cls-1" transform="translate(-518.446 -192.615)"/>
                        <path id="Path_203" d="M526.213 198.625l.046.025.117.088a63.461 63.461 0 0 0 8.892 4.813s-3.729-7.441-5.143-9.009a2.874 2.874 0 0 0-2.048-.993 2.849 2.849 0 0 0-1.864 5.076z" class="cls-1" transform="translate(-525.138 -189.659)"/>
                    </g>
                </g>
            </g>
            <g id="Group_104" transform="translate(0 14.88)">
                <g id="Group_103">
                    <path id="Path_204" d="M459.941 226.375h8.951v8.325a25.508 25.508 0 0 1-7.933 1.264c-9.889 0-13.2-5.043-13.2-15.257 0-9.751 3.137-15.486 13.046-15.486 5.51 0 8.638 1.731 11.244 5.038l6.823-6.285c-4.154-5.977-11.453-7.791-18.3-7.791-15.428 0-23.511 8.412-23.511 24.449 0 15.949 7.311 24.591 23.436 24.591 7.366 0 14.6-1.877 18.531-4.621v-23.123h-19.087z" class="cls-2" transform="translate(-401.926 -196.183)"/>
                    <path id="Path_205" d="M439.654 196.352h-11.018v47.626h33.794v-9.262h-22.776z" class="cls-2" transform="translate(-428.636 -195.646)"/>
                </g>
            </g>
            <g id="Group_109" transform="translate(105.639 14.171)">
                <g id="Group_108">
                    <g id="Group_107">
                        <g id="Group_106">
                            <g id="Group_105">
                                <path id="Rectangle_17" d="M0 0H12.303V47.516H0z" class="cls-3" transform="translate(48.911 1.501)"/>
                                <path id="Path_206" d="M495.205 196.055a25.271 25.271 0 1 0 25.267 25.25 25.269 25.269 0 0 0-25.267-25.25zm0 38.455a13.19 13.19 0 1 1 13.2-13.2 13.176 13.176 0 0 1-13.2 13.2z" class="cls-3" transform="translate(-403.302 -195.88)"/>
                                <path id="Path_207" d="M525.792 231.511c0 16.717-21.83 15.3-21.83 15.3-20.241.254-21.379-11.745-21.221-15.411v-1.247H495.3l.008 1.376c-.046 1.727.638 5.359 8.65 5.359 7.67 0 9.3-2.373 9.3-4.88 0-2.982-4.483-4.217-9.3-5.389-3.687-.888-5.935-.951-9.618-2.015-5.218-1.46-10.765-5.43-10.765-13.518 0 0-1.51-14.811 20.383-15.065 0 0 20.454-1.018 20.37 15.319v.367H511.82v-.367c-.379-5.735-7.858-5.376-7.858-5.376-6.707 0-7.849 3.328-7.849 4.759 0 2.669 1.706 4.755 5.71 5.585 0 0 3.537.676 9.664 1.869 6.113 1.18 14.305 4.366 14.305 13.334z" class="cls-3" transform="translate(-362.797 -196.013)"/>
                                <path id="Path_208" d="M474.39 196.373h-20.416v47.518h20.416a23.759 23.759 0 1 0 0-47.518zm-3.32 38.334h-4.8v-29.158h4.8a14.586 14.586 0 0 1 0 29.158z" class="cls-3" transform="translate(-453.974 -194.871)"/>
                            </g>
                        </g>
                    </g>
                </g>
            </g>
            <path id="Path_209" d="M520.587 198.581v3.4a30.254 30.254 0 0 1-.734 7.236 11.192 11.192 0 0 1-3.128 5.309 23.458 23.458 0 0 1-6.828 4.4 121.442 121.442 0 0 1-11.807 4.454l-2.044-5.076q6.306-1.971 10.018-3.529a22.755 22.755 0 0 0 5.656-3.149 7.333 7.333 0 0 0 2.5-3.491 15.832 15.832 0 0 0 .555-4.484h-16.81v-5.072zM530.8 224.79a13.252 13.252 0 0 1 3.062.292 3.947 3.947 0 0 1 1.923.951 3.81 3.81 0 0 1 .989 1.785 12.577 12.577 0 0 1 .275 2.857v13.3h-32.29V224.79zm-20.22 14.16h20.65v-8.029a1.437 1.437 0 0 0-.217-.93 1.179 1.179 0 0 0-.893-.254h-19.54zm26.468-42.6v25.917h-5.873v-25.913z" class="cls-1" transform="translate(-214.966 -180.761)"/>
            <path id="Path_210" d="M525.769 213.609a21.636 21.636 0 0 0 .4 4.479 10.014 10.014 0 0 0 1.672 3.674 18.354 18.354 0 0 0 3.679 3.712q2.409 1.921 6.423 4.58l-3.4 4.513c-1.727-1.155-3.253-2.211-4.571-3.182s-2.44-1.864-3.374-2.686a16.543 16.543 0 0 1-2.281-2.423 12.05 12.05 0 0 1-1.46-2.407 12.1 12.1 0 0 1-1.451 2.694 17.2 17.2 0 0 1-2.315 2.594 40.808 40.808 0 0 1-3.437 2.811q-2 1.483-4.729 3.337l-3.529-4.45q4.085-2.715 6.532-4.73a20.6 20.6 0 0 0 3.77-3.9 10.056 10.056 0 0 0 1.727-3.891 23.8 23.8 0 0 0 .4-4.725v-1.376h-11.373v-5.118h28.265v5.118h-10.948zm4.7-10.827h-15.707v-5.134h15.708zm18.552-6.427v47.739h-5.872v-47.74z" class="cls-1" transform="translate(-178.989 -180.761)"/>
            <path id="Path_211" d="M566.835 222.075l-2.469 4.8h-46.008v-4.8h20.9V218.3h-6.924a14.373 14.373 0 0 1-3.062-.275 3.752 3.752 0 0 1-1.885-.963 3.833 3.833 0 0 1-.963-1.793 12.407 12.407 0 0 1-.271-2.845V196.65H557.5v4.888h-25.6v3.587h24.612v4.755H531.9v2.411a1.33 1.33 0 0 0 .246.934 1.266 1.266 0 0 0 .93.242h26.705l-2.469 4.83H545.2v3.779zm-13.847 8.025a14.683 14.683 0 0 1 3.061.275 3.9 3.9 0 0 1 1.881.968 3.705 3.705 0 0 1 .955 1.823 11.778 11.778 0 0 1 .288 2.878v7.72h-5.693v-7.6a1.329 1.329 0 0 0-.25-.93 1.309 1.309 0 0 0-.922-.238h-27.456V230.1z" class="cls-1" transform="translate(-144.247 -179.822)"/>
        </g>
        <g id="Group_111" transform="translate(423.956 25.107)">
            <path id="Path_212" d="M558.869 206.224a3.305 3.305 0 0 0-1.648-.834 11.14 11.14 0 0 0-2.536-.234h-23.11v4.444h22.555c.388 0 .53.088.58.146.042.033.129.159.129.576v6.415h5.109v-6.511a10.735 10.735 0 0 0-.229-2.4 3.311 3.311 0 0 0-.85-1.602z" class="cls-1" transform="translate(-526.295 -177.958)"/>
            <path id="Path_213" d="M552.6 219.293v-2.573h9.764l2.256-4.4h-22.11c-.409 0-.542-.092-.588-.138s-.129-.175-.129-.588v-1.706H561.8v-4.363h-20V203.1h20.812v-4.463h-25.968v13.059a10.2 10.2 0 0 0 .229 2.377 3.356 3.356 0 0 0 .843 1.568 3.4 3.4 0 0 0 1.652.842 11.539 11.539 0 0 0 2.54.238h5.392v2.573h-16.991v4.4H568.1l2.256-4.4z" class="cls-1" transform="translate(-530.309 -198.635)"/>
        </g>
    </g>
    <g id="Group_117" transform="translate(105.871 79.406)">
        <g id="Group_116" transform="translate(192.278)">
            <g id="Group_114" transform="translate(80.367 8.963)">
                <g id="Group_113">
                    <path id="Path_214" d="M521.463 220.376a6.512 6.512 0 0 0 .279 1.994 4.17 4.17 0 0 0 .855 1.527 3.917 3.917 0 0 0 1.426.993 5.389 5.389 0 0 0 2 .334h3.449l-.872 1.727h-3.061a6.482 6.482 0 0 1-2.4-.438 5.438 5.438 0 0 1-1.956-1.272 5.906 5.906 0 0 1-1.326-2.077 7.817 7.817 0 0 1-.471-2.786 7.533 7.533 0 0 1 .471-2.744 6.011 6.011 0 0 1 1.28-2.06 5.567 5.567 0 0 1 1.952-1.322 6.36 6.36 0 0 1 2.448-.446h3.933l-.872 1.718h-2.577a5.216 5.216 0 0 0-1.969.359 3.9 3.9 0 0 0-1.43 1 4.187 4.187 0 0 0-.868 1.531 6.016 6.016 0 0 0-.291 1.962z" class="cls-3" transform="translate(-519.39 -213.803)"/>
                    <path id="Path_215" d="M526.787 224.738a5.369 5.369 0 0 1-2.027-.367 4.422 4.422 0 0 1-1.51-1.034 4.544 4.544 0 0 1-.943-1.606 6.768 6.768 0 0 1 0-4.171 4.4 4.4 0 0 1 .943-1.589 4.111 4.111 0 0 1 1.51-1.018 5.805 5.805 0 0 1 4.063 0 4.115 4.115 0 0 1 1.51 1.018 4.333 4.333 0 0 1 .938 1.589 6.286 6.286 0 0 1 .329 2.1 6.22 6.22 0 0 1-.329 2.085 4.251 4.251 0 0 1-.938 1.593 4.476 4.476 0 0 1-1.51 1.03 5.383 5.383 0 0 1-2.036.37zm0-8.508a2.622 2.622 0 0 0-2.164.922 3.852 3.852 0 0 0-.751 2.511 3.8 3.8 0 0 0 .751 2.461 2.589 2.589 0 0 0 2.164.943 2.765 2.765 0 0 0 1.268-.275 2.481 2.481 0 0 0 .9-.742 3.081 3.081 0 0 0 .563-1.076 4.565 4.565 0 0 0 .192-1.31 3.853 3.853 0 0 0-.755-2.511 2.6 2.6 0 0 0-2.168-.924z" class="cls-3" transform="translate(-511.184 -211.32)"/>
                    <path id="Path_216" d="M526.9 226.949c-1.518 0-2.269-.78-2.269-2.352V213.8h1.84v10.8a.916.916 0 0 0 .146.538.551.551 0 0 0 .484.2h1.143l-.838 1.614z" class="cls-3" transform="translate(-502.756 -213.803)"/>
                    <path id="Path_217" d="M528.105 226.949c-1.523 0-2.277-.78-2.277-2.352V213.8h1.848v10.8a.859.859 0 0 0 .142.538.542.542 0 0 0 .484.2h1.138l-.83 1.614z" class="cls-3" transform="translate(-498.976 -213.803)"/>
                    <path id="Path_218" d="M534.525 224.467h-3.249a4.624 4.624 0 0 1-1.981-.4 3.912 3.912 0 0 1-1.4-1.059 4.608 4.608 0 0 1-.83-1.564 6.442 6.442 0 0 1-.271-1.906 6.538 6.538 0 0 1 .271-1.914 4.5 4.5 0 0 1 .843-1.581 4.117 4.117 0 0 1 1.443-1.064 5.1 5.1 0 0 1 2.065-.392 5.34 5.34 0 0 1 2.148.392 3.786 3.786 0 0 1 1.385 1.064 4.211 4.211 0 0 1 .755 1.581 8.093 8.093 0 0 1 .225 1.914v1.03H528.8a2.631 2.631 0 0 0 .826 1.685 2.572 2.572 0 0 0 1.752.6h3.954zm-3.111-8.221a2.539 2.539 0 0 0-1.952.726 3.07 3.07 0 0 0-.722 1.981h5.255a3.32 3.32 0 0 0-.672-1.981 2.393 2.393 0 0 0-1.91-.726z" class="cls-3" transform="translate(-495.92 -211.32)"/>
                    <path id="Path_219" d="M536.185 224.27h-2.248a4.987 4.987 0 0 1-1.877-.325 3.929 3.929 0 0 1-1.481-.955 4.433 4.433 0 0 1-.976-1.506 5.5 5.5 0 0 1-.354-2.019 5.23 5.23 0 0 1 .363-2.006 4.465 4.465 0 0 1 1.005-1.522 4.373 4.373 0 0 1 1.493-.959 5.147 5.147 0 0 1 1.827-.33h3.086l-.838 1.623h-2.106a2.994 2.994 0 0 0-1.209.238 2.735 2.735 0 0 0-.926.659 3.16 3.16 0 0 0-.6 1.018 3.716 3.716 0 0 0-.213 1.28 3.372 3.372 0 0 0 .772 2.294 2.741 2.741 0 0 0 2.173.9h2.944z" class="cls-3" transform="translate(-488.129 -211.124)"/>
                    <path id="Path_220" d="M536.347 226.474h-1.864a3.06 3.06 0 0 1-2.282-.83 3.22 3.22 0 0 1-.822-2.357v-9.334h1.848v2.9h3.891l-.809 1.623h-3.082v4.88c0 .984.45 1.472 1.36 1.472h2.594z" class="cls-3" transform="translate(-481.372 -213.327)"/>
                    <path id="Path_221" d="M534.936 213.8v1.668h-1.843V213.8zm0 3.524v9.622h-1.843v-9.622z" class="cls-3" transform="translate(-475.941 -213.803)"/>
                    <path id="Path_222" d="M538.614 224.738a5.313 5.313 0 0 1-2.031-.367 4.483 4.483 0 0 1-1.514-1.034 4.542 4.542 0 0 1-.943-1.606 6.763 6.763 0 0 1 0-4.171 4.4 4.4 0 0 1 .943-1.589 4.165 4.165 0 0 1 1.514-1.018 5.793 5.793 0 0 1 4.058 0 4.03 4.03 0 0 1 1.506 1.018 4.405 4.405 0 0 1 .947 1.589 6.288 6.288 0 0 1 .325 2.1 6.221 6.221 0 0 1-.325 2.085 4.32 4.32 0 0 1-.947 1.593 4.376 4.376 0 0 1-1.506 1.03 5.353 5.353 0 0 1-2.027.37zm0-8.508a2.628 2.628 0 0 0-2.173.922 3.875 3.875 0 0 0-.751 2.511 3.823 3.823 0 0 0 .751 2.461 2.6 2.6 0 0 0 2.173.943 2.729 2.729 0 0 0 1.26-.275 2.558 2.558 0 0 0 .913-.742 3.213 3.213 0 0 0 .555-1.076 4.419 4.419 0 0 0 .192-1.31 3.9 3.9 0 0 0-.746-2.511 2.634 2.634 0 0 0-2.174-.924z" class="cls-3" transform="translate(-473.708 -211.32)"/>
                    <path id="Path_223" d="M541.443 214.648a3.274 3.274 0 0 1 2.315.851 3.226 3.226 0 0 1 .934 2.482v6.289h-1.843v-6.36a1.673 1.673 0 0 0-.45-1.23 1.787 1.787 0 0 0-1.055-.375h-3.057v7.966h-1.831v-9.622z" class="cls-3" transform="translate(-465.28 -211.124)"/>
                </g>
            </g>
            <g id="Group_115">
                <path id="Path_224" d="M521.617 222.969a13.638 13.638 0 0 1-.722 4.554 9.763 9.763 0 0 1-2.094 3.562 9.211 9.211 0 0 1-3.374 2.311 13.43 13.43 0 0 1-9.159 0 9.2 9.2 0 0 1-3.358-2.3 9.94 9.94 0 0 1-2.077-3.533 15.208 15.208 0 0 1 0-9.2 10.293 10.293 0 0 1 2.077-3.587 9.2 9.2 0 0 1 3.358-2.3 13.317 13.317 0 0 1 9.188 0 9.151 9.151 0 0 1 3.362 2.3 10.1 10.1 0 0 1 2.077 3.587 13.877 13.877 0 0 1 .722 4.606zm-10.752 8.358a7.656 7.656 0 0 0 2.978-.571 6.56 6.56 0 0 0 2.332-1.627 7.38 7.38 0 0 0 1.514-2.623 10.984 10.984 0 0 0 .53-3.537 11.256 11.256 0 0 0-.53-3.591 7.614 7.614 0 0 0-1.489-2.632 6.491 6.491 0 0 0-2.336-1.614 7.827 7.827 0 0 0-3-.546 7.536 7.536 0 0 0-3.007.563 6.453 6.453 0 0 0-2.315 1.631 7.3 7.3 0 0 0-1.5 2.632 12.228 12.228 0 0 0 0 7.119 6.977 6.977 0 0 0 1.514 2.624 6.452 6.452 0 0 0 2.327 1.61 7.808 7.808 0 0 0 2.982.563z" class="cls-3" transform="translate(-500.121 -211.654)"/>
                <path id="Path_225" d="M509.069 211.773v5.793h3a8.359 8.359 0 0 1 3.024.546 6.6 6.6 0 0 1 2.4 1.589 7.169 7.169 0 0 1 1.56 2.469 8.7 8.7 0 0 1 .571 3.249 8.993 8.993 0 0 1-.584 3.341 7.313 7.313 0 0 1-1.6 2.469 6.906 6.906 0 0 1-2.4 1.564 8.2 8.2 0 0 1-2.974.551h-6.06v-21.571zm0 18.91h2.765a4.507 4.507 0 0 0 1.96-.417 4.259 4.259 0 0 0 1.476-1.139 4.839 4.839 0 0 0 .939-1.672 6.583 6.583 0 0 0 .317-2.035 6.714 6.714 0 0 0-.3-2.01 4.6 4.6 0 0 0-.909-1.647 4.481 4.481 0 0 0-1.477-1.118 4.682 4.682 0 0 0-2.01-.413h-2.765z" class="cls-3" transform="translate(-481.455 -211.277)"/>
                <path id="Path_226" d="M513.536 213.162v16.254a2.992 2.992 0 0 1-.463 1.735 1.66 1.66 0 0 1-1.431.642h-1.209l-1.36 2.673h2.861a4.719 4.719 0 0 0 1.848-.355 4.161 4.161 0 0 0 1.472-1 4.613 4.613 0 0 0 .959-1.581 6.029 6.029 0 0 0 .359-2.115v-16.253z" class="cls-3" transform="translate(-471.736 -206.872)"/>
                <path id="Path_227" d="M524.252 229.267h-5.326a7.494 7.494 0 0 1-3.237-.651 6.591 6.591 0 0 1-2.3-1.743 7.256 7.256 0 0 1-1.364-2.573 10.486 10.486 0 0 1-.45-3.12 10.7 10.7 0 0 1 .45-3.145 7.009 7.009 0 0 1 1.385-2.582 6.675 6.675 0 0 1 2.361-1.752 8.152 8.152 0 0 1 3.4-.642 8.474 8.474 0 0 1 3.516.642 6.12 6.12 0 0 1 2.269 1.752 6.885 6.885 0 0 1 1.239 2.582 13.332 13.332 0 0 1 .359 3.145v1.693h-11.686a4.379 4.379 0 0 0 1.364 2.761 4.153 4.153 0 0 0 2.861.972h6.494zm-5.088-13.48a4.087 4.087 0 0 0-3.216 1.2 5.082 5.082 0 0 0-1.184 3.224h8.625a5.368 5.368 0 0 0-1.1-3.224 3.84 3.84 0 0 0-3.125-1.2z" class="cls-3" transform="translate(-463.809 -207.199)"/>
                <path id="Path_228" d="M523.939 232.561h-3.062a5.058 5.058 0 0 1-3.745-1.368 5.317 5.317 0 0 1-1.351-3.871v-15.3h3.032v4.763h6.39l-1.335 2.665h-5.055v7.975q0 2.434 2.232 2.436h4.255z" class="cls-3" transform="translate(-450.466 -210.494)"/>
                <path id="Path_229" d="M516.576 211.779h-3l-3.433 4.171h3z" class="cls-3" transform="translate(-468.349 -211.257)"/>
            </g>
        </g>
        <path id="Rectangle_18" d="M0 0H180.275V1.026H0z" class="cls-3" transform="translate(0 10.966)"/>
    </g>
</svg>
