<svg xmlns="http://www.w3.org/2000/svg" id="logo" width="423" height="93" viewBox="0 0 423 93">
    <defs>
        <style>
            .cls-1{fill:#5a5b5e}.cls-2{fill:#313133}
        </style>
    </defs>
    <g id="Group_127">
        <g id="Group_120" transform="translate(0 0.72)">
            <g id="Group_119">
                <path id="Path_230" d="M635.479 228.921h8.99v8.35a25.744 25.744 0 0 1-7.968 1.265c-9.928 0-13.253-5.071-13.253-15.3 0-9.807 3.149-15.548 13.09-15.548 5.535 0 8.668 1.729 11.3 5.046l6.842-6.31c-4.17-5.98-11.494-7.805-18.374-7.805-15.485 0-23.591 8.446-23.591 24.542 0 16 7.34 24.68 23.516 24.68 7.407 0 14.652-1.9 18.6-4.648v-23.2h-19.152z" class="cls-1" transform="translate(-577.243 -198.617)"/>
                <path id="Path_231" d="M615.161 198.785h-11.072v47.8h33.928v-9.3h-22.856z" class="cls-1" transform="translate(-604.089 -198.081)"/>
            </g>
        </g>
        <g id="Group_125" transform="translate(105.926)">
            <g id="Group_124">
                <g id="Group_123">
                    <g id="Group_122">
                        <g id="Group_121">
                            <path id="Rectangle_19" d="M0 0H12.364V47.692H0z" class="cls-2" transform="translate(49.084 1.514)"/>
                            <path id="Path_232" d="M670.734 198.489a25.361 25.361 0 1 0 25.366 25.333 25.354 25.354 0 0 0-25.366-25.333zm0 38.6a13.234 13.234 0 1 1 13.257-13.27 13.24 13.24 0 0 1-13.257 13.273z" class="cls-2" transform="translate(-578.492 -198.305)"/>
                            <path id="Path_233" d="M701.4 234.079c0 16.783-21.9 15.355-21.9 15.355-20.334.268-21.469-11.775-21.322-15.464v-1.248h12.6l.021 1.369c-.042 1.742.653 5.389 8.7 5.389 7.692 0 9.325-2.4 9.325-4.908 0-2.981-4.5-4.229-9.325-5.4-3.714-.9-5.971-.95-9.66-2.014-5.243-1.482-10.812-5.452-10.812-13.588 0 0-1.511-14.844 20.472-15.116 0 0 20.522-1.005 20.43 15.38v.373h-12.553v-.373c-.385-5.741-7.876-5.393-7.876-5.393-6.746 0-7.9 3.333-7.9 4.782 0 2.676 1.721 4.761 5.749 5.59 0 0 3.534.691 9.689 1.889 6.134 1.175 14.362 4.357 14.362 13.377z" class="cls-2" transform="translate(-537.801 -198.445)"/>
                            <path id="Path_234" d="M649.911 198.807h-20.489V246.5h20.489a23.845 23.845 0 1 0 0-47.69zm-3.333 38.469h-4.808v-29.261h4.807a14.637 14.637 0 0 1 0 29.261z" class="cls-2" transform="translate(-629.422 -197.292)"/>
                        </g>
                    </g>
                </g>
            </g>
        </g>
        <g id="Group_126" transform="translate(282.741 10.97)">
            <path id="Path_235" d="M683.3 218.978h2.529a36.73 36.73 0 0 0 5.632-.423 16.762 16.762 0 0 0 5.134-1.621v-15.87h4.61v9.849h6.067v3.7h-6.067v3.9c0 .415-.025.879-.063 1.407s-.088 1.068-.146 1.6-.13 1.085-.214 1.6c-.08.532-.155.976-.251 1.369H696.6v-4.15a14.63 14.63 0 0 1-4.7 1.746 26.037 26.037 0 0 1-5.226.549H671.7v-3.66h7.114v-7.152h4.486zm9.1-11.385a25.964 25.964 0 0 1-.381 4.363 15.639 15.639 0 0 1-1.2 3.978l-4.029-.578a14.989 14.989 0 0 0 .783-3.3 25.46 25.46 0 0 0 .209-3.22v-2.45h-14.16v-3.66h18.784zm9.166 25.384A7.765 7.765 0 0 1 701 236a6.535 6.535 0 0 1-1.851 2.5 9.315 9.315 0 0 1-3.258 1.708 16.279 16.279 0 0 1-4.82.628 16.077 16.077 0 0 1-4.794-.628 9.146 9.146 0 0 1-3.224-1.708 6.5 6.5 0 0 1-1.809-2.5 8.066 8.066 0 0 1-.553-3.027 7.949 7.949 0 0 1 .553-2.99 6.438 6.438 0 0 1 1.809-2.5 9.23 9.23 0 0 1 3.224-1.725 15.639 15.639 0 0 1 4.794-.645 15.835 15.835 0 0 1 4.82.645 9.4 9.4 0 0 1 3.258 1.725 6.472 6.472 0 0 1 1.851 2.5 7.652 7.652 0 0 1 .572 2.994zm-4.639 0a3.863 3.863 0 0 0-1.5-3.262 8.668 8.668 0 0 0-8.6 0 3.846 3.846 0 0 0-1.491 3.262 3.9 3.9 0 0 0 1.491 3.35 9.015 9.015 0 0 0 8.6 0 3.921 3.921 0 0 0 1.506-3.35z" class="cls-2" transform="translate(-671.7 -201.065)"/>
            <path id="Path_236" d="M680.531 203.523h20.69v3.7h-3.576v9.849c0 .842-.021 1.738-.071 2.655a12.363 12.363 0 0 1-.427 2.538h.3a17.416 17.416 0 0 0 3.886-.448 15.7 15.7 0 0 0 3.3-1.139v-19.613h4.6v11.469h6.068v3.866h-6.068v15.3c0 .595-.017 1.244-.042 1.876-.029.657-.071 1.319-.13 1.955-.05.657-.122 1.281-.2 1.868-.092.59-.167 1.139-.255 1.646h-3.978v-14.916a13.694 13.694 0 0 1-3.45 1.373 17.852 17.852 0 0 1-4.413.528h-16.519v-3.764h4.024v-15.041h-3.739zm8.144 18.743h4.568v-15.041h-4.568z" class="cls-2" transform="translate(-644.461 -201.065)"/>
            <path id="Path_237" d="M688.588 227.615h14.794v-7.194a13.81 13.81 0 0 1-4.279-1.135 9.018 9.018 0 0 1-2.906-2.106 8.04 8.04 0 0 1-1.662-2.843 10.275 10.275 0 0 1-.548-3.388 10.067 10.067 0 0 1 .67-3.651 8.1 8.1 0 0 1 2.081-3.073 10.175 10.175 0 0 1 3.627-2.127 18.662 18.662 0 0 1 10.7 0 10.322 10.322 0 0 1 3.681 2.127 7.958 7.958 0 0 1 2.1 3.073 10.067 10.067 0 0 1 .67 3.651 10.734 10.734 0 0 1-.536 3.388 8.046 8.046 0 0 1-1.692 2.843 9.259 9.259 0 0 1-2.927 2.106 13.9 13.9 0 0 1-4.284 1.135v7.194h14.743v3.861h-34.232zm10.1-16.682q0 5.923 7.022 5.921 7.11 0 7.11-5.921 0-5.753-7.11-5.753-7.02-.001-7.026 5.752z" class="cls-2" transform="translate(-617.872 -200.271)"/>
            <path id="Path_238" d="M731.281 224.3h-34.269v-3.865h34.269zm-5.181 15.208h-20.571a3.043 3.043 0 0 1-2.1-.687 2.723 2.723 0 0 1-.77-2.14v-9.254h4.61v7.629c0 .306.042.494.13.574a1.155 1.155 0 0 0 .582.1H726.1zm-.7-22.6h-19.913a2.448 2.448 0 0 1-1.914-.67 3.023 3.023 0 0 1-.578-2.018v-12.963h4.568v4.393h13.215v-4.393h4.614zm-4.614-3.777v-3.869h-13.222v3.2c0 .314.05.5.143.557a1.145 1.145 0 0 0 .6.113z" class="cls-2" transform="translate(-591.022 -200.453)"/>
        </g>
    </g>
    <g id="Group_132" transform="translate(105.745 65.305)">
        <g id="Group_131" transform="translate(151.646)">
            <g id="Group_129" transform="translate(80.682 8.994)">
                <g id="Group_128">
                    <path id="Path_239" d="M686.991 222.792a6.524 6.524 0 0 0 .289 2 4.047 4.047 0 0 0 .854 1.537 3.883 3.883 0 0 0 1.432.992 5.6 5.6 0 0 0 2.014.343h3.463l-.88 1.725h-3.078a6.314 6.314 0 0 1-2.4-.435 5.725 5.725 0 0 1-1.968-1.277 5.822 5.822 0 0 1-1.327-2.085 8.381 8.381 0 0 1-.009-5.552 6.17 6.17 0 0 1 1.29-2.073 5.566 5.566 0 0 1 1.96-1.319 6.559 6.559 0 0 1 2.454-.461h3.957l-.88 1.729h-2.582a4.974 4.974 0 0 0-1.981.368 3.781 3.781 0 0 0-1.432 1 4.191 4.191 0 0 0-.879 1.533 6.2 6.2 0 0 0-.297 1.975z" class="cls-2" transform="translate(-684.914 -216.189)"/>
                    <path id="Path_240" d="M692.331 227.161a5.3 5.3 0 0 1-2.035-.369 4 4 0 0 1-1.52-1.043 4.309 4.309 0 0 1-.946-1.6 6.261 6.261 0 0 1-.327-2.077 6.464 6.464 0 0 1 .327-2.11 4.428 4.428 0 0 1 .946-1.591 4.313 4.313 0 0 1 1.52-1.026 5.3 5.3 0 0 1 2.035-.368 5.229 5.229 0 0 1 2.031.368 4.187 4.187 0 0 1 2.466 2.617 6.25 6.25 0 0 1 .331 2.11 6.1 6.1 0 0 1-.331 2.094 4.1 4.1 0 0 1-.942 1.6 3.961 3.961 0 0 1-1.524 1.034 5.229 5.229 0 0 1-2.031.361zm0-8.534a2.637 2.637 0 0 0-2.182.925 3.863 3.863 0 0 0-.754 2.517 3.815 3.815 0 0 0 .754 2.47 2.61 2.61 0 0 0 2.182.955 2.8 2.8 0 0 0 1.265-.285 2.63 2.63 0 0 0 .917-.741 3.2 3.2 0 0 0 .553-1.093 4.066 4.066 0 0 0 .2-1.306 3.887 3.887 0 0 0-.754-2.517 2.627 2.627 0 0 0-2.181-.925z" class="cls-2" transform="translate(-676.662 -213.69)"/>
                    <path id="Path_241" d="M692.446 229.392a2.049 2.049 0 0 1-2.287-2.353v-10.85h1.859v10.849a.973.973 0 0 0 .134.54.6.6 0 0 0 .494.2h1.143l-.837 1.616z" class="cls-2" transform="translate(-668.196 -216.189)"/>
                    <path id="Path_242" d="M693.627 229.392c-1.524 0-2.274-.779-2.274-2.353v-10.85h1.847v10.849a.909.909 0 0 0 .142.54.578.578 0 0 0 .49.2h1.139l-.833 1.616z" class="cls-2" transform="translate(-664.391 -216.189)"/>
                    <path id="Path_243" d="M700.078 226.893h-3.258a4.842 4.842 0 0 1-1.989-.381 4.071 4.071 0 0 1-1.4-1.084 4.43 4.43 0 0 1-.837-1.562 6.709 6.709 0 0 1 0-3.84 4.375 4.375 0 0 1 .842-1.579 3.934 3.934 0 0 1 1.449-1.08 5.126 5.126 0 0 1 2.073-.394 5.312 5.312 0 0 1 2.152.394 3.579 3.579 0 0 1 1.394 1.08 4.162 4.162 0 0 1 .758 1.579 8.249 8.249 0 0 1 .226 1.922v1.026h-7.156a2.661 2.661 0 0 0 .837 1.7 2.582 2.582 0 0 0 1.755.6h3.97zm-3.12-8.245a2.54 2.54 0 0 0-1.96.729 3.126 3.126 0 0 0-.724 1.981h5.272a3.3 3.3 0 0 0-.666-1.981 2.4 2.4 0 0 0-1.921-.729z" class="cls-2" transform="translate(-661.324 -213.69)"/>
                    <path id="Path_244" d="M701.741 226.692h-2.265a5.033 5.033 0 0 1-1.876-.327 3.816 3.816 0 0 1-1.491-.951 4.646 4.646 0 0 1-.984-1.516 5.491 5.491 0 0 1-.352-2.031 5.215 5.215 0 0 1 .369-2.014 4.21 4.21 0 0 1 1.005-1.528 4.419 4.419 0 0 1 1.5-.967 5.388 5.388 0 0 1 1.83-.322h3.1l-.838 1.637h-2.119a2.885 2.885 0 0 0-1.215.23 2.743 2.743 0 0 0-.933.666 3.106 3.106 0 0 0-.595 1.013 3.744 3.744 0 0 0-.209 1.286 3.35 3.35 0 0 0 .77 2.3 2.718 2.718 0 0 0 2.182.909h2.956z" class="cls-2" transform="translate(-653.49 -213.489)"/>
                    <path id="Path_245" d="M701.9 228.91h-1.88a3.113 3.113 0 0 1-2.286-.829 3.237 3.237 0 0 1-.833-2.37v-9.371h1.864v2.914h3.911l-.817 1.637h-3.094v4.878c0 1 .448 1.487 1.365 1.487h2.6z" class="cls-2" transform="translate(-646.704 -215.708)"/>
                    <path id="Path_246" d="M700.476 216.189v1.667h-1.859v-1.667zm0 3.547v9.656h-1.859v-9.656z" class="cls-2" transform="translate(-641.238 -216.189)"/>
                    <path id="Path_247" d="M704.151 227.161a5.25 5.25 0 0 1-2.035-.369 4.014 4.014 0 0 1-1.524-1.043 4.433 4.433 0 0 1-.946-1.6 6.269 6.269 0 0 1-.323-2.077 6.472 6.472 0 0 1 .323-2.11 4.56 4.56 0 0 1 .946-1.591 4.335 4.335 0 0 1 1.524-1.026 5.8 5.8 0 0 1 4.07 0 4.355 4.355 0 0 1 1.52 1.026 4.433 4.433 0 0 1 .946 1.591 6.465 6.465 0 0 1 .331 2.11 6.309 6.309 0 0 1-.331 2.094 4.213 4.213 0 0 1-.946 1.6 4.011 4.011 0 0 1-1.52 1.034 5.279 5.279 0 0 1-2.035.361zm0-8.534a2.632 2.632 0 0 0-2.181.925 3.837 3.837 0 0 0-.754 2.517 3.789 3.789 0 0 0 .754 2.47 2.6 2.6 0 0 0 2.181.955 2.754 2.754 0 0 0 1.26-.285 2.607 2.607 0 0 0 .921-.741 3.133 3.133 0 0 0 .553-1.093 4.183 4.183 0 0 0 .2-1.306 3.885 3.885 0 0 0-.75-2.517 2.633 2.633 0 0 0-2.184-.925z" class="cls-2" transform="translate(-638.988 -213.69)"/>
                    <path id="Path_248" d="M706.987 217.036a3.081 3.081 0 0 1 3.262 3.346v6.31H708.4v-6.382a1.636 1.636 0 0 0-.452-1.231 1.68 1.68 0 0 0-1.055-.381h-3.078v7.994h-1.834v-9.656z" class="cls-2" transform="translate(-630.522 -213.489)"/>
                </g>
            </g>
            <g id="Group_130">
                <path id="Path_249" d="M687.223 225.4a14.058 14.058 0 0 1-.716 4.585 10.129 10.129 0 0 1-2.115 3.572 9.312 9.312 0 0 1-3.383 2.32 12.063 12.063 0 0 1-4.581.821 12.186 12.186 0 0 1-4.61-.821 9.4 9.4 0 0 1-3.375-2.3 10.119 10.119 0 0 1-2.086-3.555 15.343 15.343 0 0 1 0-9.237 10.249 10.249 0 0 1 2.086-3.593 9.308 9.308 0 0 1 3.375-2.332 13.5 13.5 0 0 1 9.225 0 9.218 9.218 0 0 1 3.371 2.332 10.2 10.2 0 0 1 2.094 3.593 14.228 14.228 0 0 1 .715 4.615zm-10.8 8.387a7.842 7.842 0 0 0 2.994-.553 6.848 6.848 0 0 0 2.341-1.65 7.455 7.455 0 0 0 1.516-2.621 10.975 10.975 0 0 0 .532-3.563 11.186 11.186 0 0 0-.532-3.6 7.239 7.239 0 0 0-1.5-2.634 6.283 6.283 0 0 0-2.336-1.637 7.977 7.977 0 0 0-3.011-.549 7.683 7.683 0 0 0-3.019.569 6.563 6.563 0 0 0-2.324 1.641 7.446 7.446 0 0 0-1.507 2.63 12.394 12.394 0 0 0 0 7.156 7.109 7.109 0 0 0 1.532 2.638 6.406 6.406 0 0 0 2.332 1.616 7.828 7.828 0 0 0 2.987.554z" class="cls-2" transform="translate(-665.646 -214.041)"/>
                <path id="Path_250" d="M674.609 214.161v5.816h3.011a8.013 8.013 0 0 1 3.032.553 6.717 6.717 0 0 1 2.412 1.583 7.423 7.423 0 0 1 1.575 2.487 8.988 8.988 0 0 1 .565 3.266 9.084 9.084 0 0 1-.586 3.341 7.221 7.221 0 0 1-1.6 2.483 7.134 7.134 0 0 1-2.4 1.574 8.175 8.175 0 0 1-2.99.549h-6.088v-21.652zm0 18.981h2.776a4.342 4.342 0 0 0 1.968-.427 4.5 4.5 0 0 0 1.487-1.126 4.855 4.855 0 0 0 .938-1.687 6.86 6.86 0 0 0 .012-4.062 4.53 4.53 0 0 0-.9-1.654 4.288 4.288 0 0 0-1.482-1.114 4.628 4.628 0 0 0-2.018-.423h-2.776z" class="cls-2" transform="translate(-646.889 -213.659)"/>
                <path id="Path_251" d="M679.073 215.55v16.293a2.983 2.983 0 0 1-.461 1.763 1.681 1.681 0 0 1-1.441.653h-1.2l-1.374 2.667h2.877a4.773 4.773 0 0 0 1.859-.348 4.2 4.2 0 0 0 1.469-1 4.735 4.735 0 0 0 .963-1.587 5.832 5.832 0 0 0 .352-2.144V215.55z" class="cls-2" transform="translate(-637.116 -209.231)"/>
                <path id="Path_252" d="M689.83 231.71h-5.347a7.632 7.632 0 0 1-3.253-.645 6.456 6.456 0 0 1-2.3-1.759 7.124 7.124 0 0 1-1.378-2.567 10.814 10.814 0 0 1-.456-3.136 10.931 10.931 0 0 1 .456-3.166 7.166 7.166 0 0 1 1.39-2.584 6.609 6.609 0 0 1 2.37-1.754 8.261 8.261 0 0 1 3.408-.653 8.488 8.488 0 0 1 3.522.653 6.02 6.02 0 0 1 2.286 1.754 6.768 6.768 0 0 1 1.239 2.584 13.015 13.015 0 0 1 .368 3.166v1.7h-11.727a4.432 4.432 0 0 0 1.365 2.768 4.164 4.164 0 0 0 2.881.976h6.511zm-5.109-13.521a4.121 4.121 0 0 0-3.224 1.2 5.067 5.067 0 0 0-1.185 3.237h8.655a5.43 5.43 0 0 0-1.106-3.237 3.873 3.873 0 0 0-3.14-1.2z" class="cls-2" transform="translate(-629.151 -209.563)"/>
                <path id="Path_253" d="M689.489 235.015h-3.074a5.159 5.159 0 0 1-3.76-1.353 5.333 5.333 0 0 1-1.348-3.89v-15.363h3.036v4.778h6.423l-1.344 2.671h-5.079v8.015c0 1.625.745 2.441 2.244 2.441h4.271z" class="cls-2" transform="translate(-615.729 -212.868)"/>
                <path id="Path_254" d="M682.123 214.168h-3.014l-3.443 4.191h3.007z" class="cls-2" transform="translate(-633.709 -213.636)"/>
            </g>
        </g>
        <path id="Rectangle_20" d="M0 0H139.593V1.035H0z" class="cls-2" transform="translate(0 11.008)"/>
    </g>
</svg>
