<svg xmlns="http://www.w3.org/2000/svg" id="logo" width="598" height="120" viewBox="0 0 598 120">
    <defs>
        <style>
            .cls-1{fill:#5a5b5e}.cls-2{fill:#313133}.cls-3{fill:#323233}
        </style>
    </defs>
    <g id="Group_232">
        <g id="Group_231">
            <g id="Group_226" transform="translate(0 17.479)">
                <g id="Group_225">
                    <path id="Path_451" d="M635.491 326.549h9.009v8.366a25.806 25.806 0 0 1-7.981 1.266c-9.938 0-13.266-5.063-13.266-15.316 0-9.812 3.144-15.559 13.111-15.559 5.529 0 8.677 1.744 11.292 5.059l6.853-6.308c-4.166-6-11.51-7.834-18.376-7.834-15.5 0-23.628 8.446-23.628 24.57 0 16.024 7.352 24.7 23.544 24.7 7.4 0 14.675-1.9 18.615-4.653v-23.211h-19.173z" class="cls-1" transform="translate(-577.218 -296.223)"/>
                    <path id="Path_452" d="M615.156 296.393h-11.067v47.85h33.956v-9.316h-22.889z" class="cls-1" transform="translate(-604.089 -295.682)"/>
                </g>
            </g>
            <g id="Group_230" transform="translate(106.163)">
                <g id="Group_229">
                    <g id="Group_227" transform="translate(286.387)">
                        <path id="Path_453" d="M741.307 358.075c-10.563 0-16.619-6.065-16.619-16.577v-49.452h10.571V341.4c0 3.8 1.928 6.187 6.048 6.187l2.171.054v10.437z" class="cls-2" transform="translate(-611.748 -292.046)"/>
                        <path id="Path_454" d="M715.446 357.918v-10.026s1.861.012 2.808.012c9.1 0 12.315-11.288 13.1-13.941l-18.392-36.437h12.172L737 322.906l10.617-25.38h11.64s-20.153 44.79-22.487 49.049a24.634 24.634 0 0 1-4.628 6.183c-4.514 4.246-9.59 5.223-14.465 5.223-.6 0-2.23-.063-2.23-.063" class="cls-2" transform="translate(-649.165 -274.61)"/>
                        <path id="Path_455" d="M729.116 338.232c-1.308 0-5.541-.637-5.541-5.424v-17.813h7.05v-9.754h-7.05V295.11h-10.412v10.131h-6.773v9.754h6.79v17.789c0 9.414 6.245 15.513 15.936 15.513h2.138v-10.04z" class="cls-2" transform="translate(-670.146 -282.292)"/>
                        <path id="Path_456" d="M708.721 309.872c0-1.832 1.953-3.894 5.4-3.894 4.246 0 6.015 1.459 7.26 4.531l8.84-1.748h.042c-1.84-9.812-10.856-11.6-16.7-11.6-10.273 0-15.286 6.807-15.286 12.939 0 15.773 23.074 11.816 23.074 18.87 0 1.563-1.232 3.806-5.923 3.806-5.269 0-7.067-2.263-7.419-5.8h-10.266c.281 11.233 9.9 14.557 17.374 14.557 5.47 0 16.615-2.037 16.615-12.843 0-14.49-23.011-11.095-23.011-18.816" class="cls-2" transform="translate(-697.743 -275.759)"/>
                        <path id="Path_457" d="M740.737 341.383v-43.055h10.433v3.852a8.14 8.14 0 0 1 7.49-4.9 9.92 9.92 0 0 1 7.318 3.068l-5.078 9.762a5.7 5.7 0 0 0-4.749-2.481c-3.554 0-4.984 3.026-4.984 11.074v22.68z" class="cls-2" transform="translate(-560.527 -275.386)"/>
                        <path id="Path_458" d="M750.357 306.551c5.839 0 8.253 3.366 9.636 7.406h-19.658c1.14-3.94 4.028-7.406 10.022-7.406m8.949 20.58c-1.354 3.194-4.728 4.828-8.442 4.828-6.279 0-9.745-4.053-10.7-8.945h30.544l.155-2.075c.365-6.962-3.068-23.745-20.66-23.745-12.6 0-20.748 8.794-20.748 22.169 0 12.6 9.9 22.274 20.949 22.274 15.668 0 19.281-11.791 19.926-14.507z" class="cls-2" transform="translate(-596.537 -275.641)"/>
                    </g>
                    <g id="Group_228" transform="translate(0 15.035)">
                        <path id="Path_459" d="M646.865 344.214v-37.3h-17.447v-10.521h47.689v10.523h-17.46v37.3z" class="cls-3" transform="translate(-629.418 -293.238)"/>
                        <path id="Path_460" d="M679.738 295.64a27.046 27.046 0 1 0 27.018 27.077 27.053 27.053 0 0 0-27.018-27.077m0 41.177a14.113 14.113 0 1 1 14.121-14.1 14.116 14.116 0 0 1-14.121 14.1" class="cls-3" transform="translate(-555.089 -295.64)"/>
                        <path id="Path_461" d="M684.629 333.425c-.415-4.51-1.928-10.131-7.226-11.422-.21-.038-.436-.076-.436-.076l.377-.113a13.229 13.229 0 0 0 2.656-1.341 12.7 12.7 0 0 0 5.206-10.63c0-9.636-8.807-13.451-17.721-13.451h-25.8V344.2h13.182v-17.385h9.657c6.166 0 7.016 4.954 7.368 9.77.139 1.312.356 6 1.488 7.616h13.371c-1.756-1.739-1.953-8.764-2.117-10.776m-18.716-16.255h-11.057v-10.818h10.492c3.7 0 6.673 1.626 6.673 5.172 0 3.634-2.142 5.646-6.107 5.646" class="cls-3" transform="translate(-590.284 -293.237)"/>
                        <path id="Path_462" d="M718.829 344.2v-47.807h-18.853l-7.292 29.623-7.274-29.623h-18.878V344.2h12.376v-33.591l9.1 33.593h9.357l9.118-33.593V344.2z" class="cls-3" transform="translate(-510.967 -293.238)"/>
                        <path id="Path_463" d="M732.359 344.2v-47.807h-18.87l-7.289 29.623-7.292-29.623h-18.854V344.2H692.4v-33.591l9.13 33.593h9.345l9.114-33.593V344.2z" class="cls-3" transform="translate(-467.812 -293.238)"/>
                    </g>
                </g>
            </g>
        </g>
    </g>
    <g id="Group_237" transform="translate(123.572 92.277)">
        <g id="Group_236" transform="translate(298.775)">
            <g id="Group_234" transform="translate(80.766 9.007)">
                <g id="Group_233">
                    <path id="Path_464" d="M726.2 322.822a6.394 6.394 0 0 0 .289 2 4.154 4.154 0 0 0 .855 1.547 3.957 3.957 0 0 0 1.433.985 5.6 5.6 0 0 0 2.008.34h3.471l-.876 1.735h-3.08a6.422 6.422 0 0 1-2.4-.429 5.775 5.775 0 0 1-1.974-1.283 5.9 5.9 0 0 1-1.32-2.079 7.667 7.667 0 0 1-.482-2.812 7.432 7.432 0 0 1 .474-2.741 6.077 6.077 0 0 1 1.287-2.092 5.627 5.627 0 0 1 1.961-1.32 6.724 6.724 0 0 1 2.46-.444h3.953l-.876 1.723h-2.595a5.213 5.213 0 0 0-1.97.356 3.894 3.894 0 0 0-1.442 1.01 4.286 4.286 0 0 0-.876 1.526 6.287 6.287 0 0 0-.3 1.978z" class="cls-2" transform="translate(-724.121 -316.224)"/>
                    <path id="Path_465" d="M731.546 327.214a5.457 5.457 0 0 1-2.045-.365 4.26 4.26 0 0 1-1.509-1.048 4.442 4.442 0 0 1-.951-1.6 6.793 6.793 0 0 1 0-4.192 4.255 4.255 0 0 1 .951-1.6 4.161 4.161 0 0 1 1.509-1.027 5.219 5.219 0 0 1 2.045-.381 5.118 5.118 0 0 1 2.037.381 4.193 4.193 0 0 1 1.526 1.027 4.3 4.3 0 0 1 .943 1.6 6.467 6.467 0 0 1 .323 2.1 6.539 6.539 0 0 1-.323 2.1 4.565 4.565 0 0 1-.943 1.6 4.363 4.363 0 0 1-1.526 1.031 5.35 5.35 0 0 1-2.037.374zm0-8.542a2.65 2.65 0 0 0-2.179.926 4.492 4.492 0 0 0 0 5 2.613 2.613 0 0 0 2.179.943 2.859 2.859 0 0 0 1.27-.272 2.583 2.583 0 0 0 .909-.746 3.181 3.181 0 0 0 .562-1.094 4.2 4.2 0 0 0 .2-1.312 3.846 3.846 0 0 0-.759-2.515 2.639 2.639 0 0 0-2.182-.931z" class="cls-2" transform="translate(-715.861 -313.738)"/>
                    <path id="Path_466" d="M731.647 329.431c-1.526 0-2.28-.78-2.28-2.356v-10.851h1.853v10.852a.886.886 0 0 0 .143.528.552.552 0 0 0 .49.2H733l-.834 1.626z" class="cls-2" transform="translate(-707.378 -316.224)"/>
                    <path id="Path_467" d="M732.843 329.431a2.048 2.048 0 0 1-2.284-2.356v-10.851h1.852v10.852a.834.834 0 0 0 .151.528.537.537 0 0 0 .482.2h1.144l-.834 1.626z" class="cls-2" transform="translate(-703.574 -316.224)"/>
                    <path id="Path_468" d="M739.293 326.945h-3.257a4.635 4.635 0 0 1-1.991-.39 3.882 3.882 0 0 1-1.4-1.082 4.2 4.2 0 0 1-.846-1.559 6.525 6.525 0 0 1-.277-1.92 6.679 6.679 0 0 1 .277-1.936 4.412 4.412 0 0 1 .846-1.584 3.936 3.936 0 0 1 1.45-1.06 4.929 4.929 0 0 1 2.079-.411 5.14 5.14 0 0 1 2.154.411 3.671 3.671 0 0 1 1.4 1.06 4.3 4.3 0 0 1 .754 1.584A8.056 8.056 0 0 1 740.7 322v1.031h-7.159a2.707 2.707 0 0 0 .842 1.7 2.568 2.568 0 0 0 1.752.591h3.973zm-3.118-8.257a2.487 2.487 0 0 0-1.97.738 3.1 3.1 0 0 0-.725 1.974h5.285a3.2 3.2 0 0 0-.671-1.974 2.337 2.337 0 0 0-1.919-.738z" class="cls-2" transform="translate(-700.501 -313.738)"/>
                    <path id="Path_469" d="M740.955 326.738h-2.267a5.337 5.337 0 0 1-1.878-.323 4.061 4.061 0 0 1-1.492-.964 4.415 4.415 0 0 1-.985-1.513 5.545 5.545 0 0 1-.352-2.033 5.256 5.256 0 0 1 .369-2.02 4.452 4.452 0 0 1 1.01-1.521 4.281 4.281 0 0 1 1.5-.968 5.1 5.1 0 0 1 1.831-.327h3.11l-.843 1.635h-2.121a3.05 3.05 0 0 0-1.215.235 2.842 2.842 0 0 0-.931.662 3.15 3.15 0 0 0-.6 1.027 3.7 3.7 0 0 0-.214 1.278 3.439 3.439 0 0 0 .775 2.314 2.76 2.76 0 0 0 2.184.893h2.964z" class="cls-2" transform="translate(-692.656 -313.53)"/>
                    <path id="Path_470" d="M741.115 328.953h-1.886a3.039 3.039 0 0 1-2.289-.834 3.266 3.266 0 0 1-.83-2.377v-9.368h1.861v2.909h3.915l-.817 1.635h-3.1v4.9c0 .989.453 1.484 1.37 1.484h2.611z" class="cls-2" transform="translate(-685.858 -315.745)"/>
                    <path id="Path_471" d="M739.677 316.224v1.668h-1.853v-1.668zm0 3.538v9.67h-1.853v-9.67z" class="cls-2" transform="translate(-680.388 -316.224)"/>
                    <path id="Path_472" d="M743.36 327.214a5.366 5.366 0 0 1-2.037-.365 4.272 4.272 0 0 1-1.523-1.049 4.56 4.56 0 0 1-.947-1.6 6.968 6.968 0 0 1 0-4.192 4.363 4.363 0 0 1 .947-1.6 4.174 4.174 0 0 1 1.522-1.027 5.63 5.63 0 0 1 4.074 0 4.175 4.175 0 0 1 1.521 1.027 4.484 4.484 0 0 1 .952 1.6 6.465 6.465 0 0 1 .327 2.1 6.537 6.537 0 0 1-.327 2.1 4.774 4.774 0 0 1-.952 1.6 4.345 4.345 0 0 1-1.521 1.031 5.381 5.381 0 0 1-2.036.375zm0-8.542a2.639 2.639 0 0 0-2.179.926 4.491 4.491 0 0 0 0 5 2.6 2.6 0 0 0 2.179.943 2.853 2.853 0 0 0 1.266-.272 2.573 2.573 0 0 0 .918-.746 3.164 3.164 0 0 0 .558-1.094 4.321 4.321 0 0 0 .189-1.312 3.891 3.891 0 0 0-.746-2.515 2.653 2.653 0 0 0-2.185-.931z" class="cls-2" transform="translate(-678.131 -313.738)"/>
                    <path id="Path_473" d="M746.2 317.068a3.316 3.316 0 0 1 2.326.855 3.223 3.223 0 0 1 .935 2.494v6.321h-1.853v-6.384a1.705 1.705 0 0 0-.444-1.245 1.876 1.876 0 0 0-1.069-.39h-3.076v8.018h-1.836v-9.67z" class="cls-2" transform="translate(-669.658 -313.53)"/>
                </g>
            </g>
            <g id="Group_235">
                <path id="Path_474" d="M726.455 325.438a13.889 13.889 0 0 1-.721 4.59 10.022 10.022 0 0 1-2.108 3.579 9.329 9.329 0 0 1-3.391 2.318 13.329 13.329 0 0 1-9.192 0 9.353 9.353 0 0 1-3.383-2.305 10.173 10.173 0 0 1-2.091-3.559 14.191 14.191 0 0 1-.717-4.623 14.378 14.378 0 0 1 .717-4.636 10.4 10.4 0 0 1 2.091-3.592 9.2 9.2 0 0 1 3.383-2.326 13.558 13.558 0 0 1 9.226 0 9.251 9.251 0 0 1 3.378 2.326 10.26 10.26 0 0 1 2.087 3.592 14.15 14.15 0 0 1 .721 4.636zm-10.806 8.408a7.733 7.733 0 0 0 3-.578 6.754 6.754 0 0 0 2.343-1.639 7.413 7.413 0 0 0 1.519-2.629 11.012 11.012 0 0 0 .532-3.558 11.352 11.352 0 0 0-.532-3.609 7.791 7.791 0 0 0-1.5-2.645 6.476 6.476 0 0 0-2.347-1.626 8.142 8.142 0 0 0-3.01-.541 7.556 7.556 0 0 0-3.03.578 6.455 6.455 0 0 0-2.318 1.622 7.4 7.4 0 0 0-1.509 2.645 12.491 12.491 0 0 0 0 7.159 7.22 7.22 0 0 0 1.534 2.641 6.443 6.443 0 0 0 2.331 1.622 8.028 8.028 0 0 0 2.987.558z" class="cls-2" transform="translate(-704.852 -314.075)"/>
                <path id="Path_475" d="M713.816 314.194v5.826h3.014a8.123 8.123 0 0 1 3.039.545 6.654 6.654 0 0 1 2.41 1.584 7.6 7.6 0 0 1 1.576 2.486 8.966 8.966 0 0 1 .566 3.269 9.127 9.127 0 0 1-.583 3.353 7.143 7.143 0 0 1-1.61 2.469 6.757 6.757 0 0 1-2.41 1.589 8.328 8.328 0 0 1-2.989.557h-6.09v-21.678zm0 19h2.784a4.519 4.519 0 0 0 1.97-.423 4.59 4.59 0 0 0 1.484-1.132 5.064 5.064 0 0 0 .939-1.693 6.8 6.8 0 0 0 .013-4.074 4.541 4.541 0 0 0-.9-1.643 4.468 4.468 0 0 0-1.484-1.123 4.669 4.669 0 0 0-2.021-.411h-2.783z" class="cls-2" transform="translate(-686.064 -313.695)"/>
                <path id="Path_476" d="M718.289 315.584V331.9a2.937 2.937 0 0 1-.466 1.752 1.661 1.661 0 0 1-1.442.654h-1.207l-1.37 2.678h2.875a4.963 4.963 0 0 0 1.869-.352 4.144 4.144 0 0 0 1.467-1.01 4.686 4.686 0 0 0 .964-1.584 6.024 6.024 0 0 0 .356-2.138v-16.316z" class="cls-2" transform="translate(-676.281 -309.259)"/>
                <path id="Path_477" d="M729.043 331.758h-5.349a7.614 7.614 0 0 1-3.257-.645 6.539 6.539 0 0 1-2.31-1.744 7.267 7.267 0 0 1-1.375-2.586 11.3 11.3 0 0 1 0-6.3 7.117 7.117 0 0 1 1.392-2.59 6.5 6.5 0 0 1 2.372-1.752 8.127 8.127 0 0 1 3.408-.658 8.4 8.4 0 0 1 3.533.658 6.078 6.078 0 0 1 2.293 1.752 6.846 6.846 0 0 1 1.237 2.59 13.148 13.148 0 0 1 .365 3.16v1.71h-11.74a4.551 4.551 0 0 0 1.367 2.783 4.258 4.258 0 0 0 2.884.964h6.522zm-5.118-13.53a4.072 4.072 0 0 0-3.219 1.207 5.028 5.028 0 0 0-1.2 3.228h8.668a5.3 5.3 0 0 0-1.1-3.228 3.84 3.84 0 0 0-3.149-1.207z" class="cls-2" transform="translate(-668.3 -309.597)"/>
                <path id="Path_478" d="M728.7 335.071h-3.068a5.035 5.035 0 0 1-3.76-1.358 5.3 5.3 0 0 1-1.362-3.89V314.44h3.047v4.8h6.426l-1.35 2.674h-5.073v8.01c0 1.635.742 2.456 2.243 2.456h4.271z" class="cls-2" transform="translate(-654.87 -312.91)"/>
                <path id="Path_479" d="M721.333 314.2h-3.015l-3.445 4.191h3z" class="cls-2" transform="translate(-672.867 -313.679)"/>
            </g>
        </g>
        <path id="Rectangle_35" d="M0 0H286.717V1.023H0z" class="cls-2" transform="translate(0 11.02)"/>
    </g>
</svg>
