<svg xmlns="http://www.w3.org/2000/svg" id="Component_54_2" width="518" height="93" viewBox="0 0 518 93">
    <defs>
        <style>
            .cls-1{fill:#313133}.cls-2{fill:#5a5b5e}
        </style>
    </defs>
    <g id="Group_165" transform="translate(122.104 65.561)">
        <g id="Group_164" transform="translate(236.266)">
            <g id="Group_162" transform="translate(79.934 8.906)">
                <g id="Group_161">
                    <path id="Path_304" d="M536.352 316.776a6.579 6.579 0 0 0 .286 1.983 4.372 4.372 0 0 0 .85 1.522 3.655 3.655 0 0 0 1.419.979 5.374 5.374 0 0 0 2 .349h3.422l-.859 1.713h-3.053a6.505 6.505 0 0 1-2.377-.436 5.534 5.534 0 0 1-1.954-1.273 5.763 5.763 0 0 1-1.311-2.066 7.531 7.531 0 0 1-.473-2.771 7.3 7.3 0 0 1 .469-2.717 5.957 5.957 0 0 1 1.269-2.053 5.469 5.469 0 0 1 1.941-1.311 6.373 6.373 0 0 1 2.435-.456h3.912l-.859 1.709H540.9a5.206 5.206 0 0 0-1.962.357 3.943 3.943 0 0 0-1.423.991 4.27 4.27 0 0 0-.867 1.522 6.175 6.175 0 0 0-.296 1.958z" class="cls-1" transform="translate(-534.298 -310.239)"/>
                    <path id="Path_305" d="M541.67 321.109a5.137 5.137 0 0 1-2.024-.357 4.1 4.1 0 0 1-1.5-1.029 4.362 4.362 0 0 1-.933-1.585 6.244 6.244 0 0 1-.324-2.07 6.373 6.373 0 0 1 .324-2.082 4.564 4.564 0 0 1 .933-1.58 4.282 4.282 0 0 1 1.5-1.016 5.713 5.713 0 0 1 4.04 0 4.182 4.182 0 0 1 1.505 1.016 4.444 4.444 0 0 1 .938 1.58 6.484 6.484 0 0 1 .324 2.082 6.323 6.323 0 0 1-.324 2.074 4.175 4.175 0 0 1-.938 1.589 3.99 3.99 0 0 1-1.505 1.021 5.111 5.111 0 0 1-2.016.357zm0-8.441a2.642 2.642 0 0 0-2.157.908 3.828 3.828 0 0 0-.751 2.493 3.765 3.765 0 0 0 .751 2.447 2.578 2.578 0 0 0 2.157.954 2.824 2.824 0 0 0 1.253-.278 2.573 2.573 0 0 0 .908-.734 3.612 3.612 0 0 0 .556-1.083 4.427 4.427 0 0 0 .191-1.307 3.874 3.874 0 0 0-.747-2.493 2.65 2.65 0 0 0-2.161-.907z" class="cls-1" transform="translate(-526.147 -307.777)"/>
                    <path id="Path_306" d="M541.8 323.322a2.037 2.037 0 0 1-2.26-2.344v-10.739h1.841v10.739a.921.921 0 0 0 .133.531.57.57 0 0 0 .49.208h1.136l-.838 1.605z" class="cls-1" transform="translate(-517.786 -310.239)"/>
                    <path id="Path_307" d="M542.993 323.322c-1.51 0-2.257-.784-2.257-2.344v-10.739h1.838v10.739a.862.862 0 0 0 .137.531.561.561 0 0 0 .485.208h1.132l-.83 1.605z" class="cls-1" transform="translate(-514.03 -310.239)"/>
                    <path id="Path_308" d="M549.39 320.86h-3.223a4.666 4.666 0 0 1-1.975-.4 4.061 4.061 0 0 1-1.39-1.049 4.493 4.493 0 0 1-.834-1.556 6.846 6.846 0 0 1 0-3.8 4.506 4.506 0 0 1 .842-1.576 4.269 4.269 0 0 1 1.435-1.058 4.993 4.993 0 0 1 2.053-.394 5.206 5.206 0 0 1 2.132.394 3.861 3.861 0 0 1 1.381 1.058 4.2 4.2 0 0 1 .747 1.576 7.854 7.854 0 0 1 .228 1.9v1.041H543.7a2.642 2.642 0 0 0 .826 1.676 2.546 2.546 0 0 0 1.734.593h3.932zm-3.09-8.18a2.484 2.484 0 0 0-1.945.734 3 3 0 0 0-.714 1.958h5.227a3.2 3.2 0 0 0-.668-1.958 2.326 2.326 0 0 0-1.9-.734z" class="cls-1" transform="translate(-510.999 -307.777)"/>
                    <path id="Path_309" d="M551.063 320.659h-2.24a5.273 5.273 0 0 1-1.871-.328 4 4 0 0 1-1.464-.946 4.5 4.5 0 0 1-.979-1.506 5.46 5.46 0 0 1-.352-2.012 5.22 5.22 0 0 1 .369-2 4.306 4.306 0 0 1 2.477-2.46 5.175 5.175 0 0 1 1.821-.323h3.069l-.83 1.626h-2.1a3.033 3.033 0 0 0-1.2.22 2.9 2.9 0 0 0-.921.66 3.115 3.115 0 0 0-.6 1.012 3.762 3.762 0 0 0-.207 1.265 3.322 3.322 0 0 0 .768 2.281 2.658 2.658 0 0 0 2.161.9h2.929z" class="cls-1" transform="translate(-503.264 -307.576)"/>
                    <path id="Path_310" d="M551.236 322.85h-1.858a3.045 3.045 0 0 1-2.269-.834 3.205 3.205 0 0 1-.821-2.34v-9.287h1.842v2.887H552l-.8 1.626h-3.07v4.845c0 .979.448 1.46 1.357 1.46h2.576z" class="cls-1" transform="translate(-496.555 -309.767)"/>
                    <path id="Path_311" d="M549.835 310.239v1.667H548v-1.667zm0 3.509v9.574H548v-9.574z" class="cls-1" transform="translate(-491.16 -310.239)"/>
                    <path id="Path_312" d="M553.49 321.109a5.1 5.1 0 0 1-2.02-.357 4.029 4.029 0 0 1-1.5-1.029 4.373 4.373 0 0 1-.942-1.585 6.248 6.248 0 0 1-.32-2.07 6.376 6.376 0 0 1 .32-2.082 4.577 4.577 0 0 1 .942-1.58 4.2 4.2 0 0 1 1.5-1.016 5.7 5.7 0 0 1 4.036 0 4.254 4.254 0 0 1 1.506 1.016 4.576 4.576 0 0 1 .942 1.58 6.482 6.482 0 0 1 .323 2.082 6.322 6.322 0 0 1-.323 2.074 4.289 4.289 0 0 1-.942 1.589 4.055 4.055 0 0 1-1.506 1.021 5.082 5.082 0 0 1-2.016.357zm0-8.441a2.646 2.646 0 0 0-2.161.908 3.827 3.827 0 0 0-.746 2.493 3.764 3.764 0 0 0 .746 2.447 2.581 2.581 0 0 0 2.161.954 2.782 2.782 0 0 0 1.249-.278 2.491 2.491 0 0 0 .9-.734 3.438 3.438 0 0 0 .56-1.083 4.287 4.287 0 0 0 .2-1.307 3.829 3.829 0 0 0-.755-2.493 2.634 2.634 0 0 0-2.154-.907z" class="cls-1" transform="translate(-488.937 -307.777)"/>
                    <path id="Path_313" d="M556.331 311.085a3.074 3.074 0 0 1 3.231 3.314v6.26h-1.838v-6.322a1.613 1.613 0 0 0-.448-1.228 1.763 1.763 0 0 0-1.05-.386h-3.044v7.935h-1.821v-9.574z" class="cls-1" transform="translate(-480.579 -307.576)"/>
                </g>
            </g>
            <g id="Group_163">
                <path id="Path_314" d="M536.416 319.346a13.729 13.729 0 0 1-.718 4.526 9.829 9.829 0 0 1-2.086 3.538 9.317 9.317 0 0 1-3.36 2.311 12.1 12.1 0 0 1-4.534.817 12.242 12.242 0 0 1-4.571-.817 9.415 9.415 0 0 1-3.343-2.29 9.97 9.97 0 0 1-2.066-3.53 13.829 13.829 0 0 1-.709-4.555 14.111 14.111 0 0 1 .709-4.592 10.193 10.193 0 0 1 2.062-3.554 9.236 9.236 0 0 1 3.343-2.3 13.385 13.385 0 0 1 9.142 0 9.22 9.22 0 0 1 3.339 2.3 10.015 10.015 0 0 1 2.07 3.555 14.1 14.1 0 0 1 .722 4.591zm-10.7 8.3a7.538 7.538 0 0 0 2.962-.564 6.482 6.482 0 0 0 2.322-1.63 7.239 7.239 0 0 0 1.506-2.588 10.711 10.711 0 0 0 .522-3.518 11 11 0 0 0-.522-3.58 7.618 7.618 0 0 0-1.489-2.621 6.28 6.28 0 0 0-2.315-1.6 8.1 8.1 0 0 0-2.982-.543 7.761 7.761 0 0 0-2.991.556 6.61 6.61 0 0 0-2.306 1.622 7.453 7.453 0 0 0-1.489 2.618 12.17 12.17 0 0 0 0 7.085 7.347 7.347 0 0 0 1.514 2.618 6.348 6.348 0 0 0 2.31 1.6 7.83 7.83 0 0 0 2.96.549z" class="cls-1" transform="translate(-515.028 -308.092)"/>
                <path id="Path_315" d="M523.958 308.21v5.766h2.982a8.106 8.106 0 0 1 3 .547 6.565 6.565 0 0 1 2.389 1.56 7.482 7.482 0 0 1 1.556 2.472 8.75 8.75 0 0 1 .56 3.227 9.1 9.1 0 0 1-.573 3.314 7.186 7.186 0 0 1-1.593 2.456 7.063 7.063 0 0 1-2.381 1.568 8.2 8.2 0 0 1-2.962.539h-6.023V308.21zm0 18.812h2.75a4.563 4.563 0 0 0 1.954-.415 4.638 4.638 0 0 0 1.472-1.128 5.162 5.162 0 0 0 .925-1.672 6.438 6.438 0 0 0 .315-2.024 6.6 6.6 0 0 0-.3-2 4.628 4.628 0 0 0-.9-1.643 4.5 4.5 0 0 0-1.468-1.107 4.716 4.716 0 0 0-2-.415h-2.75z" class="cls-1" transform="translate(-496.489 -307.721)"/>
                <path id="Path_316" d="M528.412 309.6v16.144a2.885 2.885 0 0 1-.46 1.73 1.6 1.6 0 0 1-1.419.66h-1.2l-1.352 2.651h2.846a4.734 4.734 0 0 0 1.842-.361 3.943 3.943 0 0 0 1.456-.991 4.4 4.4 0 0 0 .954-1.576 5.8 5.8 0 0 0 .344-2.111V309.6z" class="cls-1" transform="translate(-486.84 -303.345)"/>
                <path id="Path_317" d="M539.091 325.615h-5.3a7.437 7.437 0 0 1-3.223-.651 6.638 6.638 0 0 1-2.286-1.73 7.46 7.46 0 0 1-1.352-2.551 10.563 10.563 0 0 1-.448-3.119 10.811 10.811 0 0 1 .448-3.132 7.086 7.086 0 0 1 1.373-2.551 6.352 6.352 0 0 1 2.352-1.73 8.022 8.022 0 0 1 3.368-.656 8.3 8.3 0 0 1 3.5.656 5.8 5.8 0 0 1 2.261 1.73 6.573 6.573 0 0 1 1.228 2.551 13.245 13.245 0 0 1 .365 3.132v1.7h-11.619a4.359 4.359 0 0 0 1.361 2.738 4.117 4.117 0 0 0 2.845.971h6.446zm-5.069-13.407a4.052 4.052 0 0 0-3.186 1.2 4.981 4.981 0 0 0-1.178 3.215h8.57a5.307 5.307 0 0 0-1.087-3.215 3.813 3.813 0 0 0-3.119-1.2z" class="cls-1" transform="translate(-478.973 -303.675)"/>
                <path id="Path_318" d="M538.8 328.876h-3.04a5.012 5.012 0 0 1-3.721-1.357 5.24 5.24 0 0 1-1.344-3.837v-15.223h3.005v4.733h6.355l-1.327 2.638H533.7v7.944q0 2.426 2.219 2.427h4.235z" class="cls-1" transform="translate(-465.723 -306.937)"/>
                <path id="Path_319" d="M531.452 308.216h-2.989l-3.413 4.152h2.979z" class="cls-1" transform="translate(-483.479 -307.702)"/>
            </g>
        </g>
        <path id="Rectangle_24" d="M0 0H224.333V1.017H0z" class="cls-1" transform="translate(0 10.904)"/>
    </g>
    <g id="Group_174">
        <g id="Group_170">
            <g id="Group_167" transform="translate(0 2.364)">
                <g id="Group_166">
                    <path id="Path_320" d="M459.707 322.561h8.885v8.246a25.2 25.2 0 0 1-7.877 1.253c-9.8 0-13.087-5-13.087-15.116 0-9.673 3.115-15.364 12.934-15.364 5.463 0 8.566 1.717 11.154 4.99l6.766-6.222c-4.119-5.924-11.358-7.732-18.148-7.732-15.294 0-23.3 8.346-23.3 24.258 0 15.8 7.243 24.378 23.229 24.378 7.309 0 14.477-1.879 18.364-4.6v-22.91h-18.92z" class="cls-2" transform="translate(-402.199 -292.616)"/>
                    <path id="Path_321" d="M439.557 292.785h-10.921v47.221h33.507v-9.183h-22.586z" class="cls-2" transform="translate(-428.636 -292.084)"/>
                </g>
            </g>
            <g id="Group_169" transform="translate(104.863)">
                <g id="Group_168">
                    <path id="Path_322" d="M471.149 340.046v-36.863h-17.233v-10.391h47.118v10.391h-17.255v36.863z" class="cls-1" transform="translate(-453.916 -289.698)"/>
                    <path id="Path_323" d="M503.869 292.046a26.705 26.705 0 1 0 26.693 26.734 26.72 26.72 0 0 0-26.693-26.734m0 40.659a13.942 13.942 0 1 1 13.954-13.925 13.933 13.933 0 0 1-13.954 13.925" class="cls-1" transform="translate(-380.729 -292.046)"/>
                    <path id="Path_324" d="M508.589 329.391c-.419-4.472-1.912-10.014-7.147-11.283l-.431-.075.378-.125a12.116 12.116 0 0 0 2.617-1.331 12.492 12.492 0 0 0 5.135-10.486c0-9.528-8.686-13.3-17.5-13.3h-25.483v47.239h13v-17.181h9.553c6.094 0 6.94 4.882 7.288 9.649.129 1.315.353 5.932 1.464 7.533h13.208c-1.734-1.717-1.929-8.661-2.082-10.64m-18.484-16.061h-10.947v-10.7h10.379c3.646 0 6.591 1.618 6.591 5.11 0 3.592-2.1 5.588-6.023 5.588" class="cls-1" transform="translate(-415.375 -289.698)"/>
                    <path id="Path_325" d="M542.632 340.029v-47.237H524l-7.2 29.264-7.184-29.264h-18.651v47.237h12.224v-33.188l8.995 33.189h9.242l9-33.189v33.189z" class="cls-1" transform="translate(-337.277 -289.698)"/>
                    <path id="Path_326" d="M556.135 340.029v-47.237h-18.65l-7.2 29.264-7.206-29.264h-18.616v47.237h12.191v-33.188l9.023 33.189h9.23l9-33.189v33.189z" class="cls-1" transform="translate(-294.78 -289.698)"/>
                </g>
            </g>
        </g>
        <g id="Group_173" transform="translate(380.08 12.556)">
            <g id="Group_171" transform="translate(0 0.145)">
                <path id="Path_327" d="M538.974 321.208h7.844v-5.085a10.3 10.3 0 0 1-2.36 1.12 19.781 19.781 0 0 1-2.642.7 22.783 22.783 0 0 1-2.713.373c-.9.075-1.751.1-2.543.1h-1.929v6.434c0 .556-.021 1.141-.038 1.746-.033.622-.083 1.24-.153 1.85s-.133 1.22-.2 1.784-.145 1.1-.224 1.609h-3.945v-13.423h-9.806v-3.6h15.31q1.394 0 2.875-.087c.983-.054 1.966-.162 2.929-.307a18.682 18.682 0 0 0 2.838-.66 12.992 12.992 0 0 0 2.6-1.128v-17.526h4.5v30.244c0 .6-.008 1.215-.029 1.867-.037.643-.075 1.286-.133 1.933s-.108 1.244-.183 1.85c-.062.581-.141 1.128-.22 1.614h-3.941V324.9h-7.844zm-16.53-17.4a8.6 8.6 0 0 1 .535-3.02 6.506 6.506 0 0 1 1.7-2.564 8.692 8.692 0 0 1 3.012-1.78 13.042 13.042 0 0 1 4.467-.672 13.369 13.369 0 0 1 4.513.672 8.67 8.67 0 0 1 3.061 1.78 6.938 6.938 0 0 1 1.726 2.564 8.519 8.519 0 0 1 .552 3.02 8.814 8.814 0 0 1-.552 3.086 6.865 6.865 0 0 1-1.726 2.58 8.464 8.464 0 0 1-3.061 1.763 13.818 13.818 0 0 1-4.513.655 13.478 13.478 0 0 1-4.467-.655 8.479 8.479 0 0 1-3.012-1.763 6.446 6.446 0 0 1-1.7-2.58 8.9 8.9 0 0 1-.535-3.087zm4.55 0a4.6 4.6 0 0 0 1.336 3.559 6.928 6.928 0 0 0 7.79 0 4.572 4.572 0 0 0 1.34-3.559 4.435 4.435 0 0 0-1.34-3.472 6.85 6.85 0 0 0-7.79 0 4.461 4.461 0 0 0-1.336 3.471z" class="cls-1" transform="translate(-520.262 -295.108)"/>
                <path id="Path_328" d="M530.506 321.175c-.307-.527-.6-1.037-.9-1.551s-.609-1.012-.9-1.531a17.885 17.885 0 0 0 4.14-2.514 12.075 12.075 0 0 0 2.729-3.153 13.251 13.251 0 0 0 1.527-3.936 22.957 22.957 0 0 0 .465-4.8v-6.936h4.633v6.886a13.766 13.766 0 0 0 2.331 8.3 14.9 14.9 0 0 0 7.23 5l-2.252 3.816a19.782 19.782 0 0 1-5.471-3.46 13.922 13.922 0 0 1-3.721-5.148 14.089 14.089 0 0 1-3.691 5.169 23.083 23.083 0 0 1-6.12 3.858zm24.047-26.067h4.6v30.244c0 .581-.016 1.186-.045 1.846s-.062 1.307-.12 1.954-.125 1.244-.2 1.85c-.083.581-.166 1.128-.245 1.614h-3.982z" class="cls-1" transform="translate(-493.692 -295.108)"/>
            </g>
            <g id="Group_172" transform="translate(71.496)">
                <path id="Path_329" d="M537.5 297.292h17.177v3.75h-12.566v5.43h12.237v3.675h-12.237v5.434c0 .394.05.618.145.7.1.1.34.133.718.133h9.69a21.35 21.35 0 0 0 4.55-.456 14.358 14.358 0 0 0 3.646-1.273v-19.612h4.575v11.615h6.011v3.833h-6.011v14.925c0 .573-.016 1.195-.046 1.854s-.066 1.307-.124 1.958-.112 1.249-.179 1.846-.145 1.12-.232 1.622h-3.994v-14.5a14.268 14.268 0 0 1-3.729 1.377 22.825 22.825 0 0 1-5.38.56h-10.794a6.987 6.987 0 0 1-1.58-.149 2.374 2.374 0 0 1-1.078-.51 2.094 2.094 0 0 1-.614-1 6.368 6.368 0 0 1-.187-1.676z" class="cls-1" transform="translate(-537.498 -295.073)"/>
                <path id="Path_330" d="M564.774 321.277h7.878v-5.111a10.768 10.768 0 0 1-2.369 1.132 20.818 20.818 0 0 1-2.659.7 21.834 21.834 0 0 1-2.721.357c-.9.083-1.755.12-2.551.12h-1.942v6.459c0 .543-.012 1.145-.037 1.763s-.079 1.236-.145 1.854-.141 1.207-.207 1.775c-.066.585-.141 1.112-.22 1.622h-3.965v-13.471h-9.843v-3.634h15.364c.942 0 1.9-.033 2.891-.083a26.937 26.937 0 0 0 2.941-.311 18.406 18.406 0 0 0 2.845-.647 13.4 13.4 0 0 0 2.618-1.137v-17.592h4.533v30.356c0 .614-.016 1.236-.042 1.879s-.07 1.3-.129 1.937-.116 1.257-.186 1.858-.137 1.12-.224 1.622h-3.953v-7.745h-7.878zm-16.6-17.472a8.676 8.676 0 0 1 .535-3.028 6.6 6.6 0 0 1 1.709-2.58 8.673 8.673 0 0 1 3.032-1.8 13.206 13.206 0 0 1 4.492-.684 13.58 13.58 0 0 1 4.526.684 8.665 8.665 0 0 1 3.07 1.8 6.9 6.9 0 0 1 1.734 2.58 8.6 8.6 0 0 1 .552 3.028 8.8 8.8 0 0 1-.552 3.086 6.882 6.882 0 0 1-1.734 2.592 8.287 8.287 0 0 1-3.07 1.775 13.943 13.943 0 0 1-4.526.664 13.559 13.559 0 0 1-4.492-.664 8.286 8.286 0 0 1-3.032-1.775 6.585 6.585 0 0 1-1.709-2.592 8.881 8.881 0 0 1-.532-3.091zm4.567 0a4.584 4.584 0 0 0 1.34 3.559 5.624 5.624 0 0 0 3.895 1.207 5.684 5.684 0 0 0 3.937-1.207 4.584 4.584 0 0 0 1.34-3.559 4.517 4.517 0 0 0-1.34-3.493 5.706 5.706 0 0 0-3.937-1.215 5.646 5.646 0 0 0-3.895 1.215 4.517 4.517 0 0 0-1.337 3.488z" class="cls-1" transform="translate(-510.761 -295.073)"/>
            </g>
        </g>
    </g>
</svg>
