<svg xmlns="http://www.w3.org/2000/svg" id="logo" width="646" height="93" viewBox="0 0 646 93">
    <defs>
        <style>
            .cls-1{fill:#313133}.cls-2{fill:#5a5b5e}.cls-3{fill:#af0030}
        </style>
    </defs>
    <g id="Group_190" transform="translate(107.337 65.073)">
        <g id="Group_189" transform="translate(376.925)">
            <g id="Group_187" transform="translate(81.352 9.068)">
                <g id="Group_186">
                    <path id="Path_355" d="M564.667 499.854a6.463 6.463 0 0 0 .283 2.005 4.344 4.344 0 0 0 .861 1.558 3.972 3.972 0 0 0 1.448 1 5.588 5.588 0 0 0 2.022.346h3.491l-.878 1.744h-3.1a6.481 6.481 0 0 1-2.427-.452 5.606 5.606 0 0 1-1.984-1.292 5.966 5.966 0 0 1-1.338-2.086 7.916 7.916 0 0 1-.481-2.824 7.82 7.82 0 0 1 .477-2.786 6.335 6.335 0 0 1 1.3-2.09 5.676 5.676 0 0 1 1.976-1.317 6.45 6.45 0 0 1 2.482-.469h3.977l-.878 1.744h-2.613a5.311 5.311 0 0 0-1.993.354 4.066 4.066 0 0 0-1.448 1.018 4.2 4.2 0 0 0-.878 1.549 6.254 6.254 0 0 0-.299 1.998z" class="cls-1" transform="translate(-562.565 -493.192)"/>
                    <path id="Path_356" d="M570.029 504.24a5.29 5.29 0 0 1-2.06-.371 4.263 4.263 0 0 1-1.528-1.043 4.487 4.487 0 0 1-.954-1.625 6.807 6.807 0 0 1 0-4.209 4.342 4.342 0 0 1 .954-1.608 4.25 4.25 0 0 1 1.528-1.039 5.935 5.935 0 0 1 4.112 0 4.145 4.145 0 0 1 1.528 1.039 4.4 4.4 0 0 1 .954 1.608 6.956 6.956 0 0 1 0 4.23 4.406 4.406 0 0 1-.954 1.608 4.1 4.1 0 0 1-1.528 1.039 5.276 5.276 0 0 1-2.052.371zm0-8.6a2.666 2.666 0 0 0-2.2.941 4.512 4.512 0 0 0 0 5.024 2.65 2.65 0 0 0 2.2.954 2.692 2.692 0 0 0 2.2-1.026 3.129 3.129 0 0 0 .557-1.1 4.161 4.161 0 0 0 .2-1.33 3.85 3.85 0 0 0-.76-2.525 2.658 2.658 0 0 0-2.197-.942z" class="cls-1" transform="translate(-554.227 -490.663)"/>
                    <path id="Path_357" d="M570.112 506.508c-1.537 0-2.3-.8-2.3-2.385v-10.93h1.87v10.93a.969.969 0 0 0 .144.553.588.588 0 0 0 .49.194h1.153l-.844 1.638z" class="cls-1" transform="translate(-545.664 -493.192)"/>
                    <path id="Path_358" d="M571.3 506.508c-1.532 0-2.3-.8-2.3-2.385v-10.93h1.866v10.93a.969.969 0 0 0 .144.553.592.592 0 0 0 .494.194h1.148l-.84 1.638z" class="cls-1" transform="translate(-541.82 -493.192)"/>
                    <path id="Path_359" d="M577.793 503.978h-3.285a4.794 4.794 0 0 1-2.01-.4 4.184 4.184 0 0 1-1.406-1.072 4.652 4.652 0 0 1-.844-1.592 6.4 6.4 0 0 1-.283-1.929 6.5 6.5 0 0 1 .283-1.95 4.389 4.389 0 0 1 .848-1.587 4.324 4.324 0 0 1 1.457-1.085 5.3 5.3 0 0 1 2.1-.388 5.462 5.462 0 0 1 2.166.388 3.838 3.838 0 0 1 1.4 1.085 4.183 4.183 0 0 1 .764 1.587 8.253 8.253 0 0 1 .224 1.95v1.039H572a2.682 2.682 0 0 0 .848 1.706 2.567 2.567 0 0 0 1.765.608h4zm-3.137-8.317a2.508 2.508 0 0 0-1.989.743 3.059 3.059 0 0 0-.726 1.984h5.319a3.233 3.233 0 0 0-.679-1.984 2.335 2.335 0 0 0-1.924-.742z" class="cls-1" transform="translate(-538.721 -490.663)"/>
                    <path id="Path_360" d="M579.449 503.782h-2.288a5.392 5.392 0 0 1-1.891-.329 3.967 3.967 0 0 1-1.5-.971 4.5 4.5 0 0 1-.988-1.532 5.32 5.32 0 0 1-.359-2.043 5.407 5.407 0 0 1 .367-2.022 4.521 4.521 0 0 1 1.018-1.541 4.347 4.347 0 0 1 1.507-.971 5.279 5.279 0 0 1 1.845-.333h3.133l-.844 1.659h-2.132a2.913 2.913 0 0 0-1.229.224 2.513 2.513 0 0 0-.933.676 2.912 2.912 0 0 0-.608 1.026 3.823 3.823 0 0 0-.211 1.283 3.4 3.4 0 0 0 .777 2.318 2.744 2.744 0 0 0 2.2.92h2.976z" class="cls-1" transform="translate(-530.802 -490.466)"/>
                    <path id="Path_361" d="M579.584 506.018h-1.9a3.137 3.137 0 0 1-2.3-.844 3.268 3.268 0 0 1-.827-2.39v-9.44h1.87v2.93h3.939l-.819 1.659h-3.12v4.922c0 .992.448 1.495 1.372 1.495h2.63z" class="cls-1" transform="translate(-523.934 -492.702)"/>
                    <path id="Path_362" d="M578.134 493.192v1.68h-1.866v-1.68zm0 3.572v9.744h-1.866v-9.744z" class="cls-1" transform="translate(-518.418 -493.192)"/>
                    <path id="Path_363" d="M581.841 504.24a5.226 5.226 0 0 1-2.047-.371 4.208 4.208 0 0 1-1.532-1.043 4.619 4.619 0 0 1-.958-1.625 6.888 6.888 0 0 1 0-4.209 4.468 4.468 0 0 1 .958-1.608 4.2 4.2 0 0 1 1.532-1.039 5.911 5.911 0 0 1 4.1 0 4.234 4.234 0 0 1 1.533 1.039 4.468 4.468 0 0 1 .958 1.608 6.956 6.956 0 0 1 0 4.23 4.472 4.472 0 0 1-.958 1.608 4.182 4.182 0 0 1-1.533 1.039 5.254 5.254 0 0 1-2.053.371zm0-8.6a2.668 2.668 0 0 0-2.2.941 4.552 4.552 0 0 0 0 5.024 2.652 2.652 0 0 0 2.2.954 2.8 2.8 0 0 0 1.279-.274 2.72 2.72 0 0 0 .92-.751 3.294 3.294 0 0 0 .566-1.1 4.4 4.4 0 0 0 .194-1.33 3.848 3.848 0 0 0-.76-2.525 2.655 2.655 0 0 0-2.199-.943z" class="cls-1" transform="translate(-516.147 -490.663)"/>
                    <path id="Path_364" d="M584.682 494.038a3.091 3.091 0 0 1 3.289 3.382v6.362h-1.866v-6.43a1.749 1.749 0 0 0-.448-1.262 1.837 1.837 0 0 0-1.073-.384h-3.1v8.076h-1.853v-9.744z" class="cls-1" transform="translate(-507.59 -490.466)"/>
                </g>
            </g>
            <g id="Group_188">
                <path id="Path_365" d="M565.062 502.493a13.943 13.943 0 0 1-.726 4.614 10.02 10.02 0 0 1-2.128 3.605 9.193 9.193 0 0 1-3.415 2.335 13.259 13.259 0 0 1-9.267 0 9.175 9.175 0 0 1-3.4-2.326 10.012 10.012 0 0 1-2.1-3.576 15.295 15.295 0 0 1 0-9.313 10.311 10.311 0 0 1 2.1-3.626 9.458 9.458 0 0 1 3.4-2.339 13.546 13.546 0 0 1 9.3 0 9.51 9.51 0 0 1 3.407 2.339 10.374 10.374 0 0 1 2.1 3.626 14.223 14.223 0 0 1 .729 4.661zm-10.884 8.46a7.838 7.838 0 0 0 3.014-.566 6.873 6.873 0 0 0 2.36-1.659 7.623 7.623 0 0 0 1.532-2.643 11.141 11.141 0 0 0 .536-3.593 11.364 11.364 0 0 0-.536-3.631 7.491 7.491 0 0 0-1.52-2.66 6.26 6.26 0 0 0-2.356-1.638 8.533 8.533 0 0 0-6.088.017 6.578 6.578 0 0 0-2.331 1.642 7.529 7.529 0 0 0-1.52 2.66 11.263 11.263 0 0 0-.536 3.61 11.119 11.119 0 0 0 .536 3.6 7.367 7.367 0 0 0 1.537 2.668 6.638 6.638 0 0 0 2.356 1.63 7.889 7.889 0 0 0 3.017.564z" class="cls-1" transform="translate(-543.295 -491.044)"/>
                <path id="Path_366" d="M552.282 491.165v5.855h3.035a8.226 8.226 0 0 1 3.065.562 6.793 6.793 0 0 1 2.427 1.587 7.658 7.658 0 0 1 1.583 2.52 8.943 8.943 0 0 1 .574 3.28 9.077 9.077 0 0 1-.591 3.369 7.278 7.278 0 0 1-1.617 2.5 7.122 7.122 0 0 1-2.423 1.587 8.177 8.177 0 0 1-3.019.553h-6.134v-21.813zm0 19.124h2.8a4.4 4.4 0 0 0 3.487-1.558 5.048 5.048 0 0 0 .941-1.706 6.6 6.6 0 0 0 .321-2.056 6.76 6.76 0 0 0-.3-2.043 4.715 4.715 0 0 0-.912-1.663 4.439 4.439 0 0 0-1.495-1.127 4.646 4.646 0 0 0-2.039-.414h-2.8z" class="cls-1" transform="translate(-524.326 -490.654)"/>
                <path id="Path_367" d="M556.758 492.552v16.435a2.99 2.99 0 0 1-.46 1.769 1.686 1.686 0 0 1-1.452.663h-1.216l-1.38 2.693h2.892a4.827 4.827 0 0 0 1.874-.359 4.374 4.374 0 0 0 1.486-1.009 4.662 4.662 0 0 0 .971-1.6 5.98 5.98 0 0 0 .354-2.153v-16.439z" class="cls-1" transform="translate(-514.448 -486.186)"/>
                <path id="Path_368" d="M567.579 508.846h-5.391a7.709 7.709 0 0 1-3.28-.659 6.629 6.629 0 0 1-2.322-1.76 7.429 7.429 0 0 1-1.385-2.592 10.784 10.784 0 0 1-.452-3.166 10.915 10.915 0 0 1 .452-3.192 7.28 7.28 0 0 1 1.4-2.6 6.649 6.649 0 0 1 2.39-1.773 8.4 8.4 0 0 1 3.436-.65 8.7 8.7 0 0 1 3.559.65 6.164 6.164 0 0 1 2.3 1.773 6.77 6.77 0 0 1 1.254 2.6 13.389 13.389 0 0 1 .367 3.192v1.714H558.08a4.506 4.506 0 0 0 1.38 2.8 4.28 4.28 0 0 0 2.9.971h6.569zm-5.151-13.646a4.137 4.137 0 0 0-3.251 1.216 5.078 5.078 0 0 0-1.2 3.263h8.73a5.461 5.461 0 0 0-1.115-3.263 3.878 3.878 0 0 0-3.164-1.216z" class="cls-1" transform="translate(-506.394 -486.518)"/>
                <path id="Path_369" d="M567.2 512.187h-3.095a5.1 5.1 0 0 1-3.787-1.372 5.345 5.345 0 0 1-1.364-3.918v-15.485h3.065v4.813h6.463l-1.347 2.7h-5.116V507c0 1.638.751 2.453 2.254 2.453h4.314z" class="cls-1" transform="translate(-492.834 -489.859)"/>
                <path id="Path_370" d="M559.829 491.17h-3.034l-3.478 4.23h3.036z" class="cls-1" transform="translate(-511.008 -490.639)"/>
            </g>
        </g>
        <path id="Rectangle_26" d="M0 0H364.781V1.039H0z" class="cls-1" transform="translate(0 11.102)"/>
    </g>
    <g id="Group_191" transform="translate(392.563 10.386)">
        <path id="Path_371" d="M530.064 479.179h4.686v4.707a10.651 10.651 0 0 0 .709 4.023 10.1 10.1 0 0 0 1.967 3.112 11.918 11.918 0 0 0 2.964 2.267 18.325 18.325 0 0 0 3.69 1.524l-2.178 3.9a19.752 19.752 0 0 1-5.29-2.875 11.459 11.459 0 0 1-3.626-4.568 13 13 0 0 1-3.61 4.716 19.834 19.834 0 0 1-6.21 3.314l-1.592-3.065a17.719 17.719 0 0 0 4.184-2.221 10.465 10.465 0 0 0 2.6-2.689 9.632 9.632 0 0 0 1.338-3.289 20.04 20.04 0 0 0 .372-4.011zm.756 30.519a8.853 8.853 0 0 1 .566-3.158 6.72 6.72 0 0 1 1.8-2.609 8.975 8.975 0 0 1 3.2-1.8 15.057 15.057 0 0 1 4.817-.671 15.533 15.533 0 0 1 4.889.671 9.353 9.353 0 0 1 3.28 1.8 6.576 6.576 0 0 1 1.845 2.609 9.2 9.2 0 0 1 0 6.328 6.51 6.51 0 0 1-1.845 2.643 9.009 9.009 0 0 1-3.28 1.777 15.973 15.973 0 0 1-4.889.646 15.483 15.483 0 0 1-4.817-.646 8.646 8.646 0 0 1-3.2-1.777 6.651 6.651 0 0 1-1.8-2.643 8.938 8.938 0 0 1-.566-3.168zm4.64 0a4.241 4.241 0 0 0 1.507 3.533 6.732 6.732 0 0 0 4.268 1.191 6.876 6.876 0 0 0 4.369-1.191 4.264 4.264 0 0 0 1.486-3.533 4.2 4.2 0 0 0-1.486-3.466 6.8 6.8 0 0 0-4.369-1.2 6.656 6.656 0 0 0-4.268 1.2 4.177 4.177 0 0 0-1.508 3.468zm15.9-31.608v8.574h6.058v3.88h-6.058v4.526c0 .777-.055 1.659-.148 2.647s-.228 1.912-.4 2.786h-4.146V478.09z" class="cls-1" transform="translate(-521.574 -478.09)"/>
        <path id="Path_372" d="M530.094 487.116h22.037v3.684h-4.8a7.223 7.223 0 0 1 2.423 5.767 9.965 9.965 0 0 1-.507 3.284 6.608 6.608 0 0 1-1.545 2.571 7.024 7.024 0 0 1-2.681 1.7 12.727 12.727 0 0 1-7.772 0 7.019 7.019 0 0 1-2.672-1.7 6.84 6.84 0 0 1-1.558-2.571 10.429 10.429 0 0 1-.5-3.284 7.364 7.364 0 0 1 2.381-5.767h-4.808zm4.806-4.516c.081-.642.182-1.292.3-1.967s.207-1.334.287-2a9.675 9.675 0 0 0 1.592.591 16.064 16.064 0 0 0 1.9.452c.654.093 1.3.186 1.95.241s1.233.093 1.794.093h3.761v3.631H541.1a20.844 20.844 0 0 1-3.348-.287 13.185 13.185 0 0 1-2.852-.754zm6.269 18.491a4.045 4.045 0 0 0 3.268-1.212 5.461 5.461 0 0 0 1-3.559 4.619 4.619 0 0 0-1.135-3.373 4.183 4.183 0 0 0-3.137-1.136 4.419 4.419 0 0 0-3.2 1.136 4.517 4.517 0 0 0-1.19 3.373 5.256 5.256 0 0 0 1.064 3.559 4.236 4.236 0 0 0 3.333 1.211zm13.471-23h4.64v13.332h6.189v3.888h-6.189V508.9c0 .6-.009 1.207-.042 1.887s-.072 1.334-.123 1.976c-.059.663-.122 1.288-.211 1.891s-.169 1.14-.249 1.651h-4.015z" class="cls-1" transform="translate(-494.125 -478.09)"/>
        <path id="Path_373" d="M574.208 494.732H568.1v14.2c0 .579-.013 1.208-.038 1.866s-.076 1.33-.131 1.988-.118 1.271-.186 1.874-.144 1.14-.232 1.651h-4.053v-11.5a12.063 12.063 0 0 1-2.322 1.051 24.763 24.763 0 0 1-2.635.671c-.9.148-1.819.262-2.74.342s-1.8.106-2.634.106H538.4v-3.719h9.368v-7.033h4.648v7.033a45.666 45.666 0 0 0 5.767-.38 15.837 15.837 0 0 0 5.273-1.63V478.09h4.64v12.745h6.109zm-14.43-14.4v3.778h-7.607v.621a7.86 7.86 0 0 0 .621 3.2 7.649 7.649 0 0 0 1.786 2.487 10.881 10.881 0 0 0 2.8 1.891 20.7 20.7 0 0 0 3.7 1.33c-.312.642-.608 1.292-.9 1.942s-.6 1.309-.9 1.946a18.969 18.969 0 0 1-5.434-2.672 11.737 11.737 0 0 1-3.681-4.272 11.255 11.255 0 0 1-3.7 4.42 22 22 0 0 1-5.67 2.74l-1.71-3.217a14.015 14.015 0 0 0 6.375-3.728 8.741 8.741 0 0 0 1.989-5.94v-.743h-7.4v-3.778z" class="cls-1" transform="translate(-467.353 -478.09)"/>
        <path id="Path_374" d="M581.369 502.546h-14.932v6.2c0 1.11-.059 2.326-.169 3.635a33.006 33.006 0 0 1-.456 3.42h-3.981v-13.255h-14.966v-3.8h34.5zm-5.687-15.637a9.354 9.354 0 0 1-.629 3.411 7.329 7.329 0 0 1-2.014 2.82 10.072 10.072 0 0 1-3.572 1.929 17.358 17.358 0 0 1-5.328.692 16.992 16.992 0 0 1-5.269-.692 10.272 10.272 0 0 1-3.559-1.929 7.362 7.362 0 0 1-2.01-2.82 9.354 9.354 0 0 1-.629-3.411 8.964 8.964 0 0 1 .629-3.306 7.428 7.428 0 0 1 2.01-2.82 10.046 10.046 0 0 1 3.559-1.963 16.545 16.545 0 0 1 5.269-.73 16.9 16.9 0 0 1 5.328.73 9.855 9.855 0 0 1 3.572 1.963 7.4 7.4 0 0 1 2.014 2.82 8.964 8.964 0 0 1 .629 3.306zm-4.9 0a4.428 4.428 0 0 0-1.646-3.745 10.489 10.489 0 0 0-9.993 0 4.437 4.437 0 0 0-1.659 3.745q0 5.193 6.657 5.188t6.64-5.188z" class="cls-1" transform="translate(-440.094 -478.09)"/>
        <path id="Path_375" d="M558.373 480.138h19.614v3.681h-7.4v1.845a10.183 10.183 0 0 0 .646 3.8 8.373 8.373 0 0 0 1.815 2.824 9.922 9.922 0 0 0 2.845 1.98 17.923 17.923 0 0 0 3.686 1.258l-2.094 3.892a20.932 20.932 0 0 1-2.659-1.051 16.807 16.807 0 0 1-2.5-1.457 13.4 13.4 0 0 1-2.178-1.9 8.89 8.89 0 0 1-1.566-2.322 11.868 11.868 0 0 1-3.639 4.454A17.525 17.525 0 0 1 559.13 500l-1.591-3.086a17.834 17.834 0 0 0 3.846-1.836 9.762 9.762 0 0 0 2.558-2.39 9.047 9.047 0 0 0 1.4-3.073 15.881 15.881 0 0 0 .443-3.909v-1.879h-7.405zm8.659 29.56a8.79 8.79 0 0 1 .583-3.2 6.938 6.938 0 0 1 1.858-2.681 9.188 9.188 0 0 1 3.31-1.815 15.489 15.489 0 0 1 4.956-.68 15.691 15.691 0 0 1 4.973.68 9.25 9.25 0 0 1 3.344 1.815 6.652 6.652 0 0 1 1.879 2.681 8.71 8.71 0 0 1 .591 3.2 8.866 8.866 0 0 1-.591 3.247 6.613 6.613 0 0 1-1.879 2.668 9.2 9.2 0 0 1-3.344 1.828 15.958 15.958 0 0 1-4.973.671 15.752 15.752 0 0 1-4.956-.671 9.14 9.14 0 0 1-3.31-1.828 6.9 6.9 0 0 1-1.858-2.668 8.947 8.947 0 0 1-.583-3.245zm4.762 0q0 4.857 5.986 4.859 5.927 0 5.936-4.859a4.416 4.416 0 0 0-1.486-3.555 6.718 6.718 0 0 0-4.45-1.25 6.822 6.822 0 0 0-4.479 1.25 4.392 4.392 0 0 0-1.507 3.557zm12.137-22.911v-8.7h4.631v17.351c0 .751-.038 1.621-.122 2.617a23.741 23.741 0 0 1-.414 2.82h-4.095v-10.204h-7.194v-3.884z" class="cls-1" transform="translate(-405.725 -478.09)"/>
        <path id="Path_376" d="M565.765 498.5h34.47v3.812h-14.9v5.522c0 1.195-.038 2.529-.122 3.99a35.11 35.11 0 0 1-.456 4.12h-4.015v-13.629h-14.977zm3.677-6.556a26.128 26.128 0 0 0 5.087-1.731 11.773 11.773 0 0 0 3.428-2.419 8.576 8.576 0 0 0 1.929-3.107 11.928 11.928 0 0 0 .6-3.875v-2.677h4.728v2.6a8.265 8.265 0 0 0 3.154 6.8 18.858 18.858 0 0 0 8.933 3.449c-.308.68-.616 1.338-.92 2.01s-.608 1.343-.917 2.01a27.679 27.679 0 0 1-3.744-1.026 21.513 21.513 0 0 1-3.432-1.566 14.868 14.868 0 0 1-2.9-2.174 12.185 12.185 0 0 1-2.178-2.85 11.993 11.993 0 0 1-4.618 4.918 24.8 24.8 0 0 1-7.717 2.943z" class="cls-1" transform="translate(-379.204 -477.939)"/>
        <path id="Path_377" d="M574.513 501.753a57.292 57.292 0 0 0 6.189-3.331 23.628 23.628 0 0 0 4.146-3.2 10.689 10.689 0 0 0 2.3-3.171 8.093 8.093 0 0 0 .714-3.3v-4.437h-12.429v-3.8h17.187v7.321a14.9 14.9 0 0 1-.8 5.066 11.545 11.545 0 0 1-2.693 4.167 24.9 24.9 0 0 1-5.015 3.854q-3.122 1.881-7.764 4.112zm25.3 14.556V478.09h4.644v30.81c0 .612-.017 1.245-.042 1.9s-.067 1.317-.127 1.959c-.059.663-.126 1.288-.211 1.891s-.16 1.14-.253 1.651z" class="cls-1" transform="translate(-351.02 -478.09)"/>
    </g>
    <g id="Group_193">
        <g id="Group_192">
            <path id="Path_378" d="M460.163 506.132h9.047v8.414a25.924 25.924 0 0 1-8.021 1.275c-9.993 0-13.341-5.1-13.341-15.418 0-9.862 3.171-15.641 13.176-15.641 5.573 0 8.735 1.739 11.365 5.1l6.9-6.358c-4.2-6.037-11.576-7.869-18.5-7.869-15.591 0-23.751 8.5-23.751 24.71 0 16.106 7.388 24.836 23.671 24.836 7.451 0 14.755-1.9 18.723-4.665v-23.368h-19.269z" class="cls-2" transform="translate(-401.546 -475.63)"/>
            <path id="Path_379" d="M439.768 475.8h-11.132v48.121h34.147v-9.361h-23.015z" class="cls-2" transform="translate(-428.636 -475.09)"/>
        </g>
    </g>
    <g id="Group_195" transform="translate(106.851 0.708)">
        <path id="Path_380" d="M491.779 499.824c0-10.09 6.873-17.031 16.57-17.031h11.914l3.559-7H507.7c-13.543 0-23.878 10.162-23.878 24.026a23.554 23.554 0 0 0 23.878 24.052h12.564l3.559-6.953-15.447-.017c-8.891 0-16.6-6.966-16.6-17.077" class="cls-2" transform="translate(-357.639 -475.797)"/>
        <path id="Path_381" d="M514.991 478.523h-13.949l-3.272 6.421h16.85c4.534 0 7.156 2.651 7.156 6.535v1.836h-15.347c-7.911 0-12 5.1-12 10.913s4.116 10.917 12 10.917h22.544v-23.184c0-7.84-5.066-13.438-13.982-13.438m6.784 30.219h-15.3a4.518 4.518 0 0 1-4.842-4.618c0-2.444 1.659-4.462 4.982-4.462h15.156z" class="cls-2" transform="translate(-323.469 -467.018)"/>
        <path id="Path_382" d="M527.035 478.535h-9.8c-8.317 0-13.007 5.995-13.037 13.163v23.409h7.211v-23.641c0-3.829 2.415-6.539 6.236-6.539h6.117z" class="cls-2" transform="translate(-292 -466.979)"/>
        <path id="Path_383" d="M542.915 508.816h-15.2c-5.34 0-9.418-2.812-10.554-8.123h28.906v-3.306c0-10.284-4.585-18.888-18.014-18.888-12.729 0-18.575 8.249-18.575 18.348 0 10.229 5.915 18.373 17.862 18.373h12.54zm-14.894-23.857c6.594 0 9.942 3.356 10.719 9.339H516.9c.891-6.084 4.652-9.339 11.12-9.339" class="cls-2" transform="translate(-274.989 -467.092)"/>
        <g id="Group_194">
            <path id="Rectangle_27" d="M0 0H7.184V6.378H0z" class="cls-3" transform="translate(110.332)"/>
            <path id="Rectangle_28" d="M0 0H7.184V36.651H0z" class="cls-3" transform="translate(110.332 11.478)"/>
            <path id="Path_384" d="M477.264 515.108h20v-36.573h-7.204V508.7h-12.4c-3.808 0-6.223-2.723-6.223-6.573v-23.6h-7.197v23.392c.013 7.156 4.69 13.18 13.024 13.18" class="cls-3" transform="translate(-420.723 -466.979)"/>
            <path id="Path_385" d="M496.455 478.535h-9.8c-8.325 0-12.994 5.995-13.015 13.163v23.409h7.211v-23.641c0-3.829 2.377-6.539 6.21-6.539h6.139z" class="cls-3" transform="translate(-390.449 -466.979)"/>
            <path id="Path_386" d="M476.5 475.8h-22.568v48.127h7.6v-17.55h14.788c11.023 0 16.072-6.155 16.072-15.283 0-9.559-5.492-15.294-15.892-15.294zm-.346 23.688h-14.619V482.76h14.616c5.746 0 8.583 3.217 8.583 8.376 0 5.133-2.74 8.35-8.583 8.35z" class="cls-3" transform="translate(-453.932 -475.797)"/>
        </g>
    </g>
</svg>
