<svg xmlns="http://www.w3.org/2000/svg" width="401" height="70" viewBox="0 0 401 70">
    <g fill="none" fill-rule="evenodd">
        <g>
            <g>
                <path d="M0 0H401V70H0z" transform="translate(-456 -3488) translate(456 3488)"/>
                <path fill="#000" d="M8.378 16v33.821h17.355V58H0V16h8.378zm39.425 0c5.59 0 11.566 1.55 14.974 6.662l-5.593 5.386c-2.12-2.828-4.687-4.31-9.188-4.31-8.095 0-10.665 4.915-10.665 13.261 0 8.748 2.699 13.06 10.797 13.06 2.506 0 5.137-.54 6.486-1.08v-7.131H47.29V34.24h15.612V54.03C59.692 56.384 53.779 58 47.739 58c-13.171 0-19.147-7.403-19.147-21.069 0-13.73 6.62-20.931 19.211-20.931zm86.302 3v38.062h-4.552V19h4.552zm81.892 0v38.028h-6.208l-23.176-32.352v32.386h-4.53v-38.03h6.03l23.255 32.372V19h4.63zm26.413 0L259.8 57.058h-5.267l-4.2-9.353h-21.618l-4.215 9.353h-5.206L236.68 19h5.73zm112.523 0c6.337 0 9.683 3.384 9.683 9.799v4.962c0 6.22-3.396 8.464-6.246 9.25l-.444.122.374.285c3.794 2.897 5.91 7.479 6.306 13.62h-4.784c-.108-4.63-3.31-13.713-12.878-13.713h-11.252v13.61h-4.771V19zm-58.52 0v26.48c0 4.53 2.26 6.923 6.535 6.923h10.066c4.28 0 6.537-2.393 6.537-6.915V19h4.892v25.917c0 8.034-3.954 12.098-11.746 12.098h-9.676c-7.629 0-11.498-4.064-11.498-12.098V19h4.89zm-123.054 0v4.482h-22.055c-3.722 0-6.039 2.308-6.039 6.018v17c0 3.63 2.317 5.889 6.04 5.889h13.31c4.07 0 6.05-1.926 6.05-5.888v-6h-13.018v-4.558h17.774v9.863c0 7.223-3.907 11.198-11.005 11.198h-12.923c-6.982 0-10.996-4.083-10.996-11.198V30.183c0-7.105 4.014-11.183 10.996-11.183h21.866zM401 19v4.461h-25.928v12.25h25.41V40.2h-25.41V52.52H401v4.483h-30.68V19H401zm-282.886 0v4.622H94.638c-2.435 0-4.168 1.483-4.22 3.63-.003.026-.009.063-.009.093v4.404c.006 2.394 1.415 3.857 3.784 3.935l17.188.004c5.696 0 8.91 3.126 9.046 8.808l.005.077c.006.082.013.172.013.268v2.988c0 .893-.093 1.758-.28 2.575-.892 4.24-4.007 6.582-8.77 6.582H86.724v-4.615h24.857c2.438 0 4.167-1.484 4.22-3.616.005-.023.013-.062.013-.109v-4.402c-.018-2.429-1.392-3.852-3.785-3.936l-17.186-.007c-5.705 0-8.922-3.122-9.058-8.788l-.001-.185c-.004-.057-.007-.116-.007-.177v-2.987c0-.891.091-1.735.275-2.582C86.95 21.338 90.066 19 94.843 19h23.27zm168.503 0v4.494h-13.706v33.435h-4.893V23.494h-13.705V19h32.304zm-47.071 4.672L230.8 43.086h17.462l-8.716-19.414zm115.224-.175h-19.078v15.335h19.298c3.089 0 4.863-1.72 4.863-4.723l-.007-5.888c0-2.917-1.946-4.724-5.076-4.724z" transform="translate(-456 -3488) translate(456 3488)"/>
            </g>
        </g>
    </g>
</svg>
