<svg xmlns="http://www.w3.org/2000/svg" xmlns:xlink="http://www.w3.org/1999/xlink" width="122" height="32" viewBox="0 0 122 32">
    <defs>
        <path id="vsya2bufqa" d="M0.133 0.482L44.699 0.482 44.699 22.311 0.133 22.311z"/>
    </defs>
    <g fill="none" fill-rule="evenodd">
        <g transform="translate(77 5)">
            <mask id="ilhf01k6zb" fill="#fff">
                <use xlink:href="#vsya2bufqa"/>
            </mask>
            <path fill="#6B6B6B" d="M44.7 6.289h-3.834V.482H37.17v21.83h3.235c.3-1.289.46-3.5.46-5.23v-7.66H44.7V6.29zM22.348.879v3.067h4.387v1.479c0 3.909-.785 6.365-4.78 8.144l1.501 2.713c2.288-.866 4.433-2.503 5.426-4.588.993 1.968 3.072 3.582 5.08 4.377l1.803-3.181c-3.881-1.475-5.221-3.77-5.221-7.487V3.946h4.27V.88H22.349zm-2.195 18.274H8.791c-.3 0-.392-.07-.392-.398v-4.563H4.543v6.153c0 1.335.67 1.966 1.988 1.966h13.623v-3.158zm-.39-18.67h-3.859v4.446H12.28v3.205h3.625v8.118H19.3c.278-1.1.464-2.948.464-4.284V.482zM.618.902v3.09h4.201v.792c0 3.184-1.268 4.868-4.686 5.97l1.292 2.947c2.356-.563 4.664-1.966 5.613-3.884 1.014 1.918 3.233 3.25 5.288 3.742l1.639-3.368c-2.98-.657-5.126-2.294-5.126-5.428v-.772h4.133V.902H.618z" mask="url(#ilhf01k6zb)"/>
        </g>
        <path fill="#6B6B6B" d="M45.038 26L54 26 54 21.912 43.882 21.912 43.882 5 39 5 39 26zM64.81 17.923h3.844v3.565c-.71.27-2.09.539-3.407.539-4.246 0-5.662-2.152-5.662-6.529 0-4.172 1.347-6.629 5.593-6.629 2.362 0 3.71.74 4.821 2.156l2.934-2.695C71.146 5.775 68.011 5 65.08 5 58.472 5 55 8.6 55 15.465 55 22.296 58.135 26 65.044 26c3.168 0 6.271-.808 7.956-1.988v-9.89h-8.19v3.801z"/>
        <path fill="#A51C37" d="M16 32c8.837 0 16-7.17 16-16 0-8.84-7.163-16-16-16S0 7.16 0 16c0 8.83 7.163 16 16 16"/>
        <path fill="#FEFEFE" d="M16 9L16 23 20 23 20 21.753 17.14 21.753 17.14 9zM10.998 13C12.102 13 13 12.104 13 11.003 13 9.896 12.102 9 10.998 9 9.898 9 9 9.896 9 11.003c0 1.1.898 1.997 1.998 1.997"/>
        <path fill="#FEFEFE" d="M16.14 2.013c-.162-.007-.483-.013-.641-.013C8.058 2 2 8.056 2 15.503c0 3.605 1.397 6.996 3.946 9.545C8.504 27.598 11.897 29 15.499 29c3.604 0 6.997-1.402 9.551-3.952 2.55-2.549 3.95-5.94 3.95-9.545v-.616l-.54.004h-9.099v1.254h8.358v.179c-.43 6.37-5.748 11.416-12.22 11.416-3.267 0-6.339-1.273-8.654-3.584-2.313-2.312-3.587-5.383-3.587-8.653 0-3.269 1.274-6.345 3.587-8.656 2.315-2.312 5.387-3.585 8.654-3.585.148 0 .494.005.64.007V2.013z"/>
    </g>
</svg>
