<svg xmlns="http://www.w3.org/2000/svg" width="36" height="25" viewBox="0 0 36 25">
    <g fill="none" fill-rule="evenodd">
        <g>
            <g>
                <g>
                    <g>
                        <g>
                            <path d="M0 0H64V64H0z" transform="translate(-830 -618) translate(645 404) translate(171 194)"/>
                            <g fill="#222">
                                <path d="M1 0h4c.552 0 1 .448 1 1v15H0V1c0-.552.448-1 1-1zM14 0h4c.552 0 1 .448 1 1v15h-6V1c0-.552.448-1 1-1zM27 0h4c.552 0 1 .448 1 1v15h-6V1c0-.552.448-1 1-1zM9 0h1c.552 0 1 .448 1 1v15H8V1c0-.552.448-1 1-1zM22 0h1c.552 0 1 .448 1 1v15h-3V1c0-.552.448-1 1-1z" transform="translate(-830 -618) translate(645 404) translate(171 194) translate(16 20)"/>
                            </g>
                            <g fill="#CCC">
                                <path d="M1 0h4c.552 0 1 .448 1 1v4H0V1c0-.552.448-1 1-1z" transform="translate(-830 -618) translate(645 404) translate(171 194) translate(16 40) matrix(1 0 0 -1 0 5)"/>
                                <path d="M14 0h4c.552 0 1 .448 1 1v4h-6V1c0-.552.448-1 1-1z" transform="translate(-830 -618) translate(645 404) translate(171 194) translate(16 40) matrix(1 0 0 -1 0 5)"/>
                                <path d="M27 0h4c.552 0 1 .448 1 1v4h-6V1c0-.552.448-1 1-1z" transform="translate(-830 -618) translate(645 404) translate(171 194) translate(16 40) matrix(1 0 0 -1 0 5)"/>
                                <path d="M9 0h1c.552 0 1 .448 1 1v4H8V1c0-.552.448-1 1-1z" transform="translate(-830 -618) translate(645 404) translate(171 194) translate(16 40) matrix(1 0 0 -1 0 5)"/>
                                <path d="M22 0h1c.552 0 1 .448 1 1v4h-3V1c0-.552.448-1 1-1z" transform="translate(-830 -618) translate(645 404) translate(171 194) translate(16 40) matrix(1 0 0 -1 0 5)"/>
                            </g>
                            <path fill="#222" d="M14 37H50V39H14z" transform="translate(-830 -618) translate(645 404) translate(171 194)"/>
                        </g>
                    </g>
                </g>
            </g>
        </g>
    </g>
</svg>
