<svg xmlns="http://www.w3.org/2000/svg" width="38" height="36" viewBox="0 0 38 36">
    <g fill="none" fill-rule="evenodd">
        <g>
            <g>
                <g>
                    <g>
                        <g>
                            <path d="M0 0H64V64H0z" transform="translate(-1053 -607) translate(645 404) translate(395 194)"/>
                            <g transform="translate(-1053 -607) translate(645 404) translate(395 194) translate(12 9)">
                                <rect width="1.053" height="4.211" x="18.945" fill="#222" rx=".526"/>
                                <rect width="1.053" height="4.211" x="26.311" y="3.158" fill="#222" rx=".526" transform="rotate(45 26.837 5.263)"/>
                                <rect width="1.053" height="4.211" x="11.579" y="3.158" fill="#222" rx=".526" transform="scale(-1 1) rotate(45 0 -23.962)"/>
                                <path fill="#222" d="M20 12.383L18.144 13.081 18.234 11.1 16.997 9.55 18.909 9.024 20 7.368 21.091 9.024 23.003 9.55 21.766 11.1 21.856 13.081z"/>
                                <path stroke="#222" stroke-width="1.684" d="M7.158 21.842H25.474V34.894999999999996H7.158zM6.703 21.526h18.834l-4.809-5.61c-.04-.047-.098-.074-.16-.074H2.288c-.05 0-.098.018-.136.05-.089.076-.099.21-.023.298l4.574 5.336z"/>
                                <path stroke="#222" stroke-width="1.684" d="M33.297 21.526h-8.308l4.809-5.61c.04-.047.098-.074.16-.074h7.753c.05 0 .1.018.137.05.089.076.099.21.023.298l-4.574 5.336z"/>
                                <rect width="5.263" height="1.684" x="13.684" y="30.526" fill="#101010" rx=".842"/>
                                <path stroke="#222" stroke-width="1.684" d="M25.053 21.842H32.842V34.894999999999996H25.053z"/>
                            </g>
                        </g>
                    </g>
                </g>
            </g>
        </g>
    </g>
</svg>
