<svg xmlns="http://www.w3.org/2000/svg" width="112" height="112" viewBox="0 0 112 112">
    <g fill="none" fill-rule="evenodd">
        <g>
            <g>
                <g>
                    <g>
                        <g>
                            <g>
                                <g>
                                    <g transform="translate(-32 -11636) translate(0 106) translate(0 8874) translate(32 1620) translate(0 784) translate(0 252)">
                                        <rect width="112" height="112" fill="#F4F4F4" rx="56"/>
                                        <g>
                                            <g>
                                                <path stroke="#000" stroke-linecap="round" stroke-linejoin="round" stroke-width="3" d="M3 0h54c1.657 0 3 1.343 3 3v44c0 1.657-1.343 3-3 3H3c-1.657 0-3-1.343-3-3V3c0-1.657 1.343-3 3-3z" transform="translate(16 16) translate(10 15)"/>
                                                <path stroke="#000" stroke-linecap="round" stroke-linejoin="round" stroke-width="3" d="M9 19h42c1.657 0 3 1.343 3 3v10c0 1.657-1.343 3-3 3H9c-1.657 0-3-1.343-3-3V22c0-1.657 1.343-3 3-3z" transform="translate(16 16) translate(10 15)"/>
                                                <g fill="#000" transform="translate(16 16) translate(10 15) translate(19 5)">
                                                    <rect width="3" height="3" x="18" rx="1.5"/>
                                                    <rect width="16" height="3" rx="1.5"/>
                                                </g>
                                                <path stroke="#000" stroke-linecap="round" stroke-linejoin="round" stroke-width="3" d="M2 44L60 44" transform="translate(16 16) translate(10 15)"/>
                                                <path stroke="#000" stroke-linecap="round" stroke-width="3" d="M0 12L58 12" transform="translate(16 16) translate(10 15)"/>
                                            </g>
                                        </g>
                                    </g>
                                </g>
                            </g>
                        </g>
                    </g>
                </g>
            </g>
        </g>
    </g>
</svg>
