<svg xmlns="http://www.w3.org/2000/svg" width="56" height="56" viewBox="0 0 56 56">
    <g fill="none" fill-rule="evenodd">
        <g>
            <g>
                <g>
                    <g>
                        <g>
                            <g>
                                <g>
                                    <g>
                                        <g>
                                            <path fill="red" d="M0 0H56V56H0z" opacity=".104" transform="translate(-1027 -933) translate(0 89) translate(855 80) translate(0 764) translate(172)"/>
                                            <g transform="translate(-1027 -933) translate(0 89) translate(855 80) translate(0 764) translate(172) translate(10 4)">
                                                <path stroke="#000" stroke-linecap="round" stroke-linejoin="round" stroke-width="3" d="M35.333 29.618v15.684c0 1.674-1.353 3.031-3.022 3.031H4.356c-1.67 0-3.023-1.357-3.023-3.031V3.365C1.333 1.69 2.686.333 4.356.333H32.31c1.67 0 3.022 1.358 3.022 3.032v15.41-.339 11.182z"/>
                                                <path fill="#000" d="M0 17H35V20H0z"/>
                                                <rect width="6.533" height="2.4" x="25" y="11.4" fill="#000" rx="1.2"/>
                                                <rect width="6.533" height="2.4" x="25" y="24.133" fill="#000" rx="1.2"/>
                                            </g>
                                        </g>
                                    </g>
                                </g>
                            </g>
                        </g>
                    </g>
                </g>
            </g>
        </g>
    </g>
</svg>
