<svg xmlns="http://www.w3.org/2000/svg" width="112" height="112" viewBox="0 0 112 112">
    <g fill="none" fill-rule="evenodd">
        <g>
            <g>
                <g>
                    <g>
                        <g>
                            <g>
                                <g>
                                    <g transform="translate(-368 -1472) translate(0 106) translate(32 330) translate(0 784) translate(0 252) translate(336)">
                                        <rect width="112" height="112" fill="#F4F4F4" rx="56"/>
                                        <g stroke="#000" stroke-width="3">
                                            <g>
                                                <path stroke-linecap="round" stroke-linejoin="round" d="M3 0h34c1.657 0 3 1.343 3 3v62c0 1.657-1.343 3-3 3H3c-1.657 0-3-1.343-3-3V3c0-1.657 1.343-3 3-3z" transform="translate(16 16) translate(20 6)"/>
                                                <path stroke-linecap="round" stroke-linejoin="round" d="M26 8L34 8 34 30 26 30z" transform="translate(16 16) translate(20 6)"/>
                                                <path stroke-linecap="round" d="M20 68L20 0" transform="translate(16 16) translate(20 6)"/>
                                                <path d="M0 38L40 38" transform="translate(16 16) translate(20 6)"/>
                                            </g>
                                        </g>
                                    </g>
                                </g>
                            </g>
                        </g>
                    </g>
                </g>
            </g>
        </g>
    </g>
</svg>
