<svg xmlns="http://www.w3.org/2000/svg" width="112" height="112" viewBox="0 0 112 112">
    <g fill="none" fill-rule="evenodd">
        <g>
            <g>
                <g>
                    <g>
                        <g>
                            <g>
                                <g>
                                    <g transform="translate(-32 -1472) translate(0 106) translate(32 330) translate(0 784) translate(0 252)">
                                        <rect width="112" height="112" fill="#F4F4F4" rx="56"/>
                                        <g stroke="#000" stroke-width="3">
                                            <g>
                                                <path d="M3.256 1.5c-.49 0-.936.19-1.257.502-.306.298-.499.709-.499 1.165v69.666c0 .456.193.867.499 1.165.321.313.767.502 1.257.502h33.488c.49 0 .936-.19 1.257-.502.306-.298.499-.709.499-1.165V3.167c0-.456-.193-.867-.499-1.165-.321-.313-.767-.502-1.257-.502H3.256z" transform="translate(16 16) translate(20 2)"/>
                                                <g stroke-linecap="round" stroke-linejoin="round">
                                                    <path d="M10 8c2.21 0 4-1.79 4-4s-1.79-4-4-4-3.929 1.184-3.929 3.393M10.03 11L10 11 20 17 0 17zM10 8L10 11" transform="translate(16 16) translate(20 2) translate(10 12)"/>
                                                </g>
                                            </g>
                                        </g>
                                    </g>
                                </g>
                            </g>
                        </g>
                    </g>
                </g>
            </g>
        </g>
    </g>
</svg>
