<svg xmlns="http://www.w3.org/2000/svg" xmlns:xlink="http://www.w3.org/1999/xlink" width="336" height="63" viewBox="0 0 336 63">
    <defs>
        <path id="dkiscwnq3a" d="M0.234 0.577L54.691 0.577 54.691 61.199 0.234 61.199z"/>
    </defs>
    <g fill="none" fill-rule="evenodd">
        <g>
            <g>
                <g>
                    <g>
                        <g>
                            <path fill="#6F6F6E" d="M71.886 39.049h11.1v10.338c-2.037.77-6.035 1.556-9.837 1.556-12.266 0-16.372-6.246-16.372-18.917 0-12.087 3.908-19.164 16.177-19.164 6.822 0 10.726 2.114 13.942 6.208l8.467-7.778C90.198 3.874 81.147 1.62 72.674 1.62c-19.116 0-29.134 10.453-29.134 30.317 0 19.77 9.047 30.485 29.041 30.485 9.144 0 18.107-2.306 22.952-5.735V28.047H71.886v11.002zM13.628 2.502H0v59.046h41.891V50.07H13.628V2.502z" transform="translate(-785 -1630) translate(0 172) translate(0 908) translate(723 470) translate(62 80)"/>
                            <path fill="#BD0838" d="M137.282 61.622L147.381 61.622 147.381 10.634 165.551 10.634 165.551 2.49 119.032 2.49 119.032 10.634 137.282 10.634zM255.156 20.318c-2.508 0-4.91.366-7.229 1.1-.596.197-1.093.371-1.574.56-.105.053-.2.084-.285.127l-.199.087c-.355.143-.683.286-.999.447-.23.097-.41.211-.63.317l-.388.23c-.137.08-.256.111-.38.18-.335.21-.67.44-.97.67l-.19.106c-.49.335-.863.626-1.223.912-1.26 1.083-2.253 2.253-2.995 3.507-.357.708-1.269 2.9-1.269 7.163v25.898h9.937V36.425c0-.55.106-1.014.206-1.427.037-.207.074-.43.155-.683 1.313-4.034 5.872-5.338 7.346-5.468l.246-.025c.135-.025.267-.025.397-.025l.856.056c2.67.36 7.548 2.54 7.548 7.572v25.197h9.923V35.724c0-4.742-1.194-7.088-1.43-7.523-2.936-4.668-9.715-7.862-16.853-7.883M189.288 20.318c-2.38 0-4.705.366-6.953 1.018l-1.446.44V2.49h-9.922v59.132h9.981V36.128c.047-.453.072-.8.124-1.13.041-.207.1-.43.174-.683 1.325-4.034 5.876-5.338 7.347-5.468l.26-.025c.106-.025.267-.025.38-.025l.856.056c2.656.36 7.542 2.54 7.542 7.572v25.197h9.957V35.724c0-4.742-1.217-7.088-1.453-7.523-2.936-4.668-9.708-7.862-16.847-7.883" transform="translate(-785 -1630) translate(0 172) translate(0 908) translate(723 470) translate(62 80)"/>
                            <path fill="#BD0934" d="M228.265 12.853c0 3.324-2.676 6-5.983 6-3.33 0-5.991-2.676-5.991-6 0-3.318 2.662-6.006 5.99-6.006 3.308 0 5.984 2.688 5.984 6.006" transform="translate(-785 -1630) translate(0 172) translate(0 908) translate(723 470) translate(62 80)"/>
                            <path fill="#BD0838" d="M217.315 24.638v36.984h9.932V24.638c-1.52.627-3.198 1.006-4.966 1.006-1.757 0-3.452-.379-4.966-1.006" transform="translate(-785 -1630) translate(0 172) translate(0 908) translate(723 470) translate(62 80)"/>
                            <g transform="translate(-785 -1630) translate(0 172) translate(0 908) translate(723 470) translate(62 80) translate(281 .423)">
                                <mask id="ke9h7i46nb" fill="#fff">
                                    <use xlink:href="#dkiscwnq3a"/>
                                </mask>
                                <path fill="#BD0838" d="M34.353 39.94c-.433 2.804-1.189 5.231-2.215 7.186-1.088 1.925-2.5 3.396-4.243 4.334-1.323.726-2.912 1.173-4.73 1.36l-1.038.05c-.168.01-.264.024-.528.024-2.32 0-4.233-.553-5.668-1.64-1.508-1.124-2.723-2.659-3.577-4.586-.895-1.937-1.493-4.24-1.822-6.804-.326-2.554-.49-5.338-.49-8.262 0-3.607.225-6.853.671-9.625.434-2.809 1.206-5.235 2.258-7.203 1.1-1.956 2.531-3.477 4.323-4.482 1.764-1.03 3.771-1.49 6.27-1.49 2.238 0 4.143.571 5.622 1.704 1.508 1.17 2.718 2.756 3.577 4.671.849 1.921 1.445 4.184 1.776 6.772.335 2.54.487 5.264.487 8.107 0 3.665-.23 6.981-.673 9.883zm18.883 16.486c-1.142-3.68-5.214-3.607-5.214-3.607h-8.997l.476-.714c1.28-1.862 2.29-3.812 3.155-6.027 1.459-3.824 2.203-8.802 2.203-14.852 0-4.733-.376-9.072-1.068-12.877-.745-3.774-1.956-7.008-3.602-9.622-1.667-2.6-3.914-4.643-6.621-6.027-2.75-1.397-6.17-2.123-10.161-2.123-7.966 0-13.88 2.49-17.607 7.41C2.126 12.892.234 20.546.234 30.716c0 4.765.372 9.078 1.085 12.827.732 3.738 1.937 6.947 3.596 9.505 1.662 2.601 3.866 4.637 6.535 6.024 2.7 1.39 6.114 2.114 10.1 2.114h.111c.055.012.14.012.202.012.072 0 .137 0 .22-.012.044-.013.076-.013.076-.013l32.532.013-1.455-4.76z" mask="url(#ke9h7i46nb)"/>
                            </g>
                        </g>
                    </g>
                </g>
            </g>
        </g>
    </g>
</svg>
