<svg xmlns="http://www.w3.org/2000/svg" width="64" height="64" viewBox="0 0 64 64">
    <g fill="none" fill-rule="evenodd">
        <g>
            <g>
                <g>
                    <g>
                        <path d="M0 0H64V64H0z" transform="translate(-211 -79) translate(203 79) translate(8)"/>
                        <g>
                            <path stroke="#000" stroke-linecap="round" stroke-linejoin="round" stroke-width="2" d="M16.4 34h15.2c1.105 0 2 .895 2 2v10h0-19.2V36c0-1.105.895-2 2-2z" transform="translate(-211 -79) translate(203 79) translate(8) translate(8 9)"/>
                            <path stroke="#000" stroke-linejoin="round" stroke-width="2" d="M0 12.003L23.105.447c.564-.281 1.226-.281 1.79 0l22 11.003c.677.339 1.105 1.031 1.105 1.789V46h0H1c-.552 0-1-.448-1-1V12.003h0z" transform="translate(-211 -79) translate(203 79) translate(8) translate(8 9)"/>
                            <path fill="#DA0F47" fill-rule="nonzero" d="M6.136 26c1.304 0 2.296-.552 2.296-1.744 0-.8-.472-1.248-1.112-1.4v-.04c.504-.176.808-.736.808-1.28 0-1.104-.928-1.456-2.144-1.456h-1.96V26h2.112zm-.24-3.512h-.688v-1.504h.704c.712 0 1.064.208 1.064.728 0 .472-.328.776-1.08.776zm.136 2.6h-.824v-1.72h.824c.816 0 1.248.24 1.248.816 0 .616-.44.904-1.248.904zm6.96.912v-.992h-2.536v-1.584h2.08v-.992h-2.08v-1.368h2.448v-.984H9.272V26h3.72zm2.768.112c1.368 0 2.176-.824 2.176-1.792 0-.856-.472-1.312-1.192-1.608l-.776-.328c-.504-.2-.928-.352-.928-.776 0-.392.336-.624.856-.624.488 0 .88.176 1.256.488l.6-.744c-.48-.488-1.168-.76-1.856-.76-1.2 0-2.048.744-2.048 1.712 0 .864.6 1.344 1.2 1.592l.792.336c.528.224.888.36.888.8 0 .416-.328.68-.944.68-.52 0-1.08-.264-1.504-.656l-.68.816c.576.552 1.368.864 2.16.864zM21.144 26v-4.936h1.68v-.984h-4.528v.984h1.664V26h1.184zm4.408.112c1.368 0 2.176-.824 2.176-1.792 0-.856-.472-1.312-1.192-1.608l-.776-.328c-.504-.2-.928-.352-.928-.776 0-.392.336-.624.856-.624.488 0 .88.176 1.256.488l.6-.744c-.48-.488-1.168-.76-1.856-.76-1.2 0-2.048.744-2.048 1.712 0 .864.6 1.344 1.2 1.592l.792.336c.528.224.888.36.888.8 0 .416-.328.68-.944.68-.52 0-1.08-.264-1.504-.656l-.68.816c.576.552 1.368.864 2.16.864zM29.96 26v-2.56h2.24V26h1.176v-5.92H32.2v2.328h-2.24V20.08h-1.184V26h1.184zm7.024.112c1.568 0 2.648-1.176 2.648-3.096 0-1.92-1.08-3.048-2.648-3.048s-2.648 1.12-2.648 3.048c0 1.92 1.08 3.096 2.648 3.096zm0-1.024c-.88 0-1.44-.808-1.44-2.072 0-1.272.56-2.032 1.44-2.032.88 0 1.44.76 1.44 2.032 0 1.264-.56 2.072-1.44 2.072zm4.792.912v-2.104h.792c1.272 0 2.288-.608 2.288-1.96 0-1.4-1.008-1.856-2.32-1.856h-1.944V26h1.184zm.712-3.04h-.712v-1.944h.672c.816 0 1.248.232 1.248.92 0 .68-.392 1.024-1.208 1.024z" transform="translate(-211 -79) translate(203 79) translate(8) translate(8 9)"/>
                        </g>
                    </g>
                </g>
            </g>
        </g>
    </g>
</svg>
