<svg xmlns="http://www.w3.org/2000/svg" xmlns:xlink="http://www.w3.org/1999/xlink" width="64" height="64" viewBox="0 0 64 64">
    <defs>
        <path id="jth5damhja" d="M0 0H57.6V57.6H0z"/>
    </defs>
    <g fill="none" fill-rule="evenodd">
        <g>
            <g>
                <g>
                    <g>
                        <path d="M0 0H64V64H0z" transform="translate(-342 -6866) translate(270 6718) translate(0 100) translate(72 48)"/>
                        <g transform="translate(-342 -6866) translate(270 6718) translate(0 100) translate(72 48) translate(3.2 1.6)">
                            <mask id="dunjq8f4nb" fill="#fff">
                                <use xlink:href="#jth5damhja"/>
                            </mask>
                            <g stroke-width="2" mask="url(#dunjq8f4nb)">
                                <g>
                                    <path stroke="#000" d="M48.6 28H21.848L8.2 31.613V52.8c0 .552.224 1.052.586 1.414.362.362.862.586 1.414.586h36.4c.552 0 1.052-.224 1.414-.586.362-.362.586-.862.586-1.414V28z" transform="translate(3 1)"/>
                                    <path stroke="#000" d="M24.2 28H32.6V54.8H24.2zM3.795 21.635l42.114-11.284c.533-.143 1.074-.056 1.518.2.443.256.788.68.931 1.214l2.278 8.5-45.978 12.32-2.278-8.5c-.143-.534-.056-1.074.2-1.518.256-.443.681-.789 1.215-.932z" transform="translate(3 1)"/>
                                    <path stroke="#000" d="M20.022 17.287l10.432-2.795 2.795 10.432-10.462 2.682-2.765-10.319z" transform="translate(3 1)"/>
                                    <path stroke="#DA0F47" d="M30.894 3.391c1.01-.27 2.033-.106 2.872.379.839.484 1.493 1.288 1.763 2.298.345 1.285.173 2.595-.397 3.701-.57 1.106-1.537 2.007-2.783 2.472l-7.81 2.917-.416-1.41c-.553-1.87-.37-3.801.398-5.463.767-1.66 2.118-3.053 3.9-3.845l1.914-.851c.18-.08.368-.146.559-.198z" transform="translate(3 1)"/>
                                    <path stroke="#DA0F47" d="M13.092 8.161c-1.01.271-1.814.925-2.299 1.764-.484.839-.648 1.863-.378 2.872.344 1.283 1.148 2.33 2.194 3 1.045.67 2.332.963 3.641.74l8.674-1.484-.401-1.36c-.563-1.906-1.766-3.475-3.323-4.516-1.557-1.04-3.467-1.552-5.443-1.344l-2.083.22c-.197.021-.391.057-.582.108z" transform="translate(3 1)"/>
                                </g>
                            </g>
                        </g>
                    </g>
                </g>
            </g>
        </g>
    </g>
</svg>
