<svg xmlns="http://www.w3.org/2000/svg" width="64" height="64" viewBox="0 0 64 64">
    <g fill="none" fill-rule="evenodd">
        <g>
            <g>
                <g>
                    <g>
                        <path d="M0 64L64 64 64 0 0 0z" transform="translate(-1238 -9537) translate(270 9392) translate(936 100) translate(32 45)"/>
                        <g>
                            <path d="M0 0H64V64H0z" opacity=".3" transform="translate(-1238 -9537) translate(270 9392) translate(936 100) translate(32 45)"/>
                            <g>
                                <path stroke="#000" stroke-linecap="round" stroke-linejoin="round" stroke-width="2" d="M38.509 42.576l11.393-4.337c1.384-.527 2.934.168 3.461 1.553l.006.014c.542 1.45-.065 3.078-1.424 3.818L32.353 54.305c-.974.531-2.128.62-3.172.246l-12.497-4.48c-.841-.302-1.729-.456-2.623-.456l-2.638-.218m0-13.515l5.032-.587c1.452-.211 2.934-.008 4.274.587l6.176 2.741h8.945c1.469 0 2.659 1.19 2.659 2.659 0 1.468-1.19 2.658-2.659 2.658H25.817c-1.654.185-2.48 1.075-2.48 2.668" transform="translate(-1238 -9537) translate(270 9392) translate(936 100) translate(32 45) translate(5 4)"/>
                                <g transform="translate(-1238 -9537) translate(270 9392) translate(936 100) translate(32 45) translate(5 4) translate(15.248)">
                                    <path fill-rule="nonzero" stroke="#000" stroke-width="2" d="M25.682 0c-1.898 0-3.637.58-5.17 1.725-1.471 1.097-2.45 2.494-3.026 3.51-.577-1.016-1.555-2.413-3.026-3.51C12.927.58 11.187 0 9.29 0 3.993 0 0 4.18 0 9.722 0 15.71 4.982 19.807 12.525 26.01c1.28 1.054 2.732 2.248 4.241 3.52.2.169.455.261.72.261.265 0 .52-.092.72-.26 1.508-1.274 2.96-2.467 4.241-3.521C29.99 19.807 34.971 15.71 34.971 9.722 34.971 4.18 30.978 0 25.682 0z"/>
                                    <rect width="10.88" height="2" x="12.046" y="13.73" fill="#DA0F47" rx="1"/>
                                    <rect width="10.88" height="2" x="12.046" y="13.73" fill="#DA0F47" rx="1" transform="rotate(90 17.486 14.73)"/>
                                </g>
                                <path stroke="#000" stroke-width="2" d="M9.267 33.381H2.79c-.439 0-.836.178-1.124.466-.288.288-.466.685-.466 1.124v18.134c0 .439.178.837.466 1.124.288.288.685.466 1.124.466h6.477c.439 0 .836-.178 1.124-.466.288-.287.466-.685.466-1.124V34.97c0-.439-.178-.836-.466-1.124-.288-.288-.685-.466-1.124-.466z" transform="translate(-1238 -9537) translate(270 9392) translate(936 100) translate(32 45) translate(5 4)"/>
                            </g>
                        </g>
                    </g>
                </g>
            </g>
        </g>
    </g>
</svg>
