<svg xmlns="http://www.w3.org/2000/svg" width="64" height="64" viewBox="0 0 64 64">
    <g fill="none" fill-rule="evenodd">
        <g>
            <g>
                <g>
                    <g>
                        <path d="M0 0H64V64H0z" opacity=".3" transform="translate(-302 -7311) translate(270 7166) translate(0 100) translate(32 45)"/>
                        <g stroke-width="2">
                            <path stroke="#DA0F47" d="M19.266 6H54.844V11H19.266z" transform="translate(-302 -7311) translate(270 7166) translate(0 100) translate(32 45) translate(3.063 13)"/>
                            <path stroke="#000" d="M52.938 0c1.104 0 2 .895 2 2v21c0 1.105-.896 2-2 2H33.504c.412-.926.422-2.022-.066-3-.015-.03-.03-.059-.046-.087-.852-1.583-2.825-2.175-4.408-1.323h0l-8.18 4.405h-.016c-1.035-.077-1.85-.94-1.85-1.995V2c0-1.105.895-2 2-2h32z" transform="translate(-302 -7311) translate(270 7166) translate(0 100) translate(32 45) translate(3.063 13)"/>
                            <g stroke="#000">
                                <path stroke-linecap="round" d="M17.915 13.313l9.825-5.674c1.516-.876 3.456-.356 4.332 1.16l.074.136c.935 1.818.297 4.05-1.458 5.098-.734.438-1.573.905-2.52 1.401-4.045 2.122-5.446 3.629-7.85 7.347-1.602 2.479-3.853 3.681-6.753 3.607L6.553 14.2C9.04 6.36 12.886 1.9 18.09.82" transform="translate(-302 -7311) translate(270 7166) translate(0 100) translate(32 45) translate(3.063 13) translate(.847 12.724)"/>
                                <path d="M25.543 15.849l1.577 2.425c.738 1.135 2.218 1.522 3.417.895 1.07-.56 1.483-1.88.923-2.95-.03-.056-.062-.112-.097-.166l-1.14-1.777h0" transform="translate(-302 -7311) translate(270 7166) translate(0 100) translate(32 45) translate(3.063 13) translate(.847 12.724)"/>
                                <path stroke-linejoin="round" d="M6.36 12.981l4.087-.188h0l-.108 18-4.125-.57c-.987-.137-1.723-.98-1.726-1.976l-.035-13.263c-.003-1.07.838-1.954 1.908-2.003z" transform="translate(-302 -7311) translate(270 7166) translate(0 100) translate(32 45) translate(3.063 13) translate(.847 12.724) rotate(-30 7.447 21.793)"/>
                                <path d="M22.497 20.276l.615.909c.75 1.108 2.258 1.398 3.366.648l.081-.057c1.105-.817 1.34-2.374.523-3.48l-.022-.03-1.517-1.99h0" transform="translate(-302 -7311) translate(270 7166) translate(0 100) translate(32 45) translate(3.063 13) translate(.847 12.724)"/>
                            </g>
                        </g>
                    </g>
                </g>
            </g>
        </g>
    </g>
</svg>
