<svg xmlns="http://www.w3.org/2000/svg" width="64" height="64" viewBox="0 0 64 64">
    <g fill="none" fill-rule="evenodd">
        <g>
            <path d="M0 64L64 64 64 0 0 0z"/>
            <g transform="translate(3 6)">
                <path stroke="#000" stroke-linecap="round" stroke-linejoin="round" stroke-width="2" d="M45 0c1.806 0 3 1.16 3 2.929v34.267l5.236 1.325c.535.136.86.68.724 1.215-.056.221-.186.417-.368.554l-3.254 2.447 4.784 4.783c.39.391.39 1.024 0 1.415l-2.687 2.687c-.39.39-1.024.39-1.415 0l-4.783-4.784-2.447 3.254c-.332.441-.96.53-1.4.198-.183-.137-.313-.333-.369-.554L39.81 41H30V13.678c0-1.422-1.108-2.585-2.508-2.673l-.17-.005H18V2.929C18 1.159 19.194 0 21 0h24z"/>
                <path stroke="#000" stroke-linecap="round" stroke-linejoin="round" stroke-width="2" d="M2 11h26c1.105 0 2 .895 2 2v31c0 1.105-.895 2-2 2H2c-1.105 0-2-.895-2-2V13c0-1.105.895-2 2-2z"/>
                <path fill="#000" d="M30.087 14.48L48.09 14.48 48.09 16.2 30.087 16.2z"/>
                <rect width="6" height="2" x="38" y="9" fill="#000" rx="1"/>
                <rect width="6" height="2" x="38" y="19" fill="#000" rx="1"/>
                <circle cx="15" cy="32" r="9" stroke="#000" stroke-linecap="round" stroke-linejoin="round" stroke-width="2"/>
                <path fill="#000" d="M8 16h14c.552 0 1 .448 1 1s-.448 1-1 1H8c-.552 0-1-.448-1-1s.448-1 1-1z"/>
                <path stroke="#DA0F47" stroke-width="2" d="M42.021 49.736l-3.388-13.388c-.135-.535.19-1.08.724-1.215.161-.04.33-.04.491 0l13.388 3.388c.535.136.86.68.724 1.215-.056.221-.186.417-.368.554l-3.254 2.447h0l4.784 4.783c.39.391.39 1.024 0 1.415l-2.687 2.687c-.39.39-1.024.39-1.415 0l-4.783-4.784h0l-2.447 3.254c-.332.441-.96.53-1.4.198-.183-.137-.313-.333-.369-.554z"/>
            </g>
        </g>
    </g>
</svg>
