<svg xmlns="http://www.w3.org/2000/svg" width="64" height="64" viewBox="0 0 64 64">
    <g fill="none" fill-rule="evenodd">
        <g>
            <g>
                <g>
                    <g>
                        <path d="M0 0H64V64H0z" transform="translate(-1012 -6748) translate(270 6600) translate(702 100) translate(40 48)"/>
                        <g stroke-width="2" transform="translate(-1012 -6748) translate(270 6600) translate(702 100) translate(40 48) translate(5 6)">
                            <path fill="#FFF" stroke="#222" stroke-linejoin="round" d="M0 21.452L15.905 10 32 21.452 32 52 0 52zM32.5 30.908L43.435 23 54.5 30.908 54.5 52 32.5 52z"/>
                            <path fill="#FFF" stroke="#EC455A" d="M43.42 1c-2.48 0-4.728 1.023-6.356 2.671-1.633 1.653-2.644 3.936-2.644 6.454 0 6.4 7.868 14.643 9 15.802 1.131-1.158 9-9.401 9-15.802 0-2.518-1.01-4.8-2.643-6.454C48.148 2.023 45.9 1 43.42 1z"/>
                            <rect width="20" height="6" x="6" y="26" fill="#F4F4F4" stroke="#222" rx="2"/>
                            <rect width="20" height="6" x="6" y="38" fill="#F4F4F4" stroke="#222" rx="2"/>
                            <rect width="8" height="8" x="39.42" y="5" fill="#FFF" stroke="#EC455A" rx="4"/>
                        </g>
                    </g>
                </g>
            </g>
        </g>
    </g>
</svg>
