<svg xmlns="http://www.w3.org/2000/svg" width="64" height="64" viewBox="0 0 64 64">
    <g fill="none" fill-rule="evenodd">
        <g>
            <path d="M0 0H64V64H0z"/>
            <g>
                <path stroke="#000" stroke-linecap="round" stroke-linejoin="round" stroke-width="2" d="M16.4 34h15.2c1.105 0 2 .895 2 2v10h0-19.2V36c0-1.105.895-2 2-2z" transform="translate(8 9)"/>
                <text fill="#DA0F47" font-family="NotoSansCJKkr-Bold, Noto Sans CJK KR" font-size="7.3" font-weight="bold" letter-spacing="-.101" transform="translate(8 9)">
                    <tspan x="4" y="25">BEST SHOP</tspan>
                </text>
                <path stroke="#000" stroke-linejoin="round" stroke-width="2" d="M0 12.003L23.105.447c.564-.281 1.226-.281 1.79 0l22 11.003c.677.339 1.105 1.031 1.105 1.789V46h0H1c-.552 0-1-.448-1-1V12.003h0z" transform="translate(8 9)"/>
            </g>
        </g>
    </g>
</svg>
