<svg xmlns="http://www.w3.org/2000/svg" width="64" height="64" viewBox="0 0 64 64">
    <g fill="none" fill-rule="evenodd">
        <g>
            <g>
                <g>
                    <g>
                        <path d="M0 0H64V64H0z" transform="translate(-577 -6866) translate(270 6718) translate(0 100) translate(307 48)"/>
                        <g stroke-width="2">
                            <path stroke="#000" d="M19.428 34H2c-1.105 0-2-.895-2-2V2C0 .895.895 0 2 0h43c1.105 0 2 .895 2 2v30c0 1.105-.895 2-2 2h-3" transform="translate(-577 -6866) translate(270 6718) translate(0 100) translate(307 48) translate(8 8)"/>
                            <g stroke="#000">
                                <path stroke-linejoin="round" d="M7.201 17.317V2.405C7.201 1.077 8.278 0 9.606 0c1.328 0 2.405 1.077 2.405 2.405v13.024h0l.008-6.452c.001-1.332 1.081-2.41 2.413-2.41 1.33 0 2.41 1.079 2.41 2.41v6.452h0v-4.251c0-1.331 1.079-2.41 2.41-2.41 1.33 0 2.41 1.079 2.41 2.41v4.09h0v-1.822c0-1.198.971-2.17 2.169-2.17S26 12.249 26 13.447V16.6h0c0 4.165-.716 8.298-2.118 12.22L23.46 30h0H7.845L6.1 24.007c-.112-.385-.282-.752-.503-1.087L0 14.446h0c1.52-1.445 3.923-1.384 5.368.135.166.175.315.365.445.569l1.388 2.167h0z" transform="translate(-577 -6866) translate(270 6718) translate(0 100) translate(307 48) translate(8 8) translate(16 14)"/>
                                <path d="M5.597 30.582l.833 5c.04.241.25.418.494.418h17.152c.245 0 .453-.177.494-.418l.833-5c.045-.272-.139-.53-.411-.575-.027-.005-.055-.007-.082-.007H6.09c-.276 0-.5.224-.5.5 0 .028.003.055.007.082z" transform="translate(-577 -6866) translate(270 6718) translate(0 100) translate(307 48) translate(8 8) translate(16 14)"/>
                            </g>
                            <g stroke="#DA0F47" stroke-linecap="round">
                                <path d="M18.093 4.146L17.982 6.143" transform="translate(-577 -6866) translate(270 6718) translate(0 100) translate(307 48) translate(8 8) translate(12 6) rotate(30 18.038 5.145)"/>
                                <path d="M6.936 4.213L6.825 6.21" transform="translate(-577 -6866) translate(270 6718) translate(0 100) translate(307 48) translate(8 8) translate(12 6) scale(-1 1) rotate(30 0 -20.467)"/>
                                <path d="M21.962 6.457L21.753 10.452" transform="translate(-577 -6866) translate(270 6718) translate(0 100) translate(307 48) translate(8 8) translate(12 6) rotate(60 21.858 8.454)"/>
                                <path d="M2.79 7.272L2.581 11.267" transform="translate(-577 -6866) translate(270 6718) translate(0 100) translate(307 48) translate(8 8) translate(12 6) scale(-1 1) rotate(60 0 4.618)"/>
                                <path d="M12.5 0L12.5 4" transform="translate(-577 -6866) translate(270 6718) translate(0 100) translate(307 48) translate(8 8) translate(12 6)"/>
                            </g>
                        </g>
                    </g>
                </g>
            </g>
        </g>
    </g>
</svg>
