<?xml version="1.0" encoding="UTF-8"?>
<svg width="120px" height="120px" viewBox="0 0 120 120" version="1.1" xmlns="http://www.w3.org/2000/svg" xmlns:xlink="http://www.w3.org/1999/xlink">
    <title>icon-off</title>
    <g id="Page-1" stroke="none" stroke-width="1" fill="none" fill-rule="evenodd">
        <g id="icon_area">
            <rect id="Rectangle" x="0" y="0" width="120" height="120"></rect>
            <g id="Group-2" transform="translate(4.000000, 4.000000)" fill="#FFFFFF">
                <path d="M56.4666667,0 C87.1368798,0 112,24.8631202 112,55.5333333 C112,86.2035464 87.1368798,111.066667 56.4666667,111.066667 C25.7964536,111.066667 0.933333333,86.2035464 0.933333333,55.5333333 C0.933333333,24.8631202 25.7964536,0 56.4666667,0 Z M56.4666667,9.33333333 C30.9511112,9.33333333 10.2666667,30.0177779 10.2666667,55.5333333 C10.2666667,81.0488888 30.9511112,101.733333 56.4666667,101.733333 C81.9822221,101.733333 102.666667,81.0488888 102.666667,55.5333333 C102.666667,30.0177779 81.9822221,9.33333333 56.4666667,9.33333333 Z" id="Oval" fill-rule="nonzero"></path>
                <g id="Group" transform="translate(38.928128, 39.933333)">
                    <path d="M17.5385384,0.2 C26.0437235,0.2 32.9385384,7.09481485 32.9385384,15.6 C32.9385384,24.1051851 26.0437235,31 17.5385384,31 C9.13835553,31 2.30902618,24.2743766 2.14168108,15.9142606 L2.13853839,15.6 L7.73853839,15.6 C7.73853839,21.0123905 12.1261478,25.4 17.5385384,25.4 C22.9509289,25.4 27.3385384,21.0123905 27.3385384,15.6 C27.3385384,10.2793449 23.098401,5.94902692 17.8128451,5.80376496 L17.5385384,5.8 L17.5385384,0.2 Z" id="Path" fill-rule="nonzero"></path>
                    <polygon id="Path-2" points="3.18728898 12.2384938 0 20.7056571 11.1061553 17.1183004"></polygon>
                </g>
                <g id="Group-5">
                    <path d="M58.8,82.1333333 L58.7996667,89.5993333 L62.5333333,89.6 L56.0963781,96.3699341 L49.4666667,89.6 L53.1996667,89.5993333 L53.2,82.1333333 L58.8,82.1333333 Z M55.9036219,17.7333333 L62.5333333,24.5032675 L58.7996667,24.5023333 L58.8,31.7333333 L53.2,31.7333333 L53.1996667,24.5023333 L49.4666667,24.5032675 L55.9036219,17.7333333 Z" id="Combined-Shape"></path>
                    <path d="M58.9183004,81.2 L58.9179671,88.666 L62.6516337,88.6666667 L56.2146785,95.4366008 L49.5849671,88.6666667 L53.3179671,88.666 L53.3183004,81.2 L58.9183004,81.2 Z M23.5699341,49.5849671 L23.5706008,53.3179671 L31.0366008,53.3183004 L31.0366008,58.9183004 L23.5706008,58.9179671 L23.5699341,62.6516337 L16.8,56.2146785 L23.5699341,49.5849671 Z M88.6666667,49.5849671 L95.4366008,56.0219223 L88.6666667,62.6516337 L88.6676008,58.9179671 L81.4366008,58.9183004 L81.4366008,53.3183004 L88.6676008,53.3179671 L88.6666667,49.5849671 Z M56.0219223,16.8 L62.6516337,23.5699341 L58.9179671,23.569 L58.9183004,30.8 L53.3183004,30.8 L53.3179671,23.569 L49.5849671,23.5699341 L56.0219223,16.8 Z" id="Combined-Shape" transform="translate(56.118300, 56.118300) rotate(-315.000000) translate(-56.118300, -56.118300) "></path>
                    <path d="M58.8,82.1333333 L58.7996667,89.5993333 L62.5333333,89.6 L56.0963781,96.3699341 L49.4666667,89.6 L53.1996667,89.5993333 L53.2,82.1333333 L58.8,82.1333333 Z M55.9036219,17.7333333 L62.5333333,24.5032675 L58.7996667,24.5023333 L58.8,31.7333333 L53.2,31.7333333 L53.1996667,24.5023333 L49.4666667,24.5032675 L55.9036219,17.7333333 Z" id="Combined-Shape" transform="translate(56.000000, 57.051634) rotate(-270.000000) translate(-56.000000, -57.051634) "></path>
                </g>
            </g>
        </g>
    </g>
</svg>