<svg xmlns="http://www.w3.org/2000/svg" width="74" height="20" viewBox="0 0 74 20">
    <g fill="none" fill-rule="evenodd">
        <g fill="#222">
            <g>
                <g>
                    <path d="M74 5.32h-3.564V0H67v20h3.005c.28-1.18.43-3.207.43-4.792V8.192H74V5.319zM53.37 0v2.785h4.131V4.13c0 3.551-.738 5.786-4.501 7.4L54.414 14c2.152-.788 4.174-2.275 5.108-4.17.935 1.788 2.891 3.254 4.781 3.977L66 10.917c-3.651-1.34-4.914-3.425-4.914-6.805V2.785h4.018V0H53.371zM51 17.276H40.81c-.268 0-.352-.06-.352-.343V13H37v5.304c0 1.151.6 1.696 1.782 1.696H51v-2.724zM51 0h-3.608v3.946H44v2.846h3.392V14h3.175c.26-.975.433-2.613.433-3.8V0zM33.457 0v2.896h3.947v.744c0 2.987-1.192 4.565-4.404 5.598L34.216 12c2.212-.524 4.382-1.842 5.274-3.643.952 1.801 3.037 3.05 4.967 3.512L46 8.712c-2.801-.616-4.818-2.152-4.818-5.09v-.726h3.883V0H33.457zM5.233 19L13 19 13 15.3 4.232 15.3 4.232 0 0 0 0 19zM22.72 11.694h3.415v3.225c-.628.245-1.857.489-3.026.489-3.775 0-5.034-1.949-5.034-5.907 0-3.776 1.199-5.997 4.973-5.997 2.099 0 3.296.668 4.285 1.946l2.607-2.435C28.35.703 25.565 0 22.959 0 17.087 0 14 3.257 14 9.468 14 15.652 16.786 19 22.93 19c2.815 0 5.571-.732 7.07-1.796v-8.95h-7.28v3.44z" transform="translate(-120 -22) translate(120 22)"/>
                </g>
            </g>
        </g>
    </g>
</svg>
