<svg xmlns="http://www.w3.org/2000/svg" width="160" height="42" viewBox="0 0 160 42">
    <g fill="none" fill-rule="evenodd">
        <g fill="#222">
            <g>
                <g>
                    <g>
                        <path d="M160 11.17h-7.483V0h-7.213v42h6.31c.586-2.48.903-6.734.903-10.062V17.203H160V11.17zM116.37.766v5.894h8.566v2.85c0 7.517-1.532 12.247-9.335 15.665l2.932 5.225c4.464-1.667 8.655-4.816 10.594-8.825 1.939 3.782 5.996 6.886 9.915 8.416l3.519-6.116c-7.573-2.838-10.19-7.25-10.19-14.406V6.659h8.332V.765H116.37zm-4.284 35.155H89.904c-.586 0-.769-.131-.769-.765v-8.777h-7.527v11.837c0 2.569 1.307 3.785 3.88 3.785h26.598v-6.08zM111.32 0h-7.528v8.55h-7.079v6.167h7.08v15.62h6.623c.542-2.113.904-5.662.904-8.235V0zM73.948.81v5.942h8.201v1.527c0 6.127-2.477 9.366-9.149 11.484l2.525 5.668c4.596-1.076 9.104-3.78 10.956-7.475 1.978 3.695 6.31 6.259 10.32 7.206l3.203-6.477C94.185 17.42 89.997 14.269 89.997 8.24V6.752h8.066V.81H73.948zM11.673 41L29 41 29 33.211 9.441 33.211 9.441 1 0 1 0 41zM49.618 25.85h7.687v7.13c-1.415.54-4.18 1.079-6.81 1.079-8.494 0-11.327-4.308-11.327-13.057 0-8.348 2.698-13.256 11.191-13.256 4.72 0 7.416 1.476 9.64 4.301l5.866-5.383C62.288 1.554 56.022 0 50.157 0 36.946 0 30 7.199 30 20.93 30 34.6 36.268 42 50.091 42c6.335 0 12.537-1.617 15.909-3.97V18.244H49.618v7.605z" transform="translate(-32 -111) translate(0 84) translate(32 27)"/>
                    </g>
                </g>
            </g>
        </g>
    </g>
</svg>
