<svg id="img-logo-thinq" xmlns="http://www.w3.org/2000/svg" width="96" height="29.793" viewBox="0 0 96 29.793">
    <defs>
        <style>
            .cls-2{fill:#161615}
        </style>
    </defs>
    <path id="Rectangle" style="fill:none" d="M0 0h96v29.793H0z"/>
    <g id="Group_602" data-name="Group 602" transform="translate(0 6.667)">
        <path id="Path_352" data-name="Path 352" class="cls-2" d="M543.364 374.535h-3.8v16.449h11.667v-3.2h-7.872zm16.229 10.181h3.09v2.878a8.789 8.789 0 0 1-2.739.434c-3.42 0-4.562-1.738-4.562-5.266 0-3.367 1.089-5.339 4.506-5.339a4.4 4.4 0 0 1 3.883 1.728l2.36-2.167c-1.439-2.064-3.958-2.693-6.319-2.693-5.325 0-8.118 2.909-8.118 8.443 0 5.508 2.522 8.492 8.093 8.492a12.006 12.006 0 0 0 6.392-1.6v-7.976h-6.586z" transform="translate(-539.568 -374.173)"/>
        <g id="Group_601" data-name="Group 601" transform="translate(36.582)">
            <path id="Path_353" data-name="Path 353" class="cls-2" d="M590.215 376.854h5.085v14.207h2.815v-14.207h5.061v-2.267h-12.961z" transform="translate(-590.215 -374.255)"/>
            <path id="Path_354" data-name="Path 354" class="cls-2" d="M629.436 376.368a1.672 1.672 0 1 0 1.668 1.67 1.666 1.666 0 0 0-1.668-1.67z" transform="translate(-600.643 -374.75)"/>
            <path id="Path_355" data-name="Path 355" class="cls-2" d="M628.13 383.129v10.3h2.77v-10.3a3.565 3.565 0 0 1-2.768 0z" transform="translate(-600.744 -376.628)"/>
            <path id="Path_356" data-name="Path 356" class="cls-2" d="M615.323 379.569a5.94 5.94 0 0 0-2.278.438v-5.42h-2.815v16.474h2.815v-7.271a2.116 2.116 0 0 1 2.313-1.815 2.023 2.023 0 0 1 2.294 1.94v7.146h2.783v-7.583c0-2.003-1.797-3.909-5.112-3.909z" transform="translate(-595.773 -374.255)"/>
            <path id="Path_357" data-name="Path 357" class="cls-2" d="M640.666 381.485c-3.291.013-5.094 1.912-5.094 3.908v7.583h2.781v-7.146a2.349 2.349 0 0 1 4.626 0v7.146h2.785v-7.583c0-1.993-1.804-3.893-5.098-3.908z" transform="translate(-602.811 -376.171)"/>
            <path id="Path_358" data-name="Path 358" class="cls-2" d="m666.065 393.142-2.813-3.2a5.11 5.11 0 0 0 .805-.829c1.052-1.372 1.606-3.821 1.643-6.607-.037-2.786-.591-4.9-1.643-6.267a6.459 6.459 0 0 0-9.552 0c-1.053 1.372-1.608 3.481-1.647 6.267.038 2.786.594 5.234 1.647 6.607a5.759 5.759 0 0 0 4.775 2.111 7.566 7.566 0 0 0 1.611-.168l1.838 2.088zm-9.427-5.777a10.309 10.309 0 0 1-.92-4.784 9.458 9.458 0 0 1 .92-4.6 3.06 3.06 0 0 1 5.286 0 9.5 9.5 0 0 1 .919 4.6 10.353 10.353 0 0 1-.919 4.784 3.061 3.061 0 0 1-5.286 0z" transform="translate(-607.612 -374.128)"/>
        </g>
    </g>
</svg>
