<svg xmlns="http://www.w3.org/2000/svg" width="141" height="37" viewBox="0 0 141 37">
    <g fill="none" fill-rule="evenodd">
        <g fill="#222">
            <g>
                <g>
                    <g>
                        <path d="M141 9.84h-6.62V0H128v37h5.582c.518-2.185.799-5.932.799-8.864V15.155H141V9.84zM102.684 1v5.172h7.626v2.5c0 6.595-1.364 10.745-8.31 13.743L104.61 27c3.974-1.463 7.705-4.225 9.431-7.743 1.726 3.318 5.338 6.042 8.827 7.384L126 21.275c-6.741-2.49-9.072-6.362-9.072-12.64V6.173h7.418V1h-21.662zM99 31.552H79.35c-.52 0-.682-.118-.682-.686V23H72v10.608C72 35.91 73.158 37 75.438 37H99v-5.448zM98 0h-6.7v7.61H85v5.488h6.3V27h5.896c.482-1.88.804-5.039.804-7.328V0zM64.843 1v5.31h7.288v1.364c0 5.475-2.201 8.37-8.131 10.262L66.244 23c4.084-.961 8.091-3.377 9.737-6.68 1.758 3.303 5.608 5.593 9.171 6.44L88 16.972c-5.172-1.13-8.894-3.946-8.894-9.333V6.31h7.168V1H64.843zM10.465 36L26 36 26 29.184 8.464 29.184 8.464 1 0 1 0 36zM43.438 22.772h6.833v6.281c-1.258.477-3.715.951-6.054.951-7.55 0-10.068-3.794-10.068-11.503 0-7.353 2.398-11.677 9.948-11.677 4.196 0 6.591 1.3 8.57 3.789l5.213-4.742C54.7 1.369 49.13 0 43.918 0 32.174 0 26 6.342 26 18.438 26 30.48 31.572 37 43.859 37c5.63 0 11.144-1.425 14.141-3.498V16.073H43.438v6.7z" transform="translate(-38 -121) translate(0 80) translate(38 41)"/>
                    </g>
                </g>
            </g>
        </g>
    </g>
</svg>
