<svg xmlns="http://www.w3.org/2000/svg" width="90" height="24" viewBox="0 0 90 24">
    <g fill="none" fill-rule="evenodd">
        <g fill="#222">
            <g>
                <g>
                    <path d="M89.306 6.243h-4.175V0h-4.026v23.471h3.521c.328-1.386.505-3.763.505-5.623V9.614h4.175V6.243zM64.96.428v3.294h4.78v1.593c0 4.2-.855 6.843-5.21 8.753l1.637 2.92c2.491-.931 4.83-2.691 5.912-4.932 1.082 2.114 3.346 3.849 5.533 4.703l1.963-3.417c-4.225-1.586-5.686-4.052-5.686-8.05v-1.57h4.65V.428h-13.58zm-2.39 19.646H50.19c-.327 0-.43-.074-.43-.428v-4.905h-4.2v6.615c0 1.436.73 2.115 2.166 2.115h14.842v-3.397zM62.14 0h-4.2V4.78H53.99v3.446h3.95v8.728h3.697c.302-1.18.504-3.164.504-4.601V0zM41.286.453v3.32h4.576v.854c0 3.424-1.382 5.234-5.105 6.418l1.409 3.167c2.564-.601 5.08-2.112 6.114-4.178 1.104 2.066 3.521 3.498 5.758 4.027l1.788-3.62c-3.247-.705-5.584-2.467-5.584-5.836v-.831h4.5V.453H41.287zM6.47 23.134L16.074 23.134 16.074 18.723 5.233 18.723 5.233.483.001.483.001 23.134zM27.588 14.501h4.262v3.96c-.785.3-2.317.6-3.776.6-4.71 0-6.281-2.393-6.281-7.253 0-4.636 1.496-7.363 6.205-7.363 2.618 0 4.113.82 5.346 2.39l3.253-2.99c-1.984-2.84-5.458-3.702-8.71-3.702-7.326 0-11.178 3.998-11.178 11.625 0 7.593 3.476 11.704 11.14 11.704 3.514 0 6.953-.899 8.823-2.206V10.277h-9.084v4.224z" transform="translate(-120 -20) translate(120 20)"/>
                </g>
            </g>
        </g>
    </g>
</svg>
