<?xml version="1.0" encoding="UTF-8"?>
<svg width="48px" height="48px" viewBox="0 0 48 48" version="1.1" xmlns="http://www.w3.org/2000/svg" xmlns:xlink="http://www.w3.org/1999/xlink">
    <title>icon_internet</title>
    <g id="Page-1" stroke="none" stroke-width="1" fill="none" fill-rule="evenodd">
        <g id="icon_internet">
            <rect id="Rectangle" x="0" y="0" width="47.8753247" height="47.8753247"></rect>
            <path d="M36.2025974,33.9116883 C38.1880519,33.7356761 39.6305455,32.3099771 39.8493506,30.321039 L39.8493506,12.9662338 C39.6467532,11.399725 38.1880519,9.97402597 36.2025974,9.97402597 L10.6753247,9.97402597 C8.68987013,9.97402597 7.23116883,11.399725 7.02857143,12.9662338 L7.02857143,30.321039 C7.23116883,32.3099771 8.68987013,33.7356761 10.6753247,33.9116883 L3.98961039,33.9116883 C3.98961039,35.4781971 5.44831169,36.9038961 7.02857143,36.9038961 L39.8493506,36.9038961 C41.4296104,36.9038961 42.8883117,35.4781971 42.8883117,33.9116883 L36.2025974,33.9116883 Z M10.6753247,12.9662338 L36.8103896,12.9662338 L36.8103896,30.321039 L10.6753247,30.321039 L10.6753247,12.9662338 Z M23.438961,35.1085714 C22.2993506,35.1085714 21.6155844,34.4353247 21.6155844,33.9116883 C21.6155844,32.7896104 22.2993506,32.1163636 23.438961,32.1163636 C23.9707792,32.1163636 24.6545455,32.7896104 24.6545455,33.9116883 C24.6545455,34.4353247 23.9707792,35.1085714 23.438961,35.1085714 Z" id="Shape" fill="#A1A1A1" fill-rule="nonzero"></path>
        </g>
    </g>
</svg>