<svg xmlns="http://www.w3.org/2000/svg" xmlns:xlink="http://www.w3.org/1999/xlink" width="80" height="80" viewBox="0 0 80 80">
    <defs>
        <circle id="njy6j63sua" cx="40" cy="40" r="40"/>
    </defs>
    <g fill="none" fill-rule="evenodd">
        <g>
            <g>
                <g>
                    <g>
                        <g>
                            <g transform="translate(-1089 -2605) translate(0 629) translate(270 1253) translate(819 464) translate(0 259)">
                                <mask id="5qzce970lb" fill="#fff">
                                    <use xlink:href="#njy6j63sua"/>
                                </mask>
                                <circle cx="40" cy="40" r="38.75" stroke="#DDD" stroke-width="2.5"/>
                                <g mask="url(#5qzce970lb)">
                                    <g>
                                        <path d="M0 0H48V48H0z" transform="translate(16 16)"/>
                                        <text font-family="NotoSansCJKkr-Bold, Noto Sans CJK KR" font-size="13" font-weight="bold" transform="translate(16 16)">
                                            <tspan x="7.02" y="18.5" fill="#AAA">한</tspan>
                                        </text>
                                        <g>
                                            <path stroke="#AAA" stroke-width="2.5" d="M36.672 0c.552 0 1 .448 1 1 0 .367-.201.705-.524.88L26.624 7.57V24.5c0 1.38-1.12 2.5-2.5 2.5h-21c-1.381 0-2.5-1.12-2.5-2.5v-22c0-1.38 1.119-2.5 2.5-2.5h33.548z" transform="translate(16 16) translate(1 3)"/>
                                            <path fill="#FFF" stroke="#AAA" stroke-width="2.5" d="M9.624 42c-.553 0-1-.448-1-1 0-.367.201-.705.524-.88l10.524-5.69V17.5c0-1.38 1.12-2.5 2.5-2.5h21c1.38 0 2.5 1.12 2.5 2.5v22c0 1.38-1.12 2.5-2.5 2.5H9.624z" transform="translate(16 16) translate(1 3)"/>
                                            <text fill="#AAA" font-family="NotoSansCJKkr-Bold, Noto Sans CJK KR" font-size="14" font-weight="bold" transform="translate(16 16) translate(1 3)">
                                                <tspan x="28.013" y="31">A</tspan>
                                            </text>
                                        </g>
                                    </g>
                                </g>
                            </g>
                        </g>
                    </g>
                </g>
            </g>
        </g>
    </g>
</svg>
