<svg xmlns="http://www.w3.org/2000/svg" xmlns:xlink="http://www.w3.org/1999/xlink" width="80" height="80" viewBox="0 0 80 80">
    <defs>
        <circle id="k0kcq78t6a" cx="40" cy="40" r="40"/>
    </defs>
    <g fill="none" fill-rule="evenodd">
        <g>
            <g>
                <g>
                    <g>
                        <g transform="translate(-1090 -1983) translate(269 1260) translate(821 467) translate(0 256)">
                            <mask id="4tdvw9bheb" fill="#fff">
                                <use xlink:href="#k0kcq78t6a"/>
                            </mask>
                            <use fill="#DA0F47" xlink:href="#k0kcq78t6a"/>
                            <g mask="url(#4tdvw9bheb)">
                                <g>
                                    <path d="M0 0H48V48H0z" transform="translate(16 16)"/>
                                    <text font-family="NotoSansCJKkr-Bold, Noto Sans CJK KR" font-size="13" font-weight="bold" transform="translate(16 16)">
                                        <tspan x="7.02" y="18.5" fill="#FFF">한</tspan>
                                    </text>
                                    <g>
                                        <path stroke="#FFF" stroke-width="2.5" d="M36.672 0c.552 0 1 .448 1 1 0 .367-.201.705-.524.88L26.624 7.57V24.5c0 1.38-1.12 2.5-2.5 2.5h-21c-1.381 0-2.5-1.12-2.5-2.5v-22c0-1.38 1.119-2.5 2.5-2.5h33.548z" transform="translate(16 16) translate(1 3)"/>
                                        <path fill="#DA0F47" stroke="#FFF" stroke-width="2.5" d="M9.624 42c-.553 0-1-.448-1-1 0-.367.201-.705.524-.88l10.524-5.69V17.5c0-1.38 1.12-2.5 2.5-2.5h21c1.38 0 2.5 1.12 2.5 2.5v22c0 1.38-1.12 2.5-2.5 2.5H9.624z" transform="translate(16 16) translate(1 3)"/>
                                        <text fill="#FFF" font-family="NotoSansCJKkr-Bold, Noto Sans CJK KR" font-size="14" font-weight="bold" transform="translate(16 16) translate(1 3)">
                                            <tspan x="28.013" y="31">A</tspan>
                                        </text>
                                    </g>
                                </g>
                            </g>
                        </g>
                    </g>
                </g>
            </g>
        </g>
    </g>
</svg>
