<svg xmlns="http://www.w3.org/2000/svg" xmlns:xlink="http://www.w3.org/1999/xlink" width="80" height="80" viewBox="0 0 80 80">
    <defs>
        <circle id="5efpvgt91a" cx="40" cy="40" r="40"/>
    </defs>
    <g fill="none" fill-rule="evenodd">
        <g>
            <g>
                <g>
                    <g>
                        <g>
                            <g transform="translate(-1089 -2477) translate(0 629) translate(270 1253) translate(819 464) translate(0 131)">
                                <mask id="ab8e5sfvlb" fill="#fff">
                                    <use xlink:href="#5efpvgt91a"/>
                                </mask>
                                <circle cx="40" cy="40" r="38.75" stroke="#DDD" stroke-width="2.5"/>
                                <g mask="url(#ab8e5sfvlb)">
                                    <g>
                                        <path d="M0 0H48V48H0z" transform="translate(16 16)"/>
                                        <g transform="translate(16 16) translate(2 2)">
                                            <circle cx="21.585" cy="21.585" r="20.335" fill="#FFF" stroke="#AAA" stroke-width="2.5"/>
                                            <ellipse cx="21.585" cy="21.585" stroke="#AAA" stroke-width="2.5" rx="20.335" ry="11.031" transform="rotate(90 21.585 21.585)"/>
                                            <ellipse cx="21.585" cy="21.585" stroke="#AAA" stroke-width="2.5" rx="20.335" ry="11.031"/>
                                            <path fill="#AAA" d="M21 0H23.5V43H21z"/>
                                        </g>
                                        <path fill="#FFF" stroke="#AAA" stroke-width="2.5" d="M29.182 26.382l1.523 19.779 4.72-4.398 2.61 4.174c.182.293.467.484.778.556.312.072.651.025.944-.158l2.544-1.59c.293-.183.484-.467.556-.779.072-.311.025-.65-.158-.943l-2.62-4.19 6.22-2.407-17.117-10.044z" transform="translate(16 16)"/>
                                    </g>
                                </g>
                            </g>
                        </g>
                    </g>
                </g>
            </g>
        </g>
    </g>
</svg>
