<svg xmlns="http://www.w3.org/2000/svg" xmlns:xlink="http://www.w3.org/1999/xlink" width="82" height="80" viewBox="0 0 82 80">
    <defs>
        <circle id="zay5jg4bba" cx="40" cy="40" r="40"/>
    </defs>
    <g fill="none" fill-rule="evenodd">
        <g>
            <g>
                <g>
                    <g>
                        <g>
                            <g transform="translate(-1063 -2747) translate(0 158) translate(620.5 1658) translate(155.5 931) translate(288)">
                                <mask id="ja0sva21tb" fill="#fff">
                                    <use xlink:href="#zay5jg4bba"/>
                                </mask>
                                <circle cx="40" cy="40" r="39.5" stroke="#DDD"/>
                                <g mask="url(#ja0sva21tb)">
                                    <g>
                                        <path fill="#FFF" stroke="#AAA" stroke-width="2" d="M35.378 1H4.32c-.917 0-1.747.372-2.348.972C1.372 2.573 1 3.403 1 4.32v20.16c0 .917.372 1.747.972 2.348.601.6 1.431.972 2.348.972H25.2c.917 0 1.747-.372 2.348-.972.6-.601.972-1.431.972-2.348l-.001-16.894L35.379 1zm.944-.364c.061-.043-.008-.062-.041-.115-.032-.053-.018-.124-.084-.088z" transform="translate(16 19)"/>
                                        <path fill="#AAA" fill-rule="nonzero" d="M16.56 10.21V9.029h-3.096V7.53h-1.483V9.03H8.885v1.18h7.675zm2.462 7.084v-4.377h1.844v-1.224h-1.844V7.546H17.54v9.748h1.483zm-6.307-1.555c1.872 0 3.154-.979 3.154-2.462 0-1.469-1.282-2.463-3.154-2.463-1.857 0-3.153.994-3.153 2.463 0 1.483 1.296 2.462 3.153 2.462zm0-1.152c-1.022 0-1.728-.49-1.728-1.31 0-.821.706-1.31 1.728-1.31 1.037 0 1.743.489 1.743 1.31 0 .82-.706 1.31-1.743 1.31zm6.826 5.717v-1.21h-7.258v-2.548h-1.497v3.758h8.755z" transform="translate(16 19)"/>
                                        <path fill="#FFF" stroke="#AAA" stroke-width="2" d="M13.582 40.76H44.64c.917 0 1.747-.372 2.348-.972.6-.601.972-1.431.972-2.348V17.28c0-.917-.372-1.747-.972-2.348-.601-.6-1.431-.972-2.348-.972H23.76c-.917 0-1.747.372-2.348.972-.6.601-.972 1.431-.972 2.348l.001 16.894-6.86 6.586zm-.944.364c-.061.043.008.062.04.115.033.053.019.124.085.088z" transform="translate(16 19)"/>
                                        <path fill="#AAA" fill-rule="nonzero" d="M30.712 32.4l1.021-3.287h4.149l1.005 3.287h1.993l-3.954-11.52h-2.172L28.8 32.4h1.912zm4.716-4.711h-3.257l.486-1.55c.389-1.252.762-2.52 1.102-3.835h.065c.373 1.3.73 2.583 1.134 3.835l.47 1.55z" transform="translate(16 19)"/>
                                    </g>
                                </g>
                            </g>
                        </g>
                    </g>
                </g>
            </g>
        </g>
    </g>
</svg>
