<svg xmlns="http://www.w3.org/2000/svg" xmlns:xlink="http://www.w3.org/1999/xlink" width="80" height="80" viewBox="0 0 80 80">
    <defs>
        <circle id="xf6w6rlu4a" cx="40" cy="40" r="40"/>
    </defs>
    <g fill="none" fill-rule="evenodd">
        <g>
            <g>
                <g>
                    <g>
                        <g>
                            <g transform="translate(-1090 -715) translate(269 120) translate(821 467) translate(0 128)">
                                <mask id="7dw4aefz7b" fill="#fff">
                                    <use xlink:href="#xf6w6rlu4a"/>
                                </mask>
                                <use fill="#DA0F47" xlink:href="#xf6w6rlu4a"/>
                                <g mask="url(#7dw4aefz7b)">
                                    <g>
                                        <path d="M0 0H48V48H0z" transform="translate(16 16)"/>
                                        <g transform="translate(16 16) translate(2 2)">
                                            <circle cx="21.585" cy="21.585" r="20.447" stroke="#FFF" stroke-width="2.275"/>
                                            <ellipse cx="21.585" cy="21.585" stroke="#FFF" stroke-width="2.275" rx="20.447" ry="11.144" transform="rotate(90 21.585 21.585)"/>
                                            <ellipse cx="21.585" cy="21.585" stroke="#FFF" stroke-width="2.275" rx="20.447" ry="11.144"/>
                                            <path fill="#FFF" d="M20.93 0H23.66V42.77H20.93z"/>
                                        </g>
                                        <path fill="#DA0F47" stroke="#FFF" stroke-width="2.5" d="M29.182 26.382l1.523 19.779 4.72-4.398 2.61 4.174c.182.293.467.484.778.556.312.072.651.025.944-.158l2.544-1.59c.293-.183.484-.467.556-.779.072-.311.025-.65-.158-.943l-2.62-4.19 6.22-2.407-17.117-10.044z" transform="translate(16 16)"/>
                                    </g>
                                </g>
                            </g>
                        </g>
                    </g>
                </g>
            </g>
        </g>
    </g>
</svg>
