<svg id="img_sale_128" xmlns="http://www.w3.org/2000/svg" xmlns:xlink="http://www.w3.org/1999/xlink" width="128" height="128" viewBox="0 0 128 128">
  <defs>
    <clipPath id="clip-path">
      <rect id="Mask" width="128" height="128" fill="none"/>
    </clipPath>
  </defs>
  <rect id="Mask-3" data-name="Mask" width="128" height="128" fill="none"/>
  <g id="마스크_그룹_10" data-name="마스크 그룹 10" clip-path="url(#clip-path)">
    <g id="ic">
      <rect id="Mask-4" data-name="Mask" width="128" height="128" fill="none"/>
      <g id="ic-2" data-name="ic" clip-path="url(#clip-path)">
        <g id="Rectangle_2" data-name="Rectangle 2" transform="translate(10 14.72)" fill="none">
          <path d="M43.942,103.815,13.317,74.905a4,4,0,0,1-.058-5.761l22.492-22.1H4a4,4,0,0,1-4-4V4A4,4,0,0,1,4,0H88.8a4,4,0,0,1,3.342,1.8l6.566,9.982,4.46.692a4,4,0,0,1,3.312,3.182l4.867,24.788a4,4,0,0,1-1.121,3.624L49.491,103.76a4,4,0,0,1-5.549.055Z" stroke="none"/>
          <path d="M 46.68779373168945 100.9066543579102 L 46.68725204467773 100.9071884155273 L 107.4238510131836 41.21671676635742 L 102.5564346313477 16.42851638793945 L 96.34268951416016 15.46444320678711 L 88.80119323730469 4.000007152557373 L 3.999995946884155 3.999607086181641 L 3.999995946884155 43.0398063659668 C 3.999996185302734 43.03997802734375 4.001436233520508 43.0401496887207 3.999595880508423 43.04029846191406 L 45.52816009521484 43.04029846191406 L 16.06314086914062 71.99653625488281 L 46.68779373168945 100.9066543579102 M 46.68728637695312 104.9068984985352 C 45.70028686523438 104.9069671630859 44.71294021606445 104.5437164306641 43.94159698486328 103.8150100708008 L 13.31730461120605 74.90520477294922 C 11.66850471496582 73.34820556640625 11.64239597320557 70.73369598388672 13.25970458984375 69.14429473876953 L 35.7513427734375 47.04029846191406 L 3.999595880508423 47.04029846191406 C 1.790995955467224 47.04029846191406 -4.099897978449007e-06 45.24929809570312 -4.099897978449007e-06 43.0398063659668 L -4.099897978449007e-06 3.999607086181641 C -4.099897978449007e-06 1.791007041931152 1.790995955467224 7.039573119982379e-06 3.999595880508423 7.039573119982379e-06 L 88.80119323730469 7.039573119982379e-06 C 90.14761352539062 7.039573119982379e-06 91.40310668945312 0.6768070459365845 92.14290618896484 1.801807045936584 L 98.70932006835938 11.78377056121826 L 103.1697082519531 12.47580718994141 C 104.8337936401367 12.73409748077393 106.1577072143555 14.0058069229126 106.4817047119141 15.65820693969727 L 111.3489074707031 40.44600677490234 C 111.6081085205078 41.76540756225586 111.1869049072266 43.12709808349609 110.2275085449219 44.07029724121094 L 49.49099731445312 103.7601013183594 C 48.71363067626953 104.5237884521484 47.70064926147461 104.9068450927734 46.68728637695312 104.9068984985352 Z" stroke="none" fill="#000"/>
        </g>
        <g id="Rectangle" transform="translate(20.298 86.775) rotate(-45)" fill="none">
          <path d="M.119,4.151A4,4,0,0,1,4.153.036l85,.739a4,4,0,0,1,3.194,1.639L107.8,23.542a4,4,0,0,1,.092,4.592L93.8,49.1a4,4,0,0,1-3.355,1.769l-85.155-.74a4,4,0,0,1-3.964-3.885Z" stroke="none"/>
          <path d="M 4.115974426269531 4.035938262939453 L 4.117874145507812 4.035957336425781 C 4.11785888671875 4.035968780517578 4.117843627929688 4.035980224609375 4.117835998535156 4.035957336425781 L 5.329574584960938 46.13262939453125 L 90.48421478271484 46.87310409545898 L 104.5704498291016 25.90335845947266 L 89.11827087402344 4.775104522705078 L 4.115974426269531 4.035938262939453 M 4.117057800292969 0.03594970703125 C 4.128936767578125 0.03594970703125 4.140708923339844 0.03599929809570312 4.152610778808594 0.036102294921875 L 89.15305328369141 0.7752494812011719 C 90.41674041748047 0.7862319946289062 91.60092163085938 1.393756866455078 92.34693908691406 2.413795471191406 L 107.7991256713867 23.54206657409668 C 108.7928695678711 24.9008674621582 108.8295440673828 26.73643112182617 107.8908538818359 28.13381195068359 L 93.80461120605469 49.10355758666992 C 93.05474090576172 50.21986770629883 91.79402160644531 50.88464736938477 90.44943237304688 50.87295913696289 L 5.2947998046875 50.13248443603516 C 3.144050598144531 50.11377716064453 1.393119812011719 48.39766693115234 1.331230163574219 46.24772262573242 L 0.1194839477539062 4.151050567626953 C 0.05457305908203125 1.895984649658203 1.865745544433594 0.03594970703125 4.117057800292969 0.03594970703125 Z" stroke="none" fill="#000"/>
        </g>
        <g id="Group_2" data-name="Group 2" transform="translate(96.692 23.68)">
          <g id="Oval" transform="translate(0 8.96)" fill="none" stroke="#000" stroke-width="4.48">
            <ellipse cx="6.838" cy="6.72" rx="6.838" ry="6.72" stroke="none"/>
            <ellipse cx="6.838" cy="6.72" rx="4.598" ry="4.48" fill="none"/>
          </g>
          <path id="Line" d="M0,11.087,11.282,0" transform="translate(11.396 0)" fill="none" stroke="#000" stroke-linecap="round" stroke-linejoin="round" stroke-width="4.48"/>
        </g>
        <path id="SALE" d="M39.129,73.6c3.762,0,5.984-2.266,5.984-4.928,0-2.354-1.3-3.608-3.278-4.422l-2.134-.9c-1.386-.55-2.552-.968-2.552-2.134,0-1.078.924-1.716,2.354-1.716a5.193,5.193,0,0,1,3.454,1.342l1.65-2.046a7.225,7.225,0,0,0-5.1-2.09c-3.3,0-5.632,2.046-5.632,4.708a4.716,4.716,0,0,0,3.3,4.378l2.178.924c1.452.616,2.442.99,2.442,2.2,0,1.144-.9,1.87-2.6,1.87a6.405,6.405,0,0,1-4.136-1.8l-1.87,2.244A8.675,8.675,0,0,0,39.129,73.6ZM49.2,73.292l1.144-4.18h5.28l1.144,4.18h3.41l-5.236-16.28H51.119L45.9,73.292Zm5.72-6.71H51.053l.484-1.782c.484-1.694.968-3.542,1.386-5.324h.088c.484,1.76.924,3.63,1.43,5.324Zm17.028,6.71V70.564h-6.6V57.012H62.1v16.28Zm13.068,0V70.564H78.047V66.208h5.72V63.48h-5.72V59.718h6.732V57.012H74.791v16.28Z" transform="translate(-16.758 67.017) rotate(-45)" fill="#da0f47"/>
      </g>
    </g>
  </g>
</svg>
