<svg width="48" height="48" viewBox="0 0 48 48" xmlns="http://www.w3.org/2000/svg">
    <g transform="translate(4.5 9)" fill="none" fill-rule="evenodd">
        <path d="M34.5.75c.621 0 1.184.252 1.591.659.407.407.659.97.659 1.591l.001 16.089A8.221 8.221 0 0 1 39 24.75c0 2.278-.923 4.34-2.416 5.834A8.224 8.224 0 0 1 30.75 33a8.244 8.244 0 0 1-6.916-3.75H3a2.243 2.243 0 0 1-1.591-.659A2.243 2.243 0 0 1 .75 27V3c0-.621.252-1.184.659-1.591C1.816 1.002 2.379.75 3 .75z" stroke="#000" stroke-width="1.5"/>
        <circle stroke="#000" stroke-width="1.5" cx="10.5" cy="4.5" r="1.5"/>
        <circle stroke="#000" stroke-width="1.5" cx="5.25" cy="4.5" r="1.5"/>
        <path fill="#000" d="M1.5 7.5H36V9H1.5z"/>
        <circle stroke="#000" stroke-width="1.5" cx="30.75" cy="24.75" r="8.25"/>
        <path stroke="#DA0F47" stroke-width="1.5" stroke-linecap="round" stroke-linejoin="round" d="M27.75 24.732 30.01 27l4.49-4.5"/>
    </g>
</svg>
