<svg width="48" height="48" viewBox="0 0 48 48" xmlns="http://www.w3.org/2000/svg">
    <g stroke="#000" stroke-width="1.5" fill="none" fill-rule="evenodd">
        <path d="M7.5 37.5V18.521a4.5 4.5 0 0 1 2.17-3.85L20.894 7.88a6 6 0 0 1 6.212 0L38.33 14.67a4.5 4.5 0 0 1 2.17 3.85V37.5a3 3 0 0 1-3 3h-27a3 3 0 0 1-3-3z"/>
        <path d="M25.298 17.282c-.631.497-1.05 1.13-1.298 1.59-.247-.46-.667-1.093-1.298-1.59a3.508 3.508 0 0 0-2.218-.782c-2.271 0-3.984 1.894-3.984 4.406 0 2.713 2.137 4.57 5.372 7.38.55.478 1.172 1.019 1.82 1.596a.463.463 0 0 0 .617 0c.647-.577 1.27-1.118 1.82-1.596 3.234-2.81 5.371-4.667 5.371-7.38 0-2.512-1.713-4.406-3.984-4.406-.814 0-1.56.263-2.218.782z" stroke-linejoin="round"/>
        <path stroke-linecap="round" d="M15 36h18"/>
    </g>
</svg>
