<svg width="64" height="64" viewBox="0 0 64 64" xmlns="http://www.w3.org/2000/svg">
    <g fill="none" fill-rule="evenodd">
        <g transform="translate(6 14)">
            <path d="M45 0c2.21 0 4 1.79 4 4v16.607c1.86 2.06 3 4.837 3 7.893C52 34.851 47.075 40 41 40c-4.547 0-8.45-2.885-10.126-7H5c-2.21 0-4-1.79-4-4V4c0-2.21 1.79-4 4-4h40z" stroke="#000" stroke-width="2"/>
            <path d="M0 12h49v2H0v-2zm0-6h49v2H0V6z" fill="#000" fill-rule="nonzero"/>
            <circle stroke="#000" stroke-width="2" cx="41" cy="29" r="11"/>
        </g>
        <path stroke="#DA0F47" stroke-width="2" stroke-linecap="round" stroke-linejoin="round" d="M43 42.976 46.014 46 52 40"/>
    </g>
</svg>
