<svg width="64" height="64" viewBox="0 0 64 64" xmlns="http://www.w3.org/2000/svg">
    <g transform="translate(6 8)" fill="none" fill-rule="evenodd">
        <path d="M8 38v-6a8 8 0 0 1-8-8V8a8 8 0 0 1 8-8h24a8 8 0 0 1 8 8h4a8 8 0 0 1 8 8v16a8 8 0 0 1-8 8v6l-6-6H28a8 8 0 0 1-8-8h-6l-6 6z" stroke="#030303" stroke-width="2" stroke-linejoin="round"/>
        <rect fill="#DA0F47" x="8" y="10" width="24" height="2" rx="1"/>
        <rect fill="#DA0F47" x="8" y="18" width="24" height="2" rx="1"/>
        <path d="M8 0a8 8 0 0 0-8 8v16a8 8 0 0 0 8 8v6l6-6h18a8 8 0 0 0 8-8V8a8 8 0 0 0-8-8H8z" stroke="#030303" stroke-width="2" stroke-linejoin="round"/>
    </g>
</svg>
