<svg width="48" height="48" viewBox="0 0 48 48" xmlns="http://www.w3.org/2000/svg">
    <g fill="none" fill-rule="evenodd">
        <path d="M0 0h48v48H0z"/>
        <path d="M23.528 38.445c-5.939-5.206-10.813-9.76-13.572-12.46a4.82 4.82 0 0 1-.339-.365A9.983 9.983 0 0 1 7 18.844C7 13.408 11.268 9 16.533 9c3.117 0 5.576 1.545 7.063 3.933C25.368 10.542 28.16 9 31.302 9 36.658 9 41 13.484 41 19.015c0 2.941-1.228 5.587-3.184 7.419-1.975 2.088-7.209 7.604-11.545 12.016-.367.374-.837.55-1.316.55a2.187 2.187 0 0 1-1.427-.555z" stroke="#666" stroke-width="2" stroke-linejoin="round"/>
    </g>
</svg>
