<svg width="48" height="48" viewBox="0 0 48 48" xmlns="http://www.w3.org/2000/svg">
    <g fill="none" fill-rule="evenodd">
        <path d="M39 8.25c1.036 0 1.973.42 2.652 1.098A3.738 3.738 0 0 1 42.75 12v19.5c0 1.036-.42 1.973-1.098 2.652A3.738 3.738 0 0 1 39 35.25H9a3.738 3.738 0 0 1-2.652-1.098A3.738 3.738 0 0 1 5.25 31.5V12c0-1.036.42-1.973 1.098-2.652A3.738 3.738 0 0 1 9 8.25z" stroke="#151515" stroke-width="1.5"/>
        <g stroke="#DA0F47" stroke-width="1.5">
            <path d="M22.5 12.75c1.727 0 3.455.659 4.773 1.977A6.729 6.729 0 0 1 29.25 19.5a6.729 6.729 0 0 1-1.977 4.773A6.729 6.729 0 0 1 22.5 26.25a6.729 6.729 0 0 1-4.773-1.977A6.729 6.729 0 0 1 15.75 19.5c0-1.727.659-3.455 1.977-4.773A6.729 6.729 0 0 1 22.5 12.75z"/>
            <path stroke-linecap="round" d="m27.75 24.75 4.5 4.5"/>
        </g>
        <path fill="#000" d="M13.5 40.5h21V42h-21z"/>
        <path stroke="#010101" stroke-width="1.5" d="M24 35.346V40.5"/>
    </g>
</svg>
