<svg width="64" height="64" viewBox="0 0 64 64" xmlns="http://www.w3.org/2000/svg">
    <g transform="translate(5.394 10.491)" stroke-width="2" fill="none" fill-rule="evenodd">
        <path d="M40.434 2.684a.97.97 0 0 0-1.196-.661l-19.754 5.63a.966.966 0 0 0-.66 1.198l3.934 13.66a9.82 9.82 0 0 0-7.6 3.294c-1.588 1.78-2.552 4.155-2.552 6.79a9.817 9.817 0 0 0 2.938 7.024c1.817 1.788 4.335 2.89 7.148 2.89a9.813 9.813 0 0 0 7.023-2.938c1.79-1.817 2.89-4.335 2.89-7.148a9.87 9.87 0 0 0-2.552-6.64l14.883-4.142a.966.966 0 0 0 .656-1.2L40.434 2.685z" stroke="#DA0F47"/>
        <path d="m32.575 3.94-5.678 1.59 1.867 6.303a1 1 0 0 0 1.22.682l3.732-1.01a.989.989 0 0 0 .592-.475.995.995 0 0 0 .086-.76l-1.82-6.33z" stroke="#DA0F47"/>
        <rect stroke="#000" x="12.606" y="22.509" width="20" height="20" rx="10"/>
        <path d="M2.184.014a.94.94 0 0 0-.66.13 1.076 1.076 0 0 0-.448.61L.008 5.047A.966.966 0 0 0 .684 6.1l11.738 3.612 4.14 14.785c-2.408 1.813-3.956 4.685-3.956 8.097a9.818 9.818 0 0 0 2.938 7.023c1.817 1.788 4.335 2.89 7.148 2.89a9.813 9.813 0 0 0 7.023-2.938c1.79-1.817 2.89-4.335 2.89-7.148a9.876 9.876 0 0 0-2.649-6.747 9.881 9.881 0 0 0-7.237-3.166l-.192-.71a479.606 479.606 0 0 0-5.022-17.351L2.185.014z" stroke="#000"/>
        <path d="M50.104 21.173a.966.966 0 0 0-1.192-.661l-18.833 5.3c-1.82-2.032-4.45-3.302-7.56-3.302a9.815 9.815 0 0 0-7.023 2.939c-1.788 1.817-2.89 4.334-2.89 7.148a9.818 9.818 0 0 0 2.938 7.023c1.817 1.788 4.335 2.89 7.148 2.89 2.424 0 4.645-.87 6.367-2.314a9.897 9.897 0 0 0 3.486-6.49l18.687-5.256a.965.965 0 0 0 .648-1.199l-1.776-6.077v-.001z" stroke="#000"/>
        <rect stroke="#000" x="17.606" y="27.509" width="10" height="10" rx="5"/>
    </g>
</svg>
