<svg width="64" height="64" viewBox="0 0 64 64" xmlns="http://www.w3.org/2000/svg">
    <g stroke-width="2" fill="none" fill-rule="evenodd">
        <path d="M16.333 25H9.667a1.6 1.6 0 0 0-1.179.532c-.301.33-.488.784-.488 1.287V47.18c0 .502.187.957.488 1.287.302.328.718.532 1.179.532h6.666a1.6 1.6 0 0 0 1.179-.532c.301-.33.488-.784.488-1.287V26.82c0-.502-.187-.957-.488-1.287A1.598 1.598 0 0 0 16.333 25zM36.763 22.206a2.09 2.09 0 0 1 1.522-.113l.246.094 8.71 3.966c1.181.537 2.457.848 3.757.918l.558.015H56a2 2 0 0 1 2 2V42a2 2 0 0 1-2 2h-4.444c-.09 2.54-.684 4.303-1.778 5.288a4 4 0 0 1-1.272.772l-8.775 3.29a4 4 0 0 1-3.347-.248l-1.198-.664-.383 1.152a2 2 0 0 1-.088.22l-.113.208a2 2 0 0 1-2.551.748l-.205-.112-12.304-7.69a2 2 0 0 1-.821-2.375l.092-.216.187-.375L18 44V28l8.174-.002c.187-.454.516-.853.963-1.13l.233-.128 9.393-4.534z" stroke="#000"/>
        <path d="m20.854 40.291-2.04 4.082a2 2 0 0 0 .728 2.59l12.304 7.69a2 2 0 0 0 2.957-1.063l.772-2.314a2 2 0 0 0-.596-2.151l-11.034-9.458a2 2 0 0 0-3.09.624zM51.556 44H56a2 2 0 0 0 2-2V29.086a2 2 0 0 0-2-2h-4.444c-1.492 0-2.965-.319-4.314-.933l-8.711-3.966a2.088 2.088 0 0 0-1.768.02L27.37 26.74c-1.163.56-1.678 1.893-1.181 3.052.457 1.066 1.724 1.573 2.829 1.132.042-.017.084-.036.125-.055l6.623-3.133L51.556 44z" stroke="#000"/>
        <path stroke="#DA0F47" stroke-linecap="round" d="M22 11.485 28.129 17 39 6"/>
    </g>
</svg>
