<svg width="64" height="64" viewBox="0 0 64 64" xmlns="http://www.w3.org/2000/svg">
    <g stroke-width="2" fill="none" fill-rule="evenodd">
        <path stroke="#DA0F47" stroke-linecap="round" d="M24 31.485 30.129 37 41 26"/>
        <g stroke="#000" transform="translate(4 8)">
            <rect x="26" y="40" width="10" height="6" rx="3"/>
            <path d="M44 36c-.024 5.333-2.691 8-8 8M44 18v-1.8C44 7.253 36.837 0 28 0S12 7.253 12 16.2V18"/>
            <path d="M7.7 35.994C3.42 35.816 0 31.858 0 27s3.42-8.816 7.7-8.994L12 18v18l-4.3-.006zM48.3 35.994C52.58 35.816 56 31.858 56 27s-3.42-8.816-7.7-8.994L44 18v18l4.3-.006z" stroke-linejoin="round"/>
        </g>
    </g>
</svg>
