<svg width="64" height="64" viewBox="0 0 64 64" xmlns="http://www.w3.org/2000/svg">
    <g transform="translate(12 10)" fill="none" fill-rule="evenodd">
        <circle stroke="#000" stroke-width="2" cx="35" cy="37" r="11"/>
        <path stroke="#DA0F47" stroke-width="2" stroke-linecap="round" stroke-linejoin="round" d="M30 36.976 33.349 40 40 34"/>
        <path d="m28 0 10 10v16.414c4.617 1.306 8 5.551 8 10.586 0 6.075-4.925 11-11 11a10.978 10.978 0 0 1-8.485-3.999L4 44a4 4 0 0 1-4-4V4a4 4 0 0 1 4-4h24z" stroke="#000" stroke-width="2" stroke-linejoin="round"/>
        <path d="M7 14h22a1 1 0 0 1 0 2H7a1 1 0 0 1 0-2zM7 22h22a1 1 0 0 1 0 2H7a1 1 0 0 1 0-2zM7 30h18a1 1 0 0 1 0 2H7a1 1 0 0 1 0-2z" fill="#000"/>
        <path stroke="#000" stroke-width="2" stroke-linejoin="round" d="M38 10H28V0"/>
    </g>
</svg>
