<svg width="48" height="48" viewBox="0 0 48 48" xmlns="http://www.w3.org/2000/svg">
    <g transform="translate(6.111 6.111)" stroke="#666" stroke-width="2" fill="none" fill-rule="evenodd">
        <path d="M20.986 1c.457 0 .872.183 1.171.481.297.295.482.703.482 1.154v2.942a14.915 14.915 0 0 1 5.46 2.99l2.436-1.396a1.662 1.662 0 0 1 2.26.6l2.653 4.562c.227.39.273.833.164 1.236-.109.404-.374.767-.768.992l-2.138 1.227a14.72 14.72 0 0 1 .541 3.969c0 .96-.092 1.899-.267 2.808l1.864 1.07c.394.226.66.588.768.992.109.403.063.847-.164 1.236l-2.652 4.563a1.663 1.663 0 0 1-2.262.599l-1.56-.893a14.928 14.928 0 0 1-6.334 3.804l-.001 1.626c0 .45-.185.858-.482 1.153-.3.298-.714.481-1.17.481h-5.305c-.457 0-.871-.183-1.17-.48a1.62 1.62 0 0 1-.482-1.154v-1.626a14.928 14.928 0 0 1-6.335-3.804l-1.562.893a1.662 1.662 0 0 1-2.26-.599L1.22 25.863a1.614 1.614 0 0 1-.164-1.236c.11-.404.374-.766.768-.992l1.865-1.07a14.784 14.784 0 0 1-.268-2.808c0-1.375.188-2.706.542-3.969l-2.139-1.227a1.632 1.632 0 0 1-.768-.992 1.614 1.614 0 0 1 .164-1.236L3.873 7.77a1.663 1.663 0 0 1 2.261-.599l2.435 1.395a14.915 14.915 0 0 1 5.461-2.989V2.634c0-.45.184-.858.481-1.153.3-.298.714-.481 1.171-.481z"/>
        <circle cx="18.334" cy="19.098" r="7.403"/>
    </g>
</svg>
