<svg width="48" height="48" viewBox="0 0 48 48" xmlns="http://www.w3.org/2000/svg">
    <g fill="none" fill-rule="evenodd">
        <path stroke="#000" stroke-width="1.5" stroke-linecap="round" d="m18.202 6 4.5 4.5h1.5l4.5-4.5"/>
        <g stroke="#000" stroke-width="1.5">
            <path d="M40.5 11.25a.748.748 0 0 1 .75.75v6a.748.748 0 0 1-.75.75H6a.748.748 0 0 1-.75-.75v-6a.748.748 0 0 1 .75-.75z"/>
            <path d="M38.25 18.75V40.5c0 .621-.252 1.184-.659 1.591-.407.407-.97.659-1.591.659H10.5a2.243 2.243 0 0 1-1.591-.659A2.243 2.243 0 0 1 8.25 40.5V18.75h30z"/>
        </g>
        <path fill="#000" d="M22.5 10.5H24v33h-1.5z"/>
    </g>
</svg>
