<svg width="64" height="64" viewBox="0 0 64 64" xmlns="http://www.w3.org/2000/svg">
    <g transform="translate(6 8)" stroke-width="2" fill="none" fill-rule="evenodd">
        <path d="M8 38v-6a8 8 0 0 1-8-8V8a8 8 0 0 1 8-8h24a8 8 0 0 1 8 8h4a8 8 0 0 1 8 8v16a8 8 0 0 1-8 8v6l-6-6H28a8 8 0 0 1-8-8h-6l-6 6z" stroke="#030303" stroke-linejoin="round"/>
        <path d="M8 0a8 8 0 0 0-8 8v16a8 8 0 0 0 8 8v6l6-6h18a8 8 0 0 0 8-8V8a8 8 0 0 0-8-8H8z" stroke="#030303" stroke-linejoin="round"/>
        <rect stroke="#DA0F47" x="11" y="7" width="18" height="18" rx="9"/>
        <path stroke="#DA0F47" stroke-linecap="round" d="M20 11v5M20 16h5"/>
    </g>
</svg>
