<svg width="48" height="48" viewBox="0 0 48 48" xmlns="http://www.w3.org/2000/svg">
    <g transform="translate(4.5 4.5)" stroke="#000" stroke-width="1.5" fill="none" fill-rule="evenodd">
        <path d="m22.623 1.294 1.743 1.743a4.713 4.713 0 0 0 3.333 1.38h2.466a4.418 4.418 0 0 1 4.417 4.418V11.3c0 1.25.497 2.45 1.38 3.333l1.744 1.744a4.417 4.417 0 0 1 .152 6.086l-.152.16-1.743 1.743a4.713 4.713 0 0 0-1.38 3.333v2.466a4.418 4.418 0 0 1-4.216 4.413l-.202.004h-2.466c-1.25 0-2.449.497-3.333 1.381l-1.743 1.743a4.417 4.417 0 0 1-6.086.153l-.16-.153-1.744-1.743a4.713 4.713 0 0 0-3.333-1.38H8.835a4.418 4.418 0 0 1-4.417-4.418v-2.466c0-1.25-.497-2.449-1.381-3.333l-1.743-1.743a4.417 4.417 0 0 1 0-6.246l1.743-1.744a4.713 4.713 0 0 0 1.38-3.332V8.835a4.418 4.418 0 0 1 4.418-4.417h2.466c1.25 0 2.448-.497 3.332-1.381l1.744-1.743a4.417 4.417 0 0 1 6.246 0z"/>
        <circle transform="rotate(-45 15.257 15.257)" cx="15.257" cy="15.257" r="3"/>
        <circle transform="rotate(-45 23.743 23.743)" cx="23.743" cy="23.743" r="3"/>
        <path stroke-linecap="round" d="m13.136 25.864 12.728-12.728"/>
    </g>
</svg>
