<svg width="48" height="48" viewBox="0 0 48 48" xmlns="http://www.w3.org/2000/svg">
    <g fill="none" fill-rule="evenodd">
        <path d="M33 3.75c.621 0 1.184.252 1.591.659.407.407.659.97.659 1.591l.002 15.387c.36.241.702.522 1.021.84A6.729 6.729 0 0 1 38.25 27a6.729 6.729 0 0 1-1.977 4.773c-.319.318-.66.599-1.021.84L35.25 40.5c0 .621-.252 1.184-.659 1.591-.407.407-.97.659-1.591.659H9a2.243 2.243 0 0 1-1.591-.659A2.243 2.243 0 0 1 6.75 40.5V6c0-.621.252-1.184.659-1.591.407-.407.97-.659 1.591-.659z" stroke="#000" stroke-width="1.5"/>
        <path fill="#000" d="M6 16.5h30V18H6zM9 12h4.5v1.5H9zM9 21h4.5v1.5H9z"/>
        <g stroke="#DA0F47" stroke-width="1.5">
            <path d="M31.5 20.25c1.727 0 3.455.659 4.773 1.977A6.729 6.729 0 0 1 38.25 27a6.729 6.729 0 0 1-1.977 4.773A6.729 6.729 0 0 1 31.5 33.75a6.729 6.729 0 0 1-4.773-1.977A6.729 6.729 0 0 1 24.75 27c0-1.727.659-3.455 1.977-4.773A6.729 6.729 0 0 1 31.5 20.25z"/>
            <path stroke-linecap="round" d="m36.75 32.25 4.5 4.5"/>
        </g>
    </g>
</svg>
