<svg width="64" height="64" viewBox="0 0 64 64" xmlns="http://www.w3.org/2000/svg">
    <g stroke-width="2" fill="none" fill-rule="evenodd" stroke-linejoin="round">
        <path d="M18 18c0-5.523 4.477-10 10-10s10 4.477 10 10-4.477 10-10 10-10-4.477-10-10z" stroke="#000" stroke-linecap="round"/>
        <path d="M52.393 26c3.462.86 5.58 3.615 5.607 6.857.016 1.914-.791 4.109-2.274 5.45a7.861 7.861 0 0 1-.89.683v16.724c-.056.965-.435 2.3-2.443 2.286h-4.786c-2.008.015-2.387-1.32-2.443-2.286v-4.572L6 51.143C6 38.52 16.123 28.286 28.609 28.286c5.013 0 9.645 1.65 13.394 4.441l-.003.13c.028-3.242 2.145-5.997 5.607-6.857v4.571c-.008.946.173 2.2 2.224 2.282l.169.003.17-.003c1.98-.08 2.216-1.25 2.223-2.183V26z" stroke="#000"/>
        <path d="M49.95 32.857c2.257 0 2.451-1.307 2.443-2.286V26c3.462.86 5.58 3.615 5.607 6.857.016 1.914-.791 4.109-2.274 5.45a7.861 7.861 0 0 1-.89.683v16.724c-.056.965-.435 2.3-2.443 2.286h-2.442.098-2.442c-2.008.015-2.387-1.32-2.443-2.286V38.99a7.861 7.861 0 0 1-.89-.683c-1.483-1.341-2.29-3.536-2.274-5.45.028-3.242 2.145-5.997 5.607-6.857v4.571c-.008.979.186 2.286 2.443 2.286" stroke="#DA0F47"/>
    </g>
</svg>
