<svg width="40" height="40" viewBox="0 0 40 40" xmlns="http://www.w3.org/2000/svg">
    <g fill="none" fill-rule="evenodd">
        <path d="M20.952 9.167H8.333c-.69 0-1.316.28-1.766.733a2.473 2.473 0 0 0-.734 1.767v16.666c0 .69.28 1.317.734 1.767.45.453 1.076.733 1.766.733l12.619-.001c.22-.889.731-1.65 1.421-2.142a3.078 3.078 0 0 1 1.794-.583c.663 0 1.278.216 1.793.583.69.492 1.2 1.253 1.422 2.142l4.283.001c.692 0 1.317-.28 1.77-.733.452-.45.732-1.077.732-1.767V11.667c0-.69-.28-1.317-.734-1.767a2.483 2.483 0 0 0-1.766-.733h-4.285c-.22.89-.732 1.65-1.422 2.143a3.078 3.078 0 0 1-1.793.583 3.078 3.078 0 0 1-1.794-.583c-.69-.492-1.2-1.253-1.423-2.142l.002-.001z" fill="#FF9E9E" fill-rule="nonzero"/>
        <path d="M24.167 18.333v3.334m0 3.333v2.5m0-15V15" stroke="#FF6363" stroke-width="2" stroke-linecap="round" stroke-linejoin="round"/>
    </g>
</svg>
