<svg width="64" height="64" viewBox="0 0 64 64" xmlns="http://www.w3.org/2000/svg">
    <g stroke-width="2" fill="none" fill-rule="evenodd">
        <path d="M17 34.406V12.2A3.2 3.2 0 0 1 20.2 9h27.6a3.2 3.2 0 0 1 3.2 3.2V37" stroke="#DA0F47"/>
        <path d="M30 9h8v11.2a.8.8 0 0 1-.8.8h-6.4a.8.8 0 0 1-.8-.8V9z" stroke="#DA0F47"/>
        <path d="m43.603 40.918 11.812-4.513a2.785 2.785 0 0 1 3.596 1.608l.008.021a3.244 3.244 0 0 1-1.482 3.979L37.208 53.136a3.997 3.997 0 0 1-3.274.254l-12.98-4.67a7.986 7.986 0 0 0-2.708-.473H15h0V34.175l5.733-.84a8 8 0 0 1 4.414.609l6.417 2.858h9.27a2.77 2.77 0 1 1 0 5.537H30.436h0c-1.715.193-2.572 1.118-2.572 2.778" stroke="#000" stroke-linecap="round" stroke-linejoin="round"/>
        <path d="M13.333 31H6.667A1.666 1.666 0 0 0 5 32.667v18.666A1.666 1.666 0 0 0 6.667 53h6.666A1.666 1.666 0 0 0 15 51.333V32.667A1.666 1.666 0 0 0 13.333 31z" stroke="#000"/>
    </g>
</svg>
