<svg width="48" height="48" viewBox="0 0 48 48" xmlns="http://www.w3.org/2000/svg">
    <g stroke-width="1.5" fill="none" fill-rule="evenodd">
        <g stroke="#DA0F47">
            <path d="M22.5 15.75c1.727 0 3.455.659 4.773 1.977A6.729 6.729 0 0 1 29.25 22.5a6.729 6.729 0 0 1-1.977 4.773A6.729 6.729 0 0 1 22.5 29.25a6.729 6.729 0 0 1-4.773-1.977A6.729 6.729 0 0 1 15.75 22.5c0-1.727.659-3.455 1.977-4.773A6.729 6.729 0 0 1 22.5 15.75z"/>
            <path stroke-linecap="round" d="m27.75 27.75 4.5 4.5"/>
        </g>
        <path d="M24 6.247c.935 0 1.87.249 2.7.747L39.43 14.63a3.75 3.75 0 0 1 1.821 3.216V36.75H6.75V17.845a3.75 3.75 0 0 1 1.821-3.216L21.3 6.994a5.246 5.246 0 0 1 2.7-.747z" stroke="#000"/>
        <path d="M43.5 36.75a.748.748 0 0 1 .75.75v3a.748.748 0 0 1-.75.75h-39a.748.748 0 0 1-.75-.75v-3a.748.748 0 0 1 .75-.75z" stroke="#000"/>
    </g>
</svg>
