<svg xmlns="http://www.w3.org/2000/svg" width="24" height="24" viewBox="0 0 24 24">
    <g fill="none" fill-rule="evenodd">
        <g>
            <g>
                <g>
                    <g>
                        <g>
                            <g>
                                <g>
                                    <path d="M0 0H24V24H0z" transform="translate(-1438 -353) translate(269 257) translate(235) translate(52 96) translate(813) translate(69)"/>
                                    <g fill-rule="nonzero" stroke="#FFF" stroke-width=".9">
                                        <g>
                                            <path stroke-linecap="round" stroke-linejoin="round" d="M11.072 3.443l3.38-.926c.358-.151.76.048.896.446.142.42-.015.888-.367 1.1L8.819 7.13c-.253.153-.551.178-.822.071L4.762 5.914c-.218-.086-.448-.13-.679-.13L3.4 5.72m0-4.225l1.338-.202c.385-.072.78-.002 1.136.202l1.641.942h2.378c.39 0 .707.41.707.914 0 .505-.316.914-.707.914H7.226" transform="translate(-1438 -353) translate(269 257) translate(235) translate(52 96) translate(813) translate(69) translate(4.4 4.4) translate(0 8.734)"/>
                                            <path d="M2.6.716l-2.15.55.55 5.15 2.15-.55L2.6.716z" transform="translate(-1438 -353) translate(269 257) translate(235) translate(52 96) translate(813) translate(69) translate(4.4 4.4) translate(0 8.734)"/>
                                        </g>
                                        <g>
                                            <path d="M6.61-.45c-.584 0-1.118.168-1.59.498-.204.143-.376.304-.52.464-.144-.16-.316-.32-.52-.464-.472-.33-1.006-.498-1.59-.498C1.583-.45.876-.146.37.352-.141.852-.45 1.55-.45 2.35-.45 3.9.832 5.008 2.948 6.642c.354.273.755.582 2.017.848.386-.307.759-.594 1.087-.848C8.168 5.008 9.45 3.901 9.45 2.35c0-.8-.31-1.498-.819-1.998C8.125-.146 7.418-.45 6.61-.45z" transform="translate(-1438 -353) translate(269 257) translate(235) translate(52 96) translate(813) translate(69) translate(4.4 4.4) translate(4 .4)"/>
                                        </g>
                                    </g>
                                </g>
                            </g>
                        </g>
                    </g>
                </g>
            </g>
        </g>
    </g>
</svg>
