<svg xmlns="http://www.w3.org/2000/svg" width="24" height="24" viewBox="0 0 24 24">
    <defs>
        <style>
            .cls-4{stroke:none}
        </style>
    </defs>
    <g id="icon_setting03" transform="translate(-209 -52)">
        <g id="패스_228" fill="none" stroke-linecap="round">
            <path d="M28.329 13.411l-2.076-1.581A7.756 7.756 0 0 0 26.3 11a7.522 7.522 0 0 0-.049-.831l2.078-1.582a.974.974 0 0 0 .246-1.263l-2.157-3.639a1.013 1.013 0 0 0-1.249-.437l-2.45.958a8.458 8.458 0 0 0-1.471-.831L20.874.843a.991.991 0 0 0-1-.843h-4.33a.989.989 0 0 0-1 .836l-.374 2.54a8.72 8.72 0 0 0-1.468.831l-2.457-.961a1.034 1.034 0 0 0-1.24.43L6.849 7.32a.968.968 0 0 0 .245 1.27l2.076 1.58a7.064 7.064 0 0 0 0 1.66l-2.078 1.583a.974.974 0 0 0-.245 1.263l2.159 3.638a1.011 1.011 0 0 0 1.249.437l2.45-.958a8.533 8.533 0 0 0 1.47.831l.373 2.53a.991.991 0 0 0 1 .845h4.33a.99.99 0 0 0 1-.836l.374-2.539a8.76 8.76 0 0 0 1.468-.832l2.457.961a1.036 1.036 0 0 0 .369.068 1 1 0 0 0 .871-.5l2.169-3.657a.972.972 0 0 0-.257-1.253z" class="cls-4" transform="translate(203.29 53)"/>
            <path fill="#000" d="M19.024 20l.245-1.666.161-1.094 1.012-.445c.377-.167.748-.378 1.134-.646l.876-.607.993.388 1.674.655 1.268-2.14-1.346-1.024-.898-.684.121-1.122c.026-.233.038-.434.038-.616 0-.187-.013-.391-.037-.608l-.126-1.127.902-.687 1.346-1.024-1.269-2.138-1.672.653-1 .391-.878-.617c-.36-.254-.739-.467-1.123-.635l-1.015-.445-.162-1.096L19.023 2H16.4l-.245 1.667-.161 1.096-1.014.445c-.374.164-.745.374-1.133.643l-.875.607-.992-.388-1.675-.655-1.27 2.139 1.347 1.025.897.683-.12 1.12c-.025.238-.038.44-.038.618s.013.38.038.62l.12 1.12-.897.682-1.346 1.024 1.27 2.138 1.672-.653 1-.39.877.616c.36.253.74.467 1.126.637l1.013.445.161 1.094.246 1.667h2.623m.853 2h-4.33c-.508 0-.937-.363-.998-.845l-.373-2.53c-.509-.224-1.001-.502-1.47-.832l-2.45.958c-.129.046-.256.068-.379.068-.371 0-.697-.197-.87-.505l-2.16-3.638c-.246-.438-.141-.965.245-1.263L9.17 11.83c-.033-.31-.049-.579-.049-.831s.016-.52.05-.83L7.093 8.59c-.395-.305-.5-.85-.245-1.27l2.162-3.643c.172-.307.526-.494.886-.494.12 0 .24.02.354.064l2.457.96c.49-.34.975-.615 1.468-.83L14.55.835c.06-.473.489-.836.996-.836h4.33c.508 0 .937.363.998.843l.373 2.531c.509.223 1.001.502 1.471.832l2.45-.958c.128-.046.255-.067.377-.067.37 0 .7.195.873.504l2.159 3.638c.246.44.14.966-.246 1.263l-2.078 1.583c.027.243.049.529.049.83 0 .302-.023.587-.05.83l2.077 1.582c.388.3.494.827.253 1.256l-2.17 3.657c-.169.303-.505.497-.87.497-.127 0-.25-.023-.369-.068l-2.457-.96c-.491.34-.975.615-1.468.832l-.374 2.539c-.06.473-.49.836-.997.836z" transform="translate(203.29 53)"/>
        </g>
        <g id="타원_108" fill="none" stroke="#000" stroke-width="2px" transform="translate(216.5 59.5)">
            <circle cx="4.5" cy="4.5" r="4.5" class="cls-4"/>
            <circle cx="4.5" cy="4.5" r="3.5"/>
        </g>
    </g>
</svg>
