<?xml version="1.0" encoding="UTF-8"?>
<svg width="44px" height="44px" viewBox="0 0 44 44" version="1.1" xmlns="http://www.w3.org/2000/svg" xmlns:xlink="http://www.w3.org/1999/xlink">
    <title>Group 7</title>
    <g id="##200914케이스추가##(z)@KRC0012_Image---Text(folding-feature)_Static" stroke="none" stroke-width="1" fill="none" fill-rule="evenodd">
        <g id="KRC0012_Image---Text(folding-feature)_Static_Mo" transform="translate(-282.000000, -7813.000000)">
            <g id="Group-6" transform="translate(0.000000, 5806.000000)">
                <g id="Group-7" transform="translate(282.000000, 2007.000000)">
                    <circle id="Oval-Copy" stroke="#111111" stroke-width="2" cx="22" cy="22" r="21"></circle>
                    <path d="M22,12 C22.7531156,12 23.3636364,12.6105208 23.3636364,13.3636364 L23.363,20.636 L30.6363636,20.6363636 C31.3894792,20.6363636 32,21.2468844 32,22 C32,22.7531156 31.3894792,23.3636364 30.6363636,23.3636364 L23.363,23.363 L23.3636364,30.6363636 C23.3636364,31.3894792 22.7531156,32 22,32 C21.2468844,32 20.6363636,31.3894792 20.6363636,30.6363636 L20.636,23.363 L13.3636364,23.3636364 C12.6105208,23.3636364 12,22.7531156 12,22 C12,21.2468844 12.6105208,20.6363636 13.3636364,20.6363636 L20.636,20.636 L20.6363636,13.3636364 C20.6363636,12.6105208 21.2468844,12 22,12 Z" id="Combined-Shape" fill="#111111" transform="translate(22.000000, 22.000000) rotate(-270.000000) translate(-22.000000, -22.000000) "></path>
                </g>
            </g>
        </g>
    </g>
</svg>