<?xml version="1.0" encoding="UTF-8"?>
<svg width="14px" height="9px" viewBox="0 0 14 9" version="1.1" xmlns="http://www.w3.org/2000/svg" xmlns:xlink="http://www.w3.org/1999/xlink">
    <title>bg-offs</title>
    <g id="Page-1" stroke="none" stroke-width="1" fill="none" fill-rule="evenodd">
        <path d="M120,-30.5 L-22,-30.5 C-24.0710678,-30.5 -25.9460678,-29.6605339 -27.3033009,-28.3033009 C-28.6605339,-26.9460678 -29.5,-25.0710678 -29.5,-23 L-29.5,-7 C-29.5,-4.92893219 -28.6605339,-3.05393219 -27.3033009,-1.69669914 C-25.9460678,-0.339466094 -24.0710678,0.5 -22,0.5 L1.24972313,0.5 L6.95154358,7.8041996 C7.10366201,7.79461517 7.26618357,7.71776488 7.4372037,7.5837284 L12.75,0.5 L120,0.5 C122.071068,0.5 123.946068,-0.339466094 125.303301,-1.69669914 C126.660534,-3.05393219 127.5,-4.92893219 127.5,-7 L127.5,-23 C127.5,-25.0710678 126.660534,-26.9460678 125.303301,-28.3033009 C123.946068,-29.6605339 122.071068,-30.5 120,-30.5 Z" id="Combined-Shape" stroke="#DDDDDD" fill="#F4F4F4"></path>
    </g>
</svg>