<svg xmlns="http://www.w3.org/2000/svg" width="64" height="64" viewBox="0 0 64 64">
    <path style="fill:none" d="M0 0h64v64H0z"/>
    <g data-name="Group 634">
        <path data-name="Path 36" d="M120.04 91.712v7h-7" transform="translate(-61.708 -46.579)" style="stroke-linecap:round;stroke-linejoin:round;stroke-width:2px;stroke:#1a1818;fill:none"/>
        <path data-name="Path 368" d="M113.04 91.712v7h7" transform="translate(-107.041 -46.579)" style="stroke-linecap:round;stroke-linejoin:round;stroke-width:2px;stroke:#1a1818;fill:none"/>
        <path data-name="Path 369" d="M120.04 98.712v-7h-7" transform="translate(-61.708 -80.712)" style="stroke-linecap:round;stroke-linejoin:round;stroke-width:2px;stroke:#1a1818;fill:none"/>
        <path data-name="Path 370" d="M113.04 98.712v-7h7" transform="translate(-107.041 -80.712)" style="stroke-linecap:round;stroke-linejoin:round;stroke-width:2px;stroke:#1a1818;fill:none"/>
    </g>
    <g data-name="Group 636">
        <g data-name="Group 625" transform="translate(.25 -.832)">
            <rect data-name="Rectangle 1017" width="2" height="23" rx="1" transform="translate(13.75 20.832)"/>
            <rect data-name="Rectangle 1026" width="2" height="23" rx="1" transform="translate(21.25 20.832)"/>
            <rect data-name="Rectangle 1031" width="2" height="23" rx="1" transform="translate(38.25 20.832)"/>
            <rect data-name="Rectangle 1027" width="2" height="23" rx="1" transform="translate(25.25 20.832)"/>
            <rect data-name="Rectangle 1030" width="2" height="23" rx="1" transform="translate(42.25 20.832)"/>
            <rect data-name="Rectangle 1028" width="3" height="23" rx="1.5" transform="translate(29.25 20.832)"/>
            <rect data-name="Rectangle 1029" width="3" height="23" rx="1.5" transform="translate(47.25 20.832)"/>
        </g>
    </g>
    <path data-name="Line 7" transform="translate(9.5 31.5)" style="stroke:#cd0038;stroke-linecap:round;stroke-linejoin:round;stroke-width:2px;fill:none" d="M0 0h45"/>
</svg>
