<svg id="ic_write_96" xmlns="http://www.w3.org/2000/svg" width="96" height="96">
    <defs>
        <style>
            .cls-2,.cls-3{fill:none;stroke:#da0f47;stroke-linecap:round;stroke-width:3px}.cls-3{stroke:#000;stroke-linejoin:round}
        </style>
    </defs>
    <path id="Rectangle" d="M0 0h96v96H0z" style="fill:none"/>
    <g id="Group_599" data-name="Group 599" transform="translate(3.5 8.35)">
        <path id="Path_373" data-name="Path 373" class="cls-2" d="M16.913 58.041h28" transform="translate(9.087 -37)"/>
        <path id="Path_374" data-name="Path 374" class="cls-2" d="M16.913 58.041h28" transform="translate(9.087 -26)"/>
        <path id="Path_375" data-name="Path 375" class="cls-2" d="M16.913 58.041h18" transform="translate(9.087 -15)"/>
        <path id="Shape" class="cls-3" d="M1061.978 377.548h-26.921a3.327 3.327 0 0 1-3.263-3.263v-62a3.329 3.329 0 0 1 3.263-3.263h40.789m0 0h14.684a3.354 3.354 0 0 1 3.263 3.263v21.966" transform="translate(-1022.794 -306.327)"/>
    </g>
    <g id="Group-12" transform="translate(49.91 40)">
        <path id="Combined-Shape" class="cls-3" d="M1093.946 334.016a3.764 3.764 0 0 1 5.272-.53l2.926 2.369a3.766 3.766 0 0 1 .557 5.3l-.023.027h0l-28.478 34.51h0l-12.657 6.5 3.881-13.605z" transform="translate(-1061.54 -332.647)"/>
        <path id="Path-3" class="cls-3" transform="translate(4.173 35.938)" d="m0 0 8.484 7.108"/>
    </g>
</svg>
