<?xml version="1.0" encoding="UTF-8"?>
<svg width="80px" height="80px" viewBox="0 0 80 80" version="1.1" xmlns="http://www.w3.org/2000/svg" xmlns:xlink="http://www.w3.org/1999/xlink">
    <title>icon-cs5</title>
    <g id="Page-1" stroke="none" stroke-width="1" fill="none" fill-rule="evenodd">
        <g id="img_process_icon" transform="translate(0.000000, -184.000000)" fill="#F4F4F4">
            <g id="Group-5" transform="translate(0.000000, 184.000000)">
                <g id="icon_CS_talk_80">
                    <g id="ic">
                        <circle id="Oval" cx="40" cy="40" r="40"></circle>
                        <g id="Group" transform="translate(19.000000, 26.000000)" stroke="#222222" stroke-width="2.6">
                            <path d="M34,7.3 L28,7.3 C27.8067003,7.3 27.6317003,7.37835017 27.5050253,7.50502525 C27.3783502,7.63170034 27.3,7.80670034 27.3,8 L27.3,21.7 L40,21.7 C40.1932997,21.7 40.3682997,21.6216498 40.4949747,21.4949747 C40.6216498,21.3682997 40.7,21.1932997 40.7,21 L40.7,14 C40.7,12.1498461 39.950077,10.4748461 38.7376154,9.26238457 C37.5251539,8.04992304 35.8501539,7.3 34,7.3 Z" id="Rectangle"></path>
                            <rect id="Rectangle" x="1.3" y="1.3" width="26.4" height="20.4" rx="2"></rect>
                            <rect id="Rectangle" x="5.3" y="17.3" width="9.4" height="9.4" rx="4.7"></rect>
                            <rect id="Rectangle" x="25.3" y="17.3" width="9.4" height="9.4" rx="4.7"></rect>
                        </g>
                    </g>
                </g>
            </g>
        </g>
    </g>
</svg>