<?xml version="1.0" encoding="UTF-8"?>
<svg width="80px" height="80px" viewBox="0 0 80 80" version="1.1" xmlns="http://www.w3.org/2000/svg" xmlns:xlink="http://www.w3.org/1999/xlink">
    <title>icon-cs2</title>
    <g id="Page-1" stroke="none" stroke-width="1" fill="none" fill-rule="evenodd">
        <g id="img_process_icon" transform="translate(-204.000000, 0.000000)">
            <g id="Group-5" transform="translate(204.000000, 0.000000)">
                <g id="icon_CS_talk_80">
                    <rect id="Rectangle" x="0" y="0" width="80" height="80"></rect>
                    <g id="ic">
                        <circle id="Oval" fill="#F4F4F4" cx="40" cy="40" r="40"></circle>
                        <g id="shopping-bag" transform="translate(25.000000, 21.000000)" fill="#222222" fill-rule="nonzero">
                            <path d="M30.5114223,31.7507935 L28.7919743,10.0844704 C28.6848143,8.68860798 27.5043247,7.59512478 26.1044015,7.59512478 L22.7081439,7.59512478 L22.7081439,7.44246878 C22.7081439,3.33865439 19.3694896,0 15.2656752,0 C11.1618608,0 7.82320638,3.33865439 7.82320638,7.44246878 L7.82320638,7.59512478 L4.42702399,7.59512478 C3.02702559,7.59512478 1.8464608,8.68853278 1.7396768,10.0815376 L0.0197024,31.7537263 C-0.1134016,33.4889663 0.488574399,35.2165359 1.6711696,36.4932815 C2.85376479,37.7700271 4.53019839,38.5023999 6.27055198,38.5023999 L24.2607231,38.5023999 C26.0010015,38.5023999 27.6775103,37.7701023 28.8601807,36.4932815 C30.0427759,35.2164607 30.6446767,33.4889663 30.5114223,31.7507935 Z M10.0784544,7.44246878 C10.0784544,4.58223679 12.4055184,2.25524799 15.2656752,2.25524799 C18.125832,2.25524799 20.4528959,4.58231199 20.4528959,7.44246878 L20.4528959,7.59512478 L10.0784544,7.59512478 L10.0784544,7.44246878 Z M27.2055551,34.9608559 C26.4371615,35.7903119 25.3914303,36.2471519 24.2607231,36.2471519 L6.27062718,36.2471519 C5.13991999,36.2471519 4.09418879,35.7903119 3.32579519,34.9608559 C2.55747679,34.1313247 2.18192799,33.0535583 2.26825759,31.9291679 L3.98808159,10.256904 C4.00552799,10.0288976 4.19834079,9.85037278 4.42702399,9.85037278 L7.82320638,9.85037278 L7.82320638,12.6278848 C7.82320638,13.250616 8.32809918,13.7555088 8.95083038,13.7555088 C9.57356158,13.7555088 10.0784544,13.250616 10.0784544,12.6278848 L10.0784544,9.85037278 L20.4528959,9.85037278 L20.4528959,12.6278848 C20.4528959,13.250616 20.9577887,13.7555088 21.5805199,13.7555088 C22.2032511,13.7555088 22.7081439,13.250616 22.7081439,12.6278848 L22.7081439,9.85037278 L26.1044015,9.85037278 C26.3330095,9.85037278 26.5258223,10.0289728 26.5435695,10.259912 L28.2630175,31.9261599 C28.3494975,33.0535583 27.9738735,34.1312495 27.2055551,34.9608559 Z" id="Shape"></path>
                            <path d="M20.3458111,19.122232 C19.9055903,18.6818608 19.1915664,18.6818608 18.7512704,19.122232 L13.7161792,24.1573231 L11.78008,22.2212239 C11.339784,21.7808527 10.62576,21.7808527 10.1853888,22.2212239 C9.74501758,22.6615951 9.74501758,23.3755439 10.1853888,23.8159151 L12.9188336,26.5493599 C13.1390192,26.7695455 13.4276368,26.8797135 13.716104,26.8797135 C14.0045712,26.8797135 14.293264,26.7696207 14.5133744,26.5493599 L20.3457359,20.7169983 C20.7861823,20.2765519 20.7861823,19.5626032 20.3458111,19.122232 Z" id="Path"></path>
                        </g>
                    </g>
                </g>
            </g>
        </g>
    </g>
</svg>