<?xml version="1.0" encoding="UTF-8"?>
<svg width="80px" height="80px" viewBox="0 0 80 80" version="1.1" xmlns="http://www.w3.org/2000/svg" xmlns:xlink="http://www.w3.org/1999/xlink">
    <title>icon-cs6</title>
    <g id="Page-1" stroke="none" stroke-width="1" fill="none" fill-rule="evenodd">
        <g id="img_process_icon" transform="translate(-204.000000, -184.000000)">
            <g id="Group-5" transform="translate(204.000000, 184.000000)">
                <g id="icon_CS_talk_80">
                    <rect id="Rectangle" x="0" y="0" width="80" height="80"></rect>
                    <g id="ic">
                        <circle id="Oval" fill="#F4F4F4" cx="40" cy="40" r="40"></circle>
                        <g id="delivery" transform="translate(22.000000, 24.000000)" fill="#222222" fill-rule="nonzero">
                            <path d="M35.7840014,0 L9.79200039,0 C9.19555237,0 8.71200035,0.483552019 8.71200035,1.08000004 L8.71200035,15.1907766 C7.26674429,15.4384566 5.93402424,16.1755926 4.9575602,17.2800007 L4.39200017,17.2800007 L4.39200017,16.2000006 C4.39200017,15.6035526 3.90844816,15.1200006 3.31200013,15.1200006 L1.08000004,15.1200006 C0.483552019,15.1200006 0,15.6035526 0,16.2000006 C0,16.7964487 0.483552019,17.2800007 1.08000004,17.2800007 L2.23200009,17.2800007 L2.23200009,30.2400012 L1.08000004,30.2400012 C0.483552019,30.2400012 0,30.7235532 0,31.3200012 C0,31.9164493 0.483552019,32.4000046 1.08000004,32.4000046 L3.31200013,32.4000046 C3.90844816,32.4000046 4.39200017,31.9164493 4.39200017,31.3200012 L4.39200017,30.2400012 L5.30388021,30.2400012 C12.1916165,32.4199453 11.9313365,32.4000046 12.2400005,32.4000046 L27.0720011,32.4000046 C29.3063052,32.4000046 30.8714412,30.1811052 30.1262412,28.0800011 L35.7840014,28.0800011 C36.3804494,28.0800011 36.8640015,27.5964491 36.8640015,27 L36.8640015,1.08000004 C36.8640015,0.483552019 36.3804494,0 35.7840014,0 Z M20.5920008,2.16000009 L24.912001,2.16000009 L24.912001,7.5600003 L20.5920008,7.5600003 L20.5920008,2.16000009 Z M28.1520011,29.1600012 C28.1520011,29.7555132 27.6675131,30.2400012 27.0720011,30.2400012 L12.4081205,30.2400012 C5.52045622,28.0600571 5.78073623,28.0800011 5.47200022,28.0800011 L4.39200017,28.0800011 L4.39200017,19.4400008 L5.47200022,19.4400008 C5.81500823,19.4400008 6.13764024,19.2770648 6.34118425,19.0010168 C8.05168832,16.6817527 11.5309445,16.6798807 13.2427445,19.0010168 C13.4463605,19.2770648 13.7689925,19.4400008 14.1120006,19.4400008 L19.5120008,19.4400008 C20.1075128,19.4400008 20.5920008,19.9244888 20.5920008,20.5200008 C20.5920008,21.1155128 20.1075128,21.6000009 19.5120008,21.6000009 L13.0320005,21.6000009 C12.4355525,21.6000009 11.9520005,22.0835529 11.9520005,22.6800009 C11.9520005,25.657561 14.3744406,28.0800011 17.3520007,28.0800011 L27.0720011,28.0800011 C27.6675131,28.0800011 28.1520011,28.5644891 28.1520011,29.1600012 Z M34.7040014,25.920001 C34.0492334,25.920001 18.2415607,25.920001 17.3520007,25.920001 C15.9439686,25.920001 14.7427926,25.017193 14.2970406,23.7600009 L19.5120008,23.7600009 C21.2985368,23.7600009 22.7520009,22.3065369 22.7520009,20.5200008 C22.7520009,18.7334647 21.2985368,17.2800007 19.5120008,17.2800007 L14.6264406,17.2800007 C13.6500485,16.1755926 12.3172565,15.4384566 10.8720004,15.1907766 L10.8720004,2.16000009 L18.4320007,2.16000009 L18.4320007,8.64000034 C18.4320007,9.23644837 18.9155528,9.72000039 19.5120008,9.72000039 L25.992001,9.72000039 C26.5884491,9.72000039 27.0720011,9.23644837 27.0720011,8.64000034 L27.0720011,2.16000009 L34.7040014,2.16000009 L34.7040014,25.920001 Z" id="Shape"></path>
                        </g>
                    </g>
                </g>
            </g>
        </g>
    </g>
</svg>