<?xml version="1.0" encoding="UTF-8"?>
<svg width="80px" height="80px" viewBox="0 0 80 80" version="1.1" xmlns="http://www.w3.org/2000/svg" xmlns:xlink="http://www.w3.org/1999/xlink">
    <title>icon-cs1</title>
    <g id="Page-1" stroke="none" stroke-width="1" fill="none" fill-rule="evenodd">
        <g id="img_process_icon">
            <g id="Group-5">
                <g id="icon_CS_talk_80">
                    <rect id="Rectangle" x="0" y="0" width="80" height="80"></rect>
                    <g id="ic">
                        <circle id="Oval" fill="#F4F4F4" cx="40" cy="40" r="40"></circle>
                        <g id="check-list" transform="translate(26.000000, 22.000000)" fill="#222222" fill-rule="nonzero">
                            <path d="M33.635,17.64007 L30.135,17.64007 L30.135,16.072 C30.135,14.14833 28.79254,12.52923 26.985,12.08018 L26.985,1.05 C26.985,0.47012 26.51488,0 25.935,0 L1.085,0 C0.50512,0 0.035,0.47012 0.035,1.05 L0.035,29.82 C0.035,30.39988 0.50512,30.87 1.085,30.87 L17.255,30.87 L17.255,31.73044 C17.255,33.99648 19.10146,35.84 21.371,35.84 L30.569,35.84 C32.83854,35.84 34.685,33.99648 34.685,31.73044 L34.685,18.69007 C34.685,18.11019 34.21488,17.64007 33.635,17.64007 Z M28.035,16.072 L28.035,17.64007 L23.905,17.64007 L23.905,16.072 C23.905,14.9604 24.83131,14.056 25.97,14.056 C27.10869,14.056 28.035,14.96033 28.035,16.072 Z M2.135,28.77 L2.135,2.1 L24.885,2.1 L24.885,12.09852 C23.11295,12.57158 21.805,14.17325 21.805,16.07193 L21.805,17.64 L18.305,17.64 C17.72512,17.64 17.255,18.11012 17.255,18.69 L17.255,28.77 L2.135,28.77 Z M32.585,31.73044 C32.585,32.83854 31.6806,33.74 30.569,33.74 L21.371,33.74 C20.2594,33.74 19.355,32.83854 19.355,31.73044 L19.355,19.74007 L21.805,19.74007 L21.805,22.505 C21.805,23.08488 22.27512,23.555 22.855,23.555 C23.43488,23.555 23.905,23.08488 23.905,22.505 L23.905,19.74007 L28.035,19.74007 L28.035,22.505 C28.035,23.08488 28.50512,23.555 29.085,23.555 C29.66488,23.555 30.135,23.08488 30.135,22.505 L30.135,19.74007 L32.585,19.74007 L32.585,31.73044 Z" id="Shape"></path>
                            <path d="M7.37667,5.53453 L6.18331,6.81644 L6.10344,6.71711 C5.74014,6.26512 5.0792,6.19309 4.62721,6.55646 C4.17522,6.91969 4.10326,7.58063 4.46649,8.03262 L5.30649,9.07779 C5.49752,9.31537 5.78221,9.45831 6.08678,9.46937 C6.09959,9.46979 6.11226,9.47007 6.125,9.47007 C6.41585,9.47007 6.69445,9.34925 6.89346,9.13554 L8.91359,6.96554 C9.30881,6.54113 9.28501,5.87669 8.86053,5.48154 C8.43633,5.08639 7.77182,5.11012 7.37667,5.53453 L7.37667,5.53453 Z" id="Path"></path>
                            <path d="M12.355,8.385 L21.73493,8.385 C22.31481,8.385 22.78493,7.91488 22.78493,7.335 C22.78493,6.75512 22.31481,6.285 21.73493,6.285 L12.355,6.285 C11.77512,6.285 11.305,6.75512 11.305,7.335 C11.305,7.91488 11.77512,8.385 12.355,8.385 Z" id="Path"></path>
                            <path d="M7.37667,11.90453 L6.18331,13.18644 L6.10344,13.08711 C5.74014,12.63512 5.0792,12.56316 4.62721,12.92646 C4.17522,13.28976 4.10326,13.95063 4.46649,14.40262 L5.30649,15.44779 C5.49752,15.68537 5.78221,15.82831 6.08678,15.83937 C6.09959,15.83979 6.11226,15.84007 6.125,15.84007 C6.41585,15.84007 6.69445,15.71925 6.89346,15.50554 L8.91359,13.33554 C9.30881,12.91113 9.28501,12.24669 8.86053,11.85154 C8.43633,11.45639 7.77182,11.48012 7.37667,11.90453 L7.37667,11.90453 Z" id="Path"></path>
                            <path d="M12.355,14.755 L18.23486,14.755 C18.81474,14.755 19.28486,14.28488 19.28486,13.705 C19.28486,13.12512 18.81474,12.655 18.23486,12.655 L12.355,12.655 C11.77512,12.655 11.305,13.12512 11.305,13.705 C11.305,14.28488 11.77512,14.755 12.355,14.755 Z" id="Path"></path>
                            <path d="M7.37667,18.27453 L6.18331,19.55644 L6.10344,19.45711 C5.74014,19.00505 5.0792,18.93316 4.62721,19.29646 C4.17522,19.65969 4.10326,20.32063 4.46649,20.77262 L5.30649,21.81779 C5.49752,22.05537 5.78221,22.19831 6.08678,22.20937 C6.09959,22.20979 6.11226,22.21007 6.125,22.21007 C6.41585,22.21007 6.69445,22.08925 6.89346,21.87554 L8.91359,19.70554 C9.30881,19.28113 9.28501,18.61669 8.86053,18.22154 C8.43633,17.82639 7.77182,17.85012 7.37667,18.27453 L7.37667,18.27453 Z" id="Path"></path>
                            <path d="M14.10479,19.025 L12.355,19.025 C11.77512,19.025 11.305,19.49512 11.305,20.075 C11.305,20.65488 11.77512,21.125 12.355,21.125 L14.10479,21.125 C14.68467,21.125 15.15479,20.65488 15.15479,20.075 C15.15479,19.49512 14.68467,19.025 14.10479,19.025 Z" id="Path"></path>
                        </g>
                    </g>
                </g>
            </g>
        </g>
    </g>
</svg>