<?xml version="1.0" encoding="UTF-8"?>
<svg width="80px" height="80px" viewBox="0 0 80 80" version="1.1" xmlns="http://www.w3.org/2000/svg" xmlns:xlink="http://www.w3.org/1999/xlink">
    <title>icon-cs4</title>
    <g id="Page-1" stroke="none" stroke-width="1" fill="none" fill-rule="evenodd">
        <g id="img_process_icon" transform="translate(-612.000000, 0.000000)">
            <g id="Group-5" transform="translate(612.000000, 0.000000)">
                <g id="icon_CS_talk_80">
                    <rect id="Rectangle" x="0" y="0" width="80" height="80"></rect>
                    <g id="ic">
                        <circle id="Oval" fill="#F4F4F4" cx="40" cy="40" r="40"></circle>
                        <g id="Group-6" transform="translate(15.000000, 24.000000)" stroke="#222222" stroke-width="2.34234009">
                            <rect id="Rectangle" fill="#FFFFFF" transform="translate(34.795626, 25.825430) rotate(-16.000000) translate(-34.795626, -25.825430) " x="22.9037457" y="22.4921002" width="23.7837609" height="6.66666026" rx="1.80180007"></rect>
                            <rect id="Rectangle" fill="#F4F4F4" transform="translate(28.633967, 15.094280) rotate(-16.000000) translate(-28.633967, -15.094280) " x="18.9943364" y="6.35555013" width="19.2792607" height="17.4774607" rx="1.80180007"></rect>
                            <path d="M22.2805435,28.7384378 C19.9545028,19.4755698 17.7392727,11.4682881 15.6349786,4.71762942 L2.61931513,1.65863372 C2.4736728,1.74608422 2.37355297,1.89542371 2.32278898,2.08824505 L1.95783114,6.64026886 L11.4274675,9.18052873 L16.9962359,29.7641989 C19.5654009,29.2949283 21.2969104,28.9598376 22.2805435,28.7384378 Z" id="Path-3" fill="#FFFFFF"></path>
                            <rect id="Rectangle" fill="#FFFFFF" x="13.5027999" y="22.9636961" width="13.8738605" height="13.8738605" rx="6.93693027"></rect>
                            <rect id="Rectangle" fill="#FFFFFF" x="18.0073001" y="27.4681963" width="4.86486019" height="4.86486019" rx="2.43243009"></rect>
                        </g>
                    </g>
                </g>
            </g>
        </g>
    </g>
</svg>