<svg xmlns="http://www.w3.org/2000/svg" width="64" height="64" viewBox="0 0 64 64">
    <g fill="none" fill-rule="evenodd">
        <g>
            <g>
                <g>
                    <g>
                        <g>
                            <g>
                                <path d="M0 64L64 64 64 0 0 0z" transform="translate(-800 -5128) translate(269 286) translate(235 4700) translate(0 110) translate(228) translate(68 32)"/>
                                <g>
                                    <g transform="translate(-800 -5128) translate(269 286) translate(235 4700) translate(0 110) translate(228) translate(68 32) translate(6 14)">
                                        <path stroke="#000" stroke-width="2" d="M45 0c2.21 0 4 1.79 4 4v16.607c1.86 2.06 3 4.837 3 7.893C52 34.851 47.075 40 41 40c-4.547 0-8.45-2.885-10.126-7H5c-2.21 0-4-1.79-4-4V4c0-2.21 1.79-4 4-4h40z"/>
                                        <path fill="#000" d="M0 12L49 12 49 14 0 14zM0 6L49 6 49 8 0 8z"/>
                                        <circle cx="41" cy="29" r="11" stroke="#000" stroke-width="2"/>
                                    </g>
                                    <path stroke="#DA0F47" stroke-linecap="round" stroke-linejoin="round" stroke-width="2" d="M37 28.976L40.014 32 46 26" transform="translate(-800 -5128) translate(269 286) translate(235 4700) translate(0 110) translate(228) translate(68 32) translate(6 14)"/>
                                </g>
                            </g>
                        </g>
                    </g>
                </g>
            </g>
        </g>
    </g>
</svg>
