<?xml version="1.0" encoding="UTF-8"?>
<svg width="80px" height="80px" viewBox="0 0 80 80" version="1.1" xmlns="http://www.w3.org/2000/svg" xmlns:xlink="http://www.w3.org/1999/xlink">
    <title>icon-cs3</title>
    <g id="Page-1" stroke="none" stroke-width="1" fill="none" fill-rule="evenodd">
        <g id="img_process_icon" transform="translate(-408.000000, 0.000000)">
            <g id="Group-5" transform="translate(408.000000, 0.000000)">
                <g id="icon_CS_talk_80">
                    <rect id="Rectangle" x="0" y="0" width="80" height="80"></rect>
                    <g id="ic">
                        <circle id="Oval" fill="#F4F4F4" cx="40" cy="40" r="40"></circle>
                        <g id="credit-card" transform="translate(21.000000, 26.000000)" fill="#222222" fill-rule="nonzero">
                            <path d="M35.7048002,0 L4.38480002,0 C1.96705261,0 0,1.96705261 0,4.38480002 L0,23.1768001 C0,25.5945475 1.96705261,27.5616002 4.38480002,27.5616002 L35.7048002,27.5616002 C38.1225476,27.5616002 40.0896002,25.5945475 40.0896002,23.1768001 L40.0896002,4.38480002 C40.0896002,1.96705261 38.1225476,0 35.7048002,0 Z M4.38480002,2.50560001 L35.7048002,2.50560001 C36.7409441,2.50560001 37.5840002,3.34865612 37.5840002,4.38480002 L37.5840002,6.89040004 L2.50560001,6.89040004 L2.50560001,4.38480002 C2.50560001,3.34865612 3.34865612,2.50560001 4.38480002,2.50560001 Z M35.7048002,25.0560001 L4.38480002,25.0560001 C3.34865612,25.0560001 2.50560001,24.212944 2.50560001,23.1768001 L2.50560001,9.39600005 L37.5840002,9.39600005 L37.5840002,23.1768001 C37.5840002,24.212944 36.7409441,25.0560001 35.7048002,25.0560001 Z" id="Shape"></path>
                            <path d="M8.76960005,21.2976001 L7.51680004,21.2976001 C6.82494124,21.2976001 6.26400003,20.7366589 6.26400003,20.0448001 L6.26400003,18.7920001 C6.26400003,18.1001413 6.82494124,17.5392001 7.51680004,17.5392001 L8.76960005,17.5392001 C9.46145885,17.5392001 10.0224001,18.1001413 10.0224001,18.7920001 L10.0224001,20.0448001 C10.0224001,20.7366589 9.46145885,21.2976001 8.76960005,21.2976001 Z" id="Path"></path>
                        </g>
                    </g>
                </g>
            </g>
        </g>
    </g>
</svg>