<svg xmlns="http://www.w3.org/2000/svg" width="64" height="64" viewBox="0 0 64 64">
    <g fill="none" fill-rule="evenodd">
        <g>
            <g>
                <g>
                    <g>
                        <g>
                            <g>
                                <path d="M0 64L64 64 64 0 0 0z" transform="translate(-1028 -5128) translate(269 286) translate(235 4700) translate(0 110) translate(456) translate(68 32)"/>
                                <g stroke-width="2" transform="translate(-1028 -5128) translate(269 286) translate(235 4700) translate(0 110) translate(456) translate(68 32) translate(4.105 9.393)">
                                    <path stroke="#DA0F47" d="M41.723 3.782c-.075-.256-.246-.457-.462-.577-.216-.12-.478-.157-.734-.084l-19.754 5.63c-.254.073-.457.244-.577.461-.12.217-.157.48-.083.737l3.934 13.661c-3.017-.071-5.737 1.203-7.6 3.293-1.588 1.781-2.552 4.155-2.552 6.79 0 2.745 1.116 5.23 2.938 7.024 1.817 1.788 4.335 2.89 7.148 2.89 2.745 0 5.23-1.116 7.023-2.938 1.789-1.817 2.89-4.335 2.89-7.148 0-2.555-.965-4.883-2.552-6.64l14.883-4.142c.255-.075.456-.246.575-.462.12-.217.156-.48.081-.737L41.723 3.782z"/>
                                    <path stroke="#DA0F47" d="M34.946 5.654l-5.896.067.172 6.572c.007.271.122.515.302.691.181.176.428.283.7.283l3.866-.01c.274-.006.52-.122.695-.305.178-.184.285-.436.28-.712l-.119-6.586z" transform="rotate(-15 32.063 9.457)"/>
                                    <rect width="20" height="20" x="13.895" y="23.607" stroke="#000" rx="10"/>
                                    <path stroke="#000" d="M3.473 1.112c-.234-.04-.467.009-.66.13-.208.131-.368.344-.448.61L1.297 6.145c-.03.228.022.452.136.638.12.193.307.345.54.416l11.738 3.612 4.139 14.785c-2.407 1.813-3.955 4.685-3.955 8.097 0 2.744 1.116 5.228 2.938 7.023 1.817 1.788 4.335 2.89 7.148 2.89 2.745 0 5.23-1.116 7.023-2.938 1.789-1.817 2.89-4.335 2.89-7.148 0-2.606-1.004-4.977-2.649-6.747-1.655-1.782-3.96-2.954-6.536-3.14-.235-.017-.469-.026-.701-.026l-.192-.71c-1.682-6.219-3.356-12.002-5.022-17.351L3.474 1.112z"/>
                                    <path stroke="#000" d="M51.393 22.271c-.075-.255-.245-.456-.46-.575-.216-.12-.477-.157-.732-.086L31.368 26.91c-1.82-2.032-4.451-3.302-7.56-3.302-2.744 0-5.228 1.116-7.023 2.939-1.788 1.817-2.89 4.334-2.89 7.148 0 2.744 1.116 5.228 2.938 7.023 1.817 1.788 4.335 2.89 7.148 2.89 2.424 0 4.645-.87 6.367-2.314 1.902-1.595 3.196-3.89 3.486-6.489l18.687-5.257c.247-.073.449-.245.568-.462.119-.217.155-.48.08-.737l-1.776-6.077z"/>
                                    <rect width="10" height="10" x="18.895" y="28.607" stroke="#000" rx="5"/>
                                </g>
                            </g>
                        </g>
                    </g>
                </g>
            </g>
        </g>
    </g>
</svg>
