<?xml version="1.0" encoding="UTF-8"?>
<svg width="80px" height="80px" viewBox="0 0 80 80" version="1.1" xmlns="http://www.w3.org/2000/svg" xmlns:xlink="http://www.w3.org/1999/xlink">
    <title>icon-cs7</title>
    <g id="Page-1" stroke="none" stroke-width="1" fill="none" fill-rule="evenodd">
        <g id="img_process_icon" transform="translate(-408.000000, -184.000000)">
            <g id="Group-5" transform="translate(408.000000, 184.000000)">
                <g id="icon_CS_talk_80">
                    <rect id="Rectangle" x="0" y="0" width="80" height="80"></rect>
                    <g id="ic" transform="translate(0.000000, 7.000000)">
                        <circle id="Oval" fill="#F4F4F4" cx="40" cy="33" r="40"></circle>
                        <g id="hand-shake" transform="translate(20.000000, 20.000000)" fill="#222222" fill-rule="nonzero">
                            <path d="M32.7032845,17.8811206 C31.8892842,16.1901885 28.9771754,13.8431112 26.1636572,11.5752975 C24.5943897,10.3113562 23.1115611,9.11634695 22.1662416,8.17446492 C21.9294459,7.93683525 21.5751841,7.86104236 21.2623999,7.97299629 C20.6800105,8.1831016 20.3204829,8.34493839 20.0371058,8.47061414 C19.6050732,8.6634461 19.4599012,8.72890726 18.8774308,8.7874268 C18.6198963,8.81325611 18.3883663,8.95103935 18.2448955,9.16453476 C17.0230039,10.9846134 15.7579334,10.8296375 14.9128248,10.5472909 C14.6432196,10.4577762 14.5948559,10.3423514 14.5689323,10.2321733 C14.3874673,9.47626228 15.298276,7.71639821 16.4786088,6.5402766 C19.2870233,3.74037912 20.7352602,3.03951686 23.7942423,4.40160952 C27.2645181,5.94789746 30.7417609,7.15848506 30.7763527,7.17051183 C31.2309064,7.32718275 31.7199709,7.08955308 31.8772136,6.64012304 C32.032755,6.190693 31.7959593,5.69993606 31.3448891,5.54326514 C31.3102973,5.53123836 27.9022381,4.34478503 24.5010648,2.8277165 C20.538241,1.06268656 18.364063,2.22500563 15.2584185,5.32113305 C14.0763034,6.4989497 12.4707428,8.88210737 12.88552,10.6299447 C13.0635016,11.3738289 13.5889401,11.9248811 14.3700499,12.1813985 C16.3281711,12.8254362 18.1151156,12.2089228 19.4458863,10.4491395 C19.9954661,10.3647906 20.2944784,10.2408099 20.7437663,10.0393413 C20.9061938,9.96701922 21.096327,9.88267037 21.3486768,9.78104817 C22.3372562,10.7057376 23.6714293,11.781932 25.0764872,12.9132559 C27.6169977,14.9606325 30.4979983,17.2818805 31.1460877,18.6250048 C31.4658388,19.2879303 31.1218653,19.7201677 30.8885531,19.9181655 C30.5463619,20.2109246 30.0780363,20.3039101 29.8239853,20.126495 C29.5440106,19.9353581 29.1793793,19.9233313 28.8907365,20.0954999 C28.6003924,20.2676684 28.437965,20.5931177 28.474258,20.9272037 C28.5329911,21.4747851 28.0300737,21.7882077 27.8123157,21.8966908 C27.2592524,22.1756474 26.6820477,22.1274596 26.4659909,21.927686 C26.2240105,21.7038589 25.8766346,21.6383977 25.5690351,21.7520467 C25.2614357,21.8673907 25.0470801,22.1498181 25.0159718,22.4769625 C24.9641247,23.0417365 24.5441627,23.5841521 23.9962841,23.7959525 C23.7318636,23.8957989 23.3481947,23.9560942 23.0043023,23.6426716 C22.7900277,23.4498397 22.4927167,23.3757418 22.2145243,23.4428981 C21.9328484,23.5117493 21.7064222,23.7149937 21.6079126,23.9853136 C21.5751031,24.0714382 21.5007348,24.2780727 20.6919192,24.2780727 C20.1164158,24.2780727 19.0811739,23.890633 18.5748541,23.556547 C17.9682424,23.1587756 14.1643625,20.3313538 10.8790352,17.5899758 C10.4175955,17.2025361 9.61914935,16.3725273 8.91402805,15.6389748 C8.28837873,14.9880762 7.7163588,14.3974728 7.42253125,14.1495114 C7.05441646,13.8395596 6.51002134,13.8860524 6.20412314,14.2511336 C5.89652369,14.614439 5.94140389,15.1586303 6.30611621,15.4651113 C6.57402017,15.6907142 7.09249171,16.2365198 7.66451164,16.830594 C8.435333,17.6329978 9.23199693,18.4630066 9.76780486,18.9107416 C12.9858119,21.595295 16.8536096,24.4933439 17.6243499,24.9978227 C18.2603687,25.4145625 19.6308348,26 20.6920002,26 C21.5439948,26 22.1990511,25.8053923 22.6535239,25.4248942 C23.2618368,25.6608288 23.9531862,25.6625239 24.618531,25.4042308 C25.4049065,25.1011399 26.0512137,24.4898731 26.4176272,23.7494597 C27.0985262,23.8941039 27.8780157,23.7924817 28.5865395,23.4378129 C29.2795901,23.0900051 29.7807253,22.5579212 30.0295916,21.936242 C30.7174575,21.972403 31.4259813,21.7296075 32.0118541,21.2285188 C33.003998,20.3830931 33.2770057,19.0675739 32.7032845,17.8811206 L32.7032845,17.8811206 Z" id="Path"></path>
                            <path d="M17.06664,3.41304 L9.38664,3.41304 C8.9156,3.41304 8.53328,3.79536 8.53328,4.2664 C8.53328,4.73744 8.9156,5.11976 9.38664,5.11976 L17.06664,5.11976 C17.53768,5.11976 17.92,4.73744 17.92,4.2664 C17.92,3.79536 17.53768,3.41304 17.06664,3.41304 Z" id="Path"></path>
                            <path d="M34.8416,15.73688 C34.57704,15.34608 34.048,15.23856 33.6572,15.5048 L31.16208,17.18072 C30.77128,17.44352 30.66712,17.97432 30.93,18.36512 C31.09552,18.6092 31.3652,18.74232 31.64,18.74232 C31.80216,18.74232 31.96768,18.69624 32.11448,18.59728 L34.6096,16.92136 C35.00032,16.65848 35.1044,16.12776 34.8416,15.73688 L34.8416,15.73688 Z" id="Path"></path>
                            <path d="M29.54408,19.80904 C28.93312,19.32776 26.20072,16.53056 24.51112,14.76928 C24.18512,14.42792 23.64416,14.416 23.30448,14.74368 C22.96312,15.06968 22.95288,15.61064 23.27888,15.95032 C23.71752,16.40768 27.58648,20.44056 28.48592,21.15056 C28.6412,21.27344 28.82896,21.3332 29.01328,21.3332 C29.26416,21.3332 29.51504,21.22056 29.68568,21.0072 C29.9776,20.63848 29.91448,20.10088 29.54408,19.80904 L29.54408,19.80904 Z" id="Path"></path>
                            <path d="M26.13416,21.5208 C25.11184,20.70328 22.54336,17.97432 21.96304,17.34288 C21.64216,16.99472 21.10456,16.97424 20.7564,17.29168 C20.40992,17.6108 20.38608,18.15184 20.7052,18.49832 C20.73592,18.53072 23.80112,21.84 25.06744,22.85376 C25.22448,22.97832 25.41392,23.03976 25.59992,23.03976 C25.84912,23.03976 26.09824,22.9288 26.2672,22.72064 C26.56088,22.35192 26.50112,21.81432 26.13416,21.5208 L26.13416,21.5208 Z" id="Path"></path>
                            <path d="M22.73792,23.23944 C21.52104,22.21376 19.03104,19.56328 18.54464,19.04272 C18.22208,18.698 17.68104,18.6792 17.338,19.00176 C16.99328,19.32432 16.97616,19.8636 17.29704,20.2084 C17.9968,20.9576 20.37928,23.48352 21.63712,24.54504 C21.79752,24.67984 21.99208,24.7464 22.18664,24.7464 C22.42896,24.7464 22.67136,24.64232 22.84032,24.44264 C23.14408,24.0808 23.098,23.5432 22.73792,23.23944 L22.73792,23.23944 Z" id="Path"></path>
                            <path d="M9.97376,1.94024 C8.51112,0.5544 2.6624,0.10552 0.90456,0.00144 C0.66224,-0.01048 0.43864,0.06968 0.268,0.23184 C0.09728,0.39224 0,0.61752 0,0.85304 L0,16.21304 C0,16.68408 0.38232,17.0664 0.85336,17.0664 L5.97336,17.0664 C6.342,17.0664 6.66968,16.8292 6.784,16.4776 C6.90856,16.09528 9.8492,7.07048 10.23656,2.63312 C10.2588,2.37368 10.1632,2.11768 9.97376,1.94024 Z M5.3504,15.35976 L1.70664,15.35976 L1.70664,1.76784 C4.44928,1.98456 7.40864,2.4556 8.48384,2.97784 C8.0316,6.71544 5.98528,13.35608 5.3504,15.35976 Z" id="Shape"></path>
                            <path d="M41.10664,1.7064 C34.40624,1.7064 30.68912,3.4216 30.53384,3.49328 C30.312,3.59736 30.1464,3.79024 30.07816,4.02408 C30.00992,4.25792 30.044,4.5088 30.172,4.71696 C31.22672,6.41512 34.52912,15.84616 35.164,18.14672 C35.2664,18.51704 35.60264,18.77304 35.98664,18.77304 L41.10664,18.77304 C41.57768,18.77304 41.96,18.39072 41.96,17.91968 L41.96,2.55968 C41.96,2.08696 41.57768,1.7064 41.10664,1.7064 L41.10664,1.7064 Z M40.25336,17.0664 L36.62496,17.0664 C35.816,14.43128 33.42664,7.56024 32.09376,4.7204 C33.39592,4.2784 36.1932,3.51888 40.25336,3.42336 L40.25336,17.0664 Z" id="Shape"></path>
                        </g>
                    </g>
                </g>
            </g>
        </g>
    </g>
</svg>