<svg xmlns="http://www.w3.org/2000/svg" id="img_Kitchen_80" width="80" height="80" viewBox="0 0 80 80">
    <defs>
        <style>
            .cls-2{fill:none;stroke:#070203;stroke-linecap:round;stroke-linejoin:round;stroke-width:3px}
        </style>
    </defs>
    <path id="Rectangle-61" fill="none" d="M0 0H80V80H0z"/>
    <g id="ice_tray" transform="translate(671.025 -922.685)">
        <g id="Group_150">
            <path id="Rectangle-74" d="M-660.456 954.265a2.392 2.392 0 0 1 2.393-2.391h6.381a2.393 2.393 0 0 1 2.393 2.391v6.374a2.392 2.392 0 0 1-2.393 2.39h-6.381a2.391 2.391 0 0 1-2.393-2.39z" class="cls-2"/>
            <path id="Rectangle-74-2" d="M-644.921 954.265a2.392 2.392 0 0 1 2.393-2.391h6.381a2.393 2.393 0 0 1 2.393 2.391v6.374a2.392 2.392 0 0 1-2.393 2.39h-6.381a2.391 2.391 0 0 1-2.393-2.39z" class="cls-2"/>
            <path id="Rectangle-74-3" d="M-629.521 954.265a2.392 2.392 0 0 1 2.393-2.391h6.381a2.392 2.392 0 0 1 2.392 2.391v6.374a2.391 2.391 0 0 1-2.392 2.39h-6.381a2.391 2.391 0 0 1-2.393-2.39z" class="cls-2"/>
            <path id="Rectangle-74-4" d="M-614.814 946.257a2.389 2.389 0 0 1 .744-3.3l5.4-3.4a2.394 2.394 0 0 1 3.3.744l3.408 5.388a2.387 2.387 0 0 1-.745 3.3l-5.394 3.4a2.4 2.4 0 0 1-3.3-.744z" class="cls-2"/>
        </g>
        <path id="Rectangle-84" d="M-664.342 976.137c-.378 0-.684-.407-.684-.908l-1-3.37c0-.5.306-.907.684-.907h68.632c.378 0 .684.406.684.907l-1 3.37c0 .5-.306.908-.684.908z" class="cls-2"/>
        <g id="Group_151">
            <path id="Path_63" d="M-660.7 976.283l1.251 8.006c.157 1.116.814 1.9 1.816 1.9h6.438c1.163 0 1.879-.762 2.1-2.2l1.252-7.7z" class="cls-2"/>
            <path id="Path_64" d="M-645.163 976.283l1.251 8.006c.157 1.116.814 1.9 1.816 1.9h6.438c1.163 0 1.879-.762 2.105-2.2l1.252-7.7z" class="cls-2"/>
            <path id="Path_65" d="M-629.763 976.222l1.251 8.006c.157 1.116.813 1.9 1.816 1.9h6.438c1.162 0 1.878-.762 2.1-2.2l1.251-7.7z" class="cls-2"/>
            <path id="Path_66" d="M-614.215 976.277l1.251 8.006c.157 1.116.813 1.9 1.816 1.9h6.437c1.163 0 1.879-.762 2.106-2.2l1.251-7.7z" class="cls-2"/>
        </g>
    </g>
</svg>
