<svg id="img_Objet_Refrigerator_80" xmlns="http://www.w3.org/2000/svg" width="80" height="80" viewBox="0 0 80 80">
  <g id="ic" transform="translate(16 4)">
    <g id="Group_14" data-name="Group 14" transform="translate(24 2)">
      <rect id="Rectangle" width="22" height="36"/>
      <rect id="Rectangle-2" data-name="Rectangle" width="14" height="24" rx="3" transform="translate(4 6)" fill="#444" stroke="#000" stroke-miterlimit="10" stroke-width="3"/>
    </g>
    <rect id="Rectangle-3" data-name="Rectangle" width="22" height="32" transform="translate(2 38)" fill="#e1d0b6"/>
    <rect id="Rectangle-4" data-name="Rectangle" width="22" height="32" transform="translate(24 38)" fill="#e1d0b6"/>
    <rect id="Rectangle-5" data-name="Rectangle" width="22" height="34" transform="translate(2 2)" fill="#5b7d83"/>
    <g id="Rectangle-6" data-name="Rectangle" fill="none" stroke-linecap="round" stroke-linejoin="round" stroke-miterlimit="10">
      <path d="M0,3A3,3,0,0,1,3,0H45a3,3,0,0,1,3,3V69a3,3,0,0,1-3,3H3a3,3,0,0,1-3-3Z" stroke="none"/>
      <path d="M 3 3 L 3.000015258789063 3 C 3.000011444091797 3.000007629394531 3.000003814697266 3.000007629394531 3 3 L 3 69 L 45 69 L 45 3 L 3 3 M 3 0 L 45 0 C 46.6568489074707 0 48 1.343147277832031 48 3 L 48 69 C 48 70.65685272216797 46.6568489074707 72 45 72 L 3 72 C 1.343151092529297 72 0 70.65685272216797 0 69 L 0 3 C 0 1.343147277832031 1.343151092529297 0 3 0 Z" stroke="none" fill="#000"/>
    </g>
    <rect id="Rectangle-7" data-name="Rectangle" width="48" height="3" rx="1.5" transform="translate(0 36)"/>
    <path id="Path" d="M1,0V68" transform="translate(23 2)" fill="none" stroke="#000" stroke-linecap="round" stroke-miterlimit="10" stroke-width="3"/>
  </g>
</svg>
