<svg id="_29img_Medihair_80" data-name="29img_Medihair_80" xmlns="http://www.w3.org/2000/svg" width="128" height="128" viewBox="0 0 128 128">
  <rect id="Rectangle" width="128" height="128" fill="none"/>
  <g id="ic" transform="translate(28 32)">
    <path id="Path" d="M1.612,49.19c.1.319,13.147,10.993,42.74,4.272Q72.677,47.03,72.008,26.03,71.488-1.3,39.03.065C6.572,1.431-3.4,33.513,1.612,49.19Z" fill="none" stroke="#000" stroke-width="3" fill-rule="evenodd"/>
    <path id="Path-2" data-name="Path" d="M72.008,26.978V42.695a4,4,0,0,1-.129,1.009Q69.039,54.6,48.477,60.352,28.2,66.029,7.019,58.522A4,4,0,0,1,4.68,56.331L1.612,49.19h0" fill="none" stroke="#000" stroke-linecap="round" stroke-width="3" fill-rule="evenodd"/>
    <path id="Path-3" data-name="Path" d="M55.437,39.7q5.1-1.965,9.573-8" fill="none" stroke="#000" stroke-linecap="round" stroke-width="3" fill-rule="evenodd"/>
  </g>
</svg>
