<svg id="img_AirCleaner_80" xmlns="http://www.w3.org/2000/svg" width="80" height="80" viewBox="0 0 80 80">
  <g id="img_AirCleaner_64">
    <g id="img_AirCleaner_40">
      <g id="Group_613" data-name="Group 613" transform="translate(20 4)">
        <rect id="Rectangle" width="80" height="80" transform="translate(-20 -4)" fill="none"/>
        <g id="ic" transform="translate(0 -1)">
          <path id="Path_114" data-name="Path 114" d="M5.727,41.6c0-.316-4.629-9.684-4.629-9.684H36.352L32.25,41.6Z" transform="translate(1.098 31.912)" fill="#5b7d83"/>
          <path id="Path_115" data-name="Path 115" d="M4.649,14.015l4.257-1.121H32.114l2.128,1.121,1.352,4.859,2.128,30.458v1.681H1.168Z" transform="translate(0.305 13.299)" fill="#5b7d83"/>
          <path id="Rectangle-2" data-name="Rectangle" d="M6.744,26H31.256A3.45,3.45,0,0,1,34.7,29.222L37,64H1L3.3,29.222A3.45,3.45,0,0,1,6.744,26ZM19,0a14,14,0,0,1,7.211,26l5.045,0A3.45,3.45,0,0,1,34.7,29.222L37,64H1L3.3,29.222A3.45,3.45,0,0,1,6.744,26l5.045,0A14,14,0,0,1,19,0Z" transform="translate(1)" fill="#ddd" stroke="#000" stroke-linejoin="round" stroke-width="3" fill-rule="evenodd"/>
          <path id="Oval" d="M13,16a6,6,0,1,0-6-6A6,6,0,0,0,13,16Z" transform="translate(7 4)" fill="#333" stroke="#000" stroke-linejoin="round" stroke-width="3" fill-rule="evenodd"/>
          <path id="Rectangle-3" data-name="Rectangle" d="M1,32H37L32.5,42H5.5Z" transform="translate(1 32)" fill="none" stroke="#000" stroke-linecap="round" stroke-linejoin="round" stroke-width="3" fill-rule="evenodd"/>
          <path id="Path" d="M0,0H32" transform="translate(4.699 46.801)" fill="none" stroke="#000" stroke-linecap="round" stroke-width="3"/>
          <line id="Path-2" data-name="Path" x2="40" transform="translate(0 74)" fill="none" stroke="#000" stroke-linecap="round" stroke-linejoin="round" stroke-width="3"/>
        </g>
      </g>
    </g>
  </g>
</svg>
