<svg id="img_BuiltIn_80" xmlns="http://www.w3.org/2000/svg" width="80" height="80" viewBox="0 0 80 80">
  <g id="ic" transform="translate(10 14)">
    <path id="Rectangle" d="M0,3A3,3,0,0,1,3,0H29a3,3,0,0,1,3,3V48a3,3,0,0,1-3,3H3a3,3,0,0,1-3-3Z" transform="translate(14)" fill="none" stroke="#000" stroke-linecap="round" stroke-linejoin="round" stroke-miterlimit="10" stroke-width="3"/>
    <path id="Path" d="M0,0H5A3,3,0,0,1,8,3V48a3,3,0,0,1-3,3H0" fill="none" stroke="#000" stroke-linecap="round" stroke-linejoin="round" stroke-miterlimit="10" stroke-width="3"/>
    <path id="Path-2" data-name="Path" d="M0,0H-5A3,3,0,0,0-8,3V48a3,3,0,0,0,3,3H0" transform="translate(60)" fill="none" stroke="#000" stroke-linecap="round" stroke-linejoin="round" stroke-miterlimit="10" stroke-width="3"/>
    <path id="Rectangle-2" data-name="Rectangle" d="M0,1.6A1.6,1.6,0,0,1,1.6,0H4.4A1.6,1.6,0,0,1,6,1.6V14.4A1.6,1.6,0,0,1,4.4,16H1.6A1.6,1.6,0,0,1,0,14.4Z" transform="translate(35 7)" fill="none" stroke="#000" stroke-linecap="round" stroke-linejoin="round" stroke-miterlimit="10" stroke-width="3"/>
    <g id="Group_8" data-name="Group 8" transform="translate(14 1)">
      <path id="Stroke_3" data-name="Stroke 3" d="M0,.8H32" transform="translate(0 27)" fill="none" stroke="#000" stroke-linecap="round" stroke-linejoin="round" stroke-miterlimit="10" stroke-width="3"/>
      <path id="Stroke_3-2" data-name="Stroke 3" d="M.5,50V0" transform="translate(15.5)" fill="none" stroke="#000" stroke-linecap="round" stroke-linejoin="round" stroke-miterlimit="10" stroke-width="3"/>
    </g>
  </g>
</svg>
