<svg id="img_FeaturePhone_80" xmlns="http://www.w3.org/2000/svg" width="80" height="80" viewBox="0 0 80 80">
  <g id="ic" transform="translate(22 6)">
    <path id="Rectangle" d="M0,0H36V28a6,6,0,0,1-6,6H6a6,6,0,0,1-6-6Z" transform="translate(0 34)" fill="none" stroke="#000" stroke-linecap="round" stroke-linejoin="round" stroke-miterlimit="10" stroke-width="3"/>
    <path id="Rectangle-2" data-name="Rectangle" d="M0,0H36V-28a6,6,0,0,0-6-6H6a6,6,0,0,0-6,6Z" transform="translate(0 34)" fill="none" stroke="#000" stroke-linecap="round" stroke-linejoin="round" stroke-miterlimit="10" stroke-width="3"/>
    <rect id="Rectangle-3" data-name="Rectangle" width="20" height="16" rx="3" transform="translate(8 12)" fill="none" stroke="#000" stroke-linecap="round" stroke-linejoin="round" stroke-miterlimit="10" stroke-width="3"/>
    <path id="Path" d="M2,0A2,2,0,1,0,4,2,2,2,0,0,0,2,0Z" transform="translate(16 4)"/>
    <g id="Group_11" data-name="Group 11" transform="translate(9 40)">
      <g id="Group_6" data-name="Group 6">
        <g id="Group_7" data-name="Group 7" transform="translate(0 6)">
          <path id="Path-2" data-name="Path" d="M3.182,0H.818A.816.816,0,0,0,0,.81V3.19A.813.813,0,0,0,.818,4H3.182A.816.816,0,0,0,4,3.19V.81A.816.816,0,0,0,3.182,0Z" transform="translate(7 0)"/>
          <path id="Path-3" data-name="Path" d="M3.175,0H.825A.822.822,0,0,0,0,.814V3.186A.818.818,0,0,0,.825,4h2.35A.822.822,0,0,0,4,3.186V.814A.822.822,0,0,0,3.175,0Z" transform="translate(14)"/>
          <path id="Path-4" data-name="Path" d="M3.179,0H.826A.822.822,0,0,0,0,.814V3.186A.819.819,0,0,0,.826,4H3.179A.817.817,0,0,0,4,3.186V.814A.81.81,0,0,0,3.179,0Z"/>
        </g>
        <g id="Group_7-2" data-name="Group 7">
          <path id="Path-5" data-name="Path" d="M3.182,0H.818A.816.816,0,0,0,0,.81V3.19A.813.813,0,0,0,.818,4H3.182A.816.816,0,0,0,4,3.19V.81A.816.816,0,0,0,3.182,0Z" transform="translate(7 0)"/>
          <path id="Path-6" data-name="Path" d="M3.175,0H.825A.822.822,0,0,0,0,.814V3.186A.818.818,0,0,0,.825,4h2.35A.822.822,0,0,0,4,3.186V.814A.822.822,0,0,0,3.175,0Z" transform="translate(14)"/>
          <path id="Path-7" data-name="Path" d="M3.179,0H.826A.822.822,0,0,0,0,.814V3.186A.819.819,0,0,0,.826,4H3.179A.817.817,0,0,0,4,3.186V.814A.81.81,0,0,0,3.179,0Z"/>
        </g>
        <g id="Group_7-3" data-name="Group 7" transform="translate(0 12)">
          <path id="Path-8" data-name="Path" d="M3.182,0H.818A.816.816,0,0,0,0,.81V3.19A.813.813,0,0,0,.818,4H3.182A.816.816,0,0,0,4,3.19V.81A.816.816,0,0,0,3.182,0Z" transform="translate(7 0)"/>
          <path id="Path-9" data-name="Path" d="M3.175,0H.825A.822.822,0,0,0,0,.814V3.186A.818.818,0,0,0,.825,4h2.35A.822.822,0,0,0,4,3.186V.814A.822.822,0,0,0,3.175,0Z" transform="translate(14)"/>
          <path id="Path-10" data-name="Path" d="M3.179,0H.826A.822.822,0,0,0,0,.814V3.186A.819.819,0,0,0,.826,4H3.179A.817.817,0,0,0,4,3.186V.814A.81.81,0,0,0,3.179,0Z"/>
        </g>
      </g>
      <g id="Group_6-2" data-name="Group 6" transform="translate(0 18)">
        <g id="Group_7-4" data-name="Group 7">
          <path id="Path-11" data-name="Path" d="M3.182,0H.818A.816.816,0,0,0,0,.81V3.19A.813.813,0,0,0,.818,4H3.182A.816.816,0,0,0,4,3.19V.81A.816.816,0,0,0,3.182,0Z" transform="translate(7 0)"/>
          <path id="Path-12" data-name="Path" d="M3.175,0H.825A.822.822,0,0,0,0,.814V3.186A.818.818,0,0,0,.825,4h2.35A.822.822,0,0,0,4,3.186V.814A.822.822,0,0,0,3.175,0Z" transform="translate(14)"/>
          <path id="Path-13" data-name="Path" d="M3.179,0H.826A.822.822,0,0,0,0,.814V3.186A.819.819,0,0,0,.826,4H3.179A.817.817,0,0,0,4,3.186V.814A.81.81,0,0,0,3.179,0Z"/>
        </g>
      </g>
    </g>
  </g>
</svg>
