<svg id="img_Printer_80" xmlns="http://www.w3.org/2000/svg" width="80" height="80" viewBox="0 0 80 80">
  <rect id="Rectangle" width="80" height="80" fill="none"/>
  <g id="ic" transform="translate(115.5 36.5)">
    <g id="printer" transform="translate(-107.965 -26.935)">
      <rect id="사각형_2" data-name="사각형 2" width="8.116" height="3.044" rx="0.75" transform="translate(8.114 24.348)"/>
      <path id="사각형_1" data-name="사각형 1" d="M3.044,0H37.537a3.044,3.044,0,0,1,3.044,3.044V18.261H0V3.044A3.044,3.044,0,0,1,3.044,0Z" transform="translate(12.174 -0.001)" fill="none" stroke="#000" stroke-linejoin="round" stroke-width="3"/>
      <path id="빼기_2" data-name="빼기 2" d="M9913.675,2361.407h-9.132a3.044,3.044,0,0,1-3.043-3.044v-22.319a3.044,3.044,0,0,1,3.043-3.043h58.843a3.043,3.043,0,0,1,3.044,3.043v22.319a3.044,3.044,0,0,1-3.044,3.044h-9.131v-10.146h-40.58Z" transform="translate(-9901.498 -2314.738)" fill="none" stroke="#000" stroke-miterlimit="10" stroke-width="3"/>
    </g>
    <g id="print" transform="translate(-101.88 7.558)">
      <path id="사각형_4" data-name="사각형 4" d="M0,0H40.581V21.3a3.044,3.044,0,0,1-3.044,3.044H3.044A3.044,3.044,0,0,1,0,21.3Z" transform="translate(6.087 2.029)" fill="none" stroke="#000" stroke-linejoin="round" stroke-width="3"/>
      <rect id="사각형_6" data-name="사각형 6" width="28.406" height="3.044" rx="0.75" transform="translate(12.175 16.232)"/>
      <rect id="사각형_3" data-name="사각형 3" width="52.755" height="3.044" rx="0.75" transform="translate(0 0)"/>
      <rect id="사각형_8" data-name="사각형 8" width="28.406" height="3.044" rx="0.75" transform="translate(12.175 10.145)"/>
    </g>
  </g>
</svg>
