<svg id="_59img_Mobile_80" data-name="59img_Mobile_80" xmlns="http://www.w3.org/2000/svg" width="128" height="128" viewBox="0 0 128 128">
  <rect id="Rectangle" width="128" height="128" fill="none"/>
  <g id="ic" transform="translate(48 34)">
    <path id="Rectangle-2" data-name="Rectangle" d="M0,3A3,3,0,0,1,3,0H29a3,3,0,0,1,3,3V57a3,3,0,0,1-3,3H3a3,3,0,0,1-3-3Z" fill="none" stroke="#000" stroke-linecap="round" stroke-linejoin="round" stroke-miterlimit="10" stroke-width="3"/>
    <path id="Path" d="M2,0A2,2,0,1,0,4,2,2,2,0,0,0,2,0Z" transform="translate(14 7)"/>
    <rect id="Rectangle-3" data-name="Rectangle" width="10" height="3" rx="1.5" transform="translate(11 52)"/>
  </g>
</svg>
