<svg id="_24img_Dehumidifier_80" data-name="24img_Dehumidifier_80" xmlns="http://www.w3.org/2000/svg" width="128" height="128" viewBox="0 0 128 128">
  <rect id="Rectangle" width="128" height="128" fill="none"/>
  <g id="ic" transform="translate(41 28)">
    <path id="Path" d="M38.3,68H3.352A3.355,3.355,0,0,1,0,64.649V28H.695a3,3,0,0,0,3-3V21a3,3,0,0,0-3-3H0V9.819A3.355,3.355,0,0,1,3.352,6.468h18.24a30.819,30.819,0,0,0,9.494-1.259,22.231,22.231,0,0,0,7.067-4.117L38.265,1l0,0a3.354,3.354,0,0,1,2.036-1,3.638,3.638,0,0,1,1.846.409c.126.1.252.2.38.3a15.136,15.136,0,0,1,2.132,1.917,3.054,3.054,0,0,1,.407,4c-.008.019-.092.128-.229.308-2.427,3.17-5.531,7.824-6.54,11.992V68Z" transform="translate(0.306 0)" fill="none" stroke="#000" stroke-miterlimit="10" stroke-width="3"/>
    <path id="Path-2" data-name="Path" d="M1,0V4.035" transform="translate(8.026 68)" fill="none" stroke="#000" stroke-linecap="round" stroke-miterlimit="10" stroke-width="3"/>
    <path id="Path-3" data-name="Path" d="M1,0V4.035" transform="translate(40.026 68)" fill="none" stroke="#000" stroke-linecap="round" stroke-miterlimit="10" stroke-width="3"/>
    <rect id="Rectangle-2" data-name="Rectangle" width="12" height="3" rx="1.5" transform="translate(15 28)"/>
    <path id="Path-4" data-name="Path" d="M0,60H4a4,4,0,0,0,4-4V6.1S8,1.309,5.237,0" transform="translate(38 8)" fill="none" stroke="#000" stroke-miterlimit="10" stroke-width="3"/>
    <path id="Path-5" data-name="Path" d="M0,1H6" transform="translate(39 40)" fill="none" stroke="#000" stroke-miterlimit="10" stroke-width="3"/>
  </g>
</svg>
