<svg id="_22img_System_AirConditioner_80" data-name="22img_System_AirConditioner_80" xmlns="http://www.w3.org/2000/svg" width="128" height="128" viewBox="0 0 128 128">
  <rect id="Rectangle" width="128" height="128" fill="none"/>
  <g id="ic" transform="translate(30 30)">
    <g id="Shape" fill="none" stroke-miterlimit="10">
      <path d="M3,0H65a3,3,0,0,1,3,3V65a3,3,0,0,1-3,3H3a3,3,0,0,1-3-3V3A3,3,0,0,1,3,0Z" stroke="none"/>
      <path d="M 3 3 L 3.000015258789063 3 C 3.000007629394531 3.000007629394531 3.000007629394531 3.000007629394531 3 3 L 3 65 L 65 65 L 65 3 L 3 3 M 3 0 L 65 0 C 66.65685272216797 0 68 1.343147277832031 68 3 L 68 65 C 68 66.65685272216797 66.65685272216797 68 65 68 L 3 68 C 1.343147277832031 68 0 66.65685272216797 0 65 L 0 3 C 0 1.343147277832031 1.343147277832031 0 3 0 Z" stroke="none" fill="#000"/>
    </g>
    <g id="Group_10" data-name="Group 10" transform="translate(20 20)">
      <path id="Path" d="M3.182,0H.818A.819.819,0,0,0,0,.816V3.178A.82.82,0,0,0,.818,4H3.182A.82.82,0,0,0,4,3.178V.816A.819.819,0,0,0,3.182,0Z" transform="translate(12 12)"/>
      <path id="Path-2" data-name="Path" d="M3.175,0H.825A.826.826,0,0,0,0,.825V3.181A.821.821,0,0,0,.825,4h2.35A.824.824,0,0,0,4,3.181V.825A.829.829,0,0,0,3.175,0Z" transform="translate(18 12)"/>
      <path id="Path-3" data-name="Path" d="M3.179,0H.826A.826.826,0,0,0,0,.825V3.181A.821.821,0,0,0,.826,4H3.179A.82.82,0,0,0,4,3.181V.825A.818.818,0,0,0,3.179,0Z" transform="translate(6 12)"/>
      <path id="Path-4" data-name="Path" d="M3.174,0H.821A.821.821,0,0,0,0,.825V3.181A.82.82,0,0,0,.821,4H3.174A.825.825,0,0,0,4,3.181V.825A.83.83,0,0,0,3.174,0Z" transform="translate(24 12)"/>
      <path id="Path-5" data-name="Path" d="M3.19,0H.816A.821.821,0,0,0,0,.825V3.181A.816.816,0,0,0,.816,4H3.19A.815.815,0,0,0,4,3.181V.825A.813.813,0,0,0,3.19,0Z" transform="translate(0 12)"/>
      <path id="Path-6" data-name="Path" d="M3.182,0H.818A.816.816,0,0,0,0,.813V3.187A.816.816,0,0,0,.818,4H3.182A.816.816,0,0,0,4,3.187V.813A.813.813,0,0,0,3.182,0Z" transform="translate(12 18)"/>
      <path id="Path-7" data-name="Path" d="M3.175,0H.825A.822.822,0,0,0,0,.818v2.37A.817.817,0,0,0,.825,4h2.35A.821.821,0,0,0,4,3.188V.818A.826.826,0,0,0,3.175,0Z" transform="translate(18 18)"/>
      <path id="Path-8" data-name="Path" d="M3.179,0H.826A.823.823,0,0,0,0,.818v2.37A.818.818,0,0,0,.826,4H3.179A.817.817,0,0,0,4,3.188V.818A.814.814,0,0,0,3.179,0Z" transform="translate(6 18)"/>
      <path id="Path-9" data-name="Path" d="M3.174,0H.821A.818.818,0,0,0,0,.818v2.37A.817.817,0,0,0,.821,4H3.174A.822.822,0,0,0,4,3.188V.818A.826.826,0,0,0,3.174,0Z" transform="translate(24 18)"/>
      <path id="Path-10" data-name="Path" d="M3.19,0H.816A.817.817,0,0,0,0,.818v2.37A.813.813,0,0,0,.816,4H3.19A.811.811,0,0,0,4,3.188V.818A.809.809,0,0,0,3.19,0Z" transform="translate(0 18)"/>
      <path id="Path-11" data-name="Path" d="M3.182,0H.818A.816.816,0,0,0,0,.813V3.187A.816.816,0,0,0,.818,4H3.182A.816.816,0,0,0,4,3.187V.813A.816.816,0,0,0,3.182,0Z" transform="translate(12 24)"/>
      <path id="Path-12" data-name="Path" d="M3.175,0H.825A.822.822,0,0,0,0,.814V3.186A.818.818,0,0,0,.825,4h2.35A.822.822,0,0,0,4,3.186V.814A.825.825,0,0,0,3.175,0Z" transform="translate(18 24)"/>
      <path id="Path-13" data-name="Path" d="M3.179,0H.826A.822.822,0,0,0,0,.814V3.186A.819.819,0,0,0,.826,4H3.179A.817.817,0,0,0,4,3.186V.814A.814.814,0,0,0,3.179,0Z" transform="translate(6 24)"/>
      <path id="Path-14" data-name="Path" d="M3.182,0H.818A.816.816,0,0,0,0,.81V3.19A.813.813,0,0,0,.818,4H3.182A.816.816,0,0,0,4,3.19V.81A.816.816,0,0,0,3.182,0Z" transform="translate(12 6)"/>
      <path id="Path-15" data-name="Path" d="M3.175,0H.825A.822.822,0,0,0,0,.814V3.186A.818.818,0,0,0,.825,4h2.35A.822.822,0,0,0,4,3.186V.814A.822.822,0,0,0,3.175,0Z" transform="translate(18 6)"/>
      <path id="Path-16" data-name="Path" d="M3.179,0H.826A.822.822,0,0,0,0,.814V3.186A.819.819,0,0,0,.826,4H3.179A.817.817,0,0,0,4,3.186V.814A.81.81,0,0,0,3.179,0Z" transform="translate(6 6)"/>
      <path id="Path-17" data-name="Path" d="M3.174,0H.821A.817.817,0,0,0,0,.814V3.186A.817.817,0,0,0,.821,4H3.174A.822.822,0,0,0,4,3.186V.814A.822.822,0,0,0,3.174,0Z" transform="translate(24 6)"/>
      <path id="Path-18" data-name="Path" d="M3.19,0H.816A.817.817,0,0,0,0,.814V3.186A.813.813,0,0,0,.816,4H3.19A.812.812,0,0,0,4,3.186V.814A.8.8,0,0,0,3.19,0Z" transform="translate(0 6)"/>
      <path id="Path-19" data-name="Path" d="M3.182,0H.818A.816.816,0,0,0,0,.81V3.19A.813.813,0,0,0,.818,4H3.182A.816.816,0,0,0,4,3.19V.81A.816.816,0,0,0,3.182,0Z" transform="translate(12 0)"/>
      <path id="Path-20" data-name="Path" d="M3.175,0H.825A.822.822,0,0,0,0,.814V3.186A.818.818,0,0,0,.825,4h2.35A.822.822,0,0,0,4,3.186V.814A.825.825,0,0,0,3.175,0Z" transform="translate(18 0)"/>
      <path id="Path-21" data-name="Path" d="M3.179,0H.826A.822.822,0,0,0,0,.814V3.186A.819.819,0,0,0,.826,4H3.179A.817.817,0,0,0,4,3.186V.814A.814.814,0,0,0,3.179,0Z" transform="translate(6 0)"/>
      <path id="Path-22" data-name="Path" d="M3.194,0H2.541A2.569,2.569,0,0,0,0,2.576v.61A.813.813,0,0,0,.811,4H3.189A.813.813,0,0,0,4,3.186V.814A.808.808,0,0,0,3.194,0Z" transform="translate(0 0)"/>
      <path id="Path-23" data-name="Path" d="M1.428,0H.819A.817.817,0,0,0,0,.814V3.186A.818.818,0,0,0,.825,4H3.181A.817.817,0,0,0,4,3.186v-.61A2.594,2.594,0,0,0,1.428,0Z" transform="translate(24 0)"/>
      <path id="Path-24" data-name="Path" d="M3.175,0H.819A.817.817,0,0,0,0,.814V3.186A.818.818,0,0,0,.825,4h.609A2.728,2.728,0,0,0,4,1.26V.814A.822.822,0,0,0,3.175,0Z" transform="translate(24 24)"/>
      <path id="Path-25" data-name="Path" d="M3.184,0H.81A.812.812,0,0,0,0,.814V1.26A2.715,2.715,0,0,0,2.537,4H3.19A.812.812,0,0,0,4,3.186V.814A.824.824,0,0,0,3.184,0Z" transform="translate(0 24)"/>
    </g>
    <path id="Path-26" data-name="Path" d="M2,0A2,2,0,1,0,4,2,2,2,0,0,0,2,0Z" transform="translate(56 8)"/>
    <path id="Path-27" data-name="Path" d="M36,0a2.862,2.862,0,0,1-2.7,3H2.7A2.862,2.862,0,0,1,0,0" transform="translate(16 10)" fill="none" stroke="#000" stroke-miterlimit="10" stroke-width="3"/>
    <path id="Path-28" data-name="Path" d="M36,0a2.862,2.862,0,0,0-2.7-3H2.7A2.862,2.862,0,0,0,0,0" transform="translate(16 58)" fill="none" stroke="#000" stroke-miterlimit="10" stroke-width="3"/>
    <path id="Path-29" data-name="Path" d="M-36,0a2.862,2.862,0,0,0,2.7,3H-2.7A2.862,2.862,0,0,0,0,0" transform="translate(10 16) rotate(-90)" fill="none" stroke="#000" stroke-miterlimit="10" stroke-width="3"/>
    <path id="Path-30" data-name="Path" d="M36,0a2.862,2.862,0,0,1-2.7,3H2.7A2.862,2.862,0,0,1,0,0" transform="translate(58 16) rotate(90)" fill="none" stroke="#000" stroke-miterlimit="10" stroke-width="3"/>
  </g>
</svg>
