<svg id="_40img_Objet_Oven_80" data-name="40img_Objet_Oven_80" xmlns="http://www.w3.org/2000/svg" width="128" height="128" viewBox="0 0 128 128">
  <rect id="Rectangle" width="128" height="128" fill="none"/>
  <g id="ic" transform="translate(30 41)">
    <path id="Rectangle-2" data-name="Rectangle" d="M0,4A4,4,0,0,1,4,0H64a4,4,0,0,1,4,4V42.55A3.45,3.45,0,0,1,64.55,46H3.45A3.45,3.45,0,0,1,0,42.55Z" fill="#ddd" stroke="#000" stroke-linecap="round" stroke-linejoin="round" stroke-miterlimit="10" stroke-width="3"/>
    <path id="Rectangle-3" data-name="Rectangle" d="M0,3.45A3.45,3.45,0,0,1,3.45,0h45.1A3.45,3.45,0,0,1,52,3.45v15.1A3.45,3.45,0,0,1,48.55,22H3.45A3.45,3.45,0,0,1,0,18.55Z" transform="translate(8 16)" fill="#333" stroke="#000" stroke-miterlimit="10" stroke-width="3"/>
    <path id="Path" d="M0,1H16" transform="translate(26 8)" fill="none" stroke="#000" stroke-linecap="round" stroke-miterlimit="10" stroke-width="3"/>
  </g>
</svg>
