<svg id="_28img_BeautyDevice_80" data-name="28img_BeautyDevice_80" xmlns="http://www.w3.org/2000/svg" width="128" height="128" viewBox="0 0 128 128">
  <rect id="Rectangle" width="128" height="128" fill="none"/>
  <g id="ic" transform="translate(37 28)">
    <path id="Path" d="M10.177,5.93C5.83,9.286-.759,14.681.071,27.955c.817,13.06,2.59,24.392,7.448,31.882,2.1,3.245,8.635,5.889,12.718,6.814,13.619,3.086,27.591.778,30.66-5.892s-.108-45.585-11.566-55.7S14.523,2.574,10.177,5.93Z" transform="translate(0.9 0.5)" fill="none" stroke="#000" stroke-miterlimit="10" stroke-width="3"/>
    <path id="Path-2" data-name="Path" d="M0,0S17.3,16.894,48.981,9.5" transform="matrix(1, -0.017, 0.017, 1, 3.823, 49.209)" fill="none" stroke="#000" stroke-miterlimit="10" stroke-width="3"/>
    <path id="Path-3" data-name="Path" d="M0,8S24.241-3.5,50,1.533" transform="translate(1 32)" fill="none" stroke="#000" stroke-miterlimit="10" stroke-width="3"/>
    <path id="Path-4" data-name="Path" d="M0,10S21.412-3.058,48,.935" transform="matrix(0.999, 0.035, -0.035, 0.999, 1.189, 21.165)" fill="none" stroke="#000" stroke-miterlimit="10" stroke-width="3"/>
  </g>
</svg>
