<svg id="_08img_KimchiRefrigerator_80" data-name="08img_KimchiRefrigerator_80" xmlns="http://www.w3.org/2000/svg" width="128" height="128" viewBox="0 0 128 128">
  <rect id="Rectangle" width="128" height="128" fill="none"/>
  <g id="ic" transform="translate(44 30)">
    <path id="Rectangle-2" data-name="Rectangle" d="M0,3A3,3,0,0,1,3,0H37a3,3,0,0,1,3,3V65a3,3,0,0,1-3,3H3a3,3,0,0,1-3-3Z" fill="none" stroke="#000" stroke-linecap="round" stroke-linejoin="round" stroke-miterlimit="10" stroke-width="3"/>
    <path id="Rectangle-3" data-name="Rectangle" d="M0,0H8V18H0Z" transform="translate(6 8)" fill="none" stroke="#000" stroke-linecap="round" stroke-linejoin="round" stroke-miterlimit="10" stroke-width="3"/>
    <g id="Group_8" data-name="Group 8">
      <path id="Stroke_3" data-name="Stroke 3" d="M0,1.077H40" transform="translate(0 37.692)" fill="none" stroke="#000" stroke-linecap="round" stroke-miterlimit="10" stroke-width="3"/>
      <path id="Stroke_3-2" data-name="Stroke 3" d="M0,1.077H40" transform="translate(0 52.769)" fill="none" stroke="#000" stroke-linecap="round" stroke-miterlimit="10" stroke-width="3"/>
      <path id="Stroke_3-3" data-name="Stroke 3" d="M1,38V0" transform="translate(19)" fill="none" stroke="#000" stroke-linecap="round" stroke-miterlimit="10" stroke-width="3"/>
    </g>
  </g>
</svg>
