<svg id="_11img_LightWaveOven_80" data-name="11img_LightWaveOven_80" xmlns="http://www.w3.org/2000/svg" width="128" height="128" viewBox="0 0 128 128">
  <rect id="Rectangle" width="128" height="128" fill="none"/>
  <g id="ic" transform="translate(34 39)">
    <path id="Rectangle-2" data-name="Rectangle" d="M0,3A3,3,0,0,1,3,0H57a3,3,0,0,1,3,3V47a3,3,0,0,1-3,3H3a3,3,0,0,1-3-3Z" fill="none" stroke="#000" stroke-linecap="round" stroke-linejoin="round" stroke-miterlimit="10" stroke-width="3"/>
    <path id="Rectangle-3" data-name="Rectangle" d="M0,3A3,3,0,0,1,3,0H45a3,3,0,0,1,3,3V13a3,3,0,0,1-3,3H3a3,3,0,0,1-3-3Z" transform="translate(6 19)" fill="none" stroke="#000" stroke-linecap="round" stroke-linejoin="round" stroke-miterlimit="10" stroke-width="3"/>
    <g id="Group_5" data-name="Group 5" transform="translate(19 5)">
      <rect id="Rectangle-4" data-name="Rectangle" width="3" height="3" rx="1.5" transform="translate(18)"/>
      <rect id="Rectangle-5" data-name="Rectangle" width="16" height="3" rx="1.5"/>
    </g>
    <path id="Line" d="M0,1H58" transform="translate(2 43)" fill="none" stroke="#000" stroke-linecap="round" stroke-linejoin="round" stroke-miterlimit="10" stroke-width="3"/>
    <path id="Line-2" data-name="Line" d="M0,1H58" transform="translate(0 11)" fill="none" stroke="#000" stroke-linecap="round" stroke-miterlimit="10" stroke-width="3"/>
  </g>
</svg>
