<svg xmlns="http://www.w3.org/2000/svg" id="img_TV_AV_80" width="80" height="80" viewBox="0 0 80 80">
    <defs>
        <style>
            .cls-3,.cls-4{fill:none}.cls-2{fill:#070203}.cls-3,.cls-4{stroke:#070203;stroke-linecap:round;stroke-width:3px}.cls-3{stroke-miterlimit:10}.cls-4{stroke-linejoin:round}
        </style>
    </defs>
    <g id="img_TV_AV" transform="translate(22.39 1.8)">
        <path id="Rectangle" fill="none" d="M0 0H80V80H0z" transform="translate(-22.39 -1.8)"/>
        <g id="img_Remotecontroller" transform="translate(952.612 -954.878)">
            <g id="Group_133" transform="translate(-23.5 29)">
                <g id="key">
                    <g id="Group_6">
                        <g id="Group_7">
                            <path id="Path-78" d="M-909.709 951.466h-2.586a.893.893 0 0 0-.9.888v2.61a.891.891 0 0 0 .893.889h2.588a.893.893 0 0 0 .894-.889v-2.61a.892.892 0 0 0-.889-.888z" class="cls-2"/>
                            <path id="Path-79" d="M-902.061 951.466h-2.57a.9.9 0 0 0-.9.892v2.6a.9.9 0 0 0 .9.893h2.573a.9.9 0 0 0 .9-.893v-2.6a.9.9 0 0 0-.903-.892z" class="cls-2"/>
                            <path id="Path-80" d="M-917.369 951.466h-2.573a.9.9 0 0 0-.9.892v2.6a.9.9 0 0 0 .9.893h2.576a.9.9 0 0 0 .9-.892v-2.6a.886.886 0 0 0-.881-.892z" class="cls-2"/>
                        </g>
                        <g id="Group_7-2">
                            <path id="Path-81" d="M-909.709 944.885h-2.586a.9.9 0 0 0-.9.888v2.611a.891.891 0 0 0 .893.888h2.588a.893.893 0 0 0 .894-.888v-2.611a.893.893 0 0 0-.889-.888z" class="cls-2"/>
                            <path id="Path-82" d="M-902.061 944.885h-2.57a.9.9 0 0 0-.9.893v2.6a.9.9 0 0 0 .9.893h2.573a.9.9 0 0 0 .9-.893v-2.6a.9.9 0 0 0-.903-.893z" class="cls-2"/>
                            <path id="Path-83" d="M-917.369 944.885h-2.573a.9.9 0 0 0-.9.893v2.6a.9.9 0 0 0 .9.893h2.576a.9.9 0 0 0 .9-.892v-2.6a.886.886 0 0 0-.881-.893z" class="cls-2"/>
                        </g>
                        <g id="Group_7-3">
                            <path id="Path-84" d="M-909.709 958.046h-2.586a.9.9 0 0 0-.9.889v2.61a.891.891 0 0 0 .893.888h2.588a.892.892 0 0 0 .894-.888v-2.61a.893.893 0 0 0-.889-.889z" class="cls-2"/>
                            <path id="Path-85" d="M-902.061 958.046h-2.57a.9.9 0 0 0-.9.893v2.6a.9.9 0 0 0 .9.892h2.573a.9.9 0 0 0 .9-.892v-2.6a.9.9 0 0 0-.903-.893z" class="cls-2"/>
                            <path id="Path-86" d="M-917.369 958.046h-2.573a.9.9 0 0 0-.9.893v2.6a.9.9 0 0 0 .9.892h2.576a.893.893 0 0 0 .9-.891v-2.6a.887.887 0 0 0-.881-.893z" class="cls-2"/>
                        </g>
                    </g>
                </g>
                <g id="power">
                    <path id="Stroke_3-20" d="M-906.746 938.274h4.581" class="cls-3"/>
                    <path id="Stroke_3-20-2" d="M-919.839 938.274h4.581" class="cls-3"/>
                </g>
                <path id="Path_35" d="M-896.783 930.079h-28.438a3.239 3.239 0 0 0-3.281 3.2v47.76A17.277 17.277 0 0 0-911 998.079a17.277 17.277 0 0 0 17.5-17.045v-47.76a3.239 3.239 0 0 0-3.283-3.195z" class="cls-4"/>
                <g id="arrow">
                    <path id="Path-77" d="M-911 978.126a2.192 2.192 0 0 0-2.188 2.194 2.192 2.192 0 0 0 2.188 2.194 2.191 2.191 0 0 0 2.187-2.194 2.191 2.191 0 0 0-2.187-2.194z" class="cls-2"/>
                    <g id="Group_131">
                        <g id="Group_127">
                            <g id="Group_125">
                                <path id="Path_36" d="M-913.365 973.12l2.362-2.369 2.362 2.369" class="cls-4"/>
                            </g>
                            <g id="Group_126">
                                <path id="Path_37" d="M-908.64 987.52l-2.36 2.369-2.362-2.369" class="cls-4"/>
                            </g>
                        </g>
                        <g id="Group_130">
                            <g id="Group_128">
                                <path id="Path_38" d="M-918.183 982.689l-2.363-2.369 2.363-2.369" class="cls-4"/>
                            </g>
                            <g id="Group_129">
                                <path id="Path_39" d="M-903.822 977.951l2.363 2.369-2.363 2.369" class="cls-4"/>
                            </g>
                        </g>
                    </g>
                </g>
            </g>
        </g>
    </g>
</svg>
