<svg id="img_Laptop_80" xmlns="http://www.w3.org/2000/svg" width="80" height="80" viewBox="0 0 80 80">
  <g id="ic" transform="translate(2 18)">
    <path id="Rectangle" d="M3,0H57a3,3,0,0,1,3,3V38a0,0,0,0,1,0,0H0a0,0,0,0,1,0,0V3A3,3,0,0,1,3,0Z" transform="translate(8)" fill="none" stroke="#000" stroke-linecap="round" stroke-linejoin="round" stroke-miterlimit="10" stroke-width="3"/>
    <path id="Rectangle-2" data-name="Rectangle" d="M1.9,3A1.954,1.954,0,0,1,3.551,0h68.9A1.954,1.954,0,0,1,74.1,3L73.083,4.605A3,3,0,0,1,70.549,6H5.451A3,3,0,0,1,2.917,4.605Z" transform="translate(0 38)" fill="none" stroke="#000" stroke-linecap="round" stroke-linejoin="round" stroke-miterlimit="10" stroke-width="3"/>
  </g>
</svg>
