<svg id="img_VacuumCleaner_80" xmlns="http://www.w3.org/2000/svg" width="80" height="80" viewBox="0 0 80 80">
  <g id="ic" transform="translate(22 1)">
    <rect id="Rectangle" width="80" height="80" transform="translate(-22 -1)" fill="none"/>
    <g id="Group_4" data-name="Group 4" transform="translate(0 65.4)">
      <path id="Path" d="M34,6a3,3,0,0,1-3,3H3A3,3,0,0,1,0,6V3A3,3,0,0,1,3,0H31a3,3,0,0,1,3,3Z" transform="translate(0.389 1.6)" fill="none" stroke="#000" stroke-linecap="round" stroke-linejoin="round" stroke-miterlimit="10" stroke-width="3"/>
    </g>
    <path id="Path-2" data-name="Path" d="M8,26H0V0H8Z" transform="translate(13.389 41)" fill="none" stroke="#000" stroke-linecap="round" stroke-linejoin="round" stroke-miterlimit="10" stroke-width="3"/>
    <path id="Combined_Shape" data-name="Combined Shape" d="M10.3,40A2.3,2.3,0,0,1,8,37.7V32.652A14,14,0,0,1,9,6.92V5A5,5,0,1,1,19,5V6.92a14,14,0,0,1,1,25.732V37.7A2.3,2.3,0,0,1,17.7,40Z" transform="translate(3.1 0.8)" fill="none" stroke="#000" stroke-linecap="round" stroke-linejoin="round" stroke-miterlimit="10" stroke-width="3"/>
    <circle id="Oval" cx="7" cy="7" r="7" transform="translate(10.1 13.8)" fill="none" stroke="#000" stroke-linecap="round" stroke-linejoin="round" stroke-miterlimit="10" stroke-width="3"/>
  </g>
</svg>
