<svg id="img_Objet_DishWasher_80" xmlns="http://www.w3.org/2000/svg" width="80" height="80" viewBox="0 0 80 80">
  <g id="ic" transform="translate(14 12)">
    <path id="Rectangle" d="M0,3A3,3,0,0,1,3,0H49a3,3,0,0,1,3,3V53a3,3,0,0,1-3,3H3a3,3,0,0,1-3-3Z" fill="#69927c" stroke="#000" stroke-linecap="round" stroke-linejoin="round" stroke-miterlimit="10" stroke-width="3"/>
    <path id="Stroke_3" data-name="Stroke 3" d="M0,1H52" transform="translate(0 12)" fill="none" stroke="#000" stroke-linecap="round" stroke-miterlimit="10" stroke-width="3"/>
    <path id="Stroke_3-2" data-name="Stroke 3" d="M0,1H12" transform="translate(22 6)" fill="none" stroke="#000" stroke-linecap="round" stroke-miterlimit="10" stroke-width="3"/>
    <path id="Stroke_3-3" data-name="Stroke 3" d="M0,1H52" transform="translate(0 48)" fill="none" stroke="#000" stroke-linecap="round" stroke-miterlimit="10" stroke-width="3"/>
    <path id="Path" d="M2,0A2,2,0,1,0,4,2,2,2,0,0,0,2,0Z" transform="translate(8 5)"/>
  </g>
</svg>
