<svg id="_34img_signature_aircleaner_64" data-name="34img_signature_aircleaner_64" xmlns="http://www.w3.org/2000/svg" width="128" height="128" viewBox="0 0 128 128">
  <rect id="Rectangle" width="128" height="128" fill="none"/>
  <g id="ic" transform="translate(39 29)">
    <path id="Rectangle-2" data-name="Rectangle" d="M2,0,15.5.582Q24.194.957,32.895.576L46,0,44,23.757l3.7,34.389a3,3,0,0,1-2.486,3.279L36.1,62.957a72.4,72.4,0,0,1-23.807.032L2.8,61.42A3,3,0,0,1,.3,58.139L4,23.757Z" transform="translate(0.611 4.043)" fill="none" stroke="#000" stroke-linecap="round" stroke-linejoin="round" stroke-miterlimit="10" stroke-width="3"/>
    <path id="Stroke_3" data-name="Stroke 3" d="M0,.093S6.664,1.907,20,1.907A103.035,103.035,0,0,0,40,.093" transform="translate(4.611 27.265)" fill="none" stroke="#000" stroke-miterlimit="10" stroke-width="3"/>
    <path id="Stroke_3-2" data-name="Stroke 3" d="M0,.305S6.664,1.695,20,1.695A133.437,133.437,0,0,0,40,.305" transform="translate(4.611 15.052)" fill="none" stroke="#000" stroke-miterlimit="10" stroke-width="3"/>
    <path id="Path" d="M0,4,1.1,2.042A4,4,0,0,1,4.587,0H23.316a4,4,0,0,1,3.416,1.918L28,4" transform="translate(10.611)" fill="none" stroke="#000" stroke-miterlimit="10" stroke-width="3"/>
  </g>
</svg>
