<svg xmlns="http://www.w3.org/2000/svg" width="56" height="56" viewBox="0 0 56 56">
  <defs>
    <style>
      .cls-1 {
        fill: #333;
        fill-rule: evenodd;
      }
    </style>
  </defs>
  <path id="LG_Chatbot" data-name="LG Chatbot" class="cls-1" d="M626,528a4,4,0,1,1-4,4A4,4,0,0,1,626,528Zm0,2a2,2,0,1,1-2,2A2,2,0,0,1,626,530Zm26,33h-2v-4c0,9.514-8.563,17-18,17H620c-9.472,0-18-7.541-18-17v-4c0-9.5,8.528-17,18-17h5v-2h2v2h5c9.523,0,18,7.605,18,17v-4h2a2.213,2.213,0,0,1,2,2v8A2.212,2.212,0,0,1,652,563Zm-4-8c0-8.5-7.533-15-16-15H620c-8.467,0-16,6.5-16,15v4c0,8.46,7.494,15,16,15h12c8.544,0,16-6.54,16-15v-4Zm4-1a1.107,1.107,0,0,0-1-1h-1v8h1a1.106,1.106,0,0,0,1-1v-6Zm-15,6a70.647,70.647,0,0,0-11-1,71.4,71.4,0,0,0-11,1,7,7,0,0,1,0-14,71.4,71.4,0,0,1,11-1,70.647,70.647,0,0,1,11,1A7,7,0,0,1,637,560Zm0-12a70.647,70.647,0,0,0-11-1,71.4,71.4,0,0,0-11,1,5,5,0,0,0,0,10,71.4,71.4,0,0,1,11-1,70.647,70.647,0,0,1,11,1A5,5,0,0,0,637,548Zm-3,7a2.211,2.211,0,0,1-2-2v-1a2,2,0,0,1,4,0v1A2.212,2.212,0,0,1,634,555Zm-16,0a2.211,2.211,0,0,1-2-2v-1a2,2,0,0,1,4,0v1A2.212,2.212,0,0,1,618,555Zm1,8v0h0a1.107,1.107,0,0,1,1,1c0,0.018.189,0.359,0,0a10,10,0,0,0,12,0c0-.017,0,0.017,0,0a1.107,1.107,0,0,1,1-1h0a1,1,0,0,1,0,2h0a9.667,9.667,0,0,1-14,0h0A1,1,0,0,1,619,563Zm-17-10h-1a1.106,1.106,0,0,0-1,1v6a1.1,1.1,0,0,0,1,1h1l1,2h-3a2.025,2.025,0,0,1-2-1.8V553a2.212,2.212,0,0,1,2-2h3" transform="translate(-598 -524)"/>
</svg>
