<?xml version="1.0" encoding="UTF-8"?>
<svg width="32px" height="32px" viewBox="0 0 32 32" version="1.1" xmlns="http://www.w3.org/2000/svg" xmlns:xlink="http://www.w3.org/1999/xlink">
    <title>icon-kakaotalk</title>
    <g id="Page-1" stroke="none" stroke-width="1" fill="none" fill-rule="evenodd">
        <g id="KRP0019_Social_Share_PC" transform="translate(-1334.000000, -228.000000)">
            <g id="Share_Hover" transform="translate(0.000000, 140.000000)">
                <g id="share" transform="translate(1163.000000, 24.000000)">
                    <g id="share_box" transform="translate(0.000000, 40.000000)">
                        <g id="kakao" transform="translate(160.000000, 24.000000)">
                            <g id="btn_sns_kakaotalk_32" transform="translate(11.000000, 0.000000)">
                                <rect id="Rectangle" x="0" y="0" width="32" height="32"></rect>
                                <g id="ic" stroke-width="1" fill-rule="evenodd">
                                    <circle id="Oval" fill="#F4F4F4" cx="16" cy="16" r="16"></circle>
                                    <path d="M16,8 C20.9706392,8 25,11.0820646 25,14.8840274 C25,18.6859902 20.9706392,21.7683195 16,21.7683195 C15.4291055,21.7683195 14.8705207,21.7272959 14.3297164,21.6494833 C13.3320872,22.3058612 11.0206073,23.826117 10.8657792,23.9261617 C10.6685511,24.0534672 10.3671013,24.0598193 10.4891037,23.5863273 C10.588128,23.2046754 11.0813349,21.4213391 11.2695359,20.7414057 C8.70721255,19.5279007 7,17.3586778 7,14.8840274 C7,11.0820646 11.0290873,8 16,8 Z M19.8120543,12.8386958 C19.564767,12.8386958 19.3114617,12.9376818 19.3166591,13.1282431 C19.3254007,13.4443263 19.3088296,16.080444 19.3058816,16.7133861 L19.3054436,16.835984 C19.3056989,17.177124 20.144499,17.199175 20.2561154,16.9034281 L20.2683323,16.83519 L20.2683323,15.6042168 L20.5511808,15.384542 L21.7878909,17.0167526 C22.0237652,17.31821 22.7383636,16.8207802 22.6066413,16.4959102 L22.5743412,16.4405693 L21.2613112,14.7675997 C21.2613112,14.7675997 22.0443688,13.9476185 22.4318856,13.5668506 L22.5037658,13.4969263 C22.6958478,13.3120719 22.1500716,12.757121 21.9120518,12.851162 L21.8688611,12.8789254 C21.6812984,13.0589 20.4260006,14.2747837 20.2871019,14.4093265 L20.2746239,14.4214133 C20.2746239,14.4214133 20.2854737,13.6895469 20.2762918,13.2088571 L20.2738032,13.1028349 C20.2697342,12.9469783 20.0964416,12.8616392 19.8981477,12.8427397 L19.8120543,12.8386958 Z M14.1331996,12.8397545 C13.9124464,12.8397545 13.6974378,12.9178317 13.6066199,13.1126277 C13.3888114,13.575455 12.6379157,15.6597166 12.3195333,16.4174505 L12.2651409,16.5432606 C12.0765448,16.9637012 12.8356369,17.3104856 13.0892465,16.9726969 L13.1284581,16.9058565 L13.3155649,16.2706521 L15.0320781,16.2709168 C15.0320781,16.2709168 14.9817323,16.2932429 15.1534243,16.754233 L15.2011307,16.8788603 C15.3752591,17.3237974 16.1796344,17.0569601 16.1129232,16.6290653 L16.0918027,16.5519947 C15.8420671,15.9128468 15.0064924,13.6938569 14.7811977,13.1792403 L14.7508708,13.1126277 C14.6836122,12.9734451 14.4647226,12.8689135 14.2329265,12.8449553 L14.1331996,12.8397545 Z M16.967156,12.8368431 C16.7127565,12.8368431 16.4580833,12.9757941 16.4591775,13.2534313 L16.4599766,13.7744325 C16.4610183,14.506348 16.4623547,15.591317 16.4630628,16.176426 L16.4635543,16.5861369 C16.4635543,16.5861369 16.4005737,17.0113563 16.7349954,17.0822261 L16.8364001,17.0921831 C17.227984,17.0921831 18.0386475,17.0889409 18.5304198,17.0881303 L18.719504,17.0879484 C19.1313212,17.0879484 19.1563928,16.297373 18.7993892,16.191963 L18.717042,16.1804001 L18.4920696,16.1801134 C18.0882409,16.1792123 17.5754911,16.176468 17.4856013,16.1759765 L17.4718519,16.1759008 L17.4719329,16.1252449 C17.4722447,15.9280574 17.4733854,15.1882331 17.4740729,14.4928766 L17.4743139,13.2510493 C17.4735844,13.0054369 17.273577,12.8691947 17.0512354,12.841951 L16.967156,12.8368431 Z M12.4361083,12.6910108 L9.58355065,12.6910108 C9.0658049,12.6910108 9.03656083,13.5172014 9.49308174,13.6144003 L9.5843713,13.6237025 L10.5226406,13.6237025 L10.5229096,13.7426446 C10.5239643,14.2239095 10.5275918,16.0302994 10.524077,16.6426594 L10.5234613,16.7290579 C10.5244825,17.1247902 11.3735801,17.170078 11.4854542,16.8302762 L11.4975654,16.7515547 L11.5016686,13.7128958 C11.5016686,13.7128958 11.7621043,13.6577748 12.2743439,13.6481505 L12.4355612,13.6467287 C12.9842018,13.6472269 13.0172017,12.8001998 12.5329646,12.7005478 L12.4361083,12.6910108 Z M14.1909182,13.8539641 L14.7131212,15.435623 L13.6252211,15.435623 L14.1909182,13.8539641 Z" id="Combined-Shape" fill="#616161"></path>
                                </g>
                            </g>
                        </g>
                    </g>
                </g>
            </g>
        </g>
    </g>
</svg>