<?xml version="1.0" encoding="UTF-8"?>
<svg width="32px" height="32px" viewBox="0 0 32 32" version="1.1" xmlns="http://www.w3.org/2000/svg" xmlns:xlink="http://www.w3.org/1999/xlink">
    <title>icon-twitter</title>
    <g id="Page-1" stroke="none" stroke-width="1" fill="none" fill-rule="evenodd">
        <g id="KRP0019_Social_Share_PC" transform="translate(-1265.000000, -228.000000)">
            <g id="Share_Hover" transform="translate(0.000000, 140.000000)">
                <g id="share" transform="translate(1163.000000, 24.000000)">
                    <g id="share_box" transform="translate(0.000000, 40.000000)">
                        <g id="twitter" transform="translate(92.000000, 24.000000)">
                            <g id="btn_sns_twitter_32" transform="translate(10.000000, 0.000000)">
                                <rect id="Rectangle" x="0" y="0" width="32" height="32"></rect>
                                <g id="ic" stroke-width="1" fill-rule="evenodd">
                                    <circle id="Oval" fill="#F4F4F4" cx="16" cy="16" r="16"></circle>
                                    <path d="M14.0200085,23.3333333 C20.0617284,23.3333333 23.3652618,18.2024433 23.3652618,13.7556719 C23.3652618,13.609075 23.3652618,13.4624782 23.3584504,13.3228621 C23.9987229,12.8481675 24.5572584,12.2547993 25,11.5776614 C24.4142188,11.8429319 23.7807578,12.0244328 23.1132397,12.1082024 C23.7943806,11.6893543 24.3120477,11.0331588 24.5572584,10.2443281 C23.9237974,10.6282723 23.2222222,10.9075044 22.4729672,11.061082 C21.8735632,10.4048866 21.0221371,10 20.0753512,10 C18.2635164,10 16.792252,11.5078534 16.792252,13.3647469 C16.792252,13.6300175 16.8194977,13.8883072 16.8808003,14.1326353 C14.1494253,13.9930192 11.7313751,12.6527051 10.1102597,10.6143106 C9.83099191,11.1099476 9.66751809,11.6893543 9.66751809,12.3036649 C9.66751809,13.469459 10.2464879,14.5026178 11.1319711,15.1029668 C10.5938697,15.0890052 10.0898255,14.9354276 9.64708387,14.6841187 C9.64708387,14.6980803 9.64708387,14.7120419 9.64708387,14.7260035 C9.64708387,16.3595113 10.7777778,17.7137871 12.2830992,18.0279232 C12.0106428,18.104712 11.7177522,18.1465969 11.4180502,18.1465969 C11.2068966,18.1465969 11.0025543,18.1256545 10.798212,18.0837696 C11.213708,19.4240838 12.4261388,20.3944154 13.8633461,20.4223386 C12.7394636,21.3228621 11.3226905,21.8603839 9.78331205,21.8603839 C9.51766709,21.8603839 9.25883355,21.8464223 9,21.8115183 C10.4372073,22.7748691 12.1673052,23.3333333 14.0200085,23.3333333" id="Path" fill="#616161" fill-rule="nonzero"></path>
                                </g>
                            </g>
                        </g>
                    </g>
                </g>
            </g>
        </g>
    </g>
</svg>