<svg xmlns="http://www.w3.org/2000/svg" width="64" height="64" viewBox="0 0 64 64">
  <defs>
    <style>
      .cls-1 {
        fill: #333;
        fill-rule: evenodd;
      }
    </style>
  </defs>
  <path id="Other_Support_Options_" data-name="Other Support Options " class="cls-1" d="M603,703a1,1,0,1,1-1,1A1,1,0,0,1,603,703Zm4,0a1,1,0,1,1-1,1A1,1,0,0,1,607,703Zm4,0a1,1,0,1,1-1,1A1,1,0,0,1,611,703Zm11,15h17a1,1,0,1,0,0-2H622v2Zm-5-2h-4a1,1,0,1,0,0,2h4v-2Zm21,10h1a1,1,0,0,0,0-2h-1v2Zm-5-2H613a1,1,0,0,0,0,2h20v-2Zm-5,10h11a1,1,0,0,0,0-2H628v2Zm-5-2H613a1,1,0,0,0,0,2h10v-2Zm-5-19h3a1,1,0,0,1,1,1v6a1,1,0,0,1-1,1h-3a1,1,0,0,1-1-1v-6A1,1,0,0,1,618,713Zm1,2h1v4h-1v-4Zm15,6h3a1,1,0,0,1,1,1v6a1,1,0,0,1-1,1h-3a1,1,0,0,1-1-1v-6A1,1,0,0,1,634,721Zm1,2h1v4h-1v-4Zm-11,6h3a1,1,0,0,1,1,1v6a1,1,0,0,1-1,1h-3a1,1,0,0,1-1-1v-6A1,1,0,0,1,624,729Zm1,2h1v4h-1v-4Zm-25-32h52a2,2,0,0,1,2,2v40a2,2,0,0,1-2,2H600a2,2,0,0,1-2-2V701A2,2,0,0,1,600,699Zm0,2h52v40H600V701Zm0,6h52v2H600v-2Z" transform="translate(-594 -689)"/>
</svg>
