<svg xmlns="http://www.w3.org/2000/svg" width="64" height="64" viewBox="0 0 64 64">
  <defs>
    <style>
      .cls-1 {
        fill: #333;
        fill-rule: evenodd;
      }
    </style>
  </defs>
  <path id="twitter" class="cls-1" d="M936,2026a28,28,0,1,1,28-28A28,28,0,0,1,936,2026Zm0-54a26,26,0,1,0,26,26A26,26,0,0,0,936,1972Zm9.708,21.08c0.009,0.21.013,0.43,0.013,0.64a13.993,13.993,0,0,1-21.571,11.85,9.148,9.148,0,0,0,1.176.07,9.9,9.9,0,0,0,6.119-2.11,4.934,4.934,0,0,1-4.6-3.44,4.733,4.733,0,0,0,.928.09,5.048,5.048,0,0,0,1.3-.17,4.958,4.958,0,0,1-3.953-4.86c0-.02,0-0.04,0-0.06a4.952,4.952,0,0,0,2.231.62,4.975,4.975,0,0,1-1.525-6.61,13.927,13.927,0,0,0,10.156,5.17,4.93,4.93,0,0,1,8.4-4.51,9.72,9.72,0,0,0,3.129-1.2,4.976,4.976,0,0,1-2.166,2.74,9.923,9.923,0,0,0,2.829-.78A10.1,10.1,0,0,1,945.708,1993.08Z" transform="translate(-904 -1966)"/>
</svg>
