<svg xmlns="http://www.w3.org/2000/svg" width="64" height="64" viewBox="0 0 64 64">
  <defs>
    <style>
      .cls-1 {
        fill: #333;
        fill-rule: evenodd;
      }
    </style>
  </defs>
  <path id="Video_Tutorials_" data-name="Video Tutorials " class="cls-1" d="M476,739a2.2,2.2,0,0,1-2-2V699a2.065,2.065,0,0,1,2-2h52a2.144,2.144,0,0,1,2,2v38a2.2,2.2,0,0,1-2,2H476Zm52-40H476v38h52V699Zm-34,44h3.25l0.75-4h2l-0.75,4h5.5L504,739h2l0.75,4H510a1.028,1.028,0,0,1,1,1.051,0.974,0.974,0,0,1-1,.949H494A1,1,0,0,1,494,743Zm9-9a1,1,0,1,1-1-1A1,1,0,0,1,503,734Zm23-33H478v30h48V701Zm-46,28V703h44v26H480Zm18-18c0-1.993,2.151-1.75,3-1l7,5a1.354,1.354,0,0,1,0,2l-7,5c-0.864.775-3,1.008-3-1V711Zm2,9,6-4-6-4v8Z" transform="translate(-470 -689)"/>
</svg>
