<?xml version="1.0" encoding="UTF-8"?>
<svg width="96px" height="96px" viewBox="0 0 96 96" version="1.1" xmlns="http://www.w3.org/2000/svg" xmlns:xlink="http://www.w3.org/1999/xlink">
    <title>icon08_off</title>
    <g id="Page-1" stroke="none" stroke-width="1" fill="none" fill-rule="evenodd">
        <g id="icon_care_on">
            <g>
                <rect id="Rectangle" x="0" y="0" width="96" height="96"></rect>
                <g id="ic" transform="translate(13.000000, 13.000000)" stroke="#CCCCCC" stroke-linecap="round" stroke-linejoin="round" stroke-width="4">
                    <path d="M9.328,58.791 C15.658,65.717 25.508,70 35,70 C54.33,70 70,54.331 70,35 C70,15.67 54.33,0 35,0 C15.67,0 0,15.67 0,35" id="Stroke-1"></path>
                    <line x1="17.99985" y1="18.0003" x2="51.99985" y2="52.0003" id="Stroke-5"></line>
                    <line x1="51.99985" y1="18.0003" x2="17.99985" y2="52.0003" id="Stroke-7"></line>
                    <path d="M34.9999,44.5283 C40.2619,44.5283 44.5269,40.2623 44.5269,35.0003 C44.5269,29.7383 40.2619,25.4733 34.9999,25.4733 C29.7379,25.4733 25.4729,29.7383 25.4729,35.0003 C25.4729,40.2623 29.7379,44.5283 34.9999,44.5283 Z" id="Stroke-3" fill="#FFFFFF"></path>
                </g>
            </g>
        </g>
    </g>
</svg>