<?xml version="1.0" encoding="UTF-8"?>
<svg width="96px" height="96px" viewBox="0 0 96 96" version="1.1" xmlns="http://www.w3.org/2000/svg" xmlns:xlink="http://www.w3.org/1999/xlink">
    <title>icon03_on</title>
    <g id="Page-1" stroke="none" stroke-width="1" fill="none" fill-rule="evenodd">
        <g id="icon_kitchen_on">
            <g>
                <rect id="Rectangle" x="0" y="0" width="96" height="96"></rect>
                <g id="ic" transform="translate(18.000000, 9.000000)" stroke="#222222" stroke-linecap="round" stroke-linejoin="round" stroke-width="4">
                    <path d="M4.97379915e-14,14.1975309 C4.97379915e-14,9.93533216 4.97379915e-14,5.67313345 4.97379915e-14,1.41093474 C4.96425624e-14,0.631697002 0.631697002,4.58843323e-14 1.41093474,4.4408921e-14 L57.8483245,4.4408921e-14 C58.6275623,4.01131645e-14 59.2592593,0.631697002 59.2592593,1.41093474 L59.2592593,26.984127 C59.2592593,27.7633647 58.6275623,28.3950617 57.8483245,28.3950617 C38.5655497,28.3950617 19.2827748,28.3950617 4.97379915e-14,28.3950617" id="Rectangle"></path>
                    <path d="M4.97379915e-14,28.3950617 L57.8483245,28.3950617 C58.6275623,28.3950617 59.2592593,29.0267587 59.2592593,29.8059965 L59.2592593,70.1940035 C59.2592593,70.9732413 58.6275623,71.6049383 57.8483245,71.6049383 L1.41093474,71.6049383 C0.631697002,71.6049383 5.13877328e-14,70.9732413 4.97379915e-14,70.1940035 L4.97379915e-14,42.9244916 L4.97379915e-14,42.9244916" id="Rectangle" transform="translate(29.629630, 50.000000) scale(-1, 1) translate(-29.629630, -50.000000) "></path>
                    <line x1="6.79012346" y1="71.6049383" x2="6.79012346" y2="77.7777778" id="Stroke-3"></line>
                    <line x1="52.4691358" y1="71.6049383" x2="52.4691358" y2="77.7777778" id="Stroke-3"></line>
                    <line x1="10.6481481" y1="19.1358025" x2="15.2777778" y2="19.1358025" id="Stroke-3"></line>
                    <line x1="10.6481481" y1="38.8888889" x2="15.2777778" y2="38.8888889" id="Stroke-3"></line>
                </g>
            </g>
        </g>
    </g>
</svg>