<?xml version="1.0" encoding="UTF-8"?>
<svg width="96px" height="96px" viewBox="0 0 96 96" version="1.1" xmlns="http://www.w3.org/2000/svg" xmlns:xlink="http://www.w3.org/1999/xlink">
    <title>icon02_off</title>
    <g id="Page-1" stroke="none" stroke-width="1" fill="none" fill-rule="evenodd">
        <g id="icon_PC_off">
            <g>
                <rect id="Rectangle" x="0" y="0" width="96" height="96"></rect>
                <g id="ic" transform="translate(9.000000, 12.000000)" stroke="#CCCCCC" stroke-linecap="round" stroke-linejoin="round" stroke-width="4">
                    <path d="M0.00610723445,16.1597424 C0.00610723445,14.048166 -0.00763404306,9.218107 0.00610723445,4.35827518 C0.00610723445,4.06512793 0.0404604282,2.52610485 1.28633626,1.28022902 C2.07645971,0.490105565 3.16660106,2.48689958e-14 4.36552752,2.48689958e-14 L73.3284189,2.48689958e-14 C75.7262718,2.48689958e-14 77.6878392,1.96156736 77.6878392,4.35827518 L77.6878392,53.7341206 C77.6878392,56.1319735 75.7262718,58.0935409 73.3284189,58.0935409 L4.36552752,58.0935409 C1.9676746,58.0935409 0.00610723445,56.1319735 0.00610723445,53.7341206 L0.00610723445,31.0976561" id="Stroke-1"></path>
                    <line x1="1.46600346" y1="45.3716944" x2="65.1904765" y2="45.4372374" id="Stroke-3"></line>
                    <line x1="29.2639208" y1="58.0942279" x2="24.5037132" y2="70.6056611" id="Stroke-7"></line>
                    <line x1="48.5060607" y1="58.0942279" x2="53.2662683" y2="70.6056611" id="Stroke-9"></line>
                    <line x1="24.2645506" y1="70.5606942" x2="53.2645506" y2="70.5606942" id="Stroke-11"></line>
                </g>
            </g>
        </g>
    </g>
</svg>