<?xml version="1.0" encoding="UTF-8"?>
<svg width="96px" height="96px" viewBox="0 0 96 96" version="1.1" xmlns="http://www.w3.org/2000/svg" xmlns:xlink="http://www.w3.org/1999/xlink">
    <title>icon07_on</title>
    <g id="Page-1" stroke="none" stroke-width="1" fill="none" fill-rule="evenodd">
        <g id="icon_beauty_on">
            <g>
                <rect id="Rectangle" x="0" y="0" width="96" height="96"></rect>
                <g id="ic" transform="translate(9.250000, 13.250000)" stroke="#222222" stroke-linecap="round" stroke-linejoin="round" stroke-width="4">
                    <g id="Group-14">
                        <path d="M4.5336422,36.2074153 C1.3173922,30.0774153 0.542392205,25.2811653 0.372392205,24.1449153 C0.148642205,22.6549153 0.0261422045,21.1511653 0.00239220453,19.6311653 C-0.163857795,8.95616532 8.3561422,0.167415319 19.0311422,0.00241531942 C20.7648922,-0.0250846806 22.4961422,0.182415319 24.1748922,0.616165319 C31.1836422,2.43116532 36.0423922,6.73866532 38.7473922,13.5386653 C40.6348922,6.73866532 45.4923922,2.43116532 53.3198922,0.616165319 C63.9261422,-1.84008468 74.5136422,4.76366532 76.9711422,15.3674153 C77.3823922,17.1411653 77.5461422,18.9624153 77.4573922,20.7811653 C77.1961422,26.1086653 75.6986422,31.2511653 72.9623922,36.2074153 C66.9148922,47.1661653 55.5098922,58.1824153 38.7473922,69.2561653 C31.0848922,64.4199153 25.2498922,59.6386653 21.1798922,55.9736653 C19.4461422,54.4099153 17.8623922,52.8799153 17.8623922,52.8799153" id="Stroke-1"></path>
                        <line x1="59.375" y1="15.625" x2="63.125" y2="19.375" id="Stroke-3"></line>
                        <line x1="49.375" y1="19.375" x2="59.375" y2="29.375" id="Stroke-3"></line>
                    </g>
                </g>
            </g>
        </g>
    </g>
</svg>