<?xml version="1.0" encoding="UTF-8"?>
<svg width="96px" height="96px" viewBox="0 0 96 96" version="1.1" xmlns="http://www.w3.org/2000/svg" xmlns:xlink="http://www.w3.org/1999/xlink">
    <title>icon05_on</title>
    <g id="Page-1" stroke="none" stroke-width="1" fill="none" fill-rule="evenodd">
        <g id="icon_Airconditioner_on">
            <g>
                <rect id="Rectangle" x="0" y="0" width="96" height="96"></rect>
                <g id="ic" transform="translate(8.000000, 29.000000)" stroke="#222222" stroke-linecap="round" stroke-linejoin="round" stroke-width="4">
                    <g id="Group-8" transform="translate(0.000100, -0.000500)">
                        <g id="Group-10">
                            <path d="M0,11.332 L0,1.482 C0,0.664 0.663,0 1.481,0 L78.519,0 C79.336,0 80,0.664 80,1.482 L80,36.019 C80,36.837 79.336,37.5 78.519,37.5 L1.481,37.5 C0.663,37.5 0,36.837 0,36.019 L0,25.667" id="Stroke-1"></path>
                            <path d="M65,37.5004 L15,37.5004 C13.619,37.5004 12.5,36.3814 12.5,35.0004 L12.5,32.5004 C12.5,31.1194 13.619,30.0004 15,30.0004 L53.237,30.0004 L58.886,30.0004 L65,30.0004" id="Stroke-3"></path>
                            <line x1="38.75" y1="20.7504" x2="43.25" y2="20.7504" id="Stroke-5"></line>
                        </g>
                    </g>
                </g>
            </g>
        </g>
    </g>
</svg>