<?xml version="1.0" encoding="utf-8"?>
<!-- Generator: Adobe Illustrator 25.0.1, SVG Export Plug-In . SVG Version: 6.00 Build 0)  -->
<svg version="1.1" id="ic_x5F_device_x5F_list_x5F_airpurifier_1_"
	 xmlns="http://www.w3.org/2000/svg" xmlns:xlink="http://www.w3.org/1999/xlink" x="0px" y="0px" viewBox="0 0 240 240"
	 style="enable-background:new 0 0 240 240;" xml:space="preserve">
<style type="text/css">
	.st0{fill:url(#SVGID_1_);}
	.st1{opacity:0.35;fill:url(#SVGID_2_);}
	.st2{fill:url(#SVGID_3_);}
	.st3{fill:url(#Ellipse_838_copy_1_);}
	.st4{fill-rule:evenodd;clip-rule:evenodd;fill:url(#Ellipse_838_copy_3_1_);}
	.st5{fill-rule:evenodd;clip-rule:evenodd;fill:#3A3A3A;}
	.st6{fill-rule:evenodd;clip-rule:evenodd;fill:url(#Ellipse_762_copy_2_1_);}
	.st7{fill:#5CEDC9;}
	.st8{fill:url(#SVGID_4_);}
	.st9{fill:url(#SVGID_5_);}
	.st10{fill:url(#SVGID_6_);}
	.st11{opacity:0.1;}
	.st12{clip-path:url(#SVGID_8_);}
	.st13{clip-path:url(#SVGID_10_);}
</style>
<g id="_x5F_default_12_">
	<g>
		
			<radialGradient id="SVGID_1_" cx="122.2406" cy="43.2575" r="28.2693" gradientTransform="matrix(0.9842 0 0 0.9852 -0.315 3.8405)" gradientUnits="userSpaceOnUse">
			<stop  offset="0.6" style="stop-color:#F1F1F2"/>
			<stop  offset="1" style="stop-color:#C8C9C9"/>
		</radialGradient>
		<path class="st0" d="M148.2,42.3L148.2,42.3C147.5,30,134.8,19,120,19S92.5,30,91.8,42.3l0,0c0,0,0,7.1,0,7.9
			c0,13.1,12.7,23.7,28.2,23.7s28.2-10.6,28.2-23.7C148.2,49.4,148.2,42.3,148.2,42.3z"/>
		<linearGradient id="SVGID_2_" gradientUnits="userSpaceOnUse" x1="120" y1="28.0955" x2="120" y2="44.2779">
			<stop  offset="0.4349" style="stop-color:#2C2C2C;stop-opacity:0"/>
			<stop  offset="0.5187" style="stop-color:#131313"/>
		</linearGradient>
		<path class="st1" d="M148.2,41.7L148.2,41.7C147.5,29.4,134.8,19,120,19S92.5,29.5,91.8,41.8l0,0c0,0,0,7.6,0,8.4
			c0,13.1,12.7,23.7,28.2,23.7s28.2-10.6,28.2-23.7C148.2,49.4,148.2,41.7,148.2,41.7z"/>
		<g>
			
				<linearGradient id="SVGID_3_" gradientUnits="userSpaceOnUse" x1="93.5955" y1="40.7729" x2="150.9288" y2="40.7729" gradientTransform="matrix(0.9841 0 0 0.9878 -0.318 2.0471)">
				<stop  offset="0" style="stop-color:#C1C1C1"/>
				<stop  offset="0.5147" style="stop-color:#E7E7E7"/>
				<stop  offset="1" style="stop-color:#C1C1C1"/>
			</linearGradient>
			<path class="st2" d="M120,65.6c-15.6,0-28.2-10.5-28.2-23.3S104.4,19,120,19s28.2,10.5,28.2,23.3S135.6,65.6,120,65.6z"/>
			
				<radialGradient id="Ellipse_838_copy_1_" cx="117.739" cy="37.4691" r="24.4384" gradientTransform="matrix(1.0164 0 0 0.9732 0.3283 5.8574)" gradientUnits="userSpaceOnUse">
				<stop  offset="0" style="stop-color:#4E4E4E"/>
				<stop  offset="1" style="stop-color:#393939"/>
			</radialGradient>
			<ellipse id="Ellipse_838_copy_7_" class="st3" cx="120" cy="42.3" rx="26.7" ry="21.8"/>
			<linearGradient id="Ellipse_838_copy_3_1_" gradientUnits="userSpaceOnUse" x1="99.771" y1="41.7252" x2="140.229" y2="41.7252">
				<stop  offset="0" style="stop-color:#CCCCCC"/>
				<stop  offset="0.6" style="stop-color:#EEEEEE"/>
				<stop  offset="1" style="stop-color:#DDDDDD"/>
			</linearGradient>
			<path id="Ellipse_838_copy_3_17_" class="st4" d="M120,25.6c11.2,0,20.2,7.2,20.2,16.1s-9.1,16.1-20.2,16.1s-20.2-7.2-20.2-16.1
				S108.8,25.6,120,25.6z"/>
			<path id="Ellipse_838_copy_3_16_" class="st5" d="M120,32.9c6.1,0,11.1,3.9,11.1,8.6s-5,8.6-11.1,8.6s-11.1-3.9-11.1-8.6
				S113.9,32.9,120,32.9z"/>
		</g>
		<radialGradient id="Ellipse_762_copy_2_1_" cx="120" cy="43.6262" r="56.5014" gradientUnits="userSpaceOnUse">
			<stop  offset="0.3" style="stop-color:#24BBAB"/>
			<stop  offset="1" style="stop-color:#5CEDC9"/>
		</radialGradient>
		<path id="Ellipse_762_copy_2_15_" class="st6" d="M163.3,39.4c2.3,0,4.2,1.9,4.2,4.2s-1.9,4.2-4.2,4.2c-2.3,0-4.2-1.9-4.2-4.2
			S160.9,39.4,163.3,39.4z M176,39.8c2.1,0,3.8,1.7,3.8,3.8s-1.7,3.8-3.8,3.8s-3.8-1.7-3.8-3.8S173.9,39.8,176,39.8z M187.9,40.2
			c1.9,0,3.4,1.5,3.4,3.4s-1.5,3.4-3.4,3.4c-1.9,0-3.4-1.5-3.4-3.4S186,40.2,187.9,40.2z M76.7,39.4c2.3,0,4.2,1.9,4.2,4.2
			s-1.9,4.2-4.2,4.2c-2.3,0-4.2-1.9-4.2-4.2S74.4,39.4,76.7,39.4z M64,39.8c2.1,0,3.8,1.7,3.8,3.8s-1.7,3.8-3.8,3.8
			s-3.8-1.7-3.8-3.8S61.9,39.8,64,39.8z M52.1,40.2c1.9,0,3.4,1.5,3.4,3.4S54,47,52.1,47s-3.4-1.5-3.4-3.4S50.2,40.2,52.1,40.2z
			 M155.7,19.6c2-1.2,4.6-0.5,5.8,1.6c1.2,2,0.5,4.6-1.6,5.8c-2,1.2-4.6,0.5-5.8-1.6c0,0,0,0,0,0C153,23.3,153.7,20.8,155.7,19.6
			C155.7,19.6,155.7,19.6,155.7,19.6L155.7,19.6z M166.9,13.6c1.8-1.1,4.2-0.4,5.2,1.4c1.1,1.8,0.4,4.2-1.4,5.2
			c-1.8,1.1-4.2,0.4-5.2-1.4C164.5,17,165.1,14.6,166.9,13.6C166.9,13.6,166.9,13.6,166.9,13.6z M177.4,8c1.6-0.9,3.7-0.4,4.6,1.2
			c0.9,1.6,0.4,3.7-1.2,4.6c-1.6,0.9-3.7,0.4-4.6-1.2C175.3,11,175.8,8.9,177.4,8L177.4,8z M80,60.3c2-1.2,4.6-0.5,5.8,1.6
			c1.2,2,0.5,4.6-1.6,5.8c-2,1.2-4.6,0.5-5.8-1.6C77.3,64.1,78,61.5,80,60.3C80,60.3,80,60.3,80,60.3z M69.2,67.1
			c1.8-1.1,4.2-0.4,5.2,1.4c1.1,1.8,0.4,4.2-1.4,5.2c-1.8,1.1-4.2,0.4-5.2-1.4c0,0,0,0,0,0C66.8,70.4,67.4,68.1,69.2,67.1z
			 M59.2,73.4c1.6-0.9,3.7-0.4,4.6,1.2c0.9,1.6,0.4,3.7-1.2,4.6c-1.6,0.9-3.7,0.4-4.6-1.2c0,0,0,0,0,0C57,76.4,57.5,74.3,59.2,73.4
			L59.2,73.4z M160,60.3c2,1.2,2.7,3.8,1.6,5.8c-1.2,2-3.8,2.7-5.8,1.6c-2-1.2-2.7-3.8-1.6-5.8c0,0,0,0,0,0
			C155.3,59.8,157.9,59.2,160,60.3L160,60.3z M170.8,67.1c1.8,1.1,2.5,3.4,1.4,5.2c-1.1,1.8-3.4,2.5-5.2,1.4
			c-1.8-1.1-2.5-3.4-1.4-5.2C166.6,66.6,168.9,66,170.8,67.1C170.8,67.1,170.8,67.1,170.8,67.1z M180.8,73.4c1.6,0.9,2.2,3,1.2,4.6
			c-0.9,1.6-3,2.2-4.6,1.2c-1.6-0.9-2.2-3-1.2-4.6c0,0,0,0,0,0C177.1,73,179.2,72.4,180.8,73.4L180.8,73.4z M84.3,19.6
			c2,1.2,2.7,3.8,1.6,5.8c-1.2,2-3.8,2.7-5.8,1.6c-2-1.2-2.7-3.8-1.6-5.8C79.7,19.1,82.3,18.4,84.3,19.6
			C84.3,19.6,84.3,19.6,84.3,19.6z M73.1,13.6c1.8,1.1,2.5,3.4,1.4,5.2c-1.1,1.8-3.4,2.5-5.2,1.4c-1.8-1.1-2.5-3.4-1.4-5.2
			c0,0,0,0,0,0C68.9,13.2,71.2,12.5,73.1,13.6z M62.6,8c1.6,0.9,2.2,3,1.2,4.6c-0.9,1.6-3,2.2-4.6,1.2c-1.6-0.9-2.2-3-1.2-4.6
			c0,0,0,0,0,0C58.9,7.6,60.9,7.1,62.6,8z"/>
		<path id="Ellipse_838_copy_3_10_" class="st7" d="M120,27.6c10,0,18.1,6.3,18.1,14.1c0,7.8-8.1,14.1-18.1,14.1
			s-18.1-6.3-18.1-14.1C101.9,33.9,110,27.6,120,27.6 M120,25.6c-11.2,0-20.2,7.2-20.2,16.1c0,8.9,9.1,16.1,20.2,16.1
			s20.2-7.2,20.2-16.1C140.2,32.8,131.2,25.6,120,25.6L120,25.6z"/>
	</g>
	<g>
		<linearGradient id="SVGID_4_" gradientUnits="userSpaceOnUse" x1="94.344" y1="218.5721" x2="145.6322" y2="218.5721">
			<stop  offset="0" style="stop-color:#303030"/>
			<stop  offset="0.5" style="stop-color:#525252"/>
			<stop  offset="1" style="stop-color:#303030"/>
		</linearGradient>
		<rect x="88" y="216.1" class="st8" width="64" height="4.9"/>
		<g>
			<linearGradient id="SVGID_5_" gradientUnits="userSpaceOnUse" x1="94.4087" y1="139.2293" x2="145.6394" y2="139.2293">
				<stop  offset="0" style="stop-color:#303030"/>
				<stop  offset="0.5" style="stop-color:#525252"/>
				<stop  offset="1" style="stop-color:#303030"/>
			</linearGradient>
			<polygon class="st9" points="152,139.2 146.4,135.6 148.6,133.3 91.4,133.3 93.7,135.6 88.1,139.2 93.7,142.8 91.4,145.2 
				148.6,145.2 146.4,142.9 			"/>
			<linearGradient id="SVGID_6_" gradientUnits="userSpaceOnUse" x1="92.3396" y1="140.8798" x2="147.6347" y2="140.8798">
				<stop  offset="0" style="stop-color:#B6B6B6"/>
				<stop  offset="0.5147" style="stop-color:#E3E3E3"/>
				<stop  offset="1" style="stop-color:#B6B6B6"/>
			</linearGradient>
			<path class="st10" d="M152.2,144.7H87.8l-2.3,71.5h69L152.2,144.7z M149.6,65.6H90.4L88.2,134h63.6L149.6,65.6z"/>
			<g class="st11">
				<defs>
					<polygon id="SVGID_7_" class="st11" points="149.6,65.6 90.4,65.6 88.2,134 151.8,134 					"/>
				</defs>
				<clipPath id="SVGID_8_">
					<use xlink:href="#SVGID_7_"  style="overflow:visible;"/>
				</clipPath>
				<g class="st12">
					<g>
						<g>
							
								<rect x="149.2" y="65.6" transform="matrix(0.9995 -3.268826e-02 3.268826e-02 0.9995 -3.182 4.9551)" width="1.5" height="68.4"/>
						</g>
						<g>
							
								<rect x="142.5" y="65.6" transform="matrix(0.9997 -2.543354e-02 2.543354e-02 0.9997 -2.4918 3.6768)" width="1.5" height="68.4"/>
						</g>
						<g>
							
								<rect x="135.9" y="65.6" transform="matrix(0.9998 -1.816765e-02 1.816765e-02 0.9998 -1.7905 2.4989)" width="1.5" height="68.4"/>
						</g>
						<g>
							
								<rect x="129.2" y="65.6" transform="matrix(0.9999 -1.090603e-02 1.090603e-02 0.9999 -1.0807 1.4236)" width="1.5" height="68.4"/>
						</g>
						<g>
							<rect x="122.6" y="65.6" transform="matrix(1 -3.635535e-03 3.635535e-03 1 -0.362 0.449)" width="1.5" height="68.4"/>
						</g>
						<g>
							<rect x="82.5" y="99" transform="matrix(3.906220e-03 -1 1 3.906220e-03 16.4203 216.0773)" width="68.4" height="1.5"/>
						</g>
						<g>
							
								<rect x="75.8" y="99" transform="matrix(1.041610e-02 -0.9999 0.9999 1.041610e-02 9.0785 208.7663)" width="68.4" height="1.5"/>
						</g>
						<g>
							
								<rect x="69.2" y="99" transform="matrix(1.822614e-02 -0.9998 0.9998 1.822614e-02 1.6952 201.3192)" width="68.4" height="1.5"/>
						</g>
						<g>
							
								<rect x="62.5" y="99" transform="matrix(2.603284e-02 -0.9997 0.9997 2.603284e-02 -5.5774 193.8683)" width="68.4" height="1.5"/>
						</g>
						<g>
							
								<rect x="55.8" y="99" transform="matrix(3.255602e-02 -0.9995 0.9995 3.255602e-02 -12.6289 186.5458)" width="68.4" height="1.5"/>
						</g>
					</g>
				</g>
			</g>
			<g class="st11">
				<defs>
					<path id="SVGID_9_" class="st11" d="M152.2,144.7H87.8l-2.3,71.5h69L152.2,144.7z"/>
				</defs>
				<clipPath id="SVGID_10_">
					<use xlink:href="#SVGID_9_"  style="overflow:visible;"/>
				</clipPath>
				<g class="st13">
					<g>
						<g>
							<g>
								
									<rect x="151.9" y="144.6" transform="matrix(0.9995 -3.268744e-02 3.268744e-02 0.9995 -5.8149 5.0845)" width="1.5" height="71.5"/>
							</g>
							<g>
								
									<rect x="144.6" y="144.6" transform="matrix(0.9997 -2.541528e-02 2.541528e-02 0.9997 -4.5377 3.7526)" width="1.5" height="71.5"/>
							</g>
							<g>
								
									<rect x="137.4" y="144.6" transform="matrix(0.9998 -1.816640e-02 1.816640e-02 0.9998 -3.2542 2.5388)" width="1.5" height="71.5"/>
							</g>
							<g>
								
									<rect x="130.1" y="144.6" transform="matrix(0.9999 -1.090099e-02 1.090099e-02 0.9999 -1.9586 1.4373)" width="1.5" height="71.5"/>
							</g>
							<g>
								<rect x="122.9" y="144.6" transform="matrix(1 -3.633856e-03 3.633856e-03 1 -0.6547 0.4504)" width="1.5" height="71.5"/>
							</g>
							<g>
								
									<rect x="80.6" y="179.6" transform="matrix(3.906220e-03 -1 1 3.906220e-03 -64.4547 296.0684)" width="71.5" height="1.5"/>
							</g>
							<g>
								
									<rect x="73.4" y="179.6" transform="matrix(1.041610e-02 -0.9999 0.9999 1.041610e-02 -72.3712 287.6464)" width="71.5" height="1.5"/>
							</g>
							<g>
								
									<rect x="66.2" y="179.6" transform="matrix(1.822614e-02 -0.9998 0.9998 1.822614e-02 -80.3141 278.9839)" width="71.5" height="1.5"/>
							</g>
							<g>
								
									<rect x="58.9" y="179.6" transform="matrix(2.604131e-02 -0.9997 0.9997 2.604131e-02 -88.1333 270.3163)" width="71.5" height="1.5"/>
							</g>
							<g>
								
									<rect x="51.7" y="179.6" transform="matrix(3.255602e-02 -0.9995 0.9995 3.255602e-02 -95.7225 261.8842)" width="71.5" height="1.5"/>
							</g>
						</g>
					</g>
				</g>
			</g>
		</g>
	</g>
</g>
</svg>
