<svg id="ic_airpurifier_off" xmlns="http://www.w3.org/2000/svg" width="80" height="80" viewBox="0 0 80 80">
    <defs>
        <style>
            .cls-5{fill:none}.cls-2{fill:#8c8c8c}.cls-5{stroke:#8c8c8c;stroke-miterlimit:10;stroke-width:3px;stroke-linecap:round;stroke-linejoin:round}
        </style>
    </defs>
    <g id="Group_305" data-name="Group 305" transform="translate(-1575 -535.58)">
        <path id="Rectangle_170" data-name="Rectangle 170" transform="translate(1575 535.58)" style="fill:none" d="M0 0h80v80H0z"/>
    </g>
    <g id="Group_312" data-name="Group 312" transform="translate(-1575 -535.58)">
        <g id="Group_309" data-name="Group 309">
            <g id="Group_308" data-name="Group 308">
                <g id="Group_306" data-name="Group 306">
                    <path id="Path_125" data-name="Path 125" class="cls-2" d="M1614.81 552.93a4.44 4.44 0 1 1-4.44 4.44 4.443 4.443 0 0 1 4.44-4.44m0-3a7.44 7.44 0 1 0 7.44 7.44 7.439 7.439 0 0 0-7.44-7.44z"/>
                </g>
                <g id="Group_307" data-name="Group 307">
                    <path id="Path_126" data-name="Path 126" class="cls-2" d="M1614.81 546.13a11.24 11.24 0 1 1-11.24 11.24 11.25 11.25 0 0 1 11.24-11.24m0-3a14.24 14.24 0 1 0 14.24 14.24 14.239 14.239 0 0 0-14.24-14.24z"/>
                </g>
            </g>
        </g>
        <g id="Group_311" data-name="Group 311">
            <path id="Path_127" data-name="Path 127" d="M1599.85 603.55h29.91l-2.44-35.65h-25.34z" style="stroke-linecap:round;stroke-linejoin:round;stroke:#8c8c8c;stroke-miterlimit:10;stroke-width:3px;fill:#fff"/>
            <g id="Group_310" data-name="Group 310">
                <path id="Line_85" data-name="Line 85" transform="translate(1598.55 608.03)" style="stroke:#8c8c8c;stroke-miterlimit:10;stroke-width:3px;fill:none" d="M0 0h32.59"/>
                <path id="Path_128" data-name="Path 128" class="cls-5" d="M1599.84 603.33s.27 3.51 4.64 4.5"/>
                <path id="Path_129" data-name="Path 129" class="cls-5" d="M1629.77 603.33s-.27 3.51-4.64 4.5"/>
            </g>
        </g>
    </g>
</svg>
