<?xml version="1.0" encoding="utf-8"?>
<!-- Generator: Adobe Illustrator 25.0.1, SVG Export Plug-In . SVG Version: 6.00 Build 0)  -->
<svg version="1.1" id="ic_x5F_device_x5F_list_x5F_airpurifier"
	 xmlns="http://www.w3.org/2000/svg" xmlns:xlink="http://www.w3.org/1999/xlink" x="0px" y="0px" viewBox="0 0 240 240"
	 style="enable-background:new 0 0 240 240;" xml:space="preserve">
<style type="text/css">
	.st0{fill:url(#SVGID_1_);}
	.st1{fill:url(#SVGID_2_);}
	.st2{fill:url(#SVGID_3_);}
	.st3{opacity:0.4;fill:url(#SVGID_4_);}
	.st4{opacity:0.4;fill:url(#SVGID_5_);}
	.st5{fill:url(#SVGID_6_);}
	.st6{fill:url(#SVGID_7_);}
	.st7{opacity:0.1;}
	.st8{clip-path:url(#SVGID_9_);}
	.st9{clip-path:url(#SVGID_11_);}
</style>
<g id="_x5F_off_99_">
	<g>
		<linearGradient id="SVGID_1_" gradientUnits="userSpaceOnUse" x1="94.344" y1="218.5721" x2="145.6322" y2="218.5721">
			<stop  offset="0" style="stop-color:#303030"/>
			<stop  offset="0.5" style="stop-color:#525252"/>
			<stop  offset="1" style="stop-color:#303030"/>
		</linearGradient>
		<rect x="88" y="216.1" class="st0" width="64" height="4.9"/>
		<g>
			<linearGradient id="SVGID_2_" gradientUnits="userSpaceOnUse" x1="94.4087" y1="139.2293" x2="145.6394" y2="139.2293">
				<stop  offset="0" style="stop-color:#303030"/>
				<stop  offset="0.5" style="stop-color:#525252"/>
				<stop  offset="1" style="stop-color:#303030"/>
			</linearGradient>
			<polygon class="st1" points="152,139.2 146.4,135.6 148.6,133.3 91.4,133.3 93.7,135.6 88.1,139.2 93.7,142.8 91.4,145.2 
				148.6,145.2 146.4,142.9 			"/>
			<linearGradient id="SVGID_3_" gradientUnits="userSpaceOnUse" x1="90.4509" y1="53.8647" x2="149.5491" y2="53.8647">
				<stop  offset="0" style="stop-color:#C1C1C1"/>
				<stop  offset="0.5147" style="stop-color:#E7E7E7"/>
				<stop  offset="1" style="stop-color:#C1C1C1"/>
			</linearGradient>
			<polygon class="st2" points="149.5,62.7 90.5,62.7 90.6,45 149.4,45 			"/>
			<linearGradient id="SVGID_4_" gradientUnits="userSpaceOnUse" x1="154.9168" y1="53.8647" x2="120.957" y2="53.8647">
				<stop  offset="0" style="stop-color:#5F5F5F"/>
				<stop  offset="0.2485" style="stop-color:#6C6C6C;stop-opacity:0.7515"/>
				<stop  offset="0.6738" style="stop-color:#7C7C7C;stop-opacity:0.3262"/>
				<stop  offset="1" style="stop-color:#828282;stop-opacity:0"/>
			</linearGradient>
			<polygon class="st3" points="121.5,62.7 149.5,62.7 149.4,45 121.5,45 			"/>
			
				<linearGradient id="SVGID_5_" gradientUnits="userSpaceOnUse" x1="-151.5491" y1="53.7957" x2="-185.509" y2="53.7957" gradientTransform="matrix(-1 0 0 1 -66.4659 0)">
				<stop  offset="0" style="stop-color:#5F5F5F"/>
				<stop  offset="0.2485" style="stop-color:#6C6C6C;stop-opacity:0.7515"/>
				<stop  offset="0.6738" style="stop-color:#7C7C7C;stop-opacity:0.3262"/>
				<stop  offset="1" style="stop-color:#828282;stop-opacity:0"/>
			</linearGradient>
			<polygon class="st4" points="118.5,62.7 90.5,62.7 90.6,44.9 118.5,44.9 			"/>
			<linearGradient id="SVGID_6_" gradientUnits="userSpaceOnUse" x1="92.9133" y1="64.2069" x2="147.0867" y2="64.2069">
				<stop  offset="0" style="stop-color:#303030"/>
				<stop  offset="0.5" style="stop-color:#525252"/>
				<stop  offset="1" style="stop-color:#303030"/>
			</linearGradient>
			<rect x="92.9" y="62.7" class="st5" width="54.2" height="3"/>
			<linearGradient id="SVGID_7_" gradientUnits="userSpaceOnUse" x1="92.3396" y1="140.8798" x2="147.6347" y2="140.8798">
				<stop  offset="0" style="stop-color:#B6B6B6"/>
				<stop  offset="0.5147" style="stop-color:#E3E3E3"/>
				<stop  offset="1" style="stop-color:#B6B6B6"/>
			</linearGradient>
			<path class="st6" d="M152.2,144.7H87.8l-2.3,71.5h69L152.2,144.7z M149.6,65.6H90.4L88.2,134h63.6L149.6,65.6z"/>
			<g class="st7">
				<defs>
					<polygon id="SVGID_8_" class="st7" points="149.6,65.6 90.4,65.6 88.2,134 151.8,134 					"/>
				</defs>
				<clipPath id="SVGID_9_">
					<use xlink:href="#SVGID_8_"  style="overflow:visible;"/>
				</clipPath>
				<g class="st8">
					<g>
						<g>
							
								<rect x="149.2" y="65.6" transform="matrix(0.9995 -3.268826e-02 3.268826e-02 0.9995 -3.182 4.9551)" width="1.5" height="68.4"/>
						</g>
						<g>
							
								<rect x="142.5" y="65.6" transform="matrix(0.9997 -2.543354e-02 2.543354e-02 0.9997 -2.4918 3.6768)" width="1.5" height="68.4"/>
						</g>
						<g>
							
								<rect x="135.9" y="65.6" transform="matrix(0.9998 -1.816765e-02 1.816765e-02 0.9998 -1.7905 2.4989)" width="1.5" height="68.4"/>
						</g>
						<g>
							
								<rect x="129.2" y="65.6" transform="matrix(0.9999 -1.090603e-02 1.090603e-02 0.9999 -1.0807 1.4236)" width="1.5" height="68.4"/>
						</g>
						<g>
							<rect x="122.6" y="65.6" transform="matrix(1 -3.635535e-03 3.635535e-03 1 -0.362 0.449)" width="1.5" height="68.4"/>
						</g>
						<g>
							<rect x="82.5" y="99" transform="matrix(3.906220e-03 -1 1 3.906220e-03 16.4203 216.0773)" width="68.4" height="1.5"/>
						</g>
						<g>
							
								<rect x="75.8" y="99" transform="matrix(1.041610e-02 -0.9999 0.9999 1.041610e-02 9.0785 208.7663)" width="68.4" height="1.5"/>
						</g>
						<g>
							
								<rect x="69.2" y="99" transform="matrix(1.822614e-02 -0.9998 0.9998 1.822614e-02 1.6952 201.3192)" width="68.4" height="1.5"/>
						</g>
						<g>
							
								<rect x="62.5" y="99" transform="matrix(2.603284e-02 -0.9997 0.9997 2.603284e-02 -5.5774 193.8683)" width="68.4" height="1.5"/>
						</g>
						<g>
							
								<rect x="55.8" y="99" transform="matrix(3.255602e-02 -0.9995 0.9995 3.255602e-02 -12.6289 186.5458)" width="68.4" height="1.5"/>
						</g>
					</g>
				</g>
			</g>
			<g class="st7">
				<defs>
					<path id="SVGID_10_" class="st7" d="M152.2,144.7H87.8l-2.3,71.5h69L152.2,144.7z"/>
				</defs>
				<clipPath id="SVGID_11_">
					<use xlink:href="#SVGID_10_"  style="overflow:visible;"/>
				</clipPath>
				<g class="st9">
					<g>
						<g>
							<g>
								
									<rect x="151.9" y="144.6" transform="matrix(0.9995 -3.268744e-02 3.268744e-02 0.9995 -5.8149 5.0845)" width="1.5" height="71.5"/>
							</g>
							<g>
								
									<rect x="144.6" y="144.6" transform="matrix(0.9997 -2.541528e-02 2.541528e-02 0.9997 -4.5377 3.7526)" width="1.5" height="71.5"/>
							</g>
							<g>
								
									<rect x="137.4" y="144.6" transform="matrix(0.9998 -1.816640e-02 1.816640e-02 0.9998 -3.2542 2.5388)" width="1.5" height="71.5"/>
							</g>
							<g>
								
									<rect x="130.1" y="144.6" transform="matrix(0.9999 -1.090099e-02 1.090099e-02 0.9999 -1.9586 1.4373)" width="1.5" height="71.5"/>
							</g>
							<g>
								<rect x="122.9" y="144.6" transform="matrix(1 -3.633856e-03 3.633856e-03 1 -0.6547 0.4504)" width="1.5" height="71.5"/>
							</g>
							<g>
								
									<rect x="80.6" y="179.6" transform="matrix(3.906220e-03 -1 1 3.906220e-03 -64.4547 296.0684)" width="71.5" height="1.5"/>
							</g>
							<g>
								
									<rect x="73.4" y="179.6" transform="matrix(1.041610e-02 -0.9999 0.9999 1.041610e-02 -72.3712 287.6464)" width="71.5" height="1.5"/>
							</g>
							<g>
								
									<rect x="66.2" y="179.6" transform="matrix(1.822614e-02 -0.9998 0.9998 1.822614e-02 -80.3141 278.9839)" width="71.5" height="1.5"/>
							</g>
							<g>
								
									<rect x="58.9" y="179.6" transform="matrix(2.604131e-02 -0.9997 0.9997 2.604131e-02 -88.1333 270.3163)" width="71.5" height="1.5"/>
							</g>
							<g>
								
									<rect x="51.7" y="179.6" transform="matrix(3.255602e-02 -0.9995 0.9995 3.255602e-02 -95.7225 261.8842)" width="71.5" height="1.5"/>
							</g>
						</g>
					</g>
				</g>
			</g>
		</g>
	</g>
</g>
</svg>
