<svg id="ic_cooktop_off" xmlns="http://www.w3.org/2000/svg" width="80" height="80" viewBox="0 0 80 80">
    <defs>
        <style>
            .cls-2{fill:#8c8c8c}
        </style>
    </defs>
    <g id="Group_220" data-name="Group 220" transform="translate(-825 -150.78)">
        <path id="Rectangle_160" data-name="Rectangle 160" transform="translate(825 150.78)" style="fill:none" d="M0 0h80v80H0z"/>
    </g>
    <g id="Group_234" data-name="Group 234" transform="translate(-825 -150.78)">
        <g id="Group_221" data-name="Group 221">
            <path id="Path_91" data-name="Path 91" class="cls-2" d="M891.62 173.09v35.39h-53.24v-35.39h53.24m1-3h-55.25a2 2 0 0 0-2 2v37.4a2 2 0 0 0 2 2h55.25a2 2 0 0 0 2-2v-37.4a1.993 1.993 0 0 0-2-2z"/>
        </g>
        <g id="Group_233" data-name="Group 233">
            <g id="Group_228" data-name="Group 228">
                <g id="Group_224" data-name="Group 224">
                    <g id="Group_223" data-name="Group 223">
                        <g id="Group_222" data-name="Group 222">
                            <path id="Path_92" data-name="Path 92" class="cls-2" d="M849.78 178.88a3.7 3.7 0 1 1-3.7 3.7 3.7 3.7 0 0 1 3.7-3.7m0-3a6.7 6.7 0 1 0 6.7 6.7 6.7 6.7 0 0 0-6.7-6.7z"/>
                        </g>
                    </g>
                </g>
                <g id="Group_227" data-name="Group 227">
                    <g id="Group_226" data-name="Group 226">
                        <g id="Group_225" data-name="Group 225">
                            <path id="Path_93" data-name="Path 93" class="cls-2" d="M849.78 195.29a3.7 3.7 0 1 1-3.7 3.7 3.7 3.7 0 0 1 3.7-3.7m0-3a6.7 6.7 0 1 0 6.7 6.7 6.7 6.7 0 0 0-6.7-6.7z"/>
                        </g>
                    </g>
                </g>
            </g>
            <g id="Group_232" data-name="Group 232">
                <g id="Group_231" data-name="Group 231">
                    <g id="Group_230" data-name="Group 230">
                        <g id="Group_229" data-name="Group 229">
                            <path id="Path_94" data-name="Path 94" class="cls-2" d="M874.34 181.33a9.57 9.57 0 1 1-9.57 9.57 9.577 9.577 0 0 1 9.57-9.57m0-3a12.57 12.57 0 1 0 12.57 12.57 12.573 12.573 0 0 0-12.57-12.57z"/>
                        </g>
                    </g>
                </g>
                <path id="Line_75" data-name="Line 75" transform="translate(874.34 190.9)" style="stroke:#8c8c8c;stroke-miterlimit:10;stroke-width:3px;fill:none" d="M0 0h12.28"/>
            </g>
        </g>
    </g>
</svg>
