<?xml version="1.0" encoding="utf-8"?>
<!-- Generator: Adobe Illustrator 25.0.1, SVG Export Plug-In . SVG Version: 6.00 Build 0)  -->
<svg version="1.1" id="ic_x5F_device_x5F_list_x5F_cooktop"
	 xmlns="http://www.w3.org/2000/svg" xmlns:xlink="http://www.w3.org/1999/xlink" x="0px" y="0px" viewBox="0 0 240 240"
	 style="enable-background:new 0 0 240 240;" xml:space="preserve">
<style type="text/css">
	.st0{fill:url(#outside_1_);}
	.st1{fill:#353535;}
	.st2{opacity:0.25;}
	.st3{fill:url(#SVGID_1_);}
	.st4{fill:#565656;}
	.st5{fill:url(#fill_2_);}
	.st6{fill:url(#fill_3_);}
	.st7{fill:url(#fill_4_);}
	.st8{opacity:0.4;}
	.st9{fill:#FFFFFF;}
	.st10{opacity:0.15;fill:#FFFFFF;}
	.st11{opacity:0.4;fill:#FFFFFF;}
	.st12{fill:#727272;}
</style>
<g id="_x5F_default_40_">
	<g>
		<linearGradient id="outside_1_" gradientUnits="userSpaceOnUse" x1="120" y1="192" x2="120" y2="48">
			<stop  offset="0" style="stop-color:#9F9F9F"/>
			<stop  offset="0.5" style="stop-color:#CCCCCC"/>
			<stop  offset="1" style="stop-color:#9F9F9F"/>
		</linearGradient>
		<polygon id="outside_10_" class="st0" points="42,192 42,48 198,48 198,192 		"/>
		
			<rect id="outside_9_" x="51" y="45" transform="matrix(-1.836970e-16 1 -1 -1.836970e-16 240 2.842171e-14)" class="st1" width="138" height="150"/>
		<g id="outside_5_" class="st2">
			<linearGradient id="SVGID_1_" gradientUnits="userSpaceOnUse" x1="36.0283" y1="-8.6053" x2="115.1581" y2="112.5844">
				<stop  offset="0" style="stop-color:#FFFFFF;stop-opacity:0.7"/>
				<stop  offset="1" style="stop-color:#FFFFFF;stop-opacity:0"/>
			</linearGradient>
			<rect x="45" y="51" class="st3" width="150" height="138"/>
		</g>
		<path class="st4" d="M113,181L113,181c0,1.1,0.9,2,2,2h10c1.1,0,2-0.9,2-2l0,0c0-1.1-0.9-2-2-2h-10C113.9,179,113,179.9,113,181z"
			/>
		<linearGradient id="fill_2_" gradientUnits="userSpaceOnUse" x1="80" y1="104" x2="80" y2="68">
			<stop  offset="0" style="stop-color:#EB8C3E"/>
			<stop  offset="1" style="stop-color:#E74343"/>
		</linearGradient>
		<circle id="fill_14_" class="st5" cx="80" cy="86" r="18"/>
		<linearGradient id="fill_3_" gradientUnits="userSpaceOnUse" x1="80" y1="152" x2="80" y2="116">
			<stop  offset="0" style="stop-color:#EB8C3E"/>
			<stop  offset="1" style="stop-color:#E74343"/>
		</linearGradient>
		<circle id="fill_13_" class="st6" cx="80" cy="134" r="18"/>
		<linearGradient id="fill_4_" gradientUnits="userSpaceOnUse" x1="157" y1="143" x2="157" y2="77">
			<stop  offset="0" style="stop-color:#EB8C3E"/>
			<stop  offset="1" style="stop-color:#E74343"/>
		</linearGradient>
		<circle id="fill_1_" class="st7" cx="157" cy="110" r="33"/>
	</g>
	<g class="st8">
		<g>
			<polygon class="st9" points="183,109 158,109 158,84 156,84 156,109 131,109 131,111 156,111 156,136 158,136 158,111 183,111 
							"/>
		</g>
	</g>
	<rect x="54" y="109" class="st10" width="52" height="2"/>
	<rect x="79" y="128.5" transform="matrix(-1.836970e-16 1 -1 -1.836970e-16 214 54)" class="st11" width="2" height="11"/>
	<rect x="79" y="132" transform="matrix(-1.836970e-16 1 -1 -1.836970e-16 238 78)" class="st10" width="2" height="52"/>
	<rect x="79" y="36" transform="matrix(-1.836970e-16 1 -1 -1.836970e-16 142 -18)" class="st10" width="2" height="52"/>
	<rect x="79" y="80.5" transform="matrix(-1.836970e-16 1 -1 -1.836970e-16 166 6)" class="st11" width="2" height="11"/>
	<polygon class="st12" points="42,192 45,189 195,189 198,192 	"/>
	<polygon class="st12" points="42,48 45,51 195,51 198,48 	"/>
</g>
</svg>
