<?xml version="1.0" encoding="utf-8"?>
<!-- Generator: Adobe Illustrator 25.0.1, SVG Export Plug-In . SVG Version: 6.00 Build 0)  -->
<svg version="1.1" id="ic_x5F_device_x5F_list_x5F_dryer"
	 xmlns="http://www.w3.org/2000/svg" xmlns:xlink="http://www.w3.org/1999/xlink" x="0px" y="0px" viewBox="0 0 240 240"
	 style="enable-background:new 0 0 240 240;" xml:space="preserve">
<style type="text/css">
	.st0{fill:url(#SVGID_1_);}
	.st1{fill:#464646;}
	.st2{fill:url(#Ellipse_886_copy_2_);}
	.st3{fill:url(#SVGID_2_);}
	.st4{fill:url(#SVGID_3_);}
	.st5{fill:url(#SVGID_4_);}
	.st6{fill:url(#SVGID_5_);}
	.st7{opacity:0.15;fill:none;stroke:#000000;stroke-width:2;}
	.st8{fill:url(#SVGID_6_);}
	.st9{fill:url(#SVGID_7_);}
	.st10{fill:url(#SVGID_8_);}
	.st11{fill:#747474;}
	.st12{fill:#E1E4E5;}
	.st13{fill:#3D3D3D;}
	.st14{opacity:0.2;}
	.st15{opacity:0.2;fill:url(#SVGID_9_);}
	.st16{opacity:0.2;fill:url(#SVGID_10_);}
	.st17{opacity:0.25;}
	.st18{fill:url(#SVGID_11_);}
</style>
<g id="_x5F_default_27_">
	<linearGradient id="SVGID_1_" gradientUnits="userSpaceOnUse" x1="120" y1="206" x2="120" y2="34">
		<stop  offset="0" style="stop-color:#E6E6E6"/>
		<stop  offset="0.6" style="stop-color:#F1F1F1"/>
		<stop  offset="1" style="stop-color:#EAEAEA"/>
	</linearGradient>
	<path class="st0" d="M180,206H60c-1.1,0-2-0.9-2-2V36c0-1.1,0.9-2,2-2h120c1.1,0,2,0.9,2,2v168C182,205.1,181.1,206,180,206z"/>
	<g>
		<circle class="st1" cx="120" cy="118.4" r="54"/>
		
			<radialGradient id="Ellipse_886_copy_2_" cx="121.2414" cy="117.2933" r="41.4513" gradientTransform="matrix(0.9912 0 0 0.9912 -0.1758 2.1009)" gradientUnits="userSpaceOnUse">
			<stop  offset="0" style="stop-color:#4E4E4E"/>
			<stop  offset="0.5" style="stop-color:#565656"/>
			<stop  offset="1" style="stop-color:#414141"/>
		</radialGradient>
		<circle id="Ellipse_886_copy_1_" class="st2" cx="120" cy="118.4" r="41.1"/>
		<g>
			
				<radialGradient id="SVGID_2_" cx="121.2414" cy="58.0772" r="41.4513" gradientTransform="matrix(0.9912 0 0 0.9912 -0.1758 2.1009)" gradientUnits="userSpaceOnUse">
				<stop  offset="0" style="stop-color:#4E4E4E"/>
				<stop  offset="0.5" style="stop-color:#565656"/>
				<stop  offset="1" style="stop-color:#414141"/>
			</radialGradient>
			<ellipse class="st3" cx="120" cy="89" rx="28.7" ry="11.7"/>
		</g>
		<g>
			
				<radialGradient id="SVGID_3_" cx="45.3598" cy="415.9209" r="41.4513" gradientTransform="matrix(-0.4956 -0.8584 0.8584 -0.4956 -265.3836 392.7813)" gradientUnits="userSpaceOnUse">
				<stop  offset="0" style="stop-color:#4E4E4E"/>
				<stop  offset="0.5" style="stop-color:#565656"/>
				<stop  offset="1" style="stop-color:#414141"/>
			</radialGradient>
			<path class="st4" d="M80.2,108.1c-2.6,10-1.4,21.1,4.2,30.8c5.6,9.7,14.5,16.2,24.5,19c2.6-10,1.4-21.1-4.2-30.8
				C99.2,117.5,90.2,110.9,80.2,108.1z"/>
		</g>
		<g>
			
				<radialGradient id="SVGID_4_" cx="-226.6012" cy="171.2837" r="41.4513" gradientTransform="matrix(-0.4956 0.8584 -0.8584 -0.4956 205.5594 427.1178)" gradientUnits="userSpaceOnUse">
				<stop  offset="0" style="stop-color:#4E4E4E"/>
				<stop  offset="0.5" style="stop-color:#565656"/>
				<stop  offset="1" style="stop-color:#414141"/>
			</radialGradient>
			<path class="st5" d="M131,157.9c10-2.8,18.9-9.3,24.5-19s6.8-20.7,4.2-30.8c-10,2.8-18.9,9.3-24.5,19
				C129.7,136.9,128.5,147.9,131,157.9z"/>
		</g>
		
			<radialGradient id="SVGID_5_" cx="115.8168" cy="124.8466" r="13.6012" gradientTransform="matrix(1.0357 0 0 1.0357 0.6946 -9.4039)" gradientUnits="userSpaceOnUse">
			<stop  offset="0" style="stop-color:#535353"/>
			<stop  offset="0.5" style="stop-color:#575757"/>
			<stop  offset="1" style="stop-color:#4A4A4A"/>
		</radialGradient>
		<circle class="st6" cx="120.6" cy="119.9" r="14.1"/>
		<path class="st7" d="M58,66.3c0,0,11.9-0.5,23.1-2c11-1.4,25.5-4.8,39.9-4.8c13.9,0,27.8,3.3,38.4,4.8c10.9,1.5,22.5,2,22.5,2"/>
		<g>
			
				<linearGradient id="SVGID_6_" gradientUnits="userSpaceOnUse" x1="107.6355" y1="97.8579" x2="168.0771" y2="97.8579" gradientTransform="matrix(0.901 0 0 0.901 -1.9795 20.8948)">
				<stop  offset="0" style="stop-color:#5FCBF7"/>
				<stop  offset="1" style="stop-color:#448CF6"/>
			</linearGradient>
			<path class="st8" d="M149.5,112c0-16.7-13.5-30.2-30.2-30.2c-9.9,0-18.8,4.8-24.3,12.2c5-3.7,11.2-5.9,18-5.9
				c16.7,0,30.2,13.5,30.2,30.2c0,6.7-2.2,13-5.9,18C144.7,130.8,149.5,122,149.5,112z"/>
			
				<linearGradient id="SVGID_7_" gradientUnits="userSpaceOnUse" x1="-36.9496" y1="383.7401" x2="23.492" y2="383.7401" gradientTransform="matrix(-0.4505 -0.7803 0.7803 -0.4505 -192.2862 288.9897)">
				<stop  offset="0" style="stop-color:#5FCBF7"/>
				<stop  offset="1" style="stop-color:#448CF6"/>
			</linearGradient>
			<path class="st9" d="M99.1,96.3c-14.4,8.3-19.4,26.8-11.1,41.2c5,8.6,13.5,13.8,22.7,14.9c-5.7-2.5-10.8-6.8-14.1-12.6
				c-8.3-14.4-3.4-32.9,11.1-41.2c5.8-3.4,12.3-4.6,18.5-3.8C117.8,91.1,107.7,91.3,99.1,96.3z"/>
			
				<linearGradient id="SVGID_8_" gradientUnits="userSpaceOnUse" x1="-212.2383" y1="115.5846" x2="-151.7967" y2="115.5846" gradientTransform="matrix(-0.4505 0.7803 -0.7803 -0.4505 135.0442 319.7527)">
				<stop  offset="0" style="stop-color:#5FCBF7"/>
				<stop  offset="1" style="stop-color:#448CF6"/>
			</linearGradient>
			<path class="st10" d="M110.7,147.7c14.4,8.3,32.9,3.4,41.2-11.1c5-8.6,5.2-18.7,1.5-27.1c0.7,6.2-0.5,12.7-3.8,18.5
				c-8.3,14.4-26.8,19.4-41.2,11.1c-5.8-3.4-10.1-8.4-12.6-14.1C96.8,134.2,102.1,142.8,110.7,147.7z"/>
		</g>
	</g>
	<g>
		<circle class="st11" cx="120" cy="47" r="9"/>
		<circle id="Ellipse_887_copy_41_" class="st12" cx="120" cy="47" r="7"/>
		<g>
			<rect x="147" y="40" class="st13" width="30" height="15"/>
		</g>
	</g>
	<path class="st14" d="M89.2,58H65.6c-1.2,0-2.2-1-2.2-2.2v-4.5h28v4.5C91.4,57,90.4,58,89.2,58z"/>
	<linearGradient id="SVGID_9_" gradientUnits="userSpaceOnUse" x1="185.0722" y1="120" x2="128.6585" y2="120">
		<stop  offset="0" style="stop-color:#828282"/>
		<stop  offset="1" style="stop-color:#828282;stop-opacity:0"/>
	</linearGradient>
	<path class="st15" d="M180,34h-54.2v172H180c1.1,0,2-0.9,2-2V36C182,34.9,181.1,34,180,34z"/>
	
		<linearGradient id="SVGID_10_" gradientUnits="userSpaceOnUse" x1="-285.0645" y1="120" x2="-339.3094" y2="120" gradientTransform="matrix(-1 0 0 1 -228.1111 0)">
		<stop  offset="0" style="stop-color:#828282"/>
		<stop  offset="1" style="stop-color:#828282;stop-opacity:0"/>
	</linearGradient>
	<path class="st16" d="M60,34h54.2v172H60c-1.1,0-2-0.9-2-2V36C58,34.9,58.9,34,60,34z"/>
	<g class="st17">
		<radialGradient id="SVGID_11_" cx="84.2726" cy="79.7513" r="52.3446" gradientUnits="userSpaceOnUse">
			<stop  offset="0" style="stop-color:#FFFFFF"/>
			<stop  offset="1" style="stop-color:#FFFFFF;stop-opacity:0"/>
		</radialGradient>
		<circle class="st18" cx="120" cy="118.4" r="54"/>
	</g>
</g>
</svg>
