<svg id="ic_dryer_on" xmlns="http://www.w3.org/2000/svg" width="80" height="80" viewBox="0 0 80 80">
    <defs>
        <linearGradient id="linear-gradient" x1=".5" y1="1" x2=".5" gradientUnits="objectBoundingBox">
            <stop offset="0" stop-color="#d9a898"/>
            <stop offset="1" stop-color="#d1774e"/>
        </linearGradient>
        <style>
            .cls-3{fill:none}.cls-2{fill:#404040}.cls-3{stroke:#404040;stroke-miterlimit:10;stroke-width:3px}
        </style>
    </defs>
    <g id="Group_205" data-name="Group 205" transform="translate(-485 -540)">
        <g id="Group_198" data-name="Group 198">
            <path id="Rectangle_158" data-name="Rectangle 158" transform="translate(485 540)" style="fill:none" d="M0 0h80v80H0z"/>
        </g>
        <g id="Group_204" data-name="Group 204">
            <g id="Group_203" data-name="Group 203">
                <g id="Group_201" data-name="Group 201">
                    <g id="Group_200" data-name="Group 200">
                        <g id="Group_199" data-name="Group 199">
                            <path id="Path_88" data-name="Path 88" class="cls-2" d="M544.97 551.92v56.17h-39.95v-56.17h39.95m1-3h-41.95a2.006 2.006 0 0 0-2 2v58.17a2.006 2.006 0 0 0 2 2h41.95a2.006 2.006 0 0 0 2-2v-58.17a1.993 1.993 0 0 0-2-2z"/>
                        </g>
                        <path id="Line_73" data-name="Line 73" class="cls-3" transform="translate(502.03 562.34)" d="M0 0h45.94"/>
                        <path id="Line_87" data-name="Line 87" class="cls-3" transform="translate(502.03 603.34)" d="M0 0h45.94"/>
                        <path id="Line_74" data-name="Line 74" class="cls-3" transform="translate(530.18 556.38)" d="M0 0h11.92"/>
                    </g>
                </g>
                <g id="Group_202" data-name="Group 202">
                    <circle id="Ellipse_25" data-name="Ellipse 25" class="cls-2" cx="2" cy="2" r="2" transform="translate(523 554.32)"/>
                </g>
            </g>
            <circle id="Ellipse_26" data-name="Ellipse 26" cx="15.61" cy="15.61" r="15.61" transform="translate(509.39 567.74)" style="fill:url(#linear-gradient)"/>
        </g>
    </g>
</svg>
