<?xml version="1.0" encoding="utf-8"?>
<!-- Generator: Adobe Illustrator 25.0.1, SVG Export Plug-In . SVG Version: 6.00 Build 0)  -->
<svg version="1.1" id="ic_x5F_device_x5F_list_x5F_dish_x5F_washer_x5F_default"
	 xmlns="http://www.w3.org/2000/svg" xmlns:xlink="http://www.w3.org/1999/xlink" x="0px" y="0px" viewBox="0 0 240 240"
	 style="enable-background:new 0 0 240 240;" xml:space="preserve">
<style type="text/css">
	.st0{fill:#E5E5E5;}
	.st1{fill:url(#SVGID_1_);}
	.st2{fill:url(#SVGID_2_);}
	.st3{opacity:0.2;fill:url(#SVGID_3_);}
	.st4{opacity:0.2;fill:url(#SVGID_4_);}
	.st5{fill:url(#SVGID_5_);}
	.st6{fill:url(#SVGID_6_);}
	.st7{opacity:0.9;}
	.st8{fill:#5B88B0;}
	.st9{fill:#FFFFFF;}
</style>
<g id="icon_x2F_drum_x5F_washer_x5F_off_4_">
	<path class="st0" d="M176,208H64c-4.4,0-8-3.6-8-8V40c0-4.4,3.6-8,8-8h112c4.4,0,8,3.6,8,8v160C184,204.4,180.4,208,176,208z"/>
</g>
<linearGradient id="SVGID_1_" gradientUnits="userSpaceOnUse" x1="120" y1="182" x2="120" y2="59.5">
	<stop  offset="0" style="stop-color:#C5C5C5"/>
	<stop  offset="1" style="stop-color:#E4E4E4"/>
</linearGradient>
<rect x="56" y="59.5" class="st1" width="128" height="122.5"/>
<linearGradient id="SVGID_2_" gradientUnits="userSpaceOnUse" x1="120" y1="182" x2="120" y2="208">
	<stop  offset="0.1" style="stop-color:#9F9F9F"/>
	<stop  offset="0.9" style="stop-color:#D2D2D2"/>
</linearGradient>
<path class="st2" d="M176,208H64c-4.4,0-8-3.6-8-8v-18h128v18C184,204.4,180.4,208,176,208z"/>
<linearGradient id="SVGID_3_" gradientUnits="userSpaceOnUse" x1="195.7039" y1="120" x2="128.1872" y2="120">
	<stop  offset="0" style="stop-color:#B6B6B6"/>
	<stop  offset="3.622764e-02" style="stop-color:#B3B3B3;stop-opacity:0.9638"/>
	<stop  offset="0.4115" style="stop-color:#989898;stop-opacity:0.5885"/>
	<stop  offset="0.7449" style="stop-color:#888888;stop-opacity:0.2551"/>
	<stop  offset="1" style="stop-color:#828282;stop-opacity:0"/>
</linearGradient>
<path class="st3" d="M176,32h-53v176h53c4.4,0,8-3.6,8-8V40C184,35.6,180.4,32,176,32z"/>
<linearGradient id="SVGID_4_" gradientUnits="userSpaceOnUse" x1="253.5356" y1="120" x2="186.0189" y2="120" gradientTransform="matrix(-1 0 0 1 297.8317 0)">
	<stop  offset="0" style="stop-color:#B6B6B6"/>
	<stop  offset="3.622764e-02" style="stop-color:#B3B3B3;stop-opacity:0.9638"/>
	<stop  offset="0.4115" style="stop-color:#989898;stop-opacity:0.5885"/>
	<stop  offset="0.7449" style="stop-color:#888888;stop-opacity:0.2551"/>
	<stop  offset="1" style="stop-color:#828282;stop-opacity:0"/>
</linearGradient>
<path class="st4" d="M64,32h53v176H64c-4.4,0-8-3.6-8-8V40C56,35.6,59.6,32,64,32z"/>
<linearGradient id="SVGID_5_" gradientUnits="userSpaceOnUse" x1="120" y1="48.5" x2="120" y2="59.5">
	<stop  offset="0" style="stop-color:#9F9F9F"/>
	<stop  offset="0.2454" style="stop-color:#BCBCBC"/>
	<stop  offset="0.7" style="stop-color:#FAFAFA"/>
</linearGradient>
<rect x="56" y="48.5" class="st5" width="128" height="11"/>
<g>
	<linearGradient id="SVGID_6_" gradientUnits="userSpaceOnUse" x1="120" y1="66.5" x2="120" y2="174.5">
		<stop  offset="0" style="stop-color:#448CF6"/>
		<stop  offset="1" style="stop-color:#5FCBF7"/>
	</linearGradient>
	<path class="st6" d="M168,174.5H72c-3.3,0-6-2.7-6-6v-96c0-3.3,2.7-6,6-6h96c3.3,0,6,2.7,6,6v96C174,171.8,171.3,174.5,168,174.5z"
		/>
	<g class="st7">
		<circle class="st8" cx="98" cy="137" r="23.9"/>
		<g>
			<g>
				<path class="st8" d="M120,113.1c-1.8,0-3.6,0.2-5.3,0.6c7.3,5.2,12,13.7,12,23.3s-4.7,18.1-12,23.3c1.7,0.4,3.5,0.6,5.3,0.6
					c13.2,0,23.9-10.7,23.9-23.9S133.2,113.1,120,113.1z"/>
			</g>
		</g>
		<g>
			<g>
				<path class="st8" d="M142,113.1c-1.8,0-3.6,0.2-5.3,0.6c7.3,5.2,12,13.7,12,23.3s-4.7,18.1-12,23.3c1.7,0.4,3.5,0.6,5.3,0.6
					c13.2,0,23.9-10.7,23.9-23.9S155.2,113.1,142,113.1z"/>
			</g>
		</g>
		<path class="st8" d="M136.7,101.4l6.7-1.3c0.8-0.2,0.8-1.3,0-1.5l-6.7-1.3c-1.1-0.2-2-1.1-2.2-2.2l-1.3-6.7
			c-0.2-0.8-1.3-0.8-1.5,0l-1.3,6.7c-0.2,1.1-1.1,2-2.2,2.2l-6.7,1.3c-0.8,0.2-0.8,1.3,0,1.5l6.7,1.3c1.1,0.2,2,1.1,2.2,2.2l1.3,6.7
			c0.2,0.8,1.3,0.8,1.5,0l1.3-6.7C134.8,102.5,135.6,101.7,136.7,101.4z"/>
		<path class="st8" d="M146,86.3l4.7-1c0.6-0.1,0.6-0.9,0-1l-4.7-1c-0.8-0.2-1.4-0.8-1.6-1.6l-1-4.7c-0.1-0.6-0.9-0.6-1,0l-1,4.7
			c-0.2,0.8-0.8,1.4-1.6,1.6l-4.7,1c-0.6,0.1-0.6,0.9,0,1l4.7,1c0.8,0.2,1.4,0.8,1.6,1.6l1,4.7c0.1,0.6,0.9,0.6,1,0l1-4.7
			C144.6,87.1,145.2,86.5,146,86.3z"/>
		<circle class="st9" cx="98" cy="137" r="23.9"/>
		<g>
			<g>
				<path class="st9" d="M120,113.1c-1.8,0-3.6,0.2-5.3,0.6c7.3,5.2,12,13.7,12,23.3s-4.7,18.1-12,23.3c1.7,0.4,3.5,0.6,5.3,0.6
					c13.2,0,23.9-10.7,23.9-23.9S133.2,113.1,120,113.1z"/>
			</g>
		</g>
		<g>
			<g>
				<path class="st9" d="M142,113.1c-1.8,0-3.6,0.2-5.3,0.6c7.3,5.2,12,13.7,12,23.3s-4.7,18.1-12,23.3c1.7,0.4,3.5,0.6,5.3,0.6
					c13.2,0,23.9-10.7,23.9-23.9S155.2,113.1,142,113.1z"/>
			</g>
		</g>
		<path class="st9" d="M136.7,101.4l6.7-1.3c0.8-0.2,0.8-1.3,0-1.5l-6.7-1.3c-1.1-0.2-2-1.1-2.2-2.2l-1.3-6.7
			c-0.2-0.8-1.3-0.8-1.5,0l-1.3,6.7c-0.2,1.1-1.1,2-2.2,2.2l-6.7,1.3c-0.8,0.2-0.8,1.3,0,1.5l6.7,1.3c1.1,0.2,2,1.1,2.2,2.2l1.3,6.7
			c0.2,0.8,1.3,0.8,1.5,0l1.3-6.7C134.8,102.5,135.6,101.7,136.7,101.4z"/>
		<path class="st9" d="M146,86.3l4.7-1c0.6-0.1,0.6-0.9,0-1l-4.7-1c-0.8-0.2-1.4-0.8-1.6-1.6l-1-4.7c-0.1-0.6-0.9-0.6-1,0l-1,4.7
			c-0.2,0.8-0.8,1.4-1.6,1.6l-4.7,1c-0.6,0.1-0.6,0.9,0,1l4.7,1c0.8,0.2,1.4,0.8,1.6,1.6l1,4.7c0.1,0.6,0.9,0.6,1,0l1-4.7
			C144.6,87.1,145.2,86.5,146,86.3z"/>
	</g>
</g>
</svg>
