<svg id="ic_kimchi_refrigerator_on" xmlns="http://www.w3.org/2000/svg" width="80" height="80" viewBox="0 0 80 80">
    <defs>
        <linearGradient id="linear-gradient" x1=".5" y1="1" x2=".5" gradientUnits="objectBoundingBox">
            <stop offset="0" stop-color="#87a0be"/>
            <stop offset="1" stop-color="#4182b4"/>
        </linearGradient>
        <style>
            .cls-4{fill:none;stroke:#404040;stroke-miterlimit:10;stroke-width:3px}
        </style>
    </defs>
    <g id="Group_114" data-name="Group 114" transform="translate(-485 -146.97)">
        <path id="Rectangle_148" data-name="Rectangle 148" transform="translate(485 146.97)" style="fill:none" d="M0 0h80v80H0z"/>
    </g>
    <g id="Group_118" data-name="Group 118" transform="translate(-485 -146.97)">
        <g id="Group_115" data-name="Group 115">
            <path id="Path_69" data-name="Path 69" d="M520.98 176.58h-8.97a.3.3 0 0 1-.3-.3v-17.15a.3.3 0 0 1 .3-.3h8.97a.3.3 0 0 1 .3.3v17.15a.3.3 0 0 1-.3.3z" style="fill:url(#linear-gradient)"/>
        </g>
        <g id="Group_117" data-name="Group 117">
            <g id="Group_116" data-name="Group 116">
                <path id="Path_70" data-name="Path 70" d="M542.75 156.69v60.56h-35.5v-60.56h35.5m1-3h-37.5a2.006 2.006 0 0 0-2 2v62.55a2.006 2.006 0 0 0 2 2h37.5a2.006 2.006 0 0 0 2-2v-62.55a2.006 2.006 0 0 0-2-2z" style="fill:#404040"/>
            </g>
            <path id="Line_49" data-name="Line 49" class="cls-4" transform="translate(525 153.69)" d="M0 0v37.07"/>
            <path id="Line_50" data-name="Line 50" class="cls-4" transform="translate(504.25 189.26)" d="M0 0h41.5"/>
            <path id="Line_51" data-name="Line 51" class="cls-4" transform="translate(504.25 203.99)" d="M0 0h41.5"/>
            <path id="Line_52" data-name="Line 52" class="cls-4" transform="translate(509.46 209.17)" d="M0 0h31.08"/>
            <path id="Line_53" data-name="Line 53" class="cls-4" transform="translate(509.46 194.39)" d="M0 0h31.08"/>
        </g>
    </g>
</svg>
