<?xml version="1.0" encoding="utf-8"?>
<!-- Generator: Adobe Illustrator 25.3.0, SVG Export Plug-In . SVG Version: 6.00 Build 0)  -->
<svg version="1.1" id="ic_x5F_device_x5F_list_x5F_kimchi_x5F_refrigerator_x5F_off"
	 xmlns="http://www.w3.org/2000/svg" xmlns:xlink="http://www.w3.org/1999/xlink" x="0px" y="0px" viewBox="0 0 240 240"
	 style="enable-background:new 0 0 240 240;" xml:space="preserve">
<style type="text/css">
	.st0{fill-rule:evenodd;clip-rule:evenodd;fill:#515151;}
	.st1{fill:url(#SVGID_1_);}
	.st2{fill:url(#SVGID_2_);}
	.st3{fill:url(#SVGID_3_);}
	.st4{fill:url(#SVGID_4_);}
	.st5{fill:url(#SVGID_5_);}
	.st6{opacity:0.35;fill:url(#SVGID_6_);}
	.st7{opacity:0.35;fill:url(#SVGID_7_);}
	.st8{opacity:0.35;fill:url(#SVGID_8_);}
	.st9{opacity:0.35;fill:url(#SVGID_9_);}
	.st10{opacity:0.35;fill:url(#SVGID_10_);}
	.st11{opacity:0.35;fill:url(#SVGID_11_);}
	.st12{fill:#515151;}
</style>
<g id="_x5F_off_23_">
	<g>
		<path id="Rectangle_817_copy_11_" class="st0" d="M74,172h92l2,3H72L74,172z"/>
		<linearGradient id="SVGID_1_" gradientUnits="userSpaceOnUse" x1="120" y1="179" x2="120" y2="175">
			<stop  offset="0" style="stop-color:#595C5F"/>
			<stop  offset="1" style="stop-color:#7A7D80"/>
		</linearGradient>
		<rect x="72" y="175" class="st1" width="96" height="4"/>
		<linearGradient id="SVGID_2_" gradientUnits="userSpaceOnUse" x1="120" y1="202.8919" x2="120" y2="23">
			<stop  offset="0" style="stop-color:#CCCCCC"/>
			<stop  offset="0.6" style="stop-color:#EEEEEE"/>
			<stop  offset="1" style="stop-color:#DDDDDD"/>
		</linearGradient>
		<path class="st2" d="M166,23H74c-1.1,0-2,0.9-2,2v102h96V25C168,23.9,167.1,23,166,23z"/>
		<linearGradient id="SVGID_3_" gradientUnits="userSpaceOnUse" x1="120" y1="217" x2="120" y2="124.6456">
			<stop  offset="0" style="stop-color:#CCCCCC"/>
			<stop  offset="0.6" style="stop-color:#EEEEEE"/>
			<stop  offset="1" style="stop-color:#DDDDDD"/>
		</linearGradient>
		<path class="st3" d="M72,179v36c0,1.1,0.9,2,2,2h92c1.1,0,2-0.9,2-2v-36H72z"/>
		<path id="Rectangle_817_copy_4_" class="st0" d="M74,127h92l2,3H72L74,127z"/>
		<linearGradient id="SVGID_4_" gradientUnits="userSpaceOnUse" x1="120" y1="134" x2="120" y2="130">
			<stop  offset="0" style="stop-color:#595C5F"/>
			<stop  offset="1" style="stop-color:#7A7D80"/>
		</linearGradient>
		<rect x="72" y="130" class="st4" width="96" height="4"/>
		<linearGradient id="SVGID_5_" gradientUnits="userSpaceOnUse" x1="120" y1="172" x2="120" y2="79.6456">
			<stop  offset="0" style="stop-color:#CCCCCC"/>
			<stop  offset="0.6" style="stop-color:#EEEEEE"/>
			<stop  offset="1" style="stop-color:#DDDDDD"/>
		</linearGradient>
		<rect x="72" y="134" class="st5" width="96" height="38"/>
	</g>
	<g>
		<linearGradient id="SVGID_6_" gradientUnits="userSpaceOnUse" x1="174.9469" y1="75" x2="132.9919" y2="75">
			<stop  offset="0" style="stop-color:#828282"/>
			<stop  offset="1" style="stop-color:#828282;stop-opacity:0"/>
		</linearGradient>
		<path class="st6" d="M168,25c0-1.1-0.9-2-2-2h-40.5v104H168V25z"/>
		<linearGradient id="SVGID_7_" gradientUnits="userSpaceOnUse" x1="174.9469" y1="198" x2="132.9919" y2="198">
			<stop  offset="0" style="stop-color:#828282"/>
			<stop  offset="1" style="stop-color:#828282;stop-opacity:0"/>
		</linearGradient>
		<path class="st7" d="M168,215v-36h-42.5v38H166C167.1,217,168,216.1,168,215z"/>
		<linearGradient id="SVGID_8_" gradientUnits="userSpaceOnUse" x1="174.9469" y1="153" x2="132.9919" y2="153">
			<stop  offset="0" style="stop-color:#828282"/>
			<stop  offset="1" style="stop-color:#828282;stop-opacity:0"/>
		</linearGradient>
		<rect x="125.5" y="134" class="st8" width="42.5" height="38"/>
	</g>
	<g>
		
			<linearGradient id="SVGID_9_" gradientUnits="userSpaceOnUse" x1="-283.7263" y1="75" x2="-325.6813" y2="75" gradientTransform="matrix(-1 0 0 1 -218.6732 0)">
			<stop  offset="0" style="stop-color:#828282"/>
			<stop  offset="1" style="stop-color:#828282;stop-opacity:0"/>
		</linearGradient>
		<path class="st9" d="M72,25c0-1.1,0.9-2,2-2h40.5v104H72V25z"/>
		
			<linearGradient id="SVGID_10_" gradientUnits="userSpaceOnUse" x1="-283.7263" y1="198" x2="-325.6813" y2="198" gradientTransform="matrix(-1 0 0 1 -218.6732 0)">
			<stop  offset="0" style="stop-color:#828282"/>
			<stop  offset="1" style="stop-color:#828282;stop-opacity:0"/>
		</linearGradient>
		<path class="st10" d="M72,215v-36h42.5v38H74C72.9,217,72,216.1,72,215z"/>
		
			<linearGradient id="SVGID_11_" gradientUnits="userSpaceOnUse" x1="-283.7263" y1="153" x2="-325.6813" y2="153" gradientTransform="matrix(-1 0 0 1 -218.6732 0)">
			<stop  offset="0" style="stop-color:#828282"/>
			<stop  offset="1" style="stop-color:#828282;stop-opacity:0"/>
		</linearGradient>
		<rect x="72" y="134" class="st11" width="42.5" height="38"/>
	</g>
	<rect x="119" y="23" class="st12" width="2" height="104"/>
</g>
</svg>
