<?xml version="1.0" encoding="utf-8"?>
<!-- Generator: Adobe Illustrator 25.0.1, SVG Export Plug-In . SVG Version: 6.00 Build 0)  -->
<svg version="1.1" id="ic_x5F_device_x5F_list_x5F_lightwave_x5F_oven"
	 xmlns="http://www.w3.org/2000/svg" xmlns:xlink="http://www.w3.org/1999/xlink" x="0px" y="0px" viewBox="0 0 240 240"
	 style="enable-background:new 0 0 240 240;" xml:space="preserve">
<style type="text/css">
	.st0{fill:url(#SVGID_1_);}
	.st1{fill:url(#SVGID_2_);}
	.st2{fill:#747474;}
	.st3{fill:#E6E6E6;}
	.st4{fill:#474747;}
	.st5{fill:#C1C1C1;}
	.st6{fill:url(#SVGID_3_);}
	.st7{fill:#434343;}
	.st8{fill:none;stroke:#B72F25;stroke-width:4;stroke-linecap:round;stroke-miterlimit:10;}
	.st9{opacity:0.35;fill:url(#SVGID_4_);}
	.st10{opacity:0.35;fill:url(#SVGID_5_);}
</style>
<g id="_x5F_default_37_">
	
		<linearGradient id="SVGID_1_" gradientUnits="userSpaceOnUse" x1="-113" y1="120" x2="-223" y2="120" gradientTransform="matrix(0 1 -1 0 240 280)">
		<stop  offset="0" style="stop-color:#D8D8D8"/>
		<stop  offset="0.6" style="stop-color:#EEEEEE"/>
		<stop  offset="1" style="stop-color:#DDDDDD"/>
	</linearGradient>
	<path class="st0" d="M33,165V59c0-1.1,0.9-2,2-2h170c1.1,0,2,0.9,2,2v106c0,1.1-0.9,2-2,2H35C33.9,167,33,166.1,33,165z"/>
	<linearGradient id="SVGID_2_" gradientUnits="userSpaceOnUse" x1="120" y1="145" x2="120" y2="96">
		<stop  offset="0" style="stop-color:#EB8C3E"/>
		<stop  offset="1" style="stop-color:#E74343"/>
	</linearGradient>
	<path class="st1" d="M56,143V98c0-1.1,0.9-2,2-2h124c1.1,0,2,0.9,2,2v45c0,1.1-0.9,2-2,2H58C56.9,145,56,144.1,56,143z"/>
	<g>
		<circle class="st2" cx="158.5" cy="69.5" r="7.5"/>
		<circle id="Ellipse_887_copy_64_" class="st3" cx="158.5" cy="69.5" r="5.6"/>
	</g>
	<g>
		<rect x="95" y="62" class="st4" width="51" height="15"/>
	</g>
	<path class="st5" d="M199,82H41c-2.2,0-4,1.8-4,4v4h18l3-4h124l3,4h18v-4C203,83.8,201.2,82,199,82z"/>
	<linearGradient id="SVGID_3_" gradientUnits="userSpaceOnUse" x1="120" y1="182" x2="120" y2="174">
		<stop  offset="0" style="stop-color:#575757"/>
		<stop  offset="1" style="stop-color:#747474"/>
	</linearGradient>
	<rect x="33" y="174" class="st6" width="174" height="8"/>
	<rect x="35" y="167" class="st7" width="170" height="7"/>
	<g>
		<g>
			<g>
				<g>
					<path class="st8" d="M94.6,108c0,0-3.8,2.9-3.8,7c0,4.5,4.3,4.4,4.3,9.8c0,4.6-2.2,6.7-4.4,8.3"/>
				</g>
			</g>
		</g>
		<g>
			<g>
				<g>
					<path class="st8" d="M112.6,108c0,0-3.8,2.9-3.8,7c0,4.5,4.3,4.4,4.3,9.8c0,4.6-2.2,6.7-4.4,8.3"/>
				</g>
			</g>
		</g>
		<g>
			<g>
				<g>
					<path class="st8" d="M130.7,108c0,0-3.8,2.9-3.8,7c0,4.5,4.3,4.4,4.3,9.8c0,4.6-2.2,6.7-4.4,8.3"/>
				</g>
			</g>
		</g>
		<g>
			<g>
				<g>
					<path class="st8" d="M148.7,108c0,0-3.8,2.9-3.8,7c0,4.5,4.3,4.4,4.3,9.8c0,4.6-2.2,6.7-4.4,8.3"/>
				</g>
			</g>
		</g>
	</g>
	<linearGradient id="SVGID_4_" gradientUnits="userSpaceOnUse" x1="242.887" y1="112" x2="159.0123" y2="112">
		<stop  offset="0" style="stop-color:#828282"/>
		<stop  offset="1" style="stop-color:#828282;stop-opacity:0"/>
	</linearGradient>
	<path class="st9" d="M205,57h-46.3v110H205c1.1,0,2-0.9,2-2V59C207,57.9,206.1,57,205,57z"/>
	
		<linearGradient id="SVGID_5_" gradientUnits="userSpaceOnUse" x1="-250.4873" y1="112" x2="-334.362" y2="112" gradientTransform="matrix(-1 0 0 1 -253.3744 0)">
		<stop  offset="0" style="stop-color:#828282"/>
		<stop  offset="1" style="stop-color:#828282;stop-opacity:0"/>
	</linearGradient>
	<path class="st10" d="M35,57h46.3v110H35c-1.1,0-2-0.9-2-2V59C33,57.9,33.9,57,35,57z"/>
</g>
</svg>
