<?xml version="1.0" encoding="utf-8"?>
<!-- Generator: Adobe Illustrator 25.0.1, SVG Export Plug-In . SVG Version: 6.00 Build 0)  -->
<svg version="1.1" id="ic_x5F_device_x5F_list_x5F_refrigerator"
	 xmlns="http://www.w3.org/2000/svg" xmlns:xlink="http://www.w3.org/1999/xlink" x="0px" y="0px" viewBox="0 0 240 240"
	 style="enable-background:new 0 0 240 240;" xml:space="preserve">
<style type="text/css">
	.st0{fill:url(#SVGID_1_);}
	.st1{fill-rule:evenodd;clip-rule:evenodd;fill:#444444;}
	.st2{fill:url(#SVGID_2_);}
	.st3{fill:url(#SVGID_3_);}
	.st4{fill:url(#SVGID_4_);}
	.st5{fill:url(#SVGID_5_);}
	.st6{opacity:0.35;fill:url(#SVGID_6_);}
	.st7{opacity:0.35;fill:url(#SVGID_7_);}
	.st8{opacity:0.35;fill:url(#SVGID_8_);}
	.st9{fill:url(#SVGID_9_);}
	.st10{opacity:0.6;fill:url(#SVGID_10_);}
	.st11{opacity:0.4;fill:url(#SVGID_11_);}
	.st12{opacity:0.3;fill:url(#SVGID_12_);}
	.st13{opacity:0.15;fill:url(#SVGID_13_);}
	.st14{fill:#444444;}
</style>
<g id="_x5F_default_29_">
	<radialGradient id="SVGID_1_" cx="120" cy="120" r="104" gradientUnits="userSpaceOnUse">
		<stop  offset="0.342" style="stop-color:#448CF6"/>
		<stop  offset="0.6176" style="stop-color:#53AEF7;stop-opacity:0.5812"/>
		<stop  offset="0.849" style="stop-color:#5CC3F7;stop-opacity:0.2295"/>
		<stop  offset="1" style="stop-color:#5FCBF7;stop-opacity:0"/>
	</radialGradient>
	<path class="st0" d="M120,224c-57.4,0-104-46.6-104-104S62.6,16,120,16s104,46.6,104,104S177.4,224,120,224"/>
	<path id="Rectangle_817_copy_5_" class="st1" d="M69,129h102l2,3H67L69,129z"/>
	<linearGradient id="SVGID_2_" gradientUnits="userSpaceOnUse" x1="120" y1="136" x2="120" y2="132">
		<stop  offset="0" style="stop-color:#595C5F"/>
		<stop  offset="1" style="stop-color:#7A7D80"/>
	</linearGradient>
	<rect x="67" y="132" class="st2" width="106" height="4"/>
	<linearGradient id="SVGID_3_" gradientUnits="userSpaceOnUse" x1="147" y1="204.8919" x2="147" y2="25">
		<stop  offset="0" style="stop-color:#4D4D4D"/>
		<stop  offset="0.6" style="stop-color:#2F2F2F"/>
		<stop  offset="1" style="stop-color:#4C4C4C"/>
	</linearGradient>
	<path class="st3" d="M173,129V27c0-1.1-0.9-2-2-2h-50v104H173z"/>
	<linearGradient id="SVGID_4_" gradientUnits="userSpaceOnUse" x1="93" y1="204.8919" x2="93" y2="25">
		<stop  offset="0" style="stop-color:#CCCCCC"/>
		<stop  offset="0.6" style="stop-color:#EEEEEE"/>
		<stop  offset="1" style="stop-color:#DDDDDD"/>
	</linearGradient>
	<path class="st4" d="M119,25H69c-1.1,0-2,0.9-2,2v102h52V25z"/>
	<linearGradient id="SVGID_5_" gradientUnits="userSpaceOnUse" x1="120" y1="216" x2="120" y2="21.5696">
		<stop  offset="0" style="stop-color:#CCCCCC"/>
		<stop  offset="0.6" style="stop-color:#EEEEEE"/>
		<stop  offset="1" style="stop-color:#DDDDDD"/>
	</linearGradient>
	<path class="st5" d="M67,136v78c0,1.1,0.9,2,2,2h102c1.1,0,2-0.9,2-2v-78H67z"/>
	<linearGradient id="SVGID_6_" gradientUnits="userSpaceOnUse" x1="185.1365" y1="176" x2="146.6896" y2="176">
		<stop  offset="0" style="stop-color:#828282"/>
		<stop  offset="1" style="stop-color:#828282;stop-opacity:0"/>
	</linearGradient>
	<path class="st6" d="M132.8,216H171c1.1,0,2-0.9,2-2v-78h-40.2V216z"/>
	
		<linearGradient id="SVGID_7_" gradientUnits="userSpaceOnUse" x1="-306.8726" y1="77" x2="-345.3195" y2="77" gradientTransform="matrix(-1 0 0 1 -252.0091 0)">
		<stop  offset="0" style="stop-color:#828282"/>
		<stop  offset="1" style="stop-color:#828282;stop-opacity:0"/>
	</linearGradient>
	<path class="st7" d="M67,129V27c0-1.1,0.9-2,2-2h38.2v104H67z"/>
	
		<linearGradient id="SVGID_8_" gradientUnits="userSpaceOnUse" x1="-306.8726" y1="176" x2="-345.3195" y2="176" gradientTransform="matrix(-1 0 0 1 -252.0091 0)">
		<stop  offset="0" style="stop-color:#828282"/>
		<stop  offset="1" style="stop-color:#828282;stop-opacity:0"/>
	</linearGradient>
	<path class="st8" d="M107.2,216H69c-1.1,0-2-0.9-2-2v-78h40.2V216z"/>
	<linearGradient id="SVGID_9_" gradientUnits="userSpaceOnUse" x1="146.5" y1="115" x2="146.5" y2="40">
		<stop  offset="0" style="stop-color:#5FCBF7"/>
		<stop  offset="1" style="stop-color:#448CF6"/>
	</linearGradient>
	<rect x="130" y="40" class="st9" width="33" height="75"/>
	<g>
		<g>
			<linearGradient id="SVGID_10_" gradientUnits="userSpaceOnUse" x1="146.5" y1="70.9643" x2="146.5" y2="40">
				<stop  offset="0" style="stop-color:#FFFFFF"/>
				<stop  offset="1" style="stop-color:#FFFFFF;stop-opacity:0.3"/>
			</linearGradient>
			<path class="st10" d="M163,67.4V40h-33v31c6-1.6,12.4-2.8,19.1-3.7C153.7,66.7,158.4,66.8,163,67.4z"/>
			<linearGradient id="SVGID_11_" gradientUnits="userSpaceOnUse" x1="146.5" y1="94.8077" x2="146.5" y2="66.8803">
				<stop  offset="0" style="stop-color:#FFFFFF"/>
				<stop  offset="1" style="stop-color:#FFFFFF;stop-opacity:0.3"/>
			</linearGradient>
			<path class="st11" d="M161,94.6c0.7,0,1.3,0.1,2,0.2V67.4c-4.6-0.6-9.3-0.7-13.9-0.1c-6.7,0.8-13.1,2.1-19.1,3.7v15.7
				C138.6,88.1,142.1,93.9,161,94.6z"/>
			<linearGradient id="SVGID_12_" gradientUnits="userSpaceOnUse" x1="146.5" y1="106.0845" x2="146.5" y2="86.7115">
				<stop  offset="0" style="stop-color:#FFFFFF"/>
				<stop  offset="1" style="stop-color:#FFFFFF;stop-opacity:0.3"/>
			</linearGradient>
			<path class="st12" d="M163,101.6v-6.8c-0.6-0.1-1.3-0.2-2-0.2c-18.9-0.7-22.4-6.5-31-7.9v18c1.2,0,2.5,0.3,3.9,0.7
				C142,107.9,152.1,103,163,101.6z"/>
			<linearGradient id="SVGID_13_" gradientUnits="userSpaceOnUse" x1="146.5" y1="115" x2="146.5" y2="101.6494">
				<stop  offset="0" style="stop-color:#FFFFFF"/>
				<stop  offset="1" style="stop-color:#FFFFFF;stop-opacity:0.3"/>
			</linearGradient>
			<path class="st13" d="M130,115h33v-13.4c-10.9,1.4-21,6.2-29.1,3.8c-1.4-0.4-2.6-0.6-3.9-0.7V115z"/>
		</g>
	</g>
	<rect x="119" y="132" class="st14" width="2" height="84"/>
	<rect x="119" y="27" class="st14" width="2" height="102"/>
</g>
</svg>
