<svg id="devices_ic_refrigerator_on" data-name="devices/ic_refrigerator_on" xmlns="http://www.w3.org/2000/svg" width="80" height="80" viewBox="0 0 80 80">
    <defs>
        <linearGradient id="linear-gradient" x1=".5" y1="1" x2=".5" gradientUnits="objectBoundingBox">
            <stop offset="0" stop-color="#87a0be"/>
            <stop offset="1" stop-color="#4182b4"/>
        </linearGradient>
        <style>
            .cls-4{fill:none;stroke:#404040;stroke-miterlimit:10;stroke-width:3px}
        </style>
    </defs>
    <g id="Group_101" data-name="Group 101" transform="translate(-235.75 -146.97)">
        <path id="Rectangle_146" data-name="Rectangle 146" transform="translate(235.75 146.97)" style="fill:none" d="M0 0h80v80H0z"/>
    </g>
    <g id="Group_105" data-name="Group 105" transform="translate(-235.75 -146.97)">
        <g id="Group_102" data-name="Group 102">
            <path id="Path_65" data-name="Path 65" d="M291.77 185.45h-12.69a.3.3 0 0 1-.3-.3v-26.72a.3.3 0 0 1 .3-.3h12.69a.3.3 0 0 1 .3.3v26.72a.3.3 0 0 1-.3.3z" style="fill:url(#linear-gradient)"/>
        </g>
        <g id="Group_104" data-name="Group 104">
            <g id="Group_103" data-name="Group 103">
                <path id="Path_66" data-name="Path 66" d="M293.5 156.69v60.56H258v-60.56h35.5m1-3H257a2.006 2.006 0 0 0-2 2v62.55a2.006 2.006 0 0 0 2 2h37.5a2.006 2.006 0 0 0 2-2v-62.55a2.006 2.006 0 0 0-2-2z" style="fill:#404040"/>
            </g>
            <path id="Line_45" data-name="Line 45" class="cls-4" transform="translate(275.75 153.69)" d="M0 0v66.56"/>
            <path id="Line_46" data-name="Line 46" class="cls-4" transform="translate(255 188.46)" d="M0 0h41.5"/>
        </g>
    </g>
</svg>
