<?xml version="1.0" encoding="utf-8"?>
<!-- Generator: Adobe Illustrator 25.0.1, SVG Export Plug-In . SVG Version: 6.00 Build 0)  -->
<svg version="1.1" id="ic_x5F_device_x5F_list_x5F_styler"
	 xmlns="http://www.w3.org/2000/svg" xmlns:xlink="http://www.w3.org/1999/xlink" x="0px" y="0px" viewBox="0 0 240 240"
	 style="enable-background:new 0 0 240 240;" xml:space="preserve">
<style type="text/css">
	.st0{fill:url(#SVGID_1_);}
	.st1{fill:url(#SVGID_2_);}
	.st2{opacity:0.2;}
	.st3{fill:none;stroke:#24BBAB;stroke-width:3.5;stroke-linecap:round;stroke-linejoin:round;stroke-miterlimit:10;}
	.st4{fill:none;stroke:#24BBAB;stroke-width:3.5;stroke-linecap:round;stroke-miterlimit:10;}
</style>
<g id="_x5F_default_62_">
	<g id="_x5F_off_46_">
		<linearGradient id="SVGID_1_" gradientUnits="userSpaceOnUse" x1="76.8845" y1="120" x2="163.0355" y2="120">
			<stop  offset="0" style="stop-color:#E8E8E8"/>
			<stop  offset="2.818268e-02" style="stop-color:#B0B0B0"/>
			<stop  offset="6.300968e-02" style="stop-color:#727272"/>
			<stop  offset="9.487859e-02" style="stop-color:#414141"/>
			<stop  offset="0.1227" style="stop-color:#1E1E1E"/>
			<stop  offset="0.1453" style="stop-color:#080808"/>
			<stop  offset="0.16" style="stop-color:#000000"/>
			<stop  offset="0.5" style="stop-color:#000000"/>
			<stop  offset="0.84" style="stop-color:#000000"/>
			<stop  offset="0.8546" style="stop-color:#0A0A0A"/>
			<stop  offset="0.879" style="stop-color:#232323"/>
			<stop  offset="0.9102" style="stop-color:#4D4D4D"/>
			<stop  offset="0.947" style="stop-color:#888888"/>
			<stop  offset="0.9881" style="stop-color:#D1D1D1"/>
			<stop  offset="1" style="stop-color:#E8E8E8"/>
		</linearGradient>
		<path class="st0" d="M157,221H83c-1.1,0-2-0.9-2-2V21c0-1.1,0.9-2,2-2h74c1.1,0,2,0.9,2,2v198C159,220.1,158.1,221,157,221z"/>
		<linearGradient id="SVGID_2_" gradientUnits="userSpaceOnUse" x1="120" y1="221" x2="120" y2="20.452">
			<stop  offset="0" style="stop-color:#C7C8CB"/>
			<stop  offset="0.128" style="stop-color:#D2D3D5"/>
			<stop  offset="0.4083" style="stop-color:#E6E7E7"/>
			<stop  offset="0.6" style="stop-color:#EDEEEE"/>
			<stop  offset="1" style="stop-color:#E3E4E4"/>
		</linearGradient>
		<rect x="84.5" y="19" class="st1" width="71" height="202"/>
		<g class="st2">
			<path d="M109.3,91.8c-0.6,0-1-0.4-1-1V89c0-0.6,0.4-1,1-1h2.6c0.6,0,1,0.4,1,1v1.9c0,0.6-0.4,1-1,1H109.3z"/>
			<path d="M115.5,91.8c-0.6,0-1-0.4-1-1V89c0-0.6,0.4-1,1-1h2.6c0.6,0,1,0.4,1,1v1.9c0,0.6-0.4,1-1,1H115.5z"/>
			<path d="M121.7,91.8c-0.6,0-1-0.4-1-1V89c0-0.6,0.4-1,1-1h2.6c0.6,0,1,0.4,1,1v1.9c0,0.6-0.4,1-1,1H121.7z"/>
			<path d="M127.9,91.8c-0.6,0-1-0.4-1-1V89c0-0.6,0.4-1,1-1h2.6c0.6,0,1,0.4,1,1v1.9c0,0.6-0.4,1-1,1H127.9z"/>
			<g>
				<path d="M105.1,86.4c-1.2,0-2.2-1-2.2-2.2s1-2.2,2.2-2.2c1.2,0,2.2,1,2.2,2.2S106.3,86.4,105.1,86.4z"/>
				<circle cx="134.5" cy="84.2" r="2.2"/>
			</g>
		</g>
	</g>
	<g>
		<path class="st3" d="M115.2,38.1c0-2.6,2.2-4.8,4.8-4.8s4.8,2.1,4.8,4.8c0,2.6-2.2,4.8-4.8,4.8v2.8"/>
		<path class="st4" d="M118.5,47.1L98.4,59.2c-2.5,1.5-1.4,5.4,1.5,5.4h40.2c2.9,0,4-3.9,1.5-5.4l-20.1-12.1
			C120.6,46.6,119.4,46.6,118.5,47.1z"/>
	</g>
</g>
</svg>
