<?xml version="1.0" encoding="utf-8"?>
<!-- Generator: Adobe Illustrator 25.0.1, SVG Export Plug-In . SVG Version: 6.00 Build 0)  -->
<svg version="1.1" id="ic_x5F_device_x5F_list_x5F_tv_x5F_default"
	 xmlns="http://www.w3.org/2000/svg" xmlns:xlink="http://www.w3.org/1999/xlink" x="0px" y="0px" viewBox="0 0 240 240"
	 style="enable-background:new 0 0 240 240;" xml:space="preserve">
<style type="text/css">
	.st0{fill:url(#SVGID_1_);}
	.st1{fill:url(#SVGID_2_);}
	.st2{fill:url(#SVGID_3_);}
	.st3{fill:url(#SVGID_4_);}
	.st4{fill:#6A6A6A;}
	.st5{fill:url(#SVGID_5_);}
	.st6{clip-path:url(#SVGID_7_);}
	.st7{opacity:0.7;fill:url(#SVGID_8_);}
	.st8{opacity:0.7;fill:url(#SVGID_9_);}
	.st9{opacity:0.5;fill:url(#SVGID_10_);}
	.st10{fill:url(#SVGID_11_);}
	.st11{opacity:0.59;fill:url(#SVGID_12_);}
</style>
<g id="icon_x2F_tv_x5F_default_1_">
	<g>
		<linearGradient id="SVGID_1_" gradientUnits="userSpaceOnUse" x1="61.6688" y1="179.4437" x2="61.6688" y2="170.9437">
			<stop  offset="0" style="stop-color:#4D4D4D"/>
			<stop  offset="1" style="stop-color:#838383"/>
		</linearGradient>
		<path class="st0" d="M58.2,170.9l2.7,7.2c0.3,0.8,1,1.3,1.8,1.3h0.6c1.4,0,2.3-1.4,1.8-2.7l-2.1-5.8"/>
		<linearGradient id="SVGID_2_" gradientUnits="userSpaceOnUse" x1="56.5" y1="170.9437" x2="56.5" y2="183.9437">
			<stop  offset="0" style="stop-color:#333333"/>
			<stop  offset="1" style="stop-color:#838383"/>
		</linearGradient>
		<path class="st1" d="M54.7,183.9H54c-1.4,0-2.4-1.4-1.9-2.7l3.9-10.3H61l-4.5,11.7C56.2,183.4,55.5,183.9,54.7,183.9z"/>
	</g>
	<g>
		
			<linearGradient id="SVGID_3_" gradientUnits="userSpaceOnUse" x1="63.9149" y1="179.4437" x2="63.9149" y2="170.9437" gradientTransform="matrix(-1 0 0 1 242.2921 0)">
			<stop  offset="0" style="stop-color:#4D4D4D"/>
			<stop  offset="1" style="stop-color:#838383"/>
		</linearGradient>
		<path class="st2" d="M181.9,170.9l-2.7,7.2c-0.3,0.8-1,1.3-1.8,1.3h-0.6c-1.4,0-2.3-1.4-1.8-2.7l2.1-5.8"/>
		
			<linearGradient id="SVGID_4_" gradientUnits="userSpaceOnUse" x1="58.7461" y1="170.9437" x2="58.7461" y2="183.9437" gradientTransform="matrix(-1 0 0 1 242.2921 0)">
			<stop  offset="0" style="stop-color:#333333"/>
			<stop  offset="1" style="stop-color:#838383"/>
		</linearGradient>
		<path class="st3" d="M185.4,183.9h0.6c1.4,0,2.4-1.4,1.9-2.7l-3.9-10.3H179l4.5,11.7C183.8,183.4,184.6,183.9,185.4,183.9z"/>
	</g>
	<path class="st4" d="M200,171H40c-4.4,0-8-3.6-8-8V64c0-4.4,3.6-8,8-8h160c4.4,0,8,3.6,8,8v99C208,167.4,204.4,171,200,171z"/>
	<linearGradient id="SVGID_5_" gradientUnits="userSpaceOnUse" x1="120" y1="166" x2="120" y2="61">
		<stop  offset="0" style="stop-color:#A7A6DE"/>
		<stop  offset="1" style="stop-color:#8C5FD0"/>
	</linearGradient>
	<path class="st5" d="M195,166H45c-4.4,0-8-3.6-8-8V69c0-4.4,3.6-8,8-8h150c4.4,0,8,3.6,8,8v89C203,162.4,199.4,166,195,166z"/>
</g>
<g>
	<defs>
		<path id="SVGID_6_" d="M195,166H45c-4.4,0-8-3.6-8-8V69c0-4.4,3.6-8,8-8h150c4.4,0,8,3.6,8,8v89C203,162.4,199.4,166,195,166z"/>
	</defs>
	<clipPath id="SVGID_7_">
		<use xlink:href="#SVGID_6_"  style="overflow:visible;"/>
	</clipPath>
	<g class="st6">
		<linearGradient id="SVGID_8_" gradientUnits="userSpaceOnUse" x1="-55.5349" y1="72.5" x2="241.4513" y2="72.5">
			<stop  offset="0" style="stop-color:#FFFFFF"/>
			<stop  offset="1" style="stop-color:#FFFFFF;stop-opacity:0"/>
		</linearGradient>
		<rect x="69" y="61" class="st7" width="134" height="23"/>
		<linearGradient id="SVGID_9_" gradientUnits="userSpaceOnUse" x1="-48.6935" y1="153.5339" x2="170.5965" y2="153.5339">
			<stop  offset="0" style="stop-color:#FFFFFF"/>
			<stop  offset="1" style="stop-color:#FFFFFF;stop-opacity:0"/>
		</linearGradient>
		<rect x="37" y="141.1" class="st8" width="157.3" height="24.9"/>
		<linearGradient id="SVGID_10_" gradientUnits="userSpaceOnUse" x1="199.2428" y1="120.0197" x2="56.407" y2="120.0197">
			<stop  offset="0" style="stop-color:#FFFFFF"/>
			<stop  offset="1" style="stop-color:#FFFFFF;stop-opacity:0"/>
		</linearGradient>
		<polygon class="st9" points="37,156 128.3,156 128.3,84 37,84 		"/>
		<linearGradient id="SVGID_11_" gradientUnits="userSpaceOnUse" x1="184.5791" y1="56.3295" x2="184.5791" y2="144.3782">
			<stop  offset="0" style="stop-color:#FFFFFF"/>
			<stop  offset="1" style="stop-color:#FFFFFF;stop-opacity:0"/>
		</linearGradient>
		<rect x="166.2" y="103.5" class="st10" width="36.8" height="62.5"/>
		<linearGradient id="SVGID_12_" gradientUnits="userSpaceOnUse" x1="165.6581" y1="9.1721" x2="165.6581" y2="131.5798">
			<stop  offset="0" style="stop-color:#FFFFFF"/>
			<stop  offset="1" style="stop-color:#FFFFFF;stop-opacity:0"/>
		</linearGradient>
		<rect x="128.3" y="84" class="st11" width="74.7" height="58.3"/>
	</g>
</g>
</svg>
