<?xml version="1.0" encoding="utf-8"?>
<!-- Generator: Adobe Illustrator 25.0.1, SVG Export Plug-In . SVG Version: 6.00 Build 0)  -->
<svg version="1.1" id="ic_x5F_device_x5F_list_x5F_tv_x5F_off"
	 xmlns="http://www.w3.org/2000/svg" xmlns:xlink="http://www.w3.org/1999/xlink" x="0px" y="0px" viewBox="0 0 240 240"
	 style="enable-background:new 0 0 240 240;" xml:space="preserve">
<style type="text/css">
	.st0{fill:#6A6A6A;}
	.st1{fill:#A5A5A5;}
	.st2{fill:url(#SVGID_1_);}
	.st3{fill:url(#SVGID_2_);}
	.st4{fill:url(#SVGID_3_);}
	.st5{fill:url(#SVGID_4_);}
</style>
<g id="icon_x2F_tv_x5F_off_1_">
	<path class="st0" d="M200,171H40c-4.4,0-8-3.6-8-8V64c0-4.4,3.6-8,8-8h160c4.4,0,8,3.6,8,8v99C208,167.4,204.4,171,200,171z"/>
	<path class="st1" d="M195,166H45c-4.4,0-8-3.6-8-8V69c0-4.4,3.6-8,8-8h150c4.4,0,8,3.6,8,8v89C203,162.4,199.4,166,195,166z"/>
	<g>
		<linearGradient id="SVGID_1_" gradientUnits="userSpaceOnUse" x1="61.6688" y1="179.4437" x2="61.6688" y2="170.9437">
			<stop  offset="0" style="stop-color:#4D4D4D"/>
			<stop  offset="1" style="stop-color:#838383"/>
		</linearGradient>
		<path class="st2" d="M58.2,170.9l2.7,7.2c0.3,0.8,1,1.3,1.8,1.3h0.6c1.4,0,2.3-1.4,1.8-2.7l-2.1-5.8"/>
		<linearGradient id="SVGID_2_" gradientUnits="userSpaceOnUse" x1="56.5" y1="170.9437" x2="56.5" y2="183.9437">
			<stop  offset="0" style="stop-color:#333333"/>
			<stop  offset="1" style="stop-color:#838383"/>
		</linearGradient>
		<path class="st3" d="M54.7,183.9H54c-1.4,0-2.4-1.4-1.9-2.7l3.9-10.3H61l-4.5,11.7C56.2,183.4,55.5,183.9,54.7,183.9z"/>
	</g>
	<g>
		
			<linearGradient id="SVGID_3_" gradientUnits="userSpaceOnUse" x1="63.9149" y1="179.4437" x2="63.9149" y2="170.9437" gradientTransform="matrix(-1 0 0 1 242.2921 0)">
			<stop  offset="0" style="stop-color:#4D4D4D"/>
			<stop  offset="1" style="stop-color:#838383"/>
		</linearGradient>
		<path class="st4" d="M181.9,170.9l-2.7,7.2c-0.3,0.8-1,1.3-1.8,1.3h-0.6c-1.4,0-2.3-1.4-1.8-2.7l2.1-5.8"/>
		
			<linearGradient id="SVGID_4_" gradientUnits="userSpaceOnUse" x1="58.7461" y1="170.9437" x2="58.7461" y2="183.9437" gradientTransform="matrix(-1 0 0 1 242.2921 0)">
			<stop  offset="0" style="stop-color:#333333"/>
			<stop  offset="1" style="stop-color:#838383"/>
		</linearGradient>
		<path class="st5" d="M185.4,183.9h0.6c1.4,0,2.4-1.4,1.9-2.7l-3.9-10.3H179l4.5,11.7C183.8,183.4,184.6,183.9,185.4,183.9z"/>
	</g>
</g>
</svg>
