<svg id="ic_waterpurifier_on" xmlns="http://www.w3.org/2000/svg" width="80" height="80" viewBox="0 0 80 80">
    <defs>
        <linearGradient id="linear-gradient" x1=".5" y1="1" x2=".5" gradientUnits="objectBoundingBox">
            <stop offset="0" stop-color="#86a0be"/>
            <stop offset="1" stop-color="#467daa"/>
        </linearGradient>
        <style>
            .cls-3{fill:none}.cls-2{fill:#404040}.cls-3{stroke:#404040;stroke-miterlimit:10;stroke-width:3px}
        </style>
    </defs>
    <g id="Group_260" data-name="Group 260" transform="translate(-1485 -146.97)">
        <path id="Rectangle_165" data-name="Rectangle 165" transform="translate(1485 146.97)" style="fill:none" d="M0 0h80v80H0z"/>
    </g>
    <g id="Group_266" data-name="Group 266" transform="translate(-1485 -146.97)">
        <g id="Group_264" data-name="Group 264">
            <g id="Group_261" data-name="Group 261">
                <path id="Path_105" data-name="Path 105" class="cls-2" d="M1538.33 160.38v2.88h-26.67v-2.88h26.67m1-3h-28.67a2.006 2.006 0 0 0-2 2v6.88h32.67v-6.88a2 2 0 0 0-2-2z"/>
            </g>
            <path id="Line_78" data-name="Line 78" class="cls-3" transform="translate(1525 178.34)" d="M0 0v7.92"/>
            <path id="Line_79" data-name="Line 79" class="cls-3" transform="translate(1512.42 164.27)" d="M0 0v7.92"/>
            <path id="Line_80" data-name="Line 80" class="cls-3" transform="translate(1537.61 164.27)" d="M0 0v7.92"/>
            <g id="Group_262" data-name="Group 262">
                <path id="Path_106" data-name="Path 106" class="cls-2" d="M1538.33 172.42v41.51a3.389 3.389 0 0 1-3.38 3.38h-19.86a3.389 3.389 0 0 1-3.38-3.38v-41.51h26.62m3-3h-32.62v44.51a6.385 6.385 0 0 0 6.38 6.38h19.86a6.385 6.385 0 0 0 6.38-6.38v-44.51z"/>
            </g>
            <g id="Group_263" data-name="Group 263">
                <path id="Path_107" data-name="Path 107" d="M1519.83 179.63v-24a.5.5 0 0 1 .5-.5h9.38a.5.5 0 0 1 .5.5v24z" style="fill:#fff"/>
                <path id="Path_108" data-name="Path 108" class="cls-2" d="M1528.71 156.63v21.5h-7.38v-21.5h7.38m1-3h-9.38a2.006 2.006 0 0 0-2 2v25.5h13.38v-25.5a2.006 2.006 0 0 0-2-2z"/>
            </g>
        </g>
        <g id="Group_265" data-name="Group 265">
            <path id="Path_109" data-name="Path 109" d="M1532.85 215.13h-15.71a3.261 3.261 0 0 1-3.26-3.26V190.7h22.22v21.17a3.246 3.246 0 0 1-3.25 3.26z" style="fill:url(#linear-gradient)"/>
        </g>
    </g>
</svg>
