<?xml version="1.0" encoding="utf-8"?>
<!-- Generator: Adobe Illustrator 25.0.1, SVG Export Plug-In . SVG Version: 6.00 Build 0)  -->
<svg version="1.1" id="ic_x5F_device_x5F_list_x5F_water_x5F_purifier"
	 xmlns="http://www.w3.org/2000/svg" xmlns:xlink="http://www.w3.org/1999/xlink" x="0px" y="0px" viewBox="0 0 240 240"
	 style="enable-background:new 0 0 240 240;" xml:space="preserve">
<style type="text/css">
	.st0{fill:url(#SVGID_1_);}
	.st1{opacity:0.25;}
	.st2{fill:url(#SVGID_2_);}
	.st3{fill:url(#SVGID_3_);}
	.st4{fill:url(#SVGID_4_);}
	.st5{fill:url(#SVGID_5_);}
	.st6{fill:url(#SVGID_6_);}
	.st7{fill:url(#SVGID_7_);}
	.st8{fill-rule:evenodd;clip-rule:evenodd;fill:url(#SVGID_8_);}
	.st9{fill:#434343;}
	.st10{opacity:0.25;fill:url(#SVGID_9_);}
	.st11{opacity:0.25;fill:url(#SVGID_10_);}
	.st12{fill:url(#SVGID_11_);}
	.st13{fill:#FFFFFF;stroke:#FFFFFF;stroke-width:4;stroke-linecap:round;stroke-linejoin:round;stroke-miterlimit:10;}
	.st14{fill:url(#SVGID_12_);}
	.st15{fill:url(#SVGID_13_);}
	.st16{fill:url(#SVGID_14_);}
	.st17{fill:url(#SVGID_15_);}
	.st18{fill:url(#SVGID_16_);}
</style>
<g id="_x5F_default_15_">
	<g>
		<linearGradient id="SVGID_1_" gradientUnits="userSpaceOnUse" x1="54.6131" y1="36.5855" x2="180.9969" y2="36.5855">
			<stop  offset="0" style="stop-color:#CCCCCC"/>
			<stop  offset="0.6" style="stop-color:#EEEEEE"/>
			<stop  offset="1" style="stop-color:#DDDDDD"/>
		</linearGradient>
		<path class="st0" d="M158,25H82c-1.1,0-2,0.9-2,2v21.2h80V27C160,25.9,159.1,25,158,25z"/>
		<g class="st1">
			<linearGradient id="SVGID_2_" gradientUnits="userSpaceOnUse" x1="160.4021" y1="36.5855" x2="137.9614" y2="36.5855">
				<stop  offset="0" style="stop-color:#212121"/>
				<stop  offset="6.850511e-02" style="stop-color:#2B2B2B;stop-opacity:0.9315"/>
				<stop  offset="0.3443" style="stop-color:#515151;stop-opacity:0.6557"/>
				<stop  offset="0.6002" style="stop-color:#6C6C6C;stop-opacity:0.3998"/>
				<stop  offset="0.8267" style="stop-color:#7C7C7C;stop-opacity:0.1733"/>
				<stop  offset="1" style="stop-color:#828282;stop-opacity:0"/>
			</linearGradient>
			<path class="st2" d="M160,27c0-1.1-0.9-2-2-2h-31.8v23.2H160V27z"/>
		</g>
		<g class="st1">
			
				<linearGradient id="SVGID_3_" gradientUnits="userSpaceOnUse" x1="-250.8955" y1="36.5855" x2="-273.3363" y2="36.5855" gradientTransform="matrix(-1 0 0 1 -171.2976 0)">
				<stop  offset="0" style="stop-color:#212121"/>
				<stop  offset="6.850511e-02" style="stop-color:#2B2B2B;stop-opacity:0.9315"/>
				<stop  offset="0.3443" style="stop-color:#515151;stop-opacity:0.6557"/>
				<stop  offset="0.6002" style="stop-color:#6C6C6C;stop-opacity:0.3998"/>
				<stop  offset="0.8267" style="stop-color:#7C7C7C;stop-opacity:0.1733"/>
				<stop  offset="1" style="stop-color:#828282;stop-opacity:0"/>
			</linearGradient>
			<path class="st3" d="M80,27c0-1.1,0.9-2,2-2h31.8v23.2H80V27z"/>
		</g>
		<linearGradient id="SVGID_4_" gradientUnits="userSpaceOnUse" x1="54.6131" y1="137.8522" x2="180.9969" y2="137.8522">
			<stop  offset="0" style="stop-color:#CCCCCC"/>
			<stop  offset="0.6" style="stop-color:#EEEEEE"/>
			<stop  offset="1" style="stop-color:#DDDDDD"/>
		</linearGradient>
		<rect x="80" y="72.2" class="st4" width="80" height="131.4"/>
	</g>
	<linearGradient id="SVGID_5_" gradientUnits="userSpaceOnUse" x1="79.0486" y1="29.0076" x2="160.6958" y2="29.0076">
		<stop  offset="0" style="stop-color:#484848"/>
		<stop  offset="0.3657" style="stop-color:#7D7D7D"/>
		<stop  offset="0.5" style="stop-color:#3D3D3D"/>
		<stop  offset="0.5634" style="stop-color:#3D3D3D"/>
		<stop  offset="0.6269" style="stop-color:#7D7D7D"/>
		<stop  offset="1" style="stop-color:#3F3F3F"/>
	</linearGradient>
	<path class="st5" d="M158,25H82c-1.1,0-2,0.9-2,2v6h80v-6C160,25.9,159.1,25,158,25z"/>
	<linearGradient id="SVGID_6_" gradientUnits="userSpaceOnUse" x1="82" y1="60.1709" x2="157.4537" y2="60.1709">
		<stop  offset="0" style="stop-color:#959595"/>
		<stop  offset="0.3694" style="stop-color:#C5C5C5"/>
		<stop  offset="0.7007" style="stop-color:#C5C5C5"/>
		<stop  offset="1" style="stop-color:#959595"/>
	</linearGradient>
	<rect x="82" y="48.2" class="st6" width="76" height="24"/>
	<g>
		<g>
			<linearGradient id="SVGID_7_" gradientUnits="userSpaceOnUse" x1="120" y1="227.108" x2="120" y2="217.0735">
				<stop  offset="0" style="stop-color:#999999"/>
				<stop  offset="1" style="stop-color:#DEDEDE"/>
			</linearGradient>
			<path class="st7" d="M80,203.6v9.1c0,6.3,5.1,11.3,11.3,11.3h57.3c6.3,0,11.3-5.1,11.3-11.3v-9.1H80z"/>
		</g>
	</g>
	<linearGradient id="SVGID_8_" gradientUnits="userSpaceOnUse" x1="80" y1="203.5022" x2="160" y2="203.5022">
		<stop  offset="0" style="stop-color:#A7A7A7"/>
		<stop  offset="0.6" style="stop-color:#D8D8D8"/>
		<stop  offset="1" style="stop-color:#9C9C9C"/>
	</linearGradient>
	<path class="st8" d="M120,199c-23.2,0-40-2.3-40-5.1v3.7v6.9c0,5.3,5.8,8.6,15.7,8.6h48.7c8.7,0,15.7-3.2,15.7-8.6v-6.9v-3.7
		C160,196.7,143.2,199,120,199z"/>
	<ellipse class="st9" cx="120.1" cy="204" rx="6.1" ry="2.4"/>
	<linearGradient id="SVGID_9_" gradientUnits="userSpaceOnUse" x1="160.4021" y1="148.0855" x2="137.9614" y2="148.0855">
		<stop  offset="0" style="stop-color:#212121"/>
		<stop  offset="6.850511e-02" style="stop-color:#2B2B2B;stop-opacity:0.9315"/>
		<stop  offset="0.3443" style="stop-color:#515151;stop-opacity:0.6557"/>
		<stop  offset="0.6002" style="stop-color:#6C6C6C;stop-opacity:0.3998"/>
		<stop  offset="0.8267" style="stop-color:#7C7C7C;stop-opacity:0.1733"/>
		<stop  offset="1" style="stop-color:#828282;stop-opacity:0"/>
	</linearGradient>
	<path class="st10" d="M148.7,224c6.3,0,11.3-5.1,11.3-11.3V72.2h-33.8V224H148.7z"/>
	
		<linearGradient id="SVGID_10_" gradientUnits="userSpaceOnUse" x1="-212.2228" y1="148.0855" x2="-234.6636" y2="148.0855" gradientTransform="matrix(-1 0 0 1 -132.625 0)">
		<stop  offset="0" style="stop-color:#212121"/>
		<stop  offset="6.850511e-02" style="stop-color:#2B2B2B;stop-opacity:0.9315"/>
		<stop  offset="0.3443" style="stop-color:#515151;stop-opacity:0.6557"/>
		<stop  offset="0.6002" style="stop-color:#6C6C6C;stop-opacity:0.3998"/>
		<stop  offset="0.8267" style="stop-color:#7C7C7C;stop-opacity:0.1733"/>
		<stop  offset="1" style="stop-color:#828282;stop-opacity:0"/>
	</linearGradient>
	<path class="st11" d="M91.3,224c-6.3,0-11.3-5.1-11.3-11.3V72.2h33.8V224H91.3z"/>
	<linearGradient id="SVGID_11_" gradientUnits="userSpaceOnUse" x1="120" y1="120.0318" x2="120" y2="192.5755">
		<stop  offset="0" style="stop-color:#448CF6"/>
		<stop  offset="1" style="stop-color:#5FCBF7"/>
	</linearGradient>
	<path class="st12" d="M86,185.2c0,3.2,2.4,5.8,5.5,6.3c7.7,1,16.5,1.6,28.5,1.6c12,0,20.9-0.6,28.5-1.6c3.1-0.4,5.5-3.1,5.5-6.3
		l0-65.2H86L86,185.2z"/>
	<path class="st13" d="M129.1,172.3c0,5-4.1,9.1-9.1,9.1c-5,0-9.1-4.1-9.1-9.1s9.1-22.6,9.1-22.6S129.1,167.3,129.1,172.3z"/>
	<linearGradient id="SVGID_12_" gradientUnits="userSpaceOnUse" x1="116" y1="128.9279" x2="123.9425" y2="128.9279">
		<stop  offset="0" style="stop-color:#9C9C9C"/>
		<stop  offset="3.021280e-02" style="stop-color:#A4A4A4"/>
		<stop  offset="0.1523" style="stop-color:#C1C1C1"/>
		<stop  offset="0.2741" style="stop-color:#D6D6D6"/>
		<stop  offset="0.3943" style="stop-color:#E2E2E2"/>
		<stop  offset="0.5112" style="stop-color:#E6E6E6"/>
		<stop  offset="0.6104" style="stop-color:#DFDFDF"/>
		<stop  offset="0.7543" style="stop-color:#CCCCCC"/>
		<stop  offset="0.9246" style="stop-color:#ACACAC"/>
		<stop  offset="1" style="stop-color:#9C9C9C"/>
	</linearGradient>
	<rect x="116" y="116.4" class="st14" width="8" height="25"/>
	<linearGradient id="SVGID_13_" gradientUnits="userSpaceOnUse" x1="108" y1="108.7666" x2="131.8275" y2="108.7666">
		<stop  offset="0" style="stop-color:#959595"/>
		<stop  offset="4.205957e-02" style="stop-color:#A1A1A1"/>
		<stop  offset="0.1583" style="stop-color:#BEBEBE"/>
		<stop  offset="0.2743" style="stop-color:#D3D3D3"/>
		<stop  offset="0.3887" style="stop-color:#DFDFDF"/>
		<stop  offset="0.5" style="stop-color:#E3E3E3"/>
		<stop  offset="0.5979" style="stop-color:#DCDCDC"/>
		<stop  offset="0.74" style="stop-color:#C9C9C9"/>
		<stop  offset="0.9081" style="stop-color:#A9A9A9"/>
		<stop  offset="1" style="stop-color:#959595"/>
	</linearGradient>
	<path class="st15" d="M131,132.7h-22c-0.6,0-1-0.4-1-1V85.8c0-0.6,0.4-1,1-1h22c0.6,0,1,0.4,1,1v45.9
		C132,132.3,131.6,132.7,131,132.7z"/>
	<g>
		<linearGradient id="SVGID_14_" gradientUnits="userSpaceOnUse" x1="101.8898" y1="59.5" x2="137.989" y2="59.5">
			<stop  offset="0" style="stop-color:#8D8D8D"/>
			<stop  offset="1.278064e-02" style="stop-color:#929292"/>
			<stop  offset="0.1116" style="stop-color:#B7B7B7"/>
			<stop  offset="0.2107" style="stop-color:#D4D4D4"/>
			<stop  offset="0.3089" style="stop-color:#E9E9E9"/>
			<stop  offset="0.4058" style="stop-color:#F5F5F5"/>
			<stop  offset="0.5" style="stop-color:#F9F9F9"/>
			<stop  offset="0.5787" style="stop-color:#F2F2F2"/>
			<stop  offset="0.6928" style="stop-color:#DFDFDF"/>
			<stop  offset="0.8286" style="stop-color:#BFBFBF"/>
			<stop  offset="0.9798" style="stop-color:#939393"/>
			<stop  offset="1" style="stop-color:#8D8D8D"/>
		</linearGradient>
		<path class="st16" d="M132,23h-24c-1.7,0-3,1.3-3,4v68c0,0.6,0.4,1,1,1h28c0.6,0,1-0.4,1-1V27C135,24.3,133.7,23,132,23z"/>
	</g>
	
		<linearGradient id="SVGID_15_" gradientUnits="userSpaceOnUse" x1="105" y1="26.6719" x2="135" y2="26.6719" gradientTransform="matrix(1 0 0 1.0032 0 -0.4997)">
		<stop  offset="0.153" style="stop-color:#3C3C3C"/>
		<stop  offset="0.5187" style="stop-color:#7D7D7D"/>
		<stop  offset="0.847" style="stop-color:#434343"/>
	</linearGradient>
	<path class="st17" d="M135,33V21.5c0-1.1-0.9-2-2-2h-26c-1.1,0-2,0.9-2,2V33H135z"/>
	<linearGradient id="SVGID_16_" gradientUnits="userSpaceOnUse" x1="120" y1="3.9956" x2="120" y2="25.8525">
		<stop  offset="8.362759e-02" style="stop-color:#4B4B4B"/>
		<stop  offset="0.3244" style="stop-color:#4F4F4F"/>
		<stop  offset="0.5187" style="stop-color:#585858"/>
		<stop  offset="0.847" style="stop-color:#434343"/>
	</linearGradient>
	<path class="st18" d="M120,16c-8.3,0-15,1.1-15,2.6v4.4c0,1.4,6.7,2.6,15,2.6c8.3,0,15-1.1,15-2.6v-4.4C135,17.1,128.3,16,120,16z"
		/>
</g>
</svg>
