<svg xmlns="http://www.w3.org/2000/svg" width="115" height="23" viewBox="0 0 115 23">
    <g fill="none" fill-rule="evenodd">
        <g fill="#000">
            <g>
                <g>
                    <g>
                        <g>
                            <path d="M82.688 22.81L88.569 22.81 106.209 0.465 100.329 0.465z" transform="translate(-223 -2755) translate(0 2001) translate(0 667) translate(0 40) translate(223 47)"/>
                            <path d="M94.449 7.914L88.568.465 82.688.465 88.568 7.914zM94.449 15.362L100.329 22.81 106.209 22.81 100.329 15.361zM.364 22.806L4.551 22.806 4.551 13.529 14.912 13.529 14.912 9.931 4.551 9.931 4.551 4.063 14.912 4.063 14.912.465.364.465zM22.242 22.806L37.221 22.806 37.221 19.209 26.426 19.209 26.426 13.151 37.221 13.151 37.221 9.553 26.426 9.553 26.426 4.063 37.221 4.063 37.221.465 22.242.465zM73.071 22.806L77.257 22.806 77.257.465 73.071.465zM61.556 16.829L50.097.465 44.55.465 44.55 22.806 48.736 22.806 48.736 6.354 60.425 22.806 65.741 22.81 65.741.465 61.556.465zM114.932 3.233c0 1.569-1.295 2.8-2.984 2.8-1.669 0-3-1.231-3-2.8 0-1.536 1.331-2.768 3-2.768 1.689 0 2.984 1.232 2.984 2.768zm-5.24 0c0 1.232.96 2.21 2.274 2.21 1.28 0 2.22-.978 2.22-2.193 0-1.233-.94-2.228-2.238-2.228-1.295 0-2.256.995-2.256 2.21zm1.795 1.45h-.675V1.917c.266-.05.639-.084 1.12-.084.55 0 .798.084 1.012.202.159.119.283.338.283.608 0 .304-.249.54-.603.641v.034c.283.101.444.304.532.675.09.421.142.59.214.692h-.729c-.088-.101-.141-.354-.231-.675-.052-.304-.23-.44-.604-.44h-.319v1.115zm.017-1.569h.32c.373 0 .676-.118.676-.404 0-.254-.196-.423-.623-.423-.177 0-.302.017-.373.034v.793z" transform="translate(-223 -2755) translate(0 2001) translate(0 667) translate(0 40) translate(223 47)"/>
                        </g>
                    </g>
                </g>
            </g>
        </g>
    </g>
</svg>
